<?xml version="1.0" encoding="UTF-8" standalone="no"?>
<!DOCTYPE svg PUBLIC "-//W3C//DTD SVG 1.1//EN"
"http://www.w3.org/Graphics/SVG/1.1/DTD/svg11.dtd">
<svg viewBox="0 0 909 1286" version="1.1" xmlns="http://www.w3.org/2000/svg" xmlns:xlink="http://www.w3.org/1999/xlink">
<defs>
<style type="text/css"><![CDATA[
.g0_37{
}
.g1_37{
fill: #0093DD;
}
.g2_37{
fill: #1F1A17;
}
.g3_37{
fill: none;
stroke: #000000;
stroke-width: 0.7638889;
stroke-linecap: round;
stroke-linejoin: miter;
}
.g4_37{
fill: #FFFFFF;
}
]]></style>
</defs>
<path fill-rule="evenodd" d="M67.7,1204.2H865.2v2.4H67.7v-2.4Z" class="g0_37" />
<path fill-rule="evenodd" d="M466.6,1204V137.6h1.6V1204h-1.6Z" class="g0_37" />
<g fill="#000000" >
<use xlink:href="#f0_1k" transform="matrix(10,0,0,10,112.4,151.3)" />
<use xlink:href="#f0_24" transform="matrix(10,0,0,10,121.9,151.3)" />
<use xlink:href="#f0_25" transform="matrix(10,0,0,10,129.4,151.3)" />
<use xlink:href="#f0_2f" transform="matrix(10,0,0,10,133.7,151.3)" />
<use xlink:href="#f0_22" transform="matrix(10,0,0,10,143.2,151.3)" />
<use xlink:href="#f0_1x" transform="matrix(10,0,0,10,148.2,151.3)" />
<use xlink:href="#f0_1z" transform="matrix(10,0,0,10,154.9,151.3)" />
<use xlink:href="#f0_2g" transform="matrix(10,0,0,10,161.7,151.3)" />
<use xlink:href="#f0_2b" transform="matrix(10,0,0,10,165.9,151.3)" />
<use xlink:href="#f0_2e" transform="matrix(10,0,0,10,173.6,151.3)" />
<use xlink:href="#f0_25" transform="matrix(10,0,0,10,182.6,151.3)" />
<use xlink:href="#f0_2f" transform="matrix(10,0,0,10,186.8,151.3)" />
<use xlink:href="#f0_2c" transform="matrix(10,0,0,10,196.4,151.3)" />
<use xlink:href="#f0_2e" transform="matrix(10,0,0,10,204.1,151.3)" />
<use xlink:href="#f0_21" transform="matrix(10,0,0,10,209.2,151.3)" />
<use xlink:href="#f0_20" transform="matrix(10,0,0,10,216,151.3)" />
<use xlink:href="#f0_2b" transform="matrix(10,0,0,10,223.7,151.3)" />
<use xlink:href="#f0_29" transform="matrix(10,0,0,10,231.4,151.3)" />
<use xlink:href="#f0_25" transform="matrix(10,0,0,10,242.9,151.3)" />
<use xlink:href="#f0_2a" transform="matrix(10,0,0,10,247.2,151.3)" />
<use xlink:href="#f0_1x" transform="matrix(10,0,0,10,254.7,151.3)" />
<use xlink:href="#f0_2a" transform="matrix(10,0,0,10,261.5,151.3)" />
<use xlink:href="#f0_2g" transform="matrix(10,0,0,10,269,151.3)" />
<use xlink:href="#f0_25" transform="matrix(10,0,0,10,276.9,151.3)" />
<use xlink:href="#f0_2a" transform="matrix(10,0,0,10,281.1,151.3)" />
<use xlink:href="#f0_1z" transform="matrix(10,0,0,10,292.5,151.3)" />
<use xlink:href="#f0_2b" transform="matrix(10,0,0,10,299.3,151.3)" />
<use xlink:href="#f0_29" transform="matrix(10,0,0,10,307,151.3)" />
<use xlink:href="#f0_2c" transform="matrix(10,0,0,10,318.5,151.3)" />
<use xlink:href="#f0_1x" transform="matrix(10,0,0,10,326.2,151.3)" />
<use xlink:href="#f0_2e" transform="matrix(10,0,0,10,333,151.3)" />
<use xlink:href="#f0_25" transform="matrix(10,0,0,10,338.1,151.3)" />
<use xlink:href="#f0_2f" transform="matrix(10,0,0,10,342.3,151.3)" />
<use xlink:href="#f0_2b" transform="matrix(10,0,0,10,348.2,151.3)" />
<use xlink:href="#f0_2a" transform="matrix(10,0,0,10,355.9,151.3)" />
<use xlink:href="#f0_2g" transform="matrix(10,0,0,10,367.1,151.3)" />
<use xlink:href="#f0_2b" transform="matrix(10,0,0,10,371.3,151.3)" />
<use xlink:href="#f0_2b" transform="matrix(10,0,0,10,382.9,151.3)" />
<use xlink:href="#f0_2g" transform="matrix(10,0,0,10,390.6,151.3)" />
<use xlink:href="#f0_24" transform="matrix(10,0,0,10,394.8,151.3)" />
<use xlink:href="#f0_21" transform="matrix(10,0,0,10,402.3,151.3)" />
<use xlink:href="#f0_2e" transform="matrix(10,0,0,10,409.1,151.3)" />
<use xlink:href="#f0_22" transform="matrix(10,0,0,10,417.9,151.3)" />
<use xlink:href="#f0_1x" transform="matrix(10,0,0,10,422.9,151.3)" />
<use xlink:href="#f0_1z" transform="matrix(10,0,0,10,429.6,151.3)" />
<use xlink:href="#f0_2g" transform="matrix(10,0,0,10,436.4,151.3)" />
<use xlink:href="#f0_2b" transform="matrix(10,0,0,10,440.6,151.3)" />
<use xlink:href="#f0_2e" transform="matrix(10,0,0,10,448.3,151.3)" />
<use xlink:href="#f0_g" transform="matrix(10,0,0,10,452.9,151.3)" />
<use xlink:href="#f0_25" transform="matrix(10,0,0,10,112.4,172)" />
<use xlink:href="#f0_i" transform="matrix(10,0,0,10,116.6,172)" />
<use xlink:href="#f0_21" transform="matrix(10,0,0,10,120.5,172)" />
<use xlink:href="#f0_i" transform="matrix(10,0,0,10,127.2,172)" />
<use xlink:href="#f0_g" transform="matrix(10,0,0,10,131.1,172)" />
<use xlink:href="#f0_25" transform="matrix(10,0,0,10,138.1,172)" />
<use xlink:href="#f0_2a" transform="matrix(10,0,0,10,142.3,172)" />
<use xlink:href="#f0_1z" transform="matrix(10,0,0,10,149.8,172)" />
<use xlink:href="#f0_2e" transform="matrix(10,0,0,10,156.6,172)" />
<use xlink:href="#f0_21" transform="matrix(10,0,0,10,161.7,172)" />
<use xlink:href="#f0_1x" transform="matrix(10,0,0,10,168.5,172)" />
<use xlink:href="#f0_2f" transform="matrix(10,0,0,10,175.2,172)" />
<use xlink:href="#f0_21" transform="matrix(10,0,0,10,181.1,172)" />
<use xlink:href="#f0_25" transform="matrix(10,0,0,10,191,172)" />
<use xlink:href="#f0_2a" transform="matrix(10,0,0,10,195.2,172)" />
<use xlink:href="#f0_2a" transform="matrix(10,0,0,10,205.9,172)" />
<use xlink:href="#f0_2h" transform="matrix(10,0,0,10,213.4,172)" />
<use xlink:href="#f0_1z" transform="matrix(10,0,0,10,220.9,172)" />
<use xlink:href="#f0_28" transform="matrix(10,0,0,10,227.7,172)" />
<use xlink:href="#f0_21" transform="matrix(10,0,0,10,231.9,172)" />
<use xlink:href="#f0_1x" transform="matrix(10,0,0,10,238.7,172)" />
<use xlink:href="#f0_2e" transform="matrix(10,0,0,10,245.5,172)" />
<use xlink:href="#f0_1z" transform="matrix(10,0,0,10,253.7,172)" />
<use xlink:href="#f0_24" transform="matrix(10,0,0,10,260.5,172)" />
<use xlink:href="#f0_1x" transform="matrix(10,0,0,10,268,172)" />
<use xlink:href="#f0_2e" transform="matrix(10,0,0,10,274.8,172)" />
<use xlink:href="#f0_23" transform="matrix(10,0,0,10,279.9,172)" />
<use xlink:href="#f0_21" transform="matrix(10,0,0,10,287.4,172)" />
<use xlink:href="#f0_i" transform="matrix(10,0,0,10,294.2,172)" />
</g>
<path d="M295.7,310L202.1,216.8l.8,-.8l93.6,93.2l-.8,.8Zm.8,.8l.3,-1.1l-.8,.6l-1.1,-5.2l1.1,-.3l1.4,5.5l-.9,.5Zm0,0l.9,-.5v.8l-.9,-.3Zm-5.2,-1.6l.3,-.5l5.2,1l-.3,1.1l-5.2,-1.1v-.5Z" class="g1_37" />
<path d="M202.9,343.2h-1.1l-2.7,-4.4l.8,-.8l3,4.7h-1.1l1.1,.5Zm0,0l-.5,.8l-.6,-.8h1.1Zm2.5,-4.9l.5,.5l-3,4.4l-1.1,-.5l3,-4.7l.6,.3Zm-3,-122.6l.5,.5V342.1h-1.1V216.2l.6,-.5Zm-.6,.5v-.5h.6l-.6,.5Zm126.6,.6h-126v-1.1h126v1.1Zm1.1,0l-.6,-.8v.8l-4.6,-3l.8,-.9l4.4,3.1v.8Zm0,0V216l.8,.2l-.8,.6Zm-4.7,2.5l-.5,-.6l4.6,-2.7l.6,.8l-4.4,3l-.3,-.5Z" class="g2_37" />
<g fill="#1F1A17" >
<use xlink:href="#f0_19" transform="matrix(7.5,0,0,7.5,242.7,209.4)" />
<use xlink:href="#f0_2a" transform="matrix(7.5,0,0,7.5,246.6,209.4)" />
<use xlink:href="#f0_1z" transform="matrix(7.5,0,0,7.5,252.3,209.4)" />
<use xlink:href="#f0_2e" transform="matrix(7.5,0,0,7.5,257.3,209.4)" />
<use xlink:href="#f0_21" transform="matrix(7.5,0,0,7.5,261.1,209.4)" />
<use xlink:href="#f0_1x" transform="matrix(7.5,0,0,7.5,266.3,209.4)" />
<use xlink:href="#f0_2f" transform="matrix(7.5,0,0,7.5,271.3,209.4)" />
<use xlink:href="#f0_21" transform="matrix(7.5,0,0,7.5,275.7,209.4)" />
<use xlink:href="#f0_2f" transform="matrix(7.5,0,0,7.5,280.9,209.4)" />
<use xlink:href="#f0_14" transform="matrix(0,-7.5,7.5,0,198.5,303.2)" />
<use xlink:href="#f0_21" transform="matrix(0,-7.5,7.5,0,198.5,294.9)" />
<use xlink:href="#f0_1z" transform="matrix(0,-7.5,7.5,0,198.5,289.7)" />
<use xlink:href="#f0_2e" transform="matrix(0,-7.5,7.5,0,198.5,284.8)" />
<use xlink:href="#f0_21" transform="matrix(0,-7.5,7.5,0,198.5,281)" />
<use xlink:href="#f0_1x" transform="matrix(0,-7.5,7.5,0,198.5,275.7)" />
<use xlink:href="#f0_2f" transform="matrix(0,-7.5,7.5,0,198.5,270.8)" />
<use xlink:href="#f0_21" transform="matrix(0,-7.5,7.5,0,198.5,266.1)" />
<use xlink:href="#f0_2f" transform="matrix(0,-7.5,7.5,0,198.5,261.2)" />
<use xlink:href="#f0_15" transform="matrix(5.4,5.3,-5.3,5.4,254,262.6)" />
<use xlink:href="#f0_28" transform="matrix(5.4,5.3,-5.3,5.4,258.9,267.5)" />
<use xlink:href="#f0_21" transform="matrix(5.4,5.3,-5.3,5.4,261.4,269.7)" />
<use xlink:href="#f0_1z" transform="matrix(5.4,5.3,-5.3,5.4,265,273.3)" />
<use xlink:href="#f0_2g" transform="matrix(5.4,5.3,-5.3,5.4,268.5,276.8)" />
<use xlink:href="#f0_2e" transform="matrix(5.4,5.3,-5.3,5.4,270.7,279)" />
<use xlink:href="#f0_2b" transform="matrix(5.4,5.3,-5.3,5.4,273.5,281.8)" />
<use xlink:href="#f0_2a" transform="matrix(5.4,5.3,-5.3,5.4,277.6,285.6)" />
<use xlink:href="#f0_1x" transform="matrix(5.4,5.2,-5.3,5.4,246.6,276)" />
<use xlink:href="#f0_22" transform="matrix(5.4,5.2,-5.3,5.4,250.4,279.6)" />
<use xlink:href="#f0_22" transform="matrix(5.4,5.2,-5.3,5.4,252.9,282.1)" />
<use xlink:href="#f0_25" transform="matrix(5.4,5.2,-5.3,5.4,255.6,284.8)" />
<use xlink:href="#f0_2a" transform="matrix(5.4,5.2,-5.3,5.4,257.8,287)" />
<use xlink:href="#f0_25" transform="matrix(5.4,5.2,-5.3,5.4,261.9,291.1)" />
<use xlink:href="#f0_2g" transform="matrix(5.4,5.2,-5.3,5.4,264.1,293.3)" />
<use xlink:href="#f0_2l" transform="matrix(5.4,5.2,-5.3,5.4,266.6,295.5)" />
<use xlink:href="#f0_1g" transform="matrix(7.5,0,0,7.5,296.3,233.2)" />
<use xlink:href="#f0_21" transform="matrix(7.5,0,0,7.5,302.6,233.2)" />
<use xlink:href="#f0_2e" transform="matrix(7.5,0,0,7.5,307.8,233.2)" />
<use xlink:href="#f0_25" transform="matrix(7.5,0,0,7.5,311.6,233.2)" />
<use xlink:href="#f0_2b" transform="matrix(7.5,0,0,7.5,314.6,233.2)" />
<use xlink:href="#f0_20" transform="matrix(7.5,0,0,7.5,320.4,233.2)" />
<use xlink:href="#f0_17" transform="matrix(7.5,0,0,7.5,207.9,334.7)" />
<use xlink:href="#f0_2e" transform="matrix(7.5,0,0,7.5,216.1,334.7)" />
<use xlink:href="#f0_2b" transform="matrix(7.5,0,0,7.5,219.9,334.7)" />
<use xlink:href="#f0_2h" transform="matrix(7.5,0,0,7.5,225.7,334.7)" />
<use xlink:href="#f0_2c" transform="matrix(7.5,0,0,7.5,231.5,334.7)" />
</g>
<path d="M340.2,195.4l-.6,.5H185.1v-1.3H339.6l.6,.8Zm-.6,-.8h.6v.8l-.6,-.8Zm0,158.7l-.5,-.8V195.4h1.1V352.5l-.6,.8Zm.6,-.8v.8h-.6l.6,-.8Zm-155.7,0l.6,-.5H339.6v1.3H185.1l-.6,-.8Zm.6,.8h-.6v-.8l.6,.8Zm0,-158.7l.5,.8V352.5h-1.1V195.4l.6,-.8Zm-.6,.8v-.8h.6l-.6,.8Z" class="g1_37" />
<g fill="#000000" >
<use xlink:href="#f1_o" transform="matrix(10,0,0,10,112.4,396.1)" />
<use xlink:href="#f1_i" transform="matrix(10,0,0,10,119.9,396.1)" />
<use xlink:href="#f1_q" transform="matrix(10,0,0,10,123.4,396.1)" />
<use xlink:href="#f1_15" transform="matrix(10,0,0,10,133.5,396.1)" />
<use xlink:href="#f1_28" transform="matrix(10,0,0,10,143.2,396.1)" />
<use xlink:href="#f1_21" transform="matrix(10,0,0,10,147.2,396.1)" />
<use xlink:href="#f1_1z" transform="matrix(10,0,0,10,153.7,396.1)" />
<use xlink:href="#f1_2g" transform="matrix(10,0,0,10,160.1,396.1)" />
<use xlink:href="#f1_2e" transform="matrix(10,0,0,10,165,396.1)" />
<use xlink:href="#f1_2b" transform="matrix(10,0,0,10,171.5,396.1)" />
<use xlink:href="#f1_2a" transform="matrix(10,0,0,10,178.8,396.1)" />
<use xlink:href="#f1_21" transform="matrix(10,0,0,10,186.9,396.1)" />
<use xlink:href="#f1_23" transform="matrix(10,0,0,10,193.5,396.1)" />
<use xlink:href="#f1_1x" transform="matrix(10,0,0,10,200.8,396.1)" />
<use xlink:href="#f1_2g" transform="matrix(10,0,0,10,208.2,396.1)" />
<use xlink:href="#f1_25" transform="matrix(10,0,0,10,213.1,396.1)" />
<use xlink:href="#f1_2i" transform="matrix(10,0,0,10,217,396.1)" />
<use xlink:href="#f1_25" transform="matrix(10,0,0,10,224.3,396.1)" />
<use xlink:href="#f1_2g" transform="matrix(10,0,0,10,228.4,396.1)" />
<use xlink:href="#f1_2l" transform="matrix(10,0,0,10,233.1,396.1)" />
<use xlink:href="#f0_1k" transform="matrix(10,0,0,10,112.4,430.9)" />
<use xlink:href="#f0_24" transform="matrix(10,0,0,10,122.1,430.9)" />
<use xlink:href="#f0_21" transform="matrix(10,0,0,10,129.6,430.9)" />
<use xlink:href="#f0_2g" transform="matrix(10,0,0,10,142.4,430.9)" />
<use xlink:href="#f0_21" transform="matrix(10,0,0,10,146.7,430.9)" />
<use xlink:href="#f0_2a" transform="matrix(10,0,0,10,153.6,430.9)" />
<use xlink:href="#f0_20" transform="matrix(10,0,0,10,161.1,430.9)" />
<use xlink:href="#f0_21" transform="matrix(10,0,0,10,169,430.9)" />
<use xlink:href="#f0_2a" transform="matrix(10,0,0,10,176,430.9)" />
<use xlink:href="#f0_1z" transform="matrix(10,0,0,10,183.5,430.9)" />
<use xlink:href="#f0_2l" transform="matrix(10,0,0,10,190.4,430.9)" />
<use xlink:href="#f0_2b" transform="matrix(10,0,0,10,203.8,430.9)" />
<use xlink:href="#f0_22" transform="matrix(10,0,0,10,211.7,430.9)" />
<use xlink:href="#f0_1x" transform="matrix(10,0,0,10,222.5,430.9)" />
<use xlink:href="#f0_2a" transform="matrix(10,0,0,10,229.5,430.9)" />
<use xlink:href="#f0_1x" transform="matrix(10,0,0,10,243,430.9)" />
<use xlink:href="#f0_2g" transform="matrix(10,0,0,10,250,430.9)" />
<use xlink:href="#f0_2b" transform="matrix(10,0,0,10,254.2,430.9)" />
<use xlink:href="#f0_29" transform="matrix(10,0,0,10,262.1,430.9)" />
<use xlink:href="#f0_2g" transform="matrix(10,0,0,10,279.5,430.9)" />
<use xlink:href="#f0_2b" transform="matrix(10,0,0,10,283.9,430.9)" />
<use xlink:href="#f0_1x" transform="matrix(10,0,0,10,297.6,430.9)" />
<use xlink:href="#f0_2g" transform="matrix(10,0,0,10,304.6,430.9)" />
<use xlink:href="#f0_2g" transform="matrix(10,0,0,10,308.8,430.9)" />
<use xlink:href="#f0_2e" transform="matrix(10,0,0,10,313.2,430.9)" />
<use xlink:href="#f0_1x" transform="matrix(10,0,0,10,318.5,430.9)" />
<use xlink:href="#f0_1z" transform="matrix(10,0,0,10,325.3,430.9)" />
<use xlink:href="#f0_2g" transform="matrix(10,0,0,10,332.3,430.9)" />
<use xlink:href="#f0_2g" transform="matrix(10,0,0,10,342.3,430.9)" />
<use xlink:href="#f0_24" transform="matrix(10,0,0,10,346.7,430.9)" />
<use xlink:href="#f0_21" transform="matrix(10,0,0,10,354.2,430.9)" />
<use xlink:href="#f0_2f" transform="matrix(10,0,0,10,367.2,430.9)" />
<use xlink:href="#f0_24" transform="matrix(10,0,0,10,373.1,430.9)" />
<use xlink:href="#f0_1x" transform="matrix(10,0,0,10,380.8,430.9)" />
<use xlink:href="#f0_2e" transform="matrix(10,0,0,10,387.8,430.9)" />
<use xlink:href="#f0_21" transform="matrix(10,0,0,10,392.9,430.9)" />
<use xlink:href="#f0_20" transform="matrix(10,0,0,10,399.9,430.9)" />
<use xlink:href="#f0_2c" transform="matrix(10,0,0,10,413.4,430.9)" />
<use xlink:href="#f0_1x" transform="matrix(10,0,0,10,421.3,430.9)" />
<use xlink:href="#f0_25" transform="matrix(10,0,0,10,428.1,430.9)" />
<use xlink:href="#f0_2e" transform="matrix(10,0,0,10,432.5,430.9)" />
<use xlink:href="#f0_2b" transform="matrix(10,0,0,10,443.6,430.9)" />
<use xlink:href="#f0_22" transform="matrix(10,0,0,10,451.5,430.9)" />
<use xlink:href="#f0_21" transform="matrix(10,0,0,10,112.4,451.6)" />
<use xlink:href="#f0_28" transform="matrix(10,0,0,10,119.2,451.6)" />
<use xlink:href="#f0_21" transform="matrix(10,0,0,10,123.4,451.6)" />
<use xlink:href="#f0_1z" transform="matrix(10,0,0,10,130.2,451.6)" />
<use xlink:href="#f0_2g" transform="matrix(10,0,0,10,136.9,451.6)" />
<use xlink:href="#f0_2e" transform="matrix(10,0,0,10,141.2,451.6)" />
<use xlink:href="#f0_2b" transform="matrix(10,0,0,10,146.3,451.6)" />
<use xlink:href="#f0_2a" transform="matrix(10,0,0,10,154,451.6)" />
<use xlink:href="#f0_2f" transform="matrix(10,0,0,10,161.5,451.6)" />
<use xlink:href="#f0_2g" transform="matrix(10,0,0,10,170.3,451.6)" />
<use xlink:href="#f0_2b" transform="matrix(10,0,0,10,174.5,451.6)" />
<use xlink:href="#f0_2j" transform="matrix(10,0,0,10,182.2,451.6)" />
<use xlink:href="#f0_1x" transform="matrix(10,0,0,10,192.9,451.6)" />
<use xlink:href="#f0_2e" transform="matrix(10,0,0,10,199.7,451.6)" />
<use xlink:href="#f0_20" transform="matrix(10,0,0,10,204.8,451.6)" />
<use xlink:href="#f0_2f" transform="matrix(10,0,0,10,212.5,451.6)" />
<use xlink:href="#f0_25" transform="matrix(10,0,0,10,221.3,451.6)" />
<use xlink:href="#f0_2g" transform="matrix(10,0,0,10,225.5,451.6)" />
<use xlink:href="#f0_2f" transform="matrix(10,0,0,10,229.8,451.6)" />
<use xlink:href="#f0_21" transform="matrix(10,0,0,10,235.6,451.6)" />
<use xlink:href="#f0_28" transform="matrix(10,0,0,10,242.4,451.6)" />
<use xlink:href="#f0_22" transform="matrix(10,0,0,10,246.6,451.6)" />
<use xlink:href="#f0_25" transform="matrix(10,0,0,10,254.5,451.6)" />
<use xlink:href="#f0_2f" transform="matrix(10,0,0,10,258.8,451.6)" />
<use xlink:href="#f0_27" transform="matrix(10,0,0,10,267.6,451.6)" />
<use xlink:href="#f0_2a" transform="matrix(10,0,0,10,275.1,451.6)" />
<use xlink:href="#f0_2b" transform="matrix(10,0,0,10,282.6,451.6)" />
<use xlink:href="#f0_2j" transform="matrix(10,0,0,10,290.3,451.6)" />
<use xlink:href="#f0_2a" transform="matrix(10,0,0,10,300.9,451.6)" />
<use xlink:href="#f0_1x" transform="matrix(10,0,0,10,311.4,451.6)" />
<use xlink:href="#f0_2f" transform="matrix(10,0,0,10,318.2,451.6)" />
<use xlink:href="#f0_25" transform="matrix(10,0,0,10,327,451.6)" />
<use xlink:href="#f0_2g" transform="matrix(10,0,0,10,331.2,451.6)" />
<use xlink:href="#f0_2f" transform="matrix(10,0,0,10,335.4,451.6)" />
<use xlink:href="#f1_21" transform="matrix(10,0,0,10,344.1,451.6)" />
<use xlink:href="#f1_28" transform="matrix(10,0,0,10,350.9,451.6)" />
<use xlink:href="#f1_21" transform="matrix(10,0,0,10,355.1,451.6)" />
<use xlink:href="#f1_1z" transform="matrix(10,0,0,10,361.9,451.6)" />
<use xlink:href="#f1_2g" transform="matrix(10,0,0,10,368.7,451.6)" />
<use xlink:href="#f1_2e" transform="matrix(10,0,0,10,373.8,451.6)" />
<use xlink:href="#f1_2b" transform="matrix(10,0,0,10,380.4,451.6)" />
<use xlink:href="#f1_2a" transform="matrix(10,0,0,10,388.1,451.6)" />
<use xlink:href="#f1_21" transform="matrix(10,0,0,10,396.5,451.6)" />
<use xlink:href="#f1_23" transform="matrix(10,0,0,10,403.3,451.6)" />
<use xlink:href="#f1_1x" transform="matrix(10,0,0,10,411,451.6)" />
<use xlink:href="#f1_2g" transform="matrix(10,0,0,10,418.7,451.6)" />
<use xlink:href="#f1_25" transform="matrix(10,0,0,10,423.8,451.6)" />
<use xlink:href="#f1_2i" transform="matrix(10,0,0,10,428.1,451.6)" />
<use xlink:href="#f1_25" transform="matrix(10,0,0,10,435.8,451.6)" />
<use xlink:href="#f1_2g" transform="matrix(10,0,0,10,440,451.6)" />
<use xlink:href="#f1_2l" transform="matrix(10,0,0,10,445.1,451.6)" />
<use xlink:href="#f0_i" transform="matrix(10,0,0,10,452.8,451.6)" />
<use xlink:href="#f0_11" transform="matrix(10,0,0,10,112.4,478.7)" />
<use xlink:href="#f0_1z" transform="matrix(10,0,0,10,123,478.7)" />
<use xlink:href="#f0_1z" transform="matrix(10,0,0,10,129.6,478.7)" />
<use xlink:href="#f0_2b" transform="matrix(10,0,0,10,136.2,478.7)" />
<use xlink:href="#f0_2e" transform="matrix(10,0,0,10,143.9,478.7)" />
<use xlink:href="#f0_20" transform="matrix(10,0,0,10,148.9,478.7)" />
<use xlink:href="#f0_25" transform="matrix(10,0,0,10,156.4,478.7)" />
<use xlink:href="#f0_2a" transform="matrix(10,0,0,10,160.5,478.7)" />
<use xlink:href="#f0_23" transform="matrix(10,0,0,10,167.8,478.7)" />
<use xlink:href="#f0_2g" transform="matrix(10,0,0,10,178.4,478.7)" />
<use xlink:href="#f0_2b" transform="matrix(10,0,0,10,182.5,478.7)" />
<use xlink:href="#f1_1g" transform="matrix(10,0,0,10,193.2,478.7)" />
<use xlink:href="#f1_1x" transform="matrix(10,0,0,10,202.4,478.7)" />
<use xlink:href="#f1_2h" transform="matrix(10,0,0,10,209.9,478.7)" />
<use xlink:href="#f1_28" transform="matrix(10,0,0,10,218.2,478.7)" />
<use xlink:href="#f1_25" transform="matrix(10,0,0,10,222.4,478.7)" />
<use xlink:href="#f1_2a" transform="matrix(10,0,0,10,226.5,478.7)" />
<use xlink:href="#f1_23" transform="matrix(10,0,0,10,234.7,478.7)" />
<use xlink:href="#f0_g" transform="matrix(10,0,0,10,242.2,478.7)" />
<use xlink:href="#f0_2g" transform="matrix(10,0,0,10,249,478.7)" />
<use xlink:href="#f0_24" transform="matrix(10,0,0,10,253,478.7)" />
<use xlink:href="#f0_21" transform="matrix(10,0,0,10,260.5,478.7)" />
<use xlink:href="#f0_21" transform="matrix(10,0,0,10,270.4,478.7)" />
<use xlink:href="#f0_28" transform="matrix(10,0,0,10,277,478.7)" />
<use xlink:href="#f0_21" transform="matrix(10,0,0,10,281.1,478.7)" />
<use xlink:href="#f0_1z" transform="matrix(10,0,0,10,287.7,478.7)" />
<use xlink:href="#f0_2g" transform="matrix(10,0,0,10,294.5,478.7)" />
<use xlink:href="#f0_2e" transform="matrix(10,0,0,10,298.5,478.7)" />
<use xlink:href="#f0_2b" transform="matrix(10,0,0,10,303.5,478.7)" />
<use xlink:href="#f0_2a" transform="matrix(10,0,0,10,311,478.7)" />
<use xlink:href="#f0_21" transform="matrix(10,0,0,10,318.3,478.7)" />
<use xlink:href="#f0_23" transform="matrix(10,0,0,10,324.9,478.7)" />
<use xlink:href="#f0_1x" transform="matrix(10,0,0,10,332.5,478.7)" />
<use xlink:href="#f0_2g" transform="matrix(10,0,0,10,339.1,478.7)" />
<use xlink:href="#f0_25" transform="matrix(10,0,0,10,343.1,478.7)" />
<use xlink:href="#f0_2i" transform="matrix(10,0,0,10,347.2,478.7)" />
<use xlink:href="#f0_25" transform="matrix(10,0,0,10,354.5,478.7)" />
<use xlink:href="#f0_2g" transform="matrix(10,0,0,10,358.5,478.7)" />
<use xlink:href="#f0_2l" transform="matrix(10,0,0,10,362.6,478.7)" />
<use xlink:href="#f0_2b" transform="matrix(10,0,0,10,373,478.7)" />
<use xlink:href="#f0_22" transform="matrix(10,0,0,10,380.6,478.7)" />
<use xlink:href="#f0_16" transform="matrix(10,0,0,10,388.6,478.7)" />
<use xlink:href="#f0_25" transform="matrix(10,0,0,10,400.2,478.7)" />
<use xlink:href="#f0_2f" transform="matrix(10,0,0,10,404.2,478.7)" />
<use xlink:href="#f0_o" transform="matrix(10,0,0,10,413.2,478.7)" />
<use xlink:href="#f0_i" transform="matrix(10,0,0,10,420.8,478.7)" />
<use xlink:href="#f0_k" transform="matrix(10,0,0,10,424.4,478.7)" />
<use xlink:href="#f0_1x" transform="matrix(10,0,0,10,435.2,478.7)" />
<use xlink:href="#f0_2a" transform="matrix(10,0,0,10,441.9,478.7)" />
<use xlink:href="#f0_20" transform="matrix(10,0,0,10,449.2,478.7)" />
<use xlink:href="#f0_21" transform="matrix(10,0,0,10,112.4,499.3)" />
<use xlink:href="#f0_28" transform="matrix(10,0,0,10,119,499.3)" />
<use xlink:href="#f0_21" transform="matrix(10,0,0,10,123,499.3)" />
<use xlink:href="#f0_1z" transform="matrix(10,0,0,10,129.6,499.3)" />
<use xlink:href="#f0_2g" transform="matrix(10,0,0,10,136.4,499.3)" />
<use xlink:href="#f0_2e" transform="matrix(10,0,0,10,140.5,499.3)" />
<use xlink:href="#f0_2b" transform="matrix(10,0,0,10,145.4,499.3)" />
<use xlink:href="#f0_2a" transform="matrix(10,0,0,10,152.9,499.3)" />
<use xlink:href="#f0_21" transform="matrix(10,0,0,10,160.3,499.3)" />
<use xlink:href="#f0_23" transform="matrix(10,0,0,10,166.9,499.3)" />
<use xlink:href="#f0_1x" transform="matrix(10,0,0,10,174.4,499.3)" />
<use xlink:href="#f0_2g" transform="matrix(10,0,0,10,181,499.3)" />
<use xlink:href="#f0_25" transform="matrix(10,0,0,10,185,499.3)" />
<use xlink:href="#f0_2i" transform="matrix(10,0,0,10,189.1,499.3)" />
<use xlink:href="#f0_25" transform="matrix(10,0,0,10,196.4,499.3)" />
<use xlink:href="#f0_2g" transform="matrix(10,0,0,10,200.5,499.3)" />
<use xlink:href="#f0_2l" transform="matrix(10,0,0,10,204.7,499.3)" />
<use xlink:href="#f0_2b" transform="matrix(10,0,0,10,215.7,499.3)" />
<use xlink:href="#f0_22" transform="matrix(10,0,0,10,223.2,499.3)" />
<use xlink:href="#f0_2b" transform="matrix(10,0,0,10,232,499.3)" />
<use xlink:href="#f0_2g" transform="matrix(10,0,0,10,239.7,499.3)" />
<use xlink:href="#f0_24" transform="matrix(10,0,0,10,243.8,499.3)" />
<use xlink:href="#f0_21" transform="matrix(10,0,0,10,251.1,499.3)" />
<use xlink:href="#f0_2e" transform="matrix(10,0,0,10,257.7,499.3)" />
<use xlink:href="#f0_21" transform="matrix(10,0,0,10,266.5,499.3)" />
<use xlink:href="#f0_28" transform="matrix(10,0,0,10,273.3,499.3)" />
<use xlink:href="#f0_21" transform="matrix(10,0,0,10,277.4,499.3)" />
<use xlink:href="#f0_29" transform="matrix(10,0,0,10,284,499.3)" />
<use xlink:href="#f0_21" transform="matrix(10,0,0,10,295.3,499.3)" />
<use xlink:href="#f0_2a" transform="matrix(10,0,0,10,301.9,499.3)" />
<use xlink:href="#f0_2g" transform="matrix(10,0,0,10,309.3,499.3)" />
<use xlink:href="#f0_2f" transform="matrix(10,0,0,10,313.5,499.3)" />
<use xlink:href="#f0_1z" transform="matrix(10,0,0,10,323.2,499.3)" />
<use xlink:href="#f0_1x" transform="matrix(10,0,0,10,329.8,499.3)" />
<use xlink:href="#f0_2a" transform="matrix(10,0,0,10,336.4,499.3)" />
<use xlink:href="#f0_1y" transform="matrix(10,0,0,10,347.8,499.3)" />
<use xlink:href="#f0_21" transform="matrix(10,0,0,10,355.3,499.3)" />
<use xlink:href="#f0_1z" transform="matrix(10,0,0,10,365.9,499.3)" />
<use xlink:href="#f0_1x" transform="matrix(10,0,0,10,372.6,499.3)" />
<use xlink:href="#f0_28" transform="matrix(10,0,0,10,379.2,499.3)" />
<use xlink:href="#f0_1z" transform="matrix(10,0,0,10,383.4,499.3)" />
<use xlink:href="#f0_2h" transform="matrix(10,0,0,10,390,499.3)" />
<use xlink:href="#f0_28" transform="matrix(10,0,0,10,397.3,499.3)" />
<use xlink:href="#f0_1x" transform="matrix(10,0,0,10,401.4,499.3)" />
<use xlink:href="#f0_2g" transform="matrix(10,0,0,10,408,499.3)" />
<use xlink:href="#f0_21" transform="matrix(10,0,0,10,412,499.3)" />
<use xlink:href="#f0_20" transform="matrix(10,0,0,10,418.8,499.3)" />
<use xlink:href="#f0_1x" transform="matrix(10,0,0,10,430.2,499.3)" />
<use xlink:href="#f0_2f" transform="matrix(10,0,0,10,436.8,499.3)" />
<use xlink:href="#f0_c" transform="matrix(10,0,0,10,112.4,528.1)" />
<use xlink:href="#f2_g" transform="matrix(10,0,0,10,117.5,528.1)" />
<use xlink:href="#f0_11" transform="matrix(5.8,0,0,5.8,125.8,533.2)" />
<use xlink:href="#f3_1jz" transform="matrix(10,0,0,10,135.3,528.1)" />
<use xlink:href="#f2_g" transform="matrix(10,0,0,10,146.3,528.1)" />
<use xlink:href="#f0_12" transform="matrix(6.4,0,0,6.4,154.6,533.6)" />
<use xlink:href="#f0_d" transform="matrix(10,0,0,10,161.2,528.1)" />
<use xlink:href="#f0_x" transform="matrix(10,0,0,10,169.6,528.1)" />
<use xlink:href="#f0_k" transform="matrix(10,0,0,10,181.3,528.1)" />
<use xlink:href="#f0_i" transform="matrix(10,0,0,10,189,528.1)" />
<use xlink:href="#f0_m" transform="matrix(10,0,0,10,192.9,528.1)" />
<use xlink:href="#f0_k" transform="matrix(10,0,0,10,200.6,528.1)" />
<use xlink:href="#f0_s" transform="matrix(10,0,0,10,208.3,528.1)" />
<use xlink:href="#f0_1r" transform="matrix(10,0,0,10,219.3,528.1)" />
<use xlink:href="#f0_15" transform="matrix(10,0,0,10,224.4,528.1)" />
<use xlink:href="#f3_11" transform="matrix(6.4,0,0,6.4,233.8,533.6)" />
<use xlink:href="#f3_1jz" transform="matrix(6.4,0,0,6.4,240.5,533.6)" />
<use xlink:href="#f3_12" transform="matrix(6.4,0,0,6.4,245.5,533.6)" />
<use xlink:href="#f3_1jz" transform="matrix(10,0,0,10,254.1,528.1)" />
<use xlink:href="#f3_c" transform="matrix(10,0,0,10,264.9,528.1)" />
<use xlink:href="#f3_15" transform="matrix(10,0,0,10,270,528.1)" />
<use xlink:href="#f3_11" transform="matrix(6.4,0,0,6.4,279.4,533.6)" />
<use xlink:href="#f3_1jz" transform="matrix(6.4,0,0,6.4,286.2,533.6)" />
<use xlink:href="#f3_11" transform="matrix(6.4,0,0,6.4,291.1,533.6)" />
<use xlink:href="#f0_4a" transform="matrix(10,0,0,10,301,528.1)" />
<use xlink:href="#f0_15" transform="matrix(10,0,0,10,313,528.1)" />
<use xlink:href="#f3_12" transform="matrix(6.4,0,0,6.4,322.3,533.6)" />
<use xlink:href="#f3_1jz" transform="matrix(6.4,0,0,6.4,328.9,533.6)" />
<use xlink:href="#f3_12" transform="matrix(6.4,0,0,6.4,333.8,533.6)" />
<use xlink:href="#f0_d" transform="matrix(10,0,0,10,340.5,528.1)" />
<use xlink:href="#f0_l" transform="matrix(6.4,0,0,6.4,345.6,522.6)" />
<use xlink:href="#f0_j" transform="matrix(6.4,0,0,6.4,350.5,522.6)" />
<use xlink:href="#f0_m" transform="matrix(6.4,0,0,6.4,353.3,522.6)" />
<use xlink:href="#f0_1t" transform="matrix(10,0,0,10,358.2,528.1)" />
<use xlink:href="#f0_l" transform="matrix(6.4,0,0,6.4,363.4,522.6)" />
<use xlink:href="#f0_j" transform="matrix(6.4,0,0,6.4,368.3,522.6)" />
<use xlink:href="#f0_m" transform="matrix(6.4,0,0,6.4,371.1,522.6)" />
<use xlink:href="#f0_11" transform="matrix(10,0,0,10,112.4,557.4)" />
<use xlink:href="#f0_1z" transform="matrix(10,0,0,10,123.2,557.4)" />
<use xlink:href="#f0_1z" transform="matrix(10,0,0,10,130,557.4)" />
<use xlink:href="#f0_2b" transform="matrix(10,0,0,10,136.7,557.4)" />
<use xlink:href="#f0_2e" transform="matrix(10,0,0,10,144.4,557.4)" />
<use xlink:href="#f0_20" transform="matrix(10,0,0,10,149.6,557.4)" />
<use xlink:href="#f0_25" transform="matrix(10,0,0,10,157.3,557.4)" />
<use xlink:href="#f0_2a" transform="matrix(10,0,0,10,161.5,557.4)" />
<use xlink:href="#f0_23" transform="matrix(10,0,0,10,169,557.4)" />
<use xlink:href="#f0_2g" transform="matrix(10,0,0,10,180.4,557.4)" />
<use xlink:href="#f0_2b" transform="matrix(10,0,0,10,184.6,557.4)" />
<use xlink:href="#f1_1d" transform="matrix(10,0,0,10,196.4,557.4)" />
<use xlink:href="#f1_2h" transform="matrix(10,0,0,10,211,557.4)" />
<use xlink:href="#f1_28" transform="matrix(10,0,0,10,219.5,557.4)" />
<use xlink:href="#f1_28" transform="matrix(10,0,0,10,223.7,557.4)" />
<use xlink:href="#f1_25" transform="matrix(10,0,0,10,227.9,557.4)" />
<use xlink:href="#f1_27" transform="matrix(10,0,0,10,232.1,557.4)" />
<use xlink:href="#f1_21" transform="matrix(10,0,0,10,240.4,557.4)" />
<use xlink:href="#f1_2a" transform="matrix(10,0,0,10,247.2,557.4)" />
</g>
<path d="M649.3,170.8h49.6M526.3,150.2v39.5M701.9,150.2v39.5m-176,-39.2H702.3M525.9,189.3H702.3" class="g3_37" />
<g fill="#000000" >
<use xlink:href="#f0_19" transform="matrix(9.9,0,0,9.9,650.3,165.1)" />
<use xlink:href="#f0_1g" transform="matrix(9.9,0,0,9.9,655.1,165.1)" />
<use xlink:href="#f0_15" transform="matrix(9.9,0,0,9.9,677.6,165.1)" />
<use xlink:href="#f0_11" transform="matrix(9.9,0,0,9.9,686.9,165.1)" />
<use xlink:href="#f0_15" transform="matrix(9.9,0,0,9.9,529.2,174.6)" />
<use xlink:href="#f0_28" transform="matrix(9.9,0,0,9.9,538.5,174.6)" />
<use xlink:href="#f0_21" transform="matrix(9.9,0,0,9.9,542.6,174.6)" />
<use xlink:href="#f0_1z" transform="matrix(9.9,0,0,9.9,549.3,174.6)" />
<use xlink:href="#f0_2g" transform="matrix(9.9,0,0,9.9,556,174.6)" />
<use xlink:href="#f0_2e" transform="matrix(9.9,0,0,9.9,560.2,174.6)" />
<use xlink:href="#f0_2b" transform="matrix(9.9,0,0,9.9,565.2,174.6)" />
<use xlink:href="#f0_2a" transform="matrix(9.9,0,0,9.9,572.9,174.6)" />
<use xlink:href="#f0_21" transform="matrix(9.9,0,0,9.9,580.5,174.6)" />
<use xlink:href="#f0_23" transform="matrix(9.9,0,0,9.9,587.2,174.6)" />
<use xlink:href="#f0_1x" transform="matrix(9.9,0,0,9.9,594.8,174.6)" />
<use xlink:href="#f0_2g" transform="matrix(9.9,0,0,9.9,601.5,174.6)" />
<use xlink:href="#f0_25" transform="matrix(9.9,0,0,9.9,605.7,174.6)" />
<use xlink:href="#f0_2i" transform="matrix(9.9,0,0,9.9,610,174.6)" />
<use xlink:href="#f0_25" transform="matrix(9.9,0,0,9.9,617.4,174.6)" />
<use xlink:href="#f0_2g" transform="matrix(9.9,0,0,9.9,621.7,174.6)" />
<use xlink:href="#f0_2l" transform="matrix(9.9,0,0,9.9,625.9,174.6)" />
<use xlink:href="#f0_m" transform="matrix(9.9,0,0,9.9,670.5,186.4)" />
<use xlink:href="#f2_5" transform="matrix(9.9,0,0,9.9,666.3,165.1)" />
<use xlink:href="#f2_a" transform="matrix(9.9,0,0,9.9,637.2,174.6)" />
<use xlink:href="#f0_c" transform="matrix(10,0,0,10,522.9,221.5)" />
<use xlink:href="#f0_2j" transform="matrix(10,0,0,10,528,221.5)" />
<use xlink:href="#f0_24" transform="matrix(10,0,0,10,538.5,221.5)" />
<use xlink:href="#f0_21" transform="matrix(10,0,0,10,546,221.5)" />
<use xlink:href="#f0_2e" transform="matrix(10,0,0,10,552.6,221.5)" />
<use xlink:href="#f0_21" transform="matrix(10,0,0,10,557.7,221.5)" />
<use xlink:href="#f0_19" transform="matrix(10,0,0,10,567.2,221.5)" />
<use xlink:href="#f0_1g" transform="matrix(10,0,0,10,572.4,221.5)" />
<use xlink:href="#f0_x" transform="matrix(10,0,0,10,583.5,221.5)" />
<use xlink:href="#f0_19" transform="matrix(10,0,0,10,594.9,221.5)" />
<use xlink:href="#f0_2b" transform="matrix(10,0,0,10,600,221.5)" />
<use xlink:href="#f0_2a" transform="matrix(10,0,0,10,607.7,221.5)" />
<use xlink:href="#f0_25" transform="matrix(10,0,0,10,615.1,221.5)" />
<use xlink:href="#f0_2m" transform="matrix(10,0,0,10,619.3,221.5)" />
<use xlink:href="#f0_1x" transform="matrix(10,0,0,10,626.1,221.5)" />
<use xlink:href="#f0_2g" transform="matrix(10,0,0,10,632.7,221.5)" />
<use xlink:href="#f0_25" transform="matrix(10,0,0,10,636.9,221.5)" />
<use xlink:href="#f0_2b" transform="matrix(10,0,0,10,641,221.5)" />
<use xlink:href="#f0_2a" transform="matrix(10,0,0,10,648.7,221.5)" />
<use xlink:href="#f0_2c" transform="matrix(10,0,0,10,658.9,221.5)" />
<use xlink:href="#f0_2b" transform="matrix(10,0,0,10,666.6,221.5)" />
<use xlink:href="#f0_2g" transform="matrix(10,0,0,10,674.3,221.5)" />
<use xlink:href="#f0_21" transform="matrix(10,0,0,10,678.4,221.5)" />
<use xlink:href="#f0_2a" transform="matrix(10,0,0,10,685.1,221.5)" />
<use xlink:href="#f0_2g" transform="matrix(10,0,0,10,692.5,221.5)" />
<use xlink:href="#f0_25" transform="matrix(10,0,0,10,696.7,221.5)" />
<use xlink:href="#f0_1x" transform="matrix(10,0,0,10,700.9,221.5)" />
<use xlink:href="#f0_28" transform="matrix(10,0,0,10,707.5,221.5)" />
<use xlink:href="#f0_g" transform="matrix(10,0,0,10,711.8,221.5)" />
<use xlink:href="#f0_15" transform="matrix(10,0,0,10,718.4,221.5)" />
<use xlink:href="#f0_11" transform="matrix(10,0,0,10,727.7,221.5)" />
<use xlink:href="#f0_x" transform="matrix(10,0,0,10,741.1,221.5)" />
<use xlink:href="#f0_15" transform="matrix(10,0,0,10,752.5,221.5)" />
<use xlink:href="#f0_28" transform="matrix(10,0,0,10,761.8,221.5)" />
<use xlink:href="#f0_21" transform="matrix(10,0,0,10,766.1,221.5)" />
<use xlink:href="#f0_1z" transform="matrix(10,0,0,10,772.7,221.5)" />
<use xlink:href="#f0_2g" transform="matrix(10,0,0,10,779.4,221.5)" />
<use xlink:href="#f0_2e" transform="matrix(10,0,0,10,783.5,221.5)" />
<use xlink:href="#f0_2b" transform="matrix(10,0,0,10,788.6,221.5)" />
<use xlink:href="#f0_2a" transform="matrix(10,0,0,10,796.3,221.5)" />
<use xlink:href="#f0_1x" transform="matrix(10,0,0,10,806.6,221.5)" />
<use xlink:href="#f0_22" transform="matrix(10,0,0,10,813.4,221.5)" />
<use xlink:href="#f0_22" transform="matrix(10,0,0,10,818.1,221.5)" />
<use xlink:href="#f0_25" transform="matrix(10,0,0,10,823.1,221.5)" />
<use xlink:href="#f0_2a" transform="matrix(10,0,0,10,827.1,221.5)" />
<use xlink:href="#f0_25" transform="matrix(10,0,0,10,834.7,221.5)" />
<use xlink:href="#f0_2g" transform="matrix(10,0,0,10,838.9,221.5)" />
<use xlink:href="#f0_2l" transform="matrix(10,0,0,10,842.9,221.5)" />
<use xlink:href="#f0_d" transform="matrix(10,0,0,10,850.3,221.5)" />
<use xlink:href="#f0_19" transform="matrix(10,0,0,10,522.9,248.7)" />
<use xlink:href="#f0_22" transform="matrix(10,0,0,10,528,248.7)" />
<use xlink:href="#f0_19" transform="matrix(10,0,0,10,536.1,248.7)" />
<use xlink:href="#f0_1g" transform="matrix(10,0,0,10,541.2,248.7)" />
<use xlink:href="#f0_1x" transform="matrix(10,0,0,10,552.9,248.7)" />
<use xlink:href="#f0_2a" transform="matrix(10,0,0,10,559.7,248.7)" />
<use xlink:href="#f0_20" transform="matrix(10,0,0,10,567.2,248.7)" />
<use xlink:href="#f0_15" transform="matrix(10,0,0,10,578,248.7)" />
<use xlink:href="#f0_11" transform="matrix(10,0,0,10,587.4,248.7)" />
<use xlink:href="#f0_1x" transform="matrix(10,0,0,10,601.3,248.7)" />
<use xlink:href="#f0_2e" transform="matrix(10,0,0,10,608.1,248.7)" />
<use xlink:href="#f0_21" transform="matrix(10,0,0,10,613.2,248.7)" />
<use xlink:href="#f0_2g" transform="matrix(10,0,0,10,623.1,248.7)" />
<use xlink:href="#f0_1x" transform="matrix(10,0,0,10,627.4,248.7)" />
<use xlink:href="#f0_27" transform="matrix(10,0,0,10,634.1,248.7)" />
<use xlink:href="#f0_21" transform="matrix(10,0,0,10,641.6,248.7)" />
<use xlink:href="#f0_2a" transform="matrix(10,0,0,10,648.4,248.7)" />
<use xlink:href="#f0_25" transform="matrix(10,0,0,10,659,248.7)" />
<use xlink:href="#f0_2a" transform="matrix(10,0,0,10,663.3,248.7)" />
<use xlink:href="#f0_21" transform="matrix(10,0,0,10,673.9,248.7)" />
<use xlink:href="#f0_28" transform="matrix(10,0,0,10,680.7,248.7)" />
<use xlink:href="#f0_21" transform="matrix(10,0,0,10,684.9,248.7)" />
<use xlink:href="#f0_1z" transform="matrix(10,0,0,10,691.7,248.7)" />
<use xlink:href="#f0_2g" transform="matrix(10,0,0,10,698.5,248.7)" />
<use xlink:href="#f0_2e" transform="matrix(10,0,0,10,702.7,248.7)" />
<use xlink:href="#f0_2b" transform="matrix(10,0,0,10,707.8,248.7)" />
<use xlink:href="#f0_2a" transform="matrix(10,0,0,10,715.5,248.7)" />
<use xlink:href="#f0_2i" transform="matrix(10,0,0,10,726.2,248.7)" />
<use xlink:href="#f0_2b" transform="matrix(10,0,0,10,733.7,248.7)" />
<use xlink:href="#f0_28" transform="matrix(10,0,0,10,741.4,248.7)" />
<use xlink:href="#f0_2g" transform="matrix(10,0,0,10,745.6,248.7)" />
<use xlink:href="#f0_e" transform="matrix(10,0,0,10,522.9,277.3)" />
<use xlink:href="#f0_1g" transform="matrix(10,0,0,10,547.1,277.3)" />
<use xlink:href="#f0_21" transform="matrix(10,0,0,10,555.3,277.3)" />
<use xlink:href="#f0_2e" transform="matrix(10,0,0,10,561.8,277.3)" />
<use xlink:href="#f0_1z" transform="matrix(10,0,0,10,566.5,277.3)" />
<use xlink:href="#f0_21" transform="matrix(10,0,0,10,573,277.3)" />
<use xlink:href="#f0_2a" transform="matrix(10,0,0,10,579.6,277.3)" />
<use xlink:href="#f0_2g" transform="matrix(10,0,0,10,586.7,277.3)" />
<use xlink:href="#f0_1x" transform="matrix(10,0,0,10,590.6,277.3)" />
<use xlink:href="#f0_23" transform="matrix(10,0,0,10,597,277.3)" />
<use xlink:href="#f0_21" transform="matrix(10,0,0,10,604.1,277.3)" />
<use xlink:href="#f0_25" transform="matrix(10,0,0,10,613.1,277.3)" />
<use xlink:href="#f0_2b" transform="matrix(10,0,0,10,617,277.3)" />
<use xlink:href="#f0_2a" transform="matrix(10,0,0,10,624.5,277.3)" />
<use xlink:href="#f0_25" transform="matrix(10,0,0,10,631.7,277.3)" />
<use xlink:href="#f0_1z" transform="matrix(10,0,0,10,635.5,277.3)" />
<use xlink:href="#f0_1z" transform="matrix(10,0,0,10,644.5,277.3)" />
<use xlink:href="#f0_24" transform="matrix(10,0,0,10,651,277.3)" />
<use xlink:href="#f0_1x" transform="matrix(10,0,0,10,658.1,277.3)" />
<use xlink:href="#f0_2e" transform="matrix(10,0,0,10,664.5,277.3)" />
<use xlink:href="#f0_1x" transform="matrix(10,0,0,10,669.5,277.3)" />
<use xlink:href="#f0_1z" transform="matrix(10,0,0,10,675.9,277.3)" />
<use xlink:href="#f0_2g" transform="matrix(10,0,0,10,682.3,277.3)" />
<use xlink:href="#f0_21" transform="matrix(10,0,0,10,686.2,277.3)" />
<use xlink:href="#f0_2e" transform="matrix(10,0,0,10,692.6,277.3)" />
<use xlink:href="#f0_x" transform="matrix(10,0,0,10,700,277.3)" />
<use xlink:href="#f0_l" transform="matrix(10,0,0,10,711,277.3)" />
<use xlink:href="#f0_q" transform="matrix(10,0,0,10,718.3,277.3)" />
<use xlink:href="#f0_c" transform="matrix(10,0,0,10,728.2,277.3)" />
<use xlink:href="#f2_g" transform="matrix(10,0,0,10,732.8,277.3)" />
<use xlink:href="#f0_11" transform="matrix(5.8,0,0,5.8,740.7,282.4)" />
<use xlink:href="#f3_1jz" transform="matrix(10,0,0,10,749.1,277.3)" />
<use xlink:href="#f2_g" transform="matrix(10,0,0,10,759.2,277.3)" />
<use xlink:href="#f0_12" transform="matrix(6.4,0,0,6.4,767.1,282.8)" />
<use xlink:href="#f0_d" transform="matrix(10,0,0,10,773.3,277.3)" />
<use xlink:href="#f0_f" transform="matrix(10,0,0,10,780.7,277.3)" />
<use xlink:href="#f0_n" transform="matrix(10,0,0,10,791.5,277.3)" />
<use xlink:href="#f0_i" transform="matrix(10,0,0,10,799,277.3)" />
<use xlink:href="#f0_p" transform="matrix(10,0,0,10,802.5,277.3)" />
<use xlink:href="#f0_c" transform="matrix(10,0,0,10,812.4,277.3)" />
<use xlink:href="#f2_g" transform="matrix(10,0,0,10,817.1,277.3)" />
<use xlink:href="#f0_11" transform="matrix(6.4,0,0,6.4,825,282.8)" />
<use xlink:href="#f3_1jz" transform="matrix(10,0,0,10,834,277.3)" />
<use xlink:href="#f2_g" transform="matrix(10,0,0,10,843.9,277.3)" />
<use xlink:href="#f0_12" transform="matrix(5.8,0,0,5.8,851.8,282.4)" />
<use xlink:href="#f0_d" transform="matrix(10,0,0,10,857.6,277.3)" />
<use xlink:href="#f0_m" transform="matrix(6.4,0,0,6.4,862.2,271.8)" />
<use xlink:href="#f0_2j" transform="matrix(10,0,0,10,547.1,300)" />
<use xlink:href="#f0_24" transform="matrix(10,0,0,10,557.5,300)" />
<use xlink:href="#f0_21" transform="matrix(10,0,0,10,564.9,300)" />
<use xlink:href="#f0_2e" transform="matrix(10,0,0,10,571.6,300)" />
<use xlink:href="#f0_21" transform="matrix(10,0,0,10,576.6,300)" />
<use xlink:href="#f2_g" transform="matrix(10,0,0,10,586.7,300)" />
<use xlink:href="#f0_11" transform="matrix(6.4,0,0,6.4,594.9,305.5)" />
<use xlink:href="#f0_1x" transform="matrix(10,0,0,10,605.2,300)" />
<use xlink:href="#f0_2a" transform="matrix(10,0,0,10,612,300)" />
<use xlink:href="#f0_20" transform="matrix(10,0,0,10,619.5,300)" />
<use xlink:href="#f2_g" transform="matrix(10,0,0,10,630.7,300)" />
<use xlink:href="#f0_12" transform="matrix(6.4,0,0,6.4,638.9,305.5)" />
<use xlink:href="#f0_1x" transform="matrix(10,0,0,10,649,300)" />
<use xlink:href="#f0_2e" transform="matrix(10,0,0,10,655.8,300)" />
<use xlink:href="#f0_21" transform="matrix(10,0,0,10,660.9,300)" />
<use xlink:href="#f0_21" transform="matrix(10,0,0,10,671.2,300)" />
<use xlink:href="#f0_28" transform="matrix(10,0,0,10,677.9,300)" />
<use xlink:href="#f0_21" transform="matrix(10,0,0,10,682.2,300)" />
<use xlink:href="#f0_1z" transform="matrix(10,0,0,10,688.9,300)" />
<use xlink:href="#f0_2g" transform="matrix(10,0,0,10,695.7,300)" />
<use xlink:href="#f0_2e" transform="matrix(10,0,0,10,699.9,300)" />
<use xlink:href="#f0_2b" transform="matrix(10,0,0,10,705.1,300)" />
<use xlink:href="#f0_2a" transform="matrix(10,0,0,10,712.8,300)" />
<use xlink:href="#f0_21" transform="matrix(10,0,0,10,720.3,300)" />
<use xlink:href="#f0_23" transform="matrix(10,0,0,10,727.1,300)" />
<use xlink:href="#f0_1x" transform="matrix(10,0,0,10,734.6,300)" />
<use xlink:href="#f0_2g" transform="matrix(10,0,0,10,741.3,300)" />
<use xlink:href="#f0_25" transform="matrix(10,0,0,10,745.6,300)" />
<use xlink:href="#f0_2i" transform="matrix(10,0,0,10,749.8,300)" />
<use xlink:href="#f0_25" transform="matrix(10,0,0,10,757.3,300)" />
<use xlink:href="#f0_2g" transform="matrix(10,0,0,10,761.5,300)" />
<use xlink:href="#f0_25" transform="matrix(10,0,0,10,765.8,300)" />
<use xlink:href="#f0_21" transform="matrix(10,0,0,10,770,300)" />
<use xlink:href="#f0_2f" transform="matrix(10,0,0,10,776.8,300)" />
<use xlink:href="#f0_2b" transform="matrix(10,0,0,10,786,300)" />
<use xlink:href="#f0_22" transform="matrix(10,0,0,10,793.7,300)" />
<use xlink:href="#f0_11" transform="matrix(10,0,0,10,801.2,300)" />
<use xlink:href="#f0_1x" transform="matrix(10,0,0,10,814.6,300)" />
<use xlink:href="#f0_2a" transform="matrix(10,0,0,10,821.4,300)" />
<use xlink:href="#f0_20" transform="matrix(10,0,0,10,828.9,300)" />
<use xlink:href="#f0_12" transform="matrix(10,0,0,10,840.1,300)" />
<use xlink:href="#f0_i" transform="matrix(10,0,0,10,850.3,300)" />
<use xlink:href="#f0_e" transform="matrix(10,0,0,10,522.9,327.9)" />
<use xlink:href="#f0_19" transform="matrix(10,0,0,10,547.1,327.9)" />
<use xlink:href="#f0_22" transform="matrix(10,0,0,10,552.2,327.9)" />
<use xlink:href="#f0_2g" transform="matrix(10,0,0,10,560.5,327.9)" />
<use xlink:href="#f0_24" transform="matrix(10,0,0,10,564.7,327.9)" />
<use xlink:href="#f0_21" transform="matrix(10,0,0,10,572.2,327.9)" />
<use xlink:href="#f0_20" transform="matrix(10,0,0,10,582.5,327.9)" />
<use xlink:href="#f0_25" transform="matrix(10,0,0,10,590.2,327.9)" />
<use xlink:href="#f0_22" transform="matrix(10,0,0,10,594.4,327.9)" />
<use xlink:href="#f0_22" transform="matrix(10,0,0,10,599.4,327.9)" />
<use xlink:href="#f0_21" transform="matrix(10,0,0,10,604.3,327.9)" />
<use xlink:href="#f0_2e" transform="matrix(10,0,0,10,611.1,327.9)" />
<use xlink:href="#f0_21" transform="matrix(10,0,0,10,616.2,327.9)" />
<use xlink:href="#f0_2a" transform="matrix(10,0,0,10,623,327.9)" />
<use xlink:href="#f0_1z" transform="matrix(10,0,0,10,630.5,327.9)" />
<use xlink:href="#f0_21" transform="matrix(10,0,0,10,637.3,327.9)" />
<use xlink:href="#f0_25" transform="matrix(10,0,0,10,647.4,327.9)" />
<use xlink:href="#f0_2a" transform="matrix(10,0,0,10,651.6,327.9)" />
<use xlink:href="#f0_2g" transform="matrix(10,0,0,10,662.4,327.9)" />
<use xlink:href="#f0_24" transform="matrix(10,0,0,10,666.6,327.9)" />
<use xlink:href="#f0_21" transform="matrix(10,0,0,10,674.1,327.9)" />
<use xlink:href="#f0_21" transform="matrix(10,0,0,10,684.2,327.9)" />
<use xlink:href="#f0_28" transform="matrix(10,0,0,10,691,327.9)" />
<use xlink:href="#f0_21" transform="matrix(10,0,0,10,695.2,327.9)" />
<use xlink:href="#f0_1z" transform="matrix(10,0,0,10,702,327.9)" />
<use xlink:href="#f0_2g" transform="matrix(10,0,0,10,708.8,327.9)" />
<use xlink:href="#f0_2e" transform="matrix(10,0,0,10,713,327.9)" />
<use xlink:href="#f0_2b" transform="matrix(10,0,0,10,718.1,327.9)" />
<use xlink:href="#f0_2a" transform="matrix(10,0,0,10,725.8,327.9)" />
<use xlink:href="#f0_21" transform="matrix(10,0,0,10,733.3,327.9)" />
<use xlink:href="#f0_23" transform="matrix(10,0,0,10,740.1,327.9)" />
<use xlink:href="#f0_1x" transform="matrix(10,0,0,10,747.6,327.9)" />
<use xlink:href="#f0_2g" transform="matrix(10,0,0,10,754.4,327.9)" />
<use xlink:href="#f0_25" transform="matrix(10,0,0,10,758.6,327.9)" />
<use xlink:href="#f0_2i" transform="matrix(10,0,0,10,762.9,327.9)" />
<use xlink:href="#f0_21" transform="matrix(10,0,0,10,770.4,327.9)" />
<use xlink:href="#f0_2f" transform="matrix(10,0,0,10,777.2,327.9)" />
<use xlink:href="#f0_2b" transform="matrix(10,0,0,10,786.5,327.9)" />
<use xlink:href="#f0_22" transform="matrix(10,0,0,10,794.2,327.9)" />
<use xlink:href="#f0_1z" transform="matrix(10,0,0,10,802.5,327.9)" />
<use xlink:href="#f0_2b" transform="matrix(10,0,0,10,809.2,327.9)" />
<use xlink:href="#f0_29" transform="matrix(10,0,0,10,816.9,327.9)" />
<use xlink:href="#f0_1y" transform="matrix(10,0,0,10,828.5,327.9)" />
<use xlink:href="#f0_25" transform="matrix(10,0,0,10,836.2,327.9)" />
<use xlink:href="#f0_2a" transform="matrix(10,0,0,10,840.4,327.9)" />
<use xlink:href="#f0_25" transform="matrix(10,0,0,10,848,327.9)" />
<use xlink:href="#f0_2a" transform="matrix(10,0,0,10,852.2,327.9)" />
<use xlink:href="#f0_23" transform="matrix(10,0,0,10,859.7,327.9)" />
<use xlink:href="#f0_1x" transform="matrix(10,0,0,10,547.1,348.6)" />
<use xlink:href="#f0_2g" transform="matrix(10,0,0,10,553.8,348.6)" />
<use xlink:href="#f0_2b" transform="matrix(10,0,0,10,558.1,348.6)" />
<use xlink:href="#f0_29" transform="matrix(10,0,0,10,565.8,348.6)" />
<use xlink:href="#f0_2f" transform="matrix(10,0,0,10,577.1,348.6)" />
<use xlink:href="#f0_25" transform="matrix(10,0,0,10,585.9,348.6)" />
<use xlink:href="#f0_2f" transform="matrix(10,0,0,10,590.2,348.6)" />
<use xlink:href="#f0_l" transform="matrix(10,0,0,10,599,348.6)" />
<use xlink:href="#f0_i" transform="matrix(10,0,0,10,606.7,348.6)" />
<use xlink:href="#f0_r" transform="matrix(10,0,0,10,610.5,348.6)" />
<use xlink:href="#f0_g" transform="matrix(10,0,0,10,618.1,348.6)" />
<use xlink:href="#f0_2g" transform="matrix(10,0,0,10,624.7,348.6)" />
<use xlink:href="#f0_24" transform="matrix(10,0,0,10,628.9,348.6)" />
<use xlink:href="#f0_21" transform="matrix(10,0,0,10,636.4,348.6)" />
<use xlink:href="#f0_1y" transform="matrix(10,0,0,10,646.1,348.6)" />
<use xlink:href="#f0_2b" transform="matrix(10,0,0,10,653.6,348.6)" />
<use xlink:href="#f0_2a" transform="matrix(10,0,0,10,661.3,348.6)" />
<use xlink:href="#f0_20" transform="matrix(10,0,0,10,668.9,348.6)" />
<use xlink:href="#f0_25" transform="matrix(10,0,0,10,679.5,348.6)" />
<use xlink:href="#f0_2f" transform="matrix(10,0,0,10,683.7,348.6)" />
<use xlink:href="#f0_p" transform="matrix(10,0,0,10,692.3,348.6)" />
<use xlink:href="#f0_k" transform="matrix(10,0,0,10,700,348.6)" />
<use xlink:href="#f0_9" transform="matrix(10,0,0,10,707.7,348.6)" />
<use xlink:href="#f0_1z" transform="matrix(10,0,0,10,723.3,348.6)" />
<use xlink:href="#f0_2b" transform="matrix(10,0,0,10,730.1,348.6)" />
<use xlink:href="#f0_2i" transform="matrix(10,0,0,10,737.8,348.6)" />
<use xlink:href="#f0_1x" transform="matrix(10,0,0,10,745.3,348.6)" />
<use xlink:href="#f0_28" transform="matrix(10,0,0,10,751.9,348.6)" />
<use xlink:href="#f0_21" transform="matrix(10,0,0,10,756.2,348.6)" />
<use xlink:href="#f0_2a" transform="matrix(10,0,0,10,762.9,348.6)" />
<use xlink:href="#f0_2g" transform="matrix(10,0,0,10,770.5,348.6)" />
<use xlink:href="#f0_1x" transform="matrix(10,0,0,10,777.4,348.6)" />
<use xlink:href="#f0_2a" transform="matrix(10,0,0,10,784.2,348.6)" />
<use xlink:href="#f0_20" transform="matrix(10,0,0,10,791.5,348.6)" />
<use xlink:href="#f0_p" transform="matrix(10,0,0,10,802.2,348.6)" />
<use xlink:href="#f0_k" transform="matrix(10,0,0,10,809.9,348.6)" />
<use xlink:href="#f0_9" transform="matrix(10,0,0,10,817.6,348.6)" />
<use xlink:href="#f0_25" transform="matrix(10,0,0,10,833.2,348.6)" />
<use xlink:href="#f0_2b" transform="matrix(10,0,0,10,837.4,348.6)" />
<use xlink:href="#f0_2a" transform="matrix(10,0,0,10,844.9,348.6)" />
<use xlink:href="#f0_25" transform="matrix(10,0,0,10,852.4,348.6)" />
<use xlink:href="#f0_1z" transform="matrix(10,0,0,10,856.7,348.6)" />
<use xlink:href="#f0_i" transform="matrix(10,0,0,10,863.5,348.6)" />
<use xlink:href="#f0_e" transform="matrix(10,0,0,10,522.9,375.7)" />
<use xlink:href="#f0_19" transform="matrix(10,0,0,10,547.1,375.7)" />
<use xlink:href="#f0_22" transform="matrix(10,0,0,10,552.2,375.7)" />
<use xlink:href="#f0_2g" transform="matrix(10,0,0,10,561.2,375.7)" />
<use xlink:href="#f0_24" transform="matrix(10,0,0,10,565.4,375.7)" />
<use xlink:href="#f0_21" transform="matrix(10,0,0,10,572.9,375.7)" />
<use xlink:href="#f0_20" transform="matrix(10,0,0,10,583.6,375.7)" />
<use xlink:href="#f0_25" transform="matrix(10,0,0,10,591.3,375.7)" />
<use xlink:href="#f0_22" transform="matrix(10,0,0,10,595.5,375.7)" />
<use xlink:href="#f0_22" transform="matrix(10,0,0,10,600.5,375.7)" />
<use xlink:href="#f0_21" transform="matrix(10,0,0,10,605.4,375.7)" />
<use xlink:href="#f0_2e" transform="matrix(10,0,0,10,612.2,375.7)" />
<use xlink:href="#f0_21" transform="matrix(10,0,0,10,617.3,375.7)" />
<use xlink:href="#f0_2a" transform="matrix(10,0,0,10,624.1,375.7)" />
<use xlink:href="#f0_1z" transform="matrix(10,0,0,10,631.6,375.7)" />
<use xlink:href="#f0_21" transform="matrix(10,0,0,10,638.4,375.7)" />
<use xlink:href="#f0_25" transform="matrix(10,0,0,10,649.2,375.7)" />
<use xlink:href="#f0_2a" transform="matrix(10,0,0,10,653.4,375.7)" />
<use xlink:href="#f0_21" transform="matrix(10,0,0,10,664.8,375.7)" />
<use xlink:href="#f0_28" transform="matrix(10,0,0,10,671.5,375.7)" />
<use xlink:href="#f0_21" transform="matrix(10,0,0,10,675.8,375.7)" />
<use xlink:href="#f0_1z" transform="matrix(10,0,0,10,682.5,375.7)" />
<use xlink:href="#f0_2g" transform="matrix(10,0,0,10,689.3,375.7)" />
<use xlink:href="#f0_2e" transform="matrix(10,0,0,10,693.5,375.7)" />
<use xlink:href="#f0_2b" transform="matrix(10,0,0,10,698.7,375.7)" />
<use xlink:href="#f0_2a" transform="matrix(10,0,0,10,706.4,375.7)" />
<use xlink:href="#f0_21" transform="matrix(10,0,0,10,713.9,375.7)" />
<use xlink:href="#f0_23" transform="matrix(10,0,0,10,720.7,375.7)" />
<use xlink:href="#f0_1x" transform="matrix(10,0,0,10,728.2,375.7)" />
<use xlink:href="#f0_2g" transform="matrix(10,0,0,10,735,375.7)" />
<use xlink:href="#f0_25" transform="matrix(10,0,0,10,739.2,375.7)" />
<use xlink:href="#f0_2i" transform="matrix(10,0,0,10,743.4,375.7)" />
<use xlink:href="#f0_25" transform="matrix(10,0,0,10,750.9,375.7)" />
<use xlink:href="#f0_2g" transform="matrix(10,0,0,10,755.2,375.7)" />
<use xlink:href="#f0_25" transform="matrix(10,0,0,10,759.4,375.7)" />
<use xlink:href="#f0_21" transform="matrix(10,0,0,10,763.6,375.7)" />
<use xlink:href="#f0_2f" transform="matrix(10,0,0,10,770.4,375.7)" />
<use xlink:href="#f0_2b" transform="matrix(10,0,0,10,780.3,375.7)" />
<use xlink:href="#f0_22" transform="matrix(10,0,0,10,788,375.7)" />
<use xlink:href="#f0_2b" transform="matrix(10,0,0,10,796.8,375.7)" />
<use xlink:href="#f0_2k" transform="matrix(10,0,0,10,804.5,375.7)" />
<use xlink:href="#f0_2l" transform="matrix(10,0,0,10,812,375.7)" />
<use xlink:href="#f0_23" transform="matrix(10,0,0,10,819.4,375.7)" />
<use xlink:href="#f0_21" transform="matrix(10,0,0,10,826.9,375.7)" />
<use xlink:href="#f0_2a" transform="matrix(10,0,0,10,833.7,375.7)" />
<use xlink:href="#f0_1x" transform="matrix(10,0,0,10,845.2,375.7)" />
<use xlink:href="#f0_2a" transform="matrix(10,0,0,10,852,375.7)" />
<use xlink:href="#f0_20" transform="matrix(10,0,0,10,859.5,375.7)" />
<use xlink:href="#f0_21" transform="matrix(10,0,0,10,547.1,396.4)" />
<use xlink:href="#f0_28" transform="matrix(10,0,0,10,553.8,396.4)" />
<use xlink:href="#f0_21" transform="matrix(10,0,0,10,557.9,396.4)" />
<use xlink:href="#f0_29" transform="matrix(10,0,0,10,564.7,396.4)" />
<use xlink:href="#f0_21" transform="matrix(10,0,0,10,576,396.4)" />
<use xlink:href="#f0_2a" transform="matrix(10,0,0,10,582.8,396.4)" />
<use xlink:href="#f0_2g" transform="matrix(10,0,0,10,590.1,396.4)" />
<use xlink:href="#f0_25" transform="matrix(10,0,0,10,597.1,396.4)" />
<use xlink:href="#f0_2f" transform="matrix(10,0,0,10,601.3,396.4)" />
<use xlink:href="#f0_2i" transform="matrix(10,0,0,10,610,396.4)" />
<use xlink:href="#f0_21" transform="matrix(10,0,0,10,617.5,396.4)" />
<use xlink:href="#f0_2e" transform="matrix(10,0,0,10,624.1,396.4)" />
<use xlink:href="#f0_2l" transform="matrix(10,0,0,10,629.2,396.4)" />
<use xlink:href="#f0_24" transform="matrix(10,0,0,10,639.1,396.4)" />
<use xlink:href="#f0_25" transform="matrix(10,0,0,10,646.5,396.4)" />
<use xlink:href="#f0_23" transform="matrix(10,0,0,10,650.7,396.4)" />
<use xlink:href="#f0_24" transform="matrix(10,0,0,10,658.2,396.4)" />
<use xlink:href="#f0_2g" transform="matrix(10,0,0,10,668.5,396.4)" />
<use xlink:href="#f0_24" transform="matrix(10,0,0,10,672.5,396.4)" />
<use xlink:href="#f0_21" transform="matrix(10,0,0,10,680.1,396.4)" />
<use xlink:href="#f0_2b" transform="matrix(10,0,0,10,689.6,396.4)" />
<use xlink:href="#f0_2k" transform="matrix(10,0,0,10,697.1,396.4)" />
<use xlink:href="#f0_25" transform="matrix(10,0,0,10,704.6,396.4)" />
<use xlink:href="#f0_20" transform="matrix(10,0,0,10,708.9,396.4)" />
<use xlink:href="#f0_21" transform="matrix(10,0,0,10,716.4,396.4)" />
<use xlink:href="#f0_2f" transform="matrix(10,0,0,10,725.9,396.4)" />
<use xlink:href="#f0_24" transform="matrix(10,0,0,10,731.8,396.4)" />
<use xlink:href="#f0_2b" transform="matrix(10,0,0,10,739.1,396.4)" />
<use xlink:href="#f0_2j" transform="matrix(10,0,0,10,746.8,396.4)" />
<use xlink:href="#f0_2f" transform="matrix(10,0,0,10,757.3,396.4)" />
<use xlink:href="#f0_1x" transform="matrix(10,0,0,10,765.9,396.4)" />
<use xlink:href="#f0_1y" transform="matrix(10,0,0,10,775.4,396.4)" />
<use xlink:href="#f0_1x" transform="matrix(10,0,0,10,783,396.4)" />
<use xlink:href="#f0_2f" transform="matrix(10,0,0,10,789.7,396.4)" />
<use xlink:href="#f0_25" transform="matrix(10,0,0,10,795.4,396.4)" />
<use xlink:href="#f0_1z" transform="matrix(10,0,0,10,799.6,396.4)" />
<use xlink:href="#f0_1z" transform="matrix(10,0,0,10,809.2,396.4)" />
<use xlink:href="#f0_24" transform="matrix(10,0,0,10,816,396.4)" />
<use xlink:href="#f0_1x" transform="matrix(10,0,0,10,823.3,396.4)" />
<use xlink:href="#f0_2e" transform="matrix(10,0,0,10,830.1,396.4)" />
<use xlink:href="#f0_1x" transform="matrix(10,0,0,10,835,396.4)" />
<use xlink:href="#f0_1z" transform="matrix(10,0,0,10,841.8,396.4)" />
<use xlink:href="#f0_2g" transform="matrix(10,0,0,10,848.4,396.4)" />
<use xlink:href="#f0_21" transform="matrix(10,0,0,10,852.6,396.4)" />
<use xlink:href="#f0_2e" transform="matrix(10,0,0,10,859.2,396.4)" />
<use xlink:href="#f0_i" transform="matrix(10,0,0,10,863.5,396.4)" />
</g>
<path d="M706.2,534.4L612.6,441.2l.8,-.8L707,533.6l-.8,.8Zm.8,.8l.3,-1.1l-.8,.6l-1.1,-5.2l1.1,-.3l1.3,5.5l-.8,.5Zm0,0l.8,-.5v.8l-.8,-.3Zm-5.2,-1.6l.3,-.5l5.2,1l-.3,1.1l-5.2,-1.1v-.5Z" class="g1_37" />
<path d="M613.4,567.6h-1.1l-2.7,-4.4l.8,-.8l3,4.7h-1.1l1.1,.5Zm0,0l-.6,.8l-.5,-.8h1.1Zm2.5,-4.9l.5,.5l-3,4.4l-1.1,-.5l3,-4.7l.6,.3ZM612.8,440.1l.6,.5V566.5h-1.1V440.6l.5,-.5Zm-.5,.5v-.5h.5l-.5,.5Zm126.6,.6H612.8v-1.1H738.9v1.1Zm1.1,0l-.6,-.8v.8l-4.7,-3l.9,-.9l4.4,3.1v.8Zm0,0v-.8l.8,.2l-.8,.6Zm-4.7,2.5l-.6,-.6l4.7,-2.7l.6,.8l-4.4,3l-.3,-.5Z" class="g2_37" />
<g fill="#1F1A17" >
<use xlink:href="#f0_19" transform="matrix(7.5,0,0,7.5,653.2,433.8)" />
<use xlink:href="#f0_2a" transform="matrix(7.5,0,0,7.5,657,433.8)" />
<use xlink:href="#f0_1z" transform="matrix(7.5,0,0,7.5,662.8,433.8)" />
<use xlink:href="#f0_2e" transform="matrix(7.5,0,0,7.5,667.8,433.8)" />
<use xlink:href="#f0_21" transform="matrix(7.5,0,0,7.5,671.6,433.8)" />
<use xlink:href="#f0_1x" transform="matrix(7.5,0,0,7.5,676.8,433.8)" />
<use xlink:href="#f0_2f" transform="matrix(7.5,0,0,7.5,681.7,433.8)" />
<use xlink:href="#f0_21" transform="matrix(7.5,0,0,7.5,686.1,433.8)" />
<use xlink:href="#f0_2f" transform="matrix(7.5,0,0,7.5,691.4,433.8)" />
<use xlink:href="#f0_14" transform="matrix(0,-7.5,7.5,0,609,527.6)" />
<use xlink:href="#f0_21" transform="matrix(0,-7.5,7.5,0,609,519.3)" />
<use xlink:href="#f0_1z" transform="matrix(0,-7.5,7.5,0,609,514.1)" />
<use xlink:href="#f0_2e" transform="matrix(0,-7.5,7.5,0,609,509.2)" />
<use xlink:href="#f0_21" transform="matrix(0,-7.5,7.5,0,609,505.4)" />
<use xlink:href="#f0_1x" transform="matrix(0,-7.5,7.5,0,609,500.1)" />
<use xlink:href="#f0_2f" transform="matrix(0,-7.5,7.5,0,609,495.2)" />
<use xlink:href="#f0_21" transform="matrix(0,-7.5,7.5,0,609,490.5)" />
<use xlink:href="#f0_2f" transform="matrix(0,-7.5,7.5,0,609,485.6)" />
<use xlink:href="#f0_15" transform="matrix(5.4,5.3,-5.3,5.4,643.9,464.8)" />
<use xlink:href="#f0_28" transform="matrix(5.4,5.3,-5.3,5.4,648.8,469.7)" />
<use xlink:href="#f0_21" transform="matrix(5.4,5.3,-5.3,5.4,651,471.9)" />
<use xlink:href="#f0_1z" transform="matrix(5.4,5.3,-5.3,5.4,654.9,475.5)" />
<use xlink:href="#f0_2g" transform="matrix(5.4,5.3,-5.3,5.4,658.4,479)" />
<use xlink:href="#f0_2e" transform="matrix(5.4,5.3,-5.3,5.4,660.6,481.2)" />
<use xlink:href="#f0_2b" transform="matrix(5.4,5.3,-5.3,5.4,663.4,484)" />
<use xlink:href="#f0_2a" transform="matrix(5.4,5.3,-5.3,5.4,667.5,488.1)" />
<use xlink:href="#f0_21" transform="matrix(5.4,5.3,-5.3,5.4,671.3,491.9)" />
<use xlink:href="#f0_23" transform="matrix(5.4,5.3,-5.3,5.4,675.2,495.5)" />
<use xlink:href="#f0_1x" transform="matrix(5.4,5.3,-5.3,5.4,679.3,499.6)" />
<use xlink:href="#f0_2g" transform="matrix(5.4,5.3,-5.3,5.4,682.9,503.2)" />
<use xlink:href="#f0_25" transform="matrix(5.4,5.3,-5.3,5.4,685.1,505.3)" />
<use xlink:href="#f0_2i" transform="matrix(5.4,5.3,-5.3,5.4,687.3,507.5)" />
<use xlink:href="#f0_25" transform="matrix(5.4,5.3,-5.3,5.4,691.4,511.7)" />
<use xlink:href="#f0_2g" transform="matrix(5.4,5.3,-5.3,5.4,693.6,513.8)" />
<use xlink:href="#f0_2l" transform="matrix(5.4,5.3,-5.3,5.4,696,516)" />
<use xlink:href="#f0_1g" transform="matrix(7.5,0,0,7.5,706.7,457.6)" />
<use xlink:href="#f0_21" transform="matrix(7.5,0,0,7.5,713.1,457.6)" />
<use xlink:href="#f0_2e" transform="matrix(7.5,0,0,7.5,718.3,457.6)" />
<use xlink:href="#f0_25" transform="matrix(7.5,0,0,7.5,722.1,457.6)" />
<use xlink:href="#f0_2b" transform="matrix(7.5,0,0,7.5,725.1,457.6)" />
<use xlink:href="#f0_20" transform="matrix(7.5,0,0,7.5,730.9,457.6)" />
<use xlink:href="#f0_17" transform="matrix(7.5,0,0,7.5,618.3,559.1)" />
<use xlink:href="#f0_2e" transform="matrix(7.5,0,0,7.5,626.6,559.1)" />
<use xlink:href="#f0_2b" transform="matrix(7.5,0,0,7.5,630.4,559.1)" />
<use xlink:href="#f0_2h" transform="matrix(7.5,0,0,7.5,636.2,559.1)" />
<use xlink:href="#f0_2c" transform="matrix(7.5,0,0,7.5,641.9,559.1)" />
</g>
<path d="M750.7,419.8l-.6,.5H595.6V419H750.1l.6,.8Zm-.6,-.8h.6v.8l-.6,-.8Zm0,158.7l-.5,-.8V419.8h1.1V576.9l-.6,.8Zm.6,-.8v.8h-.6l.6,-.8Zm-155.7,0l.6,-.5H750.1v1.3H595.6l-.6,-.8Zm.6,.8H595v-.8l.6,.8Zm0,-158.7l.5,.8V576.9H595V419.8l.6,-.8Zm-.6,.8V419h.6l-.6,.8Z" class="g1_37" />
<g fill="#000000" >
<use xlink:href="#f0_1k" transform="matrix(10,0,0,10,512.6,607.3)" />
<use xlink:href="#f0_24" transform="matrix(10,0,0,10,522.1,607.3)" />
<use xlink:href="#f0_21" transform="matrix(10,0,0,10,529.6,607.3)" />
<use xlink:href="#f0_2c" transform="matrix(10,0,0,10,539.9,607.3)" />
<use xlink:href="#f0_21" transform="matrix(10,0,0,10,547.6,607.3)" />
<use xlink:href="#f0_2e" transform="matrix(10,0,0,10,554.4,607.3)" />
<use xlink:href="#f0_25" transform="matrix(10,0,0,10,559.5,607.3)" />
<use xlink:href="#f0_2b" transform="matrix(10,0,0,10,563.7,607.3)" />
<use xlink:href="#f0_20" transform="matrix(10,0,0,10,571.4,607.3)" />
<use xlink:href="#f0_25" transform="matrix(10,0,0,10,579.1,607.3)" />
<use xlink:href="#f0_1z" transform="matrix(10,0,0,10,583.4,607.3)" />
<use xlink:href="#f0_2g" transform="matrix(10,0,0,10,593.8,607.3)" />
<use xlink:href="#f0_2e" transform="matrix(10,0,0,10,598,607.3)" />
<use xlink:href="#f0_21" transform="matrix(10,0,0,10,603.2,607.3)" />
<use xlink:href="#f0_2a" transform="matrix(10,0,0,10,609.9,607.3)" />
<use xlink:href="#f0_20" transform="matrix(10,0,0,10,617.4,607.3)" />
<use xlink:href="#f0_2f" transform="matrix(10,0,0,10,625.1,607.3)" />
<use xlink:href="#f0_2b" transform="matrix(10,0,0,10,634.5,607.3)" />
<use xlink:href="#f0_22" transform="matrix(10,0,0,10,642.2,607.3)" />
<use xlink:href="#f0_21" transform="matrix(10,0,0,10,650.7,607.3)" />
<use xlink:href="#f0_28" transform="matrix(10,0,0,10,657.4,607.3)" />
<use xlink:href="#f0_21" transform="matrix(10,0,0,10,661.7,607.3)" />
<use xlink:href="#f0_29" transform="matrix(10,0,0,10,668.4,607.3)" />
<use xlink:href="#f0_21" transform="matrix(10,0,0,10,680,607.3)" />
<use xlink:href="#f0_2a" transform="matrix(10,0,0,10,686.8,607.3)" />
<use xlink:href="#f0_2g" transform="matrix(10,0,0,10,694.3,607.3)" />
<use xlink:href="#f0_2f" transform="matrix(10,0,0,10,698.5,607.3)" />
<use xlink:href="#f0_25" transform="matrix(10,0,0,10,708.1,607.3)" />
<use xlink:href="#f0_2a" transform="matrix(10,0,0,10,712.3,607.3)" />
<use xlink:href="#f0_2g" transform="matrix(10,0,0,10,723.3,607.3)" />
<use xlink:href="#f0_24" transform="matrix(10,0,0,10,727.5,607.3)" />
<use xlink:href="#f0_21" transform="matrix(10,0,0,10,735,607.3)" />
<use xlink:href="#f0_2c" transform="matrix(10,0,0,10,745.5,607.3)" />
<use xlink:href="#f0_21" transform="matrix(10,0,0,10,753.2,607.3)" />
<use xlink:href="#f0_2e" transform="matrix(10,0,0,10,759.9,607.3)" />
<use xlink:href="#f0_25" transform="matrix(10,0,0,10,765.1,607.3)" />
<use xlink:href="#f0_2b" transform="matrix(10,0,0,10,769.3,607.3)" />
<use xlink:href="#f0_20" transform="matrix(10,0,0,10,777,607.3)" />
<use xlink:href="#f0_25" transform="matrix(10,0,0,10,784.7,607.3)" />
<use xlink:href="#f0_1z" transform="matrix(10,0,0,10,788.9,607.3)" />
<use xlink:href="#f0_2g" transform="matrix(10,0,0,10,799.2,607.3)" />
<use xlink:href="#f0_1x" transform="matrix(10,0,0,10,803.4,607.3)" />
<use xlink:href="#f0_1y" transform="matrix(10,0,0,10,810.2,607.3)" />
<use xlink:href="#f0_28" transform="matrix(10,0,0,10,817.9,607.3)" />
<use xlink:href="#f0_21" transform="matrix(10,0,0,10,822.1,607.3)" />
</g>
<path fill-rule="evenodd" d="M102.9,372.8H253.2V408H102.9V372.8l2.3,32.8H251V375H105.2v30.6l-2.3,-32.8Z" class="g0_37" />
<image preserveAspectRatio="none" x="197" y="669" width="542" height="410" xlink:href="img/1.png" />
<path fill-rule="evenodd" d="M71.3,91.2H873.4v28.4H71.3V91.2l1.5,26.9H871.9V92.8H72.8v25.3L71.3,91.2Z" class="g4_37" />
<path fill-rule="evenodd" d="M72.8,116.5H872.3v2.9H72.8v-2.9Z" class="g0_37" />
<path fill-rule="evenodd" d="M72.8,91.4H872.3v3.1H72.8V91.4Z" class="g0_37" />
<g fill="#000000" >
<use xlink:href="#f4_1g" transform="matrix(10,0,0,10,78.7,109.9)" />
<use xlink:href="#f4_15" transform="matrix(10,0,0,10,88.7,109.9)" />
<use xlink:href="#f4_1i" transform="matrix(10,0,0,10,99.5,109.9)" />
<use xlink:href="#f4_19" transform="matrix(10,0,0,10,111.4,109.9)" />
<use xlink:href="#f4_1f" transform="matrix(10,0,0,10,117.3,109.9)" />
<use xlink:href="#f4_14" transform="matrix(10,0,0,10,129.4,109.9)" />
<use xlink:href="#f4_19" transform="matrix(10,0,0,10,141.1,109.9)" />
<use xlink:href="#f4_13" transform="matrix(10,0,0,10,147.2,109.9)" />
<use xlink:href="#f4_13" transform="matrix(10,0,0,10,162,109.9)" />
<use xlink:href="#f4_1c" transform="matrix(10,0,0,10,173,109.9)" />
<use xlink:href="#f4_11" transform="matrix(10,0,0,10,182.8,109.9)" />
<use xlink:href="#f4_1j" transform="matrix(10,0,0,10,193.7,109.9)" />
<use xlink:href="#f4_1j" transform="matrix(10,0,0,10,203.6,109.9)" />
<use xlink:href="#f4_19" transform="matrix(10,0,0,10,213.7,109.9)" />
<use xlink:href="#f4_16" transform="matrix(10,0,0,10,219.6,109.9)" />
<use xlink:href="#f4_19" transform="matrix(10,0,0,10,229.8,109.9)" />
<use xlink:href="#f4_13" transform="matrix(10,0,0,10,235.7,109.9)" />
<use xlink:href="#f4_11" transform="matrix(10,0,0,10,246.9,109.9)" />
<use xlink:href="#f4_1k" transform="matrix(10,0,0,10,257.7,109.9)" />
<use xlink:href="#f4_19" transform="matrix(10,0,0,10,268.3,109.9)" />
<use xlink:href="#f4_1f" transform="matrix(10,0,0,10,274.2,109.9)" />
<use xlink:href="#f4_1e" transform="matrix(10,0,0,10,286.3,109.9)" />
</g>
<defs>
<path d="M395,0V936H34v115H898V936H537V0Z" 
id="f0_1k"
transform="scale(0.001,-0.001)" />

<path d="M615,0V512c0,0,0,85,-15,126c0,0,-16,42,-52,61c0,0,-36,20,-99,20c0,0,-95,0,-152,-66c0,0,-57,-66,-57,-177V0H106V1107H240V819c0,0,0,-45,-2,-94c0,0,-3,-48,-4,-56h2c0,0,44,79,105,116c0,0,60,37,154,37c0,0,131,0,193,-65c0,0,62,-65,62,-219V0Z" 
id="f0_24"
transform="scale(0.001,-0.001)" />

<path d="M102,0V808H236V0Zm0,979v128H236V979Z" 
id="f0_25"
transform="scale(0.001,-0.001)" />

<path d="M381,-14c0,0,-150,0,-232,49C149,35,67,85,43,190l118,23c0,0,17,-65,71,-96c0,0,54,-30,149,-30c0,0,102,0,150,31c0,0,47,32,47,95c0,0,0,47,-33,77c0,0,-33,30,-106,49l-96,26c0,0,-115,30,-164,58c0,0,-49,29,-77,70c0,0,-27,41,-27,101c0,0,0,110,78,168c0,0,79,57,230,57c0,0,133,0,212,-47c0,0,79,-47,100,-150L574,607c0,0,-12,53,-60,82c0,0,-49,29,-131,29c0,0,-91,0,-135,-28c0,0,-43,-27,-43,-83c0,0,0,-34,18,-57c0,0,18,-22,53,-38c0,0,35,-15,148,-43c0,0,106,-27,153,-50c0,0,47,-22,75,-50c0,0,27,-27,42,-64c0,0,15,-36,15,-82c0,0,0,-114,-86,-176c0,0,-87,-61,-242,-61Z" 
id="f0_2f"
transform="scale(0.001,-0.001)" />

<path d="M135,0V710H22v98H135v91c0,0,0,110,49,158c0,0,48,49,148,49c0,0,56,0,95,-9V994c0,0,-34,6,-60,6c0,0,-51,0,-75,-26c0,0,-23,-26,-23,-94V808H427V710H269V0Z" 
id="f0_22"
transform="scale(0.001,-0.001)" />

<path d="M339,87c0,0,74,0,132,34c0,0,57,33,90,91c0,0,34,59,34,121v66L448,396c0,0,-95,-2,-144,-19c0,0,-49,-18,-75,-55c0,0,-26,-38,-26,-98c0,0,0,-65,35,-101c0,0,36,-36,101,-36ZM309,-14c0,0,-122,0,-183,64c0,0,-61,64,-61,176c0,0,0,125,82,192c0,0,83,67,266,72l182,3v44c0,0,0,98,-42,141c0,0,-42,43,-132,43c0,0,-90,0,-131,-31c0,0,-41,-31,-49,-98L101,604c0,0,34,218,323,218c0,0,153,0,229,-70c0,0,77,-69,77,-202V202c0,0,0,-59,16,-90c0,0,16,-30,60,-30c0,0,19,0,44,5V4C850,4,799,-7,746,-7c0,0,-75,0,-109,38c0,0,-33,40,-38,124h-4C595,155,543,62,475,24c0,0,-68,-38,-166,-38Z" 
id="f0_1x"
transform="scale(0.001,-0.001)" />

<path d="M413,-14c0,0,-170,0,-259,106c0,0,-89,107,-89,313c0,0,0,203,89,310c0,0,90,107,257,107c0,0,124,0,206,-64c0,0,81,-64,102,-177L581,571c0,0,-10,67,-53,106c0,0,-42,40,-121,40c0,0,-106,0,-154,-71c0,0,-48,-71,-48,-239c0,0,0,-161,51,-238c0,0,51,-78,153,-78c0,0,71,0,120,39c0,0,48,39,59,119l136,-9C724,240,708,124,624,55c0,0,-83,-69,-211,-69Z" 
id="f0_1z"
transform="scale(0.001,-0.001)" />

<path d="M278,-11c0,0,-162,0,-162,182V710H23v98h99l39,181h90V808H400V710H251V200c0,0,0,-58,19,-82c0,0,19,-23,66,-23c0,0,27,0,77,10V6c0,0,-66,-17,-135,-17Z" 
id="f0_2g"
transform="scale(0.001,-0.001)" />

<path d="M420,84c0,0,121,0,173,78c0,0,52,77,52,243c0,0,0,167,-50,243c0,0,-50,76,-167,76c0,0,-118,0,-170,-78c0,0,-53,-77,-53,-241c0,0,0,-160,52,-241c0,0,52,-80,163,-80Zm1,-98c0,0,-176,0,-267,107c0,0,-90,108,-90,312c0,0,0,417,362,417c0,0,185,0,272,-102c0,0,88,-101,88,-315c0,0,0,-212,-94,-316C692,89,599,-14,421,-14Z" 
id="f0_2b"
transform="scale(0.001,-0.001)" />

<path d="M106,0V620c0,0,0,85,-5,188H228c0,0,6,-138,6,-165h3c0,0,32,103,74,141c0,0,42,38,118,38c0,0,27,0,54,-7V692c0,0,-26,7,-71,7c0,0,-84,0,-128,-72c0,0,-44,-72,-44,-206V0Z" 
id="f0_2e"
transform="scale(0.001,-0.001)" />

<path d="M453,84c0,0,100,0,146,74c0,0,46,73,46,247c0,0,0,169,-46,241c0,0,-45,73,-145,73c0,0,-80,0,-125,-34c0,0,-45,-34,-68,-105c0,0,-24,-71,-24,-186c0,0,0,-159,51,-234c0,0,51,-76,165,-76ZM103,-316V643c0,0,0,124,-5,165H228c0,0,1,-3,3,-22c0,0,1,-18,3,-56c0,0,2,-38,2,-52h3c0,0,36,75,94,110c0,0,59,34,156,34c0,0,149,0,223,-100c0,0,74,-100,74,-314c0,0,0,-422,-297,-422c0,0,-187,0,-251,140h-4c0,0,3,-6,3,-126V-316Z" 
id="f0_2c"
transform="scale(0.001,-0.001)" />

<path d="M643,478c0,0,-11,128,-65,187c0,0,-54,59,-154,59c0,0,-98,0,-155,-66c0,0,-57,-65,-62,-180ZM431,-14c0,0,-179,0,-272,106c0,0,-94,107,-94,317c0,0,0,200,94,307c0,0,93,106,267,106c0,0,356,0,356,-429V375H206c0,0,0,-138,57,-213c0,0,58,-75,168,-75c0,0,87,0,140,35c0,0,53,35,71,88L760,177c0,0,-72,-191,-329,-191Z" 
id="f0_21"
transform="scale(0.001,-0.001)" />

<path d="M395,89c0,0,115,0,166,79c0,0,51,79,51,246c0,0,0,160,-51,235c0,0,-51,75,-164,75c0,0,-102,0,-147,-75c0,0,-45,-75,-45,-244c0,0,0,-170,45,-243c0,0,45,-73,145,-73ZM361,-14c0,0,-153,0,-225,102c0,0,-72,103,-72,312c0,0,0,422,297,422c0,0,92,0,153,-33c0,0,61,-34,98,-107h2l-2,90v335H747V166c0,0,0,-126,4,-166H623c0,0,-2,12,-5,55c0,0,-3,44,-3,75h-3c0,0,-37,-78,-98,-111c0,0,-62,-33,-153,-33Z" 
id="f0_20"
transform="scale(0.001,-0.001)" />

<path d="M106,0V635c0,0,0,141,-5,173H228c0,0,1,-4,2,-21c0,0,1,-16,2,-37c0,0,1,-22,2,-81h2c0,0,44,86,100,120c0,0,56,33,136,33c0,0,92,0,145,-36c0,0,54,-37,75,-117h2c0,0,42,82,101,117c0,0,59,36,143,36c0,0,123,0,178,-66c0,0,56,-67,56,-218V0H1039V512c0,0,0,117,-32,162c0,0,-32,45,-116,45c0,0,-88,0,-136,-66c0,0,-49,-65,-49,-185V0H573V512c0,0,0,117,-32,162c0,0,-32,45,-116,45c0,0,-86,0,-136,-66c0,0,-50,-66,-50,-185V0Z" 
id="f0_29"
transform="scale(0.001,-0.001)" />

<path d="M106,0V635c0,0,0,141,-5,173H228c0,0,1,-4,2,-21c0,0,1,-16,2,-37c0,0,1,-22,2,-81h2c0,0,47,84,108,119c0,0,60,34,151,34c0,0,132,0,194,-66c0,0,61,-66,61,-218V0H615V512c0,0,0,80,-15,124c0,0,-16,44,-50,63c0,0,-35,20,-101,20c0,0,-97,0,-153,-67c0,0,-56,-66,-56,-184V0Z" 
id="f0_2a"
transform="scale(0.001,-0.001)" />

<path d="M137,-195c0,0,70,102,70,195H142V163H287V38c0,0,0,-78,-14,-131c0,0,-14,-53,-44,-102Z" 
id="f0_g"
transform="scale(0.001,-0.001)" />

<path d="M140,0V163H285V0Z" 
id="f0_i"
transform="scale(0.001,-0.001)" />

<path d="M355,-14c0,0,-133,0,-194,65c0,0,-62,66,-62,219V808H234V296c0,0,0,-80,16,-124c0,0,16,-44,50,-64c0,0,34,-19,101,-19c0,0,97,0,153,66c0,0,55,67,55,185V808H744V172c0,0,0,-141,4,-172H621c0,0,0,4,-1,20c0,0,-1,17,-2,38c0,0,-1,21,-3,80h-2C613,138,567,55,506,20c0,0,-61,-34,-151,-34Z" 
id="f0_2h"
transform="scale(0.001,-0.001)" />

<path d="M103,0V1107H237V0Z" 
id="f0_28"
transform="scale(0.001,-0.001)" />

<path d="M398,93c0,0,63,0,112,37c0,0,49,38,76,107c0,0,27,70,27,166c0,0,0,99,-27,170c0,0,-27,71,-75,109c0,0,-49,38,-111,38c0,0,-103,0,-150,-75c0,0,-47,-75,-47,-242c0,0,0,-165,44,-238c0,0,44,-72,151,-72Zm11,-409c0,0,-132,0,-211,52c0,0,-78,52,-100,147l135,20c0,0,13,-56,59,-87c0,0,46,-30,121,-30c0,0,200,0,200,234V150h-1C612,150,574,72,507,33C507,33,441,-5,352,-5c0,0,-148,0,-218,98c0,0,-70,98,-70,309c0,0,0,214,75,316c0,0,75,101,228,101c0,0,86,0,149,-39c0,0,63,-39,97,-111h2c0,0,0,22,3,78c0,0,3,55,6,61H751c0,0,-4,-41,-4,-167V23c0,0,0,-339,-338,-339Z" 
id="f0_23"
transform="scale(0.001,-0.001)" />

<path d="M141,0V1051H283V0Z" 
id="f0_19"
transform="scale(0.001,-0.001)" />

<path d="M502,114c0,0,116,0,203,51c0,0,88,51,135,146c0,0,47,96,47,225c0,0,0,196,-107,298c0,0,-107,103,-310,103H268V114ZM125,0V1051H473c0,0,267,0,412,-134c0,0,145,-134,145,-381c0,0,0,-162,-63,-284C967,252,903,130,787,65C787,65,671,0,518,0Z" 
id="f0_14"
transform="scale(0.001,-0.001)" />

<path d="M125,0V1051H923V936H268V597H878V482H268V115H953V0Z" 
id="f0_15"
transform="scale(0.001,-0.001)" />

<path d="M142,-316c0,0,-55,0,-92,8v101c0,0,28,-4,63,-4c0,0,125,0,198,184L324,4L4,808H147L317,362c0,0,4,-11,9,-25c0,0,5,-15,34,-98c0,0,28,-83,30,-92l52,147L619,808H761L451,0c0,0,-50,-128,-94,-191c0,0,-43,-63,-96,-94c0,0,-52,-31,-119,-31Z" 
id="f0_2l"
transform="scale(0.001,-0.001)" />

<path d="M557,522c0,0,238,0,238,211c0,0,0,204,-244,204H268V522ZM125,0V1051H568c0,0,176,0,273,-83c0,0,97,-82,97,-233c0,0,0,-149,-97,-237c0,0,-97,-88,-264,-88H268V0Z" 
id="f0_1g"
transform="scale(0.001,-0.001)" />

<path d="M606,-14c0,0,-164,0,-284,65c0,0,-119,66,-182,189c0,0,-63,123,-63,291c0,0,0,255,137,396c0,0,137,140,386,140c0,0,174,0,283,-59c0,0,109,-59,168,-189L915,779c0,0,-44,90,-123,131c0,0,-79,41,-196,41c0,0,-182,0,-278,-110c0,0,-96,-110,-96,-310c0,0,0,-200,102,-315c0,0,102,-115,282,-115c0,0,103,0,193,31c0,0,89,31,144,85V407H629V526h445V164c0,0,-83,-85,-205,-132c0,0,-121,-46,-263,-46Z" 
id="f0_17"
transform="scale(0.001,-0.001)" />

<path d="M501,370V714c0,0,0,40,3,87c0,0,3,47,4,61c0,0,-19,-42,-70,-121L194,370ZM501,0V214H23V371l444,680H701V370H841V214H701V0Z" 
id="f1_o"
transform="scale(0.001,-0.001)" />

<path d="M104,0V228H319V0Z" 
id="f1_i"
transform="scale(0.001,-0.001)" />

<path d="M434,149c0,0,71,0,111,50c0,0,39,50,39,139c0,0,0,89,-41,137c0,0,-42,47,-114,47c0,0,-69,0,-111,-44c0,0,-42,-45,-42,-118c0,0,0,-91,44,-151c0,0,43,-60,114,-60Zm7,-163c0,0,-186,0,-285,129C156,115,56,246,56,501c0,0,0,282,101,424c0,0,101,142,289,142c0,0,134,0,211,-59c0,0,77,-59,109,-183L568,798c0,0,-28,103,-126,103c0,0,-85,0,-133,-85c0,0,-48,-84,-48,-255c0,0,34,56,93,86c0,0,60,30,135,30c0,0,141,0,223,-90c0,0,82,-89,82,-243c0,0,0,-168,-94,-263c0,0,-94,-95,-259,-95Z" 
id="f1_q"
transform="scale(0.001,-0.001)" />

<path d="M102,0V1051H929V881H322V617H883V447H322V170H959V0Z" 
id="f1_15"
transform="scale(0.001,-0.001)" />

<path d="M107,0V1107H316V0Z" 
id="f1_28"
transform="scale(0.001,-0.001)" />

<path d="M595,495c0,0,-6,98,-47,147c0,0,-41,49,-111,49c0,0,-74,0,-114,-51c0,0,-40,-52,-42,-145ZM437,-14c0,0,-182,0,-280,107c0,0,-97,108,-97,315c0,0,0,199,99,307c0,0,99,107,281,107c0,0,174,0,266,-115c0,0,91,-115,91,-337v-6H280c0,0,0,-118,43,-179c0,0,44,-60,125,-60c0,0,111,0,140,97L786,205c0,0,-86,-219,-349,-219Z" 
id="f1_21"
transform="scale(0.001,-0.001)" />

<path d="M443,-14c0,0,-183,0,-283,109C160,95,60,204,60,399c0,0,0,200,100,312c0,0,101,111,286,111c0,0,143,0,236,-71c0,0,93,-72,117,-198L588,543c0,0,-9,62,-45,99c0,0,-36,37,-101,37c0,0,-162,0,-162,-271c0,0,0,-279,165,-279c0,0,59,0,100,38c0,0,40,37,50,112L805,269c0,0,-11,-83,-59,-148C746,121,697,56,619,21c0,0,-78,-35,-176,-35Z" 
id="f1_1z"
transform="scale(0.001,-0.001)" />

<path d="M313,-13c0,0,-92,0,-142,50c0,0,-50,50,-50,152V666H19V808H131l66,189H328V808H481V666H328V245c0,0,0,-59,23,-87c0,0,22,-28,69,-28c0,0,25,0,70,10V11c0,0,-77,-24,-177,-24Z" 
id="f1_2g"
transform="scale(0.001,-0.001)" />

<path d="M107,0V618c0,0,0,66,-2,111c0,0,-2,44,-4,79H301c0,0,2,-14,6,-83c0,0,3,-68,3,-91h3c0,0,31,85,55,120c0,0,24,35,56,52c0,0,33,16,83,16c0,0,40,0,64,-11V636c0,0,-50,11,-89,11c0,0,-78,0,-122,-63c0,0,-44,-63,-44,-188V0Z" 
id="f1_2e"
transform="scale(0.001,-0.001)" />

<path d="M461,129c0,0,193,0,193,276c0,0,0,144,-47,209c0,0,-47,65,-136,65c0,0,-191,0,-191,-274c0,0,0,-135,46,-205c0,0,47,-71,135,-71Zm2,-143c0,0,-188,0,-296,111C167,97,60,209,60,405c0,0,0,194,107,306c0,0,108,111,301,111c0,0,197,0,301,-107c0,0,105,-108,105,-310c0,0,0,-197,-109,-308C765,97,656,-14,463,-14Z" 
id="f1_2b"
transform="scale(0.001,-0.001)" />

<path d="M107,0V627c0,0,0,65,-2,106c0,0,-2,42,-4,75H301c0,0,2,-15,6,-77c0,0,3,-61,3,-85h3c0,0,43,93,107,135c0,0,64,41,153,41c0,0,128,0,197,-79c0,0,68,-79,68,-231V0H630V452c0,0,0,213,-144,213c0,0,-76,0,-123,-65c0,0,-47,-66,-47,-168V0Z" 
id="f1_2a"
transform="scale(0.001,-0.001)" />

<path d="M448,148c0,0,83,0,128,69c0,0,44,70,44,198c0,0,0,124,-44,194c0,0,-45,70,-127,70c0,0,-168,0,-168,-269c0,0,0,-262,167,-262Zm-3,-471c0,0,-148,0,-238,57c0,0,-90,56,-111,160l210,25c0,0,11,-48,48,-75c0,0,37,-28,97,-28c0,0,87,0,127,54c0,0,40,53,40,158V71l2,79h-2C618,150,549,2,359,2C359,2,218,2,140,108c0,0,-77,106,-77,302c0,0,0,198,79,305c0,0,80,107,232,107c0,0,177,0,244,-145h4c0,0,0,26,4,71c0,0,3,45,7,60H831c0,0,-4,-81,-4,-187V25c0,0,0,-172,-98,-260c0,0,-98,-88,-284,-88Z" 
id="f1_23"
transform="scale(0.001,-0.001)" />

<path d="M360,132c0,0,50,0,90,27c0,0,41,27,64,74c0,0,23,47,23,100v41L430,373c0,0,-73,-3,-104,-16c0,0,-31,-13,-47,-40c0,0,-16,-27,-16,-72c0,0,0,-57,27,-85c0,0,26,-28,70,-28ZM293,-14c0,0,-117,0,-183,63c0,0,-65,64,-65,180c0,0,0,125,81,191c0,0,82,65,237,67l174,3v41c0,0,0,79,-27,117c0,0,-28,38,-91,38c0,0,-58,0,-85,-26c0,0,-27,-27,-34,-88L81,583c0,0,20,118,108,179c0,0,88,60,239,60c0,0,153,0,236,-75c0,0,83,-75,83,-214V239c0,0,0,-67,15,-93c0,0,15,-26,51,-26c0,0,24,0,46,5V11c0,0,-18,-5,-33,-8c0,0,-15,-3,-30,-5c0,0,-15,-3,-32,-4c0,0,-17,-2,-39,-2c0,0,-79,0,-117,38c0,0,-37,39,-45,114h-4c0,0,-88,-158,-266,-158Z" 
id="f1_1x"
transform="scale(0.001,-0.001)" />

<path d="M107,0V808H316V0Zm0,952v155H316V952Z" 
id="f1_25"
transform="scale(0.001,-0.001)" />

<path d="M295,0L6,808H228L369,356c0,0,11,-37,52,-186c0,0,8,30,31,107c0,0,23,77,172,531H843L545,0Z" 
id="f1_2i"
transform="scale(0.001,-0.001)" />

<path d="M211,-316c0,0,-75,0,-132,10v149c0,0,40,-6,72,-6c0,0,45,0,75,14c0,0,29,14,53,47c0,0,23,33,52,110L12,808H233L360,429c0,0,30,-82,76,-250l18,71l49,176L622,808H841L522,-42c0,0,-64,-155,-133,-214c0,0,-69,-60,-178,-60Z" 
id="f1_2l"
transform="scale(0.001,-0.001)" />

<path d="M224,0L-1,808H131L267,259c0,0,5,-18,32,-147l13,55L480,808H624L765,253L800,112l23,103L976,808h131L876,0H720L579,571L552,697c0,0,-7,-33,-21,-96C531,601,517,537,379,0Z" 
id="f0_2j"
transform="scale(0.001,-0.001)" />

<path d="M103,0V1107H237V416L592,808H749L421,461L766,0H609L336,369L237,287V0Z" 
id="f0_27"
transform="scale(0.001,-0.001)" />

<path d="M708,418L573,765c0,0,-21,52,-42,117l-20,62l-7,-21c0,0,-18,-62,-55,-159L315,418ZM3,0L432,1051H594L1016,0H871L750,307H272L151,0Z" 
id="f0_11"
transform="scale(0.001,-0.001)" />

<path d="M556,540c0,0,91,0,140,45c0,0,49,45,49,130c0,0,0,166,-195,166H322V540ZM102,0V1051H574c0,0,189,0,291,-87c0,0,102,-87,102,-246c0,0,0,-101,-46,-181c0,0,-47,-80,-133,-124c0,0,-86,-43,-205,-43H322V0Z" 
id="f1_1g"
transform="scale(0.001,-0.001)" />

<path d="M360,-14c0,0,-128,0,-197,78c0,0,-68,79,-68,231V808H304V355c0,0,0,-212,144,-212c0,0,76,0,122,65c0,0,47,65,47,167V808H827V181c0,0,0,-103,6,-181H633c0,0,-9,108,-9,161h-4C620,161,578,69,514,27c0,0,-65,-41,-154,-41Z" 
id="f1_2h"
transform="scale(0.001,-0.001)" />

<path d="M298,0L5,808H148L326,282c0,0,10,-29,51,-176l27,87l29,88L616,808H759L457,0Z" 
id="f0_2i"
transform="scale(0.001,-0.001)" />

<path d="M125,0V1051H872V936H268V544H854V425H268V0Z" 
id="f0_16"
transform="scale(0.001,-0.001)" />

<path d="M530,344V900c0,0,-1,-5,-20,-40c0,0,-20,-35,-30,-49L211,414L171,359L159,344ZM530,0V239H35V343l481,708H657V344H805V239H657V0Z" 
id="f0_o"
transform="scale(0.001,-0.001)" />

<path d="M424,96c0,0,119,0,174,106c0,0,55,106,55,325c0,0,0,227,-52,329c0,0,-53,102,-174,102c0,0,-123,0,-177,-100c0,0,-55,-101,-55,-331c0,0,0,-224,55,-328c0,0,55,-103,174,-103ZM423,-14c0,0,-181,0,-272,137c0,0,-91,138,-91,403c0,0,0,271,88,406c0,0,88,135,279,135c0,0,186,0,275,-137c0,0,88,-136,88,-404c0,0,0,-263,-93,-402c0,0,-93,-138,-274,-138Z" 
id="f0_k"
transform="scale(0.001,-0.001)" />

<path d="M453,84c0,0,101,0,146,75c0,0,46,75,46,244c0,0,0,169,-45,243c0,0,-45,73,-146,73c0,0,-113,0,-165,-78c0,0,-52,-78,-52,-246c0,0,0,-159,51,-235c0,0,51,-76,165,-76Zm36,-98c0,0,-92,0,-153,33c0,0,-61,33,-99,107h-1c0,0,0,-24,-3,-71c0,0,-3,-48,-5,-55H98c0,0,5,40,5,166v941H237V792c0,0,0,-49,-3,-114h3c0,0,38,77,99,111c0,0,62,33,153,33c0,0,153,0,225,-103c0,0,72,-103,72,-311c0,0,0,-422,-297,-422Z" 
id="f0_1y"
transform="scale(0.001,-0.001)" />

<path d="M370,-316c0,0,-141,152,-208,323C162,7,95,179,95,394v3c0,0,0,215,67,387c0,0,68,171,208,323H500c0,0,-140,-155,-205,-330c0,0,-65,-175,-65,-382c0,0,0,-207,64,-381c0,0,65,-172,206,-330Z" 
id="f0_c"
transform="scale(0.001,-0.001)" />

<path d="M576,-328c0,0,-42,0,-75,21c0,0,-32,22,-53,65c0,0,-33,71,-45,120L356,73L157,-315H26L313,248L257,468c0,0,-18,72,-43,94c0,0,-25,23,-71,23c0,0,-50,0,-80,-32C63,553,32,522,26,453H0c0,0,3,131,53,196c0,0,36,47,93,47c0,0,60,0,94,-42c0,0,33,-43,50,-113L347,315L535,683H668L390,141L438,-48c0,0,29,-117,58,-146c0,0,30,-29,79,-29c0,0,56,0,89,32c0,0,34,32,40,103h26c0,0,1,-19,1,-28c0,0,0,-95,-58,-166c0,0,-37,-46,-97,-46Z" 
id="f2_g"
transform="scale(0.001,-0.001)" />

<path d="M-9,318v76H774V318Z" 
id="f3_1jz"
transform="scale(0.001,-0.001)" />

<path d="M545,114c0,0,130,0,190,49c0,0,59,48,59,144c0,0,0,186,-261,186H268V114ZM507,604c0,0,114,0,171,43c0,0,56,43,56,132c0,0,0,85,-58,121c0,0,-58,37,-169,37H268V604ZM125,0V1051H507c0,0,370,0,370,-255c0,0,0,-93,-52,-157c0,0,-52,-63,-148,-85c0,0,126,-15,194,-84c0,0,67,-69,67,-174c0,0,0,-140,-102,-218C836,78,734,0,552,0Z" 
id="f0_12"
transform="scale(0.001,-0.001)" />

<path d="M9,-316c0,0,140,157,205,329c0,0,65,174,65,382c0,0,0,208,-65,382c0,0,-66,174,-205,330H139c0,0,141,-152,208,-324c0,0,67,-172,67,-386v-3c0,0,0,-216,-67,-388c0,0,-68,-170,-208,-322Z" 
id="f0_d"
transform="scale(0.001,-0.001)" />

<path d="M75,256V367H817V256Zm0,383V749H817V639Z" 
id="f0_x"
transform="scale(0.001,-0.001)" />

<path d="M77,0V95c0,0,38,87,93,154c0,0,55,67,115,121c0,0,60,54,120,100c0,0,59,46,107,93c0,0,47,46,77,97c0,0,29,50,29,114c0,0,0,87,-50,135c0,0,-51,47,-141,47c0,0,-86,0,-142,-46c0,0,-55,-47,-65,-131L83,791c0,0,15,126,107,201c0,0,92,75,237,75c0,0,159,0,244,-75c0,0,85,-75,85,-213c0,0,0,-61,-28,-122c0,0,-28,-60,-83,-120c0,0,-55,-61,-211,-188c0,0,-86,-70,-136,-126c0,0,-51,-56,-73,-109H773V0Z" 
id="f0_m"
transform="scale(0.001,-0.001)" />

<path d="M427,86c0,0,109,0,163,53c0,0,54,52,54,167c0,0,0,97,-58,147c0,0,-59,50,-164,50c0,0,-102,0,-159,-54c0,0,-58,-53,-58,-146c0,0,0,-217,222,-217Zm-3,517c0,0,94,0,144,44c0,0,50,43,50,141c0,0,0,178,-196,178c0,0,-95,0,-144,-45c0,0,-50,-44,-50,-133c0,0,0,-90,51,-137c0,0,51,-48,145,-48Zm1,-617c0,0,-168,0,-263,79c0,0,-96,80,-96,227c0,0,0,103,59,173c0,0,59,70,151,85v3c0,0,-86,20,-135,87c0,0,-50,67,-50,157c0,0,0,121,90,195c0,0,90,75,241,75c0,0,155,0,245,-73c0,0,90,-74,90,-198c0,0,0,-90,-50,-158c0,0,-50,-67,-136,-84v-3c0,0,100,-16,156,-85c0,0,56,-69,56,-173c0,0,0,-145,-92,-226c0,0,-93,-81,-266,-81Z" 
id="f0_s"
transform="scale(0.001,-0.001)" />

<path d="M109,-316V1107H413v-96H239V-220H413v-96Z" 
id="f0_1r"
transform="scale(0.001,-0.001)" />

<path d="M681,416L504,902L333,416ZM669,0V40L803,60L704,348H310L210,60L344,40V0H15V40L128,60l341,949H611L965,60L1092,40V0Z" 
id="f3_11"
transform="scale(0.001,-0.001)" />

<path d="M536,63c0,0,127,0,191,54c0,0,63,54,63,168c0,0,0,105,-70,154c0,0,-70,49,-225,49H316V67c0,0,103,-4,220,-4ZM480,555c0,0,121,0,178,48c0,0,57,48,57,155c0,0,0,91,-58,133c0,0,-57,42,-186,42H316V555ZM554,-4L235,0H44V40L172,60V941L44,960v40H501c0,0,191,0,279,-56c0,0,88,-56,88,-179c0,0,0,-88,-55,-149c0,0,-54,-62,-151,-83c0,0,135,-14,209,-79c0,0,73,-65,73,-166c0,0,0,-144,-99,-219C845,69,745,-4,554,-4Z" 
id="f3_12"
transform="scale(0.001,-0.001)" />

<path d="M460,-325c0,0,-148,79,-231,172c0,0,-84,93,-123,217c0,0,-39,126,-39,304c0,0,0,178,39,303c0,0,39,125,122,217c0,0,82,93,232,172V997c0,0,-91,-52,-145,-134c0,0,-54,-81,-79,-190c0,0,-25,-109,-25,-305c0,0,0,-194,26,-309c0,0,26,-114,82,-193c0,0,56,-79,141,-128v-63Z" 
id="f3_c"
transform="scale(0.001,-0.001)" />

<path d="M44,0V40L172,60V941L44,960v40H794V760H745L721,922c0,0,-83,11,-241,11H316V543H586l23,119h48V354H609L586,475H316V67H513c0,0,193,0,252,12l43,185h49L843,0Z" 
id="f3_15"
transform="scale(0.001,-0.001)" />

<path d="M182,168l-76,78L370,510L107,773l78,76L446,586L707,848l79,-78L524,510L787,247L711,169L448,432L182,168Z" 
id="f0_4a"
transform="scale(0.001,-0.001)" />

<path d="M116,0V114H384V923L147,754V881l248,170H519V114H775V0Z" 
id="f0_l"
transform="scale(0.001,-0.001)" />

<path d="M0,-14L307,1107H424L121,-14Z" 
id="f0_j"
transform="scale(0.001,-0.001)" />

<path d="M12,-316v96H186V1011H12v96H316V-316Z" 
id="f0_1t"
transform="scale(0.001,-0.001)" />

<path d="M102,0V1051H397L585,463l16,-56L637,266l47,168l193,617h293V0H975V637c0,0,0,22,0,43c0,0,1,22,7,186c0,0,-52,-201,-78,-280L715,0H558L369,586L289,866c0,0,9,-173,9,-229V0Z" 
id="f1_1d"
transform="scale(0.001,-0.001)" />

<path d="M107,0V1107H316V473L604,808H830L546,493L851,0H622L407,366L316,303V0Z" 
id="f1_27"
transform="scale(0.001,-0.001)" />

<path d="M355,0V355H0v72H355V784h72V427H782V355H427V0Z" 
id="f2_5"
transform="scale(0.001,-0.001)" />

<path d="M0,214v74H784V214ZM0,494v72H784V494Z" 
id="f2_a"
transform="scale(0.001,-0.001)" />

<path d="M62,0V102L513,704H87V808H672V706L220,104H688V0Z" 
id="f0_2m"
transform="scale(0.001,-0.001)" />

<path d="M410,514L298,707L181,516L93,570L233,755L25,809L58,909L257,829l-9,222H350L340,831l197,77l34,-99L360,755L498,568L410,514Z" 
id="f0_e"
transform="scale(0.001,-0.001)" />

<path d="M439,94c0,0,97,0,152,65c0,0,55,65,55,179c0,0,0,114,-56,176c0,0,-56,62,-156,62c0,0,-94,0,-152,-55c0,0,-57,-55,-57,-151c0,0,0,-121,60,-199c0,0,60,-77,154,-77Zm4,-108c0,0,-177,0,-271,131c0,0,-94,132,-94,384c0,0,0,273,97,420c0,0,98,146,279,146c0,0,238,0,299,-214L625,830c0,0,-39,128,-173,128c0,0,-115,0,-178,-107c0,0,-63,-107,-63,-310c0,0,37,68,103,103c0,0,66,36,152,36c0,0,146,0,231,-91c0,0,86,-91,86,-245c0,0,0,-166,-91,-262c0,0,-90,-96,-249,-96Z" 
id="f0_q"
transform="scale(0.001,-0.001)" />

<path d="M391,134V454H75V562H391V882H501V562H817V454H501V134Z" 
id="f0_f"
transform="scale(0.001,-0.001)" />

<path d="M426,-14c0,0,-160,0,-255,71c0,0,-95,72,-113,213l139,13c0,0,27,-187,229,-187c0,0,101,0,159,50c0,0,58,50,58,149c0,0,0,86,-66,134c0,0,-66,48,-191,48H310V594h73c0,0,111,0,172,48c0,0,60,48,60,133c0,0,0,84,-49,132c0,0,-50,49,-147,49c0,0,-89,0,-144,-45c0,0,-55,-46,-64,-129L76,793c0,0,15,129,107,201c0,0,92,73,237,73c0,0,158,0,246,-74c0,0,87,-73,87,-204c0,0,0,-101,-56,-164c0,0,-56,-63,-164,-85v-3c0,0,118,-13,184,-79c0,0,66,-67,66,-167c0,0,0,-146,-93,-226c0,0,-92,-79,-264,-79Z" 
id="f0_n"
transform="scale(0.001,-0.001)" />

<path d="M413,-14c0,0,-147,0,-238,64c0,0,-90,64,-114,185l136,16c0,0,42,-155,219,-155c0,0,108,0,169,65c0,0,61,65,61,179c0,0,0,98,-62,159c0,0,-61,61,-165,61c0,0,-55,0,-102,-17c0,0,-47,-17,-94,-58H92l35,566H724V937H249L229,604c0,0,87,67,217,67c0,0,155,0,247,-91c0,0,93,-91,93,-237c0,0,0,-167,-99,-262c0,0,-99,-95,-274,-95Z" 
id="f0_p"
transform="scale(0.001,-0.001)" />

<path d="M272,0c0,0,0,201,86,424c0,0,85,223,285,513H78v114H773V942C773,942,612,696,545,556c0,0,-66,-139,-99,-275C446,281,413,145,413,0Z" 
id="f0_r"
transform="scale(0.001,-0.001)" />

<path d="M1067,73c0,0,65,0,96,63c0,0,31,62,31,188c0,0,0,134,-29,194c0,0,-29,60,-97,60c0,0,-68,0,-98,-59c0,0,-30,-59,-30,-195c0,0,0,-127,29,-189c0,0,30,-62,98,-62Zm-2,-81c0,0,-116,0,-175,83c0,0,-60,84,-60,249c0,0,0,170,57,253c0,0,57,83,181,83c0,0,123,0,179,-85c0,0,57,-86,57,-251c0,0,0,-161,-60,-247c0,0,-61,-85,-179,-85ZM292,475c0,0,65,0,96,63c0,0,30,63,30,189c0,0,0,132,-29,192c0,0,-28,61,-95,61c0,0,-70,0,-100,-60c0,0,-30,-59,-30,-193c0,0,0,-129,30,-190c0,0,30,-62,98,-62ZM278,0L965,1051h117L393,0Zm13,391c0,0,-118,0,-177,87c0,0,-60,86,-60,249c0,0,0,167,58,250c0,0,57,83,182,83c0,0,119,0,176,-84c0,0,57,-83,57,-249c0,0,0,-161,-59,-249c0,0,-59,-87,-177,-87Z" 
id="f0_9"
transform="scale(0.001,-0.001)" />

<path d="M17,0L304,415L31,808H179L380,493L580,808H730L457,417L747,0H598L380,331L162,0Z" 
id="f0_2k"
transform="scale(0.001,-0.001)" />

<path d="M532,575c0,0,81,0,119,17c0,0,38,16,61,51c0,0,23,35,23,83c0,0,0,71,-55,113c0,0,-41,31,-121,31H443V575ZM61,0V144H96c0,0,46,0,61,6c0,0,15,7,22,22c0,0,7,14,7,60V804c0,0,0,48,-6,63c0,0,-6,15,-19,23c0,0,-13,7,-50,7H61v143H611c0,0,104,0,173,-21c0,0,69,-21,119,-64c0,0,49,-44,76,-103c0,0,27,-59,27,-126c0,0,0,-133,-102,-223c0,0,-103,-90,-284,-90H443V218c0,0,0,-37,5,-47c0,0,7,-14,21,-21c0,0,13,-6,46,-6h53V0Z" 
id="f4_1g"
transform="scale(0.001,-0.001)" />

<path d="M59,0V144H85c0,0,52,0,70,7c0,0,18,8,25,26c0,0,4,11,4,64V808c0,0,0,46,-7,60c0,0,-6,14,-19,22c0,0,-14,7,-53,7H59v143H928L1046,712L911,663c0,0,-34,81,-80,130c0,0,-46,49,-102,65c0,0,-55,16,-129,16H441V615h52c0,0,59,0,80,9c0,0,20,8,29,26c0,0,9,19,9,73v40H744V322H611v45c0,0,0,45,-11,66c0,0,-11,21,-29,29c0,0,-19,7,-83,7H441V230c0,0,0,-38,4,-47c0,0,3,-8,14,-12c0,0,11,-5,47,-5h87c0,0,98,0,165,28c0,0,67,28,120,91c0,0,53,63,81,149l136,-47L959,0Z" 
id="f4_15"
transform="scale(0.001,-0.001)" />

<path d="M593,600c0,0,92,0,137,17c0,0,45,17,68,48c0,0,22,31,22,76c0,0,0,41,-21,71c0,0,-21,29,-60,43c0,0,-40,14,-128,14H439V600ZM55,0V144h46c0,0,37,0,52,8c0,0,16,7,23,23c0,0,4,9,4,56V816c0,0,0,35,-6,49c0,0,-5,15,-18,19c0,0,-18,8,-41,8H55v148H697c0,0,62,0,135,-11c0,0,74,-11,133,-49c0,0,60,-38,92,-96c0,0,33,-59,33,-132c0,0,0,-118,-84,-192c0,0,-85,-73,-201,-96L1019,215l9,-11c0,0,21,-25,38,-38c0,0,17,-12,34,-17c0,0,18,-5,48,-5h45V0H859L526,448H439V241c0,0,0,-54,6,-69c0,0,6,-14,19,-21c0,0,13,-7,52,-7h48V0Z" 
id="f4_1i"
transform="scale(0.001,-0.001)" />

<path d="M52,0V144H93c0,0,44,0,58,6c0,0,13,6,20,20c0,0,6,14,6,55V803c0,0,0,49,-6,64c0,0,-7,15,-22,24c0,0,-10,6,-51,6H52v143H559V897H513c0,0,-40,0,-53,-7c0,0,-13,-8,-20,-23c0,0,-6,-15,-6,-58V233c0,0,0,-47,5,-61c0,0,6,-13,18,-19c0,0,16,-9,47,-9h55V0Z" 
id="f4_19"
transform="scale(0.001,-0.001)" />

<path d="M611,148c0,0,117,0,187,88c0,0,83,105,83,281c0,0,0,124,-35,208c0,0,-36,84,-96,126c0,0,-61,42,-132,42c0,0,-118,0,-189,-89c0,0,-88,-112,-88,-289c0,0,0,-176,82,-279c0,0,71,-88,188,-88ZM608,-17c0,0,-231,0,-378,126C230,109,53,262,53,518c0,0,0,237,155,389c0,0,156,151,407,151c0,0,248,0,401,-151c0,0,153,-150,153,-386c0,0,0,-159,-70,-282c0,0,-70,-123,-193,-190c0,0,-124,-66,-298,-66Z" 
id="f4_1f"
transform="scale(0.001,-0.001)" />

<path d="M514,166c0,0,122,0,191,38c0,0,69,38,111,121c0,0,43,83,43,199c0,0,0,113,-40,197c0,0,-40,84,-99,119c0,0,-59,34,-168,34H437V226c0,0,0,-33,4,-40c0,0,6,-12,17,-16c0,0,12,-4,56,-4ZM55,0V144H91c0,0,46,0,60,7c0,0,15,8,24,26c0,0,6,14,6,61V807c0,0,0,48,-6,62c0,0,-7,13,-21,21c0,0,-15,7,-62,7H56v143H601c0,0,186,0,296,-59c0,0,110,-58,175,-174c0,0,65,-116,65,-278c0,0,0,-112,-33,-201c0,0,-33,-89,-99,-160c0,0,-66,-71,-141,-107C864,61,807,34,703,17C703,17,599,0,536,0Z" 
id="f4_14"
transform="scale(0.001,-0.001)" />

<path d="M579,-17c0,0,-147,0,-266,70c0,0,-119,70,-189,197c0,0,-71,127,-71,277c0,0,0,149,69,271c0,0,69,123,187,191c0,0,119,69,265,69c0,0,149,0,260,-62l25,44H965L1067,667L928,627c0,0,-69,133,-130,189c0,0,-85,77,-185,77c0,0,-72,0,-135,-41c0,0,-63,-40,-100,-118c0,0,-37,-78,-37,-183c0,0,0,-161,85,-276c0,0,85,-116,222,-116c0,0,87,0,168,50c0,0,100,62,173,167l116,-86C1105,290,992,136,899,76c0,0,-144,-93,-320,-93Z" 
id="f4_13"
transform="scale(0.001,-0.001)" />

<path d="M63,0V144h49c0,0,31,0,46,8c0,0,16,8,23,22c0,0,7,14,7,48V812c0,0,0,37,-7,53c0,0,-7,17,-20,24c0,0,-13,8,-44,8H63v143H570V897H526c0,0,-37,0,-47,-4c0,0,-18,-8,-26,-23c0,0,-8,-15,-8,-49V226c0,0,0,-36,3,-44c0,0,4,-8,14,-13c0,0,10,-5,40,-5c0,0,100,0,161,26c0,0,61,27,110,84c0,0,49,58,84,158L994,385L857,0Z" 
id="f4_1c"
transform="scale(0.001,-0.001)" />

<path d="M610,480L509,765L404,480ZM2,0V144c0,0,39,0,56,6c0,0,18,7,30,21c0,0,11,13,25,49l322,820H669L981,237c0,0,25,-64,45,-79c0,0,19,-14,68,-14c2,0,3,0,5,0V0H606V144h30c0,0,41,0,58,11c0,0,16,11,16,27c0,0,0,13,-14,55l-32,94H349L310,226c0,0,-12,-33,-12,-44c0,0,0,-11,8,-21c0,0,9,-10,28,-14c0,0,13,-3,71,-3V0Z" 
id="f4_11"
transform="scale(0.001,-0.001)" />

<path d="M567,-17c0,0,-83,0,-152,21c0,0,-70,21,-145,71L237,0H126L52,404l140,33c0,0,49,-123,153,-205c0,0,104,-82,228,-82c0,0,56,0,93,14c0,0,37,14,56,39c0,0,18,25,18,52c0,0,0,45,-43,77c0,0,-44,32,-154,63L369,446c0,0,-40,11,-107,42c0,0,-68,31,-104,64c0,0,-36,34,-60,86c0,0,-24,53,-24,111c0,0,0,83,46,153c0,0,46,69,138,113c0,0,92,43,204,43c0,0,135,0,244,-70l29,52H842L932,692L792,652c0,0,-69,125,-157,183c0,0,-88,58,-187,58c0,0,-64,0,-101,-26c0,0,-37,-27,-37,-59c0,0,0,-36,34,-67c0,0,32,-32,121,-56L665,626c0,0,166,-47,237,-126c0,0,70,-80,70,-186c0,0,0,-135,-107,-229C865,85,745,-17,567,-17Z" 
id="f4_1j"
transform="scale(0.001,-0.001)" />

<path d="M59,0V144H92c0,0,57,0,74,14c0,0,18,15,18,59V815c0,0,0,41,-7,55c0,0,-7,13,-22,20c0,0,-16,7,-63,7H59v143H919L1037,709L902,662c0,0,-33,72,-63,109c0,0,-29,37,-70,61c0,0,-41,25,-89,33c0,0,-32,5,-114,5H438V594h66c0,0,37,0,58,12c0,0,22,11,31,29c0,0,9,18,9,60v55H736V284H602v67c0,0,0,29,-5,43c0,0,-7,18,-19,29c0,0,-12,11,-27,15c0,0,-15,5,-55,5H438V224c0,0,0,-39,7,-53c0,0,6,-14,21,-21c0,0,15,-6,58,-6h42V0Z" 
id="f4_16"
transform="scale(0.001,-0.001)" />

<path d="M280,0V144h30c0,0,51,0,66,6c0,0,14,6,21,22c0,0,8,17,8,67V851c0,0,0,26,-6,33c0,0,-6,7,-26,7c0,0,-38,0,-86,-29c0,0,-48,-29,-85,-82c0,0,-15,-21,-63,-118L2,711l128,365h99l10,-36H826l13,36h99L1067,711L928,662c0,0,-46,91,-66,119c0,0,-40,55,-92,86c0,0,-38,24,-77,24c0,0,-18,0,-24,-9c0,0,-7,-8,-7,-39V244c0,0,0,-53,4,-66c0,0,3,-13,12,-21c0,0,9,-8,25,-11c0,0,16,-2,84,-2V0Z" 
id="f4_1k"
transform="scale(0.001,-0.001)" />

<path d="M59,0V144h44c0,0,37,0,51,6c0,0,14,6,22,22c0,0,8,16,8,47V816c0,0,0,34,-8,50c0,0,-7,16,-20,24c0,0,-12,7,-42,7H59v143H480L786,433V805c0,0,0,48,-5,60c0,0,-8,17,-20,25c0,0,-13,7,-49,7H661v143h428V897h-47c0,0,-36,0,-51,-9c0,0,-15,-8,-21,-22c0,0,-6,-14,-6,-61V0H750L364,767V230c0,0,0,-46,5,-59c0,0,6,-12,20,-20c0,0,15,-7,50,-7h50V0Z" 
id="f4_1e"
transform="scale(0.001,-0.001)" />


</defs>
</svg>