<?xml version="1.0" encoding="UTF-8" standalone="no"?>
<!DOCTYPE svg PUBLIC "-//W3C//DTD SVG 1.1//EN"
"http://www.w3.org/Graphics/SVG/1.1/DTD/svg11.dtd">
<svg viewBox="0 0 909 1286" version="1.1" xmlns="http://www.w3.org/2000/svg" xmlns:xlink="http://www.w3.org/1999/xlink">
<defs>
<style type="text/css"><![CDATA[
.g0_28{
}
.g1_28{
fill: #FFFFFF;
}
]]></style>
</defs>
<g fill="#000000" >
<use xlink:href="#f0_c" transform="matrix(10,0,0,10,67.7,162.4)" />
<use xlink:href="#f0_m" transform="matrix(10,0,0,10,72.4,162.4)" />
<use xlink:href="#f0_d" transform="matrix(10,0,0,10,79.8,162.4)" />
<use xlink:href="#f0_1g" transform="matrix(10,0,0,10,98.6,162.4)" />
<use xlink:href="#f0_1x" transform="matrix(10,0,0,10,108,162.4)" />
<use xlink:href="#f0_2h" transform="matrix(10,0,0,10,115.7,162.4)" />
<use xlink:href="#f0_28" transform="matrix(10,0,0,10,124.1,162.4)" />
<use xlink:href="#f0_25" transform="matrix(10,0,0,10,128.4,162.4)" />
<use xlink:href="#f0_15" transform="matrix(10,0,0,10,135.5,162.4)" />
<use xlink:href="#f0_2k" transform="matrix(10,0,0,10,145.6,162.4)" />
<use xlink:href="#f0_1z" transform="matrix(10,0,0,10,153.1,162.4)" />
<use xlink:href="#f0_28" transform="matrix(10,0,0,10,159.9,162.4)" />
<use xlink:href="#f0_2h" transform="matrix(10,0,0,10,164.1,162.4)" />
<use xlink:href="#f0_2f" transform="matrix(10,0,0,10,172.6,162.4)" />
<use xlink:href="#f0_25" transform="matrix(10,0,0,10,178.5,162.4)" />
<use xlink:href="#f0_2b" transform="matrix(10,0,0,10,182.7,162.4)" />
<use xlink:href="#f0_2a" transform="matrix(10,0,0,10,190.4,162.4)" />
<use xlink:href="#f0_1g" transform="matrix(10,0,0,10,201.8,162.4)" />
<use xlink:href="#f0_2e" transform="matrix(10,0,0,10,211.1,162.4)" />
<use xlink:href="#f0_25" transform="matrix(10,0,0,10,217.9,162.4)" />
<use xlink:href="#f0_2a" transform="matrix(10,0,0,10,222.1,162.4)" />
<use xlink:href="#f0_1z" transform="matrix(10,0,0,10,230.6,162.4)" />
<use xlink:href="#f0_25" transform="matrix(10,0,0,10,237.3,162.4)" />
<use xlink:href="#f0_2c" transform="matrix(10,0,0,10,241.6,162.4)" />
<use xlink:href="#f0_28" transform="matrix(10,0,0,10,250,162.4)" />
<use xlink:href="#f0_21" transform="matrix(10,0,0,10,254.2,162.4)" />
<use xlink:href="#f0_u" transform="matrix(10,0,0,10,261,162.4)" />
<use xlink:href="#f1_11" transform="matrix(10,0,0,10,268,162.4)" />
<use xlink:href="#f1_2a" transform="matrix(10,0,0,10,278.9,162.4)" />
<use xlink:href="#f1_2b" transform="matrix(10,0,0,10,289.3,162.4)" />
<use xlink:href="#f1_2e" transform="matrix(10,0,0,10,297,162.4)" />
<use xlink:href="#f1_1y" transform="matrix(10,0,0,10,302.2,162.4)" />
<use xlink:href="#f1_25" transform="matrix(10,0,0,10,309.9,162.4)" />
<use xlink:href="#f1_2g" transform="matrix(10,0,0,10,314.1,162.4)" />
<use xlink:href="#f1_1x" transform="matrix(10,0,0,10,318.3,162.4)" />
<use xlink:href="#f1_28" transform="matrix(10,0,0,10,325.1,162.4)" />
<use xlink:href="#f1_1z" transform="matrix(10,0,0,10,332.1,162.4)" />
<use xlink:href="#f1_1x" transform="matrix(10,0,0,10,338.8,162.4)" />
<use xlink:href="#f1_2a" transform="matrix(10,0,0,10,345.4,162.4)" />
<use xlink:href="#f1_24" transform="matrix(10,0,0,10,355.9,162.4)" />
<use xlink:href="#f1_1x" transform="matrix(10,0,0,10,363.4,162.4)" />
<use xlink:href="#f1_2i" transform="matrix(10,0,0,10,370.2,162.4)" />
<use xlink:href="#f1_21" transform="matrix(10,0,0,10,377.7,162.4)" />
<use xlink:href="#f1_29" transform="matrix(10,0,0,10,387.4,162.4)" />
<use xlink:href="#f1_1x" transform="matrix(10,0,0,10,399,162.4)" />
<use xlink:href="#f1_2k" transform="matrix(10,0,0,10,405.8,162.4)" />
<use xlink:href="#f1_25" transform="matrix(10,0,0,10,413.3,162.4)" />
<use xlink:href="#f1_29" transform="matrix(10,0,0,10,417.5,162.4)" />
<use xlink:href="#f1_2h" transform="matrix(10,0,0,10,429.1,162.4)" />
<use xlink:href="#f1_29" transform="matrix(10,0,0,10,436.6,162.4)" />
<use xlink:href="#f1_2g" transform="matrix(10,0,0,10,98.6,180.8)" />
<use xlink:href="#f1_2j" transform="matrix(10,0,0,10,102.9,180.8)" />
<use xlink:href="#f1_2b" transform="matrix(10,0,0,10,113.7,180.8)" />
<use xlink:href="#f1_21" transform="matrix(10,0,0,10,126.3,180.8)" />
<use xlink:href="#f1_28" transform="matrix(10,0,0,10,133.1,180.8)" />
<use xlink:href="#f1_21" transform="matrix(10,0,0,10,137.5,180.8)" />
<use xlink:href="#f1_1z" transform="matrix(10,0,0,10,144.3,180.8)" />
<use xlink:href="#f1_2g" transform="matrix(10,0,0,10,151,180.8)" />
<use xlink:href="#f1_2e" transform="matrix(10,0,0,10,155.4,180.8)" />
<use xlink:href="#f1_2b" transform="matrix(10,0,0,10,160.6,180.8)" />
<use xlink:href="#f1_2a" transform="matrix(10,0,0,10,168.5,180.8)" />
<use xlink:href="#f1_2f" transform="matrix(10,0,0,10,176,180.8)" />
<use xlink:href="#f1_1x" transform="matrix(10,0,0,10,186.6,180.8)" />
<use xlink:href="#f1_2a" transform="matrix(10,0,0,10,193.4,180.8)" />
<use xlink:href="#f1_20" transform="matrix(10,0,0,10,201.1,180.8)" />
<use xlink:href="#f1_2g" transform="matrix(10,0,0,10,213.7,180.8)" />
<use xlink:href="#f1_24" transform="matrix(10,0,0,10,217.9,180.8)" />
<use xlink:href="#f1_21" transform="matrix(10,0,0,10,225.6,180.8)" />
<use xlink:href="#f1_2f" transform="matrix(10,0,0,10,232.4,180.8)" />
<use xlink:href="#f1_21" transform="matrix(10,0,0,10,238.3,180.8)" />
<use xlink:href="#f1_29" transform="matrix(10,0,0,10,249.8,180.8)" />
<use xlink:href="#f1_2h" transform="matrix(10,0,0,10,261.6,180.8)" />
<use xlink:href="#f1_2f" transform="matrix(10,0,0,10,269.1,180.8)" />
<use xlink:href="#f1_2g" transform="matrix(10,0,0,10,275,180.8)" />
<use xlink:href="#f1_24" transform="matrix(10,0,0,10,284.1,180.8)" />
<use xlink:href="#f1_1x" transform="matrix(10,0,0,10,291.8,180.8)" />
<use xlink:href="#f1_2i" transform="matrix(10,0,0,10,298.6,180.8)" />
<use xlink:href="#f1_21" transform="matrix(10,0,0,10,306.3,180.8)" />
<use xlink:href="#f1_2b" transform="matrix(10,0,0,10,317.7,180.8)" />
<use xlink:href="#f1_2c" transform="matrix(10,0,0,10,325.5,180.8)" />
<use xlink:href="#f1_2c" transform="matrix(10,0,0,10,333.2,180.8)" />
<use xlink:href="#f1_2b" transform="matrix(10,0,0,10,341.1,180.8)" />
<use xlink:href="#f1_2f" transform="matrix(10,0,0,10,348.8,180.8)" />
<use xlink:href="#f1_25" transform="matrix(10,0,0,10,354.9,180.8)" />
<use xlink:href="#f1_2g" transform="matrix(10,0,0,10,359.1,180.8)" />
<use xlink:href="#f1_21" transform="matrix(10,0,0,10,363.3,180.8)" />
<use xlink:href="#f1_2f" transform="matrix(10,0,0,10,375,180.8)" />
<use xlink:href="#f1_2c" transform="matrix(10,0,0,10,381.1,180.8)" />
<use xlink:href="#f1_25" transform="matrix(10,0,0,10,388.8,180.8)" />
<use xlink:href="#f1_2a" transform="matrix(10,0,0,10,393.2,180.8)" />
<use xlink:href="#f1_i" transform="matrix(10,0,0,10,400.7,180.8)" />
</g>
<image preserveAspectRatio="none" x="99" y="203" width="206" height="109" xlink:href="img/1.png" />
<g fill="#000000" >
<use xlink:href="#f0_15" transform="matrix(10,0,0,10,288.2,355.8)" />
<use xlink:href="#f0_28" transform="matrix(10,0,0,10,298.3,355.8)" />
<use xlink:href="#f0_21" transform="matrix(10,0,0,10,302.3,355.8)" />
<use xlink:href="#f0_1z" transform="matrix(10,0,0,10,309.1,355.8)" />
<use xlink:href="#f0_2g" transform="matrix(10,0,0,10,315.9,355.8)" />
<use xlink:href="#f0_2e" transform="matrix(10,0,0,10,321,355.8)" />
<use xlink:href="#f0_2b" transform="matrix(10,0,0,10,327.6,355.8)" />
<use xlink:href="#f0_2a" transform="matrix(10,0,0,10,335.3,355.8)" />
<use xlink:href="#f0_25" transform="matrix(10,0,0,10,343.8,355.8)" />
<use xlink:href="#f0_1z" transform="matrix(10,0,0,10,347.8,355.8)" />
<use xlink:href="#f0_1z" transform="matrix(10,0,0,10,357.5,355.8)" />
<use xlink:href="#f0_2b" transform="matrix(10,0,0,10,364.3,355.8)" />
<use xlink:href="#f0_2a" transform="matrix(10,0,0,10,371.8,355.8)" />
<use xlink:href="#f0_22" transform="matrix(10,0,0,10,380.3,355.8)" />
<use xlink:href="#f0_25" transform="matrix(10,0,0,10,385.4,355.8)" />
<use xlink:href="#f0_23" transform="matrix(10,0,0,10,389.4,355.8)" />
<use xlink:href="#f0_2h" transform="matrix(10,0,0,10,397.1,355.8)" />
<use xlink:href="#f0_2e" transform="matrix(10,0,0,10,405.6,355.8)" />
<use xlink:href="#f0_1x" transform="matrix(10,0,0,10,412.3,355.8)" />
<use xlink:href="#f0_2g" transform="matrix(10,0,0,10,419.9,355.8)" />
<use xlink:href="#f0_25" transform="matrix(10,0,0,10,425,355.8)" />
<use xlink:href="#f0_2b" transform="matrix(10,0,0,10,429.2,355.8)" />
<use xlink:href="#f0_2a" transform="matrix(10,0,0,10,436.7,355.8)" />
<use xlink:href="#f0_2f" transform="matrix(10,0,0,10,445.2,355.8)" />
<use xlink:href="#f0_2b" transform="matrix(10,0,0,10,453.8,355.8)" />
<use xlink:href="#f0_22" transform="matrix(10,0,0,10,461.3,355.8)" />
<use xlink:href="#f0_21" transform="matrix(10,0,0,10,469.4,355.8)" />
<use xlink:href="#f0_28" transform="matrix(10,0,0,10,476,355.8)" />
<use xlink:href="#f0_21" transform="matrix(10,0,0,10,480.2,355.8)" />
<use xlink:href="#f0_29" transform="matrix(10,0,0,10,487,355.8)" />
<use xlink:href="#f0_21" transform="matrix(10,0,0,10,499.3,355.8)" />
<use xlink:href="#f0_2a" transform="matrix(10,0,0,10,505.9,355.8)" />
<use xlink:href="#f0_2g" transform="matrix(10,0,0,10,514.4,355.8)" />
<use xlink:href="#f0_2f" transform="matrix(10,0,0,10,519.5,355.8)" />
<use xlink:href="#f0_25" transform="matrix(10,0,0,10,528.1,355.8)" />
<use xlink:href="#f0_2a" transform="matrix(10,0,0,10,532.3,355.8)" />
<use xlink:href="#f0_2g" transform="matrix(10,0,0,10,543.5,355.8)" />
<use xlink:href="#f0_24" transform="matrix(10,0,0,10,548.7,355.8)" />
<use xlink:href="#f0_21" transform="matrix(10,0,0,10,557.1,355.8)" />
<use xlink:href="#f0_23" transform="matrix(10,0,0,10,566.5,355.8)" />
<use xlink:href="#f0_2e" transform="matrix(10,0,0,10,574.2,355.8)" />
<use xlink:href="#f0_2b" transform="matrix(10,0,0,10,580.9,355.8)" />
<use xlink:href="#f0_2h" transform="matrix(10,0,0,10,588.5,355.8)" />
<use xlink:href="#f0_2a" transform="matrix(10,0,0,10,596.9,355.8)" />
<use xlink:href="#f0_20" transform="matrix(10,0,0,10,605.4,355.8)" />
<use xlink:href="#f0_2f" transform="matrix(10,0,0,10,616.6,355.8)" />
<use xlink:href="#f0_2g" transform="matrix(10,0,0,10,622.4,355.8)" />
<use xlink:href="#f0_1x" transform="matrix(10,0,0,10,627.6,355.8)" />
<use xlink:href="#f0_2g" transform="matrix(10,0,0,10,635.1,355.8)" />
<use xlink:href="#f0_21" transform="matrix(10,0,0,10,640.2,355.8)" />
<use xlink:href="#f0_11" transform="matrix(10,0,0,10,180.6,392.5)" />
<use xlink:href="#f0_2g" transform="matrix(10,0,0,10,191.2,392.5)" />
<use xlink:href="#f0_2b" transform="matrix(10,0,0,10,196.2,392.5)" />
<use xlink:href="#f0_29" transform="matrix(10,0,0,10,203.5,392.5)" />
<use xlink:href="#f0_25" transform="matrix(10,0,0,10,215.4,392.5)" />
<use xlink:href="#f0_1z" transform="matrix(10,0,0,10,219.5,392.5)" />
<use xlink:href="#f0_1e" transform="matrix(10,0,0,10,228.5,392.5)" />
<use xlink:href="#f0_2b" transform="matrix(10,0,0,10,239.3,392.5)" />
<use xlink:href="#f0_i" transform="matrix(10,0,0,10,246.6,392.5)" />
<use xlink:href="#f0_15" transform="matrix(10,0,0,10,418.9,392.5)" />
<use xlink:href="#f0_28" transform="matrix(10,0,0,10,428.5,392.5)" />
<use xlink:href="#f0_21" transform="matrix(10,0,0,10,432.1,392.5)" />
<use xlink:href="#f0_29" transform="matrix(10,0,0,10,438.4,392.5)" />
<use xlink:href="#f0_21" transform="matrix(10,0,0,10,450.1,392.5)" />
<use xlink:href="#f0_2a" transform="matrix(10,0,0,10,456.4,392.5)" />
<use xlink:href="#f0_2g" transform="matrix(10,0,0,10,464.3,392.5)" />
<use xlink:href="#f0_15" transform="matrix(10,0,0,10,629.2,392.5)" />
<use xlink:href="#f0_28" transform="matrix(10,0,0,10,639.1,392.5)" />
<use xlink:href="#f0_21" transform="matrix(10,0,0,10,643.2,392.5)" />
<use xlink:href="#f0_1z" transform="matrix(10,0,0,10,649.8,392.5)" />
<use xlink:href="#f0_2g" transform="matrix(10,0,0,10,656.4,392.5)" />
<use xlink:href="#f0_2e" transform="matrix(10,0,0,10,661.3,392.5)" />
<use xlink:href="#f0_2b" transform="matrix(10,0,0,10,667.9,392.5)" />
<use xlink:href="#f0_2a" transform="matrix(10,0,0,10,675.5,392.5)" />
<use xlink:href="#f0_25" transform="matrix(10,0,0,10,683.7,392.5)" />
<use xlink:href="#f0_1z" transform="matrix(10,0,0,10,687.8,392.5)" />
<use xlink:href="#f0_13" transform="matrix(10,0,0,10,697.1,392.5)" />
<use xlink:href="#f0_2b" transform="matrix(10,0,0,10,708,392.5)" />
<use xlink:href="#f0_2a" transform="matrix(10,0,0,10,715.5,392.5)" />
<use xlink:href="#f0_22" transform="matrix(10,0,0,10,723.7,392.5)" />
<use xlink:href="#f0_25" transform="matrix(10,0,0,10,728.7,392.5)" />
<use xlink:href="#f0_23" transform="matrix(10,0,0,10,732.7,392.5)" />
<use xlink:href="#f1_l" transform="matrix(10,0,0,10,212.1,430.3)" />
<use xlink:href="#f1_18" transform="matrix(10,0,0,10,444,430.3)" />
<use xlink:href="#f1_l" transform="matrix(10,0,0,10,652.1,430.3)" />
<use xlink:href="#f1_2f" transform="matrix(10,0,0,10,660,430.3)" />
<use xlink:href="#f1_l" transform="matrix(5.8,0,0,5.8,666.1,425.2)" />
<use xlink:href="#f1_m" transform="matrix(10,0,0,10,212.1,460.5)" />
<use xlink:href="#f1_18" transform="matrix(10,0,0,10,444,460.5)" />
<use xlink:href="#f1_21" transform="matrix(10,0,0,10,454.5,460.5)" />
<use xlink:href="#f1_l" transform="matrix(10,0,0,10,652.1,460.5)" />
<use xlink:href="#f1_2f" transform="matrix(10,0,0,10,660,460.5)" />
<use xlink:href="#f1_m" transform="matrix(5.8,0,0,5.8,666.1,455.4)" />
<use xlink:href="#f1_n" transform="matrix(10,0,0,10,212.1,490.8)" />
<use xlink:href="#f1_1c" transform="matrix(10,0,0,10,444,490.8)" />
<use xlink:href="#f1_25" transform="matrix(10,0,0,10,451.4,490.8)" />
<use xlink:href="#f1_1r" transform="matrix(10,0,0,10,652.1,490.8)" />
<use xlink:href="#f1_18" transform="matrix(10,0,0,10,657.1,490.8)" />
<use xlink:href="#f1_21" transform="matrix(10,0,0,10,667.7,490.8)" />
<use xlink:href="#f1_1t" transform="matrix(10,0,0,10,674.3,490.8)" />
<use xlink:href="#f1_m" transform="matrix(10,0,0,10,681.9,490.8)" />
<use xlink:href="#f1_2f" transform="matrix(10,0,0,10,689.2,490.8)" />
<use xlink:href="#f1_l" transform="matrix(10,0,0,10,694.9,483.1)" />
<use xlink:href="#f1_o" transform="matrix(10,0,0,10,212.1,521)" />
<use xlink:href="#f1_12" transform="matrix(10,0,0,10,444,521)" />
<use xlink:href="#f1_21" transform="matrix(10,0,0,10,453.4,521)" />
<use xlink:href="#f1_1r" transform="matrix(10,0,0,10,652.1,521)" />
<use xlink:href="#f1_18" transform="matrix(10,0,0,10,657.1,521)" />
<use xlink:href="#f1_21" transform="matrix(10,0,0,10,667.7,521)" />
<use xlink:href="#f1_1t" transform="matrix(10,0,0,10,674.3,521)" />
<use xlink:href="#f1_m" transform="matrix(10,0,0,10,681.9,521)" />
<use xlink:href="#f1_2f" transform="matrix(10,0,0,10,689.2,521)" />
<use xlink:href="#f1_m" transform="matrix(10,0,0,10,694.9,513.3)" />
<use xlink:href="#f1_p" transform="matrix(10,0,0,10,212.1,551.3)" />
<use xlink:href="#f1_12" transform="matrix(10,0,0,10,444,551.3)" />
<use xlink:href="#f1_1r" transform="matrix(10,0,0,10,652.1,551.3)" />
<use xlink:href="#f1_18" transform="matrix(10,0,0,10,657.1,551.3)" />
<use xlink:href="#f1_21" transform="matrix(10,0,0,10,667.9,551.3)" />
<use xlink:href="#f1_1t" transform="matrix(10,0,0,10,674.5,551.3)" />
<use xlink:href="#f1_m" transform="matrix(10,0,0,10,682.1,551.3)" />
<use xlink:href="#f1_2f" transform="matrix(10,0,0,10,689.6,551.3)" />
<use xlink:href="#f1_m" transform="matrix(10,0,0,10,695.2,543.6)" />
<use xlink:href="#f1_m" transform="matrix(10,0,0,10,705.3,551.3)" />
<use xlink:href="#f1_2c" transform="matrix(10,0,0,10,712.6,551.3)" />
<use xlink:href="#f1_l" transform="matrix(10,0,0,10,720.2,543.6)" />
<use xlink:href="#f1_q" transform="matrix(10,0,0,10,212.1,581.6)" />
<use xlink:href="#f1_13" transform="matrix(10,0,0,10,444,581.6)" />
<use xlink:href="#f1_1r" transform="matrix(10,0,0,10,652.1,581.6)" />
<use xlink:href="#f1_18" transform="matrix(10,0,0,10,657.1,581.6)" />
<use xlink:href="#f1_21" transform="matrix(10,0,0,10,667.9,581.6)" />
<use xlink:href="#f1_1t" transform="matrix(10,0,0,10,674.5,581.6)" />
<use xlink:href="#f1_m" transform="matrix(10,0,0,10,682.1,581.6)" />
<use xlink:href="#f1_2f" transform="matrix(10,0,0,10,689.6,581.6)" />
<use xlink:href="#f1_m" transform="matrix(10,0,0,10,695.2,573.8)" />
<use xlink:href="#f1_m" transform="matrix(10,0,0,10,705.3,581.6)" />
<use xlink:href="#f1_2c" transform="matrix(10,0,0,10,712.6,581.6)" />
<use xlink:href="#f1_m" transform="matrix(10,0,0,10,720.2,573.8)" />
<use xlink:href="#f1_r" transform="matrix(10,0,0,10,212.1,611.8)" />
<use xlink:href="#f1_1e" transform="matrix(10,0,0,10,444,611.8)" />
<use xlink:href="#f1_1r" transform="matrix(10,0,0,10,652.1,611.8)" />
<use xlink:href="#f1_18" transform="matrix(10,0,0,10,657.1,611.8)" />
<use xlink:href="#f1_21" transform="matrix(10,0,0,10,667.9,611.8)" />
<use xlink:href="#f1_1t" transform="matrix(10,0,0,10,674.5,611.8)" />
<use xlink:href="#f1_m" transform="matrix(10,0,0,10,682.1,611.8)" />
<use xlink:href="#f1_2f" transform="matrix(10,0,0,10,689.6,611.8)" />
<use xlink:href="#f1_m" transform="matrix(10,0,0,10,695.2,604.1)" />
<use xlink:href="#f1_m" transform="matrix(10,0,0,10,705.3,611.8)" />
<use xlink:href="#f1_2c" transform="matrix(10,0,0,10,712.6,611.8)" />
<use xlink:href="#f1_n" transform="matrix(10,0,0,10,720.2,604.1)" />
<use xlink:href="#f1_s" transform="matrix(10,0,0,10,212.1,642.1)" />
<use xlink:href="#f1_1f" transform="matrix(10,0,0,10,444,642.1)" />
<use xlink:href="#f1_1r" transform="matrix(10,0,0,10,652.1,642.1)" />
<use xlink:href="#f1_18" transform="matrix(10,0,0,10,657.1,642.1)" />
<use xlink:href="#f1_21" transform="matrix(10,0,0,10,667.9,642.1)" />
<use xlink:href="#f1_1t" transform="matrix(10,0,0,10,674.5,642.1)" />
<use xlink:href="#f1_m" transform="matrix(10,0,0,10,682.1,642.1)" />
<use xlink:href="#f1_2f" transform="matrix(10,0,0,10,689.6,642.1)" />
<use xlink:href="#f1_m" transform="matrix(10,0,0,10,695.2,634.4)" />
<use xlink:href="#f1_m" transform="matrix(10,0,0,10,705.3,642.1)" />
<use xlink:href="#f1_2c" transform="matrix(10,0,0,10,712.6,642.1)" />
<use xlink:href="#f1_o" transform="matrix(10,0,0,10,720.2,634.4)" />
<use xlink:href="#f1_t" transform="matrix(10,0,0,10,212.1,672.3)" />
<use xlink:href="#f1_16" transform="matrix(10,0,0,10,444,672.3)" />
<use xlink:href="#f1_1r" transform="matrix(10,0,0,10,652.1,672.3)" />
<use xlink:href="#f1_18" transform="matrix(10,0,0,10,657.1,672.3)" />
<use xlink:href="#f1_21" transform="matrix(10,0,0,10,667.9,672.3)" />
<use xlink:href="#f1_1t" transform="matrix(10,0,0,10,674.5,672.3)" />
<use xlink:href="#f1_m" transform="matrix(10,0,0,10,682.1,672.3)" />
<use xlink:href="#f1_2f" transform="matrix(10,0,0,10,689.6,672.3)" />
<use xlink:href="#f1_m" transform="matrix(10,0,0,10,695.2,664.6)" />
<use xlink:href="#f1_m" transform="matrix(10,0,0,10,705.3,672.3)" />
<use xlink:href="#f1_2c" transform="matrix(10,0,0,10,712.6,672.3)" />
<use xlink:href="#f1_p" transform="matrix(10,0,0,10,720.2,664.6)" />
<use xlink:href="#f1_l" transform="matrix(10,0,0,10,208.6,702.7)" />
<use xlink:href="#f1_k" transform="matrix(10,0,0,10,214.7,702.7)" />
<use xlink:href="#f1_1e" transform="matrix(10,0,0,10,444,702.7)" />
<use xlink:href="#f1_21" transform="matrix(10,0,0,10,454.5,702.7)" />
<use xlink:href="#f1_1r" transform="matrix(10,0,0,10,652.1,702.7)" />
<use xlink:href="#f1_18" transform="matrix(10,0,0,10,657.1,702.7)" />
<use xlink:href="#f1_21" transform="matrix(10,0,0,10,667.9,702.7)" />
<use xlink:href="#f1_1t" transform="matrix(10,0,0,10,674.5,702.7)" />
<use xlink:href="#f1_m" transform="matrix(10,0,0,10,682.1,702.7)" />
<use xlink:href="#f1_2f" transform="matrix(10,0,0,10,689.6,702.7)" />
<use xlink:href="#f1_m" transform="matrix(10,0,0,10,695.2,695)" />
<use xlink:href="#f1_m" transform="matrix(10,0,0,10,705.3,702.7)" />
<use xlink:href="#f1_2c" transform="matrix(10,0,0,10,712.6,702.7)" />
<use xlink:href="#f1_q" transform="matrix(10,0,0,10,720.2,695)" />
<use xlink:href="#f1_l" transform="matrix(10,0,0,10,208.6,733)" />
<use xlink:href="#f1_l" transform="matrix(10,0,0,10,214.7,733)" />
<use xlink:href="#f1_1e" transform="matrix(10,0,0,10,444,733)" />
<use xlink:href="#f1_1x" transform="matrix(10,0,0,10,454.5,733)" />
<use xlink:href="#f1_1r" transform="matrix(10,0,0,10,652.1,733)" />
<use xlink:href="#f1_1e" transform="matrix(10,0,0,10,657.1,733)" />
<use xlink:href="#f1_21" transform="matrix(10,0,0,10,667.7,733)" />
<use xlink:href="#f1_1t" transform="matrix(10,0,0,10,674.3,733)" />
<use xlink:href="#f1_n" transform="matrix(10,0,0,10,681.9,733)" />
<use xlink:href="#f1_2f" transform="matrix(10,0,0,10,689.2,733)" />
<use xlink:href="#f1_l" transform="matrix(10,0,0,10,694.9,725.3)" />
<use xlink:href="#f1_l" transform="matrix(10,0,0,10,208.6,763.2)" />
<use xlink:href="#f1_m" transform="matrix(10,0,0,10,214.7,763.2)" />
<use xlink:href="#f1_1d" transform="matrix(10,0,0,10,444,763.2)" />
<use xlink:href="#f1_23" transform="matrix(10,0,0,10,458.3,763.2)" />
<use xlink:href="#f1_1r" transform="matrix(10,0,0,10,652.1,763.2)" />
<use xlink:href="#f1_1e" transform="matrix(10,0,0,10,657.1,763.2)" />
<use xlink:href="#f1_21" transform="matrix(10,0,0,10,667.7,763.2)" />
<use xlink:href="#f1_1t" transform="matrix(10,0,0,10,674.3,763.2)" />
<use xlink:href="#f1_n" transform="matrix(10,0,0,10,681.9,763.2)" />
<use xlink:href="#f1_2f" transform="matrix(10,0,0,10,689.2,763.2)" />
<use xlink:href="#f1_m" transform="matrix(10,0,0,10,694.9,755.5)" />
<use xlink:href="#f1_l" transform="matrix(10,0,0,10,208.6,793.5)" />
<use xlink:href="#f1_n" transform="matrix(10,0,0,10,214.7,793.5)" />
<use xlink:href="#f1_11" transform="matrix(10,0,0,10,444,793.5)" />
<use xlink:href="#f1_28" transform="matrix(10,0,0,10,454.7,793.5)" />
<use xlink:href="#f1_1r" transform="matrix(10,0,0,10,652.1,793.5)" />
<use xlink:href="#f1_1e" transform="matrix(10,0,0,10,657.1,793.5)" />
<use xlink:href="#f1_21" transform="matrix(10,0,0,10,667.9,793.5)" />
<use xlink:href="#f1_1t" transform="matrix(10,0,0,10,674.5,793.5)" />
<use xlink:href="#f1_n" transform="matrix(10,0,0,10,682.1,793.5)" />
<use xlink:href="#f1_2f" transform="matrix(10,0,0,10,689.6,793.5)" />
<use xlink:href="#f1_m" transform="matrix(10,0,0,10,695.2,785.8)" />
<use xlink:href="#f1_n" transform="matrix(10,0,0,10,705.3,793.5)" />
<use xlink:href="#f1_2c" transform="matrix(10,0,0,10,712.6,793.5)" />
<use xlink:href="#f1_l" transform="matrix(10,0,0,10,720.2,785.8)" />
<use xlink:href="#f1_l" transform="matrix(10,0,0,10,208.6,823.8)" />
<use xlink:href="#f1_o" transform="matrix(10,0,0,10,214.7,823.8)" />
<use xlink:href="#f1_1j" transform="matrix(10,0,0,10,444,823.8)" />
<use xlink:href="#f1_25" transform="matrix(10,0,0,10,451.4,823.8)" />
<use xlink:href="#f1_1r" transform="matrix(10,0,0,10,652.1,823.8)" />
<use xlink:href="#f1_1e" transform="matrix(10,0,0,10,657.1,823.8)" />
<use xlink:href="#f1_21" transform="matrix(10,0,0,10,667.9,823.8)" />
<use xlink:href="#f1_1t" transform="matrix(10,0,0,10,674.5,823.8)" />
<use xlink:href="#f1_n" transform="matrix(10,0,0,10,682.1,823.8)" />
<use xlink:href="#f1_2f" transform="matrix(10,0,0,10,689.6,823.8)" />
<use xlink:href="#f1_m" transform="matrix(10,0,0,10,695.2,816.1)" />
<use xlink:href="#f1_n" transform="matrix(10,0,0,10,705.3,823.8)" />
<use xlink:href="#f1_2c" transform="matrix(10,0,0,10,712.6,823.8)" />
<use xlink:href="#f1_m" transform="matrix(10,0,0,10,720.2,816.1)" />
<use xlink:href="#f1_l" transform="matrix(10,0,0,10,208.6,854)" />
<use xlink:href="#f1_p" transform="matrix(10,0,0,10,214.7,854)" />
<use xlink:href="#f1_1g" transform="matrix(10,0,0,10,444,854)" />
<use xlink:href="#f1_1r" transform="matrix(10,0,0,10,652.1,854)" />
<use xlink:href="#f1_1e" transform="matrix(10,0,0,10,657.1,854)" />
<use xlink:href="#f1_21" transform="matrix(10,0,0,10,667.9,854)" />
<use xlink:href="#f1_1t" transform="matrix(10,0,0,10,674.5,854)" />
<use xlink:href="#f1_n" transform="matrix(10,0,0,10,682.1,854)" />
<use xlink:href="#f1_2f" transform="matrix(10,0,0,10,689.6,854)" />
<use xlink:href="#f1_m" transform="matrix(10,0,0,10,695.2,846.3)" />
<use xlink:href="#f1_n" transform="matrix(10,0,0,10,705.3,854)" />
<use xlink:href="#f1_2c" transform="matrix(10,0,0,10,712.6,854)" />
<use xlink:href="#f1_n" transform="matrix(10,0,0,10,720.2,846.3)" />
<use xlink:href="#f1_l" transform="matrix(10,0,0,10,208.6,884.3)" />
<use xlink:href="#f1_q" transform="matrix(10,0,0,10,214.7,884.3)" />
<use xlink:href="#f1_1j" transform="matrix(10,0,0,10,444,884.3)" />
<use xlink:href="#f1_1r" transform="matrix(10,0,0,10,652.1,884.3)" />
<use xlink:href="#f1_1e" transform="matrix(10,0,0,10,657.1,884.3)" />
<use xlink:href="#f1_21" transform="matrix(10,0,0,10,667.9,884.3)" />
<use xlink:href="#f1_1t" transform="matrix(10,0,0,10,674.5,884.3)" />
<use xlink:href="#f1_n" transform="matrix(10,0,0,10,682.1,884.3)" />
<use xlink:href="#f1_2f" transform="matrix(10,0,0,10,689.6,884.3)" />
<use xlink:href="#f1_m" transform="matrix(10,0,0,10,695.2,876.6)" />
<use xlink:href="#f1_n" transform="matrix(10,0,0,10,705.3,884.3)" />
<use xlink:href="#f1_2c" transform="matrix(10,0,0,10,712.6,884.3)" />
<use xlink:href="#f1_o" transform="matrix(10,0,0,10,720.2,876.6)" />
<use xlink:href="#f1_l" transform="matrix(10,0,0,10,208.6,914.5)" />
<use xlink:href="#f1_r" transform="matrix(10,0,0,10,214.7,914.5)" />
<use xlink:href="#f1_13" transform="matrix(10,0,0,10,444,914.5)" />
<use xlink:href="#f1_28" transform="matrix(10,0,0,10,452.5,914.5)" />
<use xlink:href="#f1_1r" transform="matrix(10,0,0,10,652.1,914.5)" />
<use xlink:href="#f1_1e" transform="matrix(10,0,0,10,657.1,914.5)" />
<use xlink:href="#f1_21" transform="matrix(10,0,0,10,667.9,914.5)" />
<use xlink:href="#f1_1t" transform="matrix(10,0,0,10,674.5,914.5)" />
<use xlink:href="#f1_n" transform="matrix(10,0,0,10,682.1,914.5)" />
<use xlink:href="#f1_2f" transform="matrix(10,0,0,10,689.6,914.5)" />
<use xlink:href="#f1_m" transform="matrix(10,0,0,10,695.2,906.8)" />
<use xlink:href="#f1_n" transform="matrix(10,0,0,10,705.3,914.5)" />
<use xlink:href="#f1_2c" transform="matrix(10,0,0,10,712.6,914.5)" />
<use xlink:href="#f1_p" transform="matrix(10,0,0,10,720.2,906.8)" />
<use xlink:href="#f1_l" transform="matrix(10,0,0,10,208.6,944.8)" />
<use xlink:href="#f1_s" transform="matrix(10,0,0,10,214.7,944.8)" />
<use xlink:href="#f1_11" transform="matrix(10,0,0,10,444,944.8)" />
<use xlink:href="#f1_2e" transform="matrix(10,0,0,10,455,944.8)" />
<use xlink:href="#f1_1r" transform="matrix(10,0,0,10,652.1,944.8)" />
<use xlink:href="#f1_1e" transform="matrix(10,0,0,10,657.1,944.8)" />
<use xlink:href="#f1_21" transform="matrix(10,0,0,10,667.9,944.8)" />
<use xlink:href="#f1_1t" transform="matrix(10,0,0,10,674.5,944.8)" />
<use xlink:href="#f1_n" transform="matrix(10,0,0,10,682.1,944.8)" />
<use xlink:href="#f1_2f" transform="matrix(10,0,0,10,689.6,944.8)" />
<use xlink:href="#f1_m" transform="matrix(10,0,0,10,695.2,937.1)" />
<use xlink:href="#f1_n" transform="matrix(10,0,0,10,705.3,944.8)" />
<use xlink:href="#f1_2c" transform="matrix(10,0,0,10,712.6,944.8)" />
<use xlink:href="#f1_q" transform="matrix(10,0,0,10,720.2,937.1)" />
<use xlink:href="#f1_l" transform="matrix(10,0,0,10,208.6,975)" />
<use xlink:href="#f1_t" transform="matrix(10,0,0,10,214.7,975)" />
<use xlink:href="#f1_1b" transform="matrix(10,0,0,10,444,975)" />
<use xlink:href="#f1_1r" transform="matrix(10,0,0,10,652.1,975)" />
<use xlink:href="#f1_11" transform="matrix(10,0,0,10,657.1,975)" />
<use xlink:href="#f1_2e" transform="matrix(10,0,0,10,667.7,975)" />
<use xlink:href="#f1_1t" transform="matrix(10,0,0,10,672.7,975)" />
<use xlink:href="#f1_o" transform="matrix(10,0,0,10,680.6,975)" />
<use xlink:href="#f1_2f" transform="matrix(10,0,0,10,688.1,975)" />
<use xlink:href="#f1_l" transform="matrix(10,0,0,10,693.8,967.3)" />
<use xlink:href="#f1_m" transform="matrix(10,0,0,10,208.6,1005.3)" />
<use xlink:href="#f1_k" transform="matrix(10,0,0,10,214.7,1005.3)" />
<use xlink:href="#f1_13" transform="matrix(10,0,0,10,444,1005.3)" />
<use xlink:href="#f1_1x" transform="matrix(10,0,0,10,453.4,1005.3)" />
<use xlink:href="#f1_1r" transform="matrix(10,0,0,10,652.1,1005.3)" />
<use xlink:href="#f1_11" transform="matrix(10,0,0,10,657.1,1005.3)" />
<use xlink:href="#f1_2e" transform="matrix(10,0,0,10,667.7,1005.3)" />
<use xlink:href="#f1_1t" transform="matrix(10,0,0,10,672.7,1005.3)" />
<use xlink:href="#f1_o" transform="matrix(10,0,0,10,680.6,1005.3)" />
<use xlink:href="#f1_2f" transform="matrix(10,0,0,10,688.1,1005.3)" />
<use xlink:href="#f1_m" transform="matrix(10,0,0,10,693.8,997.6)" />
<use xlink:href="#f1_m" transform="matrix(10,0,0,10,208.6,1035.5)" />
<use xlink:href="#f1_l" transform="matrix(10,0,0,10,214.7,1035.5)" />
<use xlink:href="#f1_1j" transform="matrix(10,0,0,10,444,1035.5)" />
<use xlink:href="#f1_1z" transform="matrix(10,0,0,10,452.1,1035.5)" />
<use xlink:href="#f1_1r" transform="matrix(10,0,0,10,652.1,1035.5)" />
<use xlink:href="#f1_11" transform="matrix(10,0,0,10,657.1,1035.5)" />
<use xlink:href="#f1_2e" transform="matrix(10,0,0,10,667.7,1035.5)" />
<use xlink:href="#f1_1t" transform="matrix(10,0,0,10,672.7,1035.5)" />
<use xlink:href="#f1_n" transform="matrix(10,0,0,10,680.6,1035.5)" />
<use xlink:href="#f1_20" transform="matrix(10,0,0,10,688.1,1035.5)" />
<use xlink:href="#f1_l" transform="matrix(10,0,0,10,695.6,1027.8)" />
<use xlink:href="#f1_o" transform="matrix(10,0,0,10,705.9,1035.5)" />
<use xlink:href="#f1_2f" transform="matrix(10,0,0,10,713.2,1035.5)" />
<use xlink:href="#f1_m" transform="matrix(10,0,0,10,718.9,1027.8)" />
<use xlink:href="#f1_m" transform="matrix(10,0,0,10,208.6,1065.8)" />
<use xlink:href="#f1_m" transform="matrix(10,0,0,10,214.7,1065.8)" />
<use xlink:href="#f1_1k" transform="matrix(10,0,0,10,444,1065.8)" />
<use xlink:href="#f1_25" transform="matrix(10,0,0,10,452.5,1065.8)" />
<use xlink:href="#f1_1r" transform="matrix(10,0,0,10,652.1,1065.8)" />
<use xlink:href="#f1_11" transform="matrix(10,0,0,10,657.1,1065.8)" />
<use xlink:href="#f1_2e" transform="matrix(10,0,0,10,667.7,1065.8)" />
<use xlink:href="#f1_1t" transform="matrix(10,0,0,10,672.7,1065.8)" />
<use xlink:href="#f1_n" transform="matrix(10,0,0,10,680.6,1065.8)" />
<use xlink:href="#f1_20" transform="matrix(10,0,0,10,688.1,1065.8)" />
<use xlink:href="#f1_m" transform="matrix(10,0,0,10,695.6,1058.1)" />
<use xlink:href="#f1_o" transform="matrix(10,0,0,10,705.9,1065.8)" />
<use xlink:href="#f1_2f" transform="matrix(10,0,0,10,713.2,1065.8)" />
<use xlink:href="#f1_m" transform="matrix(10,0,0,10,718.9,1058.1)" />
<use xlink:href="#f1_m" transform="matrix(10,0,0,10,208.6,1096)" />
<use xlink:href="#f1_n" transform="matrix(10,0,0,10,214.7,1096)" />
<use xlink:href="#f1_1m" transform="matrix(10,0,0,10,444,1096)" />
<use xlink:href="#f1_1r" transform="matrix(10,0,0,10,652.1,1096)" />
<use xlink:href="#f1_11" transform="matrix(10,0,0,10,657.1,1096)" />
<use xlink:href="#f1_2e" transform="matrix(10,0,0,10,667.7,1096)" />
<use xlink:href="#f1_1t" transform="matrix(10,0,0,10,672.7,1096)" />
<use xlink:href="#f1_n" transform="matrix(10,0,0,10,680.6,1096)" />
<use xlink:href="#f1_20" transform="matrix(10,0,0,10,688.1,1096)" />
<use xlink:href="#f1_n" transform="matrix(10,0,0,10,695.6,1088.3)" />
<use xlink:href="#f1_o" transform="matrix(10,0,0,10,705.9,1096)" />
<use xlink:href="#f1_2f" transform="matrix(10,0,0,10,713.2,1096)" />
<use xlink:href="#f1_m" transform="matrix(10,0,0,10,718.9,1088.3)" />
</g>
<path fill-rule="evenodd" d="M163.9,367.9H783.6v758.9H163.9V367.9l1.5,757.4H781.9V369.4H165.4v755.9L163.9,367.9Z" class="g0_28" />
<path fill-rule="evenodd" d="M164.8,409.2H783.6v1.5H164.8v-1.5Z" class="g0_28" />
<path fill-rule="evenodd" d="M311.7,1125.5v-757h1.6v757h-1.6Z" class="g0_28" />
<path fill-rule="evenodd" d="M557.5,1125.5V369.4h1.7v756.1h-1.7Z" class="g0_28" />
<g fill="#000000" >
<use xlink:href="#f0_c" transform="matrix(10,0,0,10,478.5,162.4)" />
<use xlink:href="#f0_n" transform="matrix(10,0,0,10,483.3,162.4)" />
<use xlink:href="#f0_d" transform="matrix(10,0,0,10,490.6,162.4)" />
<use xlink:href="#f2_18" transform="matrix(10,0,0,10,509.3,162.4)" />
<use xlink:href="#f2_2h" transform="matrix(10,0,0,10,521.2,162.4)" />
<use xlink:href="#f2_2a" transform="matrix(10,0,0,10,529.6,162.4)" />
<use xlink:href="#f2_20" transform="matrix(10,0,0,10,538.1,162.4)" />
<use xlink:href="#f2_1k5" transform="matrix(10,0,0,10,546.5,162.4)" />
<use xlink:href="#f2_2f" transform="matrix(10,0,0,10,551.7,162.4)" />
<use xlink:href="#f2_2e" transform="matrix(10,0,0,10,560.3,162.4)" />
<use xlink:href="#f2_2h" transform="matrix(10,0,0,10,567.1,162.4)" />
<use xlink:href="#f2_28" transform="matrix(10,0,0,10,575.5,162.4)" />
<use xlink:href="#f2_21" transform="matrix(10,0,0,10,579.7,162.4)" />
<use xlink:href="#f2_2b" transform="matrix(10,0,0,10,589.2,162.4)" />
<use xlink:href="#f2_22" transform="matrix(10,0,0,10,596.9,162.4)" />
<use xlink:href="#f2_29" transform="matrix(10,0,0,10,605,162.4)" />
<use xlink:href="#f2_1x" transform="matrix(10,0,0,10,617.3,162.4)" />
<use xlink:href="#f2_2k" transform="matrix(10,0,0,10,625,162.4)" />
<use xlink:href="#f2_25" transform="matrix(10,0,0,10,632.3,162.4)" />
<use xlink:href="#f2_29" transform="matrix(10,0,0,10,636.5,162.4)" />
<use xlink:href="#f2_2h" transform="matrix(10,0,0,10,648.8,162.4)" />
<use xlink:href="#f2_29" transform="matrix(10,0,0,10,657.3,162.4)" />
<use xlink:href="#f2_29" transform="matrix(10,0,0,10,672.5,162.4)" />
<use xlink:href="#f2_2h" transform="matrix(10,0,0,10,684.8,162.4)" />
<use xlink:href="#f2_28" transform="matrix(10,0,0,10,693.3,162.4)" />
<use xlink:href="#f2_2g" transform="matrix(10,0,0,10,697.5,162.4)" />
<use xlink:href="#f2_25" transform="matrix(10,0,0,10,702.6,162.4)" />
<use xlink:href="#f2_2c" transform="matrix(10,0,0,10,706.8,162.4)" />
<use xlink:href="#f2_28" transform="matrix(10,0,0,10,715.3,162.4)" />
<use xlink:href="#f2_25" transform="matrix(10,0,0,10,719.3,162.4)" />
<use xlink:href="#f2_1z" transform="matrix(10,0,0,10,723.5,162.4)" />
<use xlink:href="#f2_25" transform="matrix(10,0,0,10,730.3,162.4)" />
<use xlink:href="#f2_2g" transform="matrix(10,0,0,10,734.5,162.4)" />
<use xlink:href="#f2_2l" transform="matrix(10,0,0,10,739.6,162.4)" />
<use xlink:href="#f2_u" transform="matrix(10,0,0,10,747.3,162.4)" />
<use xlink:href="#f1_15" transform="matrix(10,0,0,10,755.3,162.4)" />
<use xlink:href="#f1_28" transform="matrix(10,0,0,10,764.7,162.4)" />
<use xlink:href="#f1_21" transform="matrix(10,0,0,10,768.9,162.4)" />
<use xlink:href="#f1_1z" transform="matrix(10,0,0,10,775.7,162.4)" />
<use xlink:href="#f1_2g" transform="matrix(10,0,0,10,782.3,162.4)" />
<use xlink:href="#f1_2e" transform="matrix(10,0,0,10,786.5,162.4)" />
<use xlink:href="#f1_2b" transform="matrix(10,0,0,10,791.7,162.4)" />
<use xlink:href="#f1_2a" transform="matrix(10,0,0,10,799.4,162.4)" />
<use xlink:href="#f1_2c" transform="matrix(10,0,0,10,809.6,162.4)" />
<use xlink:href="#f1_1x" transform="matrix(10,0,0,10,817.3,162.4)" />
<use xlink:href="#f1_25" transform="matrix(10,0,0,10,824.1,162.4)" />
<use xlink:href="#f1_2e" transform="matrix(10,0,0,10,828.3,162.4)" />
<use xlink:href="#f1_25" transform="matrix(10,0,0,10,833.5,162.4)" />
<use xlink:href="#f1_2a" transform="matrix(10,0,0,10,837.5,162.4)" />
<use xlink:href="#f1_23" transform="matrix(10,0,0,10,845,162.4)" />
<use xlink:href="#f1_25" transform="matrix(10,0,0,10,855.5,162.4)" />
<use xlink:href="#f1_2a" transform="matrix(10,0,0,10,859.7,162.4)" />
<use xlink:href="#f1_2c" transform="matrix(10,0,0,10,509.3,180.8)" />
<use xlink:href="#f1_g" transform="matrix(10,0,0,10,517,180.8)" />
<use xlink:href="#f1_20" transform="matrix(10,0,0,10,521,180.8)" />
<use xlink:href="#f1_1x" transform="matrix(10,0,0,10,532.4,180.8)" />
<use xlink:href="#f1_2a" transform="matrix(10,0,0,10,539.2,180.8)" />
<use xlink:href="#f1_20" transform="matrix(10,0,0,10,546.7,180.8)" />
<use xlink:href="#f1_22" transform="matrix(10,0,0,10,558.1,180.8)" />
<use xlink:href="#f1_2b" transform="matrix(10,0,0,10,566.7,180.8)" />
<use xlink:href="#f1_2e" transform="matrix(10,0,0,10,574.6,180.8)" />
<use xlink:href="#f1_1y" transform="matrix(10,0,0,10,579.7,180.8)" />
<use xlink:href="#f1_25" transform="matrix(10,0,0,10,587.4,180.8)" />
<use xlink:href="#f1_2g" transform="matrix(10,0,0,10,591.8,180.8)" />
<use xlink:href="#f1_1x" transform="matrix(10,0,0,10,596,180.8)" />
<use xlink:href="#f1_28" transform="matrix(10,0,0,10,603,180.8)" />
<use xlink:href="#f1_2f" transform="matrix(10,0,0,10,607.2,180.8)" />
<use xlink:href="#f1_1z" transform="matrix(10,0,0,10,616.7,180.8)" />
<use xlink:href="#f1_1x" transform="matrix(10,0,0,10,623.5,180.8)" />
<use xlink:href="#f1_2a" transform="matrix(10,0,0,10,630.5,180.8)" />
<use xlink:href="#f1_2a" transform="matrix(10,0,0,10,638,180.8)" />
<use xlink:href="#f1_2b" transform="matrix(10,0,0,10,645.7,180.8)" />
<use xlink:href="#f1_2g" transform="matrix(10,0,0,10,653.4,180.8)" />
<use xlink:href="#f1_2b" transform="matrix(10,0,0,10,661.3,180.8)" />
<use xlink:href="#f1_1z" transform="matrix(10,0,0,10,669,180.8)" />
<use xlink:href="#f1_1z" transform="matrix(10,0,0,10,675.9,180.8)" />
<use xlink:href="#f1_2h" transform="matrix(10,0,0,10,682.7,180.8)" />
<use xlink:href="#f1_2e" transform="matrix(10,0,0,10,690.2,180.8)" />
<use xlink:href="#f1_2h" transform="matrix(10,0,0,10,699,180.8)" />
<use xlink:href="#f1_2a" transform="matrix(10,0,0,10,706.7,180.8)" />
<use xlink:href="#f1_2g" transform="matrix(10,0,0,10,714.2,180.8)" />
<use xlink:href="#f1_25" transform="matrix(10,0,0,10,718.6,180.8)" />
<use xlink:href="#f1_28" transform="matrix(10,0,0,10,722.9,180.8)" />
<use xlink:href="#f1_21" transform="matrix(10,0,0,10,730.8,180.8)" />
<use xlink:href="#f1_1x" transform="matrix(10,0,0,10,737.5,180.8)" />
<use xlink:href="#f1_1z" transform="matrix(10,0,0,10,744.5,180.8)" />
<use xlink:href="#f1_24" transform="matrix(10,0,0,10,751.3,180.8)" />
<use xlink:href="#f1_2b" transform="matrix(10,0,0,10,762.5,180.8)" />
<use xlink:href="#f1_2e" transform="matrix(10,0,0,10,770.2,180.8)" />
<use xlink:href="#f1_1y" transform="matrix(10,0,0,10,775.5,180.8)" />
<use xlink:href="#f1_25" transform="matrix(10,0,0,10,783.2,180.8)" />
<use xlink:href="#f1_2g" transform="matrix(10,0,0,10,787.6,180.8)" />
<use xlink:href="#f1_1x" transform="matrix(10,0,0,10,791.8,180.8)" />
<use xlink:href="#f1_28" transform="matrix(10,0,0,10,798.6,180.8)" />
<use xlink:href="#f1_2b" transform="matrix(10,0,0,10,806.4,180.8)" />
<use xlink:href="#f1_22" transform="matrix(10,0,0,10,814.3,180.8)" />
<use xlink:href="#f1_1x" transform="matrix(10,0,0,10,822.8,180.8)" />
<use xlink:href="#f1_23" transform="matrix(10,0,0,10,833.2,180.8)" />
<use xlink:href="#f1_25" transform="matrix(10,0,0,10,840.9,180.8)" />
<use xlink:href="#f1_2i" transform="matrix(10,0,0,10,845.1,180.8)" />
<use xlink:href="#f1_21" transform="matrix(10,0,0,10,852.8,180.8)" />
<use xlink:href="#f1_2a" transform="matrix(10,0,0,10,859.6,180.8)" />
<use xlink:href="#f1_2f" transform="matrix(10,0,0,10,509.3,199.1)" />
<use xlink:href="#f1_2h" transform="matrix(10,0,0,10,515.3,199.1)" />
<use xlink:href="#f1_1y" transform="matrix(10,0,0,10,523,199.1)" />
<use xlink:href="#f1_2f" transform="matrix(10,0,0,10,530.9,199.1)" />
<use xlink:href="#f1_24" transform="matrix(10,0,0,10,537,199.1)" />
<use xlink:href="#f1_21" transform="matrix(10,0,0,10,544.7,199.1)" />
<use xlink:href="#f1_28" transform="matrix(10,0,0,10,551.6,199.1)" />
<use xlink:href="#f1_28" transform="matrix(10,0,0,10,556,199.1)" />
<use xlink:href="#f1_1z" transform="matrix(10,0,0,10,566.3,199.1)" />
<use xlink:href="#f1_2b" transform="matrix(10,0,0,10,573.2,199.1)" />
<use xlink:href="#f1_2a" transform="matrix(10,0,0,10,581.1,199.1)" />
<use xlink:href="#f1_2g" transform="matrix(10,0,0,10,588.8,199.1)" />
<use xlink:href="#f1_1x" transform="matrix(10,0,0,10,593.2,199.1)" />
<use xlink:href="#f1_25" transform="matrix(10,0,0,10,600.4,199.1)" />
<use xlink:href="#f1_2a" transform="matrix(10,0,0,10,604.8,199.1)" />
<use xlink:href="#f1_2f" transform="matrix(10,0,0,10,612.5,199.1)" />
<use xlink:href="#f1_2b" transform="matrix(10,0,0,10,624.5,199.1)" />
<use xlink:href="#f1_2a" transform="matrix(10,0,0,10,632.4,199.1)" />
<use xlink:href="#f1_21" transform="matrix(10,0,0,10,640.1,199.1)" />
<use xlink:href="#f1_21" transform="matrix(10,0,0,10,652.9,199.1)" />
<use xlink:href="#f1_28" transform="matrix(10,0,0,10,659.9,199.1)" />
<use xlink:href="#f1_21" transform="matrix(10,0,0,10,664.3,199.1)" />
<use xlink:href="#f1_1z" transform="matrix(10,0,0,10,671.2,199.1)" />
<use xlink:href="#f1_2g" transform="matrix(10,0,0,10,678.2,199.1)" />
<use xlink:href="#f1_2e" transform="matrix(10,0,0,10,682.6,199.1)" />
<use xlink:href="#f1_2b" transform="matrix(10,0,0,10,687.9,199.1)" />
<use xlink:href="#f1_2a" transform="matrix(10,0,0,10,695.8,199.1)" />
<use xlink:href="#f1_21" transform="matrix(10,0,0,10,709.5,199.1)" />
<use xlink:href="#f1_1x" transform="matrix(10,0,0,10,716.5,199.1)" />
<use xlink:href="#f1_1z" transform="matrix(10,0,0,10,723.4,199.1)" />
<use xlink:href="#f1_24" transform="matrix(10,0,0,10,730.4,199.1)" />
<use xlink:href="#f1_i" transform="matrix(10,0,0,10,738.1,199.1)" />
<use xlink:href="#f1_11" transform="matrix(10,0,0,10,747.1,199.1)" />
<use xlink:href="#f1_28" transform="matrix(10,0,0,10,758.1,199.1)" />
<use xlink:href="#f1_2f" transform="matrix(10,0,0,10,762.5,199.1)" />
<use xlink:href="#f1_2b" transform="matrix(10,0,0,10,768.5,199.1)" />
<use xlink:href="#f1_1x" transform="matrix(10,0,0,10,782.6,199.1)" />
<use xlink:href="#f1_28" transform="matrix(10,0,0,10,789.6,199.1)" />
<use xlink:href="#f1_28" transform="matrix(10,0,0,10,794,199.1)" />
<use xlink:href="#f1_2g" transform="matrix(10,0,0,10,804.2,199.1)" />
<use xlink:href="#f1_24" transform="matrix(10,0,0,10,808.6,199.1)" />
<use xlink:href="#f1_21" transform="matrix(10,0,0,10,816.3,199.1)" />
<use xlink:href="#f1_2f" transform="matrix(10,0,0,10,829.3,199.1)" />
<use xlink:href="#f1_25" transform="matrix(10,0,0,10,835.3,199.1)" />
<use xlink:href="#f1_2a" transform="matrix(10,0,0,10,839.7,199.1)" />
<use xlink:href="#f1_23" transform="matrix(10,0,0,10,847.4,199.1)" />
<use xlink:href="#f1_28" transform="matrix(10,0,0,10,855.1,199.1)" />
<use xlink:href="#f1_2l" transform="matrix(10,0,0,10,859.5,199.1)" />
<use xlink:href="#f1_2b" transform="matrix(10,0,0,10,509.3,217.4)" />
<use xlink:href="#f1_1z" transform="matrix(10,0,0,10,517,217.4)" />
<use xlink:href="#f1_1z" transform="matrix(10,0,0,10,524,217.4)" />
<use xlink:href="#f1_2h" transform="matrix(10,0,0,10,530.7,217.4)" />
<use xlink:href="#f1_2c" transform="matrix(10,0,0,10,538.4,217.4)" />
<use xlink:href="#f1_25" transform="matrix(10,0,0,10,546.1,217.4)" />
<use xlink:href="#f1_21" transform="matrix(10,0,0,10,550.4,217.4)" />
<use xlink:href="#f1_20" transform="matrix(10,0,0,10,557.3,217.4)" />
<use xlink:href="#f1_2b" transform="matrix(10,0,0,10,568.1,217.4)" />
<use xlink:href="#f1_2e" transform="matrix(10,0,0,10,575.8,217.4)" />
<use xlink:href="#f1_1y" transform="matrix(10,0,0,10,581,217.4)" />
<use xlink:href="#f1_25" transform="matrix(10,0,0,10,588.8,217.4)" />
<use xlink:href="#f1_2g" transform="matrix(10,0,0,10,593.1,217.4)" />
<use xlink:href="#f1_1x" transform="matrix(10,0,0,10,597.3,217.4)" />
<use xlink:href="#f1_28" transform="matrix(10,0,0,10,604.3,217.4)" />
<use xlink:href="#f1_2f" transform="matrix(10,0,0,10,608.5,217.4)" />
<use xlink:href="#f1_2j" transform="matrix(10,0,0,10,617.5,217.4)" />
<use xlink:href="#f1_25" transform="matrix(10,0,0,10,628.1,217.4)" />
<use xlink:href="#f1_28" transform="matrix(10,0,0,10,632.5,217.4)" />
<use xlink:href="#f1_28" transform="matrix(10,0,0,10,636.7,217.4)" />
<use xlink:href="#f1_24" transform="matrix(10,0,0,10,644.1,217.4)" />
<use xlink:href="#f1_1x" transform="matrix(10,0,0,10,651.6,217.4)" />
<use xlink:href="#f1_2i" transform="matrix(10,0,0,10,658.5,217.4)" />
<use xlink:href="#f1_21" transform="matrix(10,0,0,10,666.1,217.4)" />
<use xlink:href="#f0_2c" transform="matrix(10,0,0,10,676,217.4)" />
<use xlink:href="#f0_1x" transform="matrix(10,0,0,10,684.4,217.4)" />
<use xlink:href="#f0_2e" transform="matrix(10,0,0,10,692.3,217.4)" />
<use xlink:href="#f0_1x" transform="matrix(10,0,0,10,699.1,217.4)" />
<use xlink:href="#f0_28" transform="matrix(10,0,0,10,706.8,217.4)" />
<use xlink:href="#f0_28" transform="matrix(10,0,0,10,711.2,217.4)" />
<use xlink:href="#f0_21" transform="matrix(10,0,0,10,715.4,217.4)" />
<use xlink:href="#f0_28" transform="matrix(10,0,0,10,722.2,217.4)" />
<use xlink:href="#f0_2f" transform="matrix(10,0,0,10,729.3,217.4)" />
<use xlink:href="#f0_2c" transform="matrix(10,0,0,10,735.2,217.4)" />
<use xlink:href="#f0_25" transform="matrix(10,0,0,10,743.6,217.4)" />
<use xlink:href="#f0_2a" transform="matrix(10,0,0,10,748,217.4)" />
<use xlink:href="#f0_i" transform="matrix(10,0,0,10,756.5,217.4)" />
</g>
<path fill-rule="evenodd" d="M66.7,109.8H869v28.4H66.7V109.8l1.5,26.8H867.3V111.3H68.2v25.3L66.7,109.8Z" class="g1_28" />
<g fill="#000000" >
<use xlink:href="#f3_l" transform="matrix(10,0,0,10,682.4,128.2)" />
<use xlink:href="#f3_m" transform="matrix(10,0,0,10,692.4,128.2)" />
<use xlink:href="#f3_k" transform="matrix(10,0,0,10,703.1,128.2)" />
<use xlink:href="#f3_n" transform="matrix(10,0,0,10,715,128.2)" />
<use xlink:href="#f3_f" transform="matrix(10,0,0,10,726.2,128.2)" />
<use xlink:href="#f3_m" transform="matrix(10,0,0,10,737.4,128.2)" />
<use xlink:href="#f3_n" transform="matrix(10,0,0,10,748,128.2)" />
<use xlink:href="#f3_k" transform="matrix(10,0,0,10,759.2,128.2)" />
<use xlink:href="#f3_g" transform="matrix(10,0,0,10,771.1,128.2)" />
<use xlink:href="#f3_j" transform="matrix(10,0,0,10,786.3,128.2)" />
<use xlink:href="#f3_h" transform="matrix(10,0,0,10,798.4,128.2)" />
<use xlink:href="#f3_e" transform="matrix(10,0,0,10,813,128.2)" />
<use xlink:href="#f3_m" transform="matrix(10,0,0,10,824,128.2)" />
<use xlink:href="#f3_j" transform="matrix(10,0,0,10,834.7,128.2)" />
<use xlink:href="#f3_i" transform="matrix(10,0,0,10,846.8,128.2)" />
</g>
<path fill-rule="evenodd" d="M68,134.9H867.5V138H68v-3.1Z" class="g0_28" />
<path fill-rule="evenodd" d="M68,110H867.5v3.1H68V110Z" class="g0_28" />
<path fill-rule="evenodd" d="M68.4,1217.7H867.7v2.4H68.4v-2.4Z" class="g0_28" />
<path fill-rule="evenodd" d="M466.6,323.8V150.1h1.6V323.8h-1.6Z" class="g0_28" />
<defs>
<path d="M298,-316c0,0,-117,169,-170,336c0,0,-52,167,-52,376c0,0,0,208,52,376c0,0,53,167,170,335H507c0,0,-118,-170,-171,-339c0,0,-53,-168,-53,-373c0,0,0,-203,53,-371c0,0,53,-166,171,-340Z" 
id="f0_c"
transform="scale(0.001,-0.001)" />

<path d="M53,0V145c0,0,41,91,117,177c0,0,75,85,190,179c0,0,111,89,155,147c0,0,44,58,44,114c0,0,0,139,-138,139c0,0,-67,0,-102,-37c0,0,-36,-36,-46,-109L62,767c0,0,18,146,109,223c0,0,92,77,249,77c0,0,170,0,261,-78c0,0,91,-77,91,-218c0,0,0,-74,-29,-133c0,0,-29,-60,-75,-110c0,0,-45,-51,-101,-95c0,0,-55,-44,-107,-86c0,0,-53,-41,-96,-84c0,0,-42,-42,-63,-91H789V0Z" 
id="f0_m"
transform="scale(0.001,-0.001)" />

<path d="M1,-316c0,0,120,175,172,340c0,0,53,167,53,371c0,0,0,205,-54,374c0,0,-53,169,-171,338H211c0,0,118,-169,170,-337c0,0,52,-168,52,-374c0,0,0,-207,-52,-375c0,0,-52,-167,-170,-337Z" 
id="f0_d"
transform="scale(0.001,-0.001)" />

<path d="M556,540c0,0,91,0,140,45c0,0,49,45,49,130c0,0,0,166,-195,166H322V540ZM102,0V1051H574c0,0,189,0,291,-87c0,0,102,-87,102,-246c0,0,0,-101,-46,-181c0,0,-47,-80,-133,-124c0,0,-86,-43,-205,-43H322V0Z" 
id="f0_1g"
transform="scale(0.001,-0.001)" />

<path d="M360,132c0,0,50,0,90,27c0,0,41,27,64,74c0,0,23,47,23,100v41L430,373c0,0,-73,-3,-104,-16c0,0,-31,-13,-47,-40c0,0,-16,-27,-16,-72c0,0,0,-57,27,-85c0,0,26,-28,70,-28ZM293,-14c0,0,-117,0,-183,63c0,0,-65,64,-65,180c0,0,0,125,81,191c0,0,82,65,237,67l174,3v41c0,0,0,79,-27,117c0,0,-28,38,-91,38c0,0,-58,0,-85,-26c0,0,-27,-27,-34,-88L81,583c0,0,20,118,108,179c0,0,88,60,239,60c0,0,153,0,236,-75c0,0,83,-75,83,-214V239c0,0,0,-67,15,-93c0,0,15,-26,51,-26c0,0,24,0,46,5V11c0,0,-18,-5,-33,-8c0,0,-15,-3,-30,-5c0,0,-15,-3,-32,-4c0,0,-17,-2,-39,-2c0,0,-79,0,-117,38c0,0,-37,39,-45,114h-4c0,0,-88,-158,-266,-158Z" 
id="f0_1x"
transform="scale(0.001,-0.001)" />

<path d="M360,-14c0,0,-128,0,-197,78c0,0,-68,79,-68,231V808H304V355c0,0,0,-212,144,-212c0,0,76,0,122,65c0,0,47,65,47,167V808H827V181c0,0,0,-103,6,-181H633c0,0,-9,108,-9,161h-4C620,161,578,69,514,27c0,0,-65,-41,-154,-41Z" 
id="f0_2h"
transform="scale(0.001,-0.001)" />

<path d="M107,0V1107H316V0Z" 
id="f0_28"
transform="scale(0.001,-0.001)" />

<path d="M107,0V808H316V0Zm0,952v155H316V952Z" 
id="f0_25"
transform="scale(0.001,-0.001)" />

<path d="M102,0V1051H929V881H322V617H883V447H322V170H959V0Z" 
id="f0_15"
transform="scale(0.001,-0.001)" />

<path d="M10,0L306,417L25,808H251L423,543L595,808H822L541,419L838,0H611L423,293L233,0Z" 
id="f0_2k"
transform="scale(0.001,-0.001)" />

<path d="M443,-14c0,0,-183,0,-283,109C160,95,60,204,60,399c0,0,0,200,100,312c0,0,101,111,286,111c0,0,143,0,236,-71c0,0,93,-72,117,-198L588,543c0,0,-9,62,-45,99c0,0,-36,37,-101,37c0,0,-162,0,-162,-271c0,0,0,-279,165,-279c0,0,59,0,100,38c0,0,40,37,50,112L805,269c0,0,-11,-83,-59,-148C746,121,697,56,619,21c0,0,-78,-35,-176,-35Z" 
id="f0_1z"
transform="scale(0.001,-0.001)" />

<path d="M426,-14c0,0,-166,0,-255,52C171,38,83,90,54,201l184,28c0,0,16,-57,54,-81c0,0,38,-24,134,-24c0,0,88,0,128,22c0,0,41,23,41,70c0,0,0,39,-33,62c0,0,-32,23,-110,38c0,0,-177,35,-239,65c0,0,-62,31,-95,79c0,0,-32,48,-32,118c0,0,0,115,89,180c0,0,89,64,252,64c0,0,144,0,232,-56c0,0,88,-56,109,-162L583,585c0,0,-9,49,-44,74c0,0,-35,24,-112,24c0,0,-74,0,-111,-19c0,0,-38,-19,-38,-64c0,0,0,-35,29,-55c0,0,29,-21,97,-34c0,0,94,-20,168,-40c0,0,73,-21,118,-49c0,0,44,-28,71,-73c0,0,26,-44,26,-113c0,0,0,-117,-96,-184c0,0,-96,-66,-265,-66Z" 
id="f0_2f"
transform="scale(0.001,-0.001)" />

<path d="M461,129c0,0,193,0,193,276c0,0,0,144,-47,209c0,0,-47,65,-136,65c0,0,-191,0,-191,-274c0,0,0,-135,46,-205c0,0,47,-71,135,-71Zm2,-143c0,0,-188,0,-296,111C167,97,60,209,60,405c0,0,0,194,107,306c0,0,108,111,301,111c0,0,197,0,301,-107c0,0,105,-108,105,-310c0,0,0,-197,-109,-308C765,97,656,-14,463,-14Z" 
id="f0_2b"
transform="scale(0.001,-0.001)" />

<path d="M107,0V627c0,0,0,65,-2,106c0,0,-2,42,-4,75H301c0,0,2,-15,6,-77c0,0,3,-61,3,-85h3c0,0,43,93,107,135c0,0,64,41,153,41c0,0,128,0,197,-79c0,0,68,-79,68,-231V0H630V452c0,0,0,213,-144,213c0,0,-76,0,-123,-65c0,0,-47,-66,-47,-168V0Z" 
id="f0_2a"
transform="scale(0.001,-0.001)" />

<path d="M107,0V618c0,0,0,66,-2,111c0,0,-2,44,-4,79H301c0,0,2,-14,6,-83c0,0,3,-68,3,-91h3c0,0,31,85,55,120c0,0,24,35,56,52c0,0,33,16,83,16c0,0,40,0,64,-11V636c0,0,-50,11,-89,11c0,0,-78,0,-122,-63c0,0,-44,-63,-44,-188V0Z" 
id="f0_2e"
transform="scale(0.001,-0.001)" />

<path d="M484,129c0,0,168,0,168,279c0,0,0,271,-166,271c0,0,-84,0,-128,-73c0,0,-45,-73,-45,-204c0,0,0,-131,45,-202c0,0,44,-71,126,-71ZM107,-316V622c0,0,0,114,-6,186H304c0,0,4,-14,7,-54c0,0,2,-39,2,-78h3c0,0,71,148,258,148c0,0,141,0,219,-108c0,0,78,-109,78,-309c0,0,0,-202,-81,-312C790,95,709,-14,561,-14c0,0,-85,0,-148,36c0,0,-63,37,-97,107h-4c0,0,4,-23,4,-135V-316Z" 
id="f0_2c"
transform="scale(0.001,-0.001)" />

<path d="M595,495c0,0,-6,98,-47,147c0,0,-41,49,-111,49c0,0,-74,0,-114,-51c0,0,-40,-52,-42,-145ZM437,-14c0,0,-182,0,-280,107c0,0,-97,108,-97,315c0,0,0,199,99,307c0,0,99,107,281,107c0,0,174,0,266,-115c0,0,91,-115,91,-337v-6H280c0,0,0,-118,43,-179c0,0,44,-60,125,-60c0,0,111,0,140,97L786,205c0,0,-86,-219,-349,-219Z" 
id="f0_21"
transform="scale(0.001,-0.001)" />

<path d="M147,0V209H362V0Zm0,562V771H362V562Z" 
id="f0_u"
transform="scale(0.001,-0.001)" />

<path d="M708,418L573,765c0,0,-21,52,-42,117l-20,62l-7,-21c0,0,-18,-62,-55,-159L315,418ZM3,0L432,1051H594L1016,0H871L750,307H272L151,0Z" 
id="f1_11"
transform="scale(0.001,-0.001)" />

<path d="M106,0V635c0,0,0,141,-5,173H228c0,0,1,-4,2,-21c0,0,1,-16,2,-37c0,0,1,-22,2,-81h2c0,0,47,84,108,119c0,0,60,34,151,34c0,0,132,0,194,-66c0,0,61,-66,61,-218V0H615V512c0,0,0,80,-15,124c0,0,-16,44,-50,63c0,0,-35,20,-101,20c0,0,-97,0,-153,-67c0,0,-56,-66,-56,-184V0Z" 
id="f1_2a"
transform="scale(0.001,-0.001)" />

<path d="M420,84c0,0,121,0,173,78c0,0,52,77,52,243c0,0,0,167,-50,243c0,0,-50,76,-167,76c0,0,-118,0,-170,-78c0,0,-53,-77,-53,-241c0,0,0,-160,52,-241c0,0,52,-80,163,-80Zm1,-98c0,0,-176,0,-267,107c0,0,-90,108,-90,312c0,0,0,417,362,417c0,0,185,0,272,-102c0,0,88,-101,88,-315c0,0,0,-212,-94,-316C692,89,599,-14,421,-14Z" 
id="f1_2b"
transform="scale(0.001,-0.001)" />

<path d="M106,0V620c0,0,0,85,-5,188H228c0,0,6,-138,6,-165h3c0,0,32,103,74,141c0,0,42,38,118,38c0,0,27,0,54,-7V692c0,0,-26,7,-71,7c0,0,-84,0,-128,-72c0,0,-44,-72,-44,-206V0Z" 
id="f1_2e"
transform="scale(0.001,-0.001)" />

<path d="M453,84c0,0,101,0,146,75c0,0,46,75,46,244c0,0,0,169,-45,243c0,0,-45,73,-146,73c0,0,-113,0,-165,-78c0,0,-52,-78,-52,-246c0,0,0,-159,51,-235c0,0,51,-76,165,-76Zm36,-98c0,0,-92,0,-153,33c0,0,-61,33,-99,107h-1c0,0,0,-24,-3,-71c0,0,-3,-48,-5,-55H98c0,0,5,40,5,166v941H237V792c0,0,0,-49,-3,-114h3c0,0,38,77,99,111c0,0,62,33,153,33c0,0,153,0,225,-103c0,0,72,-103,72,-311c0,0,0,-422,-297,-422Z" 
id="f1_1y"
transform="scale(0.001,-0.001)" />

<path d="M102,0V808H236V0Zm0,979v128H236V979Z" 
id="f1_25"
transform="scale(0.001,-0.001)" />

<path d="M278,-11c0,0,-162,0,-162,182V710H23v98h99l39,181h90V808H400V710H251V200c0,0,0,-58,19,-82c0,0,19,-23,66,-23c0,0,27,0,77,10V6c0,0,-66,-17,-135,-17Z" 
id="f1_2g"
transform="scale(0.001,-0.001)" />

<path d="M339,87c0,0,74,0,132,34c0,0,57,33,90,91c0,0,34,59,34,121v66L448,396c0,0,-95,-2,-144,-19c0,0,-49,-18,-75,-55c0,0,-26,-38,-26,-98c0,0,0,-65,35,-101c0,0,36,-36,101,-36ZM309,-14c0,0,-122,0,-183,64c0,0,-61,64,-61,176c0,0,0,125,82,192c0,0,83,67,266,72l182,3v44c0,0,0,98,-42,141c0,0,-42,43,-132,43c0,0,-90,0,-131,-31c0,0,-41,-31,-49,-98L101,604c0,0,34,218,323,218c0,0,153,0,229,-70c0,0,77,-69,77,-202V202c0,0,0,-59,16,-90c0,0,16,-30,60,-30c0,0,19,0,44,5V4C850,4,799,-7,746,-7c0,0,-75,0,-109,38c0,0,-33,40,-38,124h-4C595,155,543,62,475,24c0,0,-68,-38,-166,-38Z" 
id="f1_1x"
transform="scale(0.001,-0.001)" />

<path d="M103,0V1107H237V0Z" 
id="f1_28"
transform="scale(0.001,-0.001)" />

<path d="M413,-14c0,0,-170,0,-259,106c0,0,-89,107,-89,313c0,0,0,203,89,310c0,0,90,107,257,107c0,0,124,0,206,-64c0,0,81,-64,102,-177L581,571c0,0,-10,67,-53,106c0,0,-42,40,-121,40c0,0,-106,0,-154,-71c0,0,-48,-71,-48,-239c0,0,0,-161,51,-238c0,0,51,-78,153,-78c0,0,71,0,120,39c0,0,48,39,59,119l136,-9C724,240,708,124,624,55c0,0,-83,-69,-211,-69Z" 
id="f1_1z"
transform="scale(0.001,-0.001)" />

<path d="M615,0V512c0,0,0,85,-15,126c0,0,-16,42,-52,61c0,0,-36,20,-99,20c0,0,-95,0,-152,-66c0,0,-57,-66,-57,-177V0H106V1107H240V819c0,0,0,-45,-2,-94c0,0,-3,-48,-4,-56h2c0,0,44,79,105,116c0,0,60,37,154,37c0,0,131,0,193,-65c0,0,62,-65,62,-219V0Z" 
id="f1_24"
transform="scale(0.001,-0.001)" />

<path d="M298,0L5,808H148L326,282c0,0,10,-29,51,-176l27,87l29,88L616,808H759L457,0Z" 
id="f1_2i"
transform="scale(0.001,-0.001)" />

<path d="M643,478c0,0,-11,128,-65,187c0,0,-54,59,-154,59c0,0,-98,0,-155,-66c0,0,-57,-65,-62,-180ZM431,-14c0,0,-179,0,-272,106c0,0,-94,107,-94,317c0,0,0,200,94,307c0,0,93,106,267,106c0,0,356,0,356,-429V375H206c0,0,0,-138,57,-213c0,0,58,-75,168,-75c0,0,87,0,140,35c0,0,53,35,71,88L760,177c0,0,-72,-191,-329,-191Z" 
id="f1_21"
transform="scale(0.001,-0.001)" />

<path d="M106,0V635c0,0,0,141,-5,173H228c0,0,1,-4,2,-21c0,0,1,-16,2,-37c0,0,1,-22,2,-81h2c0,0,44,86,100,120c0,0,56,33,136,33c0,0,92,0,145,-36c0,0,54,-37,75,-117h2c0,0,42,82,101,117c0,0,59,36,143,36c0,0,123,0,178,-66c0,0,56,-67,56,-218V0H1039V512c0,0,0,117,-32,162c0,0,-32,45,-116,45c0,0,-88,0,-136,-66c0,0,-49,-65,-49,-185V0H573V512c0,0,0,117,-32,162c0,0,-32,45,-116,45c0,0,-86,0,-136,-66c0,0,-50,-66,-50,-185V0Z" 
id="f1_29"
transform="scale(0.001,-0.001)" />

<path d="M17,0L304,415L31,808H179L380,493L580,808H730L457,417L747,0H598L380,331L162,0Z" 
id="f1_2k"
transform="scale(0.001,-0.001)" />

<path d="M355,-14c0,0,-133,0,-194,65c0,0,-62,66,-62,219V808H234V296c0,0,0,-80,16,-124c0,0,16,-44,50,-64c0,0,34,-19,101,-19c0,0,97,0,153,66c0,0,55,67,55,185V808H744V172c0,0,0,-141,4,-172H621c0,0,0,4,-1,20c0,0,-1,17,-2,38c0,0,-1,21,-3,80h-2C613,138,567,55,506,20c0,0,-61,-34,-151,-34Z" 
id="f1_2h"
transform="scale(0.001,-0.001)" />

<path d="M224,0L-1,808H131L267,259c0,0,5,-18,32,-147l13,55L480,808H624L765,253L800,112l23,103L976,808h131L876,0H720L579,571L552,697c0,0,-7,-33,-21,-96C531,601,517,537,379,0Z" 
id="f1_2j"
transform="scale(0.001,-0.001)" />

<path d="M381,-14c0,0,-150,0,-232,49C149,35,67,85,43,190l118,23c0,0,17,-65,71,-96c0,0,54,-30,149,-30c0,0,102,0,150,31c0,0,47,32,47,95c0,0,0,47,-33,77c0,0,-33,30,-106,49l-96,26c0,0,-115,30,-164,58c0,0,-49,29,-77,70c0,0,-27,41,-27,101c0,0,0,110,78,168c0,0,79,57,230,57c0,0,133,0,212,-47c0,0,79,-47,100,-150L574,607c0,0,-12,53,-60,82c0,0,-49,29,-131,29c0,0,-91,0,-135,-28c0,0,-43,-27,-43,-83c0,0,0,-34,18,-57c0,0,18,-22,53,-38c0,0,35,-15,148,-43c0,0,106,-27,153,-50c0,0,47,-22,75,-50c0,0,27,-27,42,-64c0,0,15,-36,15,-82c0,0,0,-114,-86,-176c0,0,-87,-61,-242,-61Z" 
id="f1_2f"
transform="scale(0.001,-0.001)" />

<path d="M395,89c0,0,115,0,166,79c0,0,51,79,51,246c0,0,0,160,-51,235c0,0,-51,75,-164,75c0,0,-102,0,-147,-75c0,0,-45,-75,-45,-244c0,0,0,-170,45,-243c0,0,45,-73,145,-73ZM361,-14c0,0,-153,0,-225,102c0,0,-72,103,-72,312c0,0,0,422,297,422c0,0,92,0,153,-33c0,0,61,-34,98,-107h2l-2,90v335H747V166c0,0,0,-126,4,-166H623c0,0,-2,12,-5,55c0,0,-3,44,-3,75h-3c0,0,-37,-78,-98,-111c0,0,-62,-33,-153,-33Z" 
id="f1_20"
transform="scale(0.001,-0.001)" />

<path d="M453,84c0,0,100,0,146,74c0,0,46,73,46,247c0,0,0,169,-46,241c0,0,-45,73,-145,73c0,0,-80,0,-125,-34c0,0,-45,-34,-68,-105c0,0,-24,-71,-24,-186c0,0,0,-159,51,-234c0,0,51,-76,165,-76ZM103,-316V643c0,0,0,124,-5,165H228c0,0,1,-3,3,-22c0,0,1,-18,3,-56c0,0,2,-38,2,-52h3c0,0,36,75,94,110c0,0,59,34,156,34c0,0,149,0,223,-100c0,0,74,-100,74,-314c0,0,0,-422,-297,-422c0,0,-187,0,-251,140h-4c0,0,3,-6,3,-126V-316Z" 
id="f1_2c"
transform="scale(0.001,-0.001)" />

<path d="M140,0V163H285V0Z" 
id="f1_i"
transform="scale(0.001,-0.001)" />

<path d="M313,-13c0,0,-92,0,-142,50c0,0,-50,50,-50,152V666H19V808H131l66,189H328V808H481V666H328V245c0,0,0,-59,23,-87c0,0,22,-28,69,-28c0,0,25,0,70,10V11c0,0,-77,-24,-177,-24Z" 
id="f0_2g"
transform="scale(0.001,-0.001)" />

<path d="M144,0V666H26V808H144v84c0,0,0,109,58,162c0,0,58,53,177,53c0,0,59,0,133,-12V960c0,0,-31,7,-61,7c0,0,-54,0,-76,-21c0,0,-22,-21,-22,-75V808H512V666H353V0Z" 
id="f0_22"
transform="scale(0.001,-0.001)" />

<path d="M448,148c0,0,83,0,128,69c0,0,44,70,44,198c0,0,0,124,-44,194c0,0,-45,70,-127,70c0,0,-168,0,-168,-269c0,0,0,-262,167,-262Zm-3,-471c0,0,-148,0,-238,57c0,0,-90,56,-111,160l210,25c0,0,11,-48,48,-75c0,0,37,-28,97,-28c0,0,87,0,127,54c0,0,40,53,40,158V71l2,79h-2C618,150,549,2,359,2C359,2,218,2,140,108c0,0,-77,106,-77,302c0,0,0,198,79,305c0,0,80,107,232,107c0,0,177,0,244,-145h4c0,0,0,26,4,71c0,0,3,45,7,60H831c0,0,-4,-81,-4,-187V25c0,0,0,-172,-98,-260c0,0,-98,-88,-284,-88Z" 
id="f0_23"
transform="scale(0.001,-0.001)" />

<path d="M107,0V627c0,0,0,65,-2,106c0,0,-2,42,-4,75H301c0,0,2,-15,6,-77c0,0,3,-61,3,-85h3c0,0,39,93,97,135c0,0,58,41,138,41c0,0,185,0,225,-176h4c0,0,41,94,99,135c0,0,57,41,146,41c0,0,118,0,180,-80c0,0,62,-80,62,-230V0H1056V452c0,0,0,213,-123,213c0,0,-61,0,-100,-59c0,0,-39,-60,-43,-164V0H582V452c0,0,0,213,-122,213c0,0,-64,0,-104,-65c0,0,-40,-65,-40,-168V0Z" 
id="f0_29"
transform="scale(0.001,-0.001)" />

<path d="M630,0V452c0,0,0,213,-144,213c0,0,-76,0,-123,-65c0,0,-47,-66,-47,-168V0H107V1107H316V805c0,0,0,-81,-6,-159h3c0,0,43,93,107,135c0,0,64,41,153,41c0,0,128,0,197,-79c0,0,68,-79,68,-231V0Z" 
id="f0_24"
transform="scale(0.001,-0.001)" />

<path d="M446,129c0,0,83,0,128,73c0,0,46,72,46,206c0,0,0,131,-44,201c0,0,-43,71,-128,71c0,0,-85,0,-126,-69c0,0,-41,-68,-41,-208c0,0,0,-274,165,-274ZM357,-14c0,0,-141,0,-217,109c0,0,-77,110,-77,308c0,0,0,201,81,310c0,0,81,109,229,109c0,0,86,0,148,-35c0,0,62,-36,96,-107h1l-1,132v295H827V176c0,0,0,-75,6,-176H630c0,0,-3,11,-7,56c0,0,-5,46,-5,76h-3c0,0,-67,-146,-258,-146Z" 
id="f0_20"
transform="scale(0.001,-0.001)" />

<path d="M703,434L599,736L567,838l-16,51l-4,-16c0,0,-8,-27,-18,-61c0,0,-11,-35,-128,-378ZM38,0L421,1051H681L1063,0H845L752,269H351L258,0Z" 
id="f0_11"
transform="scale(0.001,-0.001)" />

<path d="M102,0V1051H354L818,235c0,0,-13,113,-13,205v611h195V0H742L284,809c0,0,14,-117,14,-189V0Z" 
id="f0_1e"
transform="scale(0.001,-0.001)" />

<path d="M104,0V228H319V0Z" 
id="f0_i"
transform="scale(0.001,-0.001)" />

<path d="M593,-14c0,0,-254,0,-392,143C201,129,63,272,63,531c0,0,0,258,133,397c0,0,134,139,387,139c0,0,185,0,302,-74c0,0,116,-75,163,-218L854,722c0,0,-24,79,-96,125c0,0,-72,47,-170,47c0,0,-149,0,-227,-93c0,0,-77,-92,-77,-270c0,0,0,-182,80,-277c0,0,79,-96,229,-96c0,0,199,0,277,200l192,-72c0,0,-62,-152,-182,-227c0,0,-120,-73,-287,-73Z" 
id="f0_13"
transform="scale(0.001,-0.001)" />

<path d="M116,0V114H384V923L147,754V881l248,170H519V114H775V0Z" 
id="f1_l"
transform="scale(0.001,-0.001)" />

<path d="M125,0V1051H268V606H836v445H979V0H836V487H268V0Z" 
id="f1_18"
transform="scale(0.001,-0.001)" />

<path d="M77,0V95c0,0,38,87,93,154c0,0,55,67,115,121c0,0,60,54,120,100c0,0,59,46,107,93c0,0,47,46,77,97c0,0,29,50,29,114c0,0,0,87,-50,135c0,0,-51,47,-141,47c0,0,-86,0,-142,-46c0,0,-55,-47,-65,-131L83,791c0,0,15,126,107,201c0,0,92,75,237,75c0,0,159,0,244,-75c0,0,85,-75,85,-213c0,0,0,-61,-28,-122c0,0,-28,-60,-83,-120c0,0,-55,-61,-211,-188c0,0,-86,-70,-136,-126c0,0,-51,-56,-73,-109H773V0Z" 
id="f1_m"
transform="scale(0.001,-0.001)" />

<path d="M426,-14c0,0,-160,0,-255,71c0,0,-95,72,-113,213l139,13c0,0,27,-187,229,-187c0,0,101,0,159,50c0,0,58,50,58,149c0,0,0,86,-66,134c0,0,-66,48,-191,48H310V594h73c0,0,111,0,172,48c0,0,60,48,60,133c0,0,0,84,-49,132c0,0,-50,49,-147,49c0,0,-89,0,-144,-45c0,0,-55,-46,-64,-129L76,793c0,0,15,129,107,201c0,0,92,73,237,73c0,0,158,0,246,-74c0,0,87,-73,87,-204c0,0,0,-101,-56,-164c0,0,-56,-63,-164,-85v-3c0,0,118,-13,184,-79c0,0,66,-67,66,-167c0,0,0,-146,-93,-226c0,0,-92,-79,-264,-79Z" 
id="f1_n"
transform="scale(0.001,-0.001)" />

<path d="M125,0V1051H268V115H799V0Z" 
id="f1_1c"
transform="scale(0.001,-0.001)" />

<path d="M109,-316V1107H413v-96H239V-220H413v-96Z" 
id="f1_1r"
transform="scale(0.001,-0.001)" />

<path d="M12,-316v96H186V1011H12v96H316V-316Z" 
id="f1_1t"
transform="scale(0.001,-0.001)" />

<path d="M530,344V900c0,0,-1,-5,-20,-40c0,0,-20,-35,-30,-49L211,414L171,359L159,344ZM530,0V239H35V343l481,708H657V344H805V239H657V0Z" 
id="f1_o"
transform="scale(0.001,-0.001)" />

<path d="M545,114c0,0,130,0,190,49c0,0,59,48,59,144c0,0,0,186,-261,186H268V114ZM507,604c0,0,114,0,171,43c0,0,56,43,56,132c0,0,0,85,-58,121c0,0,-58,37,-169,37H268V604ZM125,0V1051H507c0,0,370,0,370,-255c0,0,0,-93,-52,-157c0,0,-52,-63,-148,-85c0,0,126,-15,194,-84c0,0,67,-69,67,-174c0,0,0,-140,-102,-218C836,78,734,0,552,0Z" 
id="f1_12"
transform="scale(0.001,-0.001)" />

<path d="M413,-14c0,0,-147,0,-238,64c0,0,-90,64,-114,185l136,16c0,0,42,-155,219,-155c0,0,108,0,169,65c0,0,61,65,61,179c0,0,0,98,-62,159c0,0,-61,61,-165,61c0,0,-55,0,-102,-17c0,0,-47,-17,-94,-58H92l35,566H724V937H249L229,604c0,0,87,67,217,67c0,0,155,0,247,-91c0,0,93,-91,93,-237c0,0,0,-167,-99,-262c0,0,-99,-95,-274,-95Z" 
id="f1_p"
transform="scale(0.001,-0.001)" />

<path d="M439,94c0,0,97,0,152,65c0,0,55,65,55,179c0,0,0,114,-56,176c0,0,-56,62,-156,62c0,0,-94,0,-152,-55c0,0,-57,-55,-57,-151c0,0,0,-121,60,-199c0,0,60,-77,154,-77Zm4,-108c0,0,-177,0,-271,131c0,0,-94,132,-94,384c0,0,0,273,97,420c0,0,98,146,279,146c0,0,238,0,299,-214L625,830c0,0,-39,128,-173,128c0,0,-115,0,-178,-107c0,0,-63,-107,-63,-310c0,0,37,68,103,103c0,0,66,36,152,36c0,0,146,0,231,-91c0,0,86,-91,86,-245c0,0,0,-166,-91,-262c0,0,-90,-96,-249,-96Z" 
id="f1_q"
transform="scale(0.001,-0.001)" />

<path d="M590,-14c0,0,-159,0,-275,65c0,0,-116,66,-177,189c0,0,-60,123,-60,291c0,0,0,251,135,393c0,0,136,143,376,143c0,0,168,0,281,-66c0,0,112,-66,165,-195L900,762c0,0,-36,92,-117,141c0,0,-81,48,-192,48c0,0,-175,0,-272,-112c0,0,-97,-112,-97,-308c0,0,0,-193,101,-311c0,0,101,-117,274,-117c0,0,221,0,332,218l116,-58c0,0,-65,-136,-182,-207c0,0,-118,-70,-273,-70Z" 
id="f1_13"
transform="scale(0.001,-0.001)" />

<path d="M272,0c0,0,0,201,86,424c0,0,85,223,285,513H78v114H773V942C773,942,612,696,545,556c0,0,-66,-139,-99,-275C446,281,413,145,413,0Z" 
id="f1_r"
transform="scale(0.001,-0.001)" />

<path d="M125,0V1051H291L859,150c0,0,-9,146,-9,212v689H979V0H807L245,895l3,-72l4,-125V0Z" 
id="f1_1e"
transform="scale(0.001,-0.001)" />

<path d="M427,86c0,0,109,0,163,53c0,0,54,52,54,167c0,0,0,97,-58,147c0,0,-59,50,-164,50c0,0,-102,0,-159,-54c0,0,-58,-53,-58,-146c0,0,0,-217,222,-217Zm-3,517c0,0,94,0,144,44c0,0,50,43,50,141c0,0,0,178,-196,178c0,0,-95,0,-144,-45c0,0,-50,-44,-50,-133c0,0,0,-90,51,-137c0,0,51,-48,145,-48Zm1,-617c0,0,-168,0,-263,79c0,0,-96,80,-96,227c0,0,0,103,59,173c0,0,59,70,151,85v3c0,0,-86,20,-135,87c0,0,-50,67,-50,157c0,0,0,121,90,195c0,0,90,75,241,75c0,0,155,0,245,-73c0,0,90,-74,90,-198c0,0,0,-90,-50,-158c0,0,-50,-67,-136,-84v-3c0,0,100,-16,156,-85c0,0,56,-69,56,-173c0,0,0,-145,-92,-226c0,0,-93,-81,-266,-81Z" 
id="f1_s"
transform="scale(0.001,-0.001)" />

<path d="M593,101c0,0,182,0,279,112c0,0,98,113,98,318c0,0,0,196,-98,308c0,0,-98,112,-277,112c0,0,-181,0,-279,-110c0,0,-99,-111,-99,-310c0,0,0,-198,100,-314c0,0,99,-116,276,-116Zm0,-115c0,0,-162,0,-279,65c0,0,-118,66,-180,190c0,0,-62,124,-62,290c0,0,0,252,138,394c0,0,138,142,385,142c0,0,160,0,278,-64c0,0,118,-64,180,-185c0,0,62,-122,62,-287c0,0,0,-165,-63,-289c0,0,-63,-124,-181,-190c0,0,-118,-66,-278,-66Z" 
id="f1_1f"
transform="scale(0.001,-0.001)" />

<path d="M416,464c0,0,58,0,108,27c0,0,50,26,78,75c0,0,29,49,29,111c0,0,0,127,-58,204c0,0,-58,77,-156,77c0,0,-97,0,-153,-66c0,0,-56,-66,-56,-179c0,0,0,-115,56,-182c0,0,56,-67,152,-67ZM397,-14c0,0,-123,0,-197,51c0,0,-75,52,-107,168l129,20c0,0,40,-131,177,-131c0,0,116,0,179,107c0,0,64,107,67,306c0,0,-30,-67,-103,-108c0,0,-72,-40,-159,-40c0,0,-141,0,-226,97c0,0,-85,97,-85,257c0,0,0,165,92,259c0,0,93,95,257,95c0,0,176,0,266,-130c0,0,90,-130,90,-390c0,0,0,-271,-99,-416c0,0,-98,-145,-281,-145Z" 
id="f1_t"
transform="scale(0.001,-0.001)" />

<path d="M125,0V1051H872V936H268V544H854V425H268V0Z" 
id="f1_16"
transform="scale(0.001,-0.001)" />

<path d="M424,96c0,0,119,0,174,106c0,0,55,106,55,325c0,0,0,227,-52,329c0,0,-53,102,-174,102c0,0,-123,0,-177,-100c0,0,-55,-101,-55,-331c0,0,0,-224,55,-328c0,0,55,-103,174,-103ZM423,-14c0,0,-181,0,-272,137c0,0,-91,138,-91,403c0,0,0,271,88,406c0,0,88,135,279,135c0,0,186,0,275,-137c0,0,88,-136,88,-404c0,0,0,-263,-93,-402c0,0,-93,-138,-274,-138Z" 
id="f1_k"
transform="scale(0.001,-0.001)" />

<path d="M125,0V1051H313L592,322c0,0,15,-44,29,-94c0,0,14,-50,18,-73c0,0,6,30,25,91c0,0,19,61,26,76l275,729h182V0H1019V701c0,0,0,117,7,224c0,0,-37,-133,-66,-209L689,0H589L313,716L272,843l-25,82l2,-83l3,-141V0Z" 
id="f1_1d"
transform="scale(0.001,-0.001)" />

<path d="M398,93c0,0,63,0,112,37c0,0,49,38,76,107c0,0,27,70,27,166c0,0,0,99,-27,170c0,0,-27,71,-75,109c0,0,-49,38,-111,38c0,0,-103,0,-150,-75c0,0,-47,-75,-47,-242c0,0,0,-165,44,-238c0,0,44,-72,151,-72Zm11,-409c0,0,-132,0,-211,52c0,0,-78,52,-100,147l135,20c0,0,13,-56,59,-87c0,0,46,-30,121,-30c0,0,200,0,200,234V150h-1C612,150,574,72,507,33C507,33,441,-5,352,-5c0,0,-148,0,-218,98c0,0,-70,98,-70,309c0,0,0,214,75,316c0,0,75,101,228,101c0,0,86,0,149,-39c0,0,63,-39,97,-111h2c0,0,0,22,3,78c0,0,3,55,6,61H751c0,0,-4,-41,-4,-167V23c0,0,0,-339,-338,-339Z" 
id="f1_23"
transform="scale(0.001,-0.001)" />

<path d="M515,-14c0,0,-384,0,-446,266l138,28c0,0,24,-95,102,-139c0,0,77,-44,211,-44c0,0,138,0,213,47c0,0,75,47,75,139c0,0,0,51,-24,83c0,0,-23,33,-66,53c0,0,-42,21,-101,35c0,0,-59,15,-131,31c0,0,-124,28,-189,55c0,0,-64,28,-102,62c0,0,-37,34,-57,79c0,0,-19,46,-19,105c0,0,0,135,103,208c0,0,103,73,296,73c0,0,179,0,273,-55c0,0,95,-55,133,-187L784,800c0,0,-23,84,-88,122c0,0,-65,37,-180,37c0,0,-126,0,-192,-42c0,0,-67,-41,-67,-124c0,0,0,-48,26,-80c0,0,26,-32,74,-54c0,0,49,-22,194,-54c0,0,48,-11,96,-23c0,0,48,-11,92,-27c0,0,44,-16,83,-38c0,0,38,-22,66,-53c0,0,29,-31,45,-74c0,0,16,-42,16,-100c0,0,0,-145,-114,-225c0,0,-114,-79,-320,-79Z" 
id="f1_1j"
transform="scale(0.001,-0.001)" />

<path d="M557,522c0,0,238,0,238,211c0,0,0,204,-244,204H268V522ZM125,0V1051H568c0,0,176,0,273,-83c0,0,97,-82,97,-233c0,0,0,-149,-97,-237c0,0,-97,-88,-264,-88H268V0Z" 
id="f1_1g"
transform="scale(0.001,-0.001)" />

<path d="M125,0V1051H268V524l506,527H942L495,595L1002,0H825L405,507L268,403V0Z" 
id="f1_1b"
transform="scale(0.001,-0.001)" />

<path d="M395,0V936H34v115H898V936H537V0Z" 
id="f1_1k"
transform="scale(0.001,-0.001)" />

<path d="M436,0L7,1051H157L448,311L510,125l63,186l289,740h150L583,0Z" 
id="f1_1m"
transform="scale(0.001,-0.001)" />

<path d="M421,-17c0,0,-169,0,-269,77C152,60,52,138,35,285l213,19c0,0,21,-151,173,-151c0,0,75,0,117,37c0,0,42,37,42,114c0,0,0,70,-51,107c0,0,-51,38,-151,38H305V618h69c0,0,90,0,135,37c0,0,46,37,46,106c0,0,0,65,-36,102c0,0,-36,38,-106,38c0,0,-65,0,-105,-36c0,0,-39,-36,-45,-102L53,778c0,0,16,135,113,212c0,0,96,77,251,77c0,0,165,0,258,-75c0,0,93,-74,93,-205c0,0,0,-99,-58,-162c0,0,-58,-64,-167,-85v-3c0,0,121,-14,186,-79c0,0,65,-65,65,-167c0,0,0,-147,-96,-228c0,0,-97,-80,-277,-80Z" 
id="f0_n"
transform="scale(0.001,-0.001)" />

<path d="M26,0V55L154,74V926L26,946v54H518V946L389,926V555H798V926L670,946v54h493V946L1034,926V74L1163,55V0H670V55L798,74V473H389V74L518,55V0Z" 
id="f2_18"
transform="scale(0.001,-0.001)" />

<path d="M287,-18c0,0,-194,0,-194,206V634L23,652v49H309V217c0,0,0,-63,26,-98c0,0,27,-35,76,-35c0,0,57,0,113,25V634l-64,18v49H740V67L809,49V0H536L526,61L475,35c0,0,-104,-53,-188,-53Z" 
id="f2_2h"
transform="scale(0.001,-0.001)" />

<path d="M41,0V49l69,18V634L41,652v49H313l11,-61l50,26c0,0,105,54,188,54c0,0,194,0,194,-207V67L827,49V0H478V49l63,18V484c0,0,0,63,-27,98c0,0,-26,35,-75,35c0,0,-57,0,-114,-25V67L389,49V0Z" 
id="f2_2a"
transform="scale(0.001,-0.001)" />

<path d="M416,68c0,0,60,0,124,32V628c0,0,-58,15,-118,15c0,0,-67,0,-104,-73c0,0,-38,-73,-38,-216c0,0,0,-139,36,-212c0,0,35,-74,100,-74ZM369,-14c0,0,-155,0,-231,88c0,0,-76,90,-76,274c0,0,0,182,82,277c0,0,81,95,236,95c0,0,82,0,165,-20c0,0,-5,24,-5,115V992l-72,18v50H756V67L833,49V0H562L547,40C547,40,505,13,483,4c0,0,-23,-7,-51,-12c0,0,-28,-6,-63,-6Z" 
id="f2_20"
transform="scale(0.001,-0.001)" />

<path d="M95,554v69c0,0,47,14,81,37c0,0,34,24,52,52c0,0,18,29,18,53c0,0,0,18,-14,32c0,0,-14,13,-43,27c0,0,-56,29,-56,93c0,0,0,45,32,72c0,0,33,27,87,27c0,0,63,0,105,-40c0,0,42,-41,42,-105c0,0,0,-118,-77,-197c0,0,-78,-80,-227,-120Z" 
id="f2_1k5"
transform="scale(0.001,-0.001)" />

<path d="M276,-14c0,0,-57,0,-125,13C151,-1,83,10,48,23V214H97l28,-98c0,0,26,-26,69,-44c0,0,42,-17,86,-17c0,0,65,0,97,28c0,0,32,28,32,71c0,0,0,41,-31,65c0,0,-30,25,-133,57c0,0,-108,34,-154,92c0,0,-45,58,-45,143c0,0,0,95,71,152c0,0,71,57,183,57c0,0,77,0,207,-22V518H457l-24,82c0,0,-21,22,-60,35c0,0,-40,14,-75,14c0,0,-53,0,-79,-22c0,0,-26,-22,-26,-59c0,0,0,-40,32,-65c0,0,32,-26,132,-55c0,0,109,-34,155,-89c0,0,45,-55,45,-137c0,0,0,-117,-72,-177c0,0,-72,-59,-209,-59Z" 
id="f2_2f"
transform="scale(0.001,-0.001)" />

<path d="M41,0V49l91,18V634L41,652v49H336l8,-145c0,0,80,89,144,128c0,0,64,40,117,40h40V468H604l-45,94c0,0,-47,0,-106,-21c0,0,-60,-20,-105,-48V67L460,49V0Z" 
id="f2_2e"
transform="scale(0.001,-0.001)" />

<path d="M30,0V49l76,18V992l-72,18v50H322V67L398,49V0Z" 
id="f2_28"
transform="scale(0.001,-0.001)" />

<path d="M434,423c0,0,0,101,-7,142c0,0,-6,40,-22,60c0,0,-16,19,-45,19c0,0,-44,0,-66,-48c0,0,-22,-49,-22,-173ZM389,-14c0,0,-172,0,-254,89c0,0,-83,90,-83,279c0,0,0,184,79,274c0,0,79,91,238,91c0,0,142,0,206,-76c0,0,64,-76,64,-237V345H271V333c0,0,0,-111,18,-158c0,0,18,-47,58,-72c0,0,40,-25,110,-25c0,0,66,0,166,22V42C623,42,582,18,517,1c0,0,-66,-15,-128,-15Z" 
id="f2_21"
transform="scale(0.001,-0.001)" />

<path d="M379,60c0,0,59,0,84,64c0,0,24,65,24,231c0,0,0,164,-24,227c0,0,-24,63,-84,63c0,0,-57,0,-80,-60c0,0,-22,-61,-22,-230c0,0,0,-173,23,-234c0,0,22,-61,79,-61Zm-2,-74c0,0,-161,0,-240,91c0,0,-79,91,-79,277c0,0,0,186,80,276c0,0,81,90,245,90c0,0,167,0,245,-93c0,0,78,-93,78,-273c0,0,0,-188,-81,-278c0,0,-81,-90,-248,-90Z" 
id="f2_2b"
transform="scale(0.001,-0.001)" />

<path d="M41,0V49l76,18V624H11v51l106,29v75c0,0,0,144,73,220c0,0,73,77,210,77c0,0,74,0,124,-15V894H476l-22,81c0,0,-18,17,-47,17c0,0,-74,0,-74,-189V701H475V624H333V67L447,49V0Z" 
id="f2_22"
transform="scale(0.001,-0.001)" />

<path d="M41,0V49l69,18V634L41,652v49H313l11,-61l50,26c0,0,105,54,188,54c0,0,125,0,167,-91c0,0,153,91,258,91c0,0,189,0,189,-207V67l71,-17V0H898V50l63,17V484c0,0,0,63,-24,98c0,0,-25,35,-74,35c0,0,-55,0,-119,-31c0,0,7,-32,7,-73V67L821,50V0H473V50l63,17V484c0,0,0,63,-25,98c0,0,-24,35,-73,35c0,0,-49,0,-113,-29V67L389,49V0Z" 
id="f2_29"
transform="scale(0.001,-0.001)" />

<path d="M345,75c0,0,50,0,110,26V351l-63,-2c0,0,-72,-3,-100,-38c0,0,-28,-35,-28,-113c0,0,0,-63,22,-93c0,0,23,-30,59,-30ZM266,-14c0,0,-217,0,-217,208c0,0,0,79,32,126c0,0,32,48,93,71c0,0,60,22,190,25l91,2V521c0,0,0,126,-104,126c0,0,-62,0,-140,-39L183,521H134V691c0,0,112,17,165,21c0,0,53,5,108,5c0,0,264,0,264,-194V67L741,49V0H483L466,54C466,54,408,14,361,0c0,0,-47,-14,-95,-14Z" 
id="f2_1x"
transform="scale(0.001,-0.001)" />

<path d="M6,0V49L69,61L292,323L91,634L23,652v49H398V652L319,632L421,475L557,634l-71,18v49H725V652L663,637L466,406L689,65L756,49V0H381V49l79,17L337,254L175,65L245,49V0Z" 
id="f2_2k"
transform="scale(0.001,-0.001)" />

<path d="M34,0V49l76,18V634L38,652v49H325V67L402,49V0ZM217,831c0,0,-48,0,-81,33c0,0,-34,33,-34,82c0,0,0,48,34,81c0,0,34,33,81,33c0,0,48,0,81,-33c0,0,33,-33,33,-81c0,0,0,-47,-33,-81c0,0,-32,-34,-81,-34Z" 
id="f2_25"
transform="scale(0.001,-0.001)" />

<path d="M327,-14c0,0,-101,0,-156,45c0,0,-55,45,-55,131V624H25v48l108,29l87,159H332V701H480V624H332V176c0,0,0,-49,20,-73c0,0,20,-25,53,-25c0,0,40,0,97,12V26c0,0,-22,-15,-76,-27c0,0,-55,-13,-99,-13Z" 
id="f2_2g"
transform="scale(0.001,-0.001)" />

<path d="M438,65c0,0,131,0,131,293c0,0,0,279,-130,279c0,0,-69,0,-127,-29V80c0,0,60,-15,126,-15ZM20,-325v50l76,18V634L19,652v49H304l1,-36c0,0,80,55,194,55c0,0,146,0,218,-86c0,0,71,-86,71,-271c0,0,0,-183,-83,-280c0,0,-83,-97,-238,-97c0,0,-79,0,-160,19c0,0,5,-48,5,-109V-257l103,-18v-50Z" 
id="f2_2c"
transform="scale(0.001,-0.001)" />

<path d="M425,-14c0,0,-187,0,-280,90c0,0,-93,90,-93,276c0,0,0,115,42,198c0,0,43,82,121,126c0,0,78,44,182,44c0,0,104,0,227,-26V486H571L539,609c0,0,-25,19,-50,26c0,0,-24,7,-65,7c0,0,-44,0,-79,-35c0,0,-36,-35,-56,-98c0,0,-20,-64,-20,-153c0,0,0,-150,47,-214c0,0,47,-64,148,-64c0,0,103,0,176,21V42C640,42,606,15,547,0c0,0,-59,-14,-122,-14Z" 
id="f2_1z"
transform="scale(0.001,-0.001)" />

<path d="M159,-329c0,0,-61,0,-123,14v180H81l32,-94c0,0,21,-17,55,-17c0,0,28,0,50,13c0,0,21,14,40,39c0,0,20,25,37,62c0,0,17,37,50,110L64,634L15,652v49H374V652L290,632L455,244L602,634l-82,18v49H749V652L698,637L421,-44c0,0,-47,-121,-83,-176c0,0,-36,-55,-80,-82c0,0,-43,-27,-99,-27Z" 
id="f2_2l"
transform="scale(0.001,-0.001)" />

<path d="M248,-20c0,0,-52,0,-87,34c0,0,-36,36,-36,88c0,0,0,52,36,88c0,0,35,36,87,36c0,0,52,0,88,-36c0,0,36,-36,36,-88c0,0,0,-51,-36,-87c0,0,-35,-35,-88,-35Zm0,488c0,0,-52,0,-87,36c0,0,-36,36,-36,88c0,0,0,52,35,88c0,0,35,36,88,36c0,0,53,0,89,-36c0,0,35,-37,35,-88c0,0,0,-51,-36,-87c0,0,-35,-37,-88,-37Z" 
id="f2_u"
transform="scale(0.001,-0.001)" />

<path d="M125,0V1051H923V936H268V597H878V482H268V115H953V0Z" 
id="f1_15"
transform="scale(0.001,-0.001)" />

<path d="M137,-195c0,0,70,102,70,195H142V163H287V38c0,0,0,-78,-14,-131c0,0,-14,-53,-44,-102Z" 
id="f1_g"
transform="scale(0.001,-0.001)" />

<path d="M135,0V710H22v98H135v91c0,0,0,110,49,158c0,0,48,49,148,49c0,0,56,0,95,-9V994c0,0,-34,6,-60,6c0,0,-51,0,-75,-26c0,0,-23,-26,-23,-94V808H427V710H269V0Z" 
id="f1_22"
transform="scale(0.001,-0.001)" />

<path d="M142,-316c0,0,-55,0,-92,8v101c0,0,28,-4,63,-4c0,0,125,0,198,184L324,4L4,808H147L317,362c0,0,4,-11,9,-25c0,0,5,-15,34,-98c0,0,28,-83,30,-92l52,147L619,808H761L451,0c0,0,-50,-128,-94,-191c0,0,-43,-63,-96,-94c0,0,-52,-31,-119,-31Z" 
id="f1_2l"
transform="scale(0.001,-0.001)" />

<path d="M567,-17c0,0,-83,0,-152,21c0,0,-70,21,-145,71L237,0H126L52,404l140,33c0,0,49,-123,153,-205c0,0,104,-82,228,-82c0,0,56,0,93,14c0,0,37,14,56,39c0,0,18,25,18,52c0,0,0,45,-43,77c0,0,-44,32,-154,63L369,446c0,0,-40,11,-107,42c0,0,-68,31,-104,64c0,0,-36,34,-60,86c0,0,-24,53,-24,111c0,0,0,83,46,153c0,0,46,69,138,113c0,0,92,43,204,43c0,0,135,0,244,-70l29,52H842L932,692L792,652c0,0,-69,125,-157,183c0,0,-88,58,-187,58c0,0,-64,0,-101,-26c0,0,-37,-27,-37,-59c0,0,0,-36,34,-67c0,0,32,-32,121,-56L665,626c0,0,166,-47,237,-126c0,0,70,-80,70,-186c0,0,0,-135,-107,-229C865,85,745,-17,567,-17Z" 
id="f3_l"
transform="scale(0.001,-0.001)" />

<path d="M280,0V144h30c0,0,51,0,66,6c0,0,14,6,21,22c0,0,8,17,8,67V851c0,0,0,26,-6,33c0,0,-6,7,-26,7c0,0,-38,0,-86,-29c0,0,-48,-29,-85,-82c0,0,-15,-21,-63,-118L2,711l128,365h99l10,-36H826l13,36h99L1067,711L928,662c0,0,-46,91,-66,119c0,0,-40,55,-92,86c0,0,-38,24,-77,24c0,0,-18,0,-24,-9c0,0,-7,-8,-7,-39V244c0,0,0,-53,4,-66c0,0,3,-13,12,-21c0,0,9,-8,25,-11c0,0,16,-2,84,-2V0Z" 
id="f3_m"
transform="scale(0.001,-0.001)" />

<path d="M593,600c0,0,92,0,137,17c0,0,45,17,68,48c0,0,22,31,22,76c0,0,0,41,-21,71c0,0,-21,29,-60,43c0,0,-40,14,-128,14H439V600ZM55,0V144h46c0,0,37,0,52,8c0,0,16,7,23,23c0,0,4,9,4,56V816c0,0,0,35,-6,49c0,0,-5,15,-18,19c0,0,-18,8,-41,8H55v148H697c0,0,62,0,135,-11c0,0,74,-11,133,-49c0,0,60,-38,92,-96c0,0,33,-59,33,-132c0,0,0,-118,-84,-192c0,0,-85,-73,-201,-96L1019,215l9,-11c0,0,21,-25,38,-38c0,0,17,-12,34,-17c0,0,18,-5,48,-5h45V0H859L526,448H439V241c0,0,0,-54,6,-69c0,0,6,-14,19,-21c0,0,13,-7,52,-7h48V0Z" 
id="f3_k"
transform="scale(0.001,-0.001)" />

<path d="M561,-17c0,0,-97,0,-173,29c0,0,-76,29,-133,84c0,0,-57,55,-80,116c0,0,-22,61,-22,181V794c0,0,0,56,-6,72c0,0,-6,16,-20,23c0,0,-13,8,-52,8H27v143H536V897H486c0,0,-35,0,-49,-9c0,0,-15,-8,-22,-23c0,0,-6,-15,-6,-62V424c0,0,0,-106,21,-158c0,0,21,-52,64,-79c0,0,43,-28,105,-28c0,0,61,0,109,30c0,0,48,30,68,76c0,0,21,46,21,152V834c0,0,0,26,-7,37c0,0,-9,15,-24,21c0,0,-10,5,-53,5H673v143h429V897h-34c0,0,-49,0,-61,-6c0,0,-18,-9,-26,-26c0,0,-6,-12,-6,-62V393c0,0,0,-114,-33,-191C942,202,896,98,797,40c0,0,-100,-57,-236,-57Z" 
id="f3_n"
transform="scale(0.001,-0.001)" />

<path d="M579,-17c0,0,-147,0,-266,70c0,0,-119,70,-189,197c0,0,-71,127,-71,277c0,0,0,149,69,271c0,0,69,123,187,191c0,0,119,69,265,69c0,0,149,0,260,-62l25,44H965L1067,667L928,627c0,0,-69,133,-130,189c0,0,-85,77,-185,77c0,0,-72,0,-135,-41c0,0,-63,-40,-100,-118c0,0,-37,-78,-37,-183c0,0,0,-161,85,-276c0,0,85,-116,222,-116c0,0,87,0,168,50c0,0,100,62,173,167l116,-86C1105,290,992,136,899,76c0,0,-144,-93,-320,-93Z" 
id="f3_f"
transform="scale(0.001,-0.001)" />

<path d="M59,0V144H85c0,0,52,0,70,7c0,0,18,8,25,26c0,0,4,11,4,64V808c0,0,0,46,-7,60c0,0,-6,14,-19,22c0,0,-14,7,-53,7H59v143H928L1046,712L911,663c0,0,-34,81,-80,130c0,0,-46,49,-102,65c0,0,-55,16,-129,16H441V615h52c0,0,59,0,80,9c0,0,20,8,29,26c0,0,9,19,9,73v40H744V322H611v45c0,0,0,45,-11,66c0,0,-11,21,-29,29c0,0,-19,7,-83,7H441V230c0,0,0,-38,4,-47c0,0,3,-8,14,-12c0,0,11,-5,47,-5h87c0,0,98,0,165,28c0,0,67,28,120,91c0,0,53,63,81,149l136,-47L959,0Z" 
id="f3_g"
transform="scale(0.001,-0.001)" />

<path d="M611,148c0,0,117,0,187,88c0,0,83,105,83,281c0,0,0,124,-35,208c0,0,-36,84,-96,126c0,0,-61,42,-132,42c0,0,-118,0,-189,-89c0,0,-88,-112,-88,-289c0,0,0,-176,82,-279c0,0,71,-88,188,-88ZM608,-17c0,0,-231,0,-378,126C230,109,53,262,53,518c0,0,0,237,155,389c0,0,156,151,407,151c0,0,248,0,401,-151c0,0,153,-150,153,-386c0,0,0,-159,-70,-282c0,0,-70,-123,-193,-190c0,0,-124,-66,-298,-66Z" 
id="f3_j"
transform="scale(0.001,-0.001)" />

<path d="M59,0V144H92c0,0,57,0,74,14c0,0,18,15,18,59V815c0,0,0,41,-7,55c0,0,-7,13,-22,20c0,0,-16,7,-63,7H59v143H919L1037,709L902,662c0,0,-33,72,-63,109c0,0,-29,37,-70,61c0,0,-41,25,-89,33c0,0,-32,5,-114,5H438V594h66c0,0,37,0,58,12c0,0,22,11,31,29c0,0,9,18,9,60v55H736V284H602v67c0,0,0,29,-5,43c0,0,-7,18,-19,29c0,0,-12,11,-27,15c0,0,-15,5,-55,5H438V224c0,0,0,-39,7,-53c0,0,6,-14,21,-21c0,0,15,-6,58,-6h42V0Z" 
id="f3_h"
transform="scale(0.001,-0.001)" />

<path d="M610,480L509,765L404,480ZM2,0V144c0,0,39,0,56,6c0,0,18,7,30,21c0,0,11,13,25,49l322,820H669L981,237c0,0,25,-64,45,-79c0,0,19,-14,68,-14c2,0,3,0,5,0V0H606V144h30c0,0,41,0,58,11c0,0,16,11,16,27c0,0,0,13,-14,55l-32,94H349L310,226c0,0,-12,-33,-12,-44c0,0,0,-11,8,-21c0,0,9,-10,28,-14c0,0,13,-3,71,-3V0Z" 
id="f3_e"
transform="scale(0.001,-0.001)" />

<path d="M59,0V144h42c0,0,39,0,54,7c0,0,15,7,22,22c0,0,7,15,7,57V813c0,0,0,40,-5,52c0,0,-7,17,-21,24c0,0,-13,8,-42,8H59v143H530L711,408l185,632h481V897h-52c0,0,-41,0,-57,-18c0,0,-16,-17,-16,-66V222c0,0,0,-39,4,-48c0,0,7,-15,19,-21c0,0,16,-9,43,-9h59V0H876V144h39c0,0,42,0,57,6c0,0,15,7,22,21c0,0,7,14,7,51V862L748,0H604L359,835V202c0,0,0,-22,8,-34c0,0,8,-12,22,-18c0,0,15,-6,47,-6h50V0Z" 
id="f3_i"
transform="scale(0.001,-0.001)" />


</defs>
</svg>