<?xml version="1.0" encoding="UTF-8" standalone="no"?>
<!DOCTYPE svg PUBLIC "-//W3C//DTD SVG 1.1//EN"
"http://www.w3.org/Graphics/SVG/1.1/DTD/svg11.dtd">
<svg viewBox="0 0 909 1286" version="1.1" xmlns="http://www.w3.org/2000/svg" xmlns:xlink="http://www.w3.org/1999/xlink">
<defs>
<style type="text/css"><![CDATA[
.g0_33{
fill: none;
stroke: #000000;
stroke-width: 0.15277778;
stroke-linecap: round;
stroke-linejoin: miter;
}
.g1_33{
}
.g2_33{
fill: #FFFFFF;
}
]]></style>
</defs>
<g fill="#000000" >
<use xlink:href="#f0_m" transform="matrix(10,0,0,10,102.1,154.6)" />
<use xlink:href="#f0_i" transform="matrix(10,0,0,10,109.5,154.6)" />
<use xlink:href="#f0_p" transform="matrix(10,0,0,10,112.9,154.6)" />
<use xlink:href="#f0_1d" transform="matrix(10,0,0,10,122.8,154.6)" />
<use xlink:href="#f0_2b" transform="matrix(10,0,0,10,137.1,154.6)" />
<use xlink:href="#f0_20" transform="matrix(10,0,0,10,144.5,154.6)" />
<use xlink:href="#f0_21" transform="matrix(10,0,0,10,152.6,154.6)" />
<use xlink:href="#f0_2e" transform="matrix(10,0,0,10,159,154.6)" />
<use xlink:href="#f0_2a" transform="matrix(10,0,0,10,165.4,154.6)" />
<use xlink:href="#f0_1g" transform="matrix(10,0,0,10,175.9,154.6)" />
<use xlink:href="#f0_21" transform="matrix(10,0,0,10,184.9,154.6)" />
<use xlink:href="#f0_2e" transform="matrix(10,0,0,10,191.3,154.6)" />
<use xlink:href="#f0_25" transform="matrix(10,0,0,10,197.7,154.6)" />
<use xlink:href="#f0_2b" transform="matrix(10,0,0,10,201.6,154.6)" />
<use xlink:href="#f0_20" transform="matrix(10,0,0,10,208.9,154.6)" />
<use xlink:href="#f0_25" transform="matrix(10,0,0,10,217,154.6)" />
<use xlink:href="#f0_1z" transform="matrix(10,0,0,10,220.9,154.6)" />
<use xlink:href="#f0_1c" transform="matrix(10,0,0,10,229.9,154.6)" />
<use xlink:href="#f0_1x" transform="matrix(10,0,0,10,239.6,154.6)" />
<use xlink:href="#f0_2j" transform="matrix(10,0,0,10,246.9,154.6)" />
<use xlink:href="#f1_19" transform="matrix(10,0,0,10,102.1,189.4)" />
<use xlink:href="#f1_2a" transform="matrix(10,0,0,10,107.2,189.4)" />
<use xlink:href="#f1_l" transform="matrix(10,0,0,10,120.4,189.4)" />
<use xlink:href="#f1_t" transform="matrix(10,0,0,10,128.1,189.4)" />
<use xlink:href="#f1_l" transform="matrix(10,0,0,10,135.8,189.4)" />
<use xlink:href="#f1_n" transform="matrix(10,0,0,10,143.5,189.4)" />
<use xlink:href="#f1_g" transform="matrix(10,0,0,10,151.2,189.4)" />
<use xlink:href="#f1_2g" transform="matrix(10,0,0,10,160.8,189.4)" />
<use xlink:href="#f1_24" transform="matrix(10,0,0,10,165,189.4)" />
<use xlink:href="#f1_21" transform="matrix(10,0,0,10,172.5,189.4)" />
<use xlink:href="#f1_15" transform="matrix(10,0,0,10,185,189.4)" />
<use xlink:href="#f1_2a" transform="matrix(10,0,0,10,194.3,189.4)" />
<use xlink:href="#f1_23" transform="matrix(10,0,0,10,201.8,189.4)" />
<use xlink:href="#f1_28" transform="matrix(10,0,0,10,209.3,189.4)" />
<use xlink:href="#f1_25" transform="matrix(10,0,0,10,213.6,189.4)" />
<use xlink:href="#f1_2f" transform="matrix(10,0,0,10,217.8,189.4)" />
<use xlink:href="#f1_24" transform="matrix(10,0,0,10,223.7,189.4)" />
<use xlink:href="#f1_2c" transform="matrix(10,0,0,10,236.9,189.4)" />
<use xlink:href="#f1_24" transform="matrix(10,0,0,10,244.6,189.4)" />
<use xlink:href="#f1_2l" transform="matrix(10,0,0,10,252.1,189.4)" />
<use xlink:href="#f1_2f" transform="matrix(10,0,0,10,259.4,189.4)" />
<use xlink:href="#f1_25" transform="matrix(10,0,0,10,265.3,189.4)" />
<use xlink:href="#f1_1z" transform="matrix(10,0,0,10,269.5,189.4)" />
<use xlink:href="#f1_25" transform="matrix(10,0,0,10,276.3,189.4)" />
<use xlink:href="#f1_2f" transform="matrix(10,0,0,10,280.5,189.4)" />
<use xlink:href="#f1_2g" transform="matrix(10,0,0,10,286.4,189.4)" />
<use xlink:href="#f1_g" transform="matrix(10,0,0,10,290.6,189.4)" />
<use xlink:href="#f1_18" transform="matrix(10,0,0,10,300.2,189.4)" />
<use xlink:href="#f1_21" transform="matrix(10,0,0,10,311.1,189.4)" />
<use xlink:href="#f1_2a" transform="matrix(10,0,0,10,317.9,189.4)" />
<use xlink:href="#f1_2e" transform="matrix(10,0,0,10,325.4,189.4)" />
<use xlink:href="#f1_2l" transform="matrix(10,0,0,10,330.6,189.4)" />
<use xlink:href="#f1_1d" transform="matrix(10,0,0,10,343.6,189.4)" />
<use xlink:href="#f1_2b" transform="matrix(10,0,0,10,357.1,189.4)" />
<use xlink:href="#f1_2f" transform="matrix(10,0,0,10,364.8,189.4)" />
<use xlink:href="#f1_21" transform="matrix(10,0,0,10,370.7,189.4)" />
<use xlink:href="#f1_28" transform="matrix(10,0,0,10,377.5,189.4)" />
<use xlink:href="#f1_21" transform="matrix(10,0,0,10,381.7,189.4)" />
<use xlink:href="#f1_2l" transform="matrix(10,0,0,10,388.5,189.4)" />
<use xlink:href="#f1_2b" transform="matrix(10,0,0,10,401.5,189.4)" />
<use xlink:href="#f1_1y" transform="matrix(10,0,0,10,409.2,189.4)" />
<use xlink:href="#f1_2f" transform="matrix(10,0,0,10,416.9,189.4)" />
<use xlink:href="#f1_21" transform="matrix(10,0,0,10,422.8,189.4)" />
<use xlink:href="#f1_2e" transform="matrix(10,0,0,10,429.5,189.4)" />
<use xlink:href="#f1_2i" transform="matrix(10,0,0,10,434.7,189.4)" />
<use xlink:href="#f1_21" transform="matrix(10,0,0,10,442.2,189.4)" />
<use xlink:href="#f1_20" transform="matrix(10,0,0,10,448.9,189.4)" />
<use xlink:href="#f1_2e" transform="matrix(10,0,0,10,102.1,210)" />
<use xlink:href="#f1_21" transform="matrix(10,0,0,10,107.6,210)" />
<use xlink:href="#f1_23" transform="matrix(10,0,0,10,114.9,210)" />
<use xlink:href="#f1_2h" transform="matrix(10,0,0,10,122.8,210)" />
<use xlink:href="#f1_28" transform="matrix(10,0,0,10,130.9,210)" />
<use xlink:href="#f1_1x" transform="matrix(10,0,0,10,135.5,210)" />
<use xlink:href="#f1_2e" transform="matrix(10,0,0,10,142.8,210)" />
<use xlink:href="#f1_25" transform="matrix(10,0,0,10,148.3,210)" />
<use xlink:href="#f1_2g" transform="matrix(10,0,0,10,153,210)" />
<use xlink:href="#f1_25" transform="matrix(10,0,0,10,157.6,210)" />
<use xlink:href="#f1_21" transform="matrix(10,0,0,10,162.4,210)" />
<use xlink:href="#f1_2f" transform="matrix(10,0,0,10,169.5,210)" />
<use xlink:href="#f1_25" transform="matrix(10,0,0,10,182.1,210)" />
<use xlink:href="#f1_2a" transform="matrix(10,0,0,10,186.7,210)" />
<use xlink:href="#f1_2g" transform="matrix(10,0,0,10,200.8,210)" />
<use xlink:href="#f1_24" transform="matrix(10,0,0,10,205.6,210)" />
<use xlink:href="#f1_21" transform="matrix(10,0,0,10,213.5,210)" />
<use xlink:href="#f1_1z" transform="matrix(10,0,0,10,227,210)" />
<use xlink:href="#f1_24" transform="matrix(10,0,0,10,234.3,210)" />
<use xlink:href="#f1_1x" transform="matrix(10,0,0,10,242.2,210)" />
<use xlink:href="#f1_2e" transform="matrix(10,0,0,10,249.5,210)" />
<use xlink:href="#f1_1x" transform="matrix(10,0,0,10,255,210)" />
<use xlink:href="#f1_1z" transform="matrix(10,0,0,10,262.4,210)" />
<use xlink:href="#f1_2g" transform="matrix(10,0,0,10,269.5,210)" />
<use xlink:href="#f1_21" transform="matrix(10,0,0,10,274.1,210)" />
<use xlink:href="#f1_2e" transform="matrix(10,0,0,10,281.4,210)" />
<use xlink:href="#f1_25" transform="matrix(10,0,0,10,286.9,210)" />
<use xlink:href="#f1_2f" transform="matrix(10,0,0,10,291.6,210)" />
<use xlink:href="#f1_2g" transform="matrix(10,0,0,10,297.9,210)" />
<use xlink:href="#f1_25" transform="matrix(10,0,0,10,302.6,210)" />
<use xlink:href="#f1_1z" transform="matrix(10,0,0,10,307.2,210)" />
<use xlink:href="#f1_1o" transform="matrix(10,0,0,10,320.6,210)" />
<use xlink:href="#f1_h" transform="matrix(10,0,0,10,332.1,210)" />
<use xlink:href="#f1_2e" transform="matrix(10,0,0,10,337.4,210)" />
<use xlink:href="#f1_1x" transform="matrix(10,0,0,10,343.1,210)" />
<use xlink:href="#f1_2l" transform="matrix(10,0,0,10,350.2,210)" />
<use xlink:href="#f1_2f" transform="matrix(10,0,0,10,364.4,210)" />
<use xlink:href="#f1_2c" transform="matrix(10,0,0,10,370.6,210)" />
<use xlink:href="#f1_21" transform="matrix(10,0,0,10,378.8,210)" />
<use xlink:href="#f1_1z" transform="matrix(10,0,0,10,386,210)" />
<use xlink:href="#f1_2g" transform="matrix(10,0,0,10,393.3,210)" />
<use xlink:href="#f1_2e" transform="matrix(10,0,0,10,397.9,210)" />
<use xlink:href="#f1_1x" transform="matrix(10,0,0,10,403.5,210)" />
<use xlink:href="#f1_2b" transform="matrix(10,0,0,10,416.9,210)" />
<use xlink:href="#f1_22" transform="matrix(10,0,0,10,425,210)" />
<use xlink:href="#f1_2g" transform="matrix(10,0,0,10,436.7,210)" />
<use xlink:href="#f1_24" transform="matrix(10,0,0,10,441.4,210)" />
<use xlink:href="#f1_21" transform="matrix(10,0,0,10,449.3,210)" />
<use xlink:href="#f1_21" transform="matrix(10,0,0,10,102.1,236.2)" />
<use xlink:href="#f1_28" transform="matrix(10,0,0,10,108.9,236.2)" />
<use xlink:href="#f1_21" transform="matrix(10,0,0,10,113.1,236.2)" />
<use xlink:href="#f1_29" transform="matrix(10,0,0,10,119.9,236.2)" />
<use xlink:href="#f1_21" transform="matrix(10,0,0,10,131.5,236.2)" />
<use xlink:href="#f1_2a" transform="matrix(10,0,0,10,138.2,236.2)" />
<use xlink:href="#f1_2g" transform="matrix(10,0,0,10,145.7,236.2)" />
<use xlink:href="#f1_2f" transform="matrix(10,0,0,10,150,236.2)" />
<use xlink:href="#f1_i" transform="matrix(10,0,0,10,155.8,236.2)" />
<use xlink:href="#f1_11" transform="matrix(10,0,0,10,163.9,236.2)" />
<use xlink:href="#f1_2c" transform="matrix(10,0,0,10,178.8,236.2)" />
<use xlink:href="#f1_28" transform="matrix(10,0,0,10,186.5,236.2)" />
<use xlink:href="#f1_2b" transform="matrix(10,0,0,10,190.7,236.2)" />
<use xlink:href="#f1_2g" transform="matrix(10,0,0,10,198.4,236.2)" />
<use xlink:href="#f1_2b" transform="matrix(10,0,0,10,207.8,236.2)" />
<use xlink:href="#f1_22" transform="matrix(10,0,0,10,215.5,236.2)" />
</g>
<path d="M228.7,235.5l1.6,-.9m0,0l3.8,6.1m0,0l4.1,-16m0,0h9.4" class="g0_33" />
<path d="M228.6,235.3l2.1,-1.1l3.4,5l3.8,-14.9h9.7v.7h-9.1l-4,15.7h-.8l-3.8,-5.6l-1.1,.7Z" class="g1_33" />
<g fill="#000000" >
<use xlink:href="#f1_2i" transform="matrix(10,0,0,10,239.1,239.3)" />
<use xlink:href="#f1_c" transform="matrix(10,0,0,10,257,236.2)" />
<use xlink:href="#f1_2j" transform="matrix(10,0,0,10,262.2,236.2)" />
<use xlink:href="#f1_24" transform="matrix(10,0,0,10,272.8,236.2)" />
<use xlink:href="#f1_21" transform="matrix(10,0,0,10,280.3,236.2)" />
<use xlink:href="#f1_2e" transform="matrix(10,0,0,10,287.1,236.2)" />
<use xlink:href="#f1_21" transform="matrix(10,0,0,10,292.2,236.2)" />
<use xlink:href="#f1_2i" transform="matrix(10,0,0,10,304.1,236.2)" />
<use xlink:href="#f1_25" transform="matrix(10,0,0,10,316.8,236.2)" />
<use xlink:href="#f1_2f" transform="matrix(10,0,0,10,321,236.2)" />
<use xlink:href="#f1_22" transform="matrix(10,0,0,10,332,236.2)" />
<use xlink:href="#f1_2e" transform="matrix(10,0,0,10,337,236.2)" />
<use xlink:href="#f1_21" transform="matrix(10,0,0,10,342.1,236.2)" />
<use xlink:href="#f1_2d" transform="matrix(10,0,0,10,348.9,236.2)" />
<use xlink:href="#f1_2h" transform="matrix(10,0,0,10,356.6,236.2)" />
<use xlink:href="#f1_21" transform="matrix(10,0,0,10,364.1,236.2)" />
<use xlink:href="#f1_2a" transform="matrix(10,0,0,10,370.8,236.2)" />
<use xlink:href="#f1_1z" transform="matrix(10,0,0,10,378.4,236.2)" />
<use xlink:href="#f1_2l" transform="matrix(10,0,0,10,385.1,236.2)" />
<use xlink:href="#f1_2b" transform="matrix(10,0,0,10,397.6,236.2)" />
<use xlink:href="#f1_22" transform="matrix(10,0,0,10,405.3,236.2)" />
<use xlink:href="#f1_1o" transform="matrix(10,0,0,10,415.4,236.2)" />
<use xlink:href="#f1_h" transform="matrix(10,0,0,10,426.4,236.2)" />
<use xlink:href="#f1_2e" transform="matrix(10,0,0,10,431.3,236.2)" />
<use xlink:href="#f1_1x" transform="matrix(10,0,0,10,436.5,236.2)" />
<use xlink:href="#f1_2l" transform="matrix(10,0,0,10,443.2,236.2)" />
<use xlink:href="#f1_2f" transform="matrix(10,0,0,10,450.6,236.2)" />
<use xlink:href="#f1_21" transform="matrix(10,0,0,10,102.1,261.7)" />
<use xlink:href="#f1_29" transform="matrix(10,0,0,10,108.9,261.7)" />
<use xlink:href="#f1_25" transform="matrix(10,0,0,10,120.3,261.7)" />
<use xlink:href="#f1_2g" transform="matrix(10,0,0,10,124.5,261.7)" />
<use xlink:href="#f1_2g" transform="matrix(10,0,0,10,128.5,261.7)" />
<use xlink:href="#f1_21" transform="matrix(10,0,0,10,132.8,261.7)" />
<use xlink:href="#f1_20" transform="matrix(10,0,0,10,139.4,261.7)" />
<use xlink:href="#f1_d" transform="matrix(10,0,0,10,147.1,261.7)" />
<use xlink:href="#f1_1x" transform="matrix(10,0,0,10,155,261.7)" />
<use xlink:href="#f1_23" transform="matrix(10,0,0,10,161.6,261.7)" />
<use xlink:href="#f1_1x" transform="matrix(10,0,0,10,169.1,261.7)" />
<use xlink:href="#f1_25" transform="matrix(10,0,0,10,175.7,261.7)" />
<use xlink:href="#f1_2a" transform="matrix(10,0,0,10,179.9,261.7)" />
<use xlink:href="#f1_2f" transform="matrix(10,0,0,10,187.3,261.7)" />
<use xlink:href="#f1_2g" transform="matrix(10,0,0,10,193.1,261.7)" />
<use xlink:href="#f0_1x" transform="matrix(10,0,0,10,200,261.7)" />
<use xlink:href="#f0_2g" transform="matrix(10,0,0,10,207.5,261.7)" />
<use xlink:href="#f0_2b" transform="matrix(10,0,0,10,212.7,261.7)" />
<use xlink:href="#f0_29" transform="matrix(10,0,0,10,220.2,261.7)" />
<use xlink:href="#f0_25" transform="matrix(10,0,0,10,232.5,261.7)" />
<use xlink:href="#f0_1z" transform="matrix(10,0,0,10,236.5,261.7)" />
<use xlink:href="#f0_2a" transform="matrix(10,0,0,10,246.1,261.7)" />
<use xlink:href="#f0_2h" transform="matrix(10,0,0,10,254.5,261.7)" />
<use xlink:href="#f0_29" transform="matrix(10,0,0,10,262.8,261.7)" />
<use xlink:href="#f0_1y" transform="matrix(10,0,0,10,275.1,261.7)" />
<use xlink:href="#f0_21" transform="matrix(10,0,0,10,283.3,261.7)" />
<use xlink:href="#f0_2e" transform="matrix(10,0,0,10,290.1,261.7)" />
<use xlink:href="#f1_c" transform="matrix(10,0,0,10,299.4,261.7)" />
<use xlink:href="#f1_1q" transform="matrix(10,0,0,10,304.5,261.7)" />
<use xlink:href="#f1_d" transform="matrix(10,0,0,10,313.5,261.7)" />
<use xlink:href="#f1_23" transform="matrix(10,0,0,10,321.4,261.7)" />
<use xlink:href="#f1_1x" transform="matrix(10,0,0,10,328.9,261.7)" />
<use xlink:href="#f1_2i" transform="matrix(10,0,0,10,335.5,261.7)" />
<use xlink:href="#f1_21" transform="matrix(10,0,0,10,343,261.7)" />
<use xlink:href="#f1_1x" transform="matrix(10,0,0,10,352.4,261.7)" />
<use xlink:href="#f1_2f" transform="matrix(10,0,0,10,361.9,261.7)" />
<use xlink:href="#f1_2g" transform="matrix(10,0,0,10,367.6,261.7)" />
<use xlink:href="#f1_2e" transform="matrix(10,0,0,10,371.9,261.7)" />
<use xlink:href="#f1_1x" transform="matrix(10,0,0,10,376.8,261.7)" />
<use xlink:href="#f1_25" transform="matrix(10,0,0,10,383.6,261.7)" />
<use xlink:href="#f1_23" transform="matrix(10,0,0,10,387.6,261.7)" />
<use xlink:href="#f1_24" transform="matrix(10,0,0,10,395.2,261.7)" />
<use xlink:href="#f1_2g" transform="matrix(10,0,0,10,402.5,261.7)" />
<use xlink:href="#f1_28" transform="matrix(10,0,0,10,409.5,261.7)" />
<use xlink:href="#f1_25" transform="matrix(10,0,0,10,413.7,261.7)" />
<use xlink:href="#f1_2a" transform="matrix(10,0,0,10,417.7,261.7)" />
<use xlink:href="#f1_21" transform="matrix(10,0,0,10,425.3,261.7)" />
<use xlink:href="#f1_1x" transform="matrix(10,0,0,10,434.8,261.7)" />
<use xlink:href="#f1_2a" transform="matrix(10,0,0,10,441.4,261.7)" />
<use xlink:href="#f1_20" transform="matrix(10,0,0,10,448.9,261.7)" />
<use xlink:href="#f1_2a" transform="matrix(10,0,0,10,102.1,287.9)" />
<use xlink:href="#f1_2b" transform="matrix(10,0,0,10,109.6,287.9)" />
<use xlink:href="#f1_2g" transform="matrix(10,0,0,10,117.3,287.9)" />
<use xlink:href="#f1_2g" transform="matrix(10,0,0,10,125.4,287.9)" />
<use xlink:href="#f1_24" transform="matrix(10,0,0,10,129.6,287.9)" />
<use xlink:href="#f1_21" transform="matrix(10,0,0,10,137.2,287.9)" />
<use xlink:href="#f1_2c" transform="matrix(10,0,0,10,147.8,287.9)" />
<use xlink:href="#f1_28" transform="matrix(10,0,0,10,155.5,287.9)" />
<use xlink:href="#f1_2b" transform="matrix(10,0,0,10,159.7,287.9)" />
<use xlink:href="#f1_2g" transform="matrix(10,0,0,10,167.4,287.9)" />
<use xlink:href="#f1_2b" transform="matrix(10,0,0,10,175.5,287.9)" />
<use xlink:href="#f1_22" transform="matrix(10,0,0,10,183.2,287.9)" />
</g>
<path d="M195.2,287.2l1.6,-.9m0,0l3.7,6.1m0,0l4.1,-16m0,0h9.5" class="g0_33" />
<path d="M195.1,287l2.1,-1.1l3.3,5L204.4,276h9.7v.7h-9.2l-4,15.7h-.7l-3.8,-5.6l-1.1,.7Z" class="g1_33" />
<g fill="#000000" >
<use xlink:href="#f1_2i" transform="matrix(10,0,0,10,205.6,291)" />
<use xlink:href="#f1_2i" transform="matrix(10,0,0,10,222.2,287.9)" />
<use xlink:href="#f1_2f" transform="matrix(10,0,0,10,229.7,287.9)" />
<use xlink:href="#f1_1x" transform="matrix(10,0,0,10,239.6,287.9)" />
<use xlink:href="#f1_2g" transform="matrix(10,0,0,10,246.4,287.9)" />
<use xlink:href="#f1_2b" transform="matrix(10,0,0,10,250.6,287.9)" />
<use xlink:href="#f1_29" transform="matrix(10,0,0,10,258.3,287.9)" />
<use xlink:href="#f1_25" transform="matrix(10,0,0,10,269.9,287.9)" />
<use xlink:href="#f1_1z" transform="matrix(10,0,0,10,274.1,287.9)" />
<use xlink:href="#f1_29" transform="matrix(10,0,0,10,284.7,287.9)" />
<use xlink:href="#f1_1x" transform="matrix(10,0,0,10,296.3,287.9)" />
<use xlink:href="#f1_2f" transform="matrix(10,0,0,10,303.1,287.9)" />
<use xlink:href="#f1_2f" transform="matrix(10,0,0,10,309,287.9)" />
<use xlink:href="#f1_i" transform="matrix(10,0,0,10,314.8,287.9)" />
</g>
<path fill-rule="evenodd" d="M93.3,133H267.9v35.2H93.3V133l2.4,33h170V135.4H95.7V166L93.3,133Z" class="g1_33" />
<g fill="#000000" >
<use xlink:href="#f2_1d" transform="matrix(10,0,0,10,512.6,146.7)" />
<use xlink:href="#f2_21" transform="matrix(10,0,0,10,527.2,146.7)" />
<use xlink:href="#f2_2a" transform="matrix(10,0,0,10,534.2,146.7)" />
<use xlink:href="#f2_20" transform="matrix(10,0,0,10,542.6,146.7)" />
<use xlink:href="#f2_21" transform="matrix(10,0,0,10,551.1,146.7)" />
<use xlink:href="#f2_28" transform="matrix(10,0,0,10,558,146.7)" />
<use xlink:href="#f2_21" transform="matrix(10,0,0,10,562.2,146.7)" />
<use xlink:href="#f2_21" transform="matrix(10,0,0,10,569,146.7)" />
<use xlink:href="#f2_2i" transform="matrix(10,0,0,10,575.9,146.7)" />
<use xlink:href="#f2_1k5" transform="matrix(10,0,0,10,583.6,146.7)" />
<use xlink:href="#f2_2f" transform="matrix(10,0,0,10,588.7,146.7)" />
<use xlink:href="#f2_1g" transform="matrix(10,0,0,10,600.5,146.7)" />
<use xlink:href="#f2_21" transform="matrix(10,0,0,10,609.8,146.7)" />
<use xlink:href="#f2_2e" transform="matrix(10,0,0,10,616.7,146.7)" />
<use xlink:href="#f2_25" transform="matrix(10,0,0,10,623.5,146.7)" />
<use xlink:href="#f2_2b" transform="matrix(10,0,0,10,627.7,146.7)" />
<use xlink:href="#f2_20" transform="matrix(10,0,0,10,635.6,146.7)" />
<use xlink:href="#f2_25" transform="matrix(10,0,0,10,644,146.7)" />
<use xlink:href="#f2_1z" transform="matrix(10,0,0,10,648.2,146.7)" />
<use xlink:href="#f2_1c" transform="matrix(10,0,0,10,661,146.7)" />
<use xlink:href="#f2_1x" transform="matrix(10,0,0,10,671.1,146.7)" />
<use xlink:href="#f2_2j" transform="matrix(10,0,0,10,679,146.7)" />
<use xlink:href="#f1_2j" transform="matrix(10,0,0,10,696.3,146.7)" />
<use xlink:href="#f1_1x" transform="matrix(10,0,0,10,707.1,146.7)" />
<use xlink:href="#f1_2f" transform="matrix(10,0,0,10,713.9,146.7)" />
<use xlink:href="#f1_g" transform="matrix(10,0,0,10,719.8,146.7)" />
<use xlink:href="#f1_2g" transform="matrix(10,0,0,10,729.5,146.7)" />
<use xlink:href="#f1_24" transform="matrix(10,0,0,10,733.7,146.7)" />
<use xlink:href="#f1_21" transform="matrix(10,0,0,10,741.4,146.7)" />
<use xlink:href="#f1_2e" transform="matrix(10,0,0,10,748.2,146.7)" />
<use xlink:href="#f1_21" transform="matrix(10,0,0,10,753.3,146.7)" />
<use xlink:href="#f1_22" transform="matrix(10,0,0,10,760.3,146.7)" />
<use xlink:href="#f1_2b" transform="matrix(10,0,0,10,765.2,146.7)" />
<use xlink:href="#f1_2e" transform="matrix(10,0,0,10,772.9,146.7)" />
<use xlink:href="#f1_21" transform="matrix(10,0,0,10,778.2,146.7)" />
<use xlink:href="#f1_g" transform="matrix(10,0,0,10,785,146.7)" />
<use xlink:href="#f1_1x" transform="matrix(10,0,0,10,794.9,146.7)" />
<use xlink:href="#f1_1z" transform="matrix(10,0,0,10,801.7,146.7)" />
<use xlink:href="#f1_1z" transform="matrix(10,0,0,10,808.4,146.7)" />
<use xlink:href="#f1_2b" transform="matrix(10,0,0,10,815.4,146.7)" />
<use xlink:href="#f1_2e" transform="matrix(10,0,0,10,823.1,146.7)" />
<use xlink:href="#f1_20" transform="matrix(10,0,0,10,828.2,146.7)" />
<use xlink:href="#f1_25" transform="matrix(10,0,0,10,836.1,146.7)" />
<use xlink:href="#f1_2a" transform="matrix(10,0,0,10,840.3,146.7)" />
<use xlink:href="#f1_23" transform="matrix(10,0,0,10,847.8,146.7)" />
<use xlink:href="#f1_28" transform="matrix(10,0,0,10,855.5,146.7)" />
<use xlink:href="#f1_2l" transform="matrix(10,0,0,10,859.8,146.7)" />
<use xlink:href="#f1_29" transform="matrix(10,0,0,10,512.8,167.4)" />
<use xlink:href="#f1_2b" transform="matrix(10,0,0,10,524.4,167.4)" />
<use xlink:href="#f1_20" transform="matrix(10,0,0,10,532,167.4)" />
<use xlink:href="#f1_25" transform="matrix(10,0,0,10,539.7,167.4)" />
<use xlink:href="#f1_22" transform="matrix(10,0,0,10,544,167.4)" />
<use xlink:href="#f1_25" transform="matrix(10,0,0,10,548.9,167.4)" />
<use xlink:href="#f1_21" transform="matrix(10,0,0,10,553.2,167.4)" />
<use xlink:href="#f1_20" transform="matrix(10,0,0,10,559.9,167.4)" />
<use xlink:href="#f1_i" transform="matrix(10,0,0,10,567.6,167.4)" />
<use xlink:href="#f1_1k" transform="matrix(10,0,0,10,574.6,167.4)" />
<use xlink:href="#f1_24" transform="matrix(10,0,0,10,584.1,167.4)" />
<use xlink:href="#f1_25" transform="matrix(10,0,0,10,591.7,167.4)" />
<use xlink:href="#f1_2f" transform="matrix(10,0,0,10,595.9,167.4)" />
<use xlink:href="#f1_25" transform="matrix(10,0,0,10,605.1,167.4)" />
<use xlink:href="#f1_2f" transform="matrix(10,0,0,10,609.3,167.4)" />
<use xlink:href="#f1_27" transform="matrix(10,0,0,10,618.3,167.4)" />
<use xlink:href="#f1_2a" transform="matrix(10,0,0,10,625.8,167.4)" />
<use xlink:href="#f1_2b" transform="matrix(10,0,0,10,633.3,167.4)" />
<use xlink:href="#f1_2j" transform="matrix(10,0,0,10,641,167.4)" />
<use xlink:href="#f1_2a" transform="matrix(10,0,0,10,651.7,167.4)" />
<use xlink:href="#f1_1x" transform="matrix(10,0,0,10,662.3,167.4)" />
<use xlink:href="#f1_2f" transform="matrix(10,0,0,10,669.1,167.4)" />
<use xlink:href="#f1_2g" transform="matrix(10,0,0,10,678.2,167.4)" />
<use xlink:href="#f1_24" transform="matrix(10,0,0,10,682.5,167.4)" />
<use xlink:href="#f1_21" transform="matrix(10,0,0,10,690,167.4)" />
<use xlink:href="#f0_1d" transform="matrix(10,0,0,10,699.8,167.4)" />
<use xlink:href="#f0_2b" transform="matrix(10,0,0,10,714.4,167.4)" />
<use xlink:href="#f0_20" transform="matrix(10,0,0,10,722.1,167.4)" />
<use xlink:href="#f0_21" transform="matrix(10,0,0,10,730.6,167.4)" />
<use xlink:href="#f0_2e" transform="matrix(10,0,0,10,737.4,167.4)" />
<use xlink:href="#f0_2a" transform="matrix(10,0,0,10,744.1,167.4)" />
<use xlink:href="#f0_1g" transform="matrix(10,0,0,10,755.7,167.4)" />
<use xlink:href="#f0_21" transform="matrix(10,0,0,10,765,167.4)" />
<use xlink:href="#f0_2e" transform="matrix(10,0,0,10,771.8,167.4)" />
<use xlink:href="#f0_25" transform="matrix(10,0,0,10,778.6,167.4)" />
<use xlink:href="#f0_2b" transform="matrix(10,0,0,10,782.8,167.4)" />
<use xlink:href="#f0_20" transform="matrix(10,0,0,10,790.5,167.4)" />
<use xlink:href="#f0_25" transform="matrix(10,0,0,10,799,167.4)" />
<use xlink:href="#f0_1z" transform="matrix(10,0,0,10,803.2,167.4)" />
<use xlink:href="#f0_1c" transform="matrix(10,0,0,10,813.1,167.4)" />
<use xlink:href="#f0_1x" transform="matrix(10,0,0,10,823.2,167.4)" />
<use xlink:href="#f0_2j" transform="matrix(10,0,0,10,830.9,167.4)" />
<use xlink:href="#f1_1x" transform="matrix(10,0,0,10,845.2,167.4)" />
<use xlink:href="#f1_2a" transform="matrix(10,0,0,10,851.9,167.4)" />
<use xlink:href="#f1_20" transform="matrix(10,0,0,10,859.5,167.4)" />
<use xlink:href="#f1_1z" transform="matrix(10,0,0,10,512.8,188)" />
<use xlink:href="#f1_1x" transform="matrix(10,0,0,10,519.6,188)" />
<use xlink:href="#f1_2a" transform="matrix(10,0,0,10,526.3,188)" />
<use xlink:href="#f1_1y" transform="matrix(10,0,0,10,538.2,188)" />
<use xlink:href="#f1_21" transform="matrix(10,0,0,10,545.9,188)" />
<use xlink:href="#f1_2f" transform="matrix(10,0,0,10,556.9,188)" />
<use xlink:href="#f1_2g" transform="matrix(10,0,0,10,562.8,188)" />
<use xlink:href="#f1_1x" transform="matrix(10,0,0,10,567,188)" />
<use xlink:href="#f1_2g" transform="matrix(10,0,0,10,573.8,188)" />
<use xlink:href="#f1_21" transform="matrix(10,0,0,10,578,188)" />
<use xlink:href="#f1_20" transform="matrix(10,0,0,10,584.8,188)" />
<use xlink:href="#f1_1x" transform="matrix(10,0,0,10,596.9,188)" />
<use xlink:href="#f1_2f" transform="matrix(10,0,0,10,603.7,188)" />
<use xlink:href="#f1_u" transform="matrix(10,0,0,10,613.9,188)" />
<use xlink:href="#f3_1k" transform="matrix(10,0,0,10,512.6,215.1)" />
<use xlink:href="#f3_24" transform="matrix(10,0,0,10,521.9,215.1)" />
<use xlink:href="#f3_21" transform="matrix(10,0,0,10,530.4,215.1)" />
<use xlink:href="#f3_2c" transform="matrix(10,0,0,10,540.5,215.1)" />
<use xlink:href="#f3_24" transform="matrix(10,0,0,10,548.2,215.1)" />
<use xlink:href="#f3_2l" transform="matrix(10,0,0,10,556.6,215.1)" />
<use xlink:href="#f3_2f" transform="matrix(10,0,0,10,563.4,215.1)" />
<use xlink:href="#f3_25" transform="matrix(10,0,0,10,569.3,215.1)" />
<use xlink:href="#f3_1z" transform="matrix(10,0,0,10,573.5,215.1)" />
<use xlink:href="#f3_1x" transform="matrix(10,0,0,10,580.3,215.1)" />
<use xlink:href="#f3_28" transform="matrix(10,0,0,10,588,215.1)" />
<use xlink:href="#f3_1x" transform="matrix(10,0,0,10,595.7,215.1)" />
<use xlink:href="#f3_2a" transform="matrix(10,0,0,10,603.4,215.1)" />
<use xlink:href="#f3_20" transform="matrix(10,0,0,10,611.8,215.1)" />
<use xlink:href="#f3_1z" transform="matrix(10,0,0,10,622.8,215.1)" />
<use xlink:href="#f3_24" transform="matrix(10,0,0,10,629.6,215.1)" />
<use xlink:href="#f3_21" transform="matrix(10,0,0,10,638,215.1)" />
<use xlink:href="#f3_29" transform="matrix(10,0,0,10,644.8,215.1)" />
<use xlink:href="#f3_25" transform="matrix(10,0,0,10,656.9,215.1)" />
<use xlink:href="#f3_1z" transform="matrix(10,0,0,10,661.1,215.1)" />
<use xlink:href="#f3_1x" transform="matrix(10,0,0,10,667.9,215.1)" />
<use xlink:href="#f3_28" transform="matrix(10,0,0,10,675.6,215.1)" />
<use xlink:href="#f3_2c" transform="matrix(10,0,0,10,683.1,215.1)" />
<use xlink:href="#f3_2e" transform="matrix(10,0,0,10,690.8,215.1)" />
<use xlink:href="#f3_2b" transform="matrix(10,0,0,10,696.7,215.1)" />
<use xlink:href="#f3_2c" transform="matrix(10,0,0,10,704.4,215.1)" />
<use xlink:href="#f3_21" transform="matrix(10,0,0,10,712.1,215.1)" />
<use xlink:href="#f3_2e" transform="matrix(10,0,0,10,718.9,215.1)" />
<use xlink:href="#f3_2g" transform="matrix(10,0,0,10,724.8,215.1)" />
<use xlink:href="#f3_25" transform="matrix(10,0,0,10,729,215.1)" />
<use xlink:href="#f3_21" transform="matrix(10,0,0,10,733.2,215.1)" />
<use xlink:href="#f3_2f" transform="matrix(10,0,0,10,740,215.1)" />
<use xlink:href="#f3_2b" transform="matrix(10,0,0,10,749.4,215.1)" />
<use xlink:href="#f3_22" transform="matrix(10,0,0,10,757.1,215.1)" />
<use xlink:href="#f3_2g" transform="matrix(10,0,0,10,765.5,215.1)" />
<use xlink:href="#f3_24" transform="matrix(10,0,0,10,769.7,215.1)" />
<use xlink:href="#f3_21" transform="matrix(10,0,0,10,778.2,215.1)" />
<use xlink:href="#f3_21" transform="matrix(10,0,0,10,788.4,215.1)" />
<use xlink:href="#f3_28" transform="matrix(10,0,0,10,795.2,215.1)" />
<use xlink:href="#f3_21" transform="matrix(10,0,0,10,799.4,215.1)" />
<use xlink:href="#f3_29" transform="matrix(10,0,0,10,806.2,215.1)" />
<use xlink:href="#f3_21" transform="matrix(10,0,0,10,818.3,215.1)" />
<use xlink:href="#f3_2a" transform="matrix(10,0,0,10,825.1,215.1)" />
<use xlink:href="#f3_2g" transform="matrix(10,0,0,10,833.5,215.1)" />
<use xlink:href="#f3_2f" transform="matrix(10,0,0,10,837.7,215.1)" />
<use xlink:href="#f3_1x" transform="matrix(10,0,0,10,846.9,215.1)" />
<use xlink:href="#f3_2e" transform="matrix(10,0,0,10,854.6,215.1)" />
<use xlink:href="#f3_21" transform="matrix(10,0,0,10,860.5,215.1)" />
<use xlink:href="#f3_2c" transform="matrix(10,0,0,10,512.8,235.8)" />
<use xlink:href="#f3_21" transform="matrix(10,0,0,10,520.5,235.8)" />
<use xlink:href="#f3_2e" transform="matrix(10,0,0,10,527.3,235.8)" />
<use xlink:href="#f3_25" transform="matrix(10,0,0,10,533.1,235.8)" />
<use xlink:href="#f3_2b" transform="matrix(10,0,0,10,537.4,235.8)" />
<use xlink:href="#f3_20" transform="matrix(10,0,0,10,545.1,235.8)" />
<use xlink:href="#f3_25" transform="matrix(10,0,0,10,552.8,235.8)" />
<use xlink:href="#f3_1z" transform="matrix(10,0,0,10,557,235.8)" />
<use xlink:href="#f3_22" transform="matrix(10,0,0,10,567.2,235.8)" />
<use xlink:href="#f3_2h" transform="matrix(10,0,0,10,572.4,235.8)" />
<use xlink:href="#f3_2a" transform="matrix(10,0,0,10,580.8,235.8)" />
<use xlink:href="#f3_1z" transform="matrix(10,0,0,10,589.3,235.8)" />
<use xlink:href="#f3_2g" transform="matrix(10,0,0,10,596,235.8)" />
<use xlink:href="#f3_25" transform="matrix(10,0,0,10,600.3,235.8)" />
<use xlink:href="#f3_2b" transform="matrix(10,0,0,10,604.5,235.8)" />
<use xlink:href="#f3_2a" transform="matrix(10,0,0,10,612.2,235.8)" />
<use xlink:href="#f3_2f" transform="matrix(10,0,0,10,620.6,235.8)" />
<use xlink:href="#f3_2b" transform="matrix(10,0,0,10,630,235.8)" />
<use xlink:href="#f3_22" transform="matrix(10,0,0,10,637.7,235.8)" />
<use xlink:href="#f3_2g" transform="matrix(10,0,0,10,646.1,235.8)" />
<use xlink:href="#f3_24" transform="matrix(10,0,0,10,650.4,235.8)" />
<use xlink:href="#f3_21" transform="matrix(10,0,0,10,658.8,235.8)" />
<use xlink:href="#f3_25" transform="matrix(10,0,0,10,665.6,235.8)" />
<use xlink:href="#f3_2e" transform="matrix(10,0,0,10,669.8,235.8)" />
<use xlink:href="#f3_1x" transform="matrix(10,0,0,10,679.2,235.8)" />
<use xlink:href="#f3_2g" transform="matrix(10,0,0,10,686.9,235.8)" />
<use xlink:href="#f3_2b" transform="matrix(10,0,0,10,691.1,235.8)" />
<use xlink:href="#f3_29" transform="matrix(10,0,0,10,698.8,235.8)" />
<use xlink:href="#f3_25" transform="matrix(10,0,0,10,710.9,235.8)" />
<use xlink:href="#f3_1z" transform="matrix(10,0,0,10,715.1,235.8)" />
<use xlink:href="#f3_2a" transform="matrix(10,0,0,10,725.4,235.8)" />
<use xlink:href="#f3_2h" transform="matrix(10,0,0,10,733.8,235.8)" />
<use xlink:href="#f3_29" transform="matrix(10,0,0,10,742.3,235.8)" />
<use xlink:href="#f3_1y" transform="matrix(10,0,0,10,754.4,235.8)" />
<use xlink:href="#f3_21" transform="matrix(10,0,0,10,762.1,235.8)" />
<use xlink:href="#f3_2e" transform="matrix(10,0,0,10,768.8,235.8)" />
<use xlink:href="#f3_2f" transform="matrix(10,0,0,10,774.7,235.8)" />
<use xlink:href="#f3_i" transform="matrix(10,0,0,10,780.6,235.8)" />
</g>
<image preserveAspectRatio="none" x="113" y="888" width="706" height="221" xlink:href="img/1.png" />
<image preserveAspectRatio="none" x="68" y="331" width="796" height="521" xlink:href="img/2.png" />
<path fill-rule="evenodd" d="M66.7,91.2H868.8v28.4H66.7V91.2l1.5,26.9H867.3V92.8H68.2v25.3L66.7,91.2Z" class="g2_33" />
<path fill-rule="evenodd" d="M68.2,116.5H867.7v2.9H68.2v-2.9Z" class="g1_33" />
<path fill-rule="evenodd" d="M68.2,91.4H867.7v3.1H68.2V91.4Z" class="g1_33" />
<g fill="#000000" >
<use xlink:href="#f4_1g" transform="matrix(10,0,0,10,74.1,109.9)" />
<use xlink:href="#f4_15" transform="matrix(10,0,0,10,84.1,109.9)" />
<use xlink:href="#f4_1i" transform="matrix(10,0,0,10,95,109.9)" />
<use xlink:href="#f4_19" transform="matrix(10,0,0,10,106.9,109.9)" />
<use xlink:href="#f4_1f" transform="matrix(10,0,0,10,112.7,109.9)" />
<use xlink:href="#f4_14" transform="matrix(10,0,0,10,124.8,109.9)" />
<use xlink:href="#f4_19" transform="matrix(10,0,0,10,136.5,109.9)" />
<use xlink:href="#f4_13" transform="matrix(10,0,0,10,142.6,109.9)" />
<use xlink:href="#f4_13" transform="matrix(10,0,0,10,157.4,109.9)" />
<use xlink:href="#f4_1c" transform="matrix(10,0,0,10,168.4,109.9)" />
<use xlink:href="#f4_11" transform="matrix(10,0,0,10,178.2,109.9)" />
<use xlink:href="#f4_1j" transform="matrix(10,0,0,10,189.2,109.9)" />
<use xlink:href="#f4_1j" transform="matrix(10,0,0,10,199.1,109.9)" />
<use xlink:href="#f4_19" transform="matrix(10,0,0,10,209.1,109.9)" />
<use xlink:href="#f4_16" transform="matrix(10,0,0,10,215,109.9)" />
<use xlink:href="#f4_19" transform="matrix(10,0,0,10,225.3,109.9)" />
<use xlink:href="#f4_13" transform="matrix(10,0,0,10,231.1,109.9)" />
<use xlink:href="#f4_11" transform="matrix(10,0,0,10,242.3,109.9)" />
<use xlink:href="#f4_1k" transform="matrix(10,0,0,10,253.1,109.9)" />
<use xlink:href="#f4_19" transform="matrix(10,0,0,10,263.8,109.9)" />
<use xlink:href="#f4_1f" transform="matrix(10,0,0,10,269.6,109.9)" />
<use xlink:href="#f4_1e" transform="matrix(10,0,0,10,281.7,109.9)" />
</g>
<path fill-rule="evenodd" d="M67.7,1156.8H861.6v2.4H67.7v-2.4Z" class="g1_33" />
<path fill-rule="evenodd" d="M466.6,301.5V133h1.6V301.5h-1.6Z" class="g1_33" />
<defs>
<path d="M53,0V145c0,0,41,91,117,177c0,0,75,85,190,179c0,0,111,89,155,147c0,0,44,58,44,114c0,0,0,139,-138,139c0,0,-67,0,-102,-37c0,0,-36,-36,-46,-109L62,767c0,0,18,146,109,223c0,0,92,77,249,77c0,0,170,0,261,-78c0,0,91,-77,91,-218c0,0,0,-74,-29,-133c0,0,-29,-60,-75,-110c0,0,-45,-51,-101,-95c0,0,-55,-44,-107,-86c0,0,-53,-41,-96,-84c0,0,-42,-42,-63,-91H789V0Z" 
id="f0_m"
transform="scale(0.001,-0.001)" />

<path d="M104,0V228H319V0Z" 
id="f0_i"
transform="scale(0.001,-0.001)" />

<path d="M418,-14c0,0,-158,0,-254,70c0,0,-95,72,-117,207l210,17c0,0,16,-67,58,-98c0,0,42,-30,105,-30c0,0,78,0,125,50c0,0,47,50,47,144c0,0,0,83,-44,132c0,0,-44,50,-124,50c0,0,-87,0,-142,-68H78l36,591H746V896H304L287,630c0,0,76,67,190,67c0,0,150,0,240,-93c0,0,90,-93,90,-254c0,0,0,-167,-104,-266c0,0,-104,-98,-285,-98Z" 
id="f0_p"
transform="scale(0.001,-0.001)" />

<path d="M102,0V1051H397L585,463l16,-56L637,266l47,168l193,617h293V0H975V637c0,0,0,22,0,43c0,0,1,22,7,186c0,0,-52,-201,-78,-280L715,0H558L369,586L289,866c0,0,9,-173,9,-229V0Z" 
id="f0_1d"
transform="scale(0.001,-0.001)" />

<path d="M461,129c0,0,193,0,193,276c0,0,0,144,-47,209c0,0,-47,65,-136,65c0,0,-191,0,-191,-274c0,0,0,-135,46,-205c0,0,47,-71,135,-71Zm2,-143c0,0,-188,0,-296,111C167,97,60,209,60,405c0,0,0,194,107,306c0,0,108,111,301,111c0,0,197,0,301,-107c0,0,105,-108,105,-310c0,0,0,-197,-109,-308C765,97,656,-14,463,-14Z" 
id="f0_2b"
transform="scale(0.001,-0.001)" />

<path d="M446,129c0,0,83,0,128,73c0,0,46,72,46,206c0,0,0,131,-44,201c0,0,-43,71,-128,71c0,0,-85,0,-126,-69c0,0,-41,-68,-41,-208c0,0,0,-274,165,-274ZM357,-14c0,0,-141,0,-217,109c0,0,-77,110,-77,308c0,0,0,201,81,310c0,0,81,109,229,109c0,0,86,0,148,-35c0,0,62,-36,96,-107h1l-1,132v295H827V176c0,0,0,-75,6,-176H630c0,0,-3,11,-7,56c0,0,-5,46,-5,76h-3c0,0,-67,-146,-258,-146Z" 
id="f0_20"
transform="scale(0.001,-0.001)" />

<path d="M595,495c0,0,-6,98,-47,147c0,0,-41,49,-111,49c0,0,-74,0,-114,-51c0,0,-40,-52,-42,-145ZM437,-14c0,0,-182,0,-280,107c0,0,-97,108,-97,315c0,0,0,199,99,307c0,0,99,107,281,107c0,0,174,0,266,-115c0,0,91,-115,91,-337v-6H280c0,0,0,-118,43,-179c0,0,44,-60,125,-60c0,0,111,0,140,97L786,205c0,0,-86,-219,-349,-219Z" 
id="f0_21"
transform="scale(0.001,-0.001)" />

<path d="M107,0V618c0,0,0,66,-2,111c0,0,-2,44,-4,79H301c0,0,2,-14,6,-83c0,0,3,-68,3,-91h3c0,0,31,85,55,120c0,0,24,35,56,52c0,0,33,16,83,16c0,0,40,0,64,-11V636c0,0,-50,11,-89,11c0,0,-78,0,-122,-63c0,0,-44,-63,-44,-188V0Z" 
id="f0_2e"
transform="scale(0.001,-0.001)" />

<path d="M107,0V627c0,0,0,65,-2,106c0,0,-2,42,-4,75H301c0,0,2,-15,6,-77c0,0,3,-61,3,-85h3c0,0,43,93,107,135c0,0,64,41,153,41c0,0,128,0,197,-79c0,0,68,-79,68,-231V0H630V452c0,0,0,213,-144,213c0,0,-76,0,-123,-65c0,0,-47,-66,-47,-168V0Z" 
id="f0_2a"
transform="scale(0.001,-0.001)" />

<path d="M556,540c0,0,91,0,140,45c0,0,49,45,49,130c0,0,0,166,-195,166H322V540ZM102,0V1051H574c0,0,189,0,291,-87c0,0,102,-87,102,-246c0,0,0,-101,-46,-181c0,0,-47,-80,-133,-124c0,0,-86,-43,-205,-43H322V0Z" 
id="f0_1g"
transform="scale(0.001,-0.001)" />

<path d="M107,0V808H316V0Zm0,952v155H316V952Z" 
id="f0_25"
transform="scale(0.001,-0.001)" />

<path d="M443,-14c0,0,-183,0,-283,109C160,95,60,204,60,399c0,0,0,200,100,312c0,0,101,111,286,111c0,0,143,0,236,-71c0,0,93,-72,117,-198L588,543c0,0,-9,62,-45,99c0,0,-36,37,-101,37c0,0,-162,0,-162,-271c0,0,0,-279,165,-279c0,0,59,0,100,38c0,0,40,37,50,112L805,269c0,0,-11,-83,-59,-148C746,121,697,56,619,21c0,0,-78,-35,-176,-35Z" 
id="f0_1z"
transform="scale(0.001,-0.001)" />

<path d="M102,0V1051H322V170H886V0Z" 
id="f0_1c"
transform="scale(0.001,-0.001)" />

<path d="M360,132c0,0,50,0,90,27c0,0,41,27,64,74c0,0,23,47,23,100v41L430,373c0,0,-73,-3,-104,-16c0,0,-31,-13,-47,-40c0,0,-16,-27,-16,-72c0,0,0,-57,27,-85c0,0,26,-28,70,-28ZM293,-14c0,0,-117,0,-183,63c0,0,-65,64,-65,180c0,0,0,125,81,191c0,0,82,65,237,67l174,3v41c0,0,0,79,-27,117c0,0,-28,38,-91,38c0,0,-58,0,-85,-26c0,0,-27,-27,-34,-88L81,583c0,0,20,118,108,179c0,0,88,60,239,60c0,0,153,0,236,-75c0,0,83,-75,83,-214V239c0,0,0,-67,15,-93c0,0,15,-26,51,-26c0,0,24,0,46,5V11c0,0,-18,-5,-33,-8c0,0,-15,-3,-30,-5c0,0,-15,-3,-32,-4c0,0,-17,-2,-39,-2c0,0,-79,0,-117,38c0,0,-37,39,-45,114h-4c0,0,-88,-158,-266,-158Z" 
id="f0_1x"
transform="scale(0.001,-0.001)" />

<path d="M204,0L-3,808H192L325,190l11,55l18,88L481,808H706L830,333c0,0,10,-39,30,-142l21,98L997,808h194L979,0H758L630,493c0,0,-9,33,-35,165L556,491L426,0Z" 
id="f0_2j"
transform="scale(0.001,-0.001)" />

<path d="M141,0V1051H283V0Z" 
id="f1_19"
transform="scale(0.001,-0.001)" />

<path d="M106,0V635c0,0,0,141,-5,173H228c0,0,1,-4,2,-21c0,0,1,-16,2,-37c0,0,1,-22,2,-81h2c0,0,47,84,108,119c0,0,60,34,151,34c0,0,132,0,194,-66c0,0,61,-66,61,-218V0H615V512c0,0,0,80,-15,124c0,0,-16,44,-50,63c0,0,-35,20,-101,20c0,0,-97,0,-153,-67c0,0,-56,-66,-56,-184V0Z" 
id="f1_2a"
transform="scale(0.001,-0.001)" />

<path d="M116,0V114H384V923L147,754V881l248,170H519V114H775V0Z" 
id="f1_l"
transform="scale(0.001,-0.001)" />

<path d="M416,464c0,0,58,0,108,27c0,0,50,26,78,75c0,0,29,49,29,111c0,0,0,127,-58,204c0,0,-58,77,-156,77c0,0,-97,0,-153,-66c0,0,-56,-66,-56,-179c0,0,0,-115,56,-182c0,0,56,-67,152,-67ZM397,-14c0,0,-123,0,-197,51c0,0,-75,52,-107,168l129,20c0,0,40,-131,177,-131c0,0,116,0,179,107c0,0,64,107,67,306c0,0,-30,-67,-103,-108c0,0,-72,-40,-159,-40c0,0,-141,0,-226,97c0,0,-85,97,-85,257c0,0,0,165,92,259c0,0,93,95,257,95c0,0,176,0,266,-130c0,0,90,-130,90,-390c0,0,0,-271,-99,-416c0,0,-98,-145,-281,-145Z" 
id="f1_t"
transform="scale(0.001,-0.001)" />

<path d="M426,-14c0,0,-160,0,-255,71c0,0,-95,72,-113,213l139,13c0,0,27,-187,229,-187c0,0,101,0,159,50c0,0,58,50,58,149c0,0,0,86,-66,134c0,0,-66,48,-191,48H310V594h73c0,0,111,0,172,48c0,0,60,48,60,133c0,0,0,84,-49,132c0,0,-50,49,-147,49c0,0,-89,0,-144,-45c0,0,-55,-46,-64,-129L76,793c0,0,15,129,107,201c0,0,92,73,237,73c0,0,158,0,246,-74c0,0,87,-73,87,-204c0,0,0,-101,-56,-164c0,0,-56,-63,-164,-85v-3c0,0,118,-13,184,-79c0,0,66,-67,66,-167c0,0,0,-146,-93,-226c0,0,-92,-79,-264,-79Z" 
id="f1_n"
transform="scale(0.001,-0.001)" />

<path d="M137,-195c0,0,70,102,70,195H142V163H287V38c0,0,0,-78,-14,-131c0,0,-14,-53,-44,-102Z" 
id="f1_g"
transform="scale(0.001,-0.001)" />

<path d="M278,-11c0,0,-162,0,-162,182V710H23v98h99l39,181h90V808H400V710H251V200c0,0,0,-58,19,-82c0,0,19,-23,66,-23c0,0,27,0,77,10V6c0,0,-66,-17,-135,-17Z" 
id="f1_2g"
transform="scale(0.001,-0.001)" />

<path d="M615,0V512c0,0,0,85,-15,126c0,0,-16,42,-52,61c0,0,-36,20,-99,20c0,0,-95,0,-152,-66c0,0,-57,-66,-57,-177V0H106V1107H240V819c0,0,0,-45,-2,-94c0,0,-3,-48,-4,-56h2c0,0,44,79,105,116c0,0,60,37,154,37c0,0,131,0,193,-65c0,0,62,-65,62,-219V0Z" 
id="f1_24"
transform="scale(0.001,-0.001)" />

<path d="M643,478c0,0,-11,128,-65,187c0,0,-54,59,-154,59c0,0,-98,0,-155,-66c0,0,-57,-65,-62,-180ZM431,-14c0,0,-179,0,-272,106c0,0,-94,107,-94,317c0,0,0,200,94,307c0,0,93,106,267,106c0,0,356,0,356,-429V375H206c0,0,0,-138,57,-213c0,0,58,-75,168,-75c0,0,87,0,140,35c0,0,53,35,71,88L760,177c0,0,-72,-191,-329,-191Z" 
id="f1_21"
transform="scale(0.001,-0.001)" />

<path d="M125,0V1051H923V936H268V597H878V482H268V115H953V0Z" 
id="f1_15"
transform="scale(0.001,-0.001)" />

<path d="M398,93c0,0,63,0,112,37c0,0,49,38,76,107c0,0,27,70,27,166c0,0,0,99,-27,170c0,0,-27,71,-75,109c0,0,-49,38,-111,38c0,0,-103,0,-150,-75c0,0,-47,-75,-47,-242c0,0,0,-165,44,-238c0,0,44,-72,151,-72Zm11,-409c0,0,-132,0,-211,52c0,0,-78,52,-100,147l135,20c0,0,13,-56,59,-87c0,0,46,-30,121,-30c0,0,200,0,200,234V150h-1C612,150,574,72,507,33C507,33,441,-5,352,-5c0,0,-148,0,-218,98c0,0,-70,98,-70,309c0,0,0,214,75,316c0,0,75,101,228,101c0,0,86,0,149,-39c0,0,63,-39,97,-111h2c0,0,0,22,3,78c0,0,3,55,6,61H751c0,0,-4,-41,-4,-167V23c0,0,0,-339,-338,-339Z" 
id="f1_23"
transform="scale(0.001,-0.001)" />

<path d="M103,0V1107H237V0Z" 
id="f1_28"
transform="scale(0.001,-0.001)" />

<path d="M102,0V808H236V0Zm0,979v128H236V979Z" 
id="f1_25"
transform="scale(0.001,-0.001)" />

<path d="M381,-14c0,0,-150,0,-232,49C149,35,67,85,43,190l118,23c0,0,17,-65,71,-96c0,0,54,-30,149,-30c0,0,102,0,150,31c0,0,47,32,47,95c0,0,0,47,-33,77c0,0,-33,30,-106,49l-96,26c0,0,-115,30,-164,58c0,0,-49,29,-77,70c0,0,-27,41,-27,101c0,0,0,110,78,168c0,0,79,57,230,57c0,0,133,0,212,-47c0,0,79,-47,100,-150L574,607c0,0,-12,53,-60,82c0,0,-49,29,-131,29c0,0,-91,0,-135,-28c0,0,-43,-27,-43,-83c0,0,0,-34,18,-57c0,0,18,-22,53,-38c0,0,35,-15,148,-43c0,0,106,-27,153,-50c0,0,47,-22,75,-50c0,0,27,-27,42,-64c0,0,15,-36,15,-82c0,0,0,-114,-86,-176c0,0,-87,-61,-242,-61Z" 
id="f1_2f"
transform="scale(0.001,-0.001)" />

<path d="M453,84c0,0,100,0,146,74c0,0,46,73,46,247c0,0,0,169,-46,241c0,0,-45,73,-145,73c0,0,-80,0,-125,-34c0,0,-45,-34,-68,-105c0,0,-24,-71,-24,-186c0,0,0,-159,51,-234c0,0,51,-76,165,-76ZM103,-316V643c0,0,0,124,-5,165H228c0,0,1,-3,3,-22c0,0,1,-18,3,-56c0,0,2,-38,2,-52h3c0,0,36,75,94,110c0,0,59,34,156,34c0,0,149,0,223,-100c0,0,74,-100,74,-314c0,0,0,-422,-297,-422c0,0,-187,0,-251,140h-4c0,0,3,-6,3,-126V-316Z" 
id="f1_2c"
transform="scale(0.001,-0.001)" />

<path d="M142,-316c0,0,-55,0,-92,8v101c0,0,28,-4,63,-4c0,0,125,0,198,184L324,4L4,808H147L317,362c0,0,4,-11,9,-25c0,0,5,-15,34,-98c0,0,28,-83,30,-92l52,147L619,808H761L451,0c0,0,-50,-128,-94,-191c0,0,-43,-63,-96,-94c0,0,-52,-31,-119,-31Z" 
id="f1_2l"
transform="scale(0.001,-0.001)" />

<path d="M413,-14c0,0,-170,0,-259,106c0,0,-89,107,-89,313c0,0,0,203,89,310c0,0,90,107,257,107c0,0,124,0,206,-64c0,0,81,-64,102,-177L581,571c0,0,-10,67,-53,106c0,0,-42,40,-121,40c0,0,-106,0,-154,-71c0,0,-48,-71,-48,-239c0,0,0,-161,51,-238c0,0,51,-78,153,-78c0,0,71,0,120,39c0,0,48,39,59,119l136,-9C724,240,708,124,624,55c0,0,-83,-69,-211,-69Z" 
id="f1_1z"
transform="scale(0.001,-0.001)" />

<path d="M125,0V1051H268V606H836v445H979V0H836V487H268V0Z" 
id="f1_18"
transform="scale(0.001,-0.001)" />

<path d="M106,0V620c0,0,0,85,-5,188H228c0,0,6,-138,6,-165h3c0,0,32,103,74,141c0,0,42,38,118,38c0,0,27,0,54,-7V692c0,0,-26,7,-71,7c0,0,-84,0,-128,-72c0,0,-44,-72,-44,-206V0Z" 
id="f1_2e"
transform="scale(0.001,-0.001)" />

<path d="M125,0V1051H313L592,322c0,0,15,-44,29,-94c0,0,14,-50,18,-73c0,0,6,30,25,91c0,0,19,61,26,76l275,729h182V0H1019V701c0,0,0,117,7,224c0,0,-37,-133,-66,-209L689,0H589L313,716L272,843l-25,82l2,-83l3,-141V0Z" 
id="f1_1d"
transform="scale(0.001,-0.001)" />

<path d="M420,84c0,0,121,0,173,78c0,0,52,77,52,243c0,0,0,167,-50,243c0,0,-50,76,-167,76c0,0,-118,0,-170,-78c0,0,-53,-77,-53,-241c0,0,0,-160,52,-241c0,0,52,-80,163,-80Zm1,-98c0,0,-176,0,-267,107c0,0,-90,108,-90,312c0,0,0,417,362,417c0,0,185,0,272,-102c0,0,88,-101,88,-315c0,0,0,-212,-94,-316C692,89,599,-14,421,-14Z" 
id="f1_2b"
transform="scale(0.001,-0.001)" />

<path d="M453,84c0,0,101,0,146,75c0,0,46,75,46,244c0,0,0,169,-45,243c0,0,-45,73,-146,73c0,0,-113,0,-165,-78c0,0,-52,-78,-52,-246c0,0,0,-159,51,-235c0,0,51,-76,165,-76Zm36,-98c0,0,-92,0,-153,33c0,0,-61,33,-99,107h-1c0,0,0,-24,-3,-71c0,0,-3,-48,-5,-55H98c0,0,5,40,5,166v941H237V792c0,0,0,-49,-3,-114h3c0,0,38,77,99,111c0,0,62,33,153,33c0,0,153,0,225,-103c0,0,72,-103,72,-311c0,0,0,-422,-297,-422Z" 
id="f1_1y"
transform="scale(0.001,-0.001)" />

<path d="M298,0L5,808H148L326,282c0,0,10,-29,51,-176l27,87l29,88L616,808H759L457,0Z" 
id="f1_2i"
transform="scale(0.001,-0.001)" />

<path d="M395,89c0,0,115,0,166,79c0,0,51,79,51,246c0,0,0,160,-51,235c0,0,-51,75,-164,75c0,0,-102,0,-147,-75c0,0,-45,-75,-45,-244c0,0,0,-170,45,-243c0,0,45,-73,145,-73ZM361,-14c0,0,-153,0,-225,102c0,0,-72,103,-72,312c0,0,0,422,297,422c0,0,92,0,153,-33c0,0,61,-34,98,-107h2l-2,90v335H747V166c0,0,0,-126,4,-166H623c0,0,-2,12,-5,55c0,0,-3,44,-3,75h-3c0,0,-37,-78,-98,-111c0,0,-62,-33,-153,-33Z" 
id="f1_20"
transform="scale(0.001,-0.001)" />

<path d="M355,-14c0,0,-133,0,-194,65c0,0,-62,66,-62,219V808H234V296c0,0,0,-80,16,-124c0,0,16,-44,50,-64c0,0,34,-19,101,-19c0,0,97,0,153,66c0,0,55,67,55,185V808H744V172c0,0,0,-141,4,-172H621c0,0,0,4,-1,20c0,0,-1,17,-2,38c0,0,-1,21,-3,80h-2C613,138,567,55,506,20c0,0,-61,-34,-151,-34Z" 
id="f1_2h"
transform="scale(0.001,-0.001)" />

<path d="M339,87c0,0,74,0,132,34c0,0,57,33,90,91c0,0,34,59,34,121v66L448,396c0,0,-95,-2,-144,-19c0,0,-49,-18,-75,-55c0,0,-26,-38,-26,-98c0,0,0,-65,35,-101c0,0,36,-36,101,-36ZM309,-14c0,0,-122,0,-183,64c0,0,-61,64,-61,176c0,0,0,125,82,192c0,0,83,67,266,72l182,3v44c0,0,0,98,-42,141c0,0,-42,43,-132,43c0,0,-90,0,-131,-31c0,0,-41,-31,-49,-98L101,604c0,0,34,218,323,218c0,0,153,0,229,-70c0,0,77,-69,77,-202V202c0,0,0,-59,16,-90c0,0,16,-30,60,-30c0,0,19,0,44,5V4C850,4,799,-7,746,-7c0,0,-75,0,-109,38c0,0,-33,40,-38,124h-4C595,155,543,62,475,24c0,0,-68,-38,-166,-38Z" 
id="f1_1x"
transform="scale(0.001,-0.001)" />

<path d="M34,0L434,546L65,1051H222L515,639l284,412H956L597,551L987,0H830L514,460L192,0Z" 
id="f1_1o"
transform="scale(0.001,-0.001)" />

<path d="M68,346V465H441V346Z" 
id="f1_h"
transform="scale(0.001,-0.001)" />

<path d="M135,0V710H22v98H135v91c0,0,0,110,49,158c0,0,48,49,148,49c0,0,56,0,95,-9V994c0,0,-34,6,-60,6c0,0,-51,0,-75,-26c0,0,-23,-26,-23,-94V808H427V710H269V0Z" 
id="f1_22"
transform="scale(0.001,-0.001)" />

<path d="M106,0V635c0,0,0,141,-5,173H228c0,0,1,-4,2,-21c0,0,1,-16,2,-37c0,0,1,-22,2,-81h2c0,0,44,86,100,120c0,0,56,33,136,33c0,0,92,0,145,-36c0,0,54,-37,75,-117h2c0,0,42,82,101,117c0,0,59,36,143,36c0,0,123,0,178,-66c0,0,56,-67,56,-218V0H1039V512c0,0,0,117,-32,162c0,0,-32,45,-116,45c0,0,-88,0,-136,-66c0,0,-49,-65,-49,-185V0H573V512c0,0,0,117,-32,162c0,0,-32,45,-116,45c0,0,-86,0,-136,-66c0,0,-50,-66,-50,-185V0Z" 
id="f1_29"
transform="scale(0.001,-0.001)" />

<path d="M140,0V163H285V0Z" 
id="f1_i"
transform="scale(0.001,-0.001)" />

<path d="M708,418L573,765c0,0,-21,52,-42,117l-20,62l-7,-21c0,0,-18,-62,-55,-159L315,418ZM3,0L432,1051H594L1016,0H871L750,307H272L151,0Z" 
id="f1_11"
transform="scale(0.001,-0.001)" />

<path d="M370,-316c0,0,-141,152,-208,323C162,7,95,179,95,394v3c0,0,0,215,67,387c0,0,68,171,208,323H500c0,0,-140,-155,-205,-330c0,0,-65,-175,-65,-382c0,0,0,-207,64,-381c0,0,65,-172,206,-330Z" 
id="f1_c"
transform="scale(0.001,-0.001)" />

<path d="M224,0L-1,808H131L267,259c0,0,5,-18,32,-147l13,55L480,808H624L765,253L800,112l23,103L976,808h131L876,0H720L579,571L552,697c0,0,-7,-33,-21,-96C531,601,517,537,379,0Z" 
id="f1_2j"
transform="scale(0.001,-0.001)" />

<path d="M395,89c0,0,115,0,166,81c0,0,51,82,51,244c0,0,0,157,-51,233c0,0,-51,77,-164,77c0,0,-102,0,-147,-77c0,0,-45,-76,-45,-242c0,0,0,-170,45,-243c0,0,45,-73,145,-73ZM612,-316V11l3,122h-1c0,0,-40,-80,-99,-114c0,0,-59,-33,-154,-33c0,0,-154,0,-225,103c0,0,-72,104,-72,311c0,0,0,422,297,422c0,0,92,0,151,-32c0,0,60,-33,100,-108h2c0,0,0,22,3,77c0,0,3,55,6,58H752c0,0,-5,-44,-5,-220V-316Z" 
id="f1_2d"
transform="scale(0.001,-0.001)" />

<path d="M9,-316c0,0,140,157,205,329c0,0,65,174,65,382c0,0,0,208,-65,382c0,0,-66,174,-205,330H139c0,0,141,-152,208,-324c0,0,67,-172,67,-386v-3c0,0,0,-216,-67,-388c0,0,-68,-170,-208,-322Z" 
id="f1_d"
transform="scale(0.001,-0.001)" />

<path d="M313,-13c0,0,-92,0,-142,50c0,0,-50,50,-50,152V666H19V808H131l66,189H328V808H481V666H328V245c0,0,0,-59,23,-87c0,0,22,-28,69,-28c0,0,25,0,70,10V11c0,0,-77,-24,-177,-24Z" 
id="f0_2g"
transform="scale(0.001,-0.001)" />

<path d="M107,0V627c0,0,0,65,-2,106c0,0,-2,42,-4,75H301c0,0,2,-15,6,-77c0,0,3,-61,3,-85h3c0,0,39,93,97,135c0,0,58,41,138,41c0,0,185,0,225,-176h4c0,0,41,94,99,135c0,0,57,41,146,41c0,0,118,0,180,-80c0,0,62,-80,62,-230V0H1056V452c0,0,0,213,-123,213c0,0,-61,0,-100,-59c0,0,-39,-60,-43,-164V0H582V452c0,0,0,213,-122,213c0,0,-64,0,-104,-65c0,0,-40,-65,-40,-168V0Z" 
id="f0_29"
transform="scale(0.001,-0.001)" />

<path d="M360,-14c0,0,-128,0,-197,78c0,0,-68,79,-68,231V808H304V355c0,0,0,-212,144,-212c0,0,76,0,122,65c0,0,47,65,47,167V808H827V181c0,0,0,-103,6,-181H633c0,0,-9,108,-9,161h-4C620,161,578,69,514,27c0,0,-65,-41,-154,-41Z" 
id="f0_2h"
transform="scale(0.001,-0.001)" />

<path d="M486,129c0,0,166,0,166,278c0,0,0,137,-40,203c0,0,-41,67,-125,67c0,0,-85,0,-129,-72c0,0,-45,-71,-45,-205c0,0,0,-128,44,-199c0,0,44,-72,129,-72ZM561,-14c0,0,-86,0,-148,37c0,0,-63,37,-97,107h-1c0,0,0,-26,-4,-72c0,0,-3,-45,-7,-58H101c0,0,6,69,6,184v923H316V798L313,667h3c0,0,71,155,258,155c0,0,144,0,220,-108c0,0,77,-109,77,-307c0,0,0,-200,-81,-311C790,96,710,-14,561,-14Z" 
id="f0_1y"
transform="scale(0.001,-0.001)" />

<path d="M48,0V106L689,936H103v115H850V948L210,115H885V0Z" 
id="f1_1q"
transform="scale(0.001,-0.001)" />

<path d="M900,0V54l135,20V845L658,0H617L248,845V74L382,54V0H26V54L154,74V926L26,945v55H419L705,342l292,658h401V945L1270,926V74L1398,54V0Z" 
id="f2_1d"
transform="scale(0.001,-0.001)" />

<path d="M434,423c0,0,0,101,-7,142c0,0,-6,40,-22,60c0,0,-16,19,-45,19c0,0,-44,0,-66,-48c0,0,-22,-49,-22,-173ZM389,-14c0,0,-172,0,-254,89c0,0,-83,90,-83,279c0,0,0,184,79,274c0,0,79,91,238,91c0,0,142,0,206,-76c0,0,64,-76,64,-237V345H271V333c0,0,0,-111,18,-158c0,0,18,-47,58,-72c0,0,40,-25,110,-25c0,0,66,0,166,22V42C623,42,582,18,517,1c0,0,-66,-15,-128,-15Z" 
id="f2_21"
transform="scale(0.001,-0.001)" />

<path d="M41,0V49l69,18V634L41,652v49H313l11,-61l50,26c0,0,105,54,188,54c0,0,194,0,194,-207V67L827,49V0H478V49l63,18V484c0,0,0,63,-27,98c0,0,-26,35,-75,35c0,0,-57,0,-114,-25V67L389,49V0Z" 
id="f2_2a"
transform="scale(0.001,-0.001)" />

<path d="M416,68c0,0,60,0,124,32V628c0,0,-58,15,-118,15c0,0,-67,0,-104,-73c0,0,-38,-73,-38,-216c0,0,0,-139,36,-212c0,0,35,-74,100,-74ZM369,-14c0,0,-155,0,-231,88c0,0,-76,90,-76,274c0,0,0,182,82,277c0,0,81,95,236,95c0,0,82,0,165,-20c0,0,-5,24,-5,115V992l-72,18v50H756V67L833,49V0H562L547,40C547,40,505,13,483,4c0,0,-23,-7,-51,-12c0,0,-28,-6,-63,-6Z" 
id="f2_20"
transform="scale(0.001,-0.001)" />

<path d="M30,0V49l76,18V992l-72,18v50H322V67L398,49V0Z" 
id="f2_28"
transform="scale(0.001,-0.001)" />

<path d="M342,-14L49,634L0,652v49H359V652L275,632L455,233L617,634l-82,18v49H764V652L713,637L433,-14Z" 
id="f2_2i"
transform="scale(0.001,-0.001)" />

<path d="M95,554v69c0,0,47,14,81,37c0,0,34,24,52,52c0,0,18,29,18,53c0,0,0,18,-14,32c0,0,-14,13,-43,27c0,0,-56,29,-56,93c0,0,0,45,32,72c0,0,33,27,87,27c0,0,63,0,105,-40c0,0,42,-41,42,-105c0,0,0,-118,-77,-197c0,0,-78,-80,-227,-120Z" 
id="f2_1k5"
transform="scale(0.001,-0.001)" />

<path d="M276,-14c0,0,-57,0,-125,13C151,-1,83,10,48,23V214H97l28,-98c0,0,26,-26,69,-44c0,0,42,-17,86,-17c0,0,65,0,97,28c0,0,32,28,32,71c0,0,0,41,-31,65c0,0,-30,25,-133,57c0,0,-108,34,-154,92c0,0,-45,58,-45,143c0,0,0,95,71,152c0,0,71,57,183,57c0,0,77,0,207,-22V518H457l-24,82c0,0,-21,22,-60,35c0,0,-40,14,-75,14c0,0,-53,0,-79,-22c0,0,-26,-22,-26,-59c0,0,0,-40,32,-65c0,0,32,-26,132,-55c0,0,109,-34,155,-89c0,0,45,-55,45,-137c0,0,0,-117,-72,-177c0,0,-72,-59,-209,-59Z" 
id="f2_2f"
transform="scale(0.001,-0.001)" />

<path d="M452,474c0,0,104,0,151,52c0,0,47,53,47,178c0,0,0,119,-45,167c0,0,-44,47,-156,47H390V474ZM36,0V54L154,74V926L26,945v55H467c0,0,213,0,318,-71c0,0,105,-71,105,-224c0,0,0,-313,-366,-313H390V74L557,54V0Z" 
id="f2_1g"
transform="scale(0.001,-0.001)" />

<path d="M41,0V49l91,18V634L41,652v49H336l8,-145c0,0,80,89,144,128c0,0,64,40,117,40h40V468H604l-45,94c0,0,-47,0,-106,-21c0,0,-60,-20,-105,-48V67L460,49V0Z" 
id="f2_2e"
transform="scale(0.001,-0.001)" />

<path d="M34,0V49l76,18V634L38,652v49H325V67L402,49V0ZM217,831c0,0,-48,0,-81,33c0,0,-34,33,-34,82c0,0,0,48,34,81c0,0,34,33,81,33c0,0,48,0,81,-33c0,0,33,-33,33,-81c0,0,0,-47,-33,-81c0,0,-32,-34,-81,-34Z" 
id="f2_25"
transform="scale(0.001,-0.001)" />

<path d="M379,60c0,0,59,0,84,64c0,0,24,65,24,231c0,0,0,164,-24,227c0,0,-24,63,-84,63c0,0,-57,0,-80,-60c0,0,-22,-61,-22,-230c0,0,0,-173,23,-234c0,0,22,-61,79,-61Zm-2,-74c0,0,-161,0,-240,91c0,0,-79,91,-79,277c0,0,0,186,80,276c0,0,81,90,245,90c0,0,167,0,245,-93c0,0,78,-93,78,-273c0,0,0,-188,-81,-278c0,0,-81,-90,-248,-90Z" 
id="f2_2b"
transform="scale(0.001,-0.001)" />

<path d="M425,-14c0,0,-187,0,-280,90c0,0,-93,90,-93,276c0,0,0,115,42,198c0,0,43,82,121,126c0,0,78,44,182,44c0,0,104,0,227,-26V486H571L539,609c0,0,-25,19,-50,26c0,0,-24,7,-65,7c0,0,-44,0,-79,-35c0,0,-36,-35,-56,-98c0,0,-20,-64,-20,-153c0,0,0,-150,47,-214c0,0,47,-64,148,-64c0,0,103,0,176,21V42C640,42,606,15,547,0c0,0,-59,-14,-122,-14Z" 
id="f2_1z"
transform="scale(0.001,-0.001)" />

<path d="M26,0V54L154,74V926L27,945v55H544V945L389,926V79H593c0,0,159,0,234,15l61,208h67L927,0Z" 
id="f2_1c"
transform="scale(0.001,-0.001)" />

<path d="M345,75c0,0,50,0,110,26V351l-63,-2c0,0,-72,-3,-100,-38c0,0,-28,-35,-28,-113c0,0,0,-63,22,-93c0,0,23,-30,59,-30ZM266,-14c0,0,-217,0,-217,208c0,0,0,79,32,126c0,0,32,48,93,71c0,0,60,22,190,25l91,2V521c0,0,0,126,-104,126c0,0,-62,0,-140,-39L183,521H134V691c0,0,112,17,165,21c0,0,53,5,108,5c0,0,264,0,264,-194V67L741,49V0H483L466,54C466,54,408,14,361,0c0,0,-47,-14,-95,-14Z" 
id="f2_1x"
transform="scale(0.001,-0.001)" />

<path d="M305,-14L57,634L4,652v49H351V652L268,632L419,232L581,631h71L814,232L950,634l-82,18v49h227V652l-54,-15L806,-14H715L555,378L395,-14Z" 
id="f2_2j"
transform="scale(0.001,-0.001)" />

<path d="M395,0V936H34v115H898V936H537V0Z" 
id="f1_1k"
transform="scale(0.001,-0.001)" />

<path d="M103,0V1107H237V416L592,808H749L421,461L766,0H609L336,369L237,287V0Z" 
id="f1_27"
transform="scale(0.001,-0.001)" />

<path d="M140,0V154H285V0Zm0,653V808H285V653Z" 
id="f1_u"
transform="scale(0.001,-0.001)" />

<path d="M276,0L448,881H108l33,170h900L1008,881H668L496,0Z" 
id="f3_1k"
transform="scale(0.001,-0.001)" />

<path d="M551,0l88,445c0,0,19,93,19,123c0,0,0,97,-113,97c0,0,-76,0,-140,-61c0,0,-64,-62,-80,-151L236,1H26L239,1107H448L389,805L360,670h3c0,0,56,78,123,115c0,0,68,37,155,37c0,0,113,0,171,-54c0,0,57,-55,57,-158c0,0,0,-18,-5,-59c0,0,-5,-41,-11,-63L759,0Z" 
id="f3_24"
transform="scale(0.001,-0.001)" />

<path d="M613,495l2,41c0,0,0,80,-36,117c0,0,-37,36,-97,36c0,0,-72,0,-121,-49c0,0,-48,-50,-69,-145ZM385,-14c0,0,-159,0,-248,86c0,0,-90,86,-90,240c0,0,0,154,54,270c0,0,53,116,152,178c0,0,99,62,229,62c0,0,156,0,240,-80c0,0,85,-80,85,-227c0,0,0,-73,-18,-160H267c0,0,-5,-28,-5,-66c0,0,0,-80,35,-122c0,0,34,-42,102,-42c0,0,110,0,159,127L741,196C741,196,685,78,602,32c0,0,-83,-46,-217,-46Z" 
id="f3_21"
transform="scale(0.001,-0.001)" />

<path d="M448,129c0,0,76,0,120,48c0,0,44,48,70,153c0,0,25,106,25,188c0,0,0,79,-29,119c0,0,-28,40,-91,40c0,0,-94,0,-150,-66c0,0,-57,-66,-82,-198c0,0,-13,-69,-13,-114c0,0,0,-80,40,-125c0,0,39,-45,110,-45ZM-33,-316L148,622l15,82l14,104H382c0,0,0,-11,-6,-58c0,0,-5,-48,-11,-69h3c0,0,53,75,115,108c0,0,62,33,150,33c0,0,118,0,185,-70c0,0,66,-71,66,-194c0,0,0,-150,-46,-293C838,265,791,122,708,54c0,0,-84,-68,-214,-68c0,0,-93,0,-152,38c0,0,-58,39,-82,109h-1c0,0,-5,-46,-24,-140L175,-316Z" 
id="f3_2c"
transform="scale(0.001,-0.001)" />

<path d="M66,-316c0,0,-72,0,-128,14l28,145c0,0,30,-6,64,-6c0,0,58,0,102,34c0,0,45,34,89,112l21,35L84,808H301L354,436c0,0,4,-23,16,-133c0,0,11,-109,10,-116l12,28L496,433L689,808H913L425,-42c0,0,-80,-124,-130,-175c0,0,-50,-50,-105,-75c0,0,-55,-24,-124,-24Z" 
id="f3_2l"
transform="scale(0.001,-0.001)" />

<path d="M371,-14c0,0,-150,0,-237,52C134,38,48,91,17,202l187,27c0,0,16,-56,58,-80c0,0,42,-25,124,-25c0,0,81,0,123,26c0,0,42,26,42,75c0,0,0,39,-31,60c0,0,-31,20,-136,42c0,0,-148,34,-209,93c0,0,-61,59,-61,153c0,0,0,120,94,183c0,0,93,63,267,63c0,0,154,0,229,-52c0,0,76,-53,93,-162L610,583c0,0,-12,51,-49,74c0,0,-37,24,-100,24c0,0,-153,0,-153,-90c0,0,0,-24,15,-41c0,0,15,-16,43,-28c0,0,27,-12,132,-37c0,0,136,-30,192,-87c0,0,56,-56,56,-149c0,0,0,-129,-96,-197c0,0,-96,-66,-279,-66Z" 
id="f3_2f"
transform="scale(0.001,-0.001)" />

<path d="M26,0L183,808H392L235,0ZM210,952l31,155H451L420,952Z" 
id="f3_25"
transform="scale(0.001,-0.001)" />

<path d="M388,-14c0,0,-164,0,-253,83c0,0,-88,84,-88,233c0,0,0,146,59,273c0,0,59,128,157,188c0,0,98,59,244,59c0,0,141,0,226,-71c0,0,84,-71,94,-198L615,536c0,0,-8,143,-124,143c0,0,-80,0,-125,-55c0,0,-45,-55,-82,-195c0,0,-17,-86,-17,-125c0,0,0,-175,133,-175c0,0,62,0,102,39c0,0,40,40,64,116L768,247c0,0,-79,-261,-380,-261Z" 
id="f3_1z"
transform="scale(0.001,-0.001)" />

<path d="M330,132c0,0,62,0,113,48c0,0,51,48,71,127l16,68H410c0,0,-88,-1,-138,-35c0,0,-50,-35,-50,-97c0,0,0,-52,29,-82c0,0,29,-29,79,-29ZM236,-14c0,0,-104,0,-166,62C70,48,7,110,7,208c0,0,0,138,96,208c0,0,95,71,308,75l143,2c0,0,15,70,15,97c0,0,0,95,-95,95c0,0,-70,0,-104,-27c0,0,-34,-27,-47,-78L127,603c0,0,25,107,114,163c0,0,89,56,237,56c0,0,155,0,227,-54c0,0,72,-55,72,-166c0,0,0,-27,-18,-117L706,222c0,0,-6,-33,-6,-54c0,0,0,-17,7,-27c0,0,8,-10,17,-14c0,0,10,-5,20,-6c0,0,9,-1,15,-1c0,0,22,0,46,5L794,10c0,0,-31,-11,-63,-14c0,0,-32,-2,-66,-2c0,0,-74,0,-114,30c0,0,-41,32,-41,83c0,0,0,28,4,48h-4C510,155,447,58,386,22c0,0,-61,-36,-150,-36Z" 
id="f3_1x"
transform="scale(0.001,-0.001)" />

<path d="M26,0L241,1107H451L235,0Z" 
id="f3_28"
transform="scale(0.001,-0.001)" />

<path d="M26,0L150,635c0,0,12,59,28,173H378c0,0,0,-7,-7,-63c0,0,-7,-56,-11,-75h3c0,0,56,77,123,115c0,0,68,37,155,37c0,0,113,0,171,-54c0,0,57,-55,57,-158c0,0,0,-18,-5,-59c0,0,-5,-41,-11,-63L759,0H551l88,445c0,0,19,93,19,123c0,0,0,97,-113,97c0,0,-76,0,-140,-61c0,0,-64,-62,-80,-151L236,0Z" 
id="f3_2a"
transform="scale(0.001,-0.001)" />

<path d="M384,129c0,0,61,0,104,26c0,0,43,25,74,79c0,0,30,53,48,133c0,0,18,81,18,141c0,0,0,89,-35,130c0,0,-35,41,-105,41c0,0,-76,0,-124,-52c0,0,-48,-51,-74,-150c0,0,-25,-99,-25,-183c0,0,0,-165,119,-165ZM292,-14c0,0,-114,0,-182,75c0,0,-67,76,-67,204c0,0,0,142,48,279c0,0,48,136,134,207c0,0,86,71,208,71c0,0,191,0,234,-147h4c0,0,1,15,6,44c0,0,4,30,13,76l63,312H959L782,172C782,172,767,89,760,0H551c0,0,0,47,11,120h-3C559,120,506,51,444,18c0,0,-61,-32,-152,-32Z" 
id="f3_20"
transform="scale(0.001,-0.001)" />

<path d="M26,0L150,635c0,0,15,71,29,173H382c0,0,0,-9,-8,-58c0,0,-8,-50,-13,-80h2c0,0,58,87,113,119c0,0,56,33,132,33c0,0,92,0,146,-44c0,0,54,-45,64,-129c0,0,60,93,122,133c0,0,61,40,142,40c0,0,103,0,158,-54c0,0,55,-55,55,-158c0,0,0,-48,-16,-122L1184,1H976l91,468c0,0,13,67,13,104v3c0,0,-2,91,-94,91c0,0,-68,0,-118,-58c0,0,-50,-57,-69,-155L710,0H502l92,475c0,0,12,68,12,101c0,0,0,91,-94,91c0,0,-65,0,-116,-57c0,0,-51,-56,-71,-158L236,0Z" 
id="f3_29"
transform="scale(0.001,-0.001)" />

<path d="M26,0L146,620c0,0,18,89,32,188H377L361,679l-6,-37h3c0,0,55,100,107,140c0,0,53,40,122,40c0,0,35,0,77,-10L630,636c0,0,-52,11,-85,11c0,0,-92,0,-150,-65c0,0,-58,-64,-84,-199L236,0Z" 
id="f3_2e"
transform="scale(0.001,-0.001)" />

<path d="M422,129c0,0,84,0,133,42c0,0,49,42,76,128c0,0,28,86,34,195c0,0,0,185,-155,185c0,0,-86,0,-136,-45c0,0,-50,-45,-79,-136c0,0,-28,-92,-28,-176c0,0,0,-193,155,-193ZM399,-14c0,0,-163,0,-257,87c0,0,-95,88,-95,240c0,0,0,150,59,266c0,0,60,116,169,179c0,0,110,64,250,64c0,0,175,0,267,-81c0,0,92,-82,92,-231c0,0,0,-154,-61,-275C823,235,762,115,651,50c0,0,-112,-64,-252,-64Z" 
id="f3_2b"
transform="scale(0.001,-0.001)" />

<path d="M280,-11c0,0,-92,0,-143,43c0,0,-50,44,-50,124c0,0,0,53,11,117l77,393H64L92,808H213L315,997H446L410,808H561L535,666H382L304,266c0,0,-8,-41,-8,-66c0,0,0,-34,18,-51c0,0,17,-17,47,-17c0,0,24,0,81,10L418,6c0,0,-61,-17,-138,-17Z" 
id="f3_2g"
transform="scale(0.001,-0.001)" />

<path d="M55,0L185,666H67L95,808H213l16,84c0,0,22,115,93,165c0,0,70,50,199,50c0,0,54,0,115,-13L609,960c0,0,-8,1,-32,4c0,0,-23,3,-39,3c0,0,-50,0,-73,-24c0,0,-22,-24,-32,-72L421,808H580L553,666H394L264,0Z" 
id="f3_22"
transform="scale(0.001,-0.001)" />

<path d="M292,-14c0,0,-114,0,-171,54c0,0,-58,54,-58,157c0,0,0,19,6,61c0,0,5,41,10,62l95,488H382L294,363c0,0,-19,-92,-19,-124c0,0,0,-96,113,-96c0,0,75,0,139,60c0,0,64,61,81,151l88,454H906L783,172c0,0,-12,-59,-29,-172H554c0,0,0,7,7,63c0,0,7,55,11,75h-2C570,138,513,58,446,22c0,0,-68,-36,-154,-36Z" 
id="f3_2h"
transform="scale(0.001,-0.001)" />

<path d="M454,129c0,0,75,0,117,47c0,0,43,46,71,158c0,0,29,111,29,184c0,0,0,78,-27,118c0,0,-26,41,-96,41c0,0,-94,0,-150,-66c0,0,-56,-66,-82,-198c0,0,-12,-69,-12,-114c0,0,0,-80,39,-125c0,0,40,-45,111,-45ZM499,-14c0,0,-93,0,-151,38c0,0,-59,39,-82,109h-2L243,50L228,0H26c0,0,4,11,15,61c0,0,10,50,22,105l183,941H456L393,789c0,0,-21,-108,-24,-108h3c0,0,42,63,109,102c0,0,67,39,157,39c0,0,118,0,185,-70c0,0,66,-71,66,-194V548c0,0,0,-140,-46,-283C843,265,797,122,713,54c0,0,-84,-68,-214,-68Z" 
id="f3_1y"
transform="scale(0.001,-0.001)" />

<path d="M34,0L78,228H294L250,0Z" 
id="f3_i"
transform="scale(0.001,-0.001)" />

<path d="M532,575c0,0,81,0,119,17c0,0,38,16,61,51c0,0,23,35,23,83c0,0,0,71,-55,113c0,0,-41,31,-121,31H443V575ZM61,0V144H96c0,0,46,0,61,6c0,0,15,7,22,22c0,0,7,14,7,60V804c0,0,0,48,-6,63c0,0,-6,15,-19,23c0,0,-13,7,-50,7H61v143H611c0,0,104,0,173,-21c0,0,69,-21,119,-64c0,0,49,-44,76,-103c0,0,27,-59,27,-126c0,0,0,-133,-102,-223c0,0,-103,-90,-284,-90H443V218c0,0,0,-37,5,-47c0,0,7,-14,21,-21c0,0,13,-6,46,-6h53V0Z" 
id="f4_1g"
transform="scale(0.001,-0.001)" />

<path d="M59,0V144H85c0,0,52,0,70,7c0,0,18,8,25,26c0,0,4,11,4,64V808c0,0,0,46,-7,60c0,0,-6,14,-19,22c0,0,-14,7,-53,7H59v143H928L1046,712L911,663c0,0,-34,81,-80,130c0,0,-46,49,-102,65c0,0,-55,16,-129,16H441V615h52c0,0,59,0,80,9c0,0,20,8,29,26c0,0,9,19,9,73v40H744V322H611v45c0,0,0,45,-11,66c0,0,-11,21,-29,29c0,0,-19,7,-83,7H441V230c0,0,0,-38,4,-47c0,0,3,-8,14,-12c0,0,11,-5,47,-5h87c0,0,98,0,165,28c0,0,67,28,120,91c0,0,53,63,81,149l136,-47L959,0Z" 
id="f4_15"
transform="scale(0.001,-0.001)" />

<path d="M593,600c0,0,92,0,137,17c0,0,45,17,68,48c0,0,22,31,22,76c0,0,0,41,-21,71c0,0,-21,29,-60,43c0,0,-40,14,-128,14H439V600ZM55,0V144h46c0,0,37,0,52,8c0,0,16,7,23,23c0,0,4,9,4,56V816c0,0,0,35,-6,49c0,0,-5,15,-18,19c0,0,-18,8,-41,8H55v148H697c0,0,62,0,135,-11c0,0,74,-11,133,-49c0,0,60,-38,92,-96c0,0,33,-59,33,-132c0,0,0,-118,-84,-192c0,0,-85,-73,-201,-96L1019,215l9,-11c0,0,21,-25,38,-38c0,0,17,-12,34,-17c0,0,18,-5,48,-5h45V0H859L526,448H439V241c0,0,0,-54,6,-69c0,0,6,-14,19,-21c0,0,13,-7,52,-7h48V0Z" 
id="f4_1i"
transform="scale(0.001,-0.001)" />

<path d="M52,0V144H93c0,0,44,0,58,6c0,0,13,6,20,20c0,0,6,14,6,55V803c0,0,0,49,-6,64c0,0,-7,15,-22,24c0,0,-10,6,-51,6H52v143H559V897H513c0,0,-40,0,-53,-7c0,0,-13,-8,-20,-23c0,0,-6,-15,-6,-58V233c0,0,0,-47,5,-61c0,0,6,-13,18,-19c0,0,16,-9,47,-9h55V0Z" 
id="f4_19"
transform="scale(0.001,-0.001)" />

<path d="M611,148c0,0,117,0,187,88c0,0,83,105,83,281c0,0,0,124,-35,208c0,0,-36,84,-96,126c0,0,-61,42,-132,42c0,0,-118,0,-189,-89c0,0,-88,-112,-88,-289c0,0,0,-176,82,-279c0,0,71,-88,188,-88ZM608,-17c0,0,-231,0,-378,126C230,109,53,262,53,518c0,0,0,237,155,389c0,0,156,151,407,151c0,0,248,0,401,-151c0,0,153,-150,153,-386c0,0,0,-159,-70,-282c0,0,-70,-123,-193,-190c0,0,-124,-66,-298,-66Z" 
id="f4_1f"
transform="scale(0.001,-0.001)" />

<path d="M514,166c0,0,122,0,191,38c0,0,69,38,111,121c0,0,43,83,43,199c0,0,0,113,-40,197c0,0,-40,84,-99,119c0,0,-59,34,-168,34H437V226c0,0,0,-33,4,-40c0,0,6,-12,17,-16c0,0,12,-4,56,-4ZM55,0V144H91c0,0,46,0,60,7c0,0,15,8,24,26c0,0,6,14,6,61V807c0,0,0,48,-6,62c0,0,-7,13,-21,21c0,0,-15,7,-62,7H56v143H601c0,0,186,0,296,-59c0,0,110,-58,175,-174c0,0,65,-116,65,-278c0,0,0,-112,-33,-201c0,0,-33,-89,-99,-160c0,0,-66,-71,-141,-107C864,61,807,34,703,17C703,17,599,0,536,0Z" 
id="f4_14"
transform="scale(0.001,-0.001)" />

<path d="M579,-17c0,0,-147,0,-266,70c0,0,-119,70,-189,197c0,0,-71,127,-71,277c0,0,0,149,69,271c0,0,69,123,187,191c0,0,119,69,265,69c0,0,149,0,260,-62l25,44H965L1067,667L928,627c0,0,-69,133,-130,189c0,0,-85,77,-185,77c0,0,-72,0,-135,-41c0,0,-63,-40,-100,-118c0,0,-37,-78,-37,-183c0,0,0,-161,85,-276c0,0,85,-116,222,-116c0,0,87,0,168,50c0,0,100,62,173,167l116,-86C1105,290,992,136,899,76c0,0,-144,-93,-320,-93Z" 
id="f4_13"
transform="scale(0.001,-0.001)" />

<path d="M63,0V144h49c0,0,31,0,46,8c0,0,16,8,23,22c0,0,7,14,7,48V812c0,0,0,37,-7,53c0,0,-7,17,-20,24c0,0,-13,8,-44,8H63v143H570V897H526c0,0,-37,0,-47,-4c0,0,-18,-8,-26,-23c0,0,-8,-15,-8,-49V226c0,0,0,-36,3,-44c0,0,4,-8,14,-13c0,0,10,-5,40,-5c0,0,100,0,161,26c0,0,61,27,110,84c0,0,49,58,84,158L994,385L857,0Z" 
id="f4_1c"
transform="scale(0.001,-0.001)" />

<path d="M610,480L509,765L404,480ZM2,0V144c0,0,39,0,56,6c0,0,18,7,30,21c0,0,11,13,25,49l322,820H669L981,237c0,0,25,-64,45,-79c0,0,19,-14,68,-14c2,0,3,0,5,0V0H606V144h30c0,0,41,0,58,11c0,0,16,11,16,27c0,0,0,13,-14,55l-32,94H349L310,226c0,0,-12,-33,-12,-44c0,0,0,-11,8,-21c0,0,9,-10,28,-14c0,0,13,-3,71,-3V0Z" 
id="f4_11"
transform="scale(0.001,-0.001)" />

<path d="M567,-17c0,0,-83,0,-152,21c0,0,-70,21,-145,71L237,0H126L52,404l140,33c0,0,49,-123,153,-205c0,0,104,-82,228,-82c0,0,56,0,93,14c0,0,37,14,56,39c0,0,18,25,18,52c0,0,0,45,-43,77c0,0,-44,32,-154,63L369,446c0,0,-40,11,-107,42c0,0,-68,31,-104,64c0,0,-36,34,-60,86c0,0,-24,53,-24,111c0,0,0,83,46,153c0,0,46,69,138,113c0,0,92,43,204,43c0,0,135,0,244,-70l29,52H842L932,692L792,652c0,0,-69,125,-157,183c0,0,-88,58,-187,58c0,0,-64,0,-101,-26c0,0,-37,-27,-37,-59c0,0,0,-36,34,-67c0,0,32,-32,121,-56L665,626c0,0,166,-47,237,-126c0,0,70,-80,70,-186c0,0,0,-135,-107,-229C865,85,745,-17,567,-17Z" 
id="f4_1j"
transform="scale(0.001,-0.001)" />

<path d="M59,0V144H92c0,0,57,0,74,14c0,0,18,15,18,59V815c0,0,0,41,-7,55c0,0,-7,13,-22,20c0,0,-16,7,-63,7H59v143H919L1037,709L902,662c0,0,-33,72,-63,109c0,0,-29,37,-70,61c0,0,-41,25,-89,33c0,0,-32,5,-114,5H438V594h66c0,0,37,0,58,12c0,0,22,11,31,29c0,0,9,18,9,60v55H736V284H602v67c0,0,0,29,-5,43c0,0,-7,18,-19,29c0,0,-12,11,-27,15c0,0,-15,5,-55,5H438V224c0,0,0,-39,7,-53c0,0,6,-14,21,-21c0,0,15,-6,58,-6h42V0Z" 
id="f4_16"
transform="scale(0.001,-0.001)" />

<path d="M280,0V144h30c0,0,51,0,66,6c0,0,14,6,21,22c0,0,8,17,8,67V851c0,0,0,26,-6,33c0,0,-6,7,-26,7c0,0,-38,0,-86,-29c0,0,-48,-29,-85,-82c0,0,-15,-21,-63,-118L2,711l128,365h99l10,-36H826l13,36h99L1067,711L928,662c0,0,-46,91,-66,119c0,0,-40,55,-92,86c0,0,-38,24,-77,24c0,0,-18,0,-24,-9c0,0,-7,-8,-7,-39V244c0,0,0,-53,4,-66c0,0,3,-13,12,-21c0,0,9,-8,25,-11c0,0,16,-2,84,-2V0Z" 
id="f4_1k"
transform="scale(0.001,-0.001)" />

<path d="M59,0V144h44c0,0,37,0,51,6c0,0,14,6,22,22c0,0,8,16,8,47V816c0,0,0,34,-8,50c0,0,-7,16,-20,24c0,0,-12,7,-42,7H59v143H480L786,433V805c0,0,0,48,-5,60c0,0,-8,17,-20,25c0,0,-13,7,-49,7H661v143h428V897h-47c0,0,-36,0,-51,-9c0,0,-15,-8,-21,-22c0,0,-6,-14,-6,-61V0H750L364,767V230c0,0,0,-46,5,-59c0,0,6,-12,20,-20c0,0,15,-7,50,-7h50V0Z" 
id="f4_1e"
transform="scale(0.001,-0.001)" />


</defs>
</svg>