<?xml version="1.0" encoding="UTF-8" standalone="no"?>
<!DOCTYPE svg PUBLIC "-//W3C//DTD SVG 1.1//EN"
"http://www.w3.org/Graphics/SVG/1.1/DTD/svg11.dtd">
<svg viewBox="0 0 909 1286" version="1.1" xmlns="http://www.w3.org/2000/svg" xmlns:xlink="http://www.w3.org/1999/xlink">
<defs>
<style type="text/css"><![CDATA[
.g0_52{
fill: #FFFFFF;
}
.g1_52{
}
]]></style>
</defs>
<g fill="#000000" >
<use xlink:href="#f0_c" transform="matrix(10,0,0,10,55,125)" />
<use xlink:href="#f0_25" transform="matrix(10,0,0,10,59.9,125)" />
<use xlink:href="#f0_25" transform="matrix(10,0,0,10,64.2,125)" />
<use xlink:href="#f0_d" transform="matrix(10,0,0,10,68,125)" />
<use xlink:href="#f0_2f" transform="matrix(10,0,0,10,89.3,125)" />
<use xlink:href="#f0_h" transform="matrix(10,0,0,10,94.6,125)" />
<use xlink:href="#f0_2c" transform="matrix(10,0,0,10,99.4,125)" />
<use xlink:href="#f0_2b" transform="matrix(10,0,0,10,109.8,125)" />
<use xlink:href="#f0_2i" transform="matrix(10,0,0,10,117,125)" />
<use xlink:href="#f0_21" transform="matrix(10,0,0,10,124.3,125)" />
<use xlink:href="#f0_2e" transform="matrix(10,0,0,10,130.5,125)" />
<use xlink:href="#f0_28" transform="matrix(10,0,0,10,137,125)" />
<use xlink:href="#f0_1x" transform="matrix(10,0,0,10,140.8,125)" />
<use xlink:href="#f0_2c" transform="matrix(10,0,0,10,148.1,125)" />
<use xlink:href="#f0_2c" transform="matrix(10,0,0,10,156,125)" />
<use xlink:href="#f0_25" transform="matrix(10,0,0,10,164.1,125)" />
<use xlink:href="#f0_2a" transform="matrix(10,0,0,10,167.8,125)" />
<use xlink:href="#f0_23" transform="matrix(10,0,0,10,175.8,125)" />
</g>
<image preserveAspectRatio="none" x="152" y="168" width="606" height="110" xlink:href="img/1.png" />
<g fill="#000000" >
<use xlink:href="#f0_c" transform="matrix(10,0,0,10,55,329.1)" />
<use xlink:href="#f0_25" transform="matrix(10,0,0,10,60.1,329.1)" />
<use xlink:href="#f0_25" transform="matrix(10,0,0,10,64.2,329.1)" />
<use xlink:href="#f0_25" transform="matrix(10,0,0,10,68.4,329.1)" />
<use xlink:href="#f0_d" transform="matrix(10,0,0,10,72.6,329.1)" />
<use xlink:href="#f0_2c" transform="matrix(10,0,0,10,89.5,329.1)" />
<use xlink:href="#f0_h" transform="matrix(10,0,0,10,97.2,329.1)" />
<use xlink:href="#f0_2c" transform="matrix(10,0,0,10,101.8,329.1)" />
<use xlink:href="#f0_2b" transform="matrix(10,0,0,10,111.8,329.1)" />
<use xlink:href="#f0_2i" transform="matrix(10,0,0,10,118.8,329.1)" />
<use xlink:href="#f0_21" transform="matrix(10,0,0,10,126,329.1)" />
<use xlink:href="#f0_2e" transform="matrix(10,0,0,10,131.8,329.1)" />
<use xlink:href="#f0_28" transform="matrix(10,0,0,10,138.1,329.1)" />
<use xlink:href="#f0_1x" transform="matrix(10,0,0,10,141.5,329.1)" />
<use xlink:href="#f0_2c" transform="matrix(10,0,0,10,148.7,329.1)" />
<use xlink:href="#f0_2c" transform="matrix(10,0,0,10,156.6,329.1)" />
<use xlink:href="#f0_25" transform="matrix(10,0,0,10,164.5,329.1)" />
<use xlink:href="#f0_2a" transform="matrix(10,0,0,10,167.9,329.1)" />
<use xlink:href="#f0_23" transform="matrix(10,0,0,10,175.6,329.1)" />
</g>
<image preserveAspectRatio="none" x="149" y="370" width="611" height="101" xlink:href="img/2.png" />
<g fill="#000000" >
<use xlink:href="#f0_m" transform="matrix(10,0,0,10,55,519.7)" />
<use xlink:href="#f0_i" transform="matrix(10,0,0,10,62.7,519.7)" />
<use xlink:href="#f0_1g" transform="matrix(10,0,0,10,89.3,519.7)" />
<use xlink:href="#f0_25" transform="matrix(10,0,0,10,98.5,519.7)" />
<use xlink:href="#f0_c" transform="matrix(10,0,0,10,105.1,519.7)" />
<use xlink:href="#f1_2c" transform="matrix(10,0,0,10,110.4,519.7)" />
<use xlink:href="#f1_2c" transform="matrix(10,0,0,10,110,520.1)" />
<use xlink:href="#f1_2c" transform="matrix(10,0,0,10,110.4,520.1)" />
<use xlink:href="#f1_2c" transform="matrix(10,0,0,10,110,519.7)" />
<use xlink:href="#f0_d" transform="matrix(10,0,0,10,117.7,519.7)" />
<use xlink:href="#f0_12" transform="matrix(10,0,0,10,125.2,519.7)" />
<use xlink:href="#f0_2b" transform="matrix(10,0,0,10,135.1,519.7)" />
<use xlink:href="#f0_2a" transform="matrix(10,0,0,10,142.8,519.7)" />
<use xlink:href="#f0_20" transform="matrix(10,0,0,10,150.9,519.7)" />
<use xlink:href="#f2_1g" transform="matrix(10,0,0,10,89.5,548)" />
<use xlink:href="#f2_25" transform="matrix(10,0,0,10,98.1,548)" />
<use xlink:href="#f2_h" transform="matrix(10,0,0,10,102.1,548)" />
<use xlink:href="#f2_1y" transform="matrix(10,0,0,10,107.3,548)" />
<use xlink:href="#f2_2b" transform="matrix(10,0,0,10,114.8,548)" />
<use xlink:href="#f2_2a" transform="matrix(10,0,0,10,122.7,548)" />
<use xlink:href="#f2_20" transform="matrix(10,0,0,10,130,548)" />
<use xlink:href="#f2_25" transform="matrix(10,0,0,10,141,548)" />
<use xlink:href="#f2_2f" transform="matrix(10,0,0,10,145.2,548)" />
<use xlink:href="#f2_22" transform="matrix(10,0,0,10,154.7,548)" />
<use xlink:href="#f2_2b" transform="matrix(10,0,0,10,159.5,548)" />
<use xlink:href="#f2_2e" transform="matrix(10,0,0,10,167.2,548)" />
<use xlink:href="#f2_29" transform="matrix(10,0,0,10,172.5,548)" />
<use xlink:href="#f2_21" transform="matrix(10,0,0,10,184.1,548)" />
<use xlink:href="#f2_20" transform="matrix(10,0,0,10,190.9,548)" />
<use xlink:href="#f2_1y" transform="matrix(10,0,0,10,201.7,548)" />
<use xlink:href="#f2_2l" transform="matrix(10,0,0,10,209.6,548)" />
<use xlink:href="#f2_28" transform="matrix(10,0,0,10,220.2,548)" />
<use xlink:href="#f2_1x" transform="matrix(10,0,0,10,224.2,548)" />
<use xlink:href="#f2_2g" transform="matrix(10,0,0,10,231.2,548)" />
<use xlink:href="#f2_21" transform="matrix(10,0,0,10,235.4,548)" />
<use xlink:href="#f2_2e" transform="matrix(10,0,0,10,242,548)" />
<use xlink:href="#f2_1x" transform="matrix(10,0,0,10,247.3,548)" />
<use xlink:href="#f2_28" transform="matrix(10,0,0,10,254.1,548)" />
<use xlink:href="#f2_c" transform="matrix(10,0,0,10,261.8,548)" />
<use xlink:href="#f2_2f" transform="matrix(10,0,0,10,267,548)" />
<use xlink:href="#f2_25" transform="matrix(10,0,0,10,272.6,548)" />
<use xlink:href="#f2_20" transform="matrix(10,0,0,10,277,548)" />
<use xlink:href="#f2_21" transform="matrix(10,0,0,10,284.7,548)" />
<use xlink:href="#f2_2j" transform="matrix(10,0,0,10,291.5,548)" />
<use xlink:href="#f2_1x" transform="matrix(10,0,0,10,302.2,548)" />
<use xlink:href="#f2_2l" transform="matrix(10,0,0,10,308.9,548)" />
<use xlink:href="#f2_2f" transform="matrix(10,0,0,10,316.1,548)" />
<use xlink:href="#f2_d" transform="matrix(10,0,0,10,322.1,548)" />
<use xlink:href="#f2_2b" transform="matrix(10,0,0,10,330.6,548)" />
<use xlink:href="#f2_2i" transform="matrix(10,0,0,10,338.1,548)" />
<use xlink:href="#f2_21" transform="matrix(10,0,0,10,345.8,548)" />
<use xlink:href="#f2_2e" transform="matrix(10,0,0,10,352.6,548)" />
<use xlink:href="#f2_28" transform="matrix(10,0,0,10,357.7,548)" />
<use xlink:href="#f2_1x" transform="matrix(10,0,0,10,361.7,548)" />
<use xlink:href="#f2_2c" transform="matrix(10,0,0,10,368.7,548)" />
<use xlink:href="#f2_2c" transform="matrix(10,0,0,10,376.4,548)" />
<use xlink:href="#f2_25" transform="matrix(10,0,0,10,383.9,548)" />
<use xlink:href="#f2_2a" transform="matrix(10,0,0,10,388.1,548)" />
<use xlink:href="#f2_23" transform="matrix(10,0,0,10,395.8,548)" />
<use xlink:href="#f2_2b" transform="matrix(10,0,0,10,406.6,548)" />
<use xlink:href="#f2_22" transform="matrix(10,0,0,10,414.1,548)" />
<use xlink:href="#f2_2c" transform="matrix(10,0,0,10,422.6,548)" />
<use xlink:href="#f2_h" transform="matrix(10,0,0,10,430.5,548)" />
<use xlink:href="#f2_2b" transform="matrix(10,0,0,10,435.2,548)" />
<use xlink:href="#f2_2e" transform="matrix(10,0,0,10,442.9,548)" />
<use xlink:href="#f2_1y" transform="matrix(10,0,0,10,448.3,548)" />
<use xlink:href="#f2_25" transform="matrix(10,0,0,10,455.8,548)" />
<use xlink:href="#f2_2g" transform="matrix(10,0,0,10,460,548)" />
<use xlink:href="#f2_1x" transform="matrix(10,0,0,10,464.2,548)" />
<use xlink:href="#f2_28" transform="matrix(10,0,0,10,471.2,548)" />
<use xlink:href="#f2_2f" transform="matrix(10,0,0,10,475.4,548)" />
<use xlink:href="#f2_g" transform="matrix(10,0,0,10,481.1,548)" />
<use xlink:href="#f2_25" transform="matrix(10,0,0,10,488.2,548)" />
<use xlink:href="#f2_i" transform="matrix(10,0,0,10,492.4,548)" />
<use xlink:href="#f2_21" transform="matrix(10,0,0,10,496.5,548)" />
<use xlink:href="#f2_i" transform="matrix(10,0,0,10,503.3,548)" />
<use xlink:href="#f2_g" transform="matrix(10,0,0,10,507.1,548)" />
<use xlink:href="#f2_1y" transform="matrix(10,0,0,10,514.3,548)" />
<use xlink:href="#f2_2l" transform="matrix(10,0,0,10,522,548)" />
<use xlink:href="#f2_2b" transform="matrix(10,0,0,10,532.6,548)" />
<use xlink:href="#f2_2i" transform="matrix(10,0,0,10,540.1,548)" />
<use xlink:href="#f2_21" transform="matrix(10,0,0,10,547.8,548)" />
<use xlink:href="#f2_2e" transform="matrix(10,0,0,10,554.6,548)" />
<use xlink:href="#f2_28" transform="matrix(10,0,0,10,559.5,548)" />
<use xlink:href="#f2_1x" transform="matrix(10,0,0,10,563.8,548)" />
<use xlink:href="#f2_2c" transform="matrix(10,0,0,10,570.7,548)" />
<use xlink:href="#f2_2c" transform="matrix(10,0,0,10,578.3,548)" />
<use xlink:href="#f2_25" transform="matrix(10,0,0,10,586.1,548)" />
<use xlink:href="#f2_2a" transform="matrix(10,0,0,10,590.4,548)" />
<use xlink:href="#f2_23" transform="matrix(10,0,0,10,597.7,548)" />
<use xlink:href="#f2_2b" transform="matrix(10,0,0,10,608.7,548)" />
<use xlink:href="#f2_22" transform="matrix(10,0,0,10,616.6,548)" />
<use xlink:href="#f2_2c" transform="matrix(10,0,0,10,624.8,548)" />
<use xlink:href="#f2_h" transform="matrix(10,0,0,10,632.5,548)" />
<use xlink:href="#f2_2b" transform="matrix(10,0,0,10,637.3,548)" />
<use xlink:href="#f2_2e" transform="matrix(10,0,0,10,645.2,548)" />
<use xlink:href="#f2_1y" transform="matrix(10,0,0,10,650.1,548)" />
<use xlink:href="#f2_25" transform="matrix(10,0,0,10,658,548)" />
<use xlink:href="#f2_2g" transform="matrix(10,0,0,10,662,548)" />
<use xlink:href="#f2_1x" transform="matrix(10,0,0,10,666.3,548)" />
<use xlink:href="#f2_28" transform="matrix(10,0,0,10,673.2,548)" />
<use xlink:href="#f2_2f" transform="matrix(10,0,0,10,677.4,548)" />
<use xlink:href="#f2_25" transform="matrix(10,0,0,10,686.4,548)" />
<use xlink:href="#f2_2a" transform="matrix(10,0,0,10,690.8,548)" />
<use xlink:href="#f2_1x" transform="matrix(10,0,0,10,701.6,548)" />
<use xlink:href="#f2_20" transform="matrix(10,0,0,10,711.9,548)" />
<use xlink:href="#f2_25" transform="matrix(10,0,0,10,719.4,548)" />
<use xlink:href="#f2_2e" transform="matrix(10,0,0,10,723.6,548)" />
<use xlink:href="#f2_21" transform="matrix(10,0,0,10,728.9,548)" />
<use xlink:href="#f2_1z" transform="matrix(10,0,0,10,735.7,548)" />
<use xlink:href="#f2_2g" transform="matrix(10,0,0,10,742.5,548)" />
<use xlink:href="#f2_25" transform="matrix(10,0,0,10,746.5,548)" />
<use xlink:href="#f2_2b" transform="matrix(10,0,0,10,750.8,548)" />
<use xlink:href="#f2_2a" transform="matrix(10,0,0,10,758.7,548)" />
<use xlink:href="#f2_1x" transform="matrix(10,0,0,10,769.5,548)" />
<use xlink:href="#f2_2g" transform="matrix(10,0,0,10,776.3,548)" />
<use xlink:href="#f2_2e" transform="matrix(10,0,0,10,783.8,548)" />
<use xlink:href="#f2_25" transform="matrix(10,0,0,10,789.1,548)" />
<use xlink:href="#f2_23" transform="matrix(10,0,0,10,793.3,548)" />
<use xlink:href="#f2_24" transform="matrix(10,0,0,10,800.6,548)" />
<use xlink:href="#f2_2g" transform="matrix(10,0,0,10,808.3,548)" />
<use xlink:href="#f2_1x" transform="matrix(10,0,0,10,815.9,548)" />
<use xlink:href="#f2_2a" transform="matrix(10,0,0,10,822.6,548)" />
<use xlink:href="#f2_23" transform="matrix(10,0,0,10,830.2,548)" />
<use xlink:href="#f2_28" transform="matrix(10,0,0,10,837.5,548)" />
<use xlink:href="#f2_21" transform="matrix(10,0,0,10,841.7,548)" />
<use xlink:href="#f2_2f" transform="matrix(10,0,0,10,848.7,548)" />
<use xlink:href="#f2_2g" transform="matrix(10,0,0,10,89.5,570.9)" />
<use xlink:href="#f2_2b" transform="matrix(10,0,0,10,93.7,570.9)" />
<use xlink:href="#f2_2g" transform="matrix(10,0,0,10,104.3,570.9)" />
<use xlink:href="#f2_24" transform="matrix(10,0,0,10,108.5,570.9)" />
<use xlink:href="#f2_21" transform="matrix(10,0,0,10,115.9,570.9)" />
<use xlink:href="#f2_25" transform="matrix(10,0,0,10,125.6,570.9)" />
<use xlink:href="#f2_2a" transform="matrix(10,0,0,10,129.6,570.9)" />
<use xlink:href="#f2_2g" transform="matrix(10,0,0,10,137.3,570.9)" />
<use xlink:href="#f2_21" transform="matrix(10,0,0,10,141.5,570.9)" />
<use xlink:href="#f2_2e" transform="matrix(10,0,0,10,148.3,570.9)" />
<use xlink:href="#f2_2a" transform="matrix(10,0,0,10,153.5,570.9)" />
<use xlink:href="#f2_2h" transform="matrix(10,0,0,10,160.8,570.9)" />
<use xlink:href="#f2_1z" transform="matrix(10,0,0,10,168.5,570.9)" />
<use xlink:href="#f2_28" transform="matrix(10,0,0,10,175.3,570.9)" />
<use xlink:href="#f2_21" transform="matrix(10,0,0,10,179.3,570.9)" />
<use xlink:href="#f2_1x" transform="matrix(10,0,0,10,186.1,570.9)" />
<use xlink:href="#f2_2e" transform="matrix(10,0,0,10,192.9,570.9)" />
<use xlink:href="#f2_1x" transform="matrix(10,0,0,10,200.8,570.9)" />
<use xlink:href="#f2_2k" transform="matrix(10,0,0,10,207.7,570.9)" />
<use xlink:href="#f2_25" transform="matrix(10,0,0,10,215.1,570.9)" />
<use xlink:href="#f2_2f" transform="matrix(10,0,0,10,219.3,570.9)" />
<use xlink:href="#f2_c" transform="matrix(10,0,0,10,228.1,570.9)" />
<use xlink:href="#f2_22" transform="matrix(10,0,0,10,233.4,570.9)" />
<use xlink:href="#f2_25" transform="matrix(10,0,0,10,238.2,570.9)" />
<use xlink:href="#f2_23" transform="matrix(10,0,0,10,242.4,570.9)" />
<use xlink:href="#f2_2h" transform="matrix(10,0,0,10,250.1,570.9)" />
<use xlink:href="#f2_2e" transform="matrix(10,0,0,10,257.4,570.9)" />
<use xlink:href="#f2_21" transform="matrix(10,0,0,10,262.7,570.9)" />
<use xlink:href="#f2_d" transform="matrix(10,0,0,10,269.3,570.9)" />
<use xlink:href="#f2_i" transform="matrix(10,0,0,10,274.7,570.9)" />
</g>
<image preserveAspectRatio="none" x="174" y="619" width="562" height="132" xlink:href="img/3.png" />
<g fill="#000000" >
<use xlink:href="#f0_2c" transform="matrix(10,0,0,10,352,807.8)" />
<use xlink:href="#f0_h" transform="matrix(10,0,0,10,360.1,807.8)" />
<use xlink:href="#f0_2c" transform="matrix(10,0,0,10,364.6,807.8)" />
<use xlink:href="#f0_2b" transform="matrix(10,0,0,10,375.3,807.8)" />
<use xlink:href="#f0_2i" transform="matrix(10,0,0,10,382.4,807.8)" />
<use xlink:href="#f0_21" transform="matrix(10,0,0,10,389.8,807.8)" />
<use xlink:href="#f0_2e" transform="matrix(10,0,0,10,396,807.8)" />
<use xlink:href="#f0_28" transform="matrix(10,0,0,10,402.2,807.8)" />
<use xlink:href="#f0_1x" transform="matrix(10,0,0,10,405.9,807.8)" />
<use xlink:href="#f0_2c" transform="matrix(10,0,0,10,413.1,807.8)" />
<use xlink:href="#f0_2c" transform="matrix(10,0,0,10,421.1,807.8)" />
<use xlink:href="#f0_25" transform="matrix(10,0,0,10,429,807.8)" />
<use xlink:href="#f0_2a" transform="matrix(10,0,0,10,432.9,807.8)" />
<use xlink:href="#f0_23" transform="matrix(10,0,0,10,440.7,807.8)" />
<use xlink:href="#f0_22" transform="matrix(10,0,0,10,450.6,807.8)" />
<use xlink:href="#f0_2b" transform="matrix(10,0,0,10,455,807.8)" />
<use xlink:href="#f0_2e" transform="matrix(10,0,0,10,462.4,807.8)" />
<use xlink:href="#f0_29" transform="matrix(10,0,0,10,468.6,807.8)" />
<use xlink:href="#f0_25" transform="matrix(10,0,0,10,480.7,807.8)" />
<use xlink:href="#f0_2a" transform="matrix(10,0,0,10,484.4,807.8)" />
<use xlink:href="#f0_23" transform="matrix(10,0,0,10,492.4,807.8)" />
<use xlink:href="#f0_1x" transform="matrix(10,0,0,10,501.6,807.8)" />
<use xlink:href="#f0_2c" transform="matrix(10,0,0,10,511.5,807.8)" />
<use xlink:href="#f0_25" transform="matrix(10,0,0,10,519.6,807.8)" />
<use xlink:href="#f0_1y" transform="matrix(10,0,0,10,525.8,807.8)" />
<use xlink:href="#f0_2b" transform="matrix(10,0,0,10,533.7,807.8)" />
<use xlink:href="#f0_2a" transform="matrix(10,0,0,10,541,807.8)" />
<use xlink:href="#f0_20" transform="matrix(10,0,0,10,548.9,807.8)" />
<use xlink:href="#f0_c" transform="matrix(10,0,0,10,55,836.2)" />
<use xlink:href="#f0_25" transform="matrix(10,0,0,10,59.6,836.2)" />
<use xlink:href="#f0_d" transform="matrix(10,0,0,10,63.6,836.2)" />
<use xlink:href="#f0_19" transform="matrix(10,0,0,10,89.3,836.2)" />
<use xlink:href="#f0_2a" transform="matrix(10,0,0,10,95.1,836.2)" />
<use xlink:href="#f0_1z" transform="matrix(10,0,0,10,107.2,836.2)" />
<use xlink:href="#f0_1x" transform="matrix(10,0,0,10,114.2,836.2)" />
<use xlink:href="#f0_2f" transform="matrix(10,0,0,10,121.7,836.2)" />
<use xlink:href="#f0_21" transform="matrix(10,0,0,10,127.8,836.2)" />
<use xlink:href="#f0_2b" transform="matrix(10,0,0,10,138.2,836.2)" />
<use xlink:href="#f0_22" transform="matrix(10,0,0,10,146.1,836.2)" />
<use xlink:href="#f0_2b" transform="matrix(10,0,0,10,154.9,836.2)" />
<use xlink:href="#f0_2k" transform="matrix(10,0,0,10,162.4,836.2)" />
<use xlink:href="#f0_2l" transform="matrix(10,0,0,10,170.1,836.2)" />
<use xlink:href="#f0_23" transform="matrix(10,0,0,10,177.6,836.2)" />
<use xlink:href="#f0_21" transform="matrix(10,0,0,10,185.5,836.2)" />
<use xlink:href="#f0_2a" transform="matrix(10,0,0,10,192.3,836.2)" />
<use xlink:href="#f0_29" transform="matrix(10,0,0,10,204.4,836.2)" />
<use xlink:href="#f0_2b" transform="matrix(10,0,0,10,216.9,836.2)" />
<use xlink:href="#f0_28" transform="matrix(10,0,0,10,224.6,836.2)" />
<use xlink:href="#f0_21" transform="matrix(10,0,0,10,228.6,836.2)" />
<use xlink:href="#f0_1z" transform="matrix(10,0,0,10,235.6,836.2)" />
<use xlink:href="#f0_2h" transform="matrix(10,0,0,10,242.2,836.2)" />
<use xlink:href="#f0_28" transform="matrix(10,0,0,10,250.6,836.2)" />
<use xlink:href="#f0_21" transform="matrix(10,0,0,10,254.8,836.2)" />
<use xlink:href="#f2_c" transform="matrix(10,0,0,10,265.3,836.2)" />
<use xlink:href="#f2_21" transform="matrix(10,0,0,10,270.6,836.2)" />
<use xlink:href="#f2_1x" transform="matrix(10,0,0,10,277.4,836.2)" />
<use xlink:href="#f2_1z" transform="matrix(10,0,0,10,284.2,836.2)" />
<use xlink:href="#f2_24" transform="matrix(10,0,0,10,291,836.2)" />
<use xlink:href="#f2_2b" transform="matrix(10,0,0,10,302,836.2)" />
<use xlink:href="#f2_2k" transform="matrix(10,0,0,10,309.8,836.2)" />
<use xlink:href="#f2_2l" transform="matrix(10,0,0,10,317.2,836.2)" />
<use xlink:href="#f2_23" transform="matrix(10,0,0,10,324.5,836.2)" />
<use xlink:href="#f2_21" transform="matrix(10,0,0,10,332.2,836.2)" />
<use xlink:href="#f2_2a" transform="matrix(10,0,0,10,339,836.2)" />
<use xlink:href="#f2_1x" transform="matrix(10,0,0,10,350.4,836.2)" />
<use xlink:href="#f2_2g" transform="matrix(10,0,0,10,357.1,836.2)" />
<use xlink:href="#f2_2b" transform="matrix(10,0,0,10,361.4,836.2)" />
<use xlink:href="#f2_29" transform="matrix(10,0,0,10,368.9,836.2)" />
<use xlink:href="#f2_24" transform="matrix(10,0,0,10,384.1,836.2)" />
<use xlink:href="#f2_1x" transform="matrix(10,0,0,10,391.8,836.2)" />
<use xlink:href="#f2_2i" transform="matrix(10,0,0,10,398.6,836.2)" />
<use xlink:href="#f2_25" transform="matrix(10,0,0,10,405.9,836.2)" />
<use xlink:href="#f2_2a" transform="matrix(10,0,0,10,410.1,836.2)" />
<use xlink:href="#f2_23" transform="matrix(10,0,0,10,417.8,836.2)" />
<use xlink:href="#f2_21" transform="matrix(10,0,0,10,428.8,836.2)" />
<use xlink:href="#f2_28" transform="matrix(10,0,0,10,435.8,836.2)" />
<use xlink:href="#f2_21" transform="matrix(10,0,0,10,439.8,836.2)" />
<use xlink:href="#f2_1z" transform="matrix(10,0,0,10,446.6,836.2)" />
<use xlink:href="#f2_2g" transform="matrix(10,0,0,10,453.6,836.2)" />
<use xlink:href="#f2_2e" transform="matrix(10,0,0,10,457.6,836.2)" />
<use xlink:href="#f2_2b" transform="matrix(10,0,0,10,462.8,836.2)" />
<use xlink:href="#f2_2a" transform="matrix(10,0,0,10,470.7,836.2)" />
<use xlink:href="#f2_25" transform="matrix(10,0,0,10,478,836.2)" />
<use xlink:href="#f2_1z" transform="matrix(10,0,0,10,482.4,836.2)" />
<use xlink:href="#f2_1z" transform="matrix(10,0,0,10,493,836.2)" />
<use xlink:href="#f2_2b" transform="matrix(10,0,0,10,499.6,836.2)" />
<use xlink:href="#f2_2a" transform="matrix(10,0,0,10,507.5,836.2)" />
<use xlink:href="#f2_22" transform="matrix(10,0,0,10,514.8,836.2)" />
<use xlink:href="#f2_25" transform="matrix(10,0,0,10,520,836.2)" />
<use xlink:href="#f2_23" transform="matrix(10,0,0,10,524.2,836.2)" />
<use xlink:href="#f2_2h" transform="matrix(10,0,0,10,531.5,836.2)" />
<use xlink:href="#f2_2e" transform="matrix(10,0,0,10,539.2,836.2)" />
<use xlink:href="#f2_1x" transform="matrix(10,0,0,10,544.4,836.2)" />
<use xlink:href="#f2_2g" transform="matrix(10,0,0,10,551.1,836.2)" />
<use xlink:href="#f2_25" transform="matrix(10,0,0,10,555.2,836.2)" />
<use xlink:href="#f2_2b" transform="matrix(10,0,0,10,559.4,836.2)" />
<use xlink:href="#f2_2a" transform="matrix(10,0,0,10,567.3,836.2)" />
<use xlink:href="#f2_g" transform="matrix(10,0,0,10,574.6,836.2)" />
<use xlink:href="#f2_l" transform="matrix(10,0,0,10,582.3,836.2)" />
<use xlink:href="#f2_2f" transform="matrix(10,0,0,10,589.8,836.2)" />
<use xlink:href="#f2_m" transform="matrix(5.8,0,0,5.8,595.8,831.2)" />
<use xlink:href="#f2_m" transform="matrix(10,0,0,10,603.7,836.2)" />
<use xlink:href="#f2_2f" transform="matrix(10,0,0,10,611.6,836.2)" />
<use xlink:href="#f2_m" transform="matrix(5.8,0,0,5.8,617.5,831.2)" />
<use xlink:href="#f2_m" transform="matrix(10,0,0,10,625.4,836.2)" />
<use xlink:href="#f2_2c" transform="matrix(10,0,0,10,633.2,836.2)" />
<use xlink:href="#f2_m" transform="matrix(5.8,0,0,5.8,640.8,831.2)" />
<use xlink:href="#f2_2k" transform="matrix(5.8,0,0,5.8,645.3,841.5)" />
<use xlink:href="#f2_m" transform="matrix(10,0,0,10,653.4,836.2)" />
<use xlink:href="#f2_2c" transform="matrix(10,0,0,10,661.3,836.2)" />
<use xlink:href="#f2_l" transform="matrix(5.8,0,0,5.8,669,831.2)" />
<use xlink:href="#f2_2l" transform="matrix(5.8,0,0,5.8,673.2,841.5)" />
<use xlink:href="#f2_m" transform="matrix(10,0,0,10,680.9,836.2)" />
<use xlink:href="#f2_2c" transform="matrix(10,0,0,10,688.8,836.2)" />
<use xlink:href="#f2_l" transform="matrix(5.8,0,0,5.8,696.5,831.2)" />
<use xlink:href="#f2_2m" transform="matrix(5.8,0,0,5.8,700.7,841.5)" />
<use xlink:href="#f2_d" transform="matrix(10,0,0,10,704.9,836.2)" />
<use xlink:href="#f2_g" transform="matrix(10,0,0,10,710,836.2)" />
<use xlink:href="#f2_2g" transform="matrix(10,0,0,10,717.4,836.2)" />
<use xlink:href="#f2_24" transform="matrix(10,0,0,10,721.6,836.2)" />
<use xlink:href="#f2_21" transform="matrix(10,0,0,10,729.1,836.2)" />
<use xlink:href="#f2_2g" transform="matrix(10,0,0,10,739.6,836.2)" />
<use xlink:href="#f2_2j" transform="matrix(10,0,0,10,743.8,836.2)" />
<use xlink:href="#f2_2b" transform="matrix(10,0,0,10,754.6,836.2)" />
<use xlink:href="#f2_1x" transform="matrix(10,0,0,10,766.2,836.2)" />
<use xlink:href="#f2_2g" transform="matrix(10,0,0,10,772.8,836.2)" />
<use xlink:href="#f2_2b" transform="matrix(10,0,0,10,777.2,836.2)" />
<use xlink:href="#f2_29" transform="matrix(10,0,0,10,784.9,836.2)" />
<use xlink:href="#f2_2f" transform="matrix(10,0,0,10,796.2,836.2)" />
<use xlink:href="#f2_1x" transform="matrix(10,0,0,10,805.8,836.2)" />
<use xlink:href="#f2_2e" transform="matrix(10,0,0,10,812.7,836.2)" />
<use xlink:href="#f2_21" transform="matrix(10,0,0,10,817.7,836.2)" />
<use xlink:href="#f2_24" transform="matrix(10,0,0,10,828.3,836.2)" />
<use xlink:href="#f2_21" transform="matrix(10,0,0,10,835.6,836.2)" />
<use xlink:href="#f2_28" transform="matrix(10,0,0,10,842.6,836.2)" />
<use xlink:href="#f2_20" transform="matrix(10,0,0,10,846.8,836.2)" />
<use xlink:href="#f2_2g" transform="matrix(10,0,0,10,89.5,859.1)" />
<use xlink:href="#f2_2b" transform="matrix(10,0,0,10,93.7,859.1)" />
<use xlink:href="#f2_23" transform="matrix(10,0,0,10,101.4,859.1)" />
<use xlink:href="#f2_21" transform="matrix(10,0,0,10,108.9,859.1)" />
<use xlink:href="#f2_2g" transform="matrix(10,0,0,10,115.7,859.1)" />
<use xlink:href="#f2_24" transform="matrix(10,0,0,10,119.7,859.1)" />
<use xlink:href="#f2_21" transform="matrix(10,0,0,10,127.4,859.1)" />
<use xlink:href="#f2_2e" transform="matrix(10,0,0,10,134.2,859.1)" />
<use xlink:href="#f2_1y" transform="matrix(10,0,0,10,143.4,859.1)" />
<use xlink:href="#f2_2l" transform="matrix(10,0,0,10,151.3,859.1)" />
<use xlink:href="#f2_2b" transform="matrix(10,0,0,10,162.6,859.1)" />
<use xlink:href="#f2_2a" transform="matrix(10,0,0,10,170.1,859.1)" />
<use xlink:href="#f2_21" transform="matrix(10,0,0,10,177.8,859.1)" />
<use xlink:href="#f1_2f" transform="matrix(10,0,0,10,188.8,859.1)" />
<use xlink:href="#f2_h" transform="matrix(10,0,0,10,198,859.1)" />
<use xlink:href="#f2_1y" transform="matrix(10,0,0,10,203,859.1)" />
<use xlink:href="#f2_2b" transform="matrix(10,0,0,10,210.6,859.1)" />
<use xlink:href="#f2_2a" transform="matrix(10,0,0,10,218.2,859.1)" />
<use xlink:href="#f2_20" transform="matrix(10,0,0,10,225.9,859.1)" />
<use xlink:href="#f2_1x" transform="matrix(10,0,0,10,237.6,859.1)" />
<use xlink:href="#f2_2a" transform="matrix(10,0,0,10,244.6,859.1)" />
<use xlink:href="#f2_20" transform="matrix(10,0,0,10,251.9,859.1)" />
<use xlink:href="#f2_2b" transform="matrix(10,0,0,10,263.6,859.1)" />
<use xlink:href="#f2_2a" transform="matrix(10,0,0,10,271.5,859.1)" />
<use xlink:href="#f2_21" transform="matrix(10,0,0,10,278.9,859.1)" />
<use xlink:href="#f1_2c" transform="matrix(10,0,0,10,289.9,859.1)" />
<use xlink:href="#f2_h" transform="matrix(10,0,0,10,298.1,859.1)" />
<use xlink:href="#f2_1y" transform="matrix(10,0,0,10,303.1,859.1)" />
<use xlink:href="#f2_2b" transform="matrix(10,0,0,10,310.7,859.1)" />
<use xlink:href="#f2_2a" transform="matrix(10,0,0,10,318.3,859.1)" />
<use xlink:href="#f2_20" transform="matrix(10,0,0,10,326,859.1)" />
<use xlink:href="#f2_1x" transform="matrix(10,0,0,10,337.7,859.1)" />
<use xlink:href="#f2_2f" transform="matrix(10,0,0,10,344.7,859.1)" />
<use xlink:href="#f2_2f" transform="matrix(10,0,0,10,354.6,859.1)" />
<use xlink:href="#f2_24" transform="matrix(10,0,0,10,360.2,859.1)" />
<use xlink:href="#f2_2b" transform="matrix(10,0,0,10,367.9,859.1)" />
<use xlink:href="#f2_2j" transform="matrix(10,0,0,10,375.5,859.1)" />
<use xlink:href="#f2_2a" transform="matrix(10,0,0,10,386.1,859.1)" />
<use xlink:href="#f2_25" transform="matrix(10,0,0,10,397.8,859.1)" />
<use xlink:href="#f2_2a" transform="matrix(10,0,0,10,402,859.1)" />
<use xlink:href="#f2_22" transform="matrix(10,0,0,10,413.8,859.1)" />
<use xlink:href="#f2_25" transform="matrix(10,0,0,10,418.9,859.1)" />
<use xlink:href="#f2_23" transform="matrix(10,0,0,10,422.9,859.1)" />
<use xlink:href="#f2_2h" transform="matrix(10,0,0,10,430.6,859.1)" />
<use xlink:href="#f2_2e" transform="matrix(10,0,0,10,438,859.1)" />
<use xlink:href="#f2_21" transform="matrix(10,0,0,10,443.3,859.1)" />
<use xlink:href="#f2_i" transform="matrix(10,0,0,10,450.1,859.1)" />
</g>
<image preserveAspectRatio="none" x="243" y="911" width="424" height="145" xlink:href="img/4.png" />
<g fill="#000000" >
<use xlink:href="#f0_16" transform="matrix(10,0,0,10,361.7,1114.8)" />
<use xlink:href="#f0_2b" transform="matrix(10,0,0,10,370.7,1114.8)" />
<use xlink:href="#f0_2e" transform="matrix(10,0,0,10,378.2,1114.8)" />
<use xlink:href="#f0_29" transform="matrix(10,0,0,10,384.8,1114.8)" />
<use xlink:href="#f0_1x" transform="matrix(10,0,0,10,396.7,1114.8)" />
<use xlink:href="#f0_2g" transform="matrix(10,0,0,10,404.1,1114.8)" />
<use xlink:href="#f0_25" transform="matrix(10,0,0,10,409,1114.8)" />
<use xlink:href="#f0_2b" transform="matrix(10,0,0,10,412.9,1114.8)" />
<use xlink:href="#f0_2a" transform="matrix(10,0,0,10,420.2,1114.8)" />
<use xlink:href="#f0_2b" transform="matrix(10,0,0,10,431,1114.8)" />
<use xlink:href="#f0_22" transform="matrix(10,0,0,10,438.5,1114.8)" />
<use xlink:href="#f0_2b" transform="matrix(10,0,0,10,445.9,1114.8)" />
<use xlink:href="#f0_2k" transform="matrix(10,0,0,10,453.2,1114.8)" />
<use xlink:href="#f0_2l" transform="matrix(10,0,0,10,460.4,1114.8)" />
<use xlink:href="#f0_23" transform="matrix(10,0,0,10,467.7,1114.8)" />
<use xlink:href="#f0_21" transform="matrix(10,0,0,10,475.2,1114.8)" />
<use xlink:href="#f0_2a" transform="matrix(10,0,0,10,481.8,1114.8)" />
<use xlink:href="#f0_29" transform="matrix(10,0,0,10,492.4,1114.8)" />
<use xlink:href="#f0_2b" transform="matrix(10,0,0,10,504.4,1114.8)" />
<use xlink:href="#f0_28" transform="matrix(10,0,0,10,511.9,1114.8)" />
<use xlink:href="#f0_21" transform="matrix(10,0,0,10,515.7,1114.8)" />
<use xlink:href="#f0_1z" transform="matrix(10,0,0,10,522.1,1114.8)" />
<use xlink:href="#f0_2h" transform="matrix(10,0,0,10,528.6,1114.8)" />
<use xlink:href="#f0_28" transform="matrix(10,0,0,10,537,1114.8)" />
<use xlink:href="#f0_21" transform="matrix(10,0,0,10,540.8,1114.8)" />
</g>
<path fill-rule="evenodd" d="M54.1,68H856.2V96.4H54.1V68l1.5,27H854.7V69.7H55.6V95L54.1,68Z" class="g0_52" />
<path fill-rule="evenodd" d="M55.6,93.3H855.1v3H55.6v-3Z" class="g1_52" />
<path fill-rule="evenodd" d="M55.6,68.2H855.1v3.1H55.6V68.2Z" class="g1_52" />
<g fill="#000000" >
<use xlink:href="#f3_13" transform="matrix(10,0,0,10,61.2,86.7)" />
<use xlink:href="#f3_18" transform="matrix(10,0,0,10,72.4,86.7)" />
<use xlink:href="#f3_15" transform="matrix(10,0,0,10,84.9,86.7)" />
<use xlink:href="#f3_1d" transform="matrix(10,0,0,10,96.1,86.7)" />
<use xlink:href="#f3_19" transform="matrix(10,0,0,10,110.4,86.7)" />
<use xlink:href="#f3_13" transform="matrix(10,0,0,10,116.2,86.7)" />
<use xlink:href="#f3_11" transform="matrix(10,0,0,10,127.6,86.7)" />
<use xlink:href="#f3_1c" transform="matrix(10,0,0,10,138.4,86.7)" />
<use xlink:href="#f3_12" transform="matrix(10,0,0,10,152,86.7)" />
<use xlink:href="#f3_1f" transform="matrix(10,0,0,10,163.2,86.7)" />
<use xlink:href="#f3_1e" transform="matrix(10,0,0,10,175.1,86.7)" />
<use xlink:href="#f3_14" transform="matrix(10,0,0,10,186.5,86.7)" />
<use xlink:href="#f3_19" transform="matrix(10,0,0,10,198.2,86.7)" />
<use xlink:href="#f3_1e" transform="matrix(10,0,0,10,204.4,86.7)" />
<use xlink:href="#f3_17" transform="matrix(10,0,0,10,215.4,86.7)" />
</g>
<path fill-rule="evenodd" d="M55,1236H854.3v2.2H55V1236Z" class="g1_52" />
<defs>
<path d="M491,-305c0,0,-180,60,-305,247C186,-58,61,127,61,368c0,0,0,239,124,423c0,0,125,184,306,243v-34c0,0,-78,-50,-115,-99c0,0,-50,-67,-79,-172c0,0,-36,-131,-36,-365c0,0,0,-221,33,-343c0,0,32,-122,88,-197c0,0,39,-52,109,-92v-37Z" 
id="f0_c"
transform="scale(0.001,-0.001)" />

<path d="M32,0V26c0,0,46,2,69,27c0,0,14,18,14,92V551c0,0,0,75,-17,95c0,0,-17,21,-66,24v27H325V145c0,0,0,-74,17,-95c0,0,17,-21,68,-24V0ZM220,804c0,0,-48,0,-82,33c0,0,-33,34,-33,82c0,0,0,48,33,82c0,0,34,33,82,33c0,0,48,0,82,-33c0,0,33,-34,33,-82c0,0,0,-48,-34,-82c0,0,-34,-33,-81,-33Z" 
id="f0_25"
transform="scale(0.001,-0.001)" />

<path d="M19,-305v34c0,0,77,52,114,100c0,0,50,67,79,171c0,0,36,131,36,365c0,0,0,221,-33,343c0,0,-32,122,-88,198c0,0,-39,52,-108,91v37c0,0,179,-60,304,-246c0,0,125,-186,125,-428c0,0,0,-238,-125,-421c0,0,-125,-184,-304,-244Z" 
id="f0_d"
transform="scale(0.001,-0.001)" />

<path d="M312,-20c0,0,-50,0,-134,30c0,0,-22,9,-30,9c0,0,-25,0,-41,-37H82L70,232H97c0,0,33,-99,91,-148c0,0,59,-49,111,-49c0,0,35,0,58,22c0,0,22,22,22,54c0,0,0,35,-22,61c0,0,-22,27,-100,80c0,0,-114,79,-147,120c0,0,-49,62,-49,136c0,0,0,80,55,145c0,0,56,66,161,66c0,0,56,0,109,-28c0,0,20,-11,33,-11c0,0,13,0,21,5c0,0,9,6,27,32h26L504,479H477c0,0,-45,106,-94,145c0,0,-48,39,-96,39c0,0,-31,0,-52,-21c0,0,-22,-20,-22,-47c0,0,0,-20,15,-39c0,0,24,-30,133,-105c0,0,110,-74,144,-126c0,0,35,-52,35,-116c0,0,0,-58,-29,-114C511,95,482,39,429,9c0,0,-53,-29,-117,-29Z" 
id="f0_2f"
transform="scale(0.001,-0.001)" />

<path d="M37,274V428H473V274Z" 
id="f0_h"
transform="scale(0.001,-0.001)" />

<path d="M459,56c0,0,40,0,66,42c0,0,39,63,39,239c0,0,0,180,-42,247c0,0,-29,44,-76,44c0,0,-76,0,-124,-109V147c0,0,64,-91,137,-91ZM29,-326v28c0,0,46,1,69,26c0,0,14,17,14,89V551c0,0,0,75,-17,95c0,0,-17,21,-66,24v27H322V605c0,0,36,54,74,78c0,0,55,36,119,36c0,0,77,0,140,-49c0,0,63,-48,95,-134c0,0,33,-85,33,-184c0,0,0,-106,-34,-193c0,0,-34,-88,-98,-134c0,0,-65,-45,-144,-45c0,0,-57,0,-107,25c0,0,-37,19,-78,66V-188c0,0,0,-53,8,-73c0,0,9,-19,27,-28c0,0,18,-9,70,-9v-28Z" 
id="f0_2c"
transform="scale(0.001,-0.001)" />

<path d="M381,31c0,0,33,0,56,19c0,0,29,25,38,71c0,0,15,71,15,286c0,0,0,127,-14,174c0,0,-14,48,-42,69c0,0,-19,16,-50,16c0,0,-38,0,-65,-29c0,0,-27,-29,-36,-113c0,0,-8,-85,-8,-235c0,0,0,-80,10,-150c0,0,8,-53,35,-80c0,0,27,-28,61,-28Zm2,-51c0,0,-157,0,-242,110c0,0,-85,110,-85,256c0,0,0,150,87,261c0,0,86,112,238,112c0,0,90,0,169,-47c0,0,78,-47,119,-134c0,0,40,-86,40,-189c0,0,0,-149,-75,-249c0,0,-91,-120,-251,-120Z" 
id="f0_2b"
transform="scale(0.001,-0.001)" />

<path d="M367,-20L133,520c0,0,-43,98,-67,124c0,0,-17,19,-50,26v27H386V670c0,0,-35,0,-48,-13c0,0,-18,-16,-18,-39c0,0,0,-27,33,-103L468,253l91,226c0,0,40,97,40,137c0,0,0,23,-17,38c0,0,-17,14,-59,16v27H750V670c0,0,-33,-5,-54,-25c0,0,-20,-20,-62,-118L402,-20Z" 
id="f0_2i"
transform="scale(0.001,-0.001)" />

<path d="M458,424c0,0,0,120,-13,165c0,0,-13,44,-40,67c0,0,-16,14,-42,14c0,0,-39,0,-63,-38c0,0,-44,-66,-44,-182V424ZM358,-20c0,0,-155,0,-235,119c0,0,-64,96,-64,239c0,0,0,174,94,277c0,0,94,104,221,104c0,0,106,0,184,-87c0,0,78,-87,84,-257H259c0,0,7,-139,74,-220c0,0,51,-62,124,-62c0,0,45,0,81,25c0,0,37,25,79,90l25,-16C642,192,585,76,517,28c0,0,-69,-48,-159,-48Z" 
id="f0_21"
transform="scale(0.001,-0.001)" />

<path d="M57,0V26c0,0,45,4,61,25c0,0,16,22,16,113V550c0,0,0,59,-6,76c0,0,-7,21,-22,30c0,0,-14,10,-49,14v27H342l1,-158c0,0,69,109,121,144c0,0,52,36,100,36c0,0,42,0,66,-26c0,0,25,-26,25,-73c0,0,0,-50,-24,-77c0,0,-25,-28,-59,-28c0,0,-39,0,-68,25c0,0,-28,26,-33,29c0,0,-8,4,-17,4c0,0,-22,0,-41,-16c0,0,-31,-26,-46,-73c0,0,-24,-72,-24,-159V122c0,0,0,-42,5,-54c0,0,9,-21,27,-30c0,0,17,-9,59,-12V0Z" 
id="f0_2e"
transform="scale(0.001,-0.001)" />

<path d="M32,0V26c0,0,46,2,69,27c0,0,14,18,14,92V867c0,0,0,74,-17,94c0,0,-17,21,-66,24v27H325V145c0,0,0,-74,17,-95c0,0,17,-21,68,-24V0Z" 
id="f0_28"
transform="scale(0.001,-0.001)" />

<path d="M350,115c0,0,37,0,86,42V391c0,0,-90,-53,-134,-113c0,0,-29,-41,-29,-82c0,0,0,-34,24,-60c0,0,19,-21,53,-21ZM207,-9c0,0,-59,0,-99,38c0,0,-40,40,-40,99c0,0,0,80,69,143c0,0,69,64,299,170v70c0,0,0,79,-8,100c0,0,-9,20,-33,36c0,0,-23,15,-53,15c0,0,-49,0,-80,-22c0,0,-19,-13,-19,-31c0,0,0,-16,21,-39c0,0,28,-32,28,-62c0,0,0,-36,-27,-62c0,0,-27,-26,-71,-26c0,0,-47,0,-79,29c0,0,-32,28,-32,66c0,0,0,54,43,103c0,0,42,48,118,75c0,0,76,26,158,26c0,0,99,0,157,-42c0,0,58,-43,75,-92c0,0,11,-31,11,-144V170c0,0,0,-47,3,-60c0,0,4,-12,11,-18c0,0,8,-6,18,-6c0,0,19,0,39,28L738,96c0,0,-37,-56,-77,-81c0,0,-40,-24,-90,-24c0,0,-60,0,-94,27c0,0,-33,28,-41,85C436,103,309,-9,207,-9Z" 
id="f0_1x"
transform="scale(0.001,-0.001)" />

<path d="M52,0V26c0,0,44,5,62,29c0,0,13,16,13,97V546c0,0,0,79,-14,98c0,0,-15,20,-61,26v27H336V607c0,0,54,59,104,85c0,0,49,27,106,27c0,0,68,0,113,-38c0,0,44,-38,59,-94c0,0,12,-42,12,-163V152c0,0,0,-81,15,-101c0,0,14,-19,61,-25V0H452V26c0,0,40,6,57,33c0,0,12,19,12,93V462c0,0,0,86,-7,109c0,0,-6,22,-22,35c0,0,-16,12,-36,12c0,0,-64,0,-120,-92V152c0,0,0,-79,15,-100c0,0,15,-20,55,-26V0Z" 
id="f0_2a"
transform="scale(0.001,-0.001)" />

<path d="M393,-277c0,0,104,0,164,28c0,0,59,27,59,77c0,0,0,19,-11,32c0,0,-20,22,-61,30c0,0,-41,8,-218,8c0,0,-76,0,-101,-12c0,0,-42,-23,-42,-63c0,0,0,-38,44,-69c0,0,44,-31,166,-31ZM366,253c0,0,45,0,75,41c0,0,30,41,30,160c0,0,0,134,-33,183c0,0,-24,36,-68,36c0,0,-43,0,-73,-44c0,0,-30,-44,-30,-181c0,0,0,-112,29,-153c0,0,30,-42,70,-42Zm8,-581c0,0,-94,0,-171,18c0,0,-78,18,-112,51c0,0,-33,32,-33,68c0,0,0,34,25,61c0,0,26,28,96,46c0,0,-97,48,-97,132c0,0,0,51,40,100c0,0,39,48,125,84c0,0,-100,36,-145,96c0,0,-44,60,-44,138c0,0,0,103,83,178c0,0,84,75,215,75c0,0,70,0,144,-30H734V607H601c0,0,37,-36,51,-66c0,0,18,-40,18,-85c0,0,0,-74,-42,-129c0,0,-41,-55,-112,-86c0,0,-72,-31,-127,-31c0,0,-5,0,-90,4c0,0,-33,0,-56,-22c0,0,-23,-22,-23,-52c0,0,0,-27,21,-44c0,0,20,-17,66,-17l130,1c0,0,157,0,216,-34c0,0,84,-47,84,-146c0,0,0,-64,-39,-115c0,0,-38,-52,-102,-77c0,0,-96,-36,-222,-36Z" 
id="f0_23"
transform="scale(0.001,-0.001)" />

<path d="M37,0V16c0,0,275,327,333,439c0,0,59,113,59,220c0,0,0,79,-49,131c0,0,-49,52,-119,52c0,0,-115,0,-178,-115l-28,9c0,0,40,143,123,212c0,0,82,69,189,69c0,0,77,0,141,-36c0,0,63,-36,99,-98c0,0,36,-63,36,-117c0,0,0,-99,-56,-202c0,0,-75,-138,-329,-384H477c0,0,81,0,105,6c0,0,24,7,40,23c0,0,15,16,41,67h27L633,0Z" 
id="f0_m"
transform="scale(0.001,-0.001)" />

<path d="M191,-18c0,0,-51,0,-87,36c0,0,-37,36,-37,87c0,0,0,52,37,88c0,0,36,37,87,37c0,0,52,0,89,-37c0,0,36,-36,36,-88c0,0,0,-51,-37,-87c0,0,-36,-36,-88,-36Z" 
id="f0_i"
transform="scale(0.001,-0.001)" />

<path d="M450,515c0,0,91,0,141,54c0,0,49,54,49,167c0,0,0,113,-49,165c0,0,-50,52,-148,52H413V516c0,0,24,-1,37,-1ZM39,0V27c0,0,70,0,95,13c0,0,25,14,35,35c0,0,10,21,10,103V834c0,0,0,82,-10,104c0,0,-10,21,-36,34c0,0,-25,13,-94,13v27H480c0,0,218,0,313,-78c0,0,94,-77,94,-194c0,0,0,-99,-61,-169c0,0,-61,-70,-169,-95c0,0,-72,-18,-244,-18V178c0,0,0,-82,10,-104c0,0,10,-21,35,-34c0,0,26,-13,94,-13V0Z" 
id="f0_1g"
transform="scale(0.001,-0.001)" />

<path d="M140,-21c0,0,-26,0,-44,17C96,-4,79,13,79,40c0,0,0,19,6,33c0,0,8,20,34,55c0,0,46,60,64,126c0,0,32,114,41,321H190c0,0,-55,0,-81,-18c0,0,-44,-26,-80,-89H0c0,0,42,129,98,178c0,0,43,37,120,37H743V575H562c0,0,-27,-171,-27,-327c0,0,0,-77,27,-110c0,0,27,-33,67,-33c0,0,33,0,56,22c0,0,24,22,31,65h27C743,192,730,74,686,26c0,0,-44,-47,-98,-47c0,0,-58,0,-97,51c0,0,-39,53,-39,198c0,0,0,91,28,347H286c0,0,-23,-390,-56,-494c0,0,-33,-102,-90,-102Z" 
id="f1_2c"
transform="scale(0.001,-0.001)" />

<path d="M488,56c0,0,60,0,110,26c0,0,51,27,78,77c0,0,27,50,27,112c0,0,0,71,-33,127c0,0,-32,56,-90,79L407,499V137c0,0,0,-40,20,-61c0,0,21,-20,61,-20ZM407,557c0,0,107,0,157,24c0,0,51,24,78,67c0,0,27,44,27,111c0,0,0,67,-27,110c0,0,-26,43,-76,66c0,0,-47,21,-153,21c-2,0,-3,0,-5,0L407,557ZM32,0V27c0,0,70,0,95,13c0,0,25,14,35,35c0,0,10,21,10,103V834c0,0,0,82,-10,104c0,0,-10,21,-35,34c0,0,-26,13,-95,13v27H517c0,0,174,0,246,-31c0,0,73,-31,115,-92c0,0,41,-62,41,-131c0,0,0,-73,-53,-130c0,0,-53,-57,-186,-91c0,0,144,-34,202,-81c0,0,83,-68,83,-177c0,0,0,-114,-91,-189C874,90,761,0,546,0Z" 
id="f0_12"
transform="scale(0.001,-0.001)" />

<path d="M397,69c0,0,65,0,123,103V539c0,0,-55,105,-134,105c0,0,-28,0,-46,-15c0,0,-27,-23,-45,-81c0,0,-17,-58,-17,-178c0,0,0,-132,19,-195c0,0,19,-63,53,-91c0,0,17,-15,47,-15ZM332,-20c0,0,-133,0,-211,119c0,0,-62,97,-62,238c0,0,0,112,38,202c0,0,39,89,107,134c0,0,67,46,145,46c0,0,50,0,88,-20c0,0,39,-19,83,-67V842c0,0,0,80,-7,96c0,0,-8,22,-26,32c0,0,-18,11,-68,11v31H729V209c0,0,0,-81,5,-96c0,0,6,-25,22,-36c0,0,17,-12,58,-15V37L520,-20V90C520,90,467,26,426,3c0,0,-42,-23,-94,-23Z" 
id="f0_20"
transform="scale(0.001,-0.001)" />

<path d="M435,502c0,0,78,0,134,60c0,0,57,60,57,155c0,0,0,66,-27,122c0,0,-27,56,-76,84c0,0,-50,28,-112,28c0,0,-38,0,-98,-14V517c0,0,39,-8,70,-12c0,0,31,-3,52,-3ZM25,0V27H63c0,0,65,0,92,42c0,0,15,23,15,110V833c0,0,0,96,-20,119c0,0,-29,33,-87,33H25v27H396c0,0,136,0,214,-28c0,0,78,-28,132,-94c0,0,54,-67,54,-158c0,0,0,-124,-82,-202c0,0,-82,-77,-231,-77c0,0,-36,0,-79,5c0,0,-43,5,-91,16V179c0,0,0,-96,21,-119c0,0,28,-33,85,-33h39V0Z" 
id="f2_1g"
transform="scale(0.001,-0.001)" />

<path d="M55,0V26c0,0,50,0,67,10c0,0,17,10,27,32c0,0,10,23,10,86V418c0,0,0,111,-6,144c0,0,-6,24,-17,33c0,0,-11,10,-30,10c0,0,-21,0,-51,-11L45,620l206,83h33V154c0,0,0,-64,9,-85c0,0,9,-22,27,-32c0,0,19,-11,67,-11V0ZM222,909c0,0,-32,0,-54,23c0,0,-22,22,-22,53c0,0,0,32,22,54c0,0,22,22,54,22c0,0,31,0,53,-22c0,0,22,-22,22,-54c0,0,0,-31,-22,-53c0,0,-22,-23,-53,-23Z" 
id="f2_25"
transform="scale(0.001,-0.001)" />

<path d="M62,286V399H448V286Z" 
id="f2_h"
transform="scale(0.001,-0.001)" />

<path d="M397,34c0,0,67,0,126,75c0,0,58,74,58,216c0,0,0,131,-58,201c0,0,-59,70,-133,70c0,0,-39,0,-79,-20c0,0,-29,-14,-75,-59V109c0,0,37,-37,78,-56c0,0,40,-19,83,-19ZM358,-20c0,0,-59,0,-121,21c0,0,-61,22,-126,65V773c0,0,0,117,-5,144c0,0,-6,27,-18,37c0,0,-12,9,-29,9c0,0,-21,0,-53,-12l-9,27l205,83h34V564c0,0,98,139,213,139c0,0,105,0,183,-90c0,0,78,-90,78,-245c0,0,0,-182,-121,-293c0,0,-103,-95,-231,-95Z" 
id="f2_1y"
transform="scale(0.001,-0.001)" />

<path d="M406,32c0,0,72,0,119,60c0,0,47,59,47,205c0,0,0,181,-78,286c0,0,-53,71,-135,71c0,0,-40,0,-79,-23c0,0,-40,-24,-65,-83c0,0,-24,-58,-24,-151c0,0,0,-149,59,-257c0,0,59,-108,156,-108ZM374,-20c0,0,-154,0,-245,122c0,0,-77,104,-77,233c0,0,0,94,46,187c0,0,47,92,123,137c0,0,76,44,161,44c0,0,155,0,249,-118c0,0,80,-100,80,-231c0,0,0,-91,-44,-185C667,169,623,75,546,27c0,0,-77,-47,-172,-47Z" 
id="f2_2b"
transform="scale(0.001,-0.001)" />

<path d="M21,0V26H35c0,0,53,0,71,27c0,0,18,27,18,101V408c0,0,0,123,-5,150c0,0,-6,27,-17,37c0,0,-12,10,-31,10c0,0,-21,0,-50,-11L10,620l206,83h32V558c0,0,120,145,229,145c0,0,56,0,96,-28c0,0,40,-28,64,-92c0,0,16,-45,16,-137V154c0,0,0,-65,11,-88c0,0,8,-19,26,-29c0,0,18,-11,68,-11V0H419V26h14c0,0,47,0,66,15c0,0,20,15,27,43c0,0,3,11,3,70V434c0,0,0,93,-24,135c0,0,-24,42,-81,42c0,0,-88,0,-176,-97V154c0,0,0,-69,9,-86c0,0,10,-21,28,-31c0,0,19,-11,75,-11V0Z" 
id="f2_2a"
transform="scale(0.001,-0.001)" />

<path d="M399,62c0,0,68,0,131,68V481c0,0,-5,51,-27,93c0,0,-22,42,-59,63c0,0,-37,21,-72,21c0,0,-65,0,-117,-59c0,0,-67,-77,-67,-226c0,0,0,-151,65,-231c0,0,66,-80,146,-80ZM330,-20c0,0,-112,0,-196,93c0,0,-83,94,-83,240c0,0,0,147,92,269c0,0,93,122,238,122c0,0,90,0,149,-58V773c0,0,0,117,-6,144c0,0,-5,27,-17,37c0,0,-12,9,-30,9c0,0,-20,0,-52,-12l-9,27l204,83h33V270c0,0,0,-120,6,-146c0,0,5,-27,18,-37c0,0,12,-11,28,-11c0,0,21,0,54,13l9,-26L564,-20H530V78C530,78,480,25,432,2c0,0,-47,-22,-102,-22Z" 
id="f2_20"
transform="scale(0.001,-0.001)" />

<path d="M312,-20c0,0,-62,0,-143,22c0,0,-25,8,-40,8c0,0,-18,0,-27,-19H77V234h25c0,0,21,-105,80,-158c0,0,59,-53,132,-53c0,0,51,0,84,31c0,0,32,30,32,72c0,0,0,52,-36,87c0,0,-36,35,-144,88c0,0,-109,54,-142,97c0,0,-34,43,-34,107c0,0,0,85,58,141c0,0,58,57,150,57c0,0,40,0,97,-17c0,0,38,-11,51,-11c0,0,12,0,19,5c0,0,7,5,15,23h25V470H464c0,0,-28,110,-72,149c0,0,-45,40,-113,40c0,0,-53,0,-85,-28c0,0,-32,-27,-32,-61c0,0,0,-41,24,-71c0,0,23,-31,94,-65L389,381c0,0,152,-74,152,-194c0,0,0,-94,-71,-151c0,0,-70,-56,-158,-56Z" 
id="f2_2f"
transform="scale(0.001,-0.001)" />

<path d="M63,0V26H93c0,0,30,0,54,15c0,0,25,15,34,41c0,0,10,25,10,99V630H58v53H191v45c0,0,0,102,33,173c0,0,32,71,100,114c0,0,68,44,152,44c0,0,79,0,145,-51c0,0,43,-33,43,-75c0,0,0,-22,-19,-42c0,0,-20,-20,-42,-20c0,0,-17,0,-36,12c0,0,-19,13,-47,53c0,0,-28,41,-51,55c0,0,-23,14,-51,14c0,0,-35,0,-58,-18c0,0,-24,-18,-35,-57c0,0,-10,-38,-10,-197V683H491V630H315V181c0,0,0,-96,21,-122c0,0,27,-33,73,-33h62V0Z" 
id="f2_22"
transform="scale(0.001,-0.001)" />

<path d="M17,0V26c0,0,52,0,77,17c0,0,19,12,26,38c0,0,4,13,4,73V419c0,0,0,119,-5,142c0,0,-4,23,-17,33c0,0,-13,11,-33,11c0,0,-23,0,-52,-11l-7,26l207,83h31V549c0,0,86,154,176,154c0,0,41,0,68,-25c0,0,27,-25,27,-58c0,0,0,-29,-20,-49c0,0,-19,-20,-46,-20c0,0,-26,0,-58,25c0,0,-33,26,-48,26c0,0,-14,0,-29,-15c0,0,-34,-30,-70,-101V159c0,0,0,-56,15,-85c0,0,9,-20,34,-34c0,0,24,-14,71,-14V0Z" 
id="f2_2e"
transform="scale(0.001,-0.001)" />

<path d="M23,0V26c0,0,47,0,66,10c0,0,19,11,28,33c0,0,10,22,10,85V416c0,0,0,112,-7,145c0,0,-5,25,-16,34c0,0,-11,10,-31,10c0,0,-21,0,-50,-11L12,620l207,83h32V557c0,0,75,75,88,86c0,0,34,29,72,44c0,0,39,16,77,16c0,0,64,0,110,-37c0,0,47,-38,62,-109c0,0,77,90,130,118c0,0,53,28,109,28c0,0,54,0,96,-28c0,0,42,-28,67,-91c0,0,16,-43,16,-136V154c0,0,0,-64,10,-88c0,0,8,-16,28,-28c0,0,20,-12,65,-12V0H844V26h14c0,0,44,0,69,18c0,0,17,12,24,38c0,0,3,13,3,72V448c0,0,0,83,-20,117c0,0,-29,48,-93,48c0,0,-39,0,-79,-20c0,0,-40,-19,-97,-73l-1,-8l2,-32V154c0,0,0,-70,8,-87c0,0,7,-17,29,-29c0,0,21,-12,73,-12V0H431V26c0,0,57,0,78,14c0,0,21,13,29,40c0,0,4,13,4,74V448c0,0,0,83,-25,120c0,0,-33,48,-91,48c0,0,-40,0,-80,-22c0,0,-61,-33,-95,-74V154c0,0,0,-67,10,-87c0,0,9,-20,27,-30c0,0,18,-11,74,-11V0Z" 
id="f2_29"
transform="scale(0.001,-0.001)" />

<path d="M479,469c0,0,-4,66,-16,93c0,0,-18,42,-55,65c0,0,-37,24,-78,24c0,0,-62,0,-111,-48c0,0,-48,-48,-57,-134ZM355,-20c0,0,-123,0,-211,95c0,0,-87,96,-87,258c0,0,0,175,90,273c0,0,89,98,225,98c0,0,115,0,189,-76c0,0,74,-75,74,-202H162c0,0,0,-152,74,-239c0,0,75,-86,175,-86c0,0,67,0,117,36c0,0,50,37,83,127l24,-15c0,0,-16,-102,-91,-186c0,0,-76,-83,-189,-83Z" 
id="f2_21"
transform="scale(0.001,-0.001)" />

<path d="M145,-328c0,0,-44,0,-73,25c0,0,-28,25,-28,58c0,0,0,31,21,50c0,0,20,19,56,19c0,0,25,0,67,-16c0,0,30,-11,38,-11c0,0,22,0,49,23c0,0,26,23,53,89L376,28L131,542c0,0,-11,24,-36,58c0,0,-19,27,-30,36c0,0,-18,12,-56,21v26H328V657H312c0,0,-33,0,-50,-15c0,0,-17,-14,-17,-36c0,0,0,-30,25,-81L437,179L589,557c0,0,12,31,12,62c0,0,0,13,-5,20c0,0,-6,8,-19,13c0,0,-12,5,-44,5v26H754V657c0,0,-27,-3,-42,-12c0,0,-15,-9,-33,-34c0,0,-7,-10,-25,-58L376,-128c0,0,-40,-99,-105,-150c0,0,-66,-50,-126,-50Z" 
id="f2_2l"
transform="scale(0.001,-0.001)" />

<path d="M58,0V26c0,0,47,0,64,10c0,0,18,10,28,32c0,0,9,23,9,86V775c0,0,0,116,-5,142c0,0,-5,27,-17,37c0,0,-11,9,-29,9c0,0,-20,0,-49,-12L46,978l204,83h34V154c0,0,0,-64,9,-85c0,0,9,-21,29,-32c0,0,19,-11,72,-11V0Z" 
id="f2_28"
transform="scale(0.001,-0.001)" />

<path d="M286,72c0,0,57,0,149,75V407c0,0,-113,-45,-145,-64c0,0,-59,-32,-85,-68c0,0,-25,-36,-25,-78c0,0,0,-54,32,-89c0,0,32,-36,74,-36ZM217,-13c0,0,-71,0,-116,48c0,0,-46,48,-46,127c0,0,0,50,22,87c0,0,31,50,106,95c0,0,76,45,252,109v26c0,0,0,102,-32,140c0,0,-32,38,-94,38c0,0,-47,0,-74,-25c0,0,-28,-25,-28,-58l1,-43c0,0,0,-34,-17,-53c0,0,-18,-18,-47,-18c0,0,-28,0,-45,19c0,0,-18,19,-18,53c0,0,0,64,66,117c0,0,65,54,184,54c0,0,91,0,149,-31c0,0,44,-23,65,-72c0,0,13,-32,13,-131V238c0,0,0,-98,4,-120c0,0,4,-22,12,-29c0,0,9,-8,20,-8c0,0,12,0,21,5c0,0,16,10,61,55V99C676,99,592,-12,516,-12c0,0,-37,0,-58,24c0,0,-22,26,-23,86C435,98,330,17,303,5c0,0,-40,-18,-86,-18Z" 
id="f2_1x"
transform="scale(0.001,-0.001)" />

<path d="M255,-10c0,0,-35,0,-68,18c0,0,-32,19,-48,55c0,0,-16,35,-16,109V632H15v24c0,0,41,16,84,56c0,0,43,39,77,92c0,0,17,29,48,104h23V683H407V632H247V188c0,0,0,-66,19,-90c0,0,19,-23,49,-23c0,0,24,0,47,16c0,0,23,15,36,45h29c0,0,-26,-73,-74,-110c0,0,-47,-36,-98,-36Z" 
id="f2_2g"
transform="scale(0.001,-0.001)" />

<path d="M474,-326c0,0,-112,57,-188,133c0,0,-107,108,-165,254c0,0,-58,147,-58,305c0,0,0,231,114,421c0,0,114,191,297,273v-31c0,0,-92,-51,-151,-139c0,0,-59,-88,-88,-223c0,0,-30,-135,-30,-281c0,0,0,-160,25,-290c0,0,20,-102,47,-164c0,0,28,-62,75,-120c0,0,47,-57,122,-109v-29Z" 
id="f2_c"
transform="scale(0.001,-0.001)" />

<path d="M336,-20L117,554c0,0,-21,55,-42,74c0,0,-21,19,-66,29v26H296V657c0,0,-40,-3,-52,-14c0,0,-13,-12,-13,-33c0,0,0,-23,13,-56L390,162L537,481L498,581c0,0,-18,46,-47,63c0,0,-17,11,-61,13v26H716V657c0,0,-54,-2,-77,-20c0,0,-15,-12,-15,-39c0,0,0,-15,6,-30L785,177L929,554c0,0,15,40,15,65c0,0,0,14,-15,25c0,0,-14,12,-57,13v26h216V657c0,0,-65,-10,-95,-89L764,-20H733L563,415L363,-20Z" 
id="f2_2j"
transform="scale(0.001,-0.001)" />

<path d="M35,-326v29c0,0,92,51,151,139c0,0,60,87,89,221c0,0,28,136,28,282c0,0,0,159,-24,290c0,0,-19,103,-47,165c0,0,-28,62,-75,119c0,0,-46,57,-122,110v31c0,0,113,-56,188,-132c0,0,107,-109,165,-255c0,0,58,-147,58,-306c0,0,0,-231,-114,-420c0,0,-113,-191,-297,-273Z" 
id="f2_d"
transform="scale(0.001,-0.001)" />

<path d="M376,-20L133,556c0,0,-17,41,-31,58c0,0,-15,18,-39,30c0,0,-12,7,-50,13v26H335V657H314c0,0,-29,0,-44,-14c0,0,-16,-14,-15,-38c0,0,-1,-26,15,-62L429,165L588,557c0,0,17,42,17,64c0,0,0,10,-6,17c0,0,-8,11,-21,15c0,0,-13,4,-52,4v26H750V657c0,0,-39,-3,-54,-16c0,0,-26,-23,-47,-76L409,-20Z" 
id="f2_2i"
transform="scale(0.001,-0.001)" />

<path d="M398,24c0,0,74,0,120,58c0,0,61,76,61,214c0,0,0,156,-69,240c0,0,-47,59,-113,59c0,0,-36,0,-71,-18c0,0,-27,-14,-88,-81V242c0,0,0,-83,6,-109c0,0,11,-43,51,-76c0,0,41,-33,103,-33ZM-4,-326v27H15c5,0,42,0,69,16c0,0,14,8,22,26c0,0,7,19,7,94V481c0,0,0,67,-6,85c0,0,-5,18,-18,27c0,0,-13,9,-36,9c0,0,-18,0,-45,-10L0,615l209,85h29V540c0,0,53,91,106,127c0,0,53,36,112,36c0,0,103,0,172,-80c0,0,84,-99,84,-257c0,0,0,-176,-102,-292c0,0,-83,-94,-210,-94c0,0,-55,0,-95,16c0,0,-30,10,-67,44V-167c0,0,0,-71,8,-90c0,0,9,-20,30,-31c0,0,21,-11,77,-11v-27Z" 
id="f2_2c"
transform="scale(0.001,-0.001)" />

<path d="M411,-239c0,0,134,0,198,48c0,0,64,47,64,100c0,0,0,39,-38,55c0,0,-39,16,-154,19c0,0,-167,5,-258,17c0,0,-35,-37,-53,-70c0,0,-17,-32,-17,-60c0,0,0,-36,43,-62c0,0,74,-47,215,-47ZM380,257c0,0,56,0,93,43c0,0,36,42,36,133c0,0,0,118,-51,185c0,0,-38,49,-98,49c0,0,-55,0,-92,-44c0,0,-37,-44,-37,-135c0,0,0,-117,50,-182c0,0,39,-49,99,-49ZM345,-328c0,0,-144,0,-243,64c0,0,-56,38,-56,78c0,0,0,18,8,36c0,0,13,27,52,76c0,0,5,7,76,80c0,0,-39,23,-55,41c0,0,-16,19,-16,42c0,0,0,26,22,61c0,0,21,35,98,100c0,0,-63,30,-97,85c0,0,-33,55,-33,121c0,0,0,101,76,174c0,0,77,73,196,73c0,0,98,0,170,-48H688c0,0,32,0,37,-2c0,0,6,-2,8,-6c0,0,4,-7,4,-24c0,0,0,-20,-4,-27c0,0,-2,-4,-7,-6c0,0,-6,-2,-38,-2H599c0,0,41,-54,41,-137c0,0,0,-96,-73,-163c0,0,-73,-68,-196,-68c0,0,-51,0,-104,15c0,0,-33,-28,-44,-49c0,0,-12,-22,-12,-37c0,0,0,-12,13,-24c0,0,12,-12,48,-17c0,0,21,-4,104,-6c0,0,154,-4,199,-11c0,0,70,-10,111,-51c0,0,42,-41,42,-102c0,0,0,-84,-79,-158c0,0,-117,-108,-304,-108Z" 
id="f2_23"
transform="scale(0.001,-0.001)" />

<path d="M82,-253v33c0,0,77,25,119,78c0,0,42,54,42,114c0,0,0,14,-7,23c0,0,-5,6,-11,6c0,0,-8,0,-35,-14c0,0,-14,-7,-28,-7c0,0,-37,0,-58,21C104,1,82,23,82,61c0,0,0,36,28,62c0,0,28,27,68,27c0,0,49,0,88,-43c0,0,38,-43,38,-113c0,0,0,-77,-53,-143c0,0,-53,-66,-169,-104Z" 
id="f2_g"
transform="scale(0.001,-0.001)" />

<path d="M191,-20c0,0,-34,0,-58,24c0,0,-24,24,-24,58c0,0,0,35,24,59c0,0,24,24,58,24c0,0,35,0,59,-24c0,0,24,-25,24,-59c0,0,0,-34,-24,-58c0,0,-25,-24,-59,-24Z" 
id="f2_i"
transform="scale(0.001,-0.001)" />

<path d="M342,-20c0,0,-116,0,-203,97c0,0,-86,98,-86,264c0,0,0,161,96,261c0,0,95,101,230,101c0,0,100,0,165,-53c0,0,65,-54,65,-111c0,0,0,-29,-18,-46c0,0,-18,-18,-51,-18c0,0,-44,0,-66,29c0,0,-13,15,-17,59c0,0,-4,45,-30,68c0,0,-26,22,-73,22c0,0,-74,0,-120,-55c0,0,-60,-73,-60,-193c0,0,0,-122,60,-216c0,0,60,-93,162,-93c0,0,73,0,131,49c0,0,41,35,80,126l22,-10C629,261,601,125,521,52c0,0,-81,-72,-179,-72Z" 
id="f2_1z"
transform="scale(0.001,-0.001)" />

<path d="M20,0V26c0,0,45,0,71,15c0,0,15,7,24,28c0,0,9,21,9,85V773c0,0,0,117,-5,144c0,0,-6,27,-17,37c0,0,-12,9,-31,9c0,0,-16,0,-51,-12L10,978l204,83h34V561c0,0,83,91,131,116c0,0,49,26,97,26c0,0,58,0,100,-32c0,0,42,-32,62,-101c0,0,14,-47,14,-174V154c0,0,0,-65,11,-89c0,0,7,-18,25,-28c0,0,18,-11,66,-11V0H418V26h15c0,0,48,0,67,15c0,0,18,15,26,43c0,0,2,12,2,70V396c0,0,0,112,-12,147c0,0,-11,35,-36,53c0,0,-26,17,-61,17c0,0,-37,0,-76,-19c0,0,-40,-20,-95,-79V154c0,0,0,-70,8,-87c0,0,8,-17,29,-29c0,0,22,-12,74,-12V0Z" 
id="f2_24"
transform="scale(0.001,-0.001)" />

<path d="M292,-20c0,0,-57,0,-100,33c0,0,-42,33,-58,85c0,0,-17,52,-17,148V551c0,0,0,49,-10,68c0,0,-11,18,-31,29c0,0,-19,9,-68,9c-2,0,-4,0,-6,0v26H242V226c0,0,0,-95,33,-125c0,0,33,-30,80,-30c0,0,32,0,73,21c0,0,40,20,96,76V555c0,0,0,59,-21,80c0,0,-22,21,-89,22v26H647V269c0,0,0,-119,6,-145c0,0,6,-27,18,-37c0,0,12,-11,29,-11c0,0,23,0,52,13L763,63L558,-20H524V124C524,124,436,29,390,4c0,0,-47,-24,-98,-24Z" 
id="f2_2h"
transform="scale(0.001,-0.001)" />

<path d="M25,0V26c0,0,27,4,47,19c0,0,29,22,96,111L311,346L182,535c0,0,-55,81,-86,102c0,0,-30,20,-75,20v26H341V657c0,0,-30,0,-42,-10c0,0,-13,-11,-13,-28c0,0,0,-19,27,-56c0,0,8,-12,25,-37l48,-78l56,77c0,0,55,74,55,94c0,0,0,16,0,27c0,0,0,11,0,11v26H674V657c0,0,-37,-2,-64,-20c0,0,-37,-26,-100,-111L416,402L587,156c0,0,63,-91,89,-109c0,0,27,-18,70,-21V0H423V26c0,0,34,0,53,15c0,0,14,11,14,28c0,0,0,17,-48,87L341,302L232,157c0,0,-50,-69,-50,-82c0,0,0,-18,17,-32c0,0,17,-15,50,-17V0Z" 
id="f2_2k"
transform="scale(0.001,-0.001)" />

<path d="M49,0V26c0,0,47,1,67,11c0,0,20,10,28,28c0,0,7,18,7,75l-1,484H49v73H150v87c0,0,0,107,79,179c0,0,78,71,212,71c0,0,92,0,136,-34c0,0,45,-34,45,-76c0,0,0,-34,-28,-58c0,0,-28,-25,-73,-25c0,0,-39,0,-62,20c0,0,-22,20,-22,45c0,0,0,6,4,27c0,0,3,13,3,24c0,0,0,16,-9,23c0,0,-12,11,-29,11c0,0,-21,0,-36,-17c0,0,-15,-18,-15,-58l1,-130V697H460V624H356l1,-484c0,0,0,-70,15,-88c0,0,22,-26,81,-26c2,0,5,0,7,0V0Z" 
id="f0_22"
transform="scale(0.001,-0.001)" />

<path d="M56,0V26c0,0,44,5,63,29c0,0,13,16,13,97V546c0,0,0,79,-15,98c0,0,-14,20,-61,26v27H341V606c0,0,57,63,106,88c0,0,49,25,108,25c0,0,67,0,112,-32c0,0,46,-31,71,-95c0,0,59,67,114,97c0,0,55,30,115,30c0,0,72,0,115,-34c0,0,43,-33,60,-84c0,0,16,-51,16,-163V152c0,0,0,-81,15,-100c0,0,14,-20,61,-26V0H873V26c0,0,42,4,63,33c0,0,13,20,13,93V452c0,0,0,93,-7,119c0,0,-8,25,-24,38c0,0,-16,12,-37,12c0,0,-32,0,-65,-24c0,0,-33,-23,-66,-70V152c0,0,0,-76,12,-95c0,0,17,-28,66,-31V0H466V26c0,0,29,2,46,15c0,0,17,13,23,31c0,0,5,18,5,80V452c0,0,0,95,-7,119c0,0,-8,24,-25,37c0,0,-18,14,-38,14c0,0,-30,0,-54,-16c0,0,-35,-23,-75,-79V152c0,0,0,-74,14,-98c0,0,15,-23,61,-28V0Z" 
id="f0_29"
transform="scale(0.001,-0.001)" />

<path d="M434,31c0,0,38,0,65,22c0,0,28,22,46,86c0,0,18,64,18,231c0,0,0,161,-40,220c0,0,-29,44,-78,44c0,0,-64,0,-123,-73V251c0,0,0,-95,4,-121c0,0,8,-44,36,-71c0,0,28,-28,72,-28ZM115,-20V867c0,0,0,61,-5,75c0,0,-7,21,-23,31c0,0,-17,10,-55,12v27H322V628c0,0,88,91,192,91c0,0,72,0,135,-42c0,0,64,-43,99,-120c0,0,36,-78,36,-179c0,0,0,-114,-45,-208C739,170,693,77,617,28c0,0,-76,-48,-174,-48c0,0,-56,0,-100,18c0,0,-44,17,-87,57L141,-20Z" 
id="f0_1y"
transform="scale(0.001,-0.001)" />

<path d="M29,0V27H63c0,0,44,0,71,16c0,0,19,11,30,36c0,0,8,18,8,94V839c0,0,0,78,-8,97c0,0,-8,20,-33,34c0,0,-25,15,-68,15H29v27H558V985H525c0,0,-44,0,-71,-16c0,0,-19,-11,-30,-36c0,0,-8,-18,-8,-94V173c0,0,0,-78,8,-97c0,0,9,-20,34,-34c0,0,24,-15,67,-15h33V0Z" 
id="f0_19"
transform="scale(0.001,-0.001)" />

<path d="M365,-20c0,0,-139,0,-223,105c0,0,-83,105,-83,253c0,0,0,142,76,250c0,0,92,131,253,131c0,0,108,0,172,-55c0,0,63,-54,63,-121c0,0,0,-43,-25,-68c0,0,-26,-25,-68,-25c0,0,-44,0,-73,29c0,0,-28,29,-35,104c0,0,-5,47,-22,65c0,0,-17,19,-40,19c0,0,-36,0,-61,-38c0,0,-39,-58,-39,-176c0,0,0,-99,31,-188c0,0,32,-90,86,-134c0,0,41,-32,97,-32c0,0,36,0,69,17c0,0,33,17,78,65l23,-18C644,163,595,70,521,25c0,0,-73,-45,-156,-45Z" 
id="f0_1z"
transform="scale(0.001,-0.001)" />

<path d="M34,0V26c0,0,51,0,93,28c0,0,42,28,123,147l58,85L188,509c0,0,-59,109,-88,133c0,0,-29,25,-65,28v27H419V669L362,656c0,0,-6,-6,-6,-18c0,0,0,-11,4,-23c0,0,2,-5,20,-40L435,473l27,41c0,0,60,82,60,115c0,0,0,15,-13,26c0,0,-13,11,-47,15v27H710V670c0,0,-46,-2,-85,-28c0,0,-40,-27,-89,-103L460,427L584,198c0,0,62,-121,99,-153c0,0,20,-17,55,-19V0H349V26c0,0,46,4,57,12c0,0,11,9,11,23c0,0,0,21,-24,66L332,240L281,165c0,0,-35,-52,-39,-62c0,0,-6,-14,-6,-25c0,0,0,-17,7,-29c0,0,7,-11,19,-17c0,0,13,-6,45,-6V0Z" 
id="f0_2k"
transform="scale(0.001,-0.001)" />

<path d="M182,-328c0,0,-62,0,-101,35c0,0,-38,35,-38,85c0,0,0,44,26,72c0,0,27,28,66,28c0,0,37,0,60,-23c0,0,22,-24,23,-74c0,0,1,-29,7,-37c0,0,6,-8,17,-8c0,0,18,0,38,21c0,0,30,32,70,144l22,57L146,488c0,0,-50,118,-74,144c0,0,-25,27,-59,38v27H384V670c0,0,-36,-2,-51,-14c0,0,-15,-13,-15,-31c0,0,0,-28,37,-112L475,239l81,212c0,0,44,113,44,157c0,0,0,27,-18,44c0,0,-18,16,-65,18v27H750V670c0,0,-34,-4,-56,-27c0,0,-22,-22,-72,-155L422,-27c0,0,-75,-194,-111,-239c0,0,-52,-62,-129,-62Z" 
id="f0_2l"
transform="scale(0.001,-0.001)" />

<path d="M304,-20c0,0,-59,0,-105,36c0,0,-45,36,-61,84c0,0,-16,49,-16,169V546c0,0,0,79,-14,98c0,0,-15,20,-61,26v27H331V221c0,0,0,-74,8,-96c0,0,7,-21,22,-33c0,0,15,-11,35,-11c0,0,27,0,49,14c0,0,30,20,71,78V546c0,0,0,79,-14,98c0,0,-15,20,-61,26v27H726V152c0,0,0,-81,14,-100c0,0,15,-20,61,-26V0H516V93C516,93,466,34,416,7c0,0,-50,-27,-112,-27Z" 
id="f0_2h"
transform="scale(0.001,-0.001)" />

<path d="M197,0V27c0,0,71,2,92,13c0,0,21,10,29,29c0,0,9,18,9,109V725c0,0,0,110,-8,141c0,0,-5,24,-19,35c0,0,-14,11,-33,11c0,0,-28,0,-77,-23l-11,23l246,121h25V178c0,0,0,-85,7,-106c0,0,7,-21,29,-32c0,0,23,-11,91,-13V0Z" 
id="f2_l"
transform="scale(0.001,-0.001)" />

<path d="M33,0V27c0,0,264,241,371,393c0,0,108,152,108,278c0,0,0,96,-59,158c0,0,-59,62,-141,62c0,0,-75,0,-134,-43c0,0,-59,-44,-88,-128H63c0,0,18,138,95,212c0,0,77,74,193,74c0,0,123,0,205,-80c0,0,83,-79,83,-186c0,0,0,-77,-36,-154c0,0,-55,-121,-179,-256C424,357,238,154,191,112H455c0,0,81,0,114,6c0,0,32,6,58,25c0,0,27,18,46,52h27L630,0Z" 
id="f2_m"
transform="scale(0.001,-0.001)" />

<path d="M30,0V27L485,632H260c0,0,-72,0,-94,-10c0,0,-22,-9,-36,-35c0,0,-20,-37,-23,-92H76l5,188H654V656L196,51H445c0,0,79,0,106,13c0,0,28,13,45,46c0,0,12,23,21,100h25L634,0Z" 
id="f2_2m"
transform="scale(0.001,-0.001)" />

<path d="M391,28c0,0,88,0,144,63c0,0,57,63,57,182c0,0,0,171,-150,298c0,0,-31,1,-47,1c0,0,-134,0,-198,-60c0,0,-65,-59,-65,-168c0,0,0,-143,77,-229c0,0,77,-87,182,-87Zm-4,-49c0,0,-163,0,-275,110C112,89,0,200,0,357c0,0,0,95,47,171c0,0,47,77,119,116c0,0,72,39,221,39H832V571H498c0,0,113,-63,171,-139c0,0,58,-76,58,-176c0,0,0,-114,-93,-196c0,0,-92,-81,-247,-81Z" 
id="f1_2f"
transform="scale(0.001,-0.001)" />

<path d="M34,0V27H68c0,0,44,0,71,16c0,0,19,11,30,36c0,0,8,18,8,94V839c0,0,0,78,-8,97c0,0,-8,20,-33,34c0,0,-26,15,-68,15H34v27H887V722H857c0,0,-10,102,-53,151c0,0,-43,49,-125,69c0,0,-44,11,-165,11H420V538h29c0,0,67,0,109,20c0,0,43,20,72,68c0,0,30,48,39,129h26V247H669c0,0,-14,144,-77,190c0,0,-63,46,-143,46H420V173c0,0,0,-78,9,-97c0,0,9,-20,33,-34c0,0,25,-15,68,-15h33V0Z" 
id="f0_16"
transform="scale(0.001,-0.001)" />

<path d="M298,-9c0,0,-67,0,-113,36c0,0,-46,37,-58,83c0,0,-8,25,-8,137V624H28v26c0,0,94,66,161,139c0,0,66,73,115,163h25V697H494V624H329V193c0,0,0,-60,5,-78c0,0,6,-17,20,-28c0,0,14,-11,26,-11c0,0,48,0,92,75l22,-17C494,134,434,-9,298,-9Z" 
id="f0_2g"
transform="scale(0.001,-0.001)" />

<path d="M579,-17c0,0,-147,0,-266,70c0,0,-119,70,-189,197c0,0,-71,127,-71,277c0,0,0,149,69,271c0,0,69,123,187,191c0,0,119,69,265,69c0,0,149,0,260,-62l25,44H965L1067,667L928,627c0,0,-69,133,-130,189c0,0,-85,77,-185,77c0,0,-72,0,-135,-41c0,0,-63,-40,-100,-118c0,0,-37,-78,-37,-183c0,0,0,-161,85,-276c0,0,85,-116,222,-116c0,0,87,0,168,50c0,0,100,62,173,167l116,-86C1105,290,992,136,899,76c0,0,-144,-93,-320,-93Z" 
id="f3_13"
transform="scale(0.001,-0.001)" />

<path d="M54,0V144H88c0,0,44,0,61,7c0,0,17,8,24,21c0,0,6,14,6,59V797c0,0,0,53,-6,69c0,0,-7,16,-20,23c0,0,-14,8,-53,8H54v143H561V897H515c0,0,-39,0,-53,-8c0,0,-14,-8,-20,-23c0,0,-6,-14,-6,-63V622H815V817c0,0,0,36,-4,48c0,0,-6,18,-20,25c0,0,-14,7,-63,7H688v143h510V897h-43c0,0,-43,0,-57,-7c0,0,-14,-8,-20,-21c0,0,-5,-14,-5,-66V239c0,0,0,-52,7,-67c0,0,7,-16,21,-22c0,0,15,-6,67,-6h30V0H688V144h34c0,0,47,0,64,7c0,0,17,8,23,22c0,0,6,14,6,66V460H436V239c0,0,0,-52,5,-65c0,0,7,-18,22,-24c0,0,16,-6,63,-6h35V0Z" 
id="f3_18"
transform="scale(0.001,-0.001)" />

<path d="M59,0V144H85c0,0,52,0,70,7c0,0,18,8,25,26c0,0,4,11,4,64V808c0,0,0,46,-7,60c0,0,-6,14,-19,22c0,0,-14,7,-53,7H59v143H928L1046,712L911,663c0,0,-34,81,-80,130c0,0,-46,49,-102,65c0,0,-55,16,-129,16H441V615h52c0,0,59,0,80,9c0,0,20,8,29,26c0,0,9,19,9,73v40H744V322H611v45c0,0,0,45,-11,66c0,0,-11,21,-29,29c0,0,-19,7,-83,7H441V230c0,0,0,-38,4,-47c0,0,3,-8,14,-12c0,0,11,-5,47,-5h87c0,0,98,0,165,28c0,0,67,28,120,91c0,0,53,63,81,149l136,-47L959,0Z" 
id="f3_15"
transform="scale(0.001,-0.001)" />

<path d="M59,0V144h42c0,0,39,0,54,7c0,0,15,7,22,22c0,0,7,15,7,57V813c0,0,0,40,-5,52c0,0,-7,17,-21,24c0,0,-13,8,-42,8H59v143H530L711,408l185,632h481V897h-52c0,0,-41,0,-57,-18c0,0,-16,-17,-16,-66V222c0,0,0,-39,4,-48c0,0,7,-15,19,-21c0,0,16,-9,43,-9h59V0H876V144h39c0,0,42,0,57,6c0,0,15,7,22,21c0,0,7,14,7,51V862L748,0H604L359,835V202c0,0,0,-22,8,-34c0,0,8,-12,22,-18c0,0,15,-6,47,-6h50V0Z" 
id="f3_1d"
transform="scale(0.001,-0.001)" />

<path d="M52,0V144H93c0,0,44,0,58,6c0,0,13,6,20,20c0,0,6,14,6,55V803c0,0,0,49,-6,64c0,0,-7,15,-22,24c0,0,-10,6,-51,6H52v143H559V897H513c0,0,-40,0,-53,-7c0,0,-13,-8,-20,-23c0,0,-6,-15,-6,-58V233c0,0,0,-47,5,-61c0,0,6,-13,18,-19c0,0,16,-9,47,-9h55V0Z" 
id="f3_19"
transform="scale(0.001,-0.001)" />

<path d="M610,480L509,765L404,480ZM2,0V144c0,0,39,0,56,6c0,0,18,7,30,21c0,0,11,13,25,49l322,820H669L981,237c0,0,25,-64,45,-79c0,0,19,-14,68,-14c2,0,3,0,5,0V0H606V144h30c0,0,41,0,58,11c0,0,16,11,16,27c0,0,0,13,-14,55l-32,94H349L310,226c0,0,-12,-33,-12,-44c0,0,0,-11,8,-21c0,0,9,-10,28,-14c0,0,13,-3,71,-3V0Z" 
id="f3_11"
transform="scale(0.001,-0.001)" />

<path d="M63,0V144h49c0,0,31,0,46,8c0,0,16,8,23,22c0,0,7,14,7,48V812c0,0,0,37,-7,53c0,0,-7,17,-20,24c0,0,-13,8,-44,8H63v143H570V897H526c0,0,-37,0,-47,-4c0,0,-18,-8,-26,-23c0,0,-8,-15,-8,-49V226c0,0,0,-36,3,-44c0,0,4,-8,14,-13c0,0,10,-5,40,-5c0,0,100,0,161,26c0,0,61,27,110,84c0,0,49,58,84,158L994,385L857,0Z" 
id="f3_1c"
transform="scale(0.001,-0.001)" />

<path d="M578,166c0,0,66,0,109,13c0,0,44,12,74,51c0,0,31,39,31,93c0,0,0,46,-22,78c0,0,-21,33,-64,49c0,0,-44,16,-132,16H439V241c0,0,1,-48,4,-56c0,0,3,-11,12,-15c0,0,9,-4,47,-4ZM553,619c0,0,90,0,132,15c0,0,43,15,65,45c0,0,21,30,21,70c0,0,0,41,-20,70c0,0,-21,30,-59,42c0,0,-39,12,-139,12H439V619ZM58,0V144h42c0,0,41,0,55,7c0,0,15,7,21,20c0,0,6,13,6,59V810c0,0,0,46,-6,59c0,0,-6,13,-21,20c0,0,-14,8,-55,8H59v143H650c0,0,135,0,213,-31c0,0,77,-32,119,-91c0,0,42,-60,42,-130c0,0,0,-52,-22,-98c0,0,-22,-46,-64,-82c0,0,-41,-35,-109,-58c0,0,73,-19,111,-41c0,0,56,-32,89,-88c0,0,33,-56,33,-126c0,0,0,-82,-50,-152c0,0,-50,-70,-141,-106C871,37,780,0,604,0Z" 
id="f3_12"
transform="scale(0.001,-0.001)" />

<path d="M611,148c0,0,117,0,187,88c0,0,83,105,83,281c0,0,0,124,-35,208c0,0,-36,84,-96,126c0,0,-61,42,-132,42c0,0,-118,0,-189,-89c0,0,-88,-112,-88,-289c0,0,0,-176,82,-279c0,0,71,-88,188,-88ZM608,-17c0,0,-231,0,-378,126C230,109,53,262,53,518c0,0,0,237,155,389c0,0,156,151,407,151c0,0,248,0,401,-151c0,0,153,-150,153,-386c0,0,0,-159,-70,-282c0,0,-70,-123,-193,-190c0,0,-124,-66,-298,-66Z" 
id="f3_1f"
transform="scale(0.001,-0.001)" />

<path d="M59,0V144h44c0,0,37,0,51,6c0,0,14,6,22,22c0,0,8,16,8,47V816c0,0,0,34,-8,50c0,0,-7,16,-20,24c0,0,-12,7,-42,7H59v143H480L786,433V805c0,0,0,48,-5,60c0,0,-8,17,-20,25c0,0,-13,7,-49,7H661v143h428V897h-47c0,0,-36,0,-51,-9c0,0,-15,-8,-21,-22c0,0,-6,-14,-6,-61V0H750L364,767V230c0,0,0,-46,5,-59c0,0,6,-12,20,-20c0,0,15,-7,50,-7h50V0Z" 
id="f3_1e"
transform="scale(0.001,-0.001)" />

<path d="M514,166c0,0,122,0,191,38c0,0,69,38,111,121c0,0,43,83,43,199c0,0,0,113,-40,197c0,0,-40,84,-99,119c0,0,-59,34,-168,34H437V226c0,0,0,-33,4,-40c0,0,6,-12,17,-16c0,0,12,-4,56,-4ZM55,0V144H91c0,0,46,0,60,7c0,0,15,8,24,26c0,0,6,14,6,61V807c0,0,0,48,-6,62c0,0,-7,13,-21,21c0,0,-15,7,-62,7H56v143H601c0,0,186,0,296,-59c0,0,110,-58,175,-174c0,0,65,-116,65,-278c0,0,0,-112,-33,-201c0,0,-33,-89,-99,-160c0,0,-66,-71,-141,-107C864,61,807,34,703,17C703,17,599,0,536,0Z" 
id="f3_14"
transform="scale(0.001,-0.001)" />

<path d="M568,-17c0,0,-143,0,-260,69c0,0,-117,69,-185,193c0,0,-68,125,-68,279c0,0,0,153,67,274c0,0,68,121,189,190c0,0,121,70,263,70c0,0,68,0,136,-17c0,0,69,-18,117,-47l28,46H959l94,-344L916,651c0,0,-71,113,-111,154c0,0,-41,41,-94,65c0,0,-52,23,-102,23c0,0,-71,0,-133,-41c0,0,-61,-41,-97,-120c0,0,-36,-79,-36,-191c0,0,0,-123,39,-213c0,0,40,-90,103,-134c0,0,64,-43,140,-43c0,0,53,0,102,21c0,0,48,22,66,49c0,0,18,26,18,72v38c0,0,0,39,-6,49c0,0,-8,15,-22,22c0,0,-13,7,-53,7H671V554h507V409h-38c0,0,-37,0,-51,-7c0,0,-14,-7,-20,-21c0,0,-7,-15,-7,-56V0H909L870,75C870,75,799,28,724,5c0,0,-75,-22,-156,-22Z" 
id="f3_17"
transform="scale(0.001,-0.001)" />


</defs>
</svg>