<?xml version="1.0" encoding="UTF-8" standalone="no"?>
<!DOCTYPE svg PUBLIC "-//W3C//DTD SVG 1.1//EN"
"http://www.w3.org/Graphics/SVG/1.1/DTD/svg11.dtd">
<svg viewBox="0 0 909 1286" version="1.1" xmlns="http://www.w3.org/2000/svg" xmlns:xlink="http://www.w3.org/1999/xlink">
<defs>
<clipPath id="c0_101"><path d="M122.3,358.6V348H415.1v10.6Z" /></clipPath>
<clipPath id="c1_101"><path d="M236.3,985.1V967.8h14.5v17.3Z" /></clipPath>
<style type="text/css"><![CDATA[
.g0_101{
fill: none;
stroke: #000000;
stroke-width: 0.73333335;
stroke-linecap: round;
stroke-linejoin: round;
}
.g1_101{
}
.g2_101{
fill: #FFFFFF;
}
]]></style>
</defs>
<g fill="#000000" >
<use xlink:href="#f0_1j" transform="matrix(10,0,0,10,55,123)" />
<use xlink:href="#f0_2b" transform="matrix(10,0,0,10,63.2,123)" />
<use xlink:href="#f0_28" transform="matrix(10,0,0,10,70.9,123)" />
<use xlink:href="#f0_2i" transform="matrix(10,0,0,10,75.4,123)" />
<use xlink:href="#f0_21" transform="matrix(10,0,0,10,83.1,123)" />
<use xlink:href="#f0_20" transform="matrix(10,0,0,10,89.8,123)" />
<use xlink:href="#f0_15" transform="matrix(10,0,0,10,101.9,123)" />
<use xlink:href="#f0_2k" transform="matrix(10,0,0,10,112,123)" />
<use xlink:href="#f0_1x" transform="matrix(10,0,0,10,119.5,123)" />
<use xlink:href="#f0_29" transform="matrix(10,0,0,10,127.2,123)" />
<use xlink:href="#f0_2c" transform="matrix(10,0,0,10,139.7,123)" />
<use xlink:href="#f0_28" transform="matrix(10,0,0,10,147.9,123)" />
<use xlink:href="#f0_21" transform="matrix(10,0,0,10,152.2,123)" />
<use xlink:href="#f0_2f" transform="matrix(10,0,0,10,159.1,123)" />
<use xlink:href="#f0_15" transform="matrix(10,0,0,10,55,149.2)" />
<use xlink:href="#f0_2k" transform="matrix(10,0,0,10,64.9,149.2)" />
<use xlink:href="#f0_1x" transform="matrix(10,0,0,10,72.6,149.2)" />
<use xlink:href="#f0_29" transform="matrix(10,0,0,10,80.1,149.2)" />
<use xlink:href="#f0_2c" transform="matrix(10,0,0,10,92.6,149.2)" />
<use xlink:href="#f0_28" transform="matrix(10,0,0,10,100.8,149.2)" />
<use xlink:href="#f0_21" transform="matrix(10,0,0,10,105.1,149.2)" />
<use xlink:href="#f0_h" transform="matrix(10,0,0,10,115.7,149.2)" />
<use xlink:href="#f0_o" transform="matrix(10,0,0,10,124.5,149.2)" />
<use xlink:href="#f0_u" transform="matrix(10,0,0,10,136.2,149.2)" />
<use xlink:href="#f1_12" transform="matrix(10,0,0,10,99.7,175.8)" />
<use xlink:href="#f1_1x" transform="matrix(10,0,0,10,109.8,175.8)" />
<use xlink:href="#f1_28" transform="matrix(10,0,0,10,116.6,175.8)" />
<use xlink:href="#f1_1x" transform="matrix(10,0,0,10,120.8,175.8)" />
<use xlink:href="#f1_2a" transform="matrix(10,0,0,10,127.8,175.8)" />
<use xlink:href="#f1_1z" transform="matrix(10,0,0,10,135.1,175.8)" />
<use xlink:href="#f1_21" transform="matrix(10,0,0,10,142.1,175.8)" />
<use xlink:href="#f1_2g" transform="matrix(10,0,0,10,152.5,175.8)" />
<use xlink:href="#f1_24" transform="matrix(10,0,0,10,156.8,175.8)" />
<use xlink:href="#f1_21" transform="matrix(10,0,0,10,164.5,175.8)" />
<use xlink:href="#f1_22" transform="matrix(10,0,0,10,174.9,175.8)" />
<use xlink:href="#f1_2b" transform="matrix(10,0,0,10,179.7,175.8)" />
<use xlink:href="#f1_28" transform="matrix(10,0,0,10,187.4,175.8)" />
<use xlink:href="#f1_28" transform="matrix(10,0,0,10,191.8,175.8)" />
<use xlink:href="#f1_2b" transform="matrix(10,0,0,10,196,175.8)" />
<use xlink:href="#f1_2j" transform="matrix(10,0,0,10,203.7,175.8)" />
<use xlink:href="#f1_25" transform="matrix(10,0,0,10,214.2,175.8)" />
<use xlink:href="#f1_2a" transform="matrix(10,0,0,10,218.4,175.8)" />
<use xlink:href="#f1_23" transform="matrix(10,0,0,10,226.1,175.8)" />
<use xlink:href="#f1_2e" transform="matrix(10,0,0,10,237.3,175.8)" />
<use xlink:href="#f1_21" transform="matrix(10,0,0,10,242.4,175.8)" />
<use xlink:href="#f1_20" transform="matrix(10,0,0,10,249.4,175.8)" />
<use xlink:href="#f1_2b" transform="matrix(10,0,0,10,256.9,175.8)" />
<use xlink:href="#f1_2k" transform="matrix(10,0,0,10,264.8,175.8)" />
<use xlink:href="#f1_2e" transform="matrix(10,0,0,10,276.1,175.8)" />
<use xlink:href="#f1_21" transform="matrix(10,0,0,10,281.1,175.8)" />
<use xlink:href="#f1_1x" transform="matrix(10,0,0,10,288,175.8)" />
<use xlink:href="#f1_1z" transform="matrix(10,0,0,10,294.8,175.8)" />
<use xlink:href="#f1_2g" transform="matrix(10,0,0,10,301.4,175.8)" />
<use xlink:href="#f1_25" transform="matrix(10,0,0,10,305.8,175.8)" />
<use xlink:href="#f1_2b" transform="matrix(10,0,0,10,310.1,175.8)" />
<use xlink:href="#f1_2a" transform="matrix(10,0,0,10,317.6,175.8)" />
<use xlink:href="#f1_25" transform="matrix(10,0,0,10,328.9,175.8)" />
<use xlink:href="#f1_2a" transform="matrix(10,0,0,10,333.2,175.8)" />
<use xlink:href="#f1_1y" transform="matrix(10,0,0,10,344.5,175.8)" />
<use xlink:href="#f1_1x" transform="matrix(10,0,0,10,352,175.8)" />
<use xlink:href="#f1_2f" transform="matrix(10,0,0,10,359,175.8)" />
<use xlink:href="#f1_25" transform="matrix(10,0,0,10,364.7,175.8)" />
<use xlink:href="#f1_1z" transform="matrix(10,0,0,10,368.9,175.8)" />
<use xlink:href="#f1_29" transform="matrix(10,0,0,10,379.5,175.8)" />
<use xlink:href="#f1_21" transform="matrix(10,0,0,10,391.1,175.8)" />
<use xlink:href="#f1_20" transform="matrix(10,0,0,10,398.1,175.8)" />
<use xlink:href="#f1_25" transform="matrix(10,0,0,10,405.6,175.8)" />
<use xlink:href="#f1_2h" transform="matrix(10,0,0,10,409.8,175.8)" />
<use xlink:href="#f1_29" transform="matrix(10,0,0,10,417.4,175.8)" />
<use xlink:href="#f1_u" transform="matrix(10,0,0,10,432.9,175.8)" />
<use xlink:href="#f1_m" transform="matrix(5.8,0,0,5.8,328.5,202.8)" />
<use xlink:href="#f1_m" transform="matrix(5.8,0,0,5.8,175.3,213.4)" />
<use xlink:href="#f1_o" transform="matrix(5.8,0,0,5.8,328.5,213.4)" />
<use xlink:href="#f1_m" transform="matrix(5.8,0,0,5.8,365.4,213.4)" />
<use xlink:href="#f1_13" transform="matrix(10,0,0,10,102.3,209.5)" />
<use xlink:href="#f1_28" transform="matrix(10,0,0,10,112.6,209.5)" />
<use xlink:href="#f1_1f" transform="matrix(10,0,0,10,116.6,209.5)" />
<use xlink:href="#f1_13" transform="matrix(10,0,0,10,148.3,209.5)" />
<use xlink:href="#f1_2e" transform="matrix(10,0,0,10,158.4,209.5)" />
<use xlink:href="#f1_1f" transform="matrix(10,0,0,10,163.5,209.5)" />
<use xlink:href="#f1_1f" transform="matrix(10,0,0,10,195.2,209.5)" />
<use xlink:href="#f1_18" transform="matrix(10,0,0,10,206.4,209.5)" />
<use xlink:href="#f1_13" transform="matrix(10,0,0,10,266.4,209.5)" />
<use xlink:href="#f1_28" transform="matrix(10,0,0,10,276.6,209.5)" />
<use xlink:href="#f1_13" transform="matrix(10,0,0,10,301.6,209.5)" />
<use xlink:href="#f1_2e" transform="matrix(10,0,0,10,311.7,209.5)" />
<use xlink:href="#f1_1f" transform="matrix(10,0,0,10,317,209.5)" />
<use xlink:href="#f1_18" transform="matrix(10,0,0,10,353.5,209.5)" />
<use xlink:href="#f1_1f" transform="matrix(10,0,0,10,370.3,209.5)" />
<use xlink:href="#f2_h" transform="matrix(5.8,0,0,5.8,128.1,202.8)" />
<use xlink:href="#f2_h" transform="matrix(5.8,0,0,5.8,175.3,202.8)" />
<use xlink:href="#f2_h" transform="matrix(5.8,0,0,5.8,218,202.8)" />
<use xlink:href="#f2_h" transform="matrix(5.8,0,0,5.8,281.4,202.8)" />
<use xlink:href="#f2_h" transform="matrix(5.8,0,0,5.8,333.1,202.8)" />
<use xlink:href="#f2_f" transform="matrix(10,0,0,10,137.3,209.5)" />
<use xlink:href="#f2_f" transform="matrix(10,0,0,10,184.4,209.5)" />
<use xlink:href="#f2_3k" transform="matrix(10,0,0,10,229,209.5)" />
<use xlink:href="#f2_3k" transform="matrix(10,0,0,10,244.4,209.5)" />
<use xlink:href="#f2_34" transform="matrix(10,0,0,10,248.4,209.5)" />
<use xlink:href="#f2_f" transform="matrix(10,0,0,10,290.4,209.5)" />
<use xlink:href="#f2_f" transform="matrix(10,0,0,10,342.3,209.5)" />
<use xlink:href="#f0_1j" transform="matrix(10,0,0,10,55,240.2)" />
<use xlink:href="#f0_2b" transform="matrix(10,0,0,10,63.2,240.2)" />
<use xlink:href="#f0_28" transform="matrix(10,0,0,10,70.9,240.2)" />
<use xlink:href="#f0_i" transform="matrix(10,0,0,10,75.3,240.2)" />
<use xlink:href="#f1_12" transform="matrix(10,0,0,10,99.7,240.2)" />
<use xlink:href="#f1_2l" transform="matrix(10,0,0,10,109.8,240.2)" />
<use xlink:href="#f1_2h" transform="matrix(10,0,0,10,121,240.2)" />
<use xlink:href="#f1_2f" transform="matrix(10,0,0,10,128.7,240.2)" />
<use xlink:href="#f1_25" transform="matrix(10,0,0,10,134.4,240.2)" />
<use xlink:href="#f1_2a" transform="matrix(10,0,0,10,138.6,240.2)" />
<use xlink:href="#f1_23" transform="matrix(10,0,0,10,146.3,240.2)" />
<use xlink:href="#f1_2h" transform="matrix(10,0,0,10,157.3,240.2)" />
<use xlink:href="#f1_2c" transform="matrix(10,0,0,10,164.8,240.2)" />
<use xlink:href="#f1_2g" transform="matrix(10,0,0,10,172.5,240.2)" />
<use xlink:href="#f1_2b" transform="matrix(10,0,0,10,176.9,240.2)" />
<use xlink:href="#f1_2f" transform="matrix(10,0,0,10,188.5,240.2)" />
<use xlink:href="#f1_2g" transform="matrix(10,0,0,10,194.1,240.2)" />
<use xlink:href="#f1_21" transform="matrix(10,0,0,10,198.4,240.2)" />
<use xlink:href="#f1_2c" transform="matrix(10,0,0,10,205.3,240.2)" />
<use xlink:href="#f1_1m" transform="matrix(10,0,0,10,216.3,240.2)" />
<use xlink:href="#f1_g" transform="matrix(10,0,0,10,225.3,240.2)" />
<use xlink:href="#f1_2j" transform="matrix(10,0,0,10,233,240.2)" />
<use xlink:href="#f1_21" transform="matrix(10,0,0,10,243.8,240.2)" />
<use xlink:href="#f1_2j" transform="matrix(10,0,0,10,254.3,240.2)" />
<use xlink:href="#f1_25" transform="matrix(10,0,0,10,264.9,240.2)" />
<use xlink:href="#f1_28" transform="matrix(10,0,0,10,269.1,240.2)" />
<use xlink:href="#f1_28" transform="matrix(10,0,0,10,273.4,240.2)" />
<use xlink:href="#f1_23" transform="matrix(10,0,0,10,281.2,240.2)" />
<use xlink:href="#f1_21" transform="matrix(10,0,0,10,288.9,240.2)" />
<use xlink:href="#f1_2g" transform="matrix(10,0,0,10,295.7,240.2)" />
<use xlink:href="#f1_u" transform="matrix(10,0,0,10,303.8,240.2)" />
</g>
<image preserveAspectRatio="none" x="101" y="261" width="314" height="41" xlink:href="img/1.png" />
<g fill="#000000" >
<use xlink:href="#f1_1e" transform="matrix(10,0,0,10,99.7,329.8)" />
<use xlink:href="#f1_2b" transform="matrix(10,0,0,10,110.5,329.8)" />
<use xlink:href="#f1_2j" transform="matrix(10,0,0,10,118.4,329.8)" />
<use xlink:href="#f1_g" transform="matrix(10,0,0,10,128.1,329.8)" />
<use xlink:href="#f1_2f" transform="matrix(10,0,0,10,135.7,329.8)" />
<use xlink:href="#f1_2g" transform="matrix(10,0,0,10,141.7,329.8)" />
<use xlink:href="#f1_2h" transform="matrix(10,0,0,10,145.7,329.8)" />
<use xlink:href="#f1_20" transform="matrix(10,0,0,10,153.4,329.8)" />
<use xlink:href="#f1_21" transform="matrix(10,0,0,10,161,329.8)" />
<use xlink:href="#f1_2a" transform="matrix(10,0,0,10,167.7,329.8)" />
<use xlink:href="#f1_2g" transform="matrix(10,0,0,10,175.3,329.8)" />
<use xlink:href="#f1_2f" transform="matrix(10,0,0,10,179.5,329.8)" />
<use xlink:href="#f1_1x" transform="matrix(10,0,0,10,189.2,329.8)" />
<use xlink:href="#f1_2e" transform="matrix(10,0,0,10,196.2,329.8)" />
<use xlink:href="#f1_21" transform="matrix(10,0,0,10,201.3,329.8)" />
<use xlink:href="#f1_1x" transform="matrix(10,0,0,10,211.8,329.8)" />
<use xlink:href="#f1_20" transform="matrix(10,0,0,10,218.4,329.8)" />
<use xlink:href="#f1_2i" transform="matrix(10,0,0,10,226.2,329.8)" />
<use xlink:href="#f1_25" transform="matrix(10,0,0,10,233.6,329.8)" />
<use xlink:href="#f1_2f" transform="matrix(10,0,0,10,237.8,329.8)" />
<use xlink:href="#f1_21" transform="matrix(10,0,0,10,243.8,329.8)" />
<use xlink:href="#f1_20" transform="matrix(10,0,0,10,250.6,329.8)" />
<use xlink:href="#f1_2g" transform="matrix(10,0,0,10,262.2,329.8)" />
<use xlink:href="#f1_2b" transform="matrix(10,0,0,10,266.2,329.8)" />
<use xlink:href="#f1_22" transform="matrix(10,0,0,10,277.8,329.8)" />
<use xlink:href="#f1_2b" transform="matrix(10,0,0,10,282.9,329.8)" />
<use xlink:href="#f1_28" transform="matrix(10,0,0,10,290.4,329.8)" />
<use xlink:href="#f1_28" transform="matrix(10,0,0,10,294.6,329.8)" />
<use xlink:href="#f1_2b" transform="matrix(10,0,0,10,298.8,329.8)" />
<use xlink:href="#f1_2j" transform="matrix(10,0,0,10,306.7,329.8)" />
<use xlink:href="#f1_2f" transform="matrix(10,0,0,10,321.2,329.8)" />
<use xlink:href="#f1_2g" transform="matrix(10,0,0,10,326.9,329.8)" />
<use xlink:href="#f1_21" transform="matrix(10,0,0,10,331.1,329.8)" />
<use xlink:href="#f1_2c" transform="matrix(10,0,0,10,338.1,329.8)" />
<use xlink:href="#f1_1m" transform="matrix(10,0,0,10,349.1,329.8)" />
<use xlink:href="#f1_19" transform="matrix(10,0,0,10,360.3,329.8)" />
<use xlink:href="#f1_2g" transform="matrix(10,0,0,10,369.1,329.8)" />
<use xlink:href="#f1_2b" transform="matrix(10,0,0,10,373.3,329.8)" />
<use xlink:href="#f1_1y" transform="matrix(10,0,0,10,384.8,329.8)" />
<use xlink:href="#f1_1x" transform="matrix(10,0,0,10,392.7,329.8)" />
<use xlink:href="#f1_28" transform="matrix(10,0,0,10,399.3,329.8)" />
<use xlink:href="#f1_1x" transform="matrix(10,0,0,10,403.7,329.8)" />
<use xlink:href="#f1_2a" transform="matrix(10,0,0,10,410.5,329.8)" />
<use xlink:href="#f1_1z" transform="matrix(10,0,0,10,418,329.8)" />
<use xlink:href="#f1_21" transform="matrix(10,0,0,10,424.8,329.8)" />
<use xlink:href="#f1_52" transform="matrix(10,0,0,10,435.4,329.8)" />
<use xlink:href="#f1_1f" transform="matrix(10,0,0,10,440.4,329.8)" />
<use xlink:href="#f1_53" transform="matrix(10,0,0,10,451.4,329.8)" />
<use xlink:href="#f1_1x" transform="matrix(10,0,0,10,458.9,329.8)" />
<use xlink:href="#f1_2a" transform="matrix(10,0,0,10,465.7,329.8)" />
<use xlink:href="#f1_20" transform="matrix(10,0,0,10,473,329.8)" />
<use xlink:href="#f1_52" transform="matrix(10,0,0,10,484.6,329.8)" />
<use xlink:href="#f1_18" transform="matrix(10,0,0,10,489.7,329.8)" />
<use xlink:href="#f1_53" transform="matrix(10,0,0,10,500.7,329.8)" />
<use xlink:href="#f1_1x" transform="matrix(10,0,0,10,508.2,329.8)" />
<use xlink:href="#f1_2g" transform="matrix(10,0,0,10,515.2,329.8)" />
<use xlink:href="#f1_2b" transform="matrix(10,0,0,10,519.2,329.8)" />
<use xlink:href="#f1_29" transform="matrix(10,0,0,10,527.1,329.8)" />
<use xlink:href="#f1_i" transform="matrix(10,0,0,10,538.6,329.8)" />
<use xlink:href="#f1_m" transform="matrix(5.8,0,0,5.8,261.8,367.4)" />
<use xlink:href="#f1_m" transform="matrix(5.8,0,0,5.8,313.7,367.4)" />
<use xlink:href="#f1_m" transform="matrix(5.8,0,0,5.8,370.1,367.4)" />
<use xlink:href="#f1_m" transform="matrix(10,0,0,10,102.5,363.5)" />
<use xlink:href="#f1_18" transform="matrix(10,0,0,10,110.2,363.5)" />
<use xlink:href="#f1_13" transform="matrix(10,0,0,10,142.4,363.5)" />
<use xlink:href="#f1_28" transform="matrix(10,0,0,10,152.7,363.5)" />
<use xlink:href="#f1_1f" transform="matrix(10,0,0,10,156.9,363.5)" />
<use xlink:href="#f1_13" transform="matrix(10,0,0,10,214.5,363.5)" />
<use xlink:href="#f1_28" transform="matrix(10,0,0,10,224.6,363.5)" />
<use xlink:href="#f1_18" transform="matrix(10,0,0,10,249.9,363.5)" />
<use xlink:href="#f1_1f" transform="matrix(10,0,0,10,266.4,363.5)" />
<use xlink:href="#f1_2o" transform="matrix(10,0,0,10,284,363.5)" />
<use xlink:href="#f1_m" transform="matrix(10,0,0,10,294.1,363.5)" />
<use xlink:href="#f1_18" transform="matrix(10,0,0,10,301.8,363.5)" />
<use xlink:href="#f1_1f" transform="matrix(10,0,0,10,318.4,363.5)" />
<use xlink:href="#f1_13" transform="matrix(10,0,0,10,343.4,363.5)" />
<use xlink:href="#f1_2e" transform="matrix(10,0,0,10,353.6,363.5)" />
<use xlink:href="#f1_1f" transform="matrix(10,0,0,10,358.8,363.5)" />
<use xlink:href="#f1_o" transform="matrix(10,0,0,10,390.7,363.5)" />
<use xlink:href="#f1_18" transform="matrix(10,0,0,10,398.5,363.5)" />
<use xlink:href="#f2_f" transform="matrix(5.8,0,0,5.8,122.3,356.6)" />
<use xlink:href="#f2_h" transform="matrix(5.8,0,0,5.8,168.3,356.6)" />
<use xlink:href="#f2_h" transform="matrix(5.8,0,0,5.8,229.4,356.6)" />
</g>
<g clip-path="url(#c0_101)">
<g fill="#000000" >
<use xlink:href="#f2_h" transform="matrix(5.8,0,0,5.8,370.3,356.6)" />
<use xlink:href="#f2_f" transform="matrix(5.8,0,0,5.8,410.5,356.6)" />
</g>
</g>
<g fill="#000000" >
<use xlink:href="#f2_f" transform="matrix(10,0,0,10,131.5,363.5)" />
<use xlink:href="#f2_3k" transform="matrix(10,0,0,10,177.3,363.5)" />
<use xlink:href="#f2_3k" transform="matrix(10,0,0,10,192.7,363.5)" />
<use xlink:href="#f2_34" transform="matrix(10,0,0,10,196.4,363.5)" />
<use xlink:href="#f2_f" transform="matrix(10,0,0,10,238.5,363.5)" />
<use xlink:href="#f2_f" transform="matrix(10,0,0,10,332.2,363.5)" />
<use xlink:href="#f2_f" transform="matrix(10,0,0,10,379.3,363.5)" />
<use xlink:href="#f3_3m" transform="matrix(10,0,0,10,55,396.9)" />
<use xlink:href="#f1_1e" transform="matrix(10,0,0,10,99.7,396.9)" />
<use xlink:href="#f1_2b" transform="matrix(10,0,0,10,110.5,396.9)" />
<use xlink:href="#f1_2j" transform="matrix(10,0,0,10,118.4,396.9)" />
<use xlink:href="#f1_g" transform="matrix(10,0,0,10,128.1,396.9)" />
<use xlink:href="#f1_2f" transform="matrix(10,0,0,10,135.7,396.9)" />
<use xlink:href="#f1_25" transform="matrix(10,0,0,10,141.7,396.9)" />
<use xlink:href="#f1_2a" transform="matrix(10,0,0,10,145.7,396.9)" />
<use xlink:href="#f1_1z" transform="matrix(10,0,0,10,153.4,396.9)" />
<use xlink:href="#f1_21" transform="matrix(10,0,0,10,160,396.9)" />
<use xlink:href="#f1_2j" transform="matrix(10,0,0,10,170.7,396.9)" />
<use xlink:href="#f1_21" transform="matrix(10,0,0,10,181.3,396.9)" />
<use xlink:href="#f1_1x" transform="matrix(10,0,0,10,191.8,396.9)" />
<use xlink:href="#f1_2e" transform="matrix(10,0,0,10,198.7,396.9)" />
<use xlink:href="#f1_21" transform="matrix(10,0,0,10,203.7,396.9)" />
<use xlink:href="#f1_1y" transform="matrix(10,0,0,10,214.3,396.9)" />
<use xlink:href="#f1_1x" transform="matrix(10,0,0,10,221.8,396.9)" />
<use xlink:href="#f1_28" transform="matrix(10,0,0,10,228.8,396.9)" />
<use xlink:href="#f1_1x" transform="matrix(10,0,0,10,233,396.9)" />
<use xlink:href="#f1_2a" transform="matrix(10,0,0,10,239.6,396.9)" />
<use xlink:href="#f1_1z" transform="matrix(10,0,0,10,247.1,396.9)" />
<use xlink:href="#f1_25" transform="matrix(10,0,0,10,253.9,396.9)" />
<use xlink:href="#f1_2a" transform="matrix(10,0,0,10,258.3,396.9)" />
<use xlink:href="#f1_23" transform="matrix(10,0,0,10,265.7,396.9)" />
<use xlink:href="#f1_25" transform="matrix(10,0,0,10,277,396.9)" />
<use xlink:href="#f1_2a" transform="matrix(10,0,0,10,281.4,396.9)" />
<use xlink:href="#f1_1y" transform="matrix(10,0,0,10,292.6,396.9)" />
<use xlink:href="#f1_1x" transform="matrix(10,0,0,10,300.1,396.9)" />
<use xlink:href="#f1_2f" transform="matrix(10,0,0,10,307.1,396.9)" />
<use xlink:href="#f1_25" transform="matrix(10,0,0,10,312.8,396.9)" />
<use xlink:href="#f1_1z" transform="matrix(10,0,0,10,317,396.9)" />
<use xlink:href="#f1_29" transform="matrix(10,0,0,10,327.6,396.9)" />
<use xlink:href="#f1_21" transform="matrix(10,0,0,10,339.4,396.9)" />
<use xlink:href="#f1_20" transform="matrix(10,0,0,10,346.2,396.9)" />
<use xlink:href="#f1_25" transform="matrix(10,0,0,10,353.7,396.9)" />
<use xlink:href="#f1_2h" transform="matrix(10,0,0,10,357.9,396.9)" />
<use xlink:href="#f1_29" transform="matrix(10,0,0,10,365.4,396.9)" />
<use xlink:href="#f1_g" transform="matrix(10,0,0,10,377,396.9)" />
<use xlink:href="#f1_2g" transform="matrix(10,0,0,10,384.7,396.9)" />
<use xlink:href="#f1_24" transform="matrix(10,0,0,10,388.7,396.9)" />
<use xlink:href="#f1_21" transform="matrix(10,0,0,10,396.4,396.9)" />
<use xlink:href="#f1_2e" transform="matrix(10,0,0,10,403,396.9)" />
<use xlink:href="#f1_21" transform="matrix(10,0,0,10,408.3,396.9)" />
<use xlink:href="#f1_22" transform="matrix(10,0,0,10,415.1,396.9)" />
<use xlink:href="#f1_2b" transform="matrix(10,0,0,10,420,396.9)" />
<use xlink:href="#f1_2e" transform="matrix(10,0,0,10,427.7,396.9)" />
<use xlink:href="#f1_21" transform="matrix(10,0,0,10,432.8,396.9)" />
<use xlink:href="#f1_1x" transform="matrix(10,0,0,10,443.5,396.9)" />
<use xlink:href="#f1_20" transform="matrix(10,0,0,10,450.3,396.9)" />
<use xlink:href="#f1_20" transform="matrix(10,0,0,10,457.8,396.9)" />
<use xlink:href="#f1_1x" transform="matrix(10,0,0,10,469.3,396.9)" />
<use xlink:href="#f1_2f" transform="matrix(10,0,0,10,475.9,396.9)" />
<use xlink:href="#f1_29" transform="matrix(10,0,0,10,485.8,396.9)" />
<use xlink:href="#f1_1x" transform="matrix(10,0,0,10,497.4,396.9)" />
<use xlink:href="#f1_2a" transform="matrix(10,0,0,10,504.2,396.9)" />
<use xlink:href="#f1_2l" transform="matrix(10,0,0,10,511.7,396.9)" />
<use xlink:href="#f1_1x" transform="matrix(10,0,0,10,522.5,396.9)" />
<use xlink:href="#f1_2f" transform="matrix(10,0,0,10,529.5,396.9)" />
<use xlink:href="#f1_1f" transform="matrix(10,0,0,10,539.2,396.9)" />
<use xlink:href="#f1_18" transform="matrix(10,0,0,10,550.2,396.9)" />
<use xlink:href="#f1_4y" transform="matrix(7,0,0,7,561.2,386.8)" />
<use xlink:href="#f1_2b" transform="matrix(10,0,0,10,570,396.9)" />
<use xlink:href="#f1_2a" transform="matrix(10,0,0,10,577.9,396.9)" />
<use xlink:href="#f1_1y" transform="matrix(10,0,0,10,589.1,396.9)" />
<use xlink:href="#f1_2b" transform="matrix(10,0,0,10,596.9,396.9)" />
<use xlink:href="#f1_2g" transform="matrix(10,0,0,10,604.6,396.9)" />
<use xlink:href="#f1_24" transform="matrix(10,0,0,10,608.7,396.9)" />
<use xlink:href="#f1_2f" transform="matrix(10,0,0,10,620,396.9)" />
<use xlink:href="#f1_25" transform="matrix(10,0,0,10,625.7,396.9)" />
<use xlink:href="#f1_20" transform="matrix(10,0,0,10,629.9,396.9)" />
<use xlink:href="#f1_21" transform="matrix(10,0,0,10,637.8,396.9)" />
<use xlink:href="#f1_2b" transform="matrix(10,0,0,10,648.3,396.9)" />
<use xlink:href="#f1_22" transform="matrix(10,0,0,10,656.2,396.9)" />
<use xlink:href="#f1_21" transform="matrix(10,0,0,10,664.6,396.9)" />
<use xlink:href="#f1_2d" transform="matrix(10,0,0,10,671.6,396.9)" />
<use xlink:href="#f1_2h" transform="matrix(10,0,0,10,679.1,396.9)" />
<use xlink:href="#f1_1x" transform="matrix(10,0,0,10,686.8,396.9)" />
<use xlink:href="#f1_2g" transform="matrix(10,0,0,10,693.4,396.9)" />
<use xlink:href="#f1_25" transform="matrix(10,0,0,10,697.8,396.9)" />
<use xlink:href="#f1_2b" transform="matrix(10,0,0,10,702,396.9)" />
<use xlink:href="#f1_2a" transform="matrix(10,0,0,10,709.7,396.9)" />
<use xlink:href="#f1_1x" transform="matrix(10,0,0,10,720.9,396.9)" />
<use xlink:href="#f1_2f" transform="matrix(10,0,0,10,727.9,396.9)" />
<use xlink:href="#f1_2g" transform="matrix(10,0,0,10,737.2,396.9)" />
<use xlink:href="#f1_24" transform="matrix(10,0,0,10,741.4,396.9)" />
<use xlink:href="#f1_21" transform="matrix(10,0,0,10,749.1,396.9)" />
<use xlink:href="#f1_2e" transform="matrix(10,0,0,10,755.9,396.9)" />
<use xlink:href="#f1_21" transform="matrix(10,0,0,10,761,396.9)" />
<use xlink:href="#f1_1x" transform="matrix(10,0,0,10,771.5,396.9)" />
<use xlink:href="#f1_2e" transform="matrix(10,0,0,10,778.5,396.9)" />
<use xlink:href="#f1_21" transform="matrix(10,0,0,10,783.6,396.9)" />
<use xlink:href="#f1_18" transform="matrix(10,0,0,10,794,396.9)" />
<use xlink:href="#f1_f" transform="matrix(7,0,0,7,805,386.8)" />
<use xlink:href="#f1_25" transform="matrix(10,0,0,10,813.8,396.9)" />
<use xlink:href="#f1_2b" transform="matrix(10,0,0,10,818,396.9)" />
<use xlink:href="#f1_2a" transform="matrix(10,0,0,10,825.7,396.9)" />
<use xlink:href="#f1_2f" transform="matrix(10,0,0,10,833.3,396.9)" />
<use xlink:href="#f1_25" transform="matrix(10,0,0,10,842.8,396.9)" />
<use xlink:href="#f1_2a" transform="matrix(10,0,0,10,846.8,396.9)" />
<use xlink:href="#f1_2g" transform="matrix(10,0,0,10,99.7,418)" />
<use xlink:href="#f1_24" transform="matrix(10,0,0,10,104,418)" />
<use xlink:href="#f1_21" transform="matrix(10,0,0,10,111.3,418)" />
<use xlink:href="#f1_21" transform="matrix(10,0,0,10,121.9,418)" />
<use xlink:href="#f1_2d" transform="matrix(10,0,0,10,128.7,418)" />
<use xlink:href="#f1_2h" transform="matrix(10,0,0,10,136.2,418)" />
<use xlink:href="#f1_1x" transform="matrix(10,0,0,10,143.9,418)" />
<use xlink:href="#f1_2g" transform="matrix(10,0,0,10,150.7,418)" />
<use xlink:href="#f1_25" transform="matrix(10,0,0,10,154.7,418)" />
<use xlink:href="#f1_2b" transform="matrix(10,0,0,10,159,418)" />
<use xlink:href="#f1_2a" transform="matrix(10,0,0,10,166.8,418)" />
<use xlink:href="#f1_i" transform="matrix(10,0,0,10,174.2,418)" />
</g>
<image preserveAspectRatio="none" x="102" y="446" width="661" height="83" xlink:href="img/2.png" />
<g fill="#000000" >
<use xlink:href="#f1_1e" transform="matrix(10,0,0,10,99.7,565.6)" />
<use xlink:href="#f1_2b" transform="matrix(10,0,0,10,110.5,565.6)" />
<use xlink:href="#f1_2j" transform="matrix(10,0,0,10,118.4,565.6)" />
<use xlink:href="#f1_2f" transform="matrix(10,0,0,10,132.9,565.6)" />
<use xlink:href="#f1_21" transform="matrix(10,0,0,10,138.6,565.6)" />
<use xlink:href="#f1_21" transform="matrix(10,0,0,10,145.6,565.6)" />
<use xlink:href="#f1_21" transform="matrix(10,0,0,10,156.2,565.6)" />
<use xlink:href="#f1_2d" transform="matrix(10,0,0,10,162.8,565.6)" />
<use xlink:href="#f1_2h" transform="matrix(10,0,0,10,170.7,565.6)" />
<use xlink:href="#f1_1x" transform="matrix(10,0,0,10,178,565.6)" />
<use xlink:href="#f1_2g" transform="matrix(10,0,0,10,185,565.6)" />
<use xlink:href="#f1_25" transform="matrix(10,0,0,10,189,565.6)" />
<use xlink:href="#f1_2b" transform="matrix(10,0,0,10,193.2,565.6)" />
<use xlink:href="#f1_2a" transform="matrix(10,0,0,10,201.1,565.6)" />
<use xlink:href="#f1_c" transform="matrix(10,0,0,10,212.5,565.6)" />
<use xlink:href="#f1_25" transform="matrix(10,0,0,10,217.6,565.6)" />
<use xlink:href="#f1_d" transform="matrix(10,0,0,10,221.8,565.6)" />
<use xlink:href="#f1_1x" transform="matrix(10,0,0,10,230.6,565.6)" />
<use xlink:href="#f1_2a" transform="matrix(10,0,0,10,237.4,565.6)" />
<use xlink:href="#f1_20" transform="matrix(10,0,0,10,244.8,565.6)" />
<use xlink:href="#f1_c" transform="matrix(10,0,0,10,256.3,565.6)" />
<use xlink:href="#f1_25" transform="matrix(10,0,0,10,261.6,565.6)" />
<use xlink:href="#f1_25" transform="matrix(10,0,0,10,265.8,565.6)" />
<use xlink:href="#f1_d" transform="matrix(10,0,0,10,270.1,565.6)" />
<use xlink:href="#f1_25" transform="matrix(10,0,0,10,279,565.6)" />
<use xlink:href="#f1_2a" transform="matrix(10,0,0,10,283.3,565.6)" />
<use xlink:href="#f1_2j" transform="matrix(10,0,0,10,294.5,565.6)" />
<use xlink:href="#f1_24" transform="matrix(10,0,0,10,305.1,565.6)" />
<use xlink:href="#f1_25" transform="matrix(10,0,0,10,312.8,565.6)" />
<use xlink:href="#f1_1z" transform="matrix(10,0,0,10,316.8,565.6)" />
<use xlink:href="#f1_24" transform="matrix(10,0,0,10,323.6,565.6)" />
<use xlink:href="#f1_1f" transform="matrix(10,0,0,10,335.2,565.6)" />
<use xlink:href="#f1_1x" transform="matrix(10,0,0,10,349.8,565.6)" />
<use xlink:href="#f1_2a" transform="matrix(10,0,0,10,356.8,565.6)" />
<use xlink:href="#f1_20" transform="matrix(10,0,0,10,364.1,565.6)" />
<use xlink:href="#f1_18" transform="matrix(10,0,0,10,375.9,565.6)" />
<use xlink:href="#f1_1x" transform="matrix(10,0,0,10,390.5,565.6)" />
<use xlink:href="#f1_2g" transform="matrix(10,0,0,10,397.5,565.6)" />
<use xlink:href="#f1_2b" transform="matrix(10,0,0,10,401.7,565.6)" />
<use xlink:href="#f1_29" transform="matrix(10,0,0,10,409.2,565.6)" />
<use xlink:href="#f1_2f" transform="matrix(10,0,0,10,420.7,565.6)" />
<use xlink:href="#f1_1x" transform="matrix(10,0,0,10,430.3,565.6)" />
<use xlink:href="#f1_2e" transform="matrix(10,0,0,10,437.2,565.6)" />
<use xlink:href="#f1_21" transform="matrix(10,0,0,10,442.2,565.6)" />
<use xlink:href="#f1_1y" transform="matrix(10,0,0,10,453,565.6)" />
<use xlink:href="#f1_1x" transform="matrix(10,0,0,10,460.7,565.6)" />
<use xlink:href="#f1_28" transform="matrix(10,0,0,10,467.5,565.6)" />
<use xlink:href="#f1_1x" transform="matrix(10,0,0,10,471.5,565.6)" />
<use xlink:href="#f1_2a" transform="matrix(10,0,0,10,478.3,565.6)" />
<use xlink:href="#f1_1z" transform="matrix(10,0,0,10,485.8,565.6)" />
<use xlink:href="#f1_21" transform="matrix(10,0,0,10,492.6,565.6)" />
<use xlink:href="#f1_20" transform="matrix(10,0,0,10,499.6,565.6)" />
<use xlink:href="#f1_1y" transform="matrix(10,0,0,10,511.2,565.6)" />
<use xlink:href="#f1_2l" transform="matrix(10,0,0,10,518.7,565.6)" />
<use xlink:href="#f1_1f" transform="matrix(10,0,0,10,530,565.6)" />
<use xlink:href="#f1_18" transform="matrix(10,0,0,10,541,565.6)" />
<use xlink:href="#f1_4y" transform="matrix(7,0,0,7,552,555.5)" />
<use xlink:href="#f1_1x" transform="matrix(10,0,0,10,560.8,565.6)" />
<use xlink:href="#f1_2a" transform="matrix(10,0,0,10,567.8,565.6)" />
<use xlink:href="#f1_20" transform="matrix(10,0,0,10,575.1,565.6)" />
<use xlink:href="#f1_18" transform="matrix(10,0,0,10,586.9,565.6)" />
<use xlink:href="#f1_m" transform="matrix(6.4,0,0,6.4,597.8,571.1)" />
<use xlink:href="#f1_1f" transform="matrix(10,0,0,10,602.8,565.6)" />
<use xlink:href="#f1_1e" transform="matrix(10,0,0,10,99.7,593.3)" />
<use xlink:href="#f1_2b" transform="matrix(10,0,0,10,110.5,593.3)" />
<use xlink:href="#f1_2j" transform="matrix(10,0,0,10,118.4,593.3)" />
<use xlink:href="#f1_22" transform="matrix(10,0,0,10,132.9,593.3)" />
<use xlink:href="#f1_2e" transform="matrix(10,0,0,10,137.7,593.3)" />
<use xlink:href="#f1_2b" transform="matrix(10,0,0,10,142.8,593.3)" />
<use xlink:href="#f1_29" transform="matrix(10,0,0,10,150.7,593.3)" />
<use xlink:href="#f1_2f" transform="matrix(10,0,0,10,165.9,593.3)" />
<use xlink:href="#f1_2g" transform="matrix(10,0,0,10,171.6,593.3)" />
<use xlink:href="#f1_21" transform="matrix(10,0,0,10,175.8,593.3)" />
<use xlink:href="#f1_2c" transform="matrix(10,0,0,10,182.8,593.3)" />
<use xlink:href="#f1_1m" transform="matrix(10,0,0,10,194,593.3)" />
<use xlink:href="#f1_19" transform="matrix(10,0,0,10,205.1,593.3)" />
<use xlink:href="#f1_19" transform="matrix(10,0,0,10,210.1,593.3)" />
<use xlink:href="#f1_19" transform="matrix(10,0,0,10,215.4,593.3)" />
</g>
<image preserveAspectRatio="none" x="102" y="621" width="480" height="81" xlink:href="img/3.png" />
<g fill="#000000" >
<use xlink:href="#f0_13" transform="matrix(10,0,0,10,55,736.6)" />
<use xlink:href="#f0_2b" transform="matrix(10,0,0,10,65.8,736.6)" />
<use xlink:href="#f0_2a" transform="matrix(10,0,0,10,73.7,736.6)" />
<use xlink:href="#f0_1z" transform="matrix(10,0,0,10,81.9,736.6)" />
<use xlink:href="#f0_21" transform="matrix(10,0,0,10,88.9,736.6)" />
<use xlink:href="#f0_2c" transform="matrix(10,0,0,10,95.7,736.6)" />
<use xlink:href="#f0_2g" transform="matrix(10,0,0,10,103.9,736.6)" />
<use xlink:href="#f0_2b" transform="matrix(10,0,0,10,112.7,736.6)" />
<use xlink:href="#f0_22" transform="matrix(10,0,0,10,120.6,736.6)" />
<use xlink:href="#f0_21" transform="matrix(10,0,0,10,129.4,736.6)" />
<use xlink:href="#f0_2d" transform="matrix(10,0,0,10,136.2,736.6)" />
<use xlink:href="#f0_2h" transform="matrix(10,0,0,10,144.6,736.6)" />
<use xlink:href="#f0_25" transform="matrix(10,0,0,10,153.1,736.6)" />
<use xlink:href="#f0_2i" transform="matrix(10,0,0,10,157.3,736.6)" />
<use xlink:href="#f0_1x" transform="matrix(10,0,0,10,165.2,736.6)" />
<use xlink:href="#f0_28" transform="matrix(10,0,0,10,172.7,736.6)" />
<use xlink:href="#f0_21" transform="matrix(10,0,0,10,176.9,736.6)" />
<use xlink:href="#f0_2a" transform="matrix(10,0,0,10,183.9,736.6)" />
<use xlink:href="#f0_2g" transform="matrix(10,0,0,10,192.1,736.6)" />
<use xlink:href="#f0_2f" transform="matrix(10,0,0,10,197.3,736.6)" />
<use xlink:href="#f0_15" transform="matrix(10,0,0,10,99.7,763)" />
<use xlink:href="#f0_2d" transform="matrix(10,0,0,10,109.6,763)" />
<use xlink:href="#f0_2h" transform="matrix(10,0,0,10,118.1,763)" />
<use xlink:href="#f0_25" transform="matrix(10,0,0,10,126.5,763)" />
<use xlink:href="#f0_2i" transform="matrix(10,0,0,10,130.7,763)" />
<use xlink:href="#f0_1x" transform="matrix(10,0,0,10,138.4,763)" />
<use xlink:href="#f0_28" transform="matrix(10,0,0,10,146.3,763)" />
<use xlink:href="#f0_21" transform="matrix(10,0,0,10,150.3,763)" />
<use xlink:href="#f0_2a" transform="matrix(10,0,0,10,157.3,763)" />
<use xlink:href="#f0_2g" transform="matrix(10,0,0,10,165.5,763)" />
<use xlink:href="#f0_29" transform="matrix(10,0,0,10,174.5,763)" />
<use xlink:href="#f0_1x" transform="matrix(10,0,0,10,186.8,763)" />
<use xlink:href="#f0_2f" transform="matrix(10,0,0,10,194.7,763)" />
<use xlink:href="#f0_2f" transform="matrix(10,0,0,10,200.4,763)" />
<use xlink:href="#f0_2b" transform="matrix(10,0,0,10,210.1,763)" />
<use xlink:href="#f0_22" transform="matrix(10,0,0,10,217.8,763)" />
<use xlink:href="#f0_21" transform="matrix(10,0,0,10,226.6,763)" />
<use xlink:href="#f0_28" transform="matrix(10,0,0,10,233.6,763)" />
<use xlink:href="#f0_21" transform="matrix(10,0,0,10,237.8,763)" />
<use xlink:href="#f0_29" transform="matrix(10,0,0,10,244.6,763)" />
<use xlink:href="#f0_21" transform="matrix(10,0,0,10,256.9,763)" />
<use xlink:href="#f0_2a" transform="matrix(10,0,0,10,263.6,763)" />
<use xlink:href="#f0_2g" transform="matrix(10,0,0,10,271.9,763)" />
<use xlink:href="#f1_1e" transform="matrix(10,0,0,10,99.7,789.4)" />
<use xlink:href="#f1_2h" transform="matrix(10,0,0,10,110.5,789.4)" />
<use xlink:href="#f1_29" transform="matrix(10,0,0,10,118.1,789.4)" />
<use xlink:href="#f1_1y" transform="matrix(10,0,0,10,129.6,789.4)" />
<use xlink:href="#f1_21" transform="matrix(10,0,0,10,137.5,789.4)" />
<use xlink:href="#f1_2e" transform="matrix(10,0,0,10,144.3,789.4)" />
<use xlink:href="#f1_2b" transform="matrix(10,0,0,10,152.9,789.4)" />
<use xlink:href="#f1_22" transform="matrix(10,0,0,10,160.8,789.4)" />
<use xlink:href="#f1_2c" transform="matrix(10,0,0,10,169.2,789.4)" />
<use xlink:href="#f1_1x" transform="matrix(10,0,0,10,177.1,789.4)" />
<use xlink:href="#f1_2e" transform="matrix(10,0,0,10,183.7,789.4)" />
<use xlink:href="#f1_2g" transform="matrix(10,0,0,10,189,789.4)" />
<use xlink:href="#f1_2f" transform="matrix(10,0,0,10,193.2,789.4)" />
<use xlink:href="#f1_1y" transform="matrix(10,0,0,10,202.6,789.4)" />
<use xlink:href="#f1_2l" transform="matrix(10,0,0,10,210.5,789.4)" />
<use xlink:href="#f1_29" transform="matrix(10,0,0,10,221.3,789.4)" />
<use xlink:href="#f1_1x" transform="matrix(10,0,0,10,232.8,789.4)" />
<use xlink:href="#f1_2f" transform="matrix(10,0,0,10,239.8,789.4)" />
<use xlink:href="#f1_2f" transform="matrix(10,0,0,10,245.5,789.4)" />
<use xlink:href="#f1_2b" transform="matrix(10,0,0,10,255,789.4)" />
<use xlink:href="#f1_22" transform="matrix(10,0,0,10,262.9,789.4)" />
<use xlink:href="#f1_1x" transform="matrix(10,0,0,10,271.5,789.4)" />
<use xlink:href="#f1_2a" transform="matrix(10,0,0,10,278.3,789.4)" />
<use xlink:href="#f1_21" transform="matrix(10,0,0,10,289.7,789.4)" />
<use xlink:href="#f1_28" transform="matrix(10,0,0,10,296.5,789.4)" />
<use xlink:href="#f1_21" transform="matrix(10,0,0,10,300.5,789.4)" />
<use xlink:href="#f1_29" transform="matrix(10,0,0,10,307.3,789.4)" />
<use xlink:href="#f1_21" transform="matrix(10,0,0,10,319,789.4)" />
<use xlink:href="#f1_2a" transform="matrix(10,0,0,10,325.8,789.4)" />
<use xlink:href="#f1_2g" transform="matrix(10,0,0,10,333.3,789.4)" />
<use xlink:href="#f1_2j" transform="matrix(10,0,0,10,341.2,789.4)" />
<use xlink:href="#f1_24" transform="matrix(10,0,0,10,351.8,789.4)" />
<use xlink:href="#f1_25" transform="matrix(10,0,0,10,359.2,789.4)" />
<use xlink:href="#f1_1z" transform="matrix(10,0,0,10,363.4,789.4)" />
<use xlink:href="#f1_24" transform="matrix(10,0,0,10,370.4,789.4)" />
<use xlink:href="#f1_2e" transform="matrix(10,0,0,10,381.4,789.4)" />
<use xlink:href="#f1_21" transform="matrix(10,0,0,10,386.7,789.4)" />
<use xlink:href="#f1_1x" transform="matrix(10,0,0,10,393.5,789.4)" />
<use xlink:href="#f1_1z" transform="matrix(10,0,0,10,400.2,789.4)" />
<use xlink:href="#f1_2g" transform="matrix(10,0,0,10,407,789.4)" />
<use xlink:href="#f1_2f" transform="matrix(10,0,0,10,411.3,789.4)" />
<use xlink:href="#f1_2b" transform="matrix(10,0,0,10,420.6,789.4)" />
<use xlink:href="#f1_2e" transform="matrix(10,0,0,10,428.3,789.4)" />
<use xlink:href="#f1_20" transform="matrix(10,0,0,10,437.2,789.4)" />
<use xlink:href="#f1_25" transform="matrix(10,0,0,10,444.8,789.4)" />
<use xlink:href="#f1_2f" transform="matrix(10,0,0,10,449,789.4)" />
<use xlink:href="#f1_2c" transform="matrix(10,0,0,10,454.9,789.4)" />
<use xlink:href="#f1_28" transform="matrix(10,0,0,10,462.7,789.4)" />
<use xlink:href="#f1_1x" transform="matrix(10,0,0,10,466.8,789.4)" />
<use xlink:href="#f1_1z" transform="matrix(10,0,0,10,473.7,789.4)" />
<use xlink:href="#f1_21" transform="matrix(10,0,0,10,480.5,789.4)" />
<use xlink:href="#f1_2f" transform="matrix(10,0,0,10,487.3,789.4)" />
<use xlink:href="#f1_22" transform="matrix(10,0,0,10,496.7,789.4)" />
<use xlink:href="#f1_2e" transform="matrix(10,0,0,10,501.8,789.4)" />
<use xlink:href="#f1_2b" transform="matrix(10,0,0,10,506.7,789.4)" />
<use xlink:href="#f1_29" transform="matrix(10,0,0,10,514.6,789.4)" />
<use xlink:href="#f1_1x" transform="matrix(10,0,0,10,529.8,789.4)" />
<use xlink:href="#f1_1z" transform="matrix(10,0,0,10,540.3,789.4)" />
<use xlink:href="#f1_2b" transform="matrix(10,0,0,10,546.9,789.4)" />
<use xlink:href="#f1_29" transform="matrix(10,0,0,10,554.8,789.4)" />
<use xlink:href="#f1_2c" transform="matrix(10,0,0,10,566.3,789.4)" />
<use xlink:href="#f1_2b" transform="matrix(10,0,0,10,573.9,789.4)" />
<use xlink:href="#f1_2h" transform="matrix(10,0,0,10,581.7,789.4)" />
<use xlink:href="#f1_2a" transform="matrix(10,0,0,10,589.1,789.4)" />
<use xlink:href="#f1_20" transform="matrix(10,0,0,10,596.8,789.4)" />
<use xlink:href="#f1_l" transform="matrix(10,0,0,10,608,789.4)" />
<use xlink:href="#f1_i" transform="matrix(10,0,0,10,615.8,789.4)" />
<use xlink:href="#f1_k" transform="matrix(10,0,0,10,619.5,789.4)" />
<use xlink:href="#f1_k" transform="matrix(10,0,0,10,627.4,789.4)" />
<use xlink:href="#f1_s" transform="matrix(10,0,0,10,634.9,789.4)" />
<use xlink:href="#f1_2c" transform="matrix(10,0,0,10,646.3,789.4)" />
<use xlink:href="#f1_1x" transform="matrix(10,0,0,10,654.2,789.4)" />
<use xlink:href="#f1_2e" transform="matrix(10,0,0,10,660.9,789.4)" />
<use xlink:href="#f1_2g" transform="matrix(10,0,0,10,666.1,789.4)" />
<use xlink:href="#f1_2f" transform="matrix(10,0,0,10,670.1,789.4)" />
<use xlink:href="#f1_1y" transform="matrix(10,0,0,10,679.8,789.4)" />
<use xlink:href="#f1_2l" transform="matrix(10,0,0,10,687.7,789.4)" />
<use xlink:href="#f1_29" transform="matrix(10,0,0,10,698.5,789.4)" />
<use xlink:href="#f1_1x" transform="matrix(10,0,0,10,710.1,789.4)" />
<use xlink:href="#f1_2f" transform="matrix(10,0,0,10,717,789.4)" />
<use xlink:href="#f1_2f" transform="matrix(10,0,0,10,722.7,789.4)" />
<use xlink:href="#f1_2b" transform="matrix(10,0,0,10,732.4,789.4)" />
<use xlink:href="#f1_22" transform="matrix(10,0,0,10,740.1,789.4)" />
<use xlink:href="#f1_24" transform="matrix(10,0,0,10,748.5,789.4)" />
<use xlink:href="#f1_2l" transform="matrix(10,0,0,10,756.2,789.4)" />
<use xlink:href="#f1_20" transform="matrix(10,0,0,10,763.6,789.4)" />
<use xlink:href="#f1_2e" transform="matrix(10,0,0,10,771.1,789.4)" />
<use xlink:href="#f1_2b" transform="matrix(10,0,0,10,776.2,789.4)" />
<use xlink:href="#f1_23" transform="matrix(10,0,0,10,784.1,789.4)" />
<use xlink:href="#f1_21" transform="matrix(10,0,0,10,791.4,789.4)" />
<use xlink:href="#f1_2a" transform="matrix(10,0,0,10,798.4,789.4)" />
<use xlink:href="#f1_g" transform="matrix(10,0,0,10,805.8,789.4)" />
<use xlink:href="#f1_s" transform="matrix(10,0,0,10,813.3,789.4)" />
<use xlink:href="#f1_2c" transform="matrix(10,0,0,10,824.6,789.4)" />
<use xlink:href="#f1_1x" transform="matrix(10,0,0,10,832.5,789.4)" />
<use xlink:href="#f1_2e" transform="matrix(10,0,0,10,839.3,789.4)" />
<use xlink:href="#f1_2g" transform="matrix(10,0,0,10,844.4,789.4)" />
<use xlink:href="#f1_2f" transform="matrix(10,0,0,10,848.5,789.4)" />
<use xlink:href="#f1_1y" transform="matrix(10,0,0,10,99.7,809.2)" />
<use xlink:href="#f1_2l" transform="matrix(10,0,0,10,107.4,809.2)" />
<use xlink:href="#f1_29" transform="matrix(10,0,0,10,118.4,809.2)" />
<use xlink:href="#f1_1x" transform="matrix(10,0,0,10,130.2,809.2)" />
<use xlink:href="#f1_2f" transform="matrix(10,0,0,10,137,809.2)" />
<use xlink:href="#f1_2f" transform="matrix(10,0,0,10,142.6,809.2)" />
<use xlink:href="#f1_2b" transform="matrix(10,0,0,10,152.4,809.2)" />
<use xlink:href="#f1_22" transform="matrix(10,0,0,10,159.9,809.2)" />
<use xlink:href="#f1_2b" transform="matrix(10,0,0,10,168.9,809.2)" />
<use xlink:href="#f1_2k" transform="matrix(10,0,0,10,176.6,809.2)" />
<use xlink:href="#f1_2l" transform="matrix(10,0,0,10,184.1,809.2)" />
<use xlink:href="#f1_23" transform="matrix(10,0,0,10,191.2,809.2)" />
<use xlink:href="#f1_21" transform="matrix(10,0,0,10,198.9,809.2)" />
<use xlink:href="#f1_2a" transform="matrix(10,0,0,10,205.7,809.2)" />
<use xlink:href="#f1_1x" transform="matrix(10,0,0,10,216.9,809.2)" />
<use xlink:href="#f1_2a" transform="matrix(10,0,0,10,223.7,809.2)" />
<use xlink:href="#f1_20" transform="matrix(10,0,0,10,231.2,809.2)" />
<use xlink:href="#f1_n" transform="matrix(10,0,0,10,242.7,809.2)" />
<use xlink:href="#f1_p" transform="matrix(10,0,0,10,250.6,809.2)" />
<use xlink:href="#f1_i" transform="matrix(10,0,0,10,258.3,809.2)" />
<use xlink:href="#f1_p" transform="matrix(10,0,0,10,262.2,809.2)" />
<use xlink:href="#f1_2c" transform="matrix(10,0,0,10,273.5,809.2)" />
<use xlink:href="#f1_1x" transform="matrix(10,0,0,10,281.1,809.2)" />
<use xlink:href="#f1_2e" transform="matrix(10,0,0,10,288,809.2)" />
<use xlink:href="#f1_2g" transform="matrix(10,0,0,10,293,809.2)" />
<use xlink:href="#f1_2f" transform="matrix(10,0,0,10,297.2,809.2)" />
<use xlink:href="#f1_1y" transform="matrix(10,0,0,10,307.1,809.2)" />
<use xlink:href="#f1_2l" transform="matrix(10,0,0,10,314.8,809.2)" />
<use xlink:href="#f1_29" transform="matrix(10,0,0,10,325.8,809.2)" />
<use xlink:href="#f1_1x" transform="matrix(10,0,0,10,337.5,809.2)" />
<use xlink:href="#f1_2f" transform="matrix(10,0,0,10,344.3,809.2)" />
<use xlink:href="#f1_2f" transform="matrix(10,0,0,10,350,809.2)" />
<use xlink:href="#f1_2b" transform="matrix(10,0,0,10,359.7,809.2)" />
<use xlink:href="#f1_22" transform="matrix(10,0,0,10,367.6,809.2)" />
<use xlink:href="#f1_1z" transform="matrix(10,0,0,10,376,809.2)" />
<use xlink:href="#f1_24" transform="matrix(10,0,0,10,383,809.2)" />
<use xlink:href="#f1_28" transform="matrix(10,0,0,10,390.3,809.2)" />
<use xlink:href="#f1_2b" transform="matrix(10,0,0,10,394.5,809.2)" />
<use xlink:href="#f1_2e" transform="matrix(10,0,0,10,402.4,809.2)" />
<use xlink:href="#f1_25" transform="matrix(10,0,0,10,407.6,809.2)" />
<use xlink:href="#f1_2a" transform="matrix(10,0,0,10,411.6,809.2)" />
<use xlink:href="#f1_21" transform="matrix(10,0,0,10,419.3,809.2)" />
<use xlink:href="#f1_g" transform="matrix(10,0,0,10,426.1,809.2)" />
<use xlink:href="#f1_25" transform="matrix(10,0,0,10,433.6,809.2)" />
<use xlink:href="#f1_2f" transform="matrix(10,0,0,10,437.8,809.2)" />
<use xlink:href="#f1_27" transform="matrix(10,0,0,10,447.5,809.2)" />
<use xlink:href="#f1_2a" transform="matrix(10,0,0,10,455.2,809.2)" />
<use xlink:href="#f1_2b" transform="matrix(10,0,0,10,462.6,809.2)" />
<use xlink:href="#f1_2j" transform="matrix(10,0,0,10,470.4,809.2)" />
<use xlink:href="#f1_2a" transform="matrix(10,0,0,10,481.1,809.2)" />
<use xlink:href="#f1_1x" transform="matrix(10,0,0,10,492.2,809.2)" />
<use xlink:href="#f1_2f" transform="matrix(10,0,0,10,499.2,809.2)" />
<use xlink:href="#f1_2g" transform="matrix(10,0,0,10,508.7,809.2)" />
<use xlink:href="#f1_24" transform="matrix(10,0,0,10,512.8,809.2)" />
<use xlink:href="#f1_21" transform="matrix(10,0,0,10,520.5,809.2)" />
<use xlink:href="#f1_21" transform="matrix(10,0,0,10,530.9,809.2)" />
<use xlink:href="#f1_2d" transform="matrix(10,0,0,10,537.9,809.2)" />
<use xlink:href="#f1_2h" transform="matrix(10,0,0,10,545.4,809.2)" />
<use xlink:href="#f1_25" transform="matrix(10,0,0,10,553.1,809.2)" />
<use xlink:href="#f1_2i" transform="matrix(10,0,0,10,557.2,809.2)" />
<use xlink:href="#f1_1x" transform="matrix(10,0,0,10,564.9,809.2)" />
<use xlink:href="#f1_28" transform="matrix(10,0,0,10,571.6,809.2)" />
<use xlink:href="#f1_21" transform="matrix(10,0,0,10,575.9,809.2)" />
<use xlink:href="#f1_2a" transform="matrix(10,0,0,10,582.5,809.2)" />
<use xlink:href="#f1_2g" transform="matrix(10,0,0,10,590,809.2)" />
<use xlink:href="#f1_2j" transform="matrix(10,0,0,10,598.2,809.2)" />
<use xlink:href="#f1_21" transform="matrix(10,0,0,10,608.9,809.2)" />
<use xlink:href="#f1_25" transform="matrix(10,0,0,10,615.7,809.2)" />
<use xlink:href="#f1_23" transform="matrix(10,0,0,10,619.9,809.2)" />
<use xlink:href="#f1_24" transform="matrix(10,0,0,10,627.2,809.2)" />
<use xlink:href="#f1_2g" transform="matrix(10,0,0,10,634.9,809.2)" />
<use xlink:href="#f1_2b" transform="matrix(10,0,0,10,643,809.2)" />
<use xlink:href="#f1_22" transform="matrix(10,0,0,10,650.5,809.2)" />
<use xlink:href="#f1_2g" transform="matrix(10,0,0,10,659.1,809.2)" />
<use xlink:href="#f1_24" transform="matrix(10,0,0,10,663.3,809.2)" />
<use xlink:href="#f1_21" transform="matrix(10,0,0,10,671,809.2)" />
<use xlink:href="#f1_21" transform="matrix(10,0,0,10,681.5,809.2)" />
<use xlink:href="#f1_28" transform="matrix(10,0,0,10,688.4,809.2)" />
<use xlink:href="#f1_21" transform="matrix(10,0,0,10,692.7,809.2)" />
<use xlink:href="#f1_29" transform="matrix(10,0,0,10,699.5,809.2)" />
<use xlink:href="#f1_21" transform="matrix(10,0,0,10,711,809.2)" />
<use xlink:href="#f1_2a" transform="matrix(10,0,0,10,717.8,809.2)" />
<use xlink:href="#f1_2g" transform="matrix(10,0,0,10,725.1,809.2)" />
<use xlink:href="#f1_i" transform="matrix(10,0,0,10,729.3,809.2)" />
<use xlink:href="#f1_21" transform="matrix(10,0,0,10,99.7,840.6)" />
<use xlink:href="#f1_i" transform="matrix(10,0,0,10,106.5,840.6)" />
<use xlink:href="#f1_23" transform="matrix(10,0,0,10,110.4,840.6)" />
<use xlink:href="#f1_i" transform="matrix(10,0,0,10,117.7,840.6)" />
<use xlink:href="#f1_m" transform="matrix(10,0,0,10,151.3,840.6)" />
<use xlink:href="#f1_1d" transform="matrix(10,0,0,10,158.8,840.6)" />
<use xlink:href="#f1_23" transform="matrix(10,0,0,10,172.3,840.6)" />
<use xlink:href="#f1_f" transform="matrix(10,0,0,10,183.7,840.6)" />
<use xlink:href="#f1_1f" transform="matrix(10,0,0,10,196.4,840.6)" />
<use xlink:href="#f1_m" transform="matrix(6.4,0,0,6.4,207.4,846.1)" />
<use xlink:href="#f2_3k" transform="matrix(10.2,0,0,10.2,220,843.3)" />
<use xlink:href="#f2_3k" transform="matrix(10.2,0,0,10.2,234.9,843.3)" />
<use xlink:href="#f2_34" transform="matrix(10.2,0,0,10.2,239.3,843.3)" />
<use xlink:href="#f1_m" transform="matrix(10,0,0,10,261.1,840.6)" />
<use xlink:href="#f1_1d" transform="matrix(10,0,0,10,268.9,840.6)" />
<use xlink:href="#f1_23" transform="matrix(10,0,0,10,282.3,840.6)" />
<use xlink:href="#f1_1f" transform="matrix(10,0,0,10,290,840.6)" />
<use xlink:href="#f1_o" transform="matrix(10,0,0,10,151.2,870.6)" />
<use xlink:href="#f1_s" transform="matrix(10,0,0,10,158.9,870.6)" />
<use xlink:href="#f1_23" transform="matrix(10,0,0,10,166.5,870.6)" />
<use xlink:href="#f1_n" transform="matrix(10,0,0,10,200.9,870.6)" />
<use xlink:href="#f1_m" transform="matrix(10,0,0,10,208.4,870.6)" />
<use xlink:href="#f1_23" transform="matrix(10,0,0,10,216.3,870.6)" />
<use xlink:href="#f1_l" transform="matrix(10,0,0,10,151.2,897.2)" />
<use xlink:href="#f1_m" transform="matrix(10,0,0,10,159,897.2)" />
<use xlink:href="#f1_23" transform="matrix(10,0,0,10,166.5,897.2)" />
<use xlink:href="#f1_s" transform="matrix(10,0,0,10,200.9,897.2)" />
<use xlink:href="#f1_23" transform="matrix(10,0,0,10,208.4,897.2)" />
<use xlink:href="#f4_14" transform="matrix(10,0,0,10,99.9,926.6)" />
<use xlink:href="#f1_n" transform="matrix(10,0,0,10,151.2,925.1)" />
<use xlink:href="#f1_m" transform="matrix(10,0,0,10,159,925.1)" />
<use xlink:href="#f1_23" transform="matrix(10,0,0,10,166.5,925.1)" />
<use xlink:href="#f1_2b" transform="matrix(10,0,0,10,178,925.1)" />
<use xlink:href="#f1_22" transform="matrix(10,0,0,10,185.7,925.1)" />
<use xlink:href="#f1_1f" transform="matrix(10,0,0,10,194.3,925.1)" />
<use xlink:href="#f1_m" transform="matrix(6.4,0,0,6.4,205.5,930.6)" />
<use xlink:href="#f1_2e" transform="matrix(10,0,0,10,214.1,925.1)" />
<use xlink:href="#f1_21" transform="matrix(10,0,0,10,219.3,925.1)" />
<use xlink:href="#f1_1x" transform="matrix(10,0,0,10,226.2,925.1)" />
<use xlink:href="#f1_1z" transform="matrix(10,0,0,10,233,925.1)" />
<use xlink:href="#f1_2g" transform="matrix(10,0,0,10,239.8,925.1)" />
<use xlink:href="#f1_2f" transform="matrix(10,0,0,10,244,925.1)" />
<use xlink:href="#f1_2j" transform="matrix(10,0,0,10,253.7,925.1)" />
<use xlink:href="#f1_25" transform="matrix(10,0,0,10,264.4,925.1)" />
<use xlink:href="#f1_2g" transform="matrix(10,0,0,10,268.4,925.1)" />
<use xlink:href="#f1_24" transform="matrix(10,0,0,10,272.6,925.1)" />
<use xlink:href="#f1_o" transform="matrix(10,0,0,10,284,925.1)" />
<use xlink:href="#f1_s" transform="matrix(10,0,0,10,291.5,925.1)" />
<use xlink:href="#f1_23" transform="matrix(10,0,0,10,303.1,925.1)" />
<use xlink:href="#f1_2b" transform="matrix(10,0,0,10,314.6,925.1)" />
<use xlink:href="#f1_22" transform="matrix(10,0,0,10,322.3,925.1)" />
<use xlink:href="#f1_1d" transform="matrix(10,0,0,10,330.9,925.1)" />
<use xlink:href="#f1_23" transform="matrix(10,0,0,10,344.7,925.1)" />
<use xlink:href="#f2_1s" transform="matrix(10,0,0,10,100.1,973.1)" />
<use xlink:href="#f1_s" transform="matrix(10,0,0,10,151.3,971.7)" />
<use xlink:href="#f1_23" transform="matrix(10,0,0,10,162.8,971.7)" />
<use xlink:href="#f1_2b" transform="matrix(10,0,0,10,174.2,971.7)" />
<use xlink:href="#f1_22" transform="matrix(10,0,0,10,181.7,971.7)" />
<use xlink:href="#f1_1f" transform="matrix(10,0,0,10,190.7,971.7)" />
<use xlink:href="#f1_m" transform="matrix(7,0,0,7,201.7,977.7)" />
<use xlink:href="#f1_x" transform="matrix(10,0,0,10,210.6,971.7)" />
</g>
<path d="M226.2,965.6h35.2" class="g0_101" />
<g fill="#000000" >
<use xlink:href="#f1_o" transform="matrix(10.1,0,0,10.1,227.3,959.9)" />
<use xlink:href="#f1_s" transform="matrix(10.1,0,0,10.1,234.9,959.9)" />
<use xlink:href="#f1_s" transform="matrix(10.1,0,0,10.1,253.6,959.9)" />
<use xlink:href="#f1_l" transform="matrix(10.1,0,0,10.1,275.7,969.6)" />
<use xlink:href="#f1_m" transform="matrix(10.1,0,0,10.1,283.3,969.6)" />
<use xlink:href="#f1_23" transform="matrix(10.1,0,0,10.1,291,969.6)" />
</g>
<g clip-path="url(#c1_101)">
<g fill="#000000" >
<use xlink:href="#f1_n" transform="matrix(10.1,0,0,10.1,236.3,981.6)" />
<use xlink:href="#f1_m" transform="matrix(10.1,0,0,10.1,243.8,981.6)" />
</g>
</g>
<g fill="#000000" >
<use xlink:href="#f2_3a" transform="matrix(10.1,0,0,10.1,243.8,959.9)" />
<use xlink:href="#f2_x" transform="matrix(10.1,0,0,10.1,265.5,969.6)" />
<use xlink:href="#f2_1s" transform="matrix(10,0,0,10,100.1,1012.4)" />
<use xlink:href="#f1_15" transform="matrix(10,0,0,10,151.3,1010.9)" />
<use xlink:href="#f1_2d" transform="matrix(10,0,0,10,160.4,1010.9)" />
<use xlink:href="#f1_2h" transform="matrix(10,0,0,10,168.3,1010.9)" />
<use xlink:href="#f1_25" transform="matrix(10,0,0,10,175.6,1010.9)" />
<use xlink:href="#f1_2i" transform="matrix(10,0,0,10,179.9,1010.9)" />
<use xlink:href="#f1_1x" transform="matrix(10,0,0,10,187.6,1010.9)" />
<use xlink:href="#f1_28" transform="matrix(10,0,0,10,194.3,1010.9)" />
<use xlink:href="#f1_21" transform="matrix(10,0,0,10,198.6,1010.9)" />
<use xlink:href="#f1_2a" transform="matrix(10,0,0,10,205.3,1010.9)" />
<use xlink:href="#f1_2g" transform="matrix(10,0,0,10,212.7,1010.9)" />
<use xlink:href="#f1_2j" transform="matrix(10,0,0,10,220.9,1010.9)" />
<use xlink:href="#f1_21" transform="matrix(10,0,0,10,231.4,1010.9)" />
<use xlink:href="#f1_25" transform="matrix(10,0,0,10,238.2,1010.9)" />
<use xlink:href="#f1_23" transform="matrix(10,0,0,10,242.6,1010.9)" />
<use xlink:href="#f1_24" transform="matrix(10,0,0,10,249.9,1010.9)" />
<use xlink:href="#f1_2g" transform="matrix(10,0,0,10,257.6,1010.9)" />
<use xlink:href="#f1_2b" transform="matrix(10,0,0,10,265.5,1010.9)" />
<use xlink:href="#f1_22" transform="matrix(10,0,0,10,273,1010.9)" />
<use xlink:href="#f1_1d" transform="matrix(10,0,0,10,282,1010.9)" />
<use xlink:href="#f1_23" transform="matrix(10,0,0,10,295.4,1010.9)" />
<use xlink:href="#f1_x" transform="matrix(10,0,0,10,310.6,1010.9)" />
<use xlink:href="#f1_l" transform="matrix(10,0,0,10,323.1,1010.9)" />
<use xlink:href="#f1_m" transform="matrix(10,0,0,10,330.8,1010.9)" />
<use xlink:href="#f1_1j" transform="matrix(10,0,0,10,99.7,1042.1)" />
<use xlink:href="#f1_25" transform="matrix(10,0,0,10,108,1042.1)" />
<use xlink:href="#f1_29" transform="matrix(10,0,0,10,112.2,1042.1)" />
<use xlink:href="#f1_25" transform="matrix(10,0,0,10,123.8,1042.1)" />
<use xlink:href="#f1_28" transform="matrix(10,0,0,10,128,1042.1)" />
<use xlink:href="#f1_1x" transform="matrix(10,0,0,10,132.2,1042.1)" />
<use xlink:href="#f1_2e" transform="matrix(10,0,0,10,139.2,1042.1)" />
<use xlink:href="#f1_28" transform="matrix(10,0,0,10,144.1,1042.1)" />
<use xlink:href="#f1_2l" transform="matrix(10,0,0,10,148.3,1042.1)" />
<use xlink:href="#f1_g" transform="matrix(10,0,0,10,154.7,1042.1)" />
<use xlink:href="#f1_1q" transform="matrix(10,0,0,10,174,1042.1)" />
<use xlink:href="#f1_2a" transform="matrix(10,0,0,10,183.2,1042.1)" />
<use xlink:href="#f1_f" transform="matrix(10,0,0,10,194.3,1042.1)" />
<use xlink:href="#f1_18" transform="matrix(10,0,0,10,206.8,1042.1)" />
<use xlink:href="#f1_m" transform="matrix(7,0,0,7,218,1048.1)" />
<use xlink:href="#f1_1j" transform="matrix(10,0,0,10,223.3,1042.1)" />
<use xlink:href="#f1_1f" transform="matrix(10,0,0,10,231.5,1042.1)" />
<use xlink:href="#f1_o" transform="matrix(6.4,0,0,6.4,242.7,1047.6)" />
<use xlink:href="#f2_3k" transform="matrix(10.2,0,0,10.2,255.4,1044.8)" />
<use xlink:href="#f2_3k" transform="matrix(10.2,0,0,10.2,270.2,1044.8)" />
<use xlink:href="#f2_34" transform="matrix(10.2,0,0,10.2,274.6,1044.8)" />
<use xlink:href="#f1_1q" transform="matrix(10,0,0,10,296.3,1042.1)" />
<use xlink:href="#f1_2a" transform="matrix(10,0,0,10,305.4,1042.1)" />
<use xlink:href="#f1_1j" transform="matrix(10,0,0,10,313.1,1042.1)" />
<use xlink:href="#f1_1f" transform="matrix(10,0,0,10,321.4,1042.1)" />
<use xlink:href="#f1_o" transform="matrix(6.4,0,0,6.4,332.6,1047.6)" />
<use xlink:href="#f1_f" transform="matrix(10,0,0,10,341.2,1042.1)" />
<use xlink:href="#f1_18" transform="matrix(10,0,0,10,357.3,1042.1)" />
<use xlink:href="#f1_m" transform="matrix(6.4,0,0,6.4,368.5,1047.6)" />
<use xlink:href="#f1_q" transform="matrix(10,0,0,10,172.2,1073.8)" />
<use xlink:href="#f1_p" transform="matrix(10,0,0,10,179.7,1073.8)" />
<use xlink:href="#f1_i" transform="matrix(10,0,0,10,187.6,1073.8)" />
<use xlink:href="#f1_p" transform="matrix(10,0,0,10,191.2,1073.8)" />
<use xlink:href="#f1_23" transform="matrix(10,0,0,10,206.6,1073.8)" />
<use xlink:href="#f1_n" transform="matrix(10,0,0,10,309.8,1073.8)" />
<use xlink:href="#f1_m" transform="matrix(10,0,0,10,317.3,1073.8)" />
<use xlink:href="#f1_i" transform="matrix(10,0,0,10,325.2,1073.8)" />
<use xlink:href="#f1_r" transform="matrix(10,0,0,10,329.1,1073.8)" />
<use xlink:href="#f1_p" transform="matrix(10,0,0,10,336.8,1073.8)" />
</g>
<path fill-rule="evenodd" d="M55,1176.5H855.1v2.3H55v-2.3Z" class="g1_101" />
<path fill-rule="evenodd" d="M51.4,71.7h802v28.4H51.4V71.7l1.4,26.9H851.9V73.3H52.8V98.6L51.4,71.7Z" class="g2_101" />
<path fill-rule="evenodd" d="M52.8,97H852.3v2.9H52.8V97Z" class="g1_101" />
<path fill-rule="evenodd" d="M52.8,71.9H852.3V75H52.8V71.9Z" class="g1_101" />
<g fill="#000000" >
<use xlink:href="#f5_1i" transform="matrix(10,0,0,10,57.9,90.5)" />
<use xlink:href="#f5_15" transform="matrix(10,0,0,10,69.4,90.5)" />
<use xlink:href="#f5_14" transform="matrix(10,0,0,10,80.2,90.5)" />
<use xlink:href="#f5_1f" transform="matrix(10,0,0,10,92,90.5)" />
<use xlink:href="#f5_1o" transform="matrix(10,0,0,10,104.1,90.5)" />
<use xlink:href="#f5_1i" transform="matrix(10,0,0,10,119.5,90.5)" />
<use xlink:href="#f5_15" transform="matrix(10,0,0,10,131.2,90.5)" />
<use xlink:href="#f5_11" transform="matrix(10,0,0,10,142,90.5)" />
<use xlink:href="#f5_13" transform="matrix(10,0,0,10,152.9,90.5)" />
<use xlink:href="#f5_1k" transform="matrix(10,0,0,10,164,90.5)" />
<use xlink:href="#f5_19" transform="matrix(10,0,0,10,174.3,90.5)" />
<use xlink:href="#f5_1f" transform="matrix(10,0,0,10,180.4,90.5)" />
<use xlink:href="#f5_1e" transform="matrix(10,0,0,10,192.1,90.5)" />
</g>
<defs>
<path d="M78,-22V359h28c0,0,32,-161,126,-246c0,0,94,-85,202,-85c0,0,84,0,133,46c0,0,50,45,50,106c0,0,0,36,-19,69c0,0,-19,34,-58,64c0,0,-39,30,-138,79c0,0,-138,68,-198,115c0,0,-60,48,-92,107c0,0,-33,59,-33,130c0,0,0,120,89,205c0,0,89,85,224,85c0,0,49,0,96,-11c0,0,35,-9,85,-34c0,0,51,-24,71,-24c0,0,19,0,30,12c0,0,12,12,21,57h23l8,-337H695c0,0,-21,127,-106,204c0,0,-85,78,-184,78c0,0,-76,0,-121,-41c0,0,-44,-41,-44,-94c0,0,0,-33,15,-59c0,0,22,-35,70,-70c0,0,35,-24,162,-87c0,0,178,-87,240,-165c0,0,61,-77,61,-177c0,0,0,-127,-99,-218c0,0,-99,-90,-251,-90c0,0,-48,0,-90,9c0,0,-43,10,-107,36c0,0,-36,15,-59,15c0,0,-20,0,-41,-15c0,0,-22,-15,-35,-45Z" 
id="f0_1j"
transform="scale(0.001,-0.001)" />

<path d="M381,31c0,0,33,0,56,19c0,0,29,25,38,71c0,0,15,71,15,286c0,0,0,127,-14,174c0,0,-14,48,-42,69c0,0,-19,16,-50,16c0,0,-38,0,-65,-29c0,0,-27,-29,-36,-113c0,0,-8,-85,-8,-235c0,0,0,-80,10,-150c0,0,8,-53,35,-80c0,0,27,-28,61,-28Zm2,-51c0,0,-157,0,-242,110c0,0,-85,110,-85,256c0,0,0,150,87,261c0,0,86,112,238,112c0,0,90,0,169,-47c0,0,78,-47,119,-134c0,0,40,-86,40,-189c0,0,0,-149,-75,-249c0,0,-91,-120,-251,-120Z" 
id="f0_2b"
transform="scale(0.001,-0.001)" />

<path d="M32,0V26c0,0,46,2,69,27c0,0,14,18,14,92V867c0,0,0,74,-17,94c0,0,-17,21,-66,24v27H325V145c0,0,0,-74,17,-95c0,0,17,-21,68,-24V0Z" 
id="f0_28"
transform="scale(0.001,-0.001)" />

<path d="M367,-20L133,520c0,0,-43,98,-67,124c0,0,-17,19,-50,26v27H386V670c0,0,-35,0,-48,-13c0,0,-18,-16,-18,-39c0,0,0,-27,33,-103L468,253l91,226c0,0,40,97,40,137c0,0,0,23,-17,38c0,0,-17,14,-59,16v27H750V670c0,0,-33,-5,-54,-25c0,0,-20,-20,-62,-118L402,-20Z" 
id="f0_2i"
transform="scale(0.001,-0.001)" />

<path d="M458,424c0,0,0,120,-13,165c0,0,-13,44,-40,67c0,0,-16,14,-42,14c0,0,-39,0,-63,-38c0,0,-44,-66,-44,-182V424ZM358,-20c0,0,-155,0,-235,119c0,0,-64,96,-64,239c0,0,0,174,94,277c0,0,94,104,221,104c0,0,106,0,184,-87c0,0,78,-87,84,-257H259c0,0,7,-139,74,-220c0,0,51,-62,124,-62c0,0,45,0,81,25c0,0,37,25,79,90l25,-16C642,192,585,76,517,28c0,0,-69,-48,-159,-48Z" 
id="f0_21"
transform="scale(0.001,-0.001)" />

<path d="M397,69c0,0,65,0,123,103V539c0,0,-55,105,-134,105c0,0,-28,0,-46,-15c0,0,-27,-23,-45,-81c0,0,-17,-58,-17,-178c0,0,0,-132,19,-195c0,0,19,-63,53,-91c0,0,17,-15,47,-15ZM332,-20c0,0,-133,0,-211,119c0,0,-62,97,-62,238c0,0,0,112,38,202c0,0,39,89,107,134c0,0,67,46,145,46c0,0,50,0,88,-20c0,0,39,-19,83,-67V842c0,0,0,80,-7,96c0,0,-8,22,-26,32c0,0,-18,11,-68,11v31H729V209c0,0,0,-81,5,-96c0,0,6,-25,22,-36c0,0,17,-12,58,-15V37L520,-20V90C520,90,467,26,426,3c0,0,-42,-23,-94,-23Z" 
id="f0_20"
transform="scale(0.001,-0.001)" />

<path d="M29,0V27H63c0,0,44,0,71,16c0,0,19,11,30,36c0,0,8,18,8,94V839c0,0,0,69,-4,84c0,0,-7,27,-27,41c0,0,-29,21,-78,21H29v27H877V713H850c0,0,-22,109,-61,157c0,0,-39,48,-111,70c0,0,-42,13,-158,13H416V542h20c0,0,97,0,140,60c0,0,44,60,56,178h27V251H632c0,0,-9,87,-38,142c0,0,-29,55,-67,74c0,0,-39,19,-111,19V201c0,0,0,-84,7,-103c0,0,7,-18,26,-30c0,0,20,-12,63,-12h60c0,0,142,0,228,65c0,0,86,66,123,201h28L905,0Z" 
id="f0_15"
transform="scale(0.001,-0.001)" />

<path d="M34,0V26c0,0,51,0,93,28c0,0,42,28,123,147l58,85L188,509c0,0,-59,109,-88,133c0,0,-29,25,-65,28v27H419V669L362,656c0,0,-6,-6,-6,-18c0,0,0,-11,4,-23c0,0,2,-5,20,-40L435,473l27,41c0,0,60,82,60,115c0,0,0,15,-13,26c0,0,-13,11,-47,15v27H710V670c0,0,-46,-2,-85,-28c0,0,-40,-27,-89,-103L460,427L584,198c0,0,62,-121,99,-153c0,0,20,-17,55,-19V0H349V26c0,0,46,4,57,12c0,0,11,9,11,23c0,0,0,21,-24,66L332,240L281,165c0,0,-35,-52,-39,-62c0,0,-6,-14,-6,-25c0,0,0,-17,7,-29c0,0,7,-11,19,-17c0,0,13,-6,45,-6V0Z" 
id="f0_2k"
transform="scale(0.001,-0.001)" />

<path d="M350,115c0,0,37,0,86,42V391c0,0,-90,-53,-134,-113c0,0,-29,-41,-29,-82c0,0,0,-34,24,-60c0,0,19,-21,53,-21ZM207,-9c0,0,-59,0,-99,38c0,0,-40,40,-40,99c0,0,0,80,69,143c0,0,69,64,299,170v70c0,0,0,79,-8,100c0,0,-9,20,-33,36c0,0,-23,15,-53,15c0,0,-49,0,-80,-22c0,0,-19,-13,-19,-31c0,0,0,-16,21,-39c0,0,28,-32,28,-62c0,0,0,-36,-27,-62c0,0,-27,-26,-71,-26c0,0,-47,0,-79,29c0,0,-32,28,-32,66c0,0,0,54,43,103c0,0,42,48,118,75c0,0,76,26,158,26c0,0,99,0,157,-42c0,0,58,-43,75,-92c0,0,11,-31,11,-144V170c0,0,0,-47,3,-60c0,0,4,-12,11,-18c0,0,8,-6,18,-6c0,0,19,0,39,28L738,96c0,0,-37,-56,-77,-81c0,0,-40,-24,-90,-24c0,0,-60,0,-94,27c0,0,-33,28,-41,85C436,103,309,-9,207,-9Z" 
id="f0_1x"
transform="scale(0.001,-0.001)" />

<path d="M56,0V26c0,0,44,5,63,29c0,0,13,16,13,97V546c0,0,0,79,-15,98c0,0,-14,20,-61,26v27H341V606c0,0,57,63,106,88c0,0,49,25,108,25c0,0,67,0,112,-32c0,0,46,-31,71,-95c0,0,59,67,114,97c0,0,55,30,115,30c0,0,72,0,115,-34c0,0,43,-33,60,-84c0,0,16,-51,16,-163V152c0,0,0,-81,15,-100c0,0,14,-20,61,-26V0H873V26c0,0,42,4,63,33c0,0,13,20,13,93V452c0,0,0,93,-7,119c0,0,-8,25,-24,38c0,0,-16,12,-37,12c0,0,-32,0,-65,-24c0,0,-33,-23,-66,-70V152c0,0,0,-76,12,-95c0,0,17,-28,66,-31V0H466V26c0,0,29,2,46,15c0,0,17,13,23,31c0,0,5,18,5,80V452c0,0,0,95,-7,119c0,0,-8,24,-25,37c0,0,-18,14,-38,14c0,0,-30,0,-54,-16c0,0,-35,-23,-75,-79V152c0,0,0,-74,14,-98c0,0,15,-23,61,-28V0Z" 
id="f0_29"
transform="scale(0.001,-0.001)" />

<path d="M459,56c0,0,40,0,66,42c0,0,39,63,39,239c0,0,0,180,-42,247c0,0,-29,44,-76,44c0,0,-76,0,-124,-109V147c0,0,64,-91,137,-91ZM29,-326v28c0,0,46,1,69,26c0,0,14,17,14,89V551c0,0,0,75,-17,95c0,0,-17,21,-66,24v27H322V605c0,0,36,54,74,78c0,0,55,36,119,36c0,0,77,0,140,-49c0,0,63,-48,95,-134c0,0,33,-85,33,-184c0,0,0,-106,-34,-193c0,0,-34,-88,-98,-134c0,0,-65,-45,-144,-45c0,0,-57,0,-107,25c0,0,-37,19,-78,66V-188c0,0,0,-53,8,-73c0,0,9,-19,27,-28c0,0,18,-9,70,-9v-28Z" 
id="f0_2c"
transform="scale(0.001,-0.001)" />

<path d="M312,-20c0,0,-50,0,-134,30c0,0,-22,9,-30,9c0,0,-25,0,-41,-37H82L70,232H97c0,0,33,-99,91,-148c0,0,59,-49,111,-49c0,0,35,0,58,22c0,0,22,22,22,54c0,0,0,35,-22,61c0,0,-22,27,-100,80c0,0,-114,79,-147,120c0,0,-49,62,-49,136c0,0,0,80,55,145c0,0,56,66,161,66c0,0,56,0,109,-28c0,0,20,-11,33,-11c0,0,13,0,21,5c0,0,9,6,27,32h26L504,479H477c0,0,-45,106,-94,145c0,0,-48,39,-96,39c0,0,-31,0,-52,-21c0,0,-22,-20,-22,-47c0,0,0,-20,15,-39c0,0,24,-30,133,-105c0,0,110,-74,144,-126c0,0,35,-52,35,-116c0,0,0,-58,-29,-114C511,95,482,39,429,9c0,0,-53,-29,-117,-29Z" 
id="f0_2f"
transform="scale(0.001,-0.001)" />

<path d="M37,274V428H473V274Z" 
id="f0_h"
transform="scale(0.001,-0.001)" />

<path d="M404,381V781L110,381ZM404,0V227H38V381l480,652h91V381h93V227H609V0Z" 
id="f0_o"
transform="scale(0.001,-0.001)" />

<path d="M254,-18c0,0,-51,0,-88,36c0,0,-36,36,-36,87c0,0,0,52,36,88c0,0,37,37,88,37c0,0,53,0,89,-37c0,0,36,-36,36,-88c0,0,0,-51,-36,-87c0,0,-37,-36,-89,-36Zm2,488c0,0,-52,0,-88,36c0,0,-36,37,-36,88c0,0,0,51,36,88c0,0,36,36,88,36c0,0,51,0,87,-36c0,0,36,-37,36,-88c0,0,0,-51,-36,-88c0,0,-36,-36,-87,-36Z" 
id="f0_u"
transform="scale(0.001,-0.001)" />

<path d="M485,53c0,0,135,0,206,61c0,0,71,60,71,150c0,0,0,59,-32,114c0,0,-33,54,-105,85c0,0,-72,32,-179,32c0,0,-46,0,-79,-2c0,0,-33,-1,-53,-5V73c0,0,86,-20,171,-20ZM455,547c0,0,109,0,164,23c0,0,55,24,84,72c0,0,29,49,29,106c0,0,0,89,-72,151c0,0,-73,63,-212,63c0,0,-74,0,-134,-16V557c0,0,27,-5,63,-8c0,0,35,-2,78,-2ZM24,0V27H63c0,0,63,0,91,41c0,0,17,26,17,111V833c0,0,0,94,-22,119c0,0,-29,33,-86,33H24v27H462c0,0,122,0,196,-18c0,0,112,-27,171,-95c0,0,59,-68,59,-157c0,0,0,-76,-46,-136c0,0,-47,-60,-137,-89c0,0,105,-23,157,-72c0,0,73,-69,73,-168c0,0,0,-75,-48,-145C887,132,839,63,756,32C756,32,673,0,502,0Z" 
id="f1_12"
transform="scale(0.001,-0.001)" />

<path d="M286,72c0,0,57,0,149,75V407c0,0,-113,-45,-145,-64c0,0,-59,-32,-85,-68c0,0,-25,-36,-25,-78c0,0,0,-54,32,-89c0,0,32,-36,74,-36ZM217,-13c0,0,-71,0,-116,48c0,0,-46,48,-46,127c0,0,0,50,22,87c0,0,31,50,106,95c0,0,76,45,252,109v26c0,0,0,102,-32,140c0,0,-32,38,-94,38c0,0,-47,0,-74,-25c0,0,-28,-25,-28,-58l1,-43c0,0,0,-34,-17,-53c0,0,-18,-18,-47,-18c0,0,-28,0,-45,19c0,0,-18,19,-18,53c0,0,0,64,66,117c0,0,65,54,184,54c0,0,91,0,149,-31c0,0,44,-23,65,-72c0,0,13,-32,13,-131V238c0,0,0,-98,4,-120c0,0,4,-22,12,-29c0,0,9,-8,20,-8c0,0,12,0,21,5c0,0,16,10,61,55V99C676,99,592,-12,516,-12c0,0,-37,0,-58,24c0,0,-22,26,-23,86C435,98,330,17,303,5c0,0,-40,-18,-86,-18Z" 
id="f1_1x"
transform="scale(0.001,-0.001)" />

<path d="M58,0V26c0,0,47,0,64,10c0,0,18,10,28,32c0,0,9,23,9,86V775c0,0,0,116,-5,142c0,0,-5,27,-17,37c0,0,-11,9,-29,9c0,0,-20,0,-49,-12L46,978l204,83h34V154c0,0,0,-64,9,-85c0,0,9,-21,29,-32c0,0,19,-11,72,-11V0Z" 
id="f1_28"
transform="scale(0.001,-0.001)" />

<path d="M21,0V26H35c0,0,53,0,71,27c0,0,18,27,18,101V408c0,0,0,123,-5,150c0,0,-6,27,-17,37c0,0,-12,10,-31,10c0,0,-21,0,-50,-11L10,620l206,83h32V558c0,0,120,145,229,145c0,0,56,0,96,-28c0,0,40,-28,64,-92c0,0,16,-45,16,-137V154c0,0,0,-65,11,-88c0,0,8,-19,26,-29c0,0,18,-11,68,-11V0H419V26h14c0,0,47,0,66,15c0,0,20,15,27,43c0,0,3,11,3,70V434c0,0,0,93,-24,135c0,0,-24,42,-81,42c0,0,-88,0,-176,-97V154c0,0,0,-69,9,-86c0,0,10,-21,28,-31c0,0,19,-11,75,-11V0Z" 
id="f1_2a"
transform="scale(0.001,-0.001)" />

<path d="M342,-20c0,0,-116,0,-203,97c0,0,-86,98,-86,264c0,0,0,161,96,261c0,0,95,101,230,101c0,0,100,0,165,-53c0,0,65,-54,65,-111c0,0,0,-29,-18,-46c0,0,-18,-18,-51,-18c0,0,-44,0,-66,29c0,0,-13,15,-17,59c0,0,-4,45,-30,68c0,0,-26,22,-73,22c0,0,-74,0,-120,-55c0,0,-60,-73,-60,-193c0,0,0,-122,60,-216c0,0,60,-93,162,-93c0,0,73,0,131,49c0,0,41,35,80,126l22,-10C629,261,601,125,521,52c0,0,-81,-72,-179,-72Z" 
id="f1_1z"
transform="scale(0.001,-0.001)" />

<path d="M479,469c0,0,-4,66,-16,93c0,0,-18,42,-55,65c0,0,-37,24,-78,24c0,0,-62,0,-111,-48c0,0,-48,-48,-57,-134ZM355,-20c0,0,-123,0,-211,95c0,0,-87,96,-87,258c0,0,0,175,90,273c0,0,89,98,225,98c0,0,115,0,189,-76c0,0,74,-75,74,-202H162c0,0,0,-152,74,-239c0,0,75,-86,175,-86c0,0,67,0,117,36c0,0,50,37,83,127l24,-15c0,0,-16,-102,-91,-186c0,0,-76,-83,-189,-83Z" 
id="f1_21"
transform="scale(0.001,-0.001)" />

<path d="M255,-10c0,0,-35,0,-68,18c0,0,-32,19,-48,55c0,0,-16,35,-16,109V632H15v24c0,0,41,16,84,56c0,0,43,39,77,92c0,0,17,29,48,104h23V683H407V632H247V188c0,0,0,-66,19,-90c0,0,19,-23,49,-23c0,0,24,0,47,16c0,0,23,15,36,45h29c0,0,-26,-73,-74,-110c0,0,-47,-36,-98,-36Z" 
id="f1_2g"
transform="scale(0.001,-0.001)" />

<path d="M20,0V26c0,0,45,0,71,15c0,0,15,7,24,28c0,0,9,21,9,85V773c0,0,0,117,-5,144c0,0,-6,27,-17,37c0,0,-12,9,-31,9c0,0,-16,0,-51,-12L10,978l204,83h34V561c0,0,83,91,131,116c0,0,49,26,97,26c0,0,58,0,100,-32c0,0,42,-32,62,-101c0,0,14,-47,14,-174V154c0,0,0,-65,11,-89c0,0,7,-18,25,-28c0,0,18,-11,66,-11V0H418V26h15c0,0,48,0,67,15c0,0,18,15,26,43c0,0,2,12,2,70V396c0,0,0,112,-12,147c0,0,-11,35,-36,53c0,0,-26,17,-61,17c0,0,-37,0,-76,-19c0,0,-40,-20,-95,-79V154c0,0,0,-70,8,-87c0,0,8,-17,29,-29c0,0,22,-12,74,-12V0Z" 
id="f1_24"
transform="scale(0.001,-0.001)" />

<path d="M63,0V26H93c0,0,30,0,54,15c0,0,25,15,34,41c0,0,10,25,10,99V630H58v53H191v45c0,0,0,102,33,173c0,0,32,71,100,114c0,0,68,44,152,44c0,0,79,0,145,-51c0,0,43,-33,43,-75c0,0,0,-22,-19,-42c0,0,-20,-20,-42,-20c0,0,-17,0,-36,12c0,0,-19,13,-47,53c0,0,-28,41,-51,55c0,0,-23,14,-51,14c0,0,-35,0,-58,-18c0,0,-24,-18,-35,-57c0,0,-10,-38,-10,-197V683H491V630H315V181c0,0,0,-96,21,-122c0,0,27,-33,73,-33h62V0Z" 
id="f1_22"
transform="scale(0.001,-0.001)" />

<path d="M406,32c0,0,72,0,119,60c0,0,47,59,47,205c0,0,0,181,-78,286c0,0,-53,71,-135,71c0,0,-40,0,-79,-23c0,0,-40,-24,-65,-83c0,0,-24,-58,-24,-151c0,0,0,-149,59,-257c0,0,59,-108,156,-108ZM374,-20c0,0,-154,0,-245,122c0,0,-77,104,-77,233c0,0,0,94,46,187c0,0,47,92,123,137c0,0,76,44,161,44c0,0,155,0,249,-118c0,0,80,-100,80,-231c0,0,0,-91,-44,-185C667,169,623,75,546,27c0,0,-77,-47,-172,-47Z" 
id="f1_2b"
transform="scale(0.001,-0.001)" />

<path d="M336,-20L117,554c0,0,-21,55,-42,74c0,0,-21,19,-66,29v26H296V657c0,0,-40,-3,-52,-14c0,0,-13,-12,-13,-33c0,0,0,-23,13,-56L390,162L537,481L498,581c0,0,-18,46,-47,63c0,0,-17,11,-61,13v26H716V657c0,0,-54,-2,-77,-20c0,0,-15,-12,-15,-39c0,0,0,-15,6,-30L785,177L929,554c0,0,15,40,15,65c0,0,0,14,-15,25c0,0,-14,12,-57,13v26h216V657c0,0,-65,-10,-95,-89L764,-20H733L563,415L363,-20Z" 
id="f1_2j"
transform="scale(0.001,-0.001)" />

<path d="M55,0V26c0,0,50,0,67,10c0,0,17,10,27,32c0,0,10,23,10,86V418c0,0,0,111,-6,144c0,0,-6,24,-17,33c0,0,-11,10,-30,10c0,0,-21,0,-51,-11L45,620l206,83h33V154c0,0,0,-64,9,-85c0,0,9,-22,27,-32c0,0,19,-11,67,-11V0ZM222,909c0,0,-32,0,-54,23c0,0,-22,22,-22,53c0,0,0,32,22,54c0,0,22,22,54,22c0,0,31,0,53,-22c0,0,22,-22,22,-54c0,0,0,-31,-22,-53c0,0,-22,-23,-53,-23Z" 
id="f1_25"
transform="scale(0.001,-0.001)" />

<path d="M411,-239c0,0,134,0,198,48c0,0,64,47,64,100c0,0,0,39,-38,55c0,0,-39,16,-154,19c0,0,-167,5,-258,17c0,0,-35,-37,-53,-70c0,0,-17,-32,-17,-60c0,0,0,-36,43,-62c0,0,74,-47,215,-47ZM380,257c0,0,56,0,93,43c0,0,36,42,36,133c0,0,0,118,-51,185c0,0,-38,49,-98,49c0,0,-55,0,-92,-44c0,0,-37,-44,-37,-135c0,0,0,-117,50,-182c0,0,39,-49,99,-49ZM345,-328c0,0,-144,0,-243,64c0,0,-56,38,-56,78c0,0,0,18,8,36c0,0,13,27,52,76c0,0,5,7,76,80c0,0,-39,23,-55,41c0,0,-16,19,-16,42c0,0,0,26,22,61c0,0,21,35,98,100c0,0,-63,30,-97,85c0,0,-33,55,-33,121c0,0,0,101,76,174c0,0,77,73,196,73c0,0,98,0,170,-48H688c0,0,32,0,37,-2c0,0,6,-2,8,-6c0,0,4,-7,4,-24c0,0,0,-20,-4,-27c0,0,-2,-4,-7,-6c0,0,-6,-2,-38,-2H599c0,0,41,-54,41,-137c0,0,0,-96,-73,-163c0,0,-73,-68,-196,-68c0,0,-51,0,-104,15c0,0,-33,-28,-44,-49c0,0,-12,-22,-12,-37c0,0,0,-12,13,-24c0,0,12,-12,48,-17c0,0,21,-4,104,-6c0,0,154,-4,199,-11c0,0,70,-10,111,-51c0,0,42,-41,42,-102c0,0,0,-84,-79,-158c0,0,-117,-108,-304,-108Z" 
id="f1_23"
transform="scale(0.001,-0.001)" />

<path d="M17,0V26c0,0,52,0,77,17c0,0,19,12,26,38c0,0,4,13,4,73V419c0,0,0,119,-5,142c0,0,-4,23,-17,33c0,0,-13,11,-33,11c0,0,-23,0,-52,-11l-7,26l207,83h31V549c0,0,86,154,176,154c0,0,41,0,68,-25c0,0,27,-25,27,-58c0,0,0,-29,-20,-49c0,0,-19,-20,-46,-20c0,0,-26,0,-58,25c0,0,-33,26,-48,26c0,0,-14,0,-29,-15c0,0,-34,-30,-70,-101V159c0,0,0,-56,15,-85c0,0,9,-20,34,-34c0,0,24,-14,71,-14V0Z" 
id="f1_2e"
transform="scale(0.001,-0.001)" />

<path d="M399,62c0,0,68,0,131,68V481c0,0,-5,51,-27,93c0,0,-22,42,-59,63c0,0,-37,21,-72,21c0,0,-65,0,-117,-59c0,0,-67,-77,-67,-226c0,0,0,-151,65,-231c0,0,66,-80,146,-80ZM330,-20c0,0,-112,0,-196,93c0,0,-83,94,-83,240c0,0,0,147,92,269c0,0,93,122,238,122c0,0,90,0,149,-58V773c0,0,0,117,-6,144c0,0,-5,27,-17,37c0,0,-12,9,-30,9c0,0,-20,0,-52,-12l-9,27l204,83h33V270c0,0,0,-120,6,-146c0,0,5,-27,18,-37c0,0,12,-11,28,-11c0,0,21,0,54,13l9,-26L564,-20H530V78C530,78,480,25,432,2c0,0,-47,-22,-102,-22Z" 
id="f1_20"
transform="scale(0.001,-0.001)" />

<path d="M25,0V26c0,0,27,4,47,19c0,0,29,22,96,111L311,346L182,535c0,0,-55,81,-86,102c0,0,-30,20,-75,20v26H341V657c0,0,-30,0,-42,-10c0,0,-13,-11,-13,-28c0,0,0,-19,27,-56c0,0,8,-12,25,-37l48,-78l56,77c0,0,55,74,55,94c0,0,0,16,0,27c0,0,0,11,0,11v26H674V657c0,0,-37,-2,-64,-20c0,0,-37,-26,-100,-111L416,402L587,156c0,0,63,-91,89,-109c0,0,27,-18,70,-21V0H423V26c0,0,34,0,53,15c0,0,14,11,14,28c0,0,0,17,-48,87L341,302L232,157c0,0,-50,-69,-50,-82c0,0,0,-18,17,-32c0,0,17,-15,50,-17V0Z" 
id="f1_2k"
transform="scale(0.001,-0.001)" />

<path d="M397,34c0,0,67,0,126,75c0,0,58,74,58,216c0,0,0,131,-58,201c0,0,-59,70,-133,70c0,0,-39,0,-79,-20c0,0,-29,-14,-75,-59V109c0,0,37,-37,78,-56c0,0,40,-19,83,-19ZM358,-20c0,0,-59,0,-121,21c0,0,-61,22,-126,65V773c0,0,0,117,-5,144c0,0,-6,27,-18,37c0,0,-12,9,-29,9c0,0,-21,0,-53,-12l-9,27l205,83h34V564c0,0,98,139,213,139c0,0,105,0,183,-90c0,0,78,-90,78,-245c0,0,0,-182,-121,-293c0,0,-103,-95,-231,-95Z" 
id="f1_1y"
transform="scale(0.001,-0.001)" />

<path d="M312,-20c0,0,-62,0,-143,22c0,0,-25,8,-40,8c0,0,-18,0,-27,-19H77V234h25c0,0,21,-105,80,-158c0,0,59,-53,132,-53c0,0,51,0,84,31c0,0,32,30,32,72c0,0,0,52,-36,87c0,0,-36,35,-144,88c0,0,-109,54,-142,97c0,0,-34,43,-34,107c0,0,0,85,58,141c0,0,58,57,150,57c0,0,40,0,97,-17c0,0,38,-11,51,-11c0,0,12,0,19,5c0,0,7,5,15,23h25V470H464c0,0,-28,110,-72,149c0,0,-45,40,-113,40c0,0,-53,0,-85,-28c0,0,-32,-27,-32,-61c0,0,0,-41,24,-71c0,0,23,-31,94,-65L389,381c0,0,152,-74,152,-194c0,0,0,-94,-71,-151c0,0,-70,-56,-158,-56Z" 
id="f1_2f"
transform="scale(0.001,-0.001)" />

<path d="M23,0V26c0,0,47,0,66,10c0,0,19,11,28,33c0,0,10,22,10,85V416c0,0,0,112,-7,145c0,0,-5,25,-16,34c0,0,-11,10,-31,10c0,0,-21,0,-50,-11L12,620l207,83h32V557c0,0,75,75,88,86c0,0,34,29,72,44c0,0,39,16,77,16c0,0,64,0,110,-37c0,0,47,-38,62,-109c0,0,77,90,130,118c0,0,53,28,109,28c0,0,54,0,96,-28c0,0,42,-28,67,-91c0,0,16,-43,16,-136V154c0,0,0,-64,10,-88c0,0,8,-16,28,-28c0,0,20,-12,65,-12V0H844V26h14c0,0,44,0,69,18c0,0,17,12,24,38c0,0,3,13,3,72V448c0,0,0,83,-20,117c0,0,-29,48,-93,48c0,0,-39,0,-79,-20c0,0,-40,-19,-97,-73l-1,-8l2,-32V154c0,0,0,-70,8,-87c0,0,7,-17,29,-29c0,0,21,-12,73,-12V0H431V26c0,0,57,0,78,14c0,0,21,13,29,40c0,0,4,13,4,74V448c0,0,0,83,-25,120c0,0,-33,48,-91,48c0,0,-40,0,-80,-22c0,0,-61,-33,-95,-74V154c0,0,0,-67,10,-87c0,0,9,-20,27,-30c0,0,18,-11,74,-11V0Z" 
id="f1_29"
transform="scale(0.001,-0.001)" />

<path d="M292,-20c0,0,-57,0,-100,33c0,0,-42,33,-58,85c0,0,-17,52,-17,148V551c0,0,0,49,-10,68c0,0,-11,18,-31,29c0,0,-19,9,-68,9c-2,0,-4,0,-6,0v26H242V226c0,0,0,-95,33,-125c0,0,33,-30,80,-30c0,0,32,0,73,21c0,0,40,20,96,76V555c0,0,0,59,-21,80c0,0,-22,21,-89,22v26H647V269c0,0,0,-119,6,-145c0,0,6,-27,18,-37c0,0,12,-11,29,-11c0,0,23,0,52,13L763,63L558,-20H524V124C524,124,436,29,390,4c0,0,-47,-24,-98,-24Z" 
id="f1_2h"
transform="scale(0.001,-0.001)" />

<path d="M213,-20c0,0,-34,0,-58,24c0,0,-24,24,-24,58c0,0,0,34,24,58c0,0,24,25,58,25c0,0,35,0,59,-25c0,0,24,-24,24,-58c0,0,0,-34,-24,-58c0,0,-25,-24,-59,-24Zm3,559c0,0,-35,0,-59,24c0,0,-24,24,-24,58c0,0,0,35,24,59c0,0,24,24,59,24c0,0,34,0,58,-24c0,0,24,-24,24,-59c0,0,0,-34,-24,-58c0,0,-24,-24,-58,-24Z" 
id="f1_u"
transform="scale(0.001,-0.001)" />

<path d="M33,0V27c0,0,264,241,371,393c0,0,108,152,108,278c0,0,0,96,-59,158c0,0,-59,62,-141,62c0,0,-75,0,-134,-43c0,0,-59,-44,-88,-128H63c0,0,18,138,95,212c0,0,77,74,193,74c0,0,123,0,205,-80c0,0,83,-79,83,-186c0,0,0,-77,-36,-154c0,0,-55,-121,-179,-256C424,357,238,154,191,112H455c0,0,81,0,114,6c0,0,32,6,58,25c0,0,27,18,46,52h27L630,0Z" 
id="f1_m"
transform="scale(0.001,-0.001)" />

<path d="M452,373V875L97,373ZM452,0V267H23v95l470,671h82V373H711V267H575V0Z" 
id="f1_o"
transform="scale(0.001,-0.001)" />

<path d="M548,-21c0,0,-251,0,-389,185C159,164,56,303,56,490c0,0,0,152,68,278c0,0,67,127,186,197c0,0,119,69,260,69c0,0,109,0,216,-53c0,0,31,-17,44,-17c0,0,20,0,35,14c0,0,20,21,28,56h26L943,690H919c0,0,-46,155,-131,224c0,0,-86,68,-206,68c0,0,-100,0,-181,-51c0,0,-81,-52,-128,-163c0,0,-46,-112,-46,-279c0,0,0,-137,44,-238c0,0,44,-101,132,-154c0,0,88,-54,201,-54c0,0,99,0,174,42c0,0,75,42,165,167l23,-14C966,238,890,103,789,40c0,0,-102,-61,-241,-61Z" 
id="f1_13"
transform="scale(0.001,-0.001)" />

<path d="M545,30c0,0,143,0,236,111c0,0,93,111,93,351c0,0,0,259,-103,386c0,0,-82,102,-226,102c0,0,-136,0,-218,-101C327,879,225,754,225,512c0,0,0,-247,106,-380c0,0,81,-102,214,-102Zm2,-51c0,0,-209,0,-351,147C196,126,54,274,54,510c0,0,0,240,164,393c0,0,142,131,341,131c0,0,197,0,341,-149c0,0,145,-149,145,-373c0,0,0,-230,-146,-382C899,130,754,-21,547,-21Z" 
id="f1_1f"
transform="scale(0.001,-0.001)" />

<path d="M26,0V27H62c0,0,63,0,91,37c0,0,18,24,18,115V833c0,0,0,77,-10,102c0,0,-7,18,-30,32c0,0,-33,18,-69,18H26v27H459V985H422c0,0,-35,0,-67,-17c0,0,-23,-12,-32,-36c0,0,-9,-25,-9,-99V542H784V833c0,0,0,77,-10,102c0,0,-8,18,-31,32c0,0,-33,18,-68,18H639v27h432V985h-36c0,0,-36,0,-68,-17c0,0,-24,-12,-32,-36c0,0,-9,-25,-9,-99V179c0,0,0,-77,10,-102c0,0,7,-18,31,-32c0,0,32,-18,68,-18h36V0H639V27h36c0,0,62,0,90,37c0,0,19,24,19,115V487H314V179c0,0,0,-77,9,-102c0,0,8,-18,32,-32c0,0,32,-18,67,-18h37V0Z" 
id="f1_18"
transform="scale(0.001,-0.001)" />

<path d="M0,356v74H784V356Z" 
id="f2_h"
transform="scale(0.001,-0.001)" />

<path d="M355,0V355H0v72H355V784h72V427H782V355H427V0Z" 
id="f2_f"
transform="scale(0.001,-0.001)" />

<path d="M0,334v73H1700V334Z" 
id="f2_3k"
transform="scale(0.001,-0.001)" />

<path d="M968,-20c0,0,42,100,87,170c0,0,45,70,144,184H56v73H1199c0,0,-106,122,-148,189c0,0,-43,67,-83,166h60c0,0,87,-108,217,-218c0,0,130,-110,206,-154V349c0,0,-99,-56,-217,-159c0,0,-117,-102,-206,-210Z" 
id="f2_34"
transform="scale(0.001,-0.001)" />

<path d="M191,-18c0,0,-51,0,-87,36c0,0,-37,36,-37,87c0,0,0,52,37,88c0,0,36,37,87,37c0,0,52,0,89,-37c0,0,36,-36,36,-88c0,0,0,-51,-37,-87c0,0,-36,-36,-88,-36Z" 
id="f0_i"
transform="scale(0.001,-0.001)" />

<path d="M145,-328c0,0,-44,0,-73,25c0,0,-28,25,-28,58c0,0,0,31,21,50c0,0,20,19,56,19c0,0,25,0,67,-16c0,0,30,-11,38,-11c0,0,22,0,49,23c0,0,26,23,53,89L376,28L131,542c0,0,-11,24,-36,58c0,0,-19,27,-30,36c0,0,-18,12,-56,21v26H328V657H312c0,0,-33,0,-50,-15c0,0,-17,-14,-17,-36c0,0,0,-30,25,-81L437,179L589,557c0,0,12,31,12,62c0,0,0,13,-5,20c0,0,-6,8,-19,13c0,0,-12,5,-44,5v26H754V657c0,0,-27,-3,-42,-12c0,0,-15,-9,-33,-34c0,0,-7,-10,-25,-58L376,-128c0,0,-40,-99,-105,-150c0,0,-66,-50,-126,-50Z" 
id="f1_2l"
transform="scale(0.001,-0.001)" />

<path d="M398,24c0,0,74,0,120,58c0,0,61,76,61,214c0,0,0,156,-69,240c0,0,-47,59,-113,59c0,0,-36,0,-71,-18c0,0,-27,-14,-88,-81V242c0,0,0,-83,6,-109c0,0,11,-43,51,-76c0,0,41,-33,103,-33ZM-4,-326v27H15c5,0,42,0,69,16c0,0,14,8,22,26c0,0,7,19,7,94V481c0,0,0,67,-6,85c0,0,-5,18,-18,27c0,0,-13,9,-36,9c0,0,-18,0,-45,-10L0,615l209,85h29V540c0,0,53,91,106,127c0,0,53,36,112,36c0,0,103,0,172,-80c0,0,84,-99,84,-257c0,0,0,-176,-102,-292c0,0,-83,-94,-210,-94c0,0,-55,0,-95,16c0,0,-30,10,-67,44V-167c0,0,0,-71,8,-90c0,0,9,-20,30,-31c0,0,21,-11,77,-11v-27Z" 
id="f1_2c"
transform="scale(0.001,-0.001)" />

<path d="M553,-21L174,849c0,0,-29,67,-41,82c0,0,-19,24,-46,37c0,0,-27,13,-73,17v27H427V985c0,0,-70,-7,-91,-24c0,0,-21,-17,-21,-44c0,0,0,-38,34,-117L607,207L846,793c0,0,35,86,35,120c0,0,0,22,-22,41c0,0,-21,20,-73,28c0,0,-4,1,-13,3v27h311V985c0,0,-53,-10,-81,-35c0,0,-39,-37,-70,-112L581,-21Z" 
id="f1_1m"
transform="scale(0.001,-0.001)" />

<path d="M82,-253v33c0,0,77,25,119,78c0,0,42,54,42,114c0,0,0,14,-7,23c0,0,-5,6,-11,6c0,0,-8,0,-35,-14c0,0,-14,-7,-28,-7c0,0,-37,0,-58,21C104,1,82,23,82,61c0,0,0,36,28,62c0,0,28,27,68,27c0,0,49,0,88,-43c0,0,38,-43,38,-113c0,0,0,-77,-53,-143c0,0,-53,-66,-169,-104Z" 
id="f1_g"
transform="scale(0.001,-0.001)" />

<path d="M911,-16L244,799V175c0,0,0,-93,21,-116c0,0,28,-32,86,-32h36V0H36V27H71c0,0,65,0,92,39c0,0,16,24,16,109V879c0,0,-44,52,-67,68c0,0,-23,17,-67,31c0,0,-21,7,-64,7v27H253L873,253V837c0,0,0,93,-21,116c0,0,-28,32,-87,32H730v27h351V985h-36c0,0,-64,0,-91,-39c0,0,-16,-24,-16,-109V-16Z" 
id="f1_1e"
transform="scale(0.001,-0.001)" />

<path d="M376,-20L133,556c0,0,-17,41,-31,58c0,0,-15,18,-39,30c0,0,-12,7,-50,13v26H335V657H314c0,0,-29,0,-44,-14c0,0,-16,-14,-15,-38c0,0,-1,-26,15,-62L429,165L588,557c0,0,17,42,17,64c0,0,0,10,-6,17c0,0,-8,11,-21,15c0,0,-13,4,-52,4v26H750V657c0,0,-39,-3,-54,-16c0,0,-26,-23,-47,-76L409,-20Z" 
id="f1_2i"
transform="scale(0.001,-0.001)" />

<path d="M38,0V27H74c0,0,63,0,91,37c0,0,18,24,18,115V833c0,0,0,77,-10,102c0,0,-7,18,-30,32c0,0,-33,18,-69,18H38v27H470V985H434c0,0,-62,0,-90,-37c0,0,-18,-24,-18,-115V179c0,0,0,-77,9,-102c0,0,8,-18,31,-32c0,0,32,-18,68,-18h36V0Z" 
id="f1_19"
transform="scale(0.001,-0.001)" />

<path d="M268,648c0,0,-51,0,-91,43c0,0,-39,42,-39,105c0,0,0,88,66,160c0,0,44,48,127,78v-32c0,0,-77,-46,-104,-85c0,0,-21,-30,-21,-69c0,0,0,-24,9,-35c0,0,9,-11,20,-11c0,0,7,0,21,5c0,0,20,7,33,7c0,0,30,0,53,-23c0,0,24,-22,24,-56c0,0,0,-38,-23,-58c0,0,-33,-29,-75,-29Z" 
id="f1_52"
transform="scale(0.001,-0.001)" />

<path d="M177,647v35c0,0,77,46,105,86c0,0,19,28,19,68c0,0,0,23,-8,34c0,0,-9,11,-19,11c0,0,-9,0,-22,-5c0,0,-19,-7,-32,-7c0,0,-30,0,-53,23c0,0,-23,22,-23,56c0,0,0,37,23,58c0,0,31,28,75,28c0,0,50,0,90,-42c0,0,40,-42,40,-105c0,0,0,-88,-67,-160c0,0,-44,-48,-128,-80Z" 
id="f1_53"
transform="scale(0.001,-0.001)" />

<path d="M191,-20c0,0,-34,0,-58,24c0,0,-24,24,-24,58c0,0,0,35,24,59c0,0,24,24,58,24c0,0,35,0,59,-24c0,0,24,-25,24,-59c0,0,0,-34,-24,-58c0,0,-25,-24,-59,-24Z" 
id="f1_i"
transform="scale(0.001,-0.001)" />

<path d="M120,-328V1061h62V-328Z" 
id="f1_2o"
transform="scale(0.001,-0.001)" />

<path d="M648,136c0,0,186,0,318,132c0,0,132,132,132,318c0,0,0,186,-132,318c0,0,-132,131,-318,131c0,0,-188,0,-319,-132C329,903,198,770,198,579c0,0,0,-181,133,-312c0,0,133,-131,317,-131ZM807,0C807,0,706,0,609,40L450,106c0,0,-146,60,-233,190c0,0,-88,131,-88,289c0,0,0,215,152,367c0,0,152,152,366,152c0,0,96,0,200,-40l159,-65c0,0,146,-61,233,-192c0,0,88,-130,88,-288c0,0,0,-215,-152,-367C1175,152,1023,0,807,0Z" 
id="f3_3m"
transform="scale(0.001,-0.001)" />

<path d="M-12,338v55H777V338Z" 
id="f1_4y"
transform="scale(0.001,-0.001)" />

<path d="M384,85c0,0,44,0,78,19c0,0,35,19,68,62V487c0,0,0,55,-15,87c0,0,-14,33,-51,55c0,0,-38,22,-85,22c0,0,-84,0,-143,-71c0,0,-60,-70,-60,-214c0,0,0,-138,61,-209c0,0,61,-72,147,-72Zm35,-411v27h15c0,0,41,0,63,12c0,0,15,8,24,30c0,0,9,21,9,83V119C530,119,462,39,411,9c0,0,-50,-29,-105,-29c0,0,-99,0,-177,90c0,0,-78,90,-78,241c0,0,0,174,103,283c0,0,103,109,248,109c0,0,43,0,78,-12c0,0,36,-12,65,-35c0,0,43,20,83,47h25V-174c0,0,0,-66,9,-85c0,0,9,-19,28,-30c0,0,19,-10,74,-10v-27Z" 
id="f1_2d"
transform="scale(0.001,-0.001)" />

<path d="M399,105V477H27v62H399V909h60V539H831V477H459V105Z" 
id="f1_f"
transform="scale(0.001,-0.001)" />

<path d="M474,-326c0,0,-112,57,-188,133c0,0,-107,108,-165,254c0,0,-58,147,-58,305c0,0,0,231,114,421c0,0,114,191,297,273v-31c0,0,-92,-51,-151,-139c0,0,-59,-88,-88,-223c0,0,-30,-135,-30,-281c0,0,0,-160,25,-290c0,0,20,-102,47,-164c0,0,28,-62,75,-120c0,0,47,-57,122,-109v-29Z" 
id="f1_c"
transform="scale(0.001,-0.001)" />

<path d="M35,-326v29c0,0,92,51,151,139c0,0,60,87,89,221c0,0,28,136,28,282c0,0,0,159,-24,290c0,0,-19,103,-47,165c0,0,-28,62,-75,119c0,0,-46,57,-122,110v31c0,0,113,-56,188,-132c0,0,107,-109,165,-255c0,0,58,-147,58,-306c0,0,0,-231,-114,-420c0,0,-113,-191,-297,-273Z" 
id="f1_d"
transform="scale(0.001,-0.001)" />

<path d="M610,-21c0,0,-162,0,-287,63c0,0,-126,65,-194,187c0,0,-68,121,-68,258c0,0,0,145,75,275c0,0,76,129,205,201c0,0,128,71,273,71c0,0,107,0,225,-46c0,0,69,-27,88,-27c0,0,24,0,41,18c0,0,18,17,23,55h29V683H991c0,0,-33,138,-122,211c0,0,-90,73,-203,73c0,0,-95,0,-174,-54c0,0,-79,-55,-116,-143c0,0,-47,-112,-47,-250c0,0,0,-135,34,-247c0,0,35,-111,108,-168c0,0,73,-57,189,-57c0,0,96,0,175,42c0,0,80,41,168,144V146c0,0,-85,-89,-178,-129c0,0,-92,-38,-215,-38Z" 
id="f0_13"
transform="scale(0.001,-0.001)" />

<path d="M52,0V26c0,0,44,5,62,29c0,0,13,16,13,97V546c0,0,0,79,-14,98c0,0,-15,20,-61,26v27H336V607c0,0,54,59,104,85c0,0,49,27,106,27c0,0,68,0,113,-38c0,0,44,-38,59,-94c0,0,12,-42,12,-163V152c0,0,0,-81,15,-101c0,0,14,-19,61,-25V0H452V26c0,0,40,6,57,33c0,0,12,19,12,93V462c0,0,0,86,-7,109c0,0,-6,22,-22,35c0,0,-16,12,-36,12c0,0,-64,0,-120,-92V152c0,0,0,-79,15,-100c0,0,15,-20,55,-26V0Z" 
id="f0_2a"
transform="scale(0.001,-0.001)" />

<path d="M365,-20c0,0,-139,0,-223,105c0,0,-83,105,-83,253c0,0,0,142,76,250c0,0,92,131,253,131c0,0,108,0,172,-55c0,0,63,-54,63,-121c0,0,0,-43,-25,-68c0,0,-26,-25,-68,-25c0,0,-44,0,-73,29c0,0,-28,29,-35,104c0,0,-5,47,-22,65c0,0,-17,19,-40,19c0,0,-36,0,-61,-38c0,0,-39,-58,-39,-176c0,0,0,-99,31,-188c0,0,32,-90,86,-134c0,0,41,-32,97,-32c0,0,36,0,69,17c0,0,33,17,78,65l23,-18C644,163,595,70,521,25c0,0,-73,-45,-156,-45Z" 
id="f0_1z"
transform="scale(0.001,-0.001)" />

<path d="M298,-9c0,0,-67,0,-113,36c0,0,-46,37,-58,83c0,0,-8,25,-8,137V624H28v26c0,0,94,66,161,139c0,0,66,73,115,163h25V697H494V624H329V193c0,0,0,-60,5,-78c0,0,6,-17,20,-28c0,0,14,-11,26,-11c0,0,48,0,92,75l22,-17C494,134,434,-9,298,-9Z" 
id="f0_2g"
transform="scale(0.001,-0.001)" />

<path d="M49,0V26c0,0,47,1,67,11c0,0,20,10,28,28c0,0,7,18,7,75l-1,484H49v73H150v87c0,0,0,107,79,179c0,0,78,71,212,71c0,0,92,0,136,-34c0,0,45,-34,45,-76c0,0,0,-34,-28,-58c0,0,-28,-25,-73,-25c0,0,-39,0,-62,20c0,0,-22,20,-22,45c0,0,0,6,4,27c0,0,3,13,3,24c0,0,0,16,-9,23c0,0,-12,11,-29,11c0,0,-21,0,-36,-17c0,0,-15,-18,-15,-58l1,-130V697H460V624H356l1,-484c0,0,0,-70,15,-88c0,0,22,-26,81,-26c2,0,5,0,7,0V0Z" 
id="f0_22"
transform="scale(0.001,-0.001)" />

<path d="M394,65c0,0,27,0,61,18c0,0,33,19,64,59V429c0,0,0,120,-13,159c0,0,-13,38,-47,67c0,0,-18,14,-45,14c0,0,-57,0,-88,-50c0,0,-48,-77,-48,-285c0,0,0,-161,42,-225c0,0,29,-44,74,-44Zm23,-391v28c0,0,45,0,66,10c0,0,21,11,28,28c0,0,8,17,8,70V73C519,73,474,26,434,6c0,0,-52,-26,-108,-26c0,0,-131,0,-207,117c0,0,-60,93,-60,223c0,0,0,108,45,203c0,0,46,95,126,145c0,0,80,51,170,51c0,0,59,0,106,-20c0,0,46,-21,80,-61l117,81h25V-184c0,0,0,-69,12,-86c0,0,20,-27,78,-28v-28Z" 
id="f0_2d"
transform="scale(0.001,-0.001)" />

<path d="M304,-20c0,0,-59,0,-105,36c0,0,-45,36,-61,84c0,0,-16,49,-16,169V546c0,0,0,79,-14,98c0,0,-15,20,-61,26v27H331V221c0,0,0,-74,8,-96c0,0,7,-21,22,-33c0,0,15,-11,35,-11c0,0,27,0,49,14c0,0,30,20,71,78V546c0,0,0,79,-14,98c0,0,-15,20,-61,26v27H726V152c0,0,0,-81,14,-100c0,0,15,-20,61,-26V0H516V93C516,93,466,34,416,7c0,0,-50,-27,-112,-27Z" 
id="f0_2h"
transform="scale(0.001,-0.001)" />

<path d="M32,0V26c0,0,46,2,69,27c0,0,14,18,14,92V551c0,0,0,75,-17,95c0,0,-17,21,-66,24v27H325V145c0,0,0,-74,17,-95c0,0,17,-21,68,-24V0ZM220,804c0,0,-48,0,-82,33c0,0,-33,34,-33,82c0,0,0,48,33,82c0,0,34,33,82,33c0,0,48,0,82,-33c0,0,33,-34,33,-82c0,0,0,-48,-34,-82c0,0,-34,-33,-81,-33Z" 
id="f0_25"
transform="scale(0.001,-0.001)" />

<path d="M197,0V27c0,0,71,2,92,13c0,0,21,10,29,29c0,0,9,18,9,109V725c0,0,0,110,-8,141c0,0,-5,24,-19,35c0,0,-14,11,-33,11c0,0,-28,0,-77,-23l-11,23l246,121h25V178c0,0,0,-85,7,-106c0,0,7,-21,29,-32c0,0,23,-11,91,-13V0Z" 
id="f1_l"
transform="scale(0.001,-0.001)" />

<path d="M379,29c0,0,41,0,84,37c0,0,43,36,65,121c0,0,34,128,34,362c0,0,0,173,-35,288c0,0,-27,86,-69,122c0,0,-31,25,-74,25c0,0,-51,0,-90,-46c0,0,-54,-62,-73,-195c0,0,-20,-132,-20,-261c0,0,0,-209,52,-341c0,0,42,-112,126,-112Zm-2,-46c0,0,-145,0,-241,170c0,0,-81,144,-81,347c0,0,0,173,52,298c0,0,52,125,139,186c0,0,67,49,139,49c0,0,116,0,208,-119c0,0,116,-147,116,-398c0,0,0,-176,-51,-299C658,217,608,94,529,38c0,0,-79,-55,-152,-55Z" 
id="f1_k"
transform="scale(0.001,-0.001)" />

<path d="M394,23c0,0,80,0,129,45c0,0,48,45,48,110c0,0,0,54,-28,97c0,0,-53,79,-214,206c0,0,-62,-52,-92,-114c0,0,-30,-61,-30,-133c0,0,0,-96,53,-154c0,0,52,-57,134,-57Zm17,566c0,0,90,81,114,128c0,0,24,46,24,105c0,0,0,79,-44,123c0,0,-44,45,-121,45c0,0,-76,0,-124,-45c0,0,-48,-44,-48,-103c0,0,0,-38,20,-77c0,0,20,-39,56,-74L411,589ZM382,-17c0,0,-144,0,-225,90c0,0,-64,72,-64,158c0,0,0,67,45,133c0,0,45,66,156,146c0,0,-121,98,-156,158c0,0,-34,59,-34,124c0,0,0,98,76,169c0,0,76,72,202,72c0,0,123,0,198,-67c0,0,74,-66,74,-151c0,0,0,-57,-40,-116c0,0,-40,-59,-168,-139c0,0,132,-101,174,-159c0,0,57,-76,57,-161c0,0,0,-106,-82,-182c0,0,-81,-75,-213,-75Z" 
id="f1_s"
transform="scale(0.001,-0.001)" />

<path d="M238,-17c0,0,-103,0,-139,25C99,8,62,33,62,62c0,0,0,22,17,38c0,0,18,16,42,16c0,0,19,0,38,-6c0,0,13,-3,58,-27c0,0,45,-23,62,-28c0,0,27,-8,59,-8c0,0,76,0,132,59c0,0,56,59,56,140c0,0,0,59,-26,115c0,0,-19,41,-42,63c0,0,-32,30,-88,54c0,0,-56,25,-114,25H232v22c0,0,59,8,118,42c0,0,59,35,86,85c0,0,27,49,27,108c0,0,0,76,-48,124c0,0,-48,47,-120,47c0,0,-116,0,-193,-124L77,819c0,0,44,102,110,158c0,0,66,56,164,56c0,0,122,0,187,-80c0,0,49,-58,49,-126c0,0,0,-110,-139,-228c0,0,93,-36,141,-104c0,0,48,-68,48,-160c0,0,0,-131,-84,-227C553,108,444,-17,238,-17Z" 
id="f1_n"
transform="scale(0.001,-0.001)" />

<path d="M247,-17c0,0,-91,0,-132,30c0,0,-42,31,-42,68c0,0,0,21,17,37c0,0,18,16,44,17c0,0,19,0,34,-6c0,0,14,-7,49,-31c0,0,56,-39,113,-39c0,0,88,0,154,66c0,0,66,66,66,161c0,0,0,92,-59,171c0,0,-59,80,-163,123c0,0,-81,34,-221,39l194,393H663L605,885H301L234,750c0,0,198,-29,313,-147c0,0,100,-102,100,-239c0,0,0,-80,-33,-148c0,0,-32,-68,-81,-116c0,0,-50,-47,-110,-77c0,0,-86,-40,-176,-40Z" 
id="f1_p"
transform="scale(0.001,-0.001)" />

<path d="M13,0V26c0,0,52,0,78,13c0,0,16,8,24,25c0,0,11,25,11,86V773c0,0,0,118,-5,145c0,0,-5,26,-17,36c0,0,-12,10,-32,10c0,0,-15,0,-47,-13L13,978l203,83h34V381L424,540c0,0,55,50,64,64c0,0,6,9,6,18c0,0,0,15,-12,26c0,0,-13,11,-41,12v23H738V660c0,0,-61,-2,-102,-19c0,0,-40,-17,-89,-62L372,418L547,196c0,0,73,-92,98,-117c0,0,36,-35,63,-45c0,0,18,-8,65,-8V0H441V26c0,0,28,1,38,9c0,0,10,8,10,22c0,0,0,17,-29,56L250,381V154c0,0,0,-67,10,-88c0,0,9,-21,26,-30c0,0,17,-9,75,-10V0Z" 
id="f1_27"
transform="scale(0.001,-0.001)" />

<path d="M25,0V27H61c0,0,64,0,91,39c0,0,16,24,16,109V837c0,0,0,67,-15,97c0,0,-10,22,-38,36c0,0,-28,15,-90,15v27H312L678,220l363,792h285V985h-35c0,0,-64,0,-91,-39c0,0,-17,-24,-17,-109V175c0,0,0,-93,21,-116c0,0,28,-32,87,-32h35V0H898V27h36c0,0,64,0,90,39c0,0,17,24,17,109V852L649,0H625L234,852V175c0,0,0,-93,20,-116c0,0,27,-32,87,-32h35V0Z" 
id="f1_1d"
transform="scale(0.001,-0.001)" />

<path d="M660,0C618,0,589,29,589,29C560,58,560,99,560,99c0,41,29,70,29,70c29,29,71,29,71,29c41,0,70,-29,70,-29c29,-29,29,-70,29,-70C759,58,730,29,730,29C701,0,660,0,660,0ZM349,532c-42,0,-71,29,-71,29c-29,29,-29,70,-29,70c0,41,29,70,29,70c29,29,71,29,71,29c41,0,70,-29,70,-29c29,-29,29,-70,29,-70c0,-41,-29,-70,-29,-70C390,532,349,532,349,532Zm622,0c-41,0,-70,29,-70,29c-29,29,-29,70,-29,70c0,41,29,70,29,70c29,29,70,29,70,29c42,0,71,-29,71,-29c29,-29,29,-70,29,-70c0,-41,-29,-70,-29,-70c-29,-29,-71,-29,-71,-29Z" 
id="f4_14"
transform="scale(0.001,-0.001)" />

<path d="M83,0C83,0,48,0,24,24C24,24,0,49,0,83c0,0,0,34,24,58c0,0,24,24,59,24c0,0,34,0,58,-24c0,0,24,-24,24,-58c0,0,0,-34,-24,-59C141,24,117,0,83,0ZM695,0c0,0,-34,0,-58,24c0,0,-25,25,-25,59c0,0,0,34,25,58c0,0,24,24,58,24c0,0,34,0,58,-24c0,0,24,-24,24,-58c0,0,0,-34,-24,-59C753,24,729,0,695,0ZM388,594c0,0,-34,0,-59,23c0,0,-24,24,-24,59c0,0,0,34,24,58c0,0,25,25,59,25c0,0,34,0,58,-25c0,0,24,-24,24,-58c0,0,0,-35,-24,-59c0,0,-24,-23,-58,-23Z" 
id="f2_1s"
transform="scale(0.001,-0.001)" />

<path d="M27,354v62H831V354Zm0,243v62H831V597Z" 
id="f1_x"
transform="scale(0.001,-0.001)" />

<path d="M52,62L0,114L278,390L0,667l52,52L330,442L608,719l51,-51L382,390L659,114L608,62L330,338L52,62Z" 
id="f2_3a"
transform="scale(0.001,-0.001)" />

<path d="M0,214v74H784V214ZM0,494v72H784V494Z" 
id="f2_x"
transform="scale(0.001,-0.001)" />

<path d="M31,0V27H67c0,0,36,0,68,18c0,0,24,12,32,36c0,0,9,24,9,98V836c0,0,0,96,-19,119c0,0,-27,30,-90,30H31v27H811L822,790H792c0,0,-15,80,-34,110c0,0,-19,30,-57,46c0,0,-29,11,-105,11H319V557H541c0,0,87,0,116,26c0,0,39,35,44,121h27V352H701c0,0,-11,74,-21,95c0,0,-14,26,-45,41c0,0,-30,15,-94,15H319V168c0,0,0,-67,6,-81c0,0,6,-15,21,-24c0,0,15,-8,56,-8H574c0,0,86,0,124,12c0,0,39,12,75,47c0,0,46,46,95,139h30L811,0Z" 
id="f1_15"
transform="scale(0.001,-0.001)" />

<path d="M107,-21V325h27c0,0,19,-109,52,-163c0,0,33,-54,100,-90c0,0,68,-36,148,-36c0,0,93,0,148,49c0,0,54,50,54,117c0,0,0,37,-21,75c0,0,-20,38,-64,71c0,0,-29,22,-159,95c0,0,-130,72,-185,115c0,0,-55,44,-83,96c0,0,-28,52,-28,114c0,0,0,109,83,188c0,0,84,78,213,78c0,0,81,0,171,-39c0,0,42,-19,59,-19c0,0,20,0,32,11c0,0,12,12,20,47h27V684H674c0,0,-14,101,-48,161c0,0,-35,60,-100,95c0,0,-64,35,-133,35c0,0,-77,0,-128,-47c0,0,-51,-48,-51,-108c0,0,0,-46,32,-84c0,0,47,-56,221,-149c0,0,142,-76,194,-117c0,0,51,-41,80,-96c0,0,28,-55,28,-115c0,0,0,-115,-90,-198c0,0,-89,-82,-229,-82c0,0,-44,0,-83,6c0,0,-23,4,-95,27c0,0,-73,24,-93,24c0,0,-18,0,-29,-11c0,0,-11,-12,-16,-46Z" 
id="f1_1j"
transform="scale(0.001,-0.001)" />

<path d="M20,0V28L669,951H345c0,0,-81,0,-117,-17c0,0,-36,-18,-55,-51c0,0,-19,-33,-35,-124H110l20,253H880L215,62H629c0,0,96,0,147,41c0,0,51,42,91,170l24,-5L843,0Z" 
id="f1_1q"
transform="scale(0.001,-0.001)" />

<path d="M405,24c0,0,65,0,116,62c0,0,51,61,51,174c0,0,0,128,-50,221c0,0,-51,93,-144,93c0,0,-29,0,-61,-12c0,0,-33,-12,-96,-51c0,0,-14,-101,-14,-163c0,0,0,-72,27,-155c0,0,26,-84,79,-134c0,0,38,-35,92,-35ZM384,-17c0,0,-104,0,-177,68C207,51,66,185,66,397c0,0,0,136,54,258c0,0,54,122,156,217c0,0,101,95,193,128c0,0,93,33,172,33h44v-28c0,0,-99,-10,-161,-39c0,0,-62,-29,-123,-90c0,0,-61,-60,-101,-135c0,0,-39,-74,-66,-176c0,0,107,73,215,73c0,0,104,0,180,-83c0,0,76,-84,76,-215c0,0,0,-126,-77,-231c0,0,-92,-126,-244,-126Z" 
id="f1_q"
transform="scale(0.001,-0.001)" />

<path d="M275,-20L578,891H299c0,0,-84,0,-120,-20c0,0,-63,-35,-101,-106l-21,8l97,239H696V983L359,-20Z" 
id="f1_r"
transform="scale(0.001,-0.001)" />

<path d="M593,600c0,0,92,0,137,17c0,0,45,17,68,48c0,0,22,31,22,76c0,0,0,41,-21,71c0,0,-21,29,-60,43c0,0,-40,14,-128,14H439V600ZM55,0V144h46c0,0,37,0,52,8c0,0,16,7,23,23c0,0,4,9,4,56V816c0,0,0,35,-6,49c0,0,-5,15,-18,19c0,0,-18,8,-41,8H55v148H697c0,0,62,0,135,-11c0,0,74,-11,133,-49c0,0,60,-38,92,-96c0,0,33,-59,33,-132c0,0,0,-118,-84,-192c0,0,-85,-73,-201,-96L1019,215l9,-11c0,0,21,-25,38,-38c0,0,17,-12,34,-17c0,0,18,-5,48,-5h45V0H859L526,448H439V241c0,0,0,-54,6,-69c0,0,6,-14,19,-21c0,0,13,-7,52,-7h48V0Z" 
id="f5_1i"
transform="scale(0.001,-0.001)" />

<path d="M59,0V144H85c0,0,52,0,70,7c0,0,18,8,25,26c0,0,4,11,4,64V808c0,0,0,46,-7,60c0,0,-6,14,-19,22c0,0,-14,7,-53,7H59v143H928L1046,712L911,663c0,0,-34,81,-80,130c0,0,-46,49,-102,65c0,0,-55,16,-129,16H441V615h52c0,0,59,0,80,9c0,0,20,8,29,26c0,0,9,19,9,73v40H744V322H611v45c0,0,0,45,-11,66c0,0,-11,21,-29,29c0,0,-19,7,-83,7H441V230c0,0,0,-38,4,-47c0,0,3,-8,14,-12c0,0,11,-5,47,-5h87c0,0,98,0,165,28c0,0,67,28,120,91c0,0,53,63,81,149l136,-47L959,0Z" 
id="f5_15"
transform="scale(0.001,-0.001)" />

<path d="M514,166c0,0,122,0,191,38c0,0,69,38,111,121c0,0,43,83,43,199c0,0,0,113,-40,197c0,0,-40,84,-99,119c0,0,-59,34,-168,34H437V226c0,0,0,-33,4,-40c0,0,6,-12,17,-16c0,0,12,-4,56,-4ZM55,0V144H91c0,0,46,0,60,7c0,0,15,8,24,26c0,0,6,14,6,61V807c0,0,0,48,-6,62c0,0,-7,13,-21,21c0,0,-15,7,-62,7H56v143H601c0,0,186,0,296,-59c0,0,110,-58,175,-174c0,0,65,-116,65,-278c0,0,0,-112,-33,-201c0,0,-33,-89,-99,-160c0,0,-66,-71,-141,-107C864,61,807,34,703,17C703,17,599,0,536,0Z" 
id="f5_14"
transform="scale(0.001,-0.001)" />

<path d="M611,148c0,0,117,0,187,88c0,0,83,105,83,281c0,0,0,124,-35,208c0,0,-36,84,-96,126c0,0,-61,42,-132,42c0,0,-118,0,-189,-89c0,0,-88,-112,-88,-289c0,0,0,-176,82,-279c0,0,71,-88,188,-88ZM608,-17c0,0,-231,0,-378,126C230,109,53,262,53,518c0,0,0,237,155,389c0,0,156,151,407,151c0,0,248,0,401,-151c0,0,153,-150,153,-386c0,0,0,-159,-70,-282c0,0,-70,-123,-193,-190c0,0,-124,-66,-298,-66Z" 
id="f5_1f"
transform="scale(0.001,-0.001)" />

<path d="M-1,0V144c0,0,48,0,69,5c0,0,20,5,38,17c0,0,29,21,70,62L452,525L190,830c0,0,-40,44,-66,55c0,0,-25,12,-86,12v143H599V897H555c0,0,-35,0,-45,-6c0,0,-9,-6,-9,-19c0,0,0,-7,4,-14c0,0,3,-7,21,-29L638,698L763,834c0,0,24,26,24,38c0,0,0,13,-10,19c0,0,-10,6,-47,6H692v143h467V897c0,0,-51,0,-73,-6c0,0,-21,-7,-49,-25c0,0,-20,-14,-44,-39L742,553L1021,228c0,0,50,-54,83,-69c0,0,33,-15,89,-15V0H623V144h53c0,0,37,0,46,5c0,0,9,5,9,16c0,0,0,14,-25,44L556,382L395,208c0,0,-21,-23,-21,-41c0,0,0,-11,11,-17c0,0,11,-6,46,-6h40V0Z" 
id="f5_1o"
transform="scale(0.001,-0.001)" />

<path d="M610,480L509,765L404,480ZM2,0V144c0,0,39,0,56,6c0,0,18,7,30,21c0,0,11,13,25,49l322,820H669L981,237c0,0,25,-64,45,-79c0,0,19,-14,68,-14c2,0,3,0,5,0V0H606V144h30c0,0,41,0,58,11c0,0,16,11,16,27c0,0,0,13,-14,55l-32,94H349L310,226c0,0,-12,-33,-12,-44c0,0,0,-11,8,-21c0,0,9,-10,28,-14c0,0,13,-3,71,-3V0Z" 
id="f5_11"
transform="scale(0.001,-0.001)" />

<path d="M579,-17c0,0,-147,0,-266,70c0,0,-119,70,-189,197c0,0,-71,127,-71,277c0,0,0,149,69,271c0,0,69,123,187,191c0,0,119,69,265,69c0,0,149,0,260,-62l25,44H965L1067,667L928,627c0,0,-69,133,-130,189c0,0,-85,77,-185,77c0,0,-72,0,-135,-41c0,0,-63,-40,-100,-118c0,0,-37,-78,-37,-183c0,0,0,-161,85,-276c0,0,85,-116,222,-116c0,0,87,0,168,50c0,0,100,62,173,167l116,-86C1105,290,992,136,899,76c0,0,-144,-93,-320,-93Z" 
id="f5_13"
transform="scale(0.001,-0.001)" />

<path d="M280,0V144h30c0,0,51,0,66,6c0,0,14,6,21,22c0,0,8,17,8,67V851c0,0,0,26,-6,33c0,0,-6,7,-26,7c0,0,-38,0,-86,-29c0,0,-48,-29,-85,-82c0,0,-15,-21,-63,-118L2,711l128,365h99l10,-36H826l13,36h99L1067,711L928,662c0,0,-46,91,-66,119c0,0,-40,55,-92,86c0,0,-38,24,-77,24c0,0,-18,0,-24,-9c0,0,-7,-8,-7,-39V244c0,0,0,-53,4,-66c0,0,3,-13,12,-21c0,0,9,-8,25,-11c0,0,16,-2,84,-2V0Z" 
id="f5_1k"
transform="scale(0.001,-0.001)" />

<path d="M52,0V144H93c0,0,44,0,58,6c0,0,13,6,20,20c0,0,6,14,6,55V803c0,0,0,49,-6,64c0,0,-7,15,-22,24c0,0,-10,6,-51,6H52v143H559V897H513c0,0,-40,0,-53,-7c0,0,-13,-8,-20,-23c0,0,-6,-15,-6,-58V233c0,0,0,-47,5,-61c0,0,6,-13,18,-19c0,0,16,-9,47,-9h55V0Z" 
id="f5_19"
transform="scale(0.001,-0.001)" />

<path d="M59,0V144h44c0,0,37,0,51,6c0,0,14,6,22,22c0,0,8,16,8,47V816c0,0,0,34,-8,50c0,0,-7,16,-20,24c0,0,-12,7,-42,7H59v143H480L786,433V805c0,0,0,48,-5,60c0,0,-8,17,-20,25c0,0,-13,7,-49,7H661v143h428V897h-47c0,0,-36,0,-51,-9c0,0,-15,-8,-21,-22c0,0,-6,-14,-6,-61V0H750L364,767V230c0,0,0,-46,5,-59c0,0,6,-12,20,-20c0,0,15,-7,50,-7h50V0Z" 
id="f5_1e"
transform="scale(0.001,-0.001)" />


</defs>
</svg>