<?xml version="1.0" encoding="UTF-8" standalone="no"?>
<!DOCTYPE svg PUBLIC "-//W3C//DTD SVG 1.1//EN"
"http://www.w3.org/Graphics/SVG/1.1/DTD/svg11.dtd">
<svg viewBox="0 0 909 1286" version="1.1" xmlns="http://www.w3.org/2000/svg" xmlns:xlink="http://www.w3.org/1999/xlink">
<defs>
<style type="text/css"><![CDATA[
.g0_31{
fill: none;
stroke: #000000;
stroke-width: 0.7654167;
stroke-linecap: round;
stroke-linejoin: miter;
}
.g1_31{
fill: none;
stroke: #000000;
stroke-width: 0.7669444;
stroke-linecap: round;
stroke-linejoin: miter;
}
.g2_31{
fill: none;
stroke: #000000;
stroke-width: 0.7623611;
stroke-linecap: round;
stroke-linejoin: miter;
}
.g3_31{
fill: none;
stroke: #000000;
stroke-width: 0.7638889;
stroke-linecap: round;
stroke-linejoin: miter;
}
.g4_31{
fill: none;
stroke: #000000;
stroke-width: 0.7501389;
stroke-linecap: round;
stroke-linejoin: miter;
}
.g5_31{
fill: none;
stroke: #000000;
stroke-width: 0.7761111;
stroke-linecap: round;
stroke-linejoin: miter;
}
.g6_31{
}
.g7_31{
fill: #FFFFFF;
}
]]></style>
</defs>
<g fill="#000000" >
<use xlink:href="#f0_z" transform="matrix(10.2,0,0,10.1,101,183.3)" />
<use xlink:href="#f1_1k" transform="matrix(10,0,0,10,125.8,182.2)" />
<use xlink:href="#f1_i" transform="matrix(10,0,0,10,134.2,182.2)" />
<use xlink:href="#f1_15" transform="matrix(10,0,0,10,137.9,182.2)" />
<use xlink:href="#f1_2a" transform="matrix(5.8,0,0,5.8,147.2,187.4)" />
<use xlink:href="#f1_x" transform="matrix(10,0,0,10,151.3,182.2)" />
</g>
<path d="M165.7,173.9h9.1m10.1,0h39.4" class="g0_31" />
<g fill="#000000" >
<use xlink:href="#f1_m" transform="matrix(6,0,0,6,217.5,161.2)" />
<use xlink:href="#f1_2a" transform="matrix(6,0,0,6,203.6,193.5)" />
<use xlink:href="#f1_2a" transform="matrix(6,0,0,6,278.6,193.5)" />
<use xlink:href="#f1_l" transform="matrix(10,0,0,10,166.5,168.1)" />
<use xlink:href="#f1_1b" transform="matrix(10,0,0,10,185.9,168.1)" />
<use xlink:href="#f1_1q" transform="matrix(10,0,0,10,201.2,168.1)" />
<use xlink:href="#f1_21" transform="matrix(10,0,0,10,210.3,168.1)" />
<use xlink:href="#f1_1b" transform="matrix(10,0,0,10,247.6,168.1)" />
<use xlink:href="#f1_c" transform="matrix(10,0,0,10,259.3,168.1)" />
<use xlink:href="#f1_1q" transform="matrix(10,0,0,10,265,168.1)" />
<use xlink:href="#f1_21" transform="matrix(10,0,0,10,274.1,168.1)" />
<use xlink:href="#f1_d" transform="matrix(10,0,0,10,281,168.1)" />
<use xlink:href="#f1_c" transform="matrix(10,0,0,10,286.1,168.1)" />
<use xlink:href="#f1_21" transform="matrix(10,0,0,10,300.2,168.1)" />
<use xlink:href="#f1_d" transform="matrix(10,0,0,10,307.1,168.1)" />
<use xlink:href="#f1_m" transform="matrix(10,0,0,10,166.7,189.6)" />
<use xlink:href="#f1_2e" transform="matrix(10,0,0,10,199.4,189.6)" />
<use xlink:href="#f1_2e" transform="matrix(10,0,0,10,274.5,189.6)" />
<use xlink:href="#f0_10" transform="matrix(10,0,0,10,176.7,167.1)" />
<use xlink:href="#f0_19" transform="matrix(10,0,0,10,226.6,167.1)" />
<use xlink:href="#f0_6" transform="matrix(10,0,0,10,291.6,168.1)" />
<use xlink:href="#f0_5" transform="matrix(10,0,0,10,235,177.7)" />
<use xlink:href="#f0_11" transform="matrix(10,0,0,10,176.7,180.8)" />
<use xlink:href="#f0_1a" transform="matrix(10,0,0,10,226.6,180.8)" />
<use xlink:href="#f0_12" transform="matrix(10,0,0,10,176.7,193.5)" />
<use xlink:href="#f0_1b" transform="matrix(10,0,0,10,226.6,193.5)" />
<use xlink:href="#f1_1r" transform="matrix(10,0,0,10,319.9,182.2)" />
<use xlink:href="#f1_1l" transform="matrix(10,0,0,10,325,182.2)" />
<use xlink:href="#f1_2f" transform="matrix(10,0,0,10,335.9,182.2)" />
<use xlink:href="#f1_25" transform="matrix(10,0,0,10,341.7,182.2)" />
<use xlink:href="#f1_2a" transform="matrix(10,0,0,10,345.8,182.2)" />
<use xlink:href="#f1_23" transform="matrix(10,0,0,10,353.1,182.2)" />
<use xlink:href="#f1_c" transform="matrix(10,0,0,10,363.4,182.2)" />
<use xlink:href="#f1_25" transform="matrix(10,0,0,10,368.4,182.2)" />
<use xlink:href="#f1_25" transform="matrix(10,0,0,10,372.6,182.2)" />
<use xlink:href="#f1_25" transform="matrix(10,0,0,10,376.6,182.2)" />
<use xlink:href="#f1_d" transform="matrix(10,0,0,10,380.9,182.2)" />
<use xlink:href="#f1_1t" transform="matrix(10,0,0,10,385.8,182.2)" />
<use xlink:href="#f0_z" transform="matrix(10.3,0,0,10.2,101,247.6)" />
</g>
<path d="M215.1,238.7H257" class="g1_31" />
<g fill="#000000" >
<use xlink:href="#f0_x" transform="matrix(9.9,0,0,9.9,152.9,242.5)" />
<use xlink:href="#f2_m" transform="matrix(6,0,0,6,250.3,226.1)" />
<use xlink:href="#f2_2a" transform="matrix(6,0,0,6,142.5,246.4)" />
<use xlink:href="#f2_2a" transform="matrix(6,0,0,6,192.1,246.4)" />
<use xlink:href="#f2_2a" transform="matrix(6,0,0,6,239.5,258.2)" />
<use xlink:href="#f2_h" transform="matrix(9.9,0,0,9.9,215.9,233)" />
<use xlink:href="#f2_1b" transform="matrix(9.9,0,0,9.9,221,233)" />
<use xlink:href="#f2_1q" transform="matrix(9.9,0,0,9.9,232.9,233)" />
<use xlink:href="#f2_21" transform="matrix(9.9,0,0,9.9,243,233)" />
<use xlink:href="#f2_15" transform="matrix(9.9,0,0,9.9,132.2,242.5)" />
<use xlink:href="#f2_1k" transform="matrix(9.9,0,0,9.9,164.7,242.5)" />
<use xlink:href="#f2_i" transform="matrix(9.9,0,0,9.9,175,242.5)" />
<use xlink:href="#f2_15" transform="matrix(9.9,0,0,9.9,181.7,242.5)" />
<use xlink:href="#f2_x" transform="matrix(9.9,0,0,9.9,202.4,242.5)" />
<use xlink:href="#f2_m" transform="matrix(9.9,0,0,9.9,226.3,254.3)" />
<use xlink:href="#f2_2e" transform="matrix(9.9,0,0,9.9,233.9,254.3)" />
<use xlink:href="#f1_19" transform="matrix(10,0,0,10,98.6,282.7)" />
<use xlink:href="#f1_2g" transform="matrix(10,0,0,10,103.8,282.7)" />
<use xlink:href="#f1_1z" transform="matrix(10,0,0,10,112.2,282.7)" />
<use xlink:href="#f1_1x" transform="matrix(10,0,0,10,119.1,282.7)" />
<use xlink:href="#f1_2a" transform="matrix(10,0,0,10,125.9,282.7)" />
<use xlink:href="#f1_1y" transform="matrix(10,0,0,10,137.7,282.7)" />
<use xlink:href="#f1_21" transform="matrix(10,0,0,10,145.4,282.7)" />
<use xlink:href="#f1_2f" transform="matrix(10,0,0,10,156.2,282.7)" />
<use xlink:href="#f1_24" transform="matrix(10,0,0,10,162.2,282.7)" />
<use xlink:href="#f1_2b" transform="matrix(10,0,0,10,169.7,282.7)" />
<use xlink:href="#f1_2j" transform="matrix(10,0,0,10,177.4,282.7)" />
<use xlink:href="#f1_2a" transform="matrix(10,0,0,10,188.2,282.7)" />
<use xlink:href="#f1_22" transform="matrix(10,0,0,10,200,282.7)" />
<use xlink:href="#f1_2e" transform="matrix(10,0,0,10,204.9,282.7)" />
<use xlink:href="#f1_2b" transform="matrix(10,0,0,10,210.1,282.7)" />
<use xlink:href="#f1_29" transform="matrix(10,0,0,10,217.9,282.7)" />
<use xlink:href="#f1_2g" transform="matrix(10,0,0,10,233.7,282.7)" />
<use xlink:href="#f1_24" transform="matrix(10,0,0,10,237.9,282.7)" />
<use xlink:href="#f1_21" transform="matrix(10,0,0,10,245.6,282.7)" />
<use xlink:href="#f1_1x" transform="matrix(10,0,0,10,256.5,282.7)" />
<use xlink:href="#f1_1y" transform="matrix(10,0,0,10,263.4,282.7)" />
<use xlink:href="#f1_2b" transform="matrix(10,0,0,10,271.1,282.7)" />
<use xlink:href="#f1_2i" transform="matrix(10,0,0,10,279,282.7)" />
<use xlink:href="#f1_21" transform="matrix(10,0,0,10,286.5,282.7)" />
<use xlink:href="#f1_21" transform="matrix(10,0,0,10,297.3,282.7)" />
<use xlink:href="#f1_2k" transform="matrix(10,0,0,10,304.1,282.7)" />
<use xlink:href="#f1_2c" transform="matrix(10,0,0,10,311.8,282.7)" />
<use xlink:href="#f1_2e" transform="matrix(10,0,0,10,319.5,282.7)" />
<use xlink:href="#f1_21" transform="matrix(10,0,0,10,324.8,282.7)" />
<use xlink:href="#f1_2f" transform="matrix(10,0,0,10,331.6,282.7)" />
<use xlink:href="#f1_2f" transform="matrix(10,0,0,10,337.4,282.7)" />
<use xlink:href="#f1_25" transform="matrix(10,0,0,10,343.5,282.7)" />
<use xlink:href="#f1_2b" transform="matrix(10,0,0,10,347.7,282.7)" />
<use xlink:href="#f1_2a" transform="matrix(10,0,0,10,355.6,282.7)" />
<use xlink:href="#f1_2f" transform="matrix(10,0,0,10,363.1,282.7)" />
<use xlink:href="#f1_2g" transform="matrix(10,0,0,10,373.2,282.7)" />
<use xlink:href="#f1_24" transform="matrix(10,0,0,10,377.4,282.7)" />
<use xlink:href="#f1_1x" transform="matrix(10,0,0,10,385.1,282.7)" />
<use xlink:href="#f1_2g" transform="matrix(10,0,0,10,391.9,282.7)" />
<use xlink:href="#f1_u" transform="matrix(10,0,0,10,400.3,282.7)" />
</g>
<path d="M150.5,321h9m2.6,0h39.3m55.1,0h48.2m60.1,0h48.1" class="g2_31" />
<g fill="#000000" >
<use xlink:href="#f1_m" transform="matrix(5.9,0,0,6,194.6,308.5)" />
<use xlink:href="#f1_m" transform="matrix(5.9,0,0,6,297.8,308.5)" />
<use xlink:href="#f1_m" transform="matrix(5.9,0,0,6,406.1,308.5)" />
<use xlink:href="#f1_2a" transform="matrix(5.9,0,0,6,128.3,328.7)" />
<use xlink:href="#f1_2a" transform="matrix(5.9,0,0,6,234.3,328.7)" />
<use xlink:href="#f1_2a" transform="matrix(5.9,0,0,6,342.5,328.7)" />
<use xlink:href="#f1_2a" transform="matrix(5.9,0,0,6,180.7,340.5)" />
<use xlink:href="#f1_2a" transform="matrix(5.9,0,0,6,279.5,340.5)" />
<use xlink:href="#f1_2a" transform="matrix(5.9,0,0,6,391.7,340.5)" />
<use xlink:href="#f1_l" transform="matrix(9.9,0,0,9.9,151.2,315.3)" />
<use xlink:href="#f1_1b" transform="matrix(9.9,0,0,9.9,163.1,315.3)" />
<use xlink:href="#f1_1q" transform="matrix(9.9,0,0,9.9,178.3,315.3)" />
<use xlink:href="#f1_21" transform="matrix(9.9,0,0,9.9,187.4,315.3)" />
<use xlink:href="#f1_1b" transform="matrix(9.9,0,0,9.9,266.3,315.3)" />
<use xlink:href="#f1_1q" transform="matrix(9.9,0,0,9.9,281.5,315.3)" />
<use xlink:href="#f1_21" transform="matrix(9.9,0,0,9.9,290.6,315.3)" />
<use xlink:href="#f1_1b" transform="matrix(9.9,0,0,9.9,374.5,315.3)" />
<use xlink:href="#f1_1q" transform="matrix(9.9,0,0,9.9,389.7,315.3)" />
<use xlink:href="#f1_21" transform="matrix(9.9,0,0,9.9,398.8,315.3)" />
<use xlink:href="#f1_1b" transform="matrix(9.9,0,0,9.9,101.5,324.8)" />
<use xlink:href="#f1_i" transform="matrix(9.9,0,0,9.9,112.4,324.8)" />
<use xlink:href="#f1_15" transform="matrix(9.9,0,0,9.9,115.8,324.8)" />
<use xlink:href="#f1_i" transform="matrix(9.9,0,0,9.9,124.9,324.8)" />
<use xlink:href="#f1_g" transform="matrix(9.9,0,0,9.9,203.2,324.8)" />
<use xlink:href="#f1_1g" transform="matrix(9.9,0,0,9.9,210.4,324.8)" />
<use xlink:href="#f1_i" transform="matrix(9.9,0,0,9.9,218.5,324.8)" />
<use xlink:href="#f1_15" transform="matrix(9.9,0,0,9.9,221.8,324.8)" />
<use xlink:href="#f1_i" transform="matrix(9.9,0,0,9.9,230.9,324.8)" />
<use xlink:href="#f1_1x" transform="matrix(9.9,0,0,9.9,306.7,324.8)" />
<use xlink:href="#f1_2a" transform="matrix(9.9,0,0,9.9,313.4,324.8)" />
<use xlink:href="#f1_20" transform="matrix(9.9,0,0,9.9,321,324.8)" />
<use xlink:href="#f1_15" transform="matrix(9.9,0,0,9.9,332.4,324.8)" />
<use xlink:href="#f1_m" transform="matrix(9.9,0,0,9.9,151.4,336.6)" />
<use xlink:href="#f1_2e" transform="matrix(9.9,0,0,9.9,176.5,336.6)" />
<use xlink:href="#f1_2e" transform="matrix(9.9,0,0,9.9,275.3,336.6)" />
<use xlink:href="#f1_m" transform="matrix(9.9,0,0,9.9,379.7,336.6)" />
<use xlink:href="#f1_2e" transform="matrix(9.9,0,0,9.9,387.5,336.6)" />
<use xlink:href="#f0_6" transform="matrix(9.9,0,0,9.9,257.5,315.3)" />
<use xlink:href="#f0_6" transform="matrix(9.9,0,0,9.9,365.7,315.3)" />
<use xlink:href="#f0_9" transform="matrix(9.9,0,0,9.9,138.3,324.8)" />
<use xlink:href="#f0_9" transform="matrix(9.9,0,0,9.9,244.3,324.8)" />
<use xlink:href="#f0_9" transform="matrix(9.9,0,0,9.9,352.5,324.8)" />
<use xlink:href="#f2_2b" transform="matrix(10,0,0,10,98.6,365.2)" />
<use xlink:href="#f2_2e" transform="matrix(10,0,0,10,106,365.2)" />
<use xlink:href="#f2_1b" transform="matrix(10,0,0,10,114.6,365.2)" />
<use xlink:href="#f2_i" transform="matrix(10,0,0,10,126,365.2)" />
<use xlink:href="#f2_15" transform="matrix(10,0,0,10,129.4,365.2)" />
<use xlink:href="#f2_i" transform="matrix(10,0,0,10,139,365.2)" />
<use xlink:href="#f2_2a" transform="matrix(5.8,0,0,5.8,142.5,370.3)" />
<use xlink:href="#f3_x" transform="matrix(10,0,0,10,149.4,365.2)" />
<use xlink:href="#f3_1jz" transform="matrix(10,0,0,10,160.1,365.2)" />
<use xlink:href="#f3_15" transform="matrix(10,0,0,10,167.2,365.2)" />
<use xlink:href="#f2_2a" transform="matrix(5.8,0,0,5.8,176.9,370.3)" />
<use xlink:href="#f2_1x" transform="matrix(10,0,0,10,183.9,365.2)" />
<use xlink:href="#f2_2a" transform="matrix(10,0,0,10,191,365.2)" />
<use xlink:href="#f2_20" transform="matrix(10,0,0,10,199.1,365.2)" />
<use xlink:href="#f2_15" transform="matrix(10,0,0,10,209.6,365.2)" />
<use xlink:href="#f2_i" transform="matrix(10,0,0,10,219.1,365.2)" />
<use xlink:href="#f2_1g" transform="matrix(10,0,0,10,222.6,365.2)" />
<use xlink:href="#f2_i" transform="matrix(10,0,0,10,230,365.2)" />
<use xlink:href="#f2_15" transform="matrix(10,0,0,10,233.4,365.2)" />
<use xlink:href="#f2_i" transform="matrix(10,0,0,10,243,365.2)" />
<use xlink:href="#f2_2a" transform="matrix(5.8,0,0,5.8,246.4,370.3)" />
<use xlink:href="#f2_x" transform="matrix(10,0,0,10,253.2,365.2)" />
<use xlink:href="#f2_m" transform="matrix(10,0,0,10,263.8,365.2)" />
<use xlink:href="#f2_15" transform="matrix(10,0,0,10,271.2,365.2)" />
<use xlink:href="#f2_2a" transform="matrix(5.8,0,0,5.8,280.7,370.3)" />
<use xlink:href="#f1_1l" transform="matrix(10,0,0,10,98.6,387.6)" />
<use xlink:href="#f1_2f" transform="matrix(10,0,0,10,109.6,387.6)" />
<use xlink:href="#f1_25" transform="matrix(10,0,0,10,115.7,387.6)" />
<use xlink:href="#f1_2a" transform="matrix(10,0,0,10,119.9,387.6)" />
<use xlink:href="#f1_23" transform="matrix(10,0,0,10,127.6,387.6)" />
<use xlink:href="#f1_2g" transform="matrix(10,0,0,10,138.6,387.6)" />
<use xlink:href="#f1_24" transform="matrix(10,0,0,10,143,387.6)" />
<use xlink:href="#f1_21" transform="matrix(10,0,0,10,150.5,387.6)" />
<use xlink:href="#f1_2i" transform="matrix(10,0,0,10,161.1,387.6)" />
<use xlink:href="#f1_1x" transform="matrix(10,0,0,10,168.6,387.6)" />
<use xlink:href="#f1_28" transform="matrix(10,0,0,10,175.6,387.6)" />
<use xlink:href="#f1_2h" transform="matrix(10,0,0,10,179.8,387.6)" />
<use xlink:href="#f1_21" transform="matrix(10,0,0,10,187.5,387.6)" />
<use xlink:href="#f1_2b" transform="matrix(10,0,0,10,197.8,387.6)" />
<use xlink:href="#f1_22" transform="matrix(10,0,0,10,205.7,387.6)" />
<use xlink:href="#f1_2e" transform="matrix(10,0,0,10,214.5,387.6)" />
<use xlink:href="#f1_2a" transform="matrix(5.8,0,0,5.8,219.6,392.7)" />
<use xlink:href="#f1_25" transform="matrix(10,0,0,10,227.3,387.6)" />
<use xlink:href="#f1_2a" transform="matrix(10,0,0,10,231.7,387.6)" />
<use xlink:href="#f1_2g" transform="matrix(10,0,0,10,242.9,387.6)" />
<use xlink:href="#f1_24" transform="matrix(10,0,0,10,247.1,387.6)" />
<use xlink:href="#f1_21" transform="matrix(10,0,0,10,254.8,387.6)" />
<use xlink:href="#f1_21" transform="matrix(10,0,0,10,265.3,387.6)" />
<use xlink:href="#f1_2k" transform="matrix(10,0,0,10,272.2,387.6)" />
<use xlink:href="#f1_2c" transform="matrix(10,0,0,10,279.8,387.6)" />
<use xlink:href="#f1_2e" transform="matrix(10,0,0,10,287.6,387.6)" />
<use xlink:href="#f1_21" transform="matrix(10,0,0,10,292.8,387.6)" />
<use xlink:href="#f1_2f" transform="matrix(10,0,0,10,299.7,387.6)" />
<use xlink:href="#f1_2f" transform="matrix(10,0,0,10,305.6,387.6)" />
<use xlink:href="#f1_25" transform="matrix(10,0,0,10,311.6,387.6)" />
<use xlink:href="#f1_2b" transform="matrix(10,0,0,10,315.9,387.6)" />
<use xlink:href="#f1_2a" transform="matrix(10,0,0,10,323.6,387.6)" />
<use xlink:href="#f1_2b" transform="matrix(10,0,0,10,334.8,387.6)" />
<use xlink:href="#f1_22" transform="matrix(10,0,0,10,342.6,387.6)" />
<use xlink:href="#f1_15" transform="matrix(10,0,0,10,351.3,387.6)" />
<use xlink:href="#f1_2a" transform="matrix(5.8,0,0,5.8,360.6,392.7)" />
<use xlink:href="#f1_g" transform="matrix(5.8,0,0,5.8,364.8,392.7)" />
<use xlink:href="#f1_2j" transform="matrix(10,0,0,10,370.5,387.6)" />
<use xlink:href="#f1_21" transform="matrix(10,0,0,10,381.3,387.6)" />
<use xlink:href="#f1_23" transform="matrix(10,0,0,10,391.8,387.6)" />
<use xlink:href="#f1_21" transform="matrix(10,0,0,10,399.5,387.6)" />
<use xlink:href="#f1_2g" transform="matrix(10,0,0,10,406.2,387.6)" />
<use xlink:href="#f1_u" transform="matrix(10,0,0,10,414.1,387.6)" />
</g>
<path d="M133.8,425.5h93.9" class="g3_31" />
<g fill="#000000" >
<use xlink:href="#f1_m" transform="matrix(5.9,0,0,5.9,159.7,413)" />
<use xlink:href="#f1_m" transform="matrix(5.9,0,0,5.9,181.3,413)" />
<use xlink:href="#f1_o" transform="matrix(5.9,0,0,5.9,205.6,413)" />
<use xlink:href="#f1_m" transform="matrix(5.9,0,0,5.9,220.8,413)" />
<use xlink:href="#f1_2a" transform="matrix(5.9,0,0,5.9,111.7,433.2)" />
<use xlink:href="#f1_m" transform="matrix(5.9,0,0,5.9,175.1,434.3)" />
<use xlink:href="#f1_m" transform="matrix(5.9,0,0,5.9,189.1,434.3)" />
<use xlink:href="#f1_m" transform="matrix(9.9,0,0,9.9,143.2,419.8)" />
<use xlink:href="#f1_1b" transform="matrix(9.9,0,0,9.9,169.3,419.8)" />
<use xlink:href="#f1_29" transform="matrix(9.9,0,0,9.9,186.6,419.8)" />
<use xlink:href="#f1_21" transform="matrix(9.9,0,0,9.9,198.3,419.8)" />
<use xlink:href="#f1_1q" transform="matrix(9.9,0,0,9.9,211.1,419.8)" />
<use xlink:href="#f1_15" transform="matrix(9.9,0,0,9.9,101.6,429.3)" />
<use xlink:href="#f1_2a" transform="matrix(9.9,0,0,9.9,166.5,441.1)" />
<use xlink:href="#f1_24" transform="matrix(9.9,0,0,9.9,180.5,441.1)" />
<use xlink:href="#f0_6" transform="matrix(9.9,0,0,9.9,134.8,419.8)" />
<use xlink:href="#f0_l" transform="matrix(9.9,0,0,9.9,151,419.8)" />
<use xlink:href="#f0_9" transform="matrix(9.9,0,0,9.9,121.7,429.3)" />
</g>
<path d="M626.5,168.3h18.7" class="g0_31" />
<g fill="#000000" >
<use xlink:href="#f0_x" transform="matrix(9.9,0,0,9.9,532.6,172.1)" />
<use xlink:href="#f2_m" transform="matrix(5.9,0,0,5.9,638.3,155.8)" />
<use xlink:href="#f2_h" transform="matrix(5.9,0,0,5.9,610.7,165.3)" />
<use xlink:href="#f2_l" transform="matrix(5.9,0,0,5.9,613.7,165.3)" />
<use xlink:href="#f2_s" transform="matrix(5.9,0,0,5.9,618.3,165.3)" />
<use xlink:href="#f2_2a" transform="matrix(5.9,0,0,5.9,522.2,176)" />
<use xlink:href="#f2_m" transform="matrix(5.9,0,0,5.9,637.2,177.1)" />
<use xlink:href="#f2_1q" transform="matrix(9.9,0,0,9.9,627.4,162.6)" />
<use xlink:href="#f2_15" transform="matrix(9.9,0,0,9.9,511.9,172.1)" />
<use xlink:href="#f2_h" transform="matrix(9.9,0,0,9.9,544.3,172.1)" />
<use xlink:href="#f2_m" transform="matrix(9.9,0,0,9.9,549.3,172.1)" />
<use xlink:href="#f2_i" transform="matrix(9.9,0,0,9.9,557,172.1)" />
<use xlink:href="#f2_l" transform="matrix(9.9,0,0,9.9,560.8,172.1)" />
<use xlink:href="#f2_r" transform="matrix(9.9,0,0,9.9,568.5,172.1)" />
<use xlink:href="#f2_s" transform="matrix(9.9,0,0,9.9,576.1,172.1)" />
<use xlink:href="#f2_4a" transform="matrix(9.9,0,0,9.9,585.3,172.1)" />
<use xlink:href="#f2_l" transform="matrix(9.9,0,0,9.9,595.2,172.1)" />
<use xlink:href="#f2_k" transform="matrix(9.9,0,0,9.9,602.8,172.1)" />
<use xlink:href="#f2_1a" transform="matrix(9.9,0,0,9.9,647.4,172.1)" />
<use xlink:href="#f2_j" transform="matrix(9.9,0,0,9.9,655,172.1)" />
<use xlink:href="#f2_1x" transform="matrix(9.9,0,0,9.9,659.3,172.1)" />
<use xlink:href="#f2_2g" transform="matrix(9.9,0,0,9.9,666.9,172.1)" />
<use xlink:href="#f2_2b" transform="matrix(9.9,0,0,9.9,672,172.1)" />
<use xlink:href="#f2_29" transform="matrix(9.9,0,0,9.9,679.6,172.1)" />
<use xlink:href="#f2_2a" transform="matrix(9.9,0,0,9.9,628,183.9)" />
<use xlink:href="#f1_2b" transform="matrix(10,0,0,10,509.3,227.7)" />
<use xlink:href="#f1_2e" transform="matrix(10,0,0,10,517,227.7)" />
</g>
<path d="M593.8,222.9h18.5" class="g2_31" />
<g fill="#000000" >
<use xlink:href="#f0_x" transform="matrix(9.9,0,0,9.9,548.6,226.7)" />
<use xlink:href="#f2_m" transform="matrix(5.9,0,0,5.9,605.6,210.4)" />
<use xlink:href="#f2_2a" transform="matrix(5.9,0,0,5.9,538.3,230.6)" />
<use xlink:href="#f2_m" transform="matrix(5.9,0,0,5.9,604.5,231.7)" />
<use xlink:href="#f2_1q" transform="matrix(9.9,0,0,9.9,594.8,217.2)" />
<use xlink:href="#f2_15" transform="matrix(9.9,0,0,9.9,528,226.7)" />
<use xlink:href="#f2_h" transform="matrix(9.9,0,0,9.9,560.3,226.7)" />
<use xlink:href="#f2_l" transform="matrix(9.9,0,0,9.9,565.3,226.7)" />
<use xlink:href="#f2_n" transform="matrix(9.9,0,0,9.9,572.9,226.7)" />
<use xlink:href="#f2_i" transform="matrix(9.9,0,0,9.9,580.5,226.7)" />
<use xlink:href="#f2_q" transform="matrix(9.9,0,0,9.9,584.3,226.7)" />
<use xlink:href="#f2_21" transform="matrix(9.9,0,0,9.9,614.2,226.7)" />
<use xlink:href="#f2_1m" transform="matrix(9.9,0,0,9.9,620.9,226.7)" />
<use xlink:href="#f2_j" transform="matrix(9.9,0,0,9.9,631.8,226.7)" />
<use xlink:href="#f2_1x" transform="matrix(9.9,0,0,9.9,636.1,226.7)" />
<use xlink:href="#f2_2g" transform="matrix(9.9,0,0,9.9,643.7,226.7)" />
<use xlink:href="#f2_2b" transform="matrix(9.9,0,0,9.9,648.7,226.7)" />
<use xlink:href="#f2_29" transform="matrix(9.9,0,0,9.9,656.3,226.7)" />
<use xlink:href="#f2_2a" transform="matrix(9.9,0,0,9.9,595.4,238.5)" />
<use xlink:href="#f1_l" transform="matrix(5.9,0,0,5.9,618.1,264.1)" />
<use xlink:href="#f1_t" transform="matrix(5.9,0,0,5.9,622.7,264.1)" />
<use xlink:href="#f1_l" transform="matrix(9.8,0,0,9.9,529.6,270.9)" />
<use xlink:href="#f1_21" transform="matrix(9.8,0,0,9.9,536.1,270.9)" />
<use xlink:href="#f1_1m" transform="matrix(9.8,0,0,9.9,542.7,270.9)" />
<use xlink:href="#f1_l" transform="matrix(9.8,0,0,9.9,567.8,270.9)" />
<use xlink:href="#f1_i" transform="matrix(9.8,0,0,9.9,575.5,270.9)" />
<use xlink:href="#f1_q" transform="matrix(9.8,0,0,9.9,579.3,270.9)" />
<use xlink:href="#f1_l" transform="matrix(9.8,0,0,9.9,597.4,270.9)" />
<use xlink:href="#f1_k" transform="matrix(9.8,0,0,9.9,605.1,270.9)" />
<use xlink:href="#f1_1a" transform="matrix(9.8,0,0,9.9,629.2,270.9)" />
<use xlink:href="#f0_6" transform="matrix(5.9,0,0,5.9,613.1,264.1)" />
<use xlink:href="#f0_13" transform="matrix(9.8,0,0,9.9,512.5,269.9)" />
<use xlink:href="#f0_1c" transform="matrix(9.8,0,0,9.9,636.3,269.9)" />
<use xlink:href="#f0_9" transform="matrix(9.8,0,0,9.9,557.6,270.9)" />
<use xlink:href="#f0_v" transform="matrix(9.8,0,0,9.9,588.5,270.9)" />
<use xlink:href="#f0_15" transform="matrix(9.8,0,0,9.9,512.5,277)" />
<use xlink:href="#f0_1e" transform="matrix(9.8,0,0,9.9,636.3,277)" />
<use xlink:href="#f4_3" transform="matrix(9.8,0,0,9.9,516.4,270.9)" />
<use xlink:href="#f0_x" transform="matrix(10,0,0,10,509.3,316.1)" />
<use xlink:href="#f5_1jz" transform="matrix(10,0,0,10,520.3,316.1)" />
<use xlink:href="#f5_m" transform="matrix(10,0,0,10,530.8,316.1)" />
<use xlink:href="#f5_i" transform="matrix(10,0,0,10,538.3,316.1)" />
<use xlink:href="#f5_l" transform="matrix(10,0,0,10,541.9,316.1)" />
<use xlink:href="#f5_r" transform="matrix(10,0,0,10,549.5,316.1)" />
<use xlink:href="#f5_s" transform="matrix(10,0,0,10,557.2,316.1)" />
<use xlink:href="#f5_4a" transform="matrix(10,0,0,10,567.4,316.1)" />
<use xlink:href="#f5_l" transform="matrix(10,0,0,10,578.8,316.1)" />
<use xlink:href="#f5_k" transform="matrix(10,0,0,10,586.3,316.1)" />
<use xlink:href="#f5_1jz" transform="matrix(5.8,0,0,5.8,593.8,310.9)" />
<use xlink:href="#f5_l" transform="matrix(5.8,0,0,5.8,598.2,310.9)" />
<use xlink:href="#f5_s" transform="matrix(5.8,0,0,5.8,602.6,310.9)" />
</g>
<path d="M612.4,311.3h17.3" class="g4_31" />
<g fill="#000000" >
<use xlink:href="#f1_m" transform="matrix(5.9,0,0,5.9,623.1,298.8)" />
<use xlink:href="#f1_m" transform="matrix(5.9,0,0,5.9,622.4,320)" />
<use xlink:href="#f1_1q" transform="matrix(9.9,0,0,9.9,613.6,305.6)" />
<use xlink:href="#f1_2a" transform="matrix(9.9,0,0,9.9,613.9,326.8)" />
<use xlink:href="#f1_4a" transform="matrix(10,0,0,10,633.2,316.1)" />
<use xlink:href="#f1_q" transform="matrix(10,0,0,10,644.6,316.1)" />
<use xlink:href="#f1_i" transform="matrix(10,0,0,10,652.1,316.1)" />
<use xlink:href="#f1_k" transform="matrix(10,0,0,10,655.8,316.1)" />
<use xlink:href="#f1_m" transform="matrix(10,0,0,10,663.5,316.1)" />
<use xlink:href="#f1_4a" transform="matrix(10,0,0,10,674,316.1)" />
<use xlink:href="#f1_l" transform="matrix(10,0,0,10,685.2,316.1)" />
<use xlink:href="#f1_k" transform="matrix(10,0,0,10,692.9,316.1)" />
<use xlink:href="#f1_m" transform="matrix(5.8,0,0,5.8,700.3,310.9)" />
<use xlink:href="#f1_n" transform="matrix(5.8,0,0,5.8,704.6,310.9)" />
<use xlink:href="#f1_1a" transform="matrix(10,0,0,10,711.3,316.1)" />
<use xlink:href="#f1_j" transform="matrix(10,0,0,10,717.2,316.1)" />
<use xlink:href="#f1_29" transform="matrix(10,0,0,10,721.3,316.1)" />
<use xlink:href="#f1_2b" transform="matrix(10,0,0,10,732.8,316.1)" />
<use xlink:href="#f1_28" transform="matrix(10,0,0,10,740.3,316.1)" />
<use xlink:href="#f1_21" transform="matrix(10,0,0,10,744.4,316.1)" />
<use xlink:href="#f6_1k9" transform="matrix(10,0,0,10,509.3,370.7)" />
<use xlink:href="#f3_1jz" transform="matrix(10,0,0,10,522.3,370.7)" />
<use xlink:href="#f3_l" transform="matrix(10,0,0,10,534.4,370.7)" />
<use xlink:href="#f3_n" transform="matrix(10,0,0,10,542.1,370.7)" />
<use xlink:href="#f3_l" transform="matrix(10,0,0,10,550,370.7)" />
<use xlink:href="#f3_m" transform="matrix(10,0,0,10,557.7,370.7)" />
</g>
<path d="M573.1,365.9H592" class="g5_31" />
<g fill="#000000" >
<use xlink:href="#f2_m" transform="matrix(5.9,0,0,5.9,585.1,353.4)" />
<use xlink:href="#f2_m" transform="matrix(5.9,0,0,5.9,584,374.7)" />
<use xlink:href="#f2_1q" transform="matrix(9.9,0,0,9.9,574,360.2)" />
<use xlink:href="#f2_2a" transform="matrix(9.9,0,0,9.9,574.6,381.5)" />
<use xlink:href="#f2_27" transform="matrix(10,0,0,10,596.4,370.7)" />
<use xlink:href="#f2_1a" transform="matrix(10,0,0,10,604.6,370.7)" />
<use xlink:href="#f2_j" transform="matrix(10,0,0,10,612.5,370.7)" />
<use xlink:href="#f2_29" transform="matrix(10,0,0,10,616.8,370.7)" />
<use xlink:href="#f2_2b" transform="matrix(10,0,0,10,629.1,370.7)" />
<use xlink:href="#f2_28" transform="matrix(10,0,0,10,636.9,370.7)" />
<use xlink:href="#f2_21" transform="matrix(10,0,0,10,641.2,370.7)" />
</g>
<path fill-rule="evenodd" d="M68.8,467.7H531.3v29.1H68.8V467.7Z" class="g6_31" />
<path fill-rule="evenodd" d="M67.6,466.6h465v31.3H67.6V466.6l1.5,29.9H530.9V468H69.1v28.5L67.6,466.6Z" class="g6_31" />
<g fill="#FFFFFF" >
<use xlink:href="#f7_a" transform="matrix(12,0,0,12,76.4,486.9)" />
<use xlink:href="#f7_e" transform="matrix(12,0,0,12,85.8,486.9)" />
<use xlink:href="#f7_7" transform="matrix(12,0,0,12,95.1,486.9)" />
<use xlink:href="#f7_11" transform="matrix(12,0,0,12,104.6,486.9)" />
<use xlink:href="#f7_13" transform="matrix(12,0,0,12,114.3,486.9)" />
<use xlink:href="#f7_10" transform="matrix(12,0,0,12,124.6,486.9)" />
<use xlink:href="#f7_o" transform="matrix(12,0,0,12,137,486.9)" />
<use xlink:href="#f7_n" transform="matrix(12,0,0,12,147.3,486.9)" />
<use xlink:href="#f7_o" transform="matrix(12,0,0,12,158.4,486.9)" />
<use xlink:href="#f7_v" transform="matrix(12,0,0,12,168.7,486.9)" />
<use xlink:href="#f7_x" transform="matrix(12,0,0,12,173.6,486.9)" />
<use xlink:href="#f7_v" transform="matrix(12,0,0,12,181.3,486.9)" />
<use xlink:href="#f7_15" transform="matrix(12,0,0,12,186.3,486.9)" />
<use xlink:href="#f7_19" transform="matrix(12,0,0,12,195.4,486.9)" />
<use xlink:href="#f7_q" transform="matrix(12,0,0,12,209.3,486.9)" />
<use xlink:href="#f7_v" transform="matrix(12,0,0,12,220.9,486.9)" />
<use xlink:href="#f7_14" transform="matrix(12,0,0,12,225.8,486.9)" />
<use xlink:href="#f7_15" transform="matrix(12,0,0,12,234.4,486.9)" />
<use xlink:href="#f7_13" transform="matrix(12,0,0,12,243.6,486.9)" />
<use xlink:href="#f7_v" transform="matrix(12,0,0,12,253.8,486.9)" />
<use xlink:href="#f7_o" transform="matrix(12,0,0,12,258.7,486.9)" />
<use xlink:href="#f7_16" transform="matrix(12,0,0,12,269,486.9)" />
<use xlink:href="#f7_15" transform="matrix(12,0,0,12,280.9,486.9)" />
<use xlink:href="#f7_v" transform="matrix(12,0,0,12,290.1,486.9)" />
<use xlink:href="#f7_10" transform="matrix(12,0,0,12,295,486.9)" />
<use xlink:href="#f7_z" transform="matrix(12,0,0,12,307.5,486.9)" />
<use xlink:href="#f7_q" transform="matrix(12,0,0,12,323.9,486.9)" />
<use xlink:href="#f7_v" transform="matrix(12,0,0,12,335.5,486.9)" />
<use xlink:href="#f7_n" transform="matrix(12,0,0,12,340.4,486.9)" />
<use xlink:href="#f7_t" transform="matrix(12,0,0,12,351.6,486.9)" />
<use xlink:href="#f7_13" transform="matrix(12,0,0,12,363.3,486.9)" />
<use xlink:href="#f7_n" transform="matrix(12,0,0,12,373.5,486.9)" />
<use xlink:href="#f7_y" transform="matrix(12,0,0,12,384.7,486.9)" />
<use xlink:href="#f7_14" transform="matrix(12,0,0,12,400.7,486.9)" />
<use xlink:href="#f7_s" transform="matrix(12,0,0,12,413.8,486.9)" />
<use xlink:href="#f7_10" transform="matrix(12,0,0,12,422.2,486.9)" />
<use xlink:href="#f7_13" transform="matrix(12,0,0,12,434.7,486.9)" />
<use xlink:href="#f7_a" transform="matrix(12,0,0,12,449.3,486.9)" />
<use xlink:href="#f7_1s" transform="matrix(12,0,0,12,459.3,486.9)" />
<use xlink:href="#f7_n" transform="matrix(12,0,0,12,471,486.9)" />
<use xlink:href="#f7_z" transform="matrix(12,0,0,12,482.1,486.9)" />
<use xlink:href="#f7_q" transform="matrix(12,0,0,12,494.2,486.9)" />
<use xlink:href="#f7_b" transform="matrix(12,0,0,12,510.3,486.9)" />
<use xlink:href="#f7_1s" transform="matrix(12,0,0,12,519.8,486.9)" />
</g>
<image preserveAspectRatio="none" x="113" y="522" width="728" height="614" xlink:href="img/1.png" />
<path d="M548.5,1029.4h15.1V994.8H548.5v34.6Z" class="g7_31" />
<image preserveAspectRatio="none" x="547" y="1017" width="17" height="22" xlink:href="img/2.png" />
<image preserveAspectRatio="none" x="547" y="1017" width="17" height="22" xlink:href="img/3.png" />
<image preserveAspectRatio="none" x="547" y="997" width="17" height="21" xlink:href="img/4.png" />
<image preserveAspectRatio="none" x="547" y="997" width="17" height="21" xlink:href="img/5.png" />
<path fill-rule="evenodd" d="M66.7,99.2H868.8v28.4H66.7V99.2l1.5,26.9H867.3V100.8H68.2v25.3L66.7,99.2Z" class="g7_31" />
<path fill-rule="evenodd" d="M68.2,124.5H867.7v2.9H68.2v-2.9Z" class="g6_31" />
<path fill-rule="evenodd" d="M68.2,99.4H867.7v3.1H68.2V99.4Z" class="g6_31" />
<g fill="#000000" >
<use xlink:href="#f8_l" transform="matrix(10,0,0,10,74.1,117.9)" />
<use xlink:href="#f8_m" transform="matrix(10,0,0,10,84.1,117.9)" />
<use xlink:href="#f8_k" transform="matrix(10,0,0,10,94.8,117.9)" />
<use xlink:href="#f8_n" transform="matrix(10,0,0,10,106.7,117.9)" />
<use xlink:href="#f8_f" transform="matrix(10,0,0,10,117.9,117.9)" />
<use xlink:href="#f8_m" transform="matrix(10,0,0,10,129,117.9)" />
<use xlink:href="#f8_n" transform="matrix(10,0,0,10,139.7,117.9)" />
<use xlink:href="#f8_k" transform="matrix(10,0,0,10,150.9,117.9)" />
<use xlink:href="#f8_g" transform="matrix(10,0,0,10,162.8,117.9)" />
<use xlink:href="#f8_j" transform="matrix(10,0,0,10,178,117.9)" />
<use xlink:href="#f8_h" transform="matrix(10,0,0,10,190.1,117.9)" />
<use xlink:href="#f8_e" transform="matrix(10,0,0,10,204.7,117.9)" />
<use xlink:href="#f8_m" transform="matrix(10,0,0,10,215.7,117.9)" />
<use xlink:href="#f8_j" transform="matrix(10,0,0,10,226.4,117.9)" />
<use xlink:href="#f8_i" transform="matrix(10,0,0,10,238.5,117.9)" />
</g>
<path fill-rule="evenodd" d="M67.7,1207.6H841.6v2.4H67.7v-2.4Z" class="g6_31" />
<path fill-rule="evenodd" d="M466.6,451.2V141h1.6V451.2h-1.6Z" class="g6_31" />
<defs>
<path d="M945,-20c0,0,47,75,125,153H57v74H1147l108,91c0,0,23,19,95,72c0,0,-134,103,-203,166H57v72H1070c0,0,-78,78,-125,154h85c0,0,88,-107,217,-217c0,0,130,-110,206,-154V349c0,0,-101,-58,-219,-162c0,0,-118,-103,-204,-207Z" 
id="f0_z"
transform="scale(0.001,-0.001)" />

<path d="M395,0V936H34v115H898V936H537V0Z" 
id="f1_1k"
transform="scale(0.001,-0.001)" />

<path d="M140,0V163H285V0Z" 
id="f1_i"
transform="scale(0.001,-0.001)" />

<path d="M125,0V1051H923V936H268V597H878V482H268V115H953V0Z" 
id="f1_15"
transform="scale(0.001,-0.001)" />

<path d="M106,0V635c0,0,0,141,-5,173H228c0,0,1,-4,2,-21c0,0,1,-16,2,-37c0,0,1,-22,2,-81h2c0,0,47,84,108,119c0,0,60,34,151,34c0,0,132,0,194,-66c0,0,61,-66,61,-218V0H615V512c0,0,0,80,-15,124c0,0,-16,44,-50,63c0,0,-35,20,-101,20c0,0,-97,0,-153,-67c0,0,-56,-66,-56,-184V0Z" 
id="f1_2a"
transform="scale(0.001,-0.001)" />

<path d="M75,256V367H817V256Zm0,383V749H817V639Z" 
id="f1_x"
transform="scale(0.001,-0.001)" />

<path d="M77,0V95c0,0,38,87,93,154c0,0,55,67,115,121c0,0,60,54,120,100c0,0,59,46,107,93c0,0,47,46,77,97c0,0,29,50,29,114c0,0,0,87,-50,135c0,0,-51,47,-141,47c0,0,-86,0,-142,-46c0,0,-55,-47,-65,-131L83,791c0,0,15,126,107,201c0,0,92,75,237,75c0,0,159,0,244,-75c0,0,85,-75,85,-213c0,0,0,-61,-28,-122c0,0,-28,-60,-83,-120c0,0,-55,-61,-211,-188c0,0,-86,-70,-136,-126c0,0,-51,-56,-73,-109H773V0Z" 
id="f1_m"
transform="scale(0.001,-0.001)" />

<path d="M116,0V114H384V923L147,754V881l248,170H519V114H775V0Z" 
id="f1_l"
transform="scale(0.001,-0.001)" />

<path d="M125,0V1051H268V524l506,527H942L495,595L1002,0H825L405,507L268,403V0Z" 
id="f1_1b"
transform="scale(0.001,-0.001)" />

<path d="M48,0V106L689,936H103v115H850V948L210,115H885V0Z" 
id="f1_1q"
transform="scale(0.001,-0.001)" />

<path d="M643,478c0,0,-11,128,-65,187c0,0,-54,59,-154,59c0,0,-98,0,-155,-66c0,0,-57,-65,-62,-180ZM431,-14c0,0,-179,0,-272,106c0,0,-94,107,-94,317c0,0,0,200,94,307c0,0,93,106,267,106c0,0,356,0,356,-429V375H206c0,0,0,-138,57,-213c0,0,58,-75,168,-75c0,0,87,0,140,35c0,0,53,35,71,88L760,177c0,0,-72,-191,-329,-191Z" 
id="f1_21"
transform="scale(0.001,-0.001)" />

<path d="M370,-316c0,0,-141,152,-208,323C162,7,95,179,95,394v3c0,0,0,215,67,387c0,0,68,171,208,323H500c0,0,-140,-155,-205,-330c0,0,-65,-175,-65,-382c0,0,0,-207,64,-381c0,0,65,-172,206,-330Z" 
id="f1_c"
transform="scale(0.001,-0.001)" />

<path d="M9,-316c0,0,140,157,205,329c0,0,65,174,65,382c0,0,0,208,-65,382c0,0,-66,174,-205,330H139c0,0,141,-152,208,-324c0,0,67,-172,67,-386v-3c0,0,0,-216,-67,-388c0,0,-68,-170,-208,-322Z" 
id="f1_d"
transform="scale(0.001,-0.001)" />

<path d="M106,0V620c0,0,0,85,-5,188H228c0,0,6,-138,6,-165h3c0,0,32,103,74,141c0,0,42,38,118,38c0,0,27,0,54,-7V692c0,0,-26,7,-71,7c0,0,-84,0,-128,-72c0,0,-44,-72,-44,-206V0Z" 
id="f1_2e"
transform="scale(0.001,-0.001)" />

<path d="M62,-123V268c0,0,0,230,56,452c0,0,47,190,134,334c0,0,87,144,204,242c0,0,85,73,194,119l18,-16c0,0,-211,-145,-335,-339c0,0,-98,-156,-149,-374c0,0,-50,-218,-50,-403V-123Z" 
id="f0_10"
transform="scale(0.001,-0.001)" />

<path d="M617,-123V283c0,0,0,236,-63,459c0,0,-63,223,-188,392c0,0,-108,146,-282,265l17,16c0,0,180,-76,320,-248c0,0,139,-172,204,-417c0,0,64,-245,64,-482V-123Z" 
id="f0_19"
transform="scale(0.001,-0.001)" />

<path d="M0,356v74H784V356Z" 
id="f0_6"
transform="scale(0.001,-0.001)" />

<path d="M355,0V355H0v72H355V784h72V427H782V355H427V0Z" 
id="f0_5"
transform="scale(0.001,-0.001)" />

<path d="M62,-123V1415h72V-123Z" 
id="f0_11"
transform="scale(0.001,-0.001)" />

<path d="M617,-123V1415h72V-123Z" 
id="f0_1a"
transform="scale(0.001,-0.001)" />

<path d="M650,-123c0,0,-180,75,-319,246c0,0,-140,172,-205,418c0,0,-64,245,-64,481v393h72V1007c0,0,0,-236,63,-459c0,0,63,-223,189,-391c0,0,108,-145,282,-265l-18,-15Z" 
id="f0_12"
transform="scale(0.001,-0.001)" />

<path d="M101,-123l-17,15c0,0,210,144,334,339c0,0,99,156,149,373c0,0,50,218,50,403v408h72V1022c0,0,0,-230,-56,-451c0,0,-48,-191,-134,-335C499,236,412,92,295,-5c0,0,-84,-73,-194,-118Z" 
id="f0_1b"
transform="scale(0.001,-0.001)" />

<path d="M109,-316V1107H413v-96H239V-220H413v-96Z" 
id="f1_1r"
transform="scale(0.001,-0.001)" />

<path d="M545,-14c0,0,-129,0,-225,46c0,0,-96,47,-149,137c0,0,-53,89,-53,213v669H260V394c0,0,0,-144,73,-219c0,0,74,-74,212,-74c0,0,141,0,220,77c0,0,79,77,79,226v647H985V396c0,0,0,-128,-54,-220C931,176,877,83,778,34c0,0,-98,-48,-233,-48Z" 
id="f1_1l"
transform="scale(0.001,-0.001)" />

<path d="M381,-14c0,0,-150,0,-232,49C149,35,67,85,43,190l118,23c0,0,17,-65,71,-96c0,0,54,-30,149,-30c0,0,102,0,150,31c0,0,47,32,47,95c0,0,0,47,-33,77c0,0,-33,30,-106,49l-96,26c0,0,-115,30,-164,58c0,0,-49,29,-77,70c0,0,-27,41,-27,101c0,0,0,110,78,168c0,0,79,57,230,57c0,0,133,0,212,-47c0,0,79,-47,100,-150L574,607c0,0,-12,53,-60,82c0,0,-49,29,-131,29c0,0,-91,0,-135,-28c0,0,-43,-27,-43,-83c0,0,0,-34,18,-57c0,0,18,-22,53,-38c0,0,35,-15,148,-43c0,0,106,-27,153,-50c0,0,47,-22,75,-50c0,0,27,-27,42,-64c0,0,15,-36,15,-82c0,0,0,-114,-86,-176c0,0,-87,-61,-242,-61Z" 
id="f1_2f"
transform="scale(0.001,-0.001)" />

<path d="M102,0V808H236V0Zm0,979v128H236V979Z" 
id="f1_25"
transform="scale(0.001,-0.001)" />

<path d="M398,93c0,0,63,0,112,37c0,0,49,38,76,107c0,0,27,70,27,166c0,0,0,99,-27,170c0,0,-27,71,-75,109c0,0,-49,38,-111,38c0,0,-103,0,-150,-75c0,0,-47,-75,-47,-242c0,0,0,-165,44,-238c0,0,44,-72,151,-72Zm11,-409c0,0,-132,0,-211,52c0,0,-78,52,-100,147l135,20c0,0,13,-56,59,-87c0,0,46,-30,121,-30c0,0,200,0,200,234V150h-1C612,150,574,72,507,33C507,33,441,-5,352,-5c0,0,-148,0,-218,98c0,0,-70,98,-70,309c0,0,0,214,75,316c0,0,75,101,228,101c0,0,86,0,149,-39c0,0,63,-39,97,-111h2c0,0,0,22,3,78c0,0,3,55,6,61H751c0,0,-4,-41,-4,-167V23c0,0,0,-339,-338,-339Z" 
id="f1_23"
transform="scale(0.001,-0.001)" />

<path d="M12,-316v96H186V1011H12v96H316V-316Z" 
id="f1_1t"
transform="scale(0.001,-0.001)" />

<path d="M0,134v72H785V134ZM0,353v74H785V353ZM0,574v72H785V574Z" 
id="f0_x"
transform="scale(0.001,-0.001)" />

<path d="M53,0V145c0,0,41,91,117,177c0,0,75,85,190,179c0,0,111,89,155,147c0,0,44,58,44,114c0,0,0,139,-138,139c0,0,-67,0,-102,-37c0,0,-36,-36,-46,-109L62,767c0,0,18,146,109,223c0,0,92,77,249,77c0,0,170,0,261,-78c0,0,91,-77,91,-218c0,0,0,-74,-29,-133c0,0,-29,-60,-75,-110c0,0,-45,-51,-101,-95c0,0,-55,-44,-107,-86c0,0,-53,-41,-96,-84c0,0,-42,-42,-63,-91H789V0Z" 
id="f2_m"
transform="scale(0.001,-0.001)" />

<path d="M107,0V627c0,0,0,65,-2,106c0,0,-2,42,-4,75H301c0,0,2,-15,6,-77c0,0,3,-61,3,-85h3c0,0,43,93,107,135c0,0,64,41,153,41c0,0,128,0,197,-79c0,0,68,-79,68,-231V0H630V452c0,0,0,213,-144,213c0,0,-76,0,-123,-65c0,0,-47,-66,-47,-168V0Z" 
id="f2_2a"
transform="scale(0.001,-0.001)" />

<path d="M60,305V487H448V305Z" 
id="f2_h"
transform="scale(0.001,-0.001)" />

<path d="M102,0V1051H322V574l474,477h257L604,606L1089,0H830L452,483L322,383V0Z" 
id="f2_1b"
transform="scale(0.001,-0.001)" />

<path d="M46,0V156L614,879H102v172H859V898L290,172H889V0Z" 
id="f2_1q"
transform="scale(0.001,-0.001)" />

<path d="M595,495c0,0,-6,98,-47,147c0,0,-41,49,-111,49c0,0,-74,0,-114,-51c0,0,-40,-52,-42,-145ZM437,-14c0,0,-182,0,-280,107c0,0,-97,108,-97,315c0,0,0,199,99,307c0,0,99,107,281,107c0,0,174,0,266,-115c0,0,91,-115,91,-337v-6H280c0,0,0,-118,43,-179c0,0,44,-60,125,-60c0,0,111,0,140,97L786,205c0,0,-86,-219,-349,-219Z" 
id="f2_21"
transform="scale(0.001,-0.001)" />

<path d="M102,0V1051H929V881H322V617H883V447H322V170H959V0Z" 
id="f2_15"
transform="scale(0.001,-0.001)" />

<path d="M357,0V881H17v170H917V881H577V0Z" 
id="f2_1k"
transform="scale(0.001,-0.001)" />

<path d="M104,0V228H319V0Z" 
id="f2_i"
transform="scale(0.001,-0.001)" />

<path d="M63,217V382H830V217Zm0,411V795H830V628Z" 
id="f2_x"
transform="scale(0.001,-0.001)" />

<path d="M107,0V618c0,0,0,66,-2,111c0,0,-2,44,-4,79H301c0,0,2,-14,6,-83c0,0,3,-68,3,-91h3c0,0,31,85,55,120c0,0,24,35,56,52c0,0,33,16,83,16c0,0,40,0,64,-11V636c0,0,-50,11,-89,11c0,0,-78,0,-122,-63c0,0,-44,-63,-44,-188V0Z" 
id="f2_2e"
transform="scale(0.001,-0.001)" />

<path d="M141,0V1051H283V0Z" 
id="f1_19"
transform="scale(0.001,-0.001)" />

<path d="M278,-11c0,0,-162,0,-162,182V710H23v98h99l39,181h90V808H400V710H251V200c0,0,0,-58,19,-82c0,0,19,-23,66,-23c0,0,27,0,77,10V6c0,0,-66,-17,-135,-17Z" 
id="f1_2g"
transform="scale(0.001,-0.001)" />

<path d="M413,-14c0,0,-170,0,-259,106c0,0,-89,107,-89,313c0,0,0,203,89,310c0,0,90,107,257,107c0,0,124,0,206,-64c0,0,81,-64,102,-177L581,571c0,0,-10,67,-53,106c0,0,-42,40,-121,40c0,0,-106,0,-154,-71c0,0,-48,-71,-48,-239c0,0,0,-161,51,-238c0,0,51,-78,153,-78c0,0,71,0,120,39c0,0,48,39,59,119l136,-9C724,240,708,124,624,55c0,0,-83,-69,-211,-69Z" 
id="f1_1z"
transform="scale(0.001,-0.001)" />

<path d="M339,87c0,0,74,0,132,34c0,0,57,33,90,91c0,0,34,59,34,121v66L448,396c0,0,-95,-2,-144,-19c0,0,-49,-18,-75,-55c0,0,-26,-38,-26,-98c0,0,0,-65,35,-101c0,0,36,-36,101,-36ZM309,-14c0,0,-122,0,-183,64c0,0,-61,64,-61,176c0,0,0,125,82,192c0,0,83,67,266,72l182,3v44c0,0,0,98,-42,141c0,0,-42,43,-132,43c0,0,-90,0,-131,-31c0,0,-41,-31,-49,-98L101,604c0,0,34,218,323,218c0,0,153,0,229,-70c0,0,77,-69,77,-202V202c0,0,0,-59,16,-90c0,0,16,-30,60,-30c0,0,19,0,44,5V4C850,4,799,-7,746,-7c0,0,-75,0,-109,38c0,0,-33,40,-38,124h-4C595,155,543,62,475,24c0,0,-68,-38,-166,-38Z" 
id="f1_1x"
transform="scale(0.001,-0.001)" />

<path d="M453,84c0,0,101,0,146,75c0,0,46,75,46,244c0,0,0,169,-45,243c0,0,-45,73,-146,73c0,0,-113,0,-165,-78c0,0,-52,-78,-52,-246c0,0,0,-159,51,-235c0,0,51,-76,165,-76Zm36,-98c0,0,-92,0,-153,33c0,0,-61,33,-99,107h-1c0,0,0,-24,-3,-71c0,0,-3,-48,-5,-55H98c0,0,5,40,5,166v941H237V792c0,0,0,-49,-3,-114h3c0,0,38,77,99,111c0,0,62,33,153,33c0,0,153,0,225,-103c0,0,72,-103,72,-311c0,0,0,-422,-297,-422Z" 
id="f1_1y"
transform="scale(0.001,-0.001)" />

<path d="M615,0V512c0,0,0,85,-15,126c0,0,-16,42,-52,61c0,0,-36,20,-99,20c0,0,-95,0,-152,-66c0,0,-57,-66,-57,-177V0H106V1107H240V819c0,0,0,-45,-2,-94c0,0,-3,-48,-4,-56h2c0,0,44,79,105,116c0,0,60,37,154,37c0,0,131,0,193,-65c0,0,62,-65,62,-219V0Z" 
id="f1_24"
transform="scale(0.001,-0.001)" />

<path d="M420,84c0,0,121,0,173,78c0,0,52,77,52,243c0,0,0,167,-50,243c0,0,-50,76,-167,76c0,0,-118,0,-170,-78c0,0,-53,-77,-53,-241c0,0,0,-160,52,-241c0,0,52,-80,163,-80Zm1,-98c0,0,-176,0,-267,107c0,0,-90,108,-90,312c0,0,0,417,362,417c0,0,185,0,272,-102c0,0,88,-101,88,-315c0,0,0,-212,-94,-316C692,89,599,-14,421,-14Z" 
id="f1_2b"
transform="scale(0.001,-0.001)" />

<path d="M224,0L-1,808H131L267,259c0,0,5,-18,32,-147l13,55L480,808H624L765,253L800,112l23,103L976,808h131L876,0H720L579,571L552,697c0,0,-7,-33,-21,-96C531,601,517,537,379,0Z" 
id="f1_2j"
transform="scale(0.001,-0.001)" />

<path d="M135,0V710H22v98H135v91c0,0,0,110,49,158c0,0,48,49,148,49c0,0,56,0,95,-9V994c0,0,-34,6,-60,6c0,0,-51,0,-75,-26c0,0,-23,-26,-23,-94V808H427V710H269V0Z" 
id="f1_22"
transform="scale(0.001,-0.001)" />

<path d="M106,0V635c0,0,0,141,-5,173H228c0,0,1,-4,2,-21c0,0,1,-16,2,-37c0,0,1,-22,2,-81h2c0,0,44,86,100,120c0,0,56,33,136,33c0,0,92,0,145,-36c0,0,54,-37,75,-117h2c0,0,42,82,101,117c0,0,59,36,143,36c0,0,123,0,178,-66c0,0,56,-67,56,-218V0H1039V512c0,0,0,117,-32,162c0,0,-32,45,-116,45c0,0,-88,0,-136,-66c0,0,-49,-65,-49,-185V0H573V512c0,0,0,117,-32,162c0,0,-32,45,-116,45c0,0,-86,0,-136,-66c0,0,-50,-66,-50,-185V0Z" 
id="f1_29"
transform="scale(0.001,-0.001)" />

<path d="M298,0L5,808H148L326,282c0,0,10,-29,51,-176l27,87l29,88L616,808H759L457,0Z" 
id="f1_2i"
transform="scale(0.001,-0.001)" />

<path d="M17,0L304,415L31,808H179L380,493L580,808H730L457,417L747,0H598L380,331L162,0Z" 
id="f1_2k"
transform="scale(0.001,-0.001)" />

<path d="M453,84c0,0,100,0,146,74c0,0,46,73,46,247c0,0,0,169,-46,241c0,0,-45,73,-145,73c0,0,-80,0,-125,-34c0,0,-45,-34,-68,-105c0,0,-24,-71,-24,-186c0,0,0,-159,51,-234c0,0,51,-76,165,-76ZM103,-316V643c0,0,0,124,-5,165H228c0,0,1,-3,3,-22c0,0,1,-18,3,-56c0,0,2,-38,2,-52h3c0,0,36,75,94,110c0,0,59,34,156,34c0,0,149,0,223,-100c0,0,74,-100,74,-314c0,0,0,-422,-297,-422c0,0,-187,0,-251,140h-4c0,0,3,-6,3,-126V-316Z" 
id="f1_2c"
transform="scale(0.001,-0.001)" />

<path d="M140,0V154H285V0Zm0,653V808H285V653Z" 
id="f1_u"
transform="scale(0.001,-0.001)" />

<path d="M137,-195c0,0,70,102,70,195H142V163H287V38c0,0,0,-78,-14,-131c0,0,-14,-53,-44,-102Z" 
id="f1_g"
transform="scale(0.001,-0.001)" />

<path d="M557,522c0,0,238,0,238,211c0,0,0,204,-244,204H268V522ZM125,0V1051H568c0,0,176,0,273,-83c0,0,97,-82,97,-233c0,0,0,-149,-97,-237c0,0,-97,-88,-264,-88H268V0Z" 
id="f1_1g"
transform="scale(0.001,-0.001)" />

<path d="M395,89c0,0,115,0,166,79c0,0,51,79,51,246c0,0,0,160,-51,235c0,0,-51,75,-164,75c0,0,-102,0,-147,-75c0,0,-45,-75,-45,-244c0,0,0,-170,45,-243c0,0,45,-73,145,-73ZM361,-14c0,0,-153,0,-225,102c0,0,-72,103,-72,312c0,0,0,422,297,422c0,0,92,0,153,-33c0,0,61,-34,98,-107h2l-2,90v335H747V166c0,0,0,-126,4,-166H623c0,0,-2,12,-5,55c0,0,-3,44,-3,75h-3c0,0,-37,-78,-98,-111c0,0,-62,-33,-153,-33Z" 
id="f1_20"
transform="scale(0.001,-0.001)" />

<path d="M0,214v74H784V214ZM0,494v72H784V494Z" 
id="f0_9"
transform="scale(0.001,-0.001)" />

<path d="M461,129c0,0,193,0,193,276c0,0,0,144,-47,209c0,0,-47,65,-136,65c0,0,-191,0,-191,-274c0,0,0,-135,46,-205c0,0,47,-71,135,-71Zm2,-143c0,0,-188,0,-296,111C167,97,60,209,60,405c0,0,0,194,107,306c0,0,108,111,301,111c0,0,197,0,301,-107c0,0,105,-108,105,-310c0,0,0,-197,-109,-308C765,97,656,-14,463,-14Z" 
id="f2_2b"
transform="scale(0.001,-0.001)" />

<path d="M76,301V408H786V301Zm0,305V713H786V606Z" 
id="f3_x"
transform="scale(0.001,-0.001)" />

<path d="M-9,302V410H774V302Z" 
id="f3_1jz"
transform="scale(0.001,-0.001)" />

<path d="M26,0V54L154,74V926L26,945v55H878V746H810L786,908c0,0,-83,10,-241,10H389V551H651l23,111h67V355H674L651,468H389V82H578c0,0,193,0,252,12l43,185h68L927,0Z" 
id="f3_15"
transform="scale(0.001,-0.001)" />

<path d="M360,132c0,0,50,0,90,27c0,0,41,27,64,74c0,0,23,47,23,100v41L430,373c0,0,-73,-3,-104,-16c0,0,-31,-13,-47,-40c0,0,-16,-27,-16,-72c0,0,0,-57,27,-85c0,0,26,-28,70,-28ZM293,-14c0,0,-117,0,-183,63c0,0,-65,64,-65,180c0,0,0,125,81,191c0,0,82,65,237,67l174,3v41c0,0,0,79,-27,117c0,0,-28,38,-91,38c0,0,-58,0,-85,-26c0,0,-27,-27,-34,-88L81,583c0,0,20,118,108,179c0,0,88,60,239,60c0,0,153,0,236,-75c0,0,83,-75,83,-214V239c0,0,0,-67,15,-93c0,0,15,-26,51,-26c0,0,24,0,46,5V11c0,0,-18,-5,-33,-8c0,0,-15,-3,-30,-5c0,0,-15,-3,-32,-4c0,0,-17,-2,-39,-2c0,0,-79,0,-117,38c0,0,-37,39,-45,114h-4c0,0,-88,-158,-266,-158Z" 
id="f2_1x"
transform="scale(0.001,-0.001)" />

<path d="M446,129c0,0,83,0,128,73c0,0,46,72,46,206c0,0,0,131,-44,201c0,0,-43,71,-128,71c0,0,-85,0,-126,-69c0,0,-41,-68,-41,-208c0,0,0,-274,165,-274ZM357,-14c0,0,-141,0,-217,109c0,0,-77,110,-77,308c0,0,0,201,81,310c0,0,81,109,229,109c0,0,86,0,148,-35c0,0,62,-36,96,-107h1l-1,132v295H827V176c0,0,0,-75,6,-176H630c0,0,-3,11,-7,56c0,0,-5,46,-5,76h-3c0,0,-67,-146,-258,-146Z" 
id="f2_20"
transform="scale(0.001,-0.001)" />

<path d="M556,540c0,0,91,0,140,45c0,0,49,45,49,130c0,0,0,166,-195,166H322V540ZM102,0V1051H574c0,0,189,0,291,-87c0,0,102,-87,102,-246c0,0,0,-101,-46,-181c0,0,-47,-80,-133,-124c0,0,-86,-43,-205,-43H322V0Z" 
id="f2_1g"
transform="scale(0.001,-0.001)" />

<path d="M103,0V1107H237V0Z" 
id="f1_28"
transform="scale(0.001,-0.001)" />

<path d="M355,-14c0,0,-133,0,-194,65c0,0,-62,66,-62,219V808H234V296c0,0,0,-80,16,-124c0,0,16,-44,50,-64c0,0,34,-19,101,-19c0,0,97,0,153,66c0,0,55,67,55,185V808H744V172c0,0,0,-141,4,-172H621c0,0,0,4,-1,20c0,0,-1,17,-2,38c0,0,-1,21,-3,80h-2C613,138,567,55,506,20c0,0,-61,-34,-151,-34Z" 
id="f1_2h"
transform="scale(0.001,-0.001)" />

<path d="M530,344V900c0,0,-1,-5,-20,-40c0,0,-20,-35,-30,-49L211,414L171,359L159,344ZM530,0V239H35V343l481,708H657V344H805V239H657V0Z" 
id="f1_o"
transform="scale(0.001,-0.001)" />

<path d="M140,-21c0,0,-26,0,-44,17C96,-4,79,13,79,40c0,0,0,19,6,33c0,0,8,20,34,55c0,0,46,60,64,126c0,0,32,114,41,321H190c0,0,-55,0,-81,-18c0,0,-44,-26,-80,-89H0c0,0,42,129,98,178c0,0,43,37,120,37H743V575H562c0,0,-27,-171,-27,-327c0,0,0,-77,27,-110c0,0,27,-33,67,-33c0,0,33,0,56,22c0,0,24,22,31,65h27C743,192,730,74,686,26c0,0,-44,-47,-98,-47c0,0,-58,0,-97,51c0,0,-39,53,-39,198c0,0,0,91,28,347H286c0,0,-23,-390,-56,-494c0,0,-33,-102,-90,-102Z" 
id="f0_l"
transform="scale(0.001,-0.001)" />

<path d="M96,0V155H357V873L104,716V881l264,170H566V155H807V0Z" 
id="f2_l"
transform="scale(0.001,-0.001)" />

<path d="M427,132c0,0,82,0,120,43c0,0,39,42,39,138c0,0,0,165,-165,165c0,0,-76,0,-116,-43c0,0,-41,-44,-41,-125c0,0,0,-93,40,-135c0,0,41,-43,123,-43Zm-3,493c0,0,69,0,103,35c0,0,34,35,34,116c0,0,0,75,-34,109c0,0,-35,35,-104,35c0,0,-136,0,-136,-144c0,0,0,-151,137,-151Zm2,-639c0,0,-180,0,-279,81c0,0,-99,81,-99,228c0,0,0,100,59,169c0,0,58,69,156,86v3c0,0,-85,18,-138,84c0,0,-52,66,-52,151c0,0,0,130,91,204c0,0,92,75,259,75c0,0,171,0,262,-73c0,0,92,-73,92,-207c0,0,0,-86,-52,-151c0,0,-52,-65,-139,-82v-3c0,0,101,-16,159,-83c0,0,58,-67,58,-172c0,0,0,-147,-98,-229c0,0,-98,-81,-279,-81Z" 
id="f2_s"
transform="scale(0.001,-0.001)" />

<path d="M219,0c0,0,0,131,34,254c0,0,34,123,99,250c0,0,65,127,236,375H66v172H783V885c0,0,-71,-112,-134,-217c0,0,-63,-105,-110,-212c0,0,-47,-106,-75,-218C464,238,437,125,437,0Z" 
id="f2_r"
transform="scale(0.001,-0.001)" />

<path d="M182,125L64,243L330,510L67,773L185,889L448,628L710,890L828,773L565,508L828,247L710,128L448,392L182,125Z" 
id="f2_4a"
transform="scale(0.001,-0.001)" />

<path d="M423,151c0,0,60,0,92,36c0,0,33,37,47,119c0,0,15,81,15,220c0,0,0,145,-15,226c0,0,-14,80,-45,115c0,0,-31,36,-91,36c0,0,-63,0,-96,-36c0,0,-32,-35,-46,-115c0,0,-14,-81,-14,-226c0,0,0,-144,15,-225c0,0,14,-80,46,-115c0,0,32,-35,92,-35ZM421,-14c0,0,-361,0,-361,540c0,0,0,189,40,308c0,0,40,119,119,176c0,0,79,57,208,57c0,0,187,0,273,-135c0,0,87,-135,87,-406c0,0,0,-266,-91,-403c0,0,-92,-137,-275,-137Z" 
id="f2_k"
transform="scale(0.001,-0.001)" />

<path d="M391,-14c0,0,-163,0,-251,70c0,0,-88,71,-117,230l219,32c0,0,13,-82,50,-121c0,0,36,-40,100,-40c0,0,66,0,100,44c0,0,34,44,34,127V879H316v172H745V333c0,0,0,-164,-93,-256c0,0,-93,-91,-261,-91Z" 
id="f2_1a"
transform="scale(0.001,-0.001)" />

<path d="M15,-29L232,1107H410L196,-29Z" 
id="f2_j"
transform="scale(0.001,-0.001)" />

<path d="M313,-13c0,0,-92,0,-142,50c0,0,-50,50,-50,152V666H19V808H131l66,189H328V808H481V666H328V245c0,0,0,-59,23,-87c0,0,22,-28,69,-28c0,0,25,0,70,10V11c0,0,-77,-24,-177,-24Z" 
id="f2_2g"
transform="scale(0.001,-0.001)" />

<path d="M107,0V627c0,0,0,65,-2,106c0,0,-2,42,-4,75H301c0,0,2,-15,6,-77c0,0,3,-61,3,-85h3c0,0,39,93,97,135c0,0,58,41,138,41c0,0,185,0,225,-176h4c0,0,41,94,99,135c0,0,57,41,146,41c0,0,118,0,180,-80c0,0,62,-80,62,-230V0H1056V452c0,0,0,213,-123,213c0,0,-61,0,-100,-59c0,0,-39,-60,-43,-164V0H582V452c0,0,0,213,-122,213c0,0,-64,0,-104,-65c0,0,-40,-65,-40,-168V0Z" 
id="f2_29"
transform="scale(0.001,-0.001)" />

<path d="M421,-17c0,0,-169,0,-269,77C152,60,52,138,35,285l213,19c0,0,21,-151,173,-151c0,0,75,0,117,37c0,0,42,37,42,114c0,0,0,70,-51,107c0,0,-51,38,-151,38H305V618h69c0,0,90,0,135,37c0,0,46,37,46,106c0,0,0,65,-36,102c0,0,-36,38,-106,38c0,0,-65,0,-105,-36c0,0,-39,-36,-45,-102L53,778c0,0,16,135,113,212c0,0,96,77,251,77c0,0,165,0,258,-75c0,0,93,-74,93,-205c0,0,0,-99,-58,-162c0,0,-58,-64,-167,-85v-3c0,0,121,-14,186,-79c0,0,65,-65,65,-167c0,0,0,-147,-96,-228c0,0,-97,-80,-277,-80Z" 
id="f2_n"
transform="scale(0.001,-0.001)" />

<path d="M434,149c0,0,71,0,111,50c0,0,39,50,39,139c0,0,0,89,-41,137c0,0,-42,47,-114,47c0,0,-69,0,-111,-44c0,0,-42,-45,-42,-118c0,0,0,-91,44,-151c0,0,43,-60,114,-60Zm7,-163c0,0,-186,0,-285,129C156,115,56,246,56,501c0,0,0,282,101,424c0,0,101,142,289,142c0,0,134,0,211,-59c0,0,77,-59,109,-183L568,798c0,0,-28,103,-126,103c0,0,-85,0,-133,-85c0,0,-48,-84,-48,-255c0,0,34,56,93,86c0,0,60,30,135,30c0,0,141,0,223,-90c0,0,82,-89,82,-243c0,0,0,-168,-94,-263c0,0,-94,-95,-259,-95Z" 
id="f2_q"
transform="scale(0.001,-0.001)" />

<path d="M399,0L10,1051H240L457,376c0,0,20,-66,55,-198l15,64l38,134l216,675h228L622,0Z" 
id="f2_1m"
transform="scale(0.001,-0.001)" />

<path d="M416,464c0,0,58,0,108,27c0,0,50,26,78,75c0,0,29,49,29,111c0,0,0,127,-58,204c0,0,-58,77,-156,77c0,0,-97,0,-153,-66c0,0,-56,-66,-56,-179c0,0,0,-115,56,-182c0,0,56,-67,152,-67ZM397,-14c0,0,-123,0,-197,51c0,0,-75,52,-107,168l129,20c0,0,40,-131,177,-131c0,0,116,0,179,107c0,0,64,107,67,306c0,0,-30,-67,-103,-108c0,0,-72,-40,-159,-40c0,0,-141,0,-226,97c0,0,-85,97,-85,257c0,0,0,165,92,259c0,0,93,95,257,95c0,0,176,0,266,-130c0,0,90,-130,90,-390c0,0,0,-271,-99,-416c0,0,-98,-145,-281,-145Z" 
id="f1_t"
transform="scale(0.001,-0.001)" />

<path d="M436,0L7,1051H157L448,311L510,125l63,186l289,740h150L583,0Z" 
id="f1_1m"
transform="scale(0.001,-0.001)" />

<path d="M439,94c0,0,97,0,152,65c0,0,55,65,55,179c0,0,0,114,-56,176c0,0,-56,62,-156,62c0,0,-94,0,-152,-55c0,0,-57,-55,-57,-151c0,0,0,-121,60,-199c0,0,60,-77,154,-77Zm4,-108c0,0,-177,0,-271,131c0,0,-94,132,-94,384c0,0,0,273,97,420c0,0,98,146,279,146c0,0,238,0,299,-214L625,830c0,0,-39,128,-173,128c0,0,-115,0,-178,-107c0,0,-63,-107,-63,-310c0,0,37,68,103,103c0,0,66,36,152,36c0,0,146,0,231,-91c0,0,86,-91,86,-245c0,0,0,-166,-91,-262c0,0,-90,-96,-249,-96Z" 
id="f1_q"
transform="scale(0.001,-0.001)" />

<path d="M424,96c0,0,119,0,174,106c0,0,55,106,55,325c0,0,0,227,-52,329c0,0,-53,102,-174,102c0,0,-123,0,-177,-100c0,0,-55,-101,-55,-331c0,0,0,-224,55,-328c0,0,55,-103,174,-103ZM423,-14c0,0,-181,0,-272,137c0,0,-91,138,-91,403c0,0,0,271,88,406c0,0,88,135,279,135c0,0,186,0,275,-137c0,0,88,-136,88,-404c0,0,0,-263,-93,-402c0,0,-93,-138,-274,-138Z" 
id="f1_k"
transform="scale(0.001,-0.001)" />

<path d="M341,-14c0,0,-267,0,-317,275l139,24c0,0,14,-87,61,-136c0,0,47,-48,118,-48c0,0,77,0,122,53c0,0,45,54,45,157V936H307v115H650V314c0,0,0,-153,-82,-241c0,0,-83,-87,-227,-87Z" 
id="f1_1a"
transform="scale(0.001,-0.001)" />

<path d="M0,-123V1415H525v-72H72V-123Z" 
id="f0_13"
transform="scale(0.001,-0.001)" />

<path d="M478,-123V1343H26v72H550V-123Z" 
id="f0_1c"
transform="scale(0.001,-0.001)" />

<path d="M52,62L0,114L278,390L0,667l52,52L330,442L608,719l51,-51L382,390L659,114L608,62L330,338L52,62Z" 
id="f0_v"
transform="scale(0.001,-0.001)" />

<path d="M0,-123V1415H72V-51H525v-72Z" 
id="f0_15"
transform="scale(0.001,-0.001)" />

<path d="M26,-123v72H478V1415h72V-123Z" 
id="f0_1e"
transform="scale(0.001,-0.001)" />

<path d="M660,0C618,0,589,29,589,29C560,58,560,99,560,99c0,41,29,70,29,70c29,29,71,29,71,29c41,0,70,-29,70,-29c29,-29,29,-70,29,-70C759,58,730,29,730,29C701,0,660,0,660,0ZM349,532c-42,0,-71,29,-71,29c-29,29,-29,70,-29,70c0,41,29,70,29,70c29,29,71,29,71,29c41,0,70,-29,70,-29c29,-29,29,-70,29,-70c0,-41,-29,-70,-29,-70C390,532,349,532,349,532Zm622,0c-41,0,-70,29,-70,29c-29,29,-29,70,-29,70c0,41,29,70,29,70c29,29,70,29,70,29c42,0,71,-29,71,-29c29,-29,29,-70,29,-70c0,-41,-29,-70,-29,-70c-29,-29,-71,-29,-71,-29Z" 
id="f4_3"
transform="scale(0.001,-0.001)" />

<path d="M-9,318v76H774V318Z" 
id="f5_1jz"
transform="scale(0.001,-0.001)" />

<path d="M67,0V109L206,235c0,0,133,118,196,190c0,0,63,72,90,149c0,0,27,77,27,177c0,0,0,97,-44,148c0,0,-44,50,-144,50c0,0,-39,0,-81,-10c0,0,-42,-11,-74,-29L150,787H101V980c0,0,135,32,230,32c0,0,164,0,247,-68c0,0,82,-69,82,-193c0,0,0,-84,-32,-158c0,0,-33,-75,-100,-148c0,0,-67,-74,-222,-206c0,0,-67,-57,-141,-125H680V0Z" 
id="f5_m"
transform="scale(0.001,-0.001)" />

<path d="M191,-20c0,0,-39,0,-65,25c0,0,-25,27,-25,64c0,0,0,38,26,64c0,0,26,26,64,26c0,0,38,0,64,-26c0,0,26,-26,26,-64c0,0,0,-37,-25,-64c0,0,-26,-25,-65,-25Z" 
id="f5_i"
transform="scale(0.001,-0.001)" />

<path d="M134,0V40L339,60V876L137,804v39l292,166h39V60L672,40V0Z" 
id="f5_l"
transform="scale(0.001,-0.001)" />

<path d="M178,0L615,886H176L150,764H101v236H720V943L274,0Z" 
id="f5_r"
transform="scale(0.001,-0.001)" />

<path d="M377,45c0,0,100,0,147,52c0,0,47,52,47,174c0,0,0,119,-46,173c0,0,-47,54,-148,54c0,0,-98,0,-141,-51c0,0,-44,-51,-44,-176c0,0,0,-126,44,-176c0,0,44,-50,141,-50Zm2,518c0,0,84,0,123,46c0,0,39,46,39,148c0,0,0,102,-40,151c0,0,-41,48,-122,48c0,0,-79,0,-118,-47c0,0,-38,-47,-38,-152c0,0,0,-104,37,-149c0,0,38,-45,119,-45ZM377,-14c0,0,-319,0,-319,285c0,0,0,99,48,164c0,0,48,66,129,96c0,0,-65,30,-106,87c0,0,-40,56,-40,139c0,0,0,123,75,191c0,0,76,68,219,68c0,0,139,0,216,-67c0,0,76,-68,76,-192c0,0,0,-82,-40,-139c0,0,-40,-57,-108,-87c0,0,85,-31,132,-98c0,0,47,-67,47,-162c0,0,0,-142,-80,-214c0,0,-80,-71,-249,-71Z" 
id="f5_s"
transform="scale(0.001,-0.001)" />

<path d="M174,197l-53,54L377,509L121,764l55,55L431,563L689,819l53,-53L486,509L742,251L689,197L431,454L174,197Z" 
id="f5_4a"
transform="scale(0.001,-0.001)" />

<path d="M377,45c0,0,99,0,145,108c0,0,46,109,46,352c0,0,0,240,-45,345c0,0,-46,106,-146,106c0,0,-97,0,-139,-100c0,0,-43,-99,-43,-351c0,0,0,-254,44,-357c0,0,43,-103,138,-103Zm0,-59c0,0,-158,0,-238,132c0,0,-81,133,-81,386c0,0,0,249,81,380c0,0,80,132,244,132c0,0,159,0,241,-130c0,0,82,-130,82,-382c0,0,0,-518,-329,-518Z" 
id="f5_k"
transform="scale(0.001,-0.001)" />

<path d="M182,168l-76,78L370,510L107,773l78,76L446,586L707,848l79,-78L524,510L787,247L711,169L448,432L182,168Z" 
id="f1_4a"
transform="scale(0.001,-0.001)" />

<path d="M426,-14c0,0,-160,0,-255,71c0,0,-95,72,-113,213l139,13c0,0,27,-187,229,-187c0,0,101,0,159,50c0,0,58,50,58,149c0,0,0,86,-66,134c0,0,-66,48,-191,48H310V594h73c0,0,111,0,172,48c0,0,60,48,60,133c0,0,0,84,-49,132c0,0,-50,49,-147,49c0,0,-89,0,-144,-45c0,0,-55,-46,-64,-129L76,793c0,0,15,129,107,201c0,0,92,73,237,73c0,0,158,0,246,-74c0,0,87,-73,87,-204c0,0,0,-101,-56,-164c0,0,-56,-63,-164,-85v-3c0,0,118,-13,184,-79c0,0,66,-67,66,-167c0,0,0,-146,-93,-226c0,0,-92,-79,-264,-79Z" 
id="f1_n"
transform="scale(0.001,-0.001)" />

<path d="M0,-14L307,1107H424L121,-14Z" 
id="f1_j"
transform="scale(0.001,-0.001)" />

<path d="M113,621c0,0,97,125,97,237H116v193H330V908c0,0,0,-93,-19,-159c0,0,-19,-67,-63,-128Zm319,0c0,0,99,125,99,237H436v193H650V908c0,0,0,-90,-19,-159c0,0,-19,-69,-62,-128Z" 
id="f6_1k9"
transform="scale(0.001,-0.001)" />

<path d="M122,0V64L295,82V837L123,780v64l282,165H511V82L685,64V0Z" 
id="f3_l"
transform="scale(0.001,-0.001)" />

<path d="M342,-14c0,0,-138,0,-276,29L57,258h69L165,96c0,0,65,-36,136,-36c0,0,90,0,141,58c0,0,50,57,50,161c0,0,0,91,-40,139c0,0,-41,48,-132,54l-87,5v90l84,6c0,0,66,5,98,49c0,0,32,44,32,134c0,0,0,83,-38,131c0,0,-38,48,-107,48c0,0,-40,0,-66,-13c0,0,-26,-12,-49,-26L155,751H90V979c0,0,76,19,132,26c0,0,55,6,108,6c0,0,337,0,337,-246c0,0,0,-102,-54,-164c0,0,-54,-63,-153,-78c0,0,252,-30,252,-251c0,0,0,-136,-98,-211c0,0,-98,-75,-272,-75Z" 
id="f3_n"
transform="scale(0.001,-0.001)" />

<path d="M64,0V141c0,0,64,68,119,123c0,0,119,118,174,185c0,0,56,68,81,140c0,0,26,72,26,165c0,0,0,81,-40,131c0,0,-39,50,-105,50c0,0,-46,0,-74,-10c0,0,-27,-10,-50,-29L163,751H98V979c0,0,59,13,116,23c0,0,58,9,125,9c0,0,165,0,252,-68c0,0,88,-68,88,-193c0,0,0,-78,-26,-142c0,0,-26,-64,-83,-124c0,0,-56,-61,-224,-197c0,0,-64,-52,-139,-119H698V0Z" 
id="f3_m"
transform="scale(0.001,-0.001)" />

<path d="M107,0V1107H316V473L604,808H830L546,493L851,0H622L407,366L316,303V0Z" 
id="f2_27"
transform="scale(0.001,-0.001)" />

<path d="M107,0V1107H316V0Z" 
id="f2_28"
transform="scale(0.001,-0.001)" />

<path d="M142,0c0,0,-6,0,-12,4c0,0,-5,3,-9,12c0,0,-4,9,-6,23c0,0,-3,15,-3,36c0,0,0,21,2,36c0,0,2,14,6,23c0,0,4,9,10,13c0,0,5,5,12,5H322V779L166,693c0,0,-17,-8,-28,-10c0,0,-1,0,-3,0c-4,0,-10,1,-14,5c0,0,-6,6,-8,22c0,0,-2,15,-2,44c0,0,0,18,0,29c0,0,1,12,4,20c0,0,3,8,8,14c0,0,5,5,14,11L345,962c0,0,4,3,9,5c0,0,6,2,15,3c0,0,9,1,23,2c0,0,15,0,38,0c0,0,28,0,46,-1c0,0,17,-1,26,-4c0,0,9,-3,12,-7c0,0,3,-4,3,-11V152H675c0,0,7,0,12,-5c0,0,6,-4,10,-13c0,0,4,-9,6,-23c0,0,2,-15,2,-36c0,0,0,-21,-2,-36c0,0,-3,-14,-7,-23c0,0,-4,-9,-9,-12c0,0,-5,-4,-12,-4Z" 
id="f7_a"
transform="scale(0.001,-0.001)" />

<path d="M326,-17c0,0,-45,0,-85,6c0,0,-41,5,-73,13c0,0,-32,8,-52,17c0,0,-21,8,-27,14c0,0,-6,6,-9,12c0,0,-3,7,-5,16c0,0,-2,10,-3,24c0,0,-1,14,-1,33c0,0,0,21,2,36c0,0,1,14,5,23c0,0,3,9,8,13c0,0,4,4,10,4c0,0,7,0,23,-9c0,0,15,-8,40,-19c0,0,25,-10,61,-19c0,0,36,-8,86,-8c0,0,43,0,78,9c0,0,36,9,60,29c0,0,25,19,38,49c0,0,14,30,14,72c0,0,0,36,-11,64c0,0,-12,28,-35,47c0,0,-24,19,-62,29c0,0,-38,10,-93,10c0,0,-43,0,-78,-5c0,0,-36,-4,-67,-4c0,0,-22,0,-31,11c0,0,-9,11,-9,40V909c0,0,0,30,11,43c0,0,12,13,37,13H615c0,0,6,0,12,-4c0,0,6,-5,10,-15c0,0,5,-9,6,-25c0,0,2,-16,2,-39c0,0,0,-45,-7,-65c0,0,-8,-20,-23,-20H272V590c0,0,26,3,52,4c0,0,25,0,54,0c0,0,78,0,139,-18c0,0,61,-18,102,-53c0,0,42,-36,63,-88c0,0,22,-53,22,-122c0,0,0,-79,-27,-140c0,0,-27,-62,-77,-104C600,69,550,27,481,5c0,0,-70,-22,-155,-22Z" 
id="f7_e"
transform="scale(0.001,-0.001)" />

<path d="M204,-9c0,0,-63,0,-87,23c0,0,-24,23,-24,89c0,0,0,70,24,94c0,0,25,24,88,24c0,0,62,0,86,-24c0,0,24,-23,24,-90c0,0,0,-69,-24,-93c0,0,-25,-23,-87,-23Z" 
id="f7_7"
transform="scale(0.001,-0.001)" />

<path d="M390,486c0,0,47,0,79,13c0,0,31,12,51,35c0,0,20,23,31,55c0,0,10,31,10,69c0,0,0,50,-18,83c0,0,-17,33,-44,49c0,0,-26,15,-54,19c0,0,-29,5,-59,5H302V486ZM203,-4c0,0,-28,0,-47,2c0,0,-19,2,-30,5c0,0,-11,4,-16,10c0,0,-4,6,-4,13V895c0,0,0,35,18,53c0,0,18,17,48,17H400c0,0,34,0,65,-3c0,0,31,-2,74,-11c0,0,43,-8,88,-31c0,0,44,-24,75,-59c0,0,32,-36,48,-83c0,0,17,-47,17,-106c0,0,0,-82,-26,-144c0,0,-25,-63,-74,-106c0,0,-48,-43,-118,-65c0,0,-71,-23,-166,-23H302V26c0,0,0,-7,-5,-13c0,0,-5,-6,-16,-10c0,0,-11,-3,-30,-5c0,0,-18,-2,-48,-2Z" 
id="f7_11"
transform="scale(0.001,-0.001)" />

<path d="M402,542c0,0,41,0,72,10c0,0,32,10,52,28c0,0,21,18,32,44c0,0,10,25,10,56c0,0,0,48,-21,81c0,0,-22,33,-71,46c0,0,-15,4,-34,6c0,0,-19,2,-52,2H302V542ZM203,-4c0,0,-28,0,-47,2c0,0,-19,2,-30,5c0,0,-11,4,-16,10c0,0,-4,6,-4,13V903c0,0,0,33,16,48c0,0,17,14,42,14H414c0,0,38,0,62,-1c0,0,25,-2,45,-4c0,0,58,-8,105,-28c0,0,46,-21,79,-53c0,0,32,-32,49,-77c0,0,17,-44,17,-101c0,0,0,-49,-12,-89c0,0,-12,-40,-36,-71c0,0,-24,-31,-59,-54c0,0,-35,-23,-80,-38c0,0,22,-10,41,-25c0,0,19,-15,36,-36c0,0,17,-22,31,-49c0,0,15,-27,30,-61L803,87c0,0,11,-28,15,-41c0,0,3,-14,3,-21c0,0,0,-8,-3,-14c0,0,-3,-5,-14,-9c0,0,-11,-3,-33,-4c0,0,-21,-2,-59,-2c0,0,-31,0,-50,2c0,0,-18,1,-29,4c0,0,-11,4,-15,11c0,0,-5,6,-8,15L524,244c0,0,-16,37,-31,65c0,0,-14,28,-33,48c0,0,-18,19,-42,28c0,0,-24,10,-55,10H302V27c0,0,0,-8,-5,-14c0,0,-5,-6,-16,-10c0,0,-11,-3,-30,-5c0,0,-18,-2,-48,-2Z" 
id="f7_13"
transform="scale(0.001,-0.001)" />

<path d="M514,145c0,0,72,0,121,27c0,0,48,26,78,73c0,0,30,46,42,107c0,0,13,62,13,131c0,0,0,76,-12,139c0,0,-12,62,-41,106c0,0,-29,45,-76,69c0,0,-48,24,-120,24c0,0,-72,0,-120,-27c0,0,-49,-27,-79,-73c0,0,-29,-45,-42,-106c0,0,-12,-61,-12,-129c0,0,0,-79,12,-142c0,0,12,-63,40,-108c0,0,28,-44,76,-68c0,0,48,-23,120,-23ZM508,-17c0,0,-113,0,-196,29c0,0,-84,29,-140,90c0,0,-56,60,-84,154c0,0,-28,93,-28,221c0,0,0,117,29,210c0,0,30,94,89,160c0,0,59,65,146,101c0,0,87,35,202,35c0,0,110,0,194,-29c0,0,84,-30,140,-90c0,0,56,-60,85,-153c0,0,29,-92,29,-217c0,0,0,-120,-30,-215c0,0,-30,-95,-89,-161C855,118,796,52,709,17c0,0,-87,-34,-201,-34Z" 
id="f7_10"
transform="scale(0.001,-0.001)" />

<path d="M440,150c0,0,41,0,68,8c0,0,28,9,49,26c0,0,20,16,32,41c0,0,11,25,11,58c0,0,0,33,-11,60c0,0,-11,26,-33,44c0,0,-21,18,-55,28c0,0,-33,9,-87,9H298V150ZM407,567c0,0,42,0,68,10c0,0,25,10,42,28c0,0,16,17,24,41c0,0,9,24,9,50c0,0,0,29,-9,52c0,0,-9,23,-27,39c0,0,-18,15,-45,23c0,0,-27,8,-72,8H298V567ZM164,0c0,0,-25,0,-42,15c0,0,-16,14,-16,47V903c0,0,0,33,16,48c0,0,17,14,42,14H406c0,0,88,0,150,-15c0,0,61,-15,103,-45c0,0,42,-30,65,-77c0,0,22,-46,22,-108c0,0,0,-36,-9,-67c0,0,-9,-31,-26,-56c0,0,-17,-25,-42,-45c0,0,-25,-19,-57,-31c0,0,41,-7,76,-26c0,0,34,-19,60,-48c0,0,26,-30,41,-69c0,0,15,-40,15,-89c0,0,0,-51,-14,-93c0,0,-15,-42,-40,-74c0,0,-25,-32,-59,-55c0,0,-35,-23,-77,-38C614,29,573,14,525,7C525,7,478,0,420,0Z" 
id="f7_o"
transform="scale(0.001,-0.001)" />

<path d="M589,371L453,782h-1L317,371ZM106,-4c0,0,-35,0,-54,2C52,-2,32,0,25,8c0,0,-7,9,-5,24c0,0,2,16,11,42L329,931c0,0,4,13,10,21c0,0,6,7,19,12c0,0,13,4,36,5c0,0,23,1,61,1c0,0,44,0,71,-1c0,0,26,-1,40,-5c0,0,15,-5,21,-13c0,0,6,-8,11,-22L896,73c0,0,9,-27,11,-43c0,0,3,-15,-6,-23c0,0,-8,-7,-29,-9c0,0,-21,-2,-57,-2c0,0,-38,0,-59,1c0,0,-22,1,-33,4c0,0,-11,3,-16,9c0,0,-4,6,-7,16L635,220H272L211,31c0,0,-2,-11,-7,-18c0,0,-5,-7,-16,-11c0,0,-11,-3,-31,-4c0,0,-19,-2,-51,-2Z" 
id="f7_n"
transform="scale(0.001,-0.001)" />

<path d="M204,-4c0,0,-28,0,-47,2c0,0,-19,2,-31,5c0,0,-11,4,-16,10c0,0,-4,6,-4,13V939c0,0,0,7,4,13c0,0,5,6,17,10c0,0,11,3,30,6c0,0,19,2,47,2c0,0,29,0,48,-2c0,0,18,-3,29,-6c0,0,11,-4,16,-10c0,0,5,-6,5,-13V26c0,0,0,-7,-5,-13c0,0,-5,-6,-16,-10c0,0,-11,-3,-29,-5c0,0,-19,-2,-48,-2Z" 
id="f7_v"
transform="scale(0.001,-0.001)" />

<path d="M164,0c0,0,-25,0,-42,15c0,0,-16,14,-16,47V939c0,0,0,7,4,13c0,0,5,6,16,10c0,0,12,3,31,6c0,0,19,2,47,2c0,0,29,0,48,-2c0,0,18,-3,29,-6c0,0,11,-4,16,-10c0,0,5,-6,5,-13V162H606c0,0,7,0,13,-4c0,0,5,-4,9,-13c0,0,4,-10,6,-25c0,0,2,-15,2,-38c0,0,0,-22,-2,-37c0,0,-2,-16,-6,-26c0,0,-4,-10,-9,-15c0,0,-6,-4,-13,-4Z" 
id="f7_x"
transform="scale(0.001,-0.001)" />

<path d="M378,-4c0,0,-28,0,-47,2c0,0,-19,2,-31,5c0,0,-11,4,-16,10c0,0,-4,6,-4,13V805H38c0,0,-8,0,-13,4c0,0,-5,5,-9,14c0,0,-3,9,-5,25c0,0,-2,15,-2,37c0,0,0,22,2,38c0,0,2,15,5,25c0,0,4,9,9,13c0,0,5,4,13,4H718c0,0,7,0,12,-4c0,0,6,-4,10,-13c0,0,3,-10,5,-25c0,0,2,-16,2,-38c0,0,0,-22,-2,-37c0,0,-2,-16,-5,-25c0,0,-4,-9,-10,-14c0,0,-5,-4,-12,-4H476V26c0,0,0,-7,-5,-13c0,0,-5,-6,-16,-10c0,0,-11,-3,-30,-5c0,0,-19,-2,-47,-2Z" 
id="f7_15"
transform="scale(0.001,-0.001)" />

<path d="M396,-4c0,0,-29,0,-47,2c0,0,-19,2,-30,5c0,0,-12,4,-16,10c0,0,-5,6,-5,13V366L34,892c0,0,-14,28,-18,43c0,0,-4,16,4,23c0,0,9,8,32,10c0,0,23,2,64,2c0,0,34,0,55,-2c0,0,20,-1,32,-5c0,0,12,-4,18,-11c0,0,6,-7,11,-17L339,697c0,0,16,-34,31,-72c0,0,15,-38,31,-80h1c0,0,15,41,29,79c0,0,15,38,29,72L566,932c0,0,4,12,9,19c0,0,6,7,17,11c0,0,11,5,31,6c0,0,19,2,51,2c0,0,43,0,66,-2c0,0,24,-2,33,-10c0,0,8,-7,4,-23c0,0,-5,-16,-18,-43L495,366V26c0,0,0,-7,-5,-13c0,0,-5,-6,-16,-10c0,0,-11,-3,-30,-5c0,0,-19,-2,-48,-2Z" 
id="f7_19"
transform="scale(0.001,-0.001)" />

<path d="M403,155c0,0,81,0,136,21c0,0,55,21,92,63c0,0,37,42,55,105c0,0,18,63,18,146c0,0,0,69,-16,128c0,0,-16,59,-51,102c0,0,-36,43,-91,67c0,0,-56,25,-146,25H301V155ZM164,0c0,0,-25,0,-42,15c0,0,-16,14,-16,47V903c0,0,0,33,16,48c0,0,17,14,42,14H411c0,0,129,0,219,-30c0,0,90,-30,152,-90c0,0,61,-59,93,-146c0,0,32,-87,32,-202c0,0,0,-133,-34,-227c0,0,-35,-95,-100,-154c0,0,-65,-60,-158,-88C615,28,523,0,394,0Z" 
id="f7_q"
transform="scale(0.001,-0.001)" />

<path d="M320,-17c0,0,-50,0,-93,9c0,0,-43,8,-76,19c0,0,-32,11,-54,24C97,35,75,48,65,58c0,0,-10,9,-14,28c0,0,-4,18,-4,52c0,0,0,23,1,39c0,0,2,15,5,25c0,0,4,10,9,14c0,0,6,4,13,4c0,0,11,0,30,-12c0,0,19,-13,49,-28c0,0,30,-15,71,-27c0,0,42,-12,96,-12c0,0,36,0,64,8c0,0,29,9,49,25c0,0,19,15,30,38c0,0,10,23,10,52c0,0,0,33,-18,56c0,0,-18,24,-46,42c0,0,-29,18,-66,34c0,0,-36,16,-75,34c0,0,-39,18,-76,41c0,0,-36,23,-65,54c0,0,-29,32,-47,75c0,0,-17,44,-17,104c0,0,0,70,25,122c0,0,26,53,70,88c0,0,43,34,103,51c0,0,59,18,125,18c0,0,35,0,69,-6c0,0,34,-5,64,-14c0,0,30,-9,53,-20c0,0,23,-11,31,-18c0,0,7,-8,10,-13c0,0,3,-5,4,-14c0,0,2,-8,3,-21c0,0,1,-13,1,-33c0,0,0,-21,-1,-36c0,0,-1,-15,-4,-25c0,0,-3,-9,-7,-14c0,0,-5,-4,-14,-4c0,0,-8,0,-26,10c0,0,-18,10,-44,23c0,0,-26,12,-60,22c0,0,-34,10,-75,10c0,0,-32,0,-56,-8c0,0,-24,-8,-40,-21c0,0,-16,-14,-24,-34c0,0,-8,-19,-8,-41c0,0,0,-32,18,-56c0,0,17,-23,46,-42c0,0,30,-18,67,-34c0,0,38,-16,76,-34c0,0,39,-18,76,-41c0,0,38,-22,67,-54c0,0,29,-32,47,-75c0,0,18,-43,18,-101c0,0,0,-76,-29,-133c0,0,-28,-58,-77,-96C572,60,524,21,459,2c0,0,-65,-19,-139,-19Z" 
id="f7_14"
transform="scale(0.001,-0.001)" />

<path d="M493,-17c0,0,-91,0,-163,22c0,0,-73,23,-122,69c0,0,-50,46,-77,116c0,0,-26,69,-26,161V939c0,0,0,7,4,13c0,0,5,6,16,10c0,0,12,3,30,6c0,0,19,2,48,2c0,0,29,0,47,-2c0,0,19,-3,30,-6c0,0,11,-4,16,-10c0,0,5,-6,5,-13V368c0,0,0,-57,14,-99c0,0,14,-42,41,-70c0,0,26,-28,63,-41c0,0,37,-14,83,-14c0,0,46,0,82,14c0,0,37,14,62,41c0,0,26,28,39,68c0,0,14,39,14,90V939c0,0,0,7,5,13c0,0,4,6,15,10c0,0,11,3,30,6c0,0,19,2,48,2c0,0,28,0,46,-2c0,0,18,-3,30,-6c0,0,11,-4,15,-10c0,0,5,-6,5,-13V359c0,0,0,-88,-26,-159c0,0,-26,-70,-77,-118C790,82,739,33,665,8c0,0,-75,-25,-172,-25Z" 
id="f7_16"
transform="scale(0.001,-0.001)" />

<path d="M193,-4c0,0,-26,0,-43,2c0,0,-18,2,-27,6c0,0,-10,4,-14,10c0,0,-3,6,-3,13V895c0,0,0,35,20,53c0,0,21,17,50,17H282c0,0,28,0,47,-5c0,0,20,-5,35,-16c0,0,15,-11,29,-31c0,0,13,-20,27,-49L608,511c0,0,17,-32,33,-63c0,0,16,-31,31,-62c0,0,14,-31,29,-60c0,0,14,-30,27,-60h1c0,0,-2,52,-3,109c0,0,-1,57,-1,108V936c0,0,0,7,4,13c0,0,5,6,15,11c0,0,10,4,28,6c0,0,17,2,44,2c0,0,25,0,42,-2c0,0,17,-2,27,-6c0,0,9,-5,13,-11c0,0,4,-6,4,-13V68c0,0,0,-17,-6,-30c0,0,-6,-14,-17,-23C879,15,869,6,856,2c0,0,-14,-3,-28,-3H744c0,0,-26,0,-45,4c0,0,-19,5,-35,19c0,0,-16,14,-31,38c0,0,-15,23,-34,60L359,572c0,0,-21,40,-43,86c0,0,-21,47,-38,91h-2c0,0,3,-54,5,-107c0,0,2,-53,2,-110V27c0,0,0,-7,-5,-13c0,0,-4,-6,-14,-10c0,0,-10,-4,-27,-6c0,0,-17,-2,-44,-2Z" 
id="f7_z"
transform="scale(0.001,-0.001)" />

<path d="M547,-16c0,0,-115,0,-207,33c0,0,-91,33,-155,96c0,0,-63,63,-97,154c0,0,-33,91,-33,206c0,0,0,118,36,213c0,0,35,94,101,160c0,0,66,66,159,102c0,0,92,35,207,35c0,0,62,0,114,-9c0,0,51,-8,90,-21c0,0,38,-12,64,-26c0,0,25,-14,35,-25c0,0,10,-10,15,-29c0,0,4,-19,4,-57c0,0,0,-21,-2,-37c0,0,-2,-16,-5,-25c0,0,-3,-9,-8,-13c0,0,-5,-4,-12,-4c0,0,-10,0,-31,14c0,0,-22,13,-58,29c0,0,-35,15,-85,29c0,0,-50,13,-115,13c0,0,-71,0,-127,-24c0,0,-57,-24,-97,-69c0,0,-41,-44,-62,-107c0,0,-22,-62,-22,-138c0,0,0,-82,22,-146c0,0,22,-63,62,-105c0,0,39,-43,95,-65c0,0,56,-21,123,-21c0,0,33,0,65,7c0,0,32,8,60,23V401H500c0,0,-14,0,-21,17c0,0,-8,17,-8,57c0,0,0,21,2,35c0,0,2,14,6,23c0,0,3,8,9,12c0,0,5,5,12,5H826c0,0,12,0,21,-5c0,0,9,-4,16,-12c0,0,8,-8,11,-20c0,0,4,-11,4,-26V102c0,0,0,-22,-8,-39c0,0,-8,-17,-32,-27c0,0,-24,-9,-60,-20C778,16,742,6,704,-1c0,0,-39,-7,-78,-11c0,0,-39,-4,-79,-4Z" 
id="f7_t"
transform="scale(0.001,-0.001)" />

<path d="M198,-4c0,0,-27,0,-45,2c0,0,-18,2,-28,5c0,0,-11,4,-15,10c0,0,-4,6,-4,13V887c0,0,0,38,20,58c0,0,20,20,53,20H308c0,0,34,0,59,-6c0,0,24,-5,42,-18c0,0,18,-13,30,-35c0,0,12,-21,21,-52L669,279h3L889,852c0,0,9,32,21,53c0,0,11,22,27,35c0,0,15,14,36,19c0,0,21,6,48,6h132c0,0,21,0,35,-5c0,0,15,-5,24,-15c0,0,9,-11,14,-25c0,0,5,-15,5,-33V26c0,0,0,-7,-4,-13c0,0,-4,-6,-15,-10c0,0,-11,-3,-29,-5c0,0,-18,-2,-45,-2c0,0,-27,0,-45,2c0,0,-18,2,-28,5c0,0,-11,4,-15,10c0,0,-5,6,-5,13V813h-1L764,27c0,0,-3,-10,-10,-16c0,0,-6,-6,-18,-10c0,0,-12,-3,-29,-4c0,0,-18,-1,-44,-1c0,0,-25,0,-43,2c0,0,-18,2,-29,5c0,0,-12,4,-19,10c0,0,-6,6,-9,14L293,813h-2V26c0,0,0,-7,-4,-13c0,0,-4,-6,-15,-10c0,0,-11,-3,-29,-5c0,0,-17,-2,-45,-2Z" 
id="f7_y"
transform="scale(0.001,-0.001)" />

<path d="M204,-4c0,0,-28,0,-47,2c0,0,-19,2,-31,6c0,0,-11,4,-16,10c0,0,-4,6,-4,14V903c0,0,0,33,16,48c0,0,17,14,42,14H618c0,0,7,0,12,-4c0,0,5,-4,9,-13c0,0,5,-10,6,-25c0,0,2,-16,2,-38c0,0,0,-23,-2,-38c0,0,-1,-15,-6,-24c0,0,-4,-9,-9,-14c0,0,-5,-4,-12,-4H302V545H599c0,0,6,0,12,-4c0,0,5,-4,9,-13c0,0,4,-9,6,-24c0,0,2,-15,2,-37c0,0,0,-22,-2,-37c0,0,-2,-15,-6,-25c0,0,-4,-10,-9,-14c0,0,-6,-4,-12,-4H302V28c0,0,0,-8,-4,-14c0,0,-5,-6,-16,-10c0,0,-12,-4,-30,-6c0,0,-19,-2,-48,-2Z" 
id="f7_s"
transform="scale(0.001,-0.001)" />

<path d="M275,-17c0,0,-37,0,-71,6c0,0,-34,6,-61,13c0,0,-27,9,-45,18c0,0,-18,9,-26,17c0,0,-8,8,-13,25c0,0,-4,17,-4,49c0,0,0,22,1,35c0,0,2,13,5,21c0,0,3,8,7,10c0,0,5,3,11,3c0,0,9,0,25,-9c0,0,16,-10,40,-21c0,0,24,-11,55,-21c0,0,32,-10,72,-10c0,0,26,0,46,5c0,0,19,6,34,15c0,0,14,10,22,25c0,0,7,15,7,34c0,0,0,23,-13,39c0,0,-14,16,-37,28c0,0,-23,11,-52,22c0,0,-28,10,-58,23c0,0,-31,13,-59,29c0,0,-29,17,-52,41c0,0,-23,23,-37,57c0,0,-13,34,-13,81c0,0,0,47,18,87c0,0,19,40,54,69c0,0,35,28,86,44c0,0,50,15,113,15c0,0,31,0,61,-4c0,0,29,-5,53,-11c0,0,24,-7,40,-15c0,0,17,-7,24,-13c0,0,7,-6,10,-11c0,0,3,-6,4,-14c0,0,2,-7,3,-19c0,0,1,-12,1,-29c0,0,0,-20,-1,-33c0,0,-1,-12,-4,-20c0,0,-2,-7,-7,-10c0,0,-4,-3,-10,-3c0,0,-7,0,-21,8c0,0,-14,8,-36,17c0,0,-21,9,-49,17c0,0,-28,7,-64,7c0,0,-25,0,-44,-5c0,0,-19,-5,-30,-15c0,0,-12,-9,-18,-22c0,0,-6,-14,-6,-28c0,0,0,-24,14,-39c0,0,14,-16,37,-28c0,0,23,-12,53,-22c0,0,29,-11,59,-23c0,0,31,-12,60,-29c0,0,30,-16,53,-40c0,0,23,-24,37,-57c0,0,14,-33,14,-79c0,0,0,-57,-21,-100c0,0,-21,-43,-60,-72c0,0,-39,-29,-92,-43c0,0,-53,-15,-115,-15Z" 
id="f7_1s"
transform="scale(0.001,-0.001)" />

<path d="M127,0c0,0,-16,0,-28,3C99,3,87,6,80,15c0,0,-8,8,-11,25c0,0,-3,16,-3,42c0,0,0,25,2,42c0,0,2,18,8,32c0,0,6,14,15,27c0,0,9,13,24,29L282,390c0,0,50,53,81,95c0,0,30,43,47,79c0,0,17,35,24,65c0,0,6,30,6,57c0,0,0,24,-8,46c0,0,-8,22,-23,39c0,0,-15,16,-38,25c0,0,-23,10,-55,10c0,0,-44,0,-78,-12c0,0,-33,-11,-59,-25c0,0,-26,-13,-43,-25c0,0,-17,-12,-27,-12c0,0,-7,0,-11,5c0,0,-5,4,-8,15c0,0,-3,10,-5,28c0,0,-2,17,-2,42c0,0,0,18,1,29c0,0,1,12,4,20c0,0,2,9,6,15c0,0,3,6,13,15c0,0,9,9,34,23c0,0,25,14,61,27c0,0,37,14,81,23c0,0,44,9,92,9c0,0,75,0,131,-19c0,0,57,-19,94,-53c0,0,37,-34,55,-81c0,0,19,-47,19,-100c0,0,0,-47,-9,-93c0,0,-9,-45,-37,-98c0,0,-29,-52,-80,-116c0,0,-52,-64,-136,-148L299,159H679c0,0,8,0,14,-4c0,0,6,-5,11,-14c0,0,4,-9,7,-25c0,0,2,-15,2,-36c0,0,0,-22,-2,-37c0,0,-2,-15,-6,-25c0,0,-3,-10,-9,-14c0,0,-6,-4,-14,-4Z" 
id="f7_b"
transform="scale(0.001,-0.001)" />

<path d="M567,-17c0,0,-83,0,-152,21c0,0,-70,21,-145,71L237,0H126L52,404l140,33c0,0,49,-123,153,-205c0,0,104,-82,228,-82c0,0,56,0,93,14c0,0,37,14,56,39c0,0,18,25,18,52c0,0,0,45,-43,77c0,0,-44,32,-154,63L369,446c0,0,-40,11,-107,42c0,0,-68,31,-104,64c0,0,-36,34,-60,86c0,0,-24,53,-24,111c0,0,0,83,46,153c0,0,46,69,138,113c0,0,92,43,204,43c0,0,135,0,244,-70l29,52H842L932,692L792,652c0,0,-69,125,-157,183c0,0,-88,58,-187,58c0,0,-64,0,-101,-26c0,0,-37,-27,-37,-59c0,0,0,-36,34,-67c0,0,32,-32,121,-56L665,626c0,0,166,-47,237,-126c0,0,70,-80,70,-186c0,0,0,-135,-107,-229C865,85,745,-17,567,-17Z" 
id="f8_l"
transform="scale(0.001,-0.001)" />

<path d="M280,0V144h30c0,0,51,0,66,6c0,0,14,6,21,22c0,0,8,17,8,67V851c0,0,0,26,-6,33c0,0,-6,7,-26,7c0,0,-38,0,-86,-29c0,0,-48,-29,-85,-82c0,0,-15,-21,-63,-118L2,711l128,365h99l10,-36H826l13,36h99L1067,711L928,662c0,0,-46,91,-66,119c0,0,-40,55,-92,86c0,0,-38,24,-77,24c0,0,-18,0,-24,-9c0,0,-7,-8,-7,-39V244c0,0,0,-53,4,-66c0,0,3,-13,12,-21c0,0,9,-8,25,-11c0,0,16,-2,84,-2V0Z" 
id="f8_m"
transform="scale(0.001,-0.001)" />

<path d="M593,600c0,0,92,0,137,17c0,0,45,17,68,48c0,0,22,31,22,76c0,0,0,41,-21,71c0,0,-21,29,-60,43c0,0,-40,14,-128,14H439V600ZM55,0V144h46c0,0,37,0,52,8c0,0,16,7,23,23c0,0,4,9,4,56V816c0,0,0,35,-6,49c0,0,-5,15,-18,19c0,0,-18,8,-41,8H55v148H697c0,0,62,0,135,-11c0,0,74,-11,133,-49c0,0,60,-38,92,-96c0,0,33,-59,33,-132c0,0,0,-118,-84,-192c0,0,-85,-73,-201,-96L1019,215l9,-11c0,0,21,-25,38,-38c0,0,17,-12,34,-17c0,0,18,-5,48,-5h45V0H859L526,448H439V241c0,0,0,-54,6,-69c0,0,6,-14,19,-21c0,0,13,-7,52,-7h48V0Z" 
id="f8_k"
transform="scale(0.001,-0.001)" />

<path d="M561,-17c0,0,-97,0,-173,29c0,0,-76,29,-133,84c0,0,-57,55,-80,116c0,0,-22,61,-22,181V794c0,0,0,56,-6,72c0,0,-6,16,-20,23c0,0,-13,8,-52,8H27v143H536V897H486c0,0,-35,0,-49,-9c0,0,-15,-8,-22,-23c0,0,-6,-15,-6,-62V424c0,0,0,-106,21,-158c0,0,21,-52,64,-79c0,0,43,-28,105,-28c0,0,61,0,109,30c0,0,48,30,68,76c0,0,21,46,21,152V834c0,0,0,26,-7,37c0,0,-9,15,-24,21c0,0,-10,5,-53,5H673v143h429V897h-34c0,0,-49,0,-61,-6c0,0,-18,-9,-26,-26c0,0,-6,-12,-6,-62V393c0,0,0,-114,-33,-191C942,202,896,98,797,40c0,0,-100,-57,-236,-57Z" 
id="f8_n"
transform="scale(0.001,-0.001)" />

<path d="M579,-17c0,0,-147,0,-266,70c0,0,-119,70,-189,197c0,0,-71,127,-71,277c0,0,0,149,69,271c0,0,69,123,187,191c0,0,119,69,265,69c0,0,149,0,260,-62l25,44H965L1067,667L928,627c0,0,-69,133,-130,189c0,0,-85,77,-185,77c0,0,-72,0,-135,-41c0,0,-63,-40,-100,-118c0,0,-37,-78,-37,-183c0,0,0,-161,85,-276c0,0,85,-116,222,-116c0,0,87,0,168,50c0,0,100,62,173,167l116,-86C1105,290,992,136,899,76c0,0,-144,-93,-320,-93Z" 
id="f8_f"
transform="scale(0.001,-0.001)" />

<path d="M59,0V144H85c0,0,52,0,70,7c0,0,18,8,25,26c0,0,4,11,4,64V808c0,0,0,46,-7,60c0,0,-6,14,-19,22c0,0,-14,7,-53,7H59v143H928L1046,712L911,663c0,0,-34,81,-80,130c0,0,-46,49,-102,65c0,0,-55,16,-129,16H441V615h52c0,0,59,0,80,9c0,0,20,8,29,26c0,0,9,19,9,73v40H744V322H611v45c0,0,0,45,-11,66c0,0,-11,21,-29,29c0,0,-19,7,-83,7H441V230c0,0,0,-38,4,-47c0,0,3,-8,14,-12c0,0,11,-5,47,-5h87c0,0,98,0,165,28c0,0,67,28,120,91c0,0,53,63,81,149l136,-47L959,0Z" 
id="f8_g"
transform="scale(0.001,-0.001)" />

<path d="M611,148c0,0,117,0,187,88c0,0,83,105,83,281c0,0,0,124,-35,208c0,0,-36,84,-96,126c0,0,-61,42,-132,42c0,0,-118,0,-189,-89c0,0,-88,-112,-88,-289c0,0,0,-176,82,-279c0,0,71,-88,188,-88ZM608,-17c0,0,-231,0,-378,126C230,109,53,262,53,518c0,0,0,237,155,389c0,0,156,151,407,151c0,0,248,0,401,-151c0,0,153,-150,153,-386c0,0,0,-159,-70,-282c0,0,-70,-123,-193,-190c0,0,-124,-66,-298,-66Z" 
id="f8_j"
transform="scale(0.001,-0.001)" />

<path d="M59,0V144H92c0,0,57,0,74,14c0,0,18,15,18,59V815c0,0,0,41,-7,55c0,0,-7,13,-22,20c0,0,-16,7,-63,7H59v143H919L1037,709L902,662c0,0,-33,72,-63,109c0,0,-29,37,-70,61c0,0,-41,25,-89,33c0,0,-32,5,-114,5H438V594h66c0,0,37,0,58,12c0,0,22,11,31,29c0,0,9,18,9,60v55H736V284H602v67c0,0,0,29,-5,43c0,0,-7,18,-19,29c0,0,-12,11,-27,15c0,0,-15,5,-55,5H438V224c0,0,0,-39,7,-53c0,0,6,-14,21,-21c0,0,15,-6,58,-6h42V0Z" 
id="f8_h"
transform="scale(0.001,-0.001)" />

<path d="M610,480L509,765L404,480ZM2,0V144c0,0,39,0,56,6c0,0,18,7,30,21c0,0,11,13,25,49l322,820H669L981,237c0,0,25,-64,45,-79c0,0,19,-14,68,-14c2,0,3,0,5,0V0H606V144h30c0,0,41,0,58,11c0,0,16,11,16,27c0,0,0,13,-14,55l-32,94H349L310,226c0,0,-12,-33,-12,-44c0,0,0,-11,8,-21c0,0,9,-10,28,-14c0,0,13,-3,71,-3V0Z" 
id="f8_e"
transform="scale(0.001,-0.001)" />

<path d="M59,0V144h42c0,0,39,0,54,7c0,0,15,7,22,22c0,0,7,15,7,57V813c0,0,0,40,-5,52c0,0,-7,17,-21,24c0,0,-13,8,-42,8H59v143H530L711,408l185,632h481V897h-52c0,0,-41,0,-57,-18c0,0,-16,-17,-16,-66V222c0,0,0,-39,4,-48c0,0,7,-15,19,-21c0,0,16,-9,43,-9h59V0H876V144h39c0,0,42,0,57,6c0,0,15,7,22,21c0,0,7,14,7,51V862L748,0H604L359,835V202c0,0,0,-22,8,-34c0,0,8,-12,22,-18c0,0,15,-6,47,-6h50V0Z" 
id="f8_i"
transform="scale(0.001,-0.001)" />


</defs>
</svg>