<?xml version="1.0" encoding="UTF-8" standalone="no"?>
<!DOCTYPE svg PUBLIC "-//W3C//DTD SVG 1.1//EN"
"http://www.w3.org/Graphics/SVG/1.1/DTD/svg11.dtd">
<svg viewBox="0 0 909 1286" version="1.1" xmlns="http://www.w3.org/2000/svg" xmlns:xlink="http://www.w3.org/1999/xlink">
<defs>
<style type="text/css"><![CDATA[
.g0_80{
fill: #FFFFFF;
}
.g1_80{
}
]]></style>
</defs>
<path fill-rule="evenodd" d="M53.9,69.5H856.2V97.9H53.9V69.5l1.5,26.8H854.5V71H55.4V96.3L53.9,69.5Z" class="g0_80" />
<g fill="#000000" >
<use xlink:href="#f0_1k" transform="matrix(10,0,0,10,497.6,87.8)" />
<use xlink:href="#f0_18" transform="matrix(10,0,0,10,508.2,87.8)" />
<use xlink:href="#f0_15" transform="matrix(10,0,0,10,520.7,87.8)" />
<use xlink:href="#f0_1i" transform="matrix(10,0,0,10,531.7,87.8)" />
<use xlink:href="#f0_1d" transform="matrix(10,0,0,10,543.4,87.8)" />
<use xlink:href="#f0_1f" transform="matrix(10,0,0,10,557.7,87.8)" />
<use xlink:href="#f0_14" transform="matrix(10,0,0,10,570,87.8)" />
<use xlink:href="#f0_1p" transform="matrix(10,0,0,10,581.7,87.8)" />
<use xlink:href="#f0_1e" transform="matrix(10,0,0,10,592.4,87.8)" />
<use xlink:href="#f0_11" transform="matrix(10,0,0,10,603.7,87.8)" />
<use xlink:href="#f0_1d" transform="matrix(10,0,0,10,614.7,87.8)" />
<use xlink:href="#f0_19" transform="matrix(10,0,0,10,629,87.8)" />
<use xlink:href="#f0_13" transform="matrix(10,0,0,10,635.1,87.8)" />
<use xlink:href="#f0_1j" transform="matrix(10,0,0,10,646.1,87.8)" />
<use xlink:href="#f0_a" transform="matrix(10,0,0,10,660.7,87.8)" />
<use xlink:href="#f0_1k" transform="matrix(10,0,0,10,677.4,87.8)" />
<use xlink:href="#f0_18" transform="matrix(10,0,0,10,688.3,87.8)" />
<use xlink:href="#f0_15" transform="matrix(10,0,0,10,700.7,87.8)" />
<use xlink:href="#f0_1i" transform="matrix(10,0,0,10,711.5,87.8)" />
<use xlink:href="#f0_1d" transform="matrix(10,0,0,10,723.5,87.8)" />
<use xlink:href="#f0_1f" transform="matrix(10,0,0,10,737.8,87.8)" />
<use xlink:href="#f0_13" transform="matrix(10,0,0,10,750,87.8)" />
<use xlink:href="#f0_18" transform="matrix(10,0,0,10,761.2,87.8)" />
<use xlink:href="#f0_15" transform="matrix(10,0,0,10,773.5,87.8)" />
<use xlink:href="#f0_1d" transform="matrix(10,0,0,10,784.7,87.8)" />
<use xlink:href="#f0_19" transform="matrix(10,0,0,10,799,87.8)" />
<use xlink:href="#f0_1j" transform="matrix(10,0,0,10,805.1,87.8)" />
<use xlink:href="#f0_1k" transform="matrix(10,0,0,10,815.1,87.8)" />
<use xlink:href="#f0_1i" transform="matrix(10,0,0,10,825.8,87.8)" />
<use xlink:href="#f0_1p" transform="matrix(10,0,0,10,837.7,87.8)" />
</g>
<path fill-rule="evenodd" d="M55.2,94.6H854.7v3.1H55.2V94.6Z" class="g1_80" />
<path fill-rule="evenodd" d="M55.2,69.7H854.7v3.1H55.2V69.7Z" class="g1_80" />
<path fill-rule="evenodd" d="M54,1177.4H854.8v2.4H54v-2.4Z" class="g1_80" />
<path fill-rule="evenodd" d="M453.8,1178.3V675.5h.7v502.8h-.7Z" class="g1_80" />
<path fill-rule="evenodd" d="M56.1,833.2H312.8v27H56.1v-27Z" class="g1_80" />
<path fill-rule="evenodd" d="M54.8,832.1H314.1v29.4H54.8V832.1l1.7,27.7H312.4V833.6H56.5v26.2L54.8,832.1Z" class="g1_80" />
<path fill-rule="evenodd" d="M56.1,700.5H126v27H56.1v-27Z" class="g1_80" />
<path fill-rule="evenodd" d="M54.8,699.4h72.3v29.2H54.8V699.4l1.7,27.7h69.1V700.9H56.5v26.2L54.8,699.4Z" class="g1_80" />
<g fill="#FFFFFF" >
<use xlink:href="#f1_1y" transform="matrix(13,0,0,13,67.5,719.4)" />
<use xlink:href="#f1_24" transform="matrix(13,0,0,13,80.5,719.4)" />
<use xlink:href="#f1_2t" transform="matrix(13,0,0,13,93.7,719.4)" />
<use xlink:href="#f1_t" transform="matrix(13,0,0,13,103.4,719.4)" />
</g>
<g fill="#000000" >
<use xlink:href="#f2_11" transform="matrix(10,0,0,10,65.8,749.8)" />
<use xlink:href="#f2_28" transform="matrix(10,0,0,10,76.4,749.8)" />
<use xlink:href="#f2_2g" transform="matrix(10,0,0,10,80.7,749.8)" />
<use xlink:href="#f2_24" transform="matrix(10,0,0,10,85.1,749.8)" />
<use xlink:href="#f2_2b" transform="matrix(10,0,0,10,92.4,749.8)" />
<use xlink:href="#f2_2h" transform="matrix(10,0,0,10,100.3,749.8)" />
<use xlink:href="#f2_23" transform="matrix(10,0,0,10,107.6,749.8)" />
<use xlink:href="#f2_24" transform="matrix(10,0,0,10,115.3,749.8)" />
<use xlink:href="#f2_2g" transform="matrix(10,0,0,10,126,749.8)" />
<use xlink:href="#f2_24" transform="matrix(10,0,0,10,130,749.8)" />
<use xlink:href="#f2_21" transform="matrix(10,0,0,10,137.7,749.8)" />
<use xlink:href="#f2_23" transform="matrix(10,0,0,10,147.8,749.8)" />
<use xlink:href="#f2_2e" transform="matrix(10,0,0,10,155.3,749.8)" />
<use xlink:href="#f2_1x" transform="matrix(10,0,0,10,160.4,749.8)" />
<use xlink:href="#f2_2c" transform="matrix(10,0,0,10,167.2,749.8)" />
<use xlink:href="#f2_24" transform="matrix(10,0,0,10,174.9,749.8)" />
<use xlink:href="#f2_2b" transform="matrix(10,0,0,10,185.4,749.8)" />
<use xlink:href="#f2_22" transform="matrix(10,0,0,10,193.2,749.8)" />
<use xlink:href="#f2_25" transform="matrix(10,0,0,10,201.3,749.8)" />
<use xlink:href="#f2_2f" transform="matrix(10,0,0,10,205.3,749.8)" />
<use xlink:href="#f2_2b" transform="matrix(10,0,0,10,211.2,749.8)" />
<use xlink:href="#f2_2g" transform="matrix(10,0,0,10,219.1,749.8)" />
<use xlink:href="#f2_24" transform="matrix(10,0,0,10,223.1,749.8)" />
<use xlink:href="#f2_21" transform="matrix(10,0,0,10,230.8,749.8)" />
<use xlink:href="#f2_2e" transform="matrix(10,0,0,10,237.6,749.8)" />
<use xlink:href="#f2_29" transform="matrix(10,0,0,10,242.7,749.8)" />
<use xlink:href="#f2_1x" transform="matrix(10,0,0,10,254.3,749.8)" />
<use xlink:href="#f2_28" transform="matrix(10,0,0,10,261.1,749.8)" />
<use xlink:href="#f2_1x" transform="matrix(10,0,0,10,268.4,749.8)" />
<use xlink:href="#f2_2a" transform="matrix(10,0,0,10,275.4,749.8)" />
<use xlink:href="#f2_20" transform="matrix(10,0,0,10,282.7,749.8)" />
<use xlink:href="#f2_1x" transform="matrix(10,0,0,10,293.5,749.8)" />
<use xlink:href="#f2_20" transform="matrix(10,0,0,10,300.5,749.8)" />
<use xlink:href="#f2_25" transform="matrix(10,0,0,10,308,749.8)" />
<use xlink:href="#f2_1x" transform="matrix(10,0,0,10,312.2,749.8)" />
<use xlink:href="#f2_1y" transform="matrix(10,0,0,10,319.2,749.8)" />
<use xlink:href="#f2_1x" transform="matrix(10,0,0,10,326.9,749.8)" />
<use xlink:href="#f2_2g" transform="matrix(10,0,0,10,333.7,749.8)" />
<use xlink:href="#f2_25" transform="matrix(10,0,0,10,337.7,749.8)" />
<use xlink:href="#f2_1z" transform="matrix(10,0,0,10,342,749.8)" />
<use xlink:href="#f2_2c" transform="matrix(10,0,0,10,352.2,749.8)" />
<use xlink:href="#f2_2e" transform="matrix(10,0,0,10,359.7,749.8)" />
<use xlink:href="#f2_2b" transform="matrix(10,0,0,10,365.1,749.8)" />
<use xlink:href="#f2_1z" transform="matrix(10,0,0,10,372.8,749.8)" />
<use xlink:href="#f2_21" transform="matrix(10,0,0,10,379.5,749.8)" />
<use xlink:href="#f2_2f" transform="matrix(10,0,0,10,386.3,749.8)" />
<use xlink:href="#f2_2f" transform="matrix(10,0,0,10,392,749.8)" />
<use xlink:href="#f2_21" transform="matrix(10,0,0,10,397.8,749.8)" />
<use xlink:href="#f2_2f" transform="matrix(10,0,0,10,404.8,749.8)" />
<use xlink:href="#f2_1x" transform="matrix(10,0,0,10,413.8,749.8)" />
<use xlink:href="#f2_2e" transform="matrix(10,0,0,10,420.6,749.8)" />
<use xlink:href="#f2_21" transform="matrix(10,0,0,10,425.7,749.8)" />
<use xlink:href="#f2_2f" transform="matrix(10,0,0,10,65.8,772.7)" />
<use xlink:href="#f2_25" transform="matrix(10,0,0,10,71.7,772.7)" />
<use xlink:href="#f2_29" transform="matrix(10,0,0,10,75.7,772.7)" />
<use xlink:href="#f2_25" transform="matrix(10,0,0,10,87.3,772.7)" />
<use xlink:href="#f2_28" transform="matrix(10,0,0,10,91.5,772.7)" />
<use xlink:href="#f2_1x" transform="matrix(10,0,0,10,95.7,772.7)" />
<use xlink:href="#f2_2e" transform="matrix(10,0,0,10,102.7,772.7)" />
<use xlink:href="#f2_25" transform="matrix(10,0,0,10,112,772.7)" />
<use xlink:href="#f2_2a" transform="matrix(10,0,0,10,116.2,772.7)" />
<use xlink:href="#f2_2a" transform="matrix(10,0,0,10,128,772.7)" />
<use xlink:href="#f2_1x" transform="matrix(10,0,0,10,135.3,772.7)" />
<use xlink:href="#f2_2g" transform="matrix(10,0,0,10,142.3,772.7)" />
<use xlink:href="#f2_2h" transform="matrix(10,0,0,10,146.5,772.7)" />
<use xlink:href="#f2_2e" transform="matrix(10,0,0,10,153.8,772.7)" />
<use xlink:href="#f2_21" transform="matrix(10,0,0,10,159.2,772.7)" />
<use xlink:href="#f2_25" transform="matrix(10,0,0,10,170,772.7)" />
<use xlink:href="#f2_2g" transform="matrix(10,0,0,10,174,772.7)" />
<use xlink:href="#f2_2f" transform="matrix(10,0,0,10,182.6,772.7)" />
<use xlink:href="#f2_24" transform="matrix(10,0,0,10,188.3,772.7)" />
<use xlink:href="#f2_2b" transform="matrix(10,0,0,10,196,772.7)" />
<use xlink:href="#f2_2h" transform="matrix(10,0,0,10,203.5,772.7)" />
<use xlink:href="#f2_28" transform="matrix(10,0,0,10,211.2,772.7)" />
<use xlink:href="#f2_20" transform="matrix(10,0,0,10,215.4,772.7)" />
<use xlink:href="#f2_1y" transform="matrix(10,0,0,10,227.2,772.7)" />
<use xlink:href="#f2_21" transform="matrix(10,0,0,10,235.1,772.7)" />
<use xlink:href="#f2_2a" transform="matrix(10,0,0,10,246.1,772.7)" />
<use xlink:href="#f2_2b" transform="matrix(10,0,0,10,253.4,772.7)" />
<use xlink:href="#f2_2g" transform="matrix(10,0,0,10,261.3,772.7)" />
<use xlink:href="#f2_21" transform="matrix(10,0,0,10,265.3,772.7)" />
<use xlink:href="#f2_20" transform="matrix(10,0,0,10,272.3,772.7)" />
<use xlink:href="#f2_2g" transform="matrix(10,0,0,10,284,772.7)" />
<use xlink:href="#f2_24" transform="matrix(10,0,0,10,288.2,772.7)" />
<use xlink:href="#f2_1x" transform="matrix(10,0,0,10,295.9,772.7)" />
<use xlink:href="#f2_2g" transform="matrix(10,0,0,10,302.7,772.7)" />
<use xlink:href="#f2_2g" transform="matrix(10,0,0,10,311,772.7)" />
<use xlink:href="#f2_24" transform="matrix(10,0,0,10,315.2,772.7)" />
<use xlink:href="#f2_21" transform="matrix(10,0,0,10,322.7,772.7)" />
<use xlink:href="#f2_1g" transform="matrix(10,0,0,10,333.7,772.7)" />
<use xlink:href="#f2_h" transform="matrix(10,0,0,10,342.1,772.7)" />
<use xlink:href="#f2_1m" transform="matrix(10,0,0,10,347.3,772.7)" />
<use xlink:href="#f2_23" transform="matrix(10,0,0,10,362.5,772.7)" />
<use xlink:href="#f2_2e" transform="matrix(10,0,0,10,370,772.7)" />
<use xlink:href="#f2_1x" transform="matrix(10,0,0,10,375.1,772.7)" />
<use xlink:href="#f2_2c" transform="matrix(10,0,0,10,381.9,772.7)" />
<use xlink:href="#f2_24" transform="matrix(10,0,0,10,389.6,772.7)" />
<use xlink:href="#f2_2b" transform="matrix(10,0,0,10,401.3,772.7)" />
<use xlink:href="#f2_22" transform="matrix(10,0,0,10,408.8,772.7)" />
<use xlink:href="#f2_1x" transform="matrix(10,0,0,10,418,772.7)" />
<use xlink:href="#f2_2a" transform="matrix(10,0,0,10,425,772.7)" />
<use xlink:href="#f2_1x" transform="matrix(10,0,0,10,65.8,795.7)" />
<use xlink:href="#f2_20" transform="matrix(10,0,0,10,72.6,795.7)" />
<use xlink:href="#f2_25" transform="matrix(10,0,0,10,80.1,795.7)" />
<use xlink:href="#f2_1x" transform="matrix(10,0,0,10,84.3,795.7)" />
<use xlink:href="#f2_1y" transform="matrix(10,0,0,10,90.9,795.7)" />
<use xlink:href="#f2_1x" transform="matrix(10,0,0,10,98.8,795.7)" />
<use xlink:href="#f2_2g" transform="matrix(10,0,0,10,105.2,795.7)" />
<use xlink:href="#f2_25" transform="matrix(10,0,0,10,109.6,795.7)" />
<use xlink:href="#f2_1z" transform="matrix(10,0,0,10,113.9,795.7)" />
<use xlink:href="#f2_2c" transform="matrix(10,0,0,10,123.2,795.7)" />
<use xlink:href="#f2_2e" transform="matrix(10,0,0,10,131.1,795.7)" />
<use xlink:href="#f2_2b" transform="matrix(10,0,0,10,136.2,795.7)" />
<use xlink:href="#f2_1z" transform="matrix(10,0,0,10,143.8,795.7)" />
<use xlink:href="#f2_21" transform="matrix(10,0,0,10,150.4,795.7)" />
<use xlink:href="#f2_2f" transform="matrix(10,0,0,10,157.3,795.7)" />
<use xlink:href="#f2_2f" transform="matrix(10,0,0,10,163,795.7)" />
<use xlink:href="#f2_25" transform="matrix(10,0,0,10,171.8,795.7)" />
<use xlink:href="#f2_2f" transform="matrix(10,0,0,10,176,795.7)" />
<use xlink:href="#f2_2f" transform="matrix(10,0,0,10,184.3,795.7)" />
<use xlink:href="#f2_2g" transform="matrix(10,0,0,10,190.3,795.7)" />
<use xlink:href="#f2_21" transform="matrix(10,0,0,10,194.5,795.7)" />
<use xlink:href="#f2_21" transform="matrix(10,0,0,10,201.3,795.7)" />
<use xlink:href="#f2_2c" transform="matrix(10,0,0,10,207.7,795.7)" />
<use xlink:href="#f2_21" transform="matrix(10,0,0,10,215.6,795.7)" />
<use xlink:href="#f2_2e" transform="matrix(10,0,0,10,222.4,795.7)" />
<use xlink:href="#f2_2g" transform="matrix(10,0,0,10,230.1,795.7)" />
<use xlink:href="#f2_24" transform="matrix(10,0,0,10,234.3,795.7)" />
<use xlink:href="#f2_1x" transform="matrix(10,0,0,10,242,795.7)" />
<use xlink:href="#f2_2a" transform="matrix(10,0,0,10,248.4,795.7)" />
<use xlink:href="#f2_2g" transform="matrix(10,0,0,10,259.1,795.7)" />
<use xlink:href="#f2_24" transform="matrix(10,0,0,10,263.1,795.7)" />
<use xlink:href="#f2_1x" transform="matrix(10,0,0,10,270.6,795.7)" />
<use xlink:href="#f2_2g" transform="matrix(10,0,0,10,277.4,795.7)" />
<use xlink:href="#f2_2b" transform="matrix(10,0,0,10,284.4,795.7)" />
<use xlink:href="#f2_22" transform="matrix(10,0,0,10,291.9,795.7)" />
<use xlink:href="#f2_1x" transform="matrix(10,0,0,10,299.6,795.7)" />
<use xlink:href="#f2_2a" transform="matrix(10,0,0,10,306.4,795.7)" />
<use xlink:href="#f2_25" transform="matrix(10,0,0,10,316.7,795.7)" />
<use xlink:href="#f2_2f" transform="matrix(10,0,0,10,320.9,795.7)" />
<use xlink:href="#f2_2b" transform="matrix(10,0,0,10,326.6,795.7)" />
<use xlink:href="#f2_2g" transform="matrix(10,0,0,10,334.4,795.7)" />
<use xlink:href="#f2_24" transform="matrix(10,0,0,10,338.7,795.7)" />
<use xlink:href="#f2_21" transform="matrix(10,0,0,10,346,795.7)" />
<use xlink:href="#f2_2e" transform="matrix(10,0,0,10,352.7,795.7)" />
<use xlink:href="#f2_29" transform="matrix(10,0,0,10,357.9,795.7)" />
<use xlink:href="#f2_1x" transform="matrix(10,0,0,10,369.4,795.7)" />
<use xlink:href="#f2_28" transform="matrix(10,0,0,10,375.8,795.7)" />
<use xlink:href="#f2_2c" transform="matrix(10,0,0,10,383,795.7)" />
<use xlink:href="#f2_2e" transform="matrix(10,0,0,10,390.9,795.7)" />
<use xlink:href="#f2_2b" transform="matrix(10,0,0,10,395.6,795.7)" />
<use xlink:href="#f2_1z" transform="matrix(10,0,0,10,403.5,795.7)" />
<use xlink:href="#f2_21" transform="matrix(10,0,0,10,410.3,795.7)" />
<use xlink:href="#f2_2f" transform="matrix(10,0,0,10,417.1,795.7)" />
<use xlink:href="#f2_2f" transform="matrix(10,0,0,10,422.6,795.7)" />
<use xlink:href="#f2_i" transform="matrix(10,0,0,10,428.6,795.7)" />
</g>
<g fill="#FFFFFF" >
<use xlink:href="#f1_ry" transform="matrix(12,0,0,12,69.8,852.7)" />
<use xlink:href="#f1_s3" transform="matrix(12,0,0,12,79,852.7)" />
<use xlink:href="#f1_nt" transform="matrix(12,0,0,12,88.4,852.7)" />
<use xlink:href="#f1_14" transform="matrix(12,0,0,12,98.4,852.7)" />
<use xlink:href="#f1_2j" transform="matrix(12,0,0,12,110.2,852.7)" />
<use xlink:href="#f1_5" transform="matrix(12,0,0,12,120.4,852.7)" />
<use xlink:href="#f1_2g" transform="matrix(12,0,0,12,131.4,852.7)" />
<use xlink:href="#f1_19" transform="matrix(12,0,0,12,141.3,852.7)" />
<use xlink:href="#f1_2t" transform="matrix(12,0,0,12,158,852.7)" />
<use xlink:href="#f1_2j" transform="matrix(12,0,0,12,167,852.7)" />
<use xlink:href="#f1_5" transform="matrix(12,0,0,12,177.5,852.7)" />
<use xlink:href="#f1_1y" transform="matrix(12,0,0,12,188.5,852.7)" />
<use xlink:href="#f1_2n" transform="matrix(12,0,0,12,200.6,852.7)" />
<use xlink:href="#f1_13" transform="matrix(12,0,0,12,209.2,852.7)" />
<use xlink:href="#f1_24" transform="matrix(12,0,0,12,217.4,852.7)" />
<use xlink:href="#f1_2j" transform="matrix(12,0,0,12,229.9,852.7)" />
<use xlink:href="#f1_1x" transform="matrix(12,0,0,12,240.3,852.7)" />
<use xlink:href="#f1_5" transform="matrix(12,0,0,12,256.3,852.7)" />
<use xlink:href="#f1_2t" transform="matrix(12,0,0,12,265.8,852.7)" />
<use xlink:href="#f1_1c" transform="matrix(12,0,0,12,275,852.7)" />
<use xlink:href="#f1_24" transform="matrix(12,0,0,12,280.1,852.7)" />
<use xlink:href="#f1_1y" transform="matrix(12,0,0,12,292.6,852.7)" />
</g>
<g fill="#000000" >
<use xlink:href="#f2_1n" transform="matrix(10,0,0,10,54.8,897.6)" />
<use xlink:href="#f2_24" transform="matrix(10,0,0,10,69.1,897.6)" />
<use xlink:href="#f2_21" transform="matrix(10,0,0,10,76.8,897.6)" />
<use xlink:href="#f2_2a" transform="matrix(10,0,0,10,83.6,897.6)" />
<use xlink:href="#f2_1x" transform="matrix(10,0,0,10,95.3,897.6)" />
<use xlink:href="#f2_2g" transform="matrix(10,0,0,10,106.7,897.6)" />
<use xlink:href="#f2_24" transform="matrix(10,0,0,10,110.7,897.6)" />
<use xlink:href="#f2_21" transform="matrix(10,0,0,10,118.4,897.6)" />
<use xlink:href="#f2_2e" transform="matrix(10,0,0,10,125.2,897.6)" />
<use xlink:href="#f2_29" transform="matrix(10,0,0,10,130.4,897.6)" />
<use xlink:href="#f2_2b" transform="matrix(10,0,0,10,141.9,897.6)" />
<use xlink:href="#f2_20" transform="matrix(10,0,0,10,149.4,897.6)" />
<use xlink:href="#f2_2l" transform="matrix(10,0,0,10,157.3,897.6)" />
<use xlink:href="#f2_2a" transform="matrix(10,0,0,10,164.6,897.6)" />
<use xlink:href="#f2_1x" transform="matrix(10,0,0,10,172,897.6)" />
<use xlink:href="#f2_29" transform="matrix(10,0,0,10,178.9,897.6)" />
<use xlink:href="#f2_25" transform="matrix(10,0,0,10,190.5,897.6)" />
<use xlink:href="#f2_1z" transform="matrix(10,0,0,10,194.5,897.6)" />
<use xlink:href="#f2_2c" transform="matrix(10,0,0,10,205.9,897.6)" />
<use xlink:href="#f2_2e" transform="matrix(10,0,0,10,213.6,897.6)" />
<use xlink:href="#f2_2b" transform="matrix(10,0,0,10,218.7,897.6)" />
<use xlink:href="#f2_1z" transform="matrix(10,0,0,10,226.4,897.6)" />
<use xlink:href="#f2_21" transform="matrix(10,0,0,10,233.2,897.6)" />
<use xlink:href="#f2_2f" transform="matrix(10,0,0,10,240,897.6)" />
<use xlink:href="#f2_2f" transform="matrix(10,0,0,10,245.9,897.6)" />
<use xlink:href="#f2_25" transform="matrix(10,0,0,10,256,897.6)" />
<use xlink:href="#f2_2f" transform="matrix(10,0,0,10,260.2,897.6)" />
<use xlink:href="#f2_2c" transform="matrix(10,0,0,10,270.6,897.6)" />
<use xlink:href="#f2_28" transform="matrix(10,0,0,10,278.1,897.6)" />
<use xlink:href="#f2_2b" transform="matrix(10,0,0,10,282.4,897.6)" />
<use xlink:href="#f2_2g" transform="matrix(10,0,0,10,290.2,897.6)" />
<use xlink:href="#f2_2g" transform="matrix(10,0,0,10,294.3,897.6)" />
<use xlink:href="#f2_21" transform="matrix(10,0,0,10,298.5,897.6)" />
<use xlink:href="#f2_20" transform="matrix(10,0,0,10,305.5,897.6)" />
<use xlink:href="#f2_25" transform="matrix(10,0,0,10,317.4,897.6)" />
<use xlink:href="#f2_2a" transform="matrix(10,0,0,10,321.6,897.6)" />
<use xlink:href="#f2_2g" transform="matrix(10,0,0,10,333.7,897.6)" />
<use xlink:href="#f2_21" transform="matrix(10,0,0,10,337.7,897.6)" />
<use xlink:href="#f2_2e" transform="matrix(10,0,0,10,344.7,897.6)" />
<use xlink:href="#f2_29" transform="matrix(10,0,0,10,349.8,897.6)" />
<use xlink:href="#f2_2f" transform="matrix(10,0,0,10,361.4,897.6)" />
<use xlink:href="#f2_2b" transform="matrix(10,0,0,10,371.5,897.6)" />
<use xlink:href="#f2_22" transform="matrix(10,0,0,10,379.4,897.6)" />
<use xlink:href="#f2_2g" transform="matrix(10,0,0,10,388.5,897.6)" />
<use xlink:href="#f2_2j" transform="matrix(10,0,0,10,392.7,897.6)" />
<use xlink:href="#f2_2b" transform="matrix(10,0,0,10,403.5,897.6)" />
<use xlink:href="#f2_2f" transform="matrix(10,0,0,10,415.4,897.6)" />
<use xlink:href="#f2_2g" transform="matrix(10,0,0,10,421.3,897.6)" />
<use xlink:href="#f2_1x" transform="matrix(10,0,0,10,425.7,897.6)" />
<use xlink:href="#f2_2g" transform="matrix(10,0,0,10,432.5,897.6)" />
<use xlink:href="#f2_21" transform="matrix(10,0,0,10,436.5,897.6)" />
<use xlink:href="#f2_2i" transform="matrix(10,0,0,10,55,920.5)" />
<use xlink:href="#f2_1x" transform="matrix(10,0,0,10,62.3,920.5)" />
<use xlink:href="#f2_2e" transform="matrix(10,0,0,10,69.3,920.5)" />
<use xlink:href="#f2_25" transform="matrix(10,0,0,10,74.4,920.5)" />
<use xlink:href="#f2_1x" transform="matrix(10,0,0,10,78.5,920.5)" />
<use xlink:href="#f2_1y" transform="matrix(10,0,0,10,85.4,920.5)" />
<use xlink:href="#f2_28" transform="matrix(10,0,0,10,93.1,920.5)" />
<use xlink:href="#f2_21" transform="matrix(10,0,0,10,97.2,920.5)" />
<use xlink:href="#f2_25" transform="matrix(10,0,0,10,108.9,920.5)" />
<use xlink:href="#f2_2g" transform="matrix(10,0,0,10,113.1,920.5)" />
<use xlink:href="#f2_1z" transform="matrix(10,0,0,10,122.5,920.5)" />
<use xlink:href="#f2_1x" transform="matrix(10,0,0,10,129.3,920.5)" />
<use xlink:href="#f2_2a" transform="matrix(10,0,0,10,136.1,920.5)" />
<use xlink:href="#f2_1y" transform="matrix(10,0,0,10,148.3,920.5)" />
<use xlink:href="#f2_21" transform="matrix(10,0,0,10,156,920.5)" />
<use xlink:href="#f2_2g" transform="matrix(10,0,0,10,167.8,920.5)" />
<use xlink:href="#f2_2e" transform="matrix(10,0,0,10,172,920.5)" />
<use xlink:href="#f2_1x" transform="matrix(10,0,0,10,177.3,920.5)" />
<use xlink:href="#f2_2a" transform="matrix(10,0,0,10,183.9,920.5)" />
<use xlink:href="#f2_2f" transform="matrix(10,0,0,10,191.4,920.5)" />
<use xlink:href="#f2_22" transform="matrix(10,0,0,10,197.3,920.5)" />
<use xlink:href="#f2_2b" transform="matrix(10,0,0,10,202.4,920.5)" />
<use xlink:href="#f2_2e" transform="matrix(10,0,0,10,210.1,920.5)" />
<use xlink:href="#f2_29" transform="matrix(10,0,0,10,215.3,920.5)" />
<use xlink:href="#f2_21" transform="matrix(10,0,0,10,226.8,920.5)" />
<use xlink:href="#f2_20" transform="matrix(10,0,0,10,233.6,920.5)" />
<use xlink:href="#f2_25" transform="matrix(10,0,0,10,246.1,920.5)" />
<use xlink:href="#f2_2a" transform="matrix(10,0,0,10,250.1,920.5)" />
<use xlink:href="#f2_2g" transform="matrix(10,0,0,10,257.8,920.5)" />
<use xlink:href="#f2_2b" transform="matrix(10,0,0,10,261.8,920.5)" />
<use xlink:href="#f2_1x" transform="matrix(10,0,0,10,274.7,920.5)" />
<use xlink:href="#f2_23" transform="matrix(10,0,0,10,286.2,920.5)" />
<use xlink:href="#f2_2e" transform="matrix(10,0,0,10,293.9,920.5)" />
<use xlink:href="#f2_1x" transform="matrix(10,0,0,10,298.9,920.5)" />
<use xlink:href="#f2_2c" transform="matrix(10,0,0,10,305.8,920.5)" />
<use xlink:href="#f2_24" transform="matrix(10,0,0,10,313.4,920.5)" />
<use xlink:href="#f2_25" transform="matrix(10,0,0,10,325.8,920.5)" />
<use xlink:href="#f2_2a" transform="matrix(10,0,0,10,330,920.5)" />
<use xlink:href="#f2_2i" transform="matrix(10,0,0,10,337.7,920.5)" />
<use xlink:href="#f2_2b" transform="matrix(10,0,0,10,345.3,920.5)" />
<use xlink:href="#f2_28" transform="matrix(10,0,0,10,353,920.5)" />
<use xlink:href="#f2_2i" transform="matrix(10,0,0,10,357,920.5)" />
<use xlink:href="#f2_25" transform="matrix(10,0,0,10,364.7,920.5)" />
<use xlink:href="#f2_2a" transform="matrix(10,0,0,10,368.7,920.5)" />
<use xlink:href="#f2_23" transform="matrix(10,0,0,10,376.4,920.5)" />
<use xlink:href="#f2_2g" transform="matrix(10,0,0,10,388.8,920.5)" />
<use xlink:href="#f2_24" transform="matrix(10,0,0,10,392.9,920.5)" />
<use xlink:href="#f2_21" transform="matrix(10,0,0,10,400.6,920.5)" />
<use xlink:href="#f2_2b" transform="matrix(10,0,0,10,412.3,920.5)" />
<use xlink:href="#f2_2g" transform="matrix(10,0,0,10,419.8,920.5)" />
<use xlink:href="#f2_24" transform="matrix(10,0,0,10,424.1,920.5)" />
<use xlink:href="#f2_21" transform="matrix(10,0,0,10,431.6,920.5)" />
<use xlink:href="#f2_2e" transform="matrix(10,0,0,10,438.4,920.5)" />
<use xlink:href="#f2_2f" transform="matrix(10,0,0,10,55,943.4)" />
<use xlink:href="#f2_2g" transform="matrix(10,0,0,10,60.9,943.4)" />
<use xlink:href="#f2_1x" transform="matrix(10,0,0,10,64.9,943.4)" />
<use xlink:href="#f2_2g" transform="matrix(10,0,0,10,71.9,943.4)" />
<use xlink:href="#f2_21" transform="matrix(10,0,0,10,76.1,943.4)" />
<use xlink:href="#f2_2i" transform="matrix(10,0,0,10,86.4,943.4)" />
<use xlink:href="#f2_1x" transform="matrix(10,0,0,10,94.1,943.4)" />
<use xlink:href="#f2_2e" transform="matrix(10,0,0,10,100.8,943.4)" />
<use xlink:href="#f2_25" transform="matrix(10,0,0,10,105.8,943.4)" />
<use xlink:href="#f2_1x" transform="matrix(10,0,0,10,110,943.4)" />
<use xlink:href="#f2_1y" transform="matrix(10,0,0,10,117,943.4)" />
<use xlink:href="#f2_28" transform="matrix(10,0,0,10,124.5,943.4)" />
<use xlink:href="#f2_21" transform="matrix(10,0,0,10,128.7,943.4)" />
<use xlink:href="#f2_1y" transform="matrix(10,0,0,10,139.4,943.4)" />
<use xlink:href="#f2_2l" transform="matrix(10,0,0,10,146.9,943.4)" />
<use xlink:href="#f2_20" transform="matrix(10,0,0,10,158.1,943.4)" />
<use xlink:href="#f2_2b" transform="matrix(10,0,0,10,165.6,943.4)" />
<use xlink:href="#f2_25" transform="matrix(10,0,0,10,173.5,943.4)" />
<use xlink:href="#f2_2a" transform="matrix(10,0,0,10,177.7,943.4)" />
<use xlink:href="#f2_23" transform="matrix(10,0,0,10,185,943.4)" />
<use xlink:href="#f2_2g" transform="matrix(10,0,0,10,196.6,943.4)" />
<use xlink:href="#f2_24" transform="matrix(10,0,0,10,200.8,943.4)" />
<use xlink:href="#f2_21" transform="matrix(10,0,0,10,208.1,943.4)" />
<use xlink:href="#f2_22" transform="matrix(10,0,0,10,218.7,943.4)" />
<use xlink:href="#f2_2b" transform="matrix(10,0,0,10,223.7,943.4)" />
<use xlink:href="#f2_28" transform="matrix(10,0,0,10,231.4,943.4)" />
<use xlink:href="#f2_28" transform="matrix(10,0,0,10,235.6,943.4)" />
<use xlink:href="#f2_2b" transform="matrix(10,0,0,10,239.6,943.4)" />
<use xlink:href="#f2_2j" transform="matrix(10,0,0,10,247.3,943.4)" />
<use xlink:href="#f2_25" transform="matrix(10,0,0,10,258.2,943.4)" />
<use xlink:href="#f2_2a" transform="matrix(10,0,0,10,262.4,943.4)" />
<use xlink:href="#f2_23" transform="matrix(10,0,0,10,269.7,943.4)" />
<use xlink:href="#f2_u" transform="matrix(10,0,0,10,281.1,943.4)" />
<use xlink:href="#f2_l" transform="matrix(10,0,0,10,54.8,971.8)" />
<use xlink:href="#f2_i" transform="matrix(10,0,0,10,61,971.8)" />
<use xlink:href="#f2_19" transform="matrix(10,0,0,10,78.8,971.8)" />
<use xlink:href="#f2_20" transform="matrix(10,0,0,10,84,971.8)" />
<use xlink:href="#f2_21" transform="matrix(10,0,0,10,91.5,971.8)" />
<use xlink:href="#f2_2a" transform="matrix(10,0,0,10,98.5,971.8)" />
<use xlink:href="#f2_2g" transform="matrix(10,0,0,10,105.8,971.8)" />
<use xlink:href="#f2_25" transform="matrix(10,0,0,10,110,971.8)" />
<use xlink:href="#f2_22" transform="matrix(10,0,0,10,114.4,971.8)" />
<use xlink:href="#f2_2l" transform="matrix(10,0,0,10,119.4,971.8)" />
<use xlink:href="#f2_2g" transform="matrix(10,0,0,10,129.6,971.8)" />
<use xlink:href="#f2_24" transform="matrix(10,0,0,10,133.7,971.8)" />
<use xlink:href="#f2_21" transform="matrix(10,0,0,10,141.4,971.8)" />
<use xlink:href="#f2_2g" transform="matrix(10,0,0,10,150.9,971.8)" />
<use xlink:href="#f2_2l" transform="matrix(10,0,0,10,155.1,971.8)" />
<use xlink:href="#f2_2c" transform="matrix(10,0,0,10,162.5,971.8)" />
<use xlink:href="#f2_21" transform="matrix(10,0,0,10,170.3,971.8)" />
<use xlink:href="#f2_2b" transform="matrix(10,0,0,10,180,971.8)" />
<use xlink:href="#f2_22" transform="matrix(10,0,0,10,187.6,971.8)" />
<use xlink:href="#f2_1z" transform="matrix(10,0,0,10,195.6,971.8)" />
<use xlink:href="#f2_2h" transform="matrix(10,0,0,10,202.4,971.8)" />
<use xlink:href="#f2_2e" transform="matrix(10,0,0,10,209.9,971.8)" />
<use xlink:href="#f2_2i" transform="matrix(10,0,0,10,215.1,971.8)" />
<use xlink:href="#f2_21" transform="matrix(10,0,0,10,222.4,971.8)" />
<use xlink:href="#f2_23" transform="matrix(10,0,0,10,232.3,971.8)" />
<use xlink:href="#f2_25" transform="matrix(10,0,0,10,239.6,971.8)" />
<use xlink:href="#f2_2i" transform="matrix(10,0,0,10,243.9,971.8)" />
<use xlink:href="#f2_21" transform="matrix(10,0,0,10,251.6,971.8)" />
<use xlink:href="#f2_2a" transform="matrix(10,0,0,10,258.3,971.8)" />
<use xlink:href="#f2_g" transform="matrix(10,0,0,10,265.7,971.8)" />
<use xlink:href="#f2_2j" transform="matrix(10,0,0,10,272.6,971.8)" />
<use xlink:href="#f2_24" transform="matrix(10,0,0,10,283.3,971.8)" />
<use xlink:href="#f2_21" transform="matrix(10,0,0,10,290.6,971.8)" />
<use xlink:href="#f2_2g" transform="matrix(10,0,0,10,297.6,971.8)" />
<use xlink:href="#f2_24" transform="matrix(10,0,0,10,301.6,971.8)" />
<use xlink:href="#f2_21" transform="matrix(10,0,0,10,309.3,971.8)" />
<use xlink:href="#f2_2e" transform="matrix(10,0,0,10,316.1,971.8)" />
<use xlink:href="#f2_25" transform="matrix(10,0,0,10,324.2,971.8)" />
<use xlink:href="#f2_2g" transform="matrix(10,0,0,10,328.4,971.8)" />
<use xlink:href="#f2_25" transform="matrix(10,0,0,10,335.5,971.8)" />
<use xlink:href="#f2_2f" transform="matrix(10,0,0,10,339.8,971.8)" />
<use xlink:href="#f2_1g" transform="matrix(10,0,0,10,348.6,971.8)" />
<use xlink:href="#f2_h" transform="matrix(10,0,0,10,357.3,971.8)" />
<use xlink:href="#f2_1m" transform="matrix(10,0,0,10,362.1,971.8)" />
<use xlink:href="#f2_g" transform="matrix(10,0,0,10,371.1,971.8)" />
<use xlink:href="#f2_1m" transform="matrix(10,0,0,10,377.8,971.8)" />
<use xlink:href="#f2_h" transform="matrix(10,0,0,10,387.2,971.8)" />
<use xlink:href="#f2_1k" transform="matrix(10,0,0,10,392.3,971.8)" />
<use xlink:href="#f2_2b" transform="matrix(10,0,0,10,404.4,971.8)" />
<use xlink:href="#f2_2e" transform="matrix(10,0,0,10,412.3,971.8)" />
<use xlink:href="#f2_1g" transform="matrix(10,0,0,10,420.4,971.8)" />
<use xlink:href="#f2_h" transform="matrix(10,0,0,10,428.8,971.8)" />
<use xlink:href="#f2_1k" transform="matrix(10,0,0,10,433.8,971.8)" />
<use xlink:href="#f2_23" transform="matrix(10,0,0,10,78.8,994.8)" />
<use xlink:href="#f2_2e" transform="matrix(10,0,0,10,86.5,994.8)" />
<use xlink:href="#f2_1x" transform="matrix(10,0,0,10,91.5,994.8)" />
<use xlink:href="#f2_2c" transform="matrix(10,0,0,10,98.6,994.8)" />
<use xlink:href="#f2_24" transform="matrix(10,0,0,10,106.2,994.8)" />
<use xlink:href="#f2_i" transform="matrix(10,0,0,10,113.9,994.8)" />
<use xlink:href="#f2_m" transform="matrix(10,0,0,10,54.8,1023.2)" />
<use xlink:href="#f2_i" transform="matrix(10,0,0,10,61,1023.2)" />
<use xlink:href="#f2_1k" transform="matrix(10,0,0,10,78.8,1023.2)" />
<use xlink:href="#f2_24" transform="matrix(10,0,0,10,88.2,1023.2)" />
<use xlink:href="#f2_21" transform="matrix(10,0,0,10,95.9,1023.2)" />
<use xlink:href="#f2_2a" transform="matrix(10,0,0,10,102.5,1023.2)" />
<use xlink:href="#f2_g" transform="matrix(10,0,0,10,110,1023.2)" />
<use xlink:href="#f2_19" transform="matrix(10,0,0,10,118.6,1023.2)" />
<use xlink:href="#f2_20" transform="matrix(10,0,0,10,123.8,1023.2)" />
<use xlink:href="#f2_21" transform="matrix(10,0,0,10,131.3,1023.2)" />
<use xlink:href="#f2_2a" transform="matrix(10,0,0,10,138.2,1023.2)" />
<use xlink:href="#f2_2g" transform="matrix(10,0,0,10,145.6,1023.2)" />
<use xlink:href="#f2_25" transform="matrix(10,0,0,10,149.8,1023.2)" />
<use xlink:href="#f2_22" transform="matrix(10,0,0,10,154,1023.2)" />
<use xlink:href="#f2_2l" transform="matrix(10,0,0,10,159.1,1023.2)" />
<use xlink:href="#f2_21" transform="matrix(10,0,0,10,170.7,1023.2)" />
<use xlink:href="#f2_2i" transform="matrix(10,0,0,10,177.7,1023.2)" />
<use xlink:href="#f2_21" transform="matrix(10,0,0,10,185,1023.2)" />
<use xlink:href="#f2_2e" transform="matrix(10,0,0,10,192,1023.2)" />
<use xlink:href="#f2_2l" transform="matrix(10,0,0,10,197.1,1023.2)" />
<use xlink:href="#f2_2f" transform="matrix(10,0,0,10,209,1023.2)" />
<use xlink:href="#f2_2g" transform="matrix(10,0,0,10,214.9,1023.2)" />
<use xlink:href="#f2_21" transform="matrix(10,0,0,10,218.9,1023.2)" />
<use xlink:href="#f2_2c" transform="matrix(10,0,0,10,225.9,1023.2)" />
<use xlink:href="#f2_2b" transform="matrix(10,0,0,10,238.2,1023.2)" />
<use xlink:href="#f2_22" transform="matrix(10,0,0,10,245.7,1023.2)" />
<use xlink:href="#f2_2g" transform="matrix(10,0,0,10,255,1023.2)" />
<use xlink:href="#f2_24" transform="matrix(10,0,0,10,259.3,1023.2)" />
<use xlink:href="#f2_21" transform="matrix(10,0,0,10,267,1023.2)" />
<use xlink:href="#f2_2c" transform="matrix(10,0,0,10,278.3,1023.2)" />
<use xlink:href="#f2_2e" transform="matrix(10,0,0,10,286,1023.2)" />
<use xlink:href="#f2_2b" transform="matrix(10,0,0,10,291,1023.2)" />
<use xlink:href="#f2_1z" transform="matrix(10,0,0,10,298.9,1023.2)" />
<use xlink:href="#f2_21" transform="matrix(10,0,0,10,305.6,1023.2)" />
<use xlink:href="#f2_2f" transform="matrix(10,0,0,10,312.2,1023.2)" />
<use xlink:href="#f2_2f" transform="matrix(10,0,0,10,318.3,1023.2)" />
<use xlink:href="#f2_n" transform="matrix(10,0,0,10,54.8,1051.6)" />
<use xlink:href="#f2_i" transform="matrix(10,0,0,10,61,1051.6)" />
<use xlink:href="#f2_1k" transform="matrix(10,0,0,10,78.8,1051.6)" />
<use xlink:href="#f2_24" transform="matrix(10,0,0,10,88.2,1051.6)" />
<use xlink:href="#f2_21" transform="matrix(10,0,0,10,95.9,1051.6)" />
<use xlink:href="#f2_2a" transform="matrix(10,0,0,10,102.5,1051.6)" />
<use xlink:href="#f2_2b" transform="matrix(10,0,0,10,114.2,1051.6)" />
<use xlink:href="#f2_2a" transform="matrix(10,0,0,10,122.1,1051.6)" />
<use xlink:href="#f2_21" transform="matrix(10,0,0,10,129.4,1051.6)" />
<use xlink:href="#f2_1y" transform="matrix(10,0,0,10,140.8,1051.6)" />
<use xlink:href="#f2_2l" transform="matrix(10,0,0,10,148.3,1051.6)" />
<use xlink:href="#f2_2b" transform="matrix(10,0,0,10,159.9,1051.6)" />
<use xlink:href="#f2_2a" transform="matrix(10,0,0,10,167.8,1051.6)" />
<use xlink:href="#f2_21" transform="matrix(10,0,0,10,175.1,1051.6)" />
<use xlink:href="#f2_1z" transform="matrix(10,0,0,10,186.1,1051.6)" />
<use xlink:href="#f2_2b" transform="matrix(10,0,0,10,192.9,1051.6)" />
<use xlink:href="#f2_2a" transform="matrix(10,0,0,10,200.8,1051.6)" />
<use xlink:href="#f2_2i" transform="matrix(10,0,0,10,208.1,1051.6)" />
<use xlink:href="#f2_21" transform="matrix(10,0,0,10,215.6,1051.6)" />
<use xlink:href="#f2_2e" transform="matrix(10,0,0,10,222.6,1051.6)" />
<use xlink:href="#f2_2g" transform="matrix(10,0,0,10,227.7,1051.6)" />
<use xlink:href="#f2_21" transform="matrix(10,0,0,10,236,1051.6)" />
<use xlink:href="#f2_2i" transform="matrix(10,0,0,10,242.9,1051.6)" />
<use xlink:href="#f2_21" transform="matrix(10,0,0,10,250.3,1051.6)" />
<use xlink:href="#f2_2e" transform="matrix(10,0,0,10,257.2,1051.6)" />
<use xlink:href="#f2_2l" transform="matrix(10,0,0,10,262.2,1051.6)" />
<use xlink:href="#f2_2f" transform="matrix(10,0,0,10,273.9,1051.6)" />
<use xlink:href="#f2_2g" transform="matrix(10,0,0,10,280,1051.6)" />
<use xlink:href="#f2_21" transform="matrix(10,0,0,10,284.2,1051.6)" />
<use xlink:href="#f2_2c" transform="matrix(10,0,0,10,291,1051.6)" />
<use xlink:href="#f2_25" transform="matrix(10,0,0,10,302.7,1051.6)" />
<use xlink:href="#f2_2a" transform="matrix(10,0,0,10,306.9,1051.6)" />
<use xlink:href="#f2_2g" transform="matrix(10,0,0,10,314.6,1051.6)" />
<use xlink:href="#f2_2b" transform="matrix(10,0,0,10,318.7,1051.6)" />
<use xlink:href="#f2_2g" transform="matrix(10,0,0,10,330.8,1051.6)" />
<use xlink:href="#f2_24" transform="matrix(10,0,0,10,334.8,1051.6)" />
<use xlink:href="#f2_21" transform="matrix(10,0,0,10,342.5,1051.6)" />
<use xlink:href="#f2_2e" transform="matrix(10,0,0,10,353.7,1051.6)" />
<use xlink:href="#f2_21" transform="matrix(10,0,0,10,358.8,1051.6)" />
<use xlink:href="#f2_2d" transform="matrix(10,0,0,10,365.6,1051.6)" />
<use xlink:href="#f2_2h" transform="matrix(10,0,0,10,373.1,1051.6)" />
<use xlink:href="#f2_25" transform="matrix(10,0,0,10,380.8,1051.6)" />
<use xlink:href="#f2_2e" transform="matrix(10,0,0,10,384.8,1051.6)" />
<use xlink:href="#f2_21" transform="matrix(10,0,0,10,389.9,1051.6)" />
<use xlink:href="#f2_20" transform="matrix(10,0,0,10,396.9,1051.6)" />
<use xlink:href="#f2_23" transform="matrix(10,0,0,10,408.7,1051.6)" />
<use xlink:href="#f2_2e" transform="matrix(10,0,0,10,416.4,1051.6)" />
<use xlink:href="#f2_1x" transform="matrix(10,0,0,10,421.5,1051.6)" />
<use xlink:href="#f2_2c" transform="matrix(10,0,0,10,428.3,1051.6)" />
<use xlink:href="#f2_24" transform="matrix(10,0,0,10,435.8,1051.6)" />
<use xlink:href="#f2_1y" transform="matrix(10,0,0,10,78.8,1074.5)" />
<use xlink:href="#f2_21" transform="matrix(10,0,0,10,86.5,1074.5)" />
<use xlink:href="#f2_1x" transform="matrix(10,0,0,10,93.3,1074.5)" />
<use xlink:href="#f2_2e" transform="matrix(10,0,0,10,100.1,1074.5)" />
<use xlink:href="#f2_25" transform="matrix(10,0,0,10,105.2,1074.5)" />
<use xlink:href="#f2_2a" transform="matrix(10,0,0,10,109.3,1074.5)" />
<use xlink:href="#f2_23" transform="matrix(10,0,0,10,117,1074.5)" />
<use xlink:href="#f2_25" transform="matrix(10,0,0,10,127.1,1074.5)" />
<use xlink:href="#f2_2a" transform="matrix(10,0,0,10,131.3,1074.5)" />
<use xlink:href="#f2_29" transform="matrix(10,0,0,10,141.9,1074.5)" />
<use xlink:href="#f2_25" transform="matrix(10,0,0,10,153.5,1074.5)" />
<use xlink:href="#f2_2a" transform="matrix(10,0,0,10,157.7,1074.5)" />
<use xlink:href="#f2_20" transform="matrix(10,0,0,10,165,1074.5)" />
<use xlink:href="#f2_1z" transform="matrix(10,0,0,10,175.6,1074.5)" />
<use xlink:href="#f2_2e" transform="matrix(10,0,0,10,182.4,1074.5)" />
<use xlink:href="#f2_25" transform="matrix(10,0,0,10,187.6,1074.5)" />
<use xlink:href="#f2_2g" transform="matrix(10,0,0,10,191.4,1074.5)" />
<use xlink:href="#f2_25" transform="matrix(10,0,0,10,195.6,1074.5)" />
<use xlink:href="#f2_1z" transform="matrix(10,0,0,10,199.9,1074.5)" />
<use xlink:href="#f2_1x" transform="matrix(10,0,0,10,206.8,1074.5)" />
<use xlink:href="#f2_28" transform="matrix(10,0,0,10,213.6,1074.5)" />
<use xlink:href="#f2_2c" transform="matrix(10,0,0,10,220.6,1074.5)" />
<use xlink:href="#f2_2b" transform="matrix(10,0,0,10,228.5,1074.5)" />
<use xlink:href="#f2_25" transform="matrix(10,0,0,10,236,1074.5)" />
<use xlink:href="#f2_2a" transform="matrix(10,0,0,10,240.2,1074.5)" />
<use xlink:href="#f2_2g" transform="matrix(10,0,0,10,247.9,1074.5)" />
<use xlink:href="#f2_2f" transform="matrix(10,0,0,10,251.9,1074.5)" />
<use xlink:href="#f2_28" transform="matrix(10,0,0,10,260.7,1074.5)" />
<use xlink:href="#f2_25" transform="matrix(10,0,0,10,265,1074.5)" />
<use xlink:href="#f2_27" transform="matrix(10,0,0,10,269.2,1074.5)" />
<use xlink:href="#f2_21" transform="matrix(10,0,0,10,276.5,1074.5)" />
<use xlink:href="#f2_g" transform="matrix(10,0,0,10,283.5,1074.5)" />
<use xlink:href="#f2_1x" transform="matrix(10,0,0,10,290.1,1074.5)" />
<use xlink:href="#f2_2a" transform="matrix(10,0,0,10,297,1074.5)" />
<use xlink:href="#f2_21" transform="matrix(10,0,0,10,307.1,1074.5)" />
<use xlink:href="#f2_2k" transform="matrix(10,0,0,10,314.1,1074.5)" />
<use xlink:href="#f2_2c" transform="matrix(10,0,0,10,321.4,1074.5)" />
<use xlink:href="#f2_1x" transform="matrix(10,0,0,10,329.1,1074.5)" />
<use xlink:href="#f2_2a" transform="matrix(10,0,0,10,335.9,1074.5)" />
<use xlink:href="#f2_2f" transform="matrix(10,0,0,10,343.2,1074.5)" />
<use xlink:href="#f2_25" transform="matrix(10,0,0,10,349.3,1074.5)" />
<use xlink:href="#f2_2b" transform="matrix(10,0,0,10,353.5,1074.5)" />
<use xlink:href="#f2_2a" transform="matrix(10,0,0,10,361,1074.5)" />
<use xlink:href="#f2_2c" transform="matrix(10,0,0,10,371.4,1074.5)" />
<use xlink:href="#f2_2e" transform="matrix(10,0,0,10,379.3,1074.5)" />
<use xlink:href="#f2_2b" transform="matrix(10,0,0,10,384.4,1074.5)" />
<use xlink:href="#f2_1z" transform="matrix(10,0,0,10,392,1074.5)" />
<use xlink:href="#f2_21" transform="matrix(10,0,0,10,398.9,1074.5)" />
<use xlink:href="#f2_2f" transform="matrix(10,0,0,10,405.4,1074.5)" />
<use xlink:href="#f2_2f" transform="matrix(10,0,0,10,411.4,1074.5)" />
<use xlink:href="#f2_2j" transform="matrix(10,0,0,10,420.2,1074.5)" />
<use xlink:href="#f2_25" transform="matrix(10,0,0,10,430.6,1074.5)" />
<use xlink:href="#f2_28" transform="matrix(10,0,0,10,434.9,1074.5)" />
<use xlink:href="#f2_28" transform="matrix(10,0,0,10,439.1,1074.5)" />
<use xlink:href="#f2_2e" transform="matrix(10,0,0,10,78.8,1097.4)" />
<use xlink:href="#f2_21" transform="matrix(10,0,0,10,84,1097.4)" />
<use xlink:href="#f2_29" transform="matrix(10,0,0,10,90.8,1097.4)" />
<use xlink:href="#f2_1x" transform="matrix(10,0,0,10,102.3,1097.4)" />
<use xlink:href="#f2_25" transform="matrix(10,0,0,10,108.9,1097.4)" />
<use xlink:href="#f2_2a" transform="matrix(10,0,0,10,113.3,1097.4)" />
<use xlink:href="#f2_1x" transform="matrix(10,0,0,10,124.9,1097.4)" />
<use xlink:href="#f2_2a" transform="matrix(10,0,0,10,131.5,1097.4)" />
<use xlink:href="#f2_21" transform="matrix(10,0,0,10,143.2,1097.4)" />
<use xlink:href="#f2_2k" transform="matrix(10,0,0,10,150.2,1097.4)" />
<use xlink:href="#f2_2c" transform="matrix(10,0,0,10,157.5,1097.4)" />
<use xlink:href="#f2_1x" transform="matrix(10,0,0,10,165.4,1097.4)" />
<use xlink:href="#f2_2a" transform="matrix(10,0,0,10,172.2,1097.4)" />
<use xlink:href="#f2_2f" transform="matrix(10,0,0,10,179.5,1097.4)" />
<use xlink:href="#f2_25" transform="matrix(10,0,0,10,185.5,1097.4)" />
<use xlink:href="#f2_2b" transform="matrix(10,0,0,10,189.8,1097.4)" />
<use xlink:href="#f2_2a" transform="matrix(10,0,0,10,197.3,1097.4)" />
<use xlink:href="#f2_2c" transform="matrix(10,0,0,10,208.8,1097.4)" />
<use xlink:href="#f2_2e" transform="matrix(10,0,0,10,216.7,1097.4)" />
<use xlink:href="#f2_2b" transform="matrix(10,0,0,10,221.8,1097.4)" />
<use xlink:href="#f2_1z" transform="matrix(10,0,0,10,229.4,1097.4)" />
<use xlink:href="#f2_21" transform="matrix(10,0,0,10,236.3,1097.4)" />
<use xlink:href="#f2_2f" transform="matrix(10,0,0,10,242.9,1097.4)" />
<use xlink:href="#f2_2f" transform="matrix(10,0,0,10,249,1097.4)" />
<use xlink:href="#f2_1x" transform="matrix(10,0,0,10,258.9,1097.4)" />
<use xlink:href="#f2_2a" transform="matrix(10,0,0,10,265.7,1097.4)" />
<use xlink:href="#f2_20" transform="matrix(10,0,0,10,273,1097.4)" />
<use xlink:href="#f2_2f" transform="matrix(10,0,0,10,285.1,1097.4)" />
<use xlink:href="#f2_2b" transform="matrix(10,0,0,10,290.8,1097.4)" />
<use xlink:href="#f2_2b" transform="matrix(10,0,0,10,302.5,1097.4)" />
<use xlink:href="#f2_2a" transform="matrix(10,0,0,10,310.4,1097.4)" />
<use xlink:href="#f2_i" transform="matrix(10,0,0,10,317.7,1097.4)" />
<use xlink:href="#f2_o" transform="matrix(10,0,0,10,465.7,700.9)" />
<use xlink:href="#f2_i" transform="matrix(10,0,0,10,471.9,700.9)" />
<use xlink:href="#f2_11" transform="matrix(10,0,0,10,489.7,700.9)" />
<use xlink:href="#f2_1z" transform="matrix(10,0,0,10,505.1,700.9)" />
<use xlink:href="#f2_2l" transform="matrix(10,0,0,10,512,700.9)" />
<use xlink:href="#f2_1z" transform="matrix(10,0,0,10,519.4,700.9)" />
<use xlink:href="#f2_28" transform="matrix(10,0,0,10,526.2,700.9)" />
<use xlink:href="#f2_25" transform="matrix(10,0,0,10,530.2,700.9)" />
<use xlink:href="#f2_1z" transform="matrix(10,0,0,10,534.4,700.9)" />
<use xlink:href="#f2_2c" transform="matrix(10,0,0,10,546,700.9)" />
<use xlink:href="#f2_2e" transform="matrix(10,0,0,10,553.9,700.9)" />
<use xlink:href="#f2_2b" transform="matrix(10,0,0,10,558.8,700.9)" />
<use xlink:href="#f2_1z" transform="matrix(10,0,0,10,566.7,700.9)" />
<use xlink:href="#f2_21" transform="matrix(10,0,0,10,573.5,700.9)" />
<use xlink:href="#f2_2f" transform="matrix(10,0,0,10,580.3,700.9)" />
<use xlink:href="#f2_2f" transform="matrix(10,0,0,10,585.9,700.9)" />
<use xlink:href="#f2_2f" transform="matrix(10,0,0,10,596.6,700.9)" />
<use xlink:href="#f2_24" transform="matrix(10,0,0,10,602.6,700.9)" />
<use xlink:href="#f2_2b" transform="matrix(10,0,0,10,610,700.9)" />
<use xlink:href="#f2_2h" transform="matrix(10,0,0,10,617.8,700.9)" />
<use xlink:href="#f2_28" transform="matrix(10,0,0,10,625.2,700.9)" />
<use xlink:href="#f2_20" transform="matrix(10,0,0,10,629.6,700.9)" />
<use xlink:href="#f2_2e" transform="matrix(10,0,0,10,642,700.9)" />
<use xlink:href="#f2_21" transform="matrix(10,0,0,10,647.2,700.9)" />
<use xlink:href="#f2_29" transform="matrix(10,0,0,10,654,700.9)" />
<use xlink:href="#f2_1x" transform="matrix(10,0,0,10,665.5,700.9)" />
<use xlink:href="#f2_25" transform="matrix(10,0,0,10,672.3,700.9)" />
<use xlink:href="#f2_2a" transform="matrix(10,0,0,10,676.5,700.9)" />
<use xlink:href="#f2_1z" transform="matrix(10,0,0,10,689,700.9)" />
<use xlink:href="#f2_2l" transform="matrix(10,0,0,10,695.8,700.9)" />
<use xlink:href="#f2_1z" transform="matrix(10,0,0,10,702.9,700.9)" />
<use xlink:href="#f2_28" transform="matrix(10,0,0,10,709.9,700.9)" />
<use xlink:href="#f2_25" transform="matrix(10,0,0,10,713.9,700.9)" />
<use xlink:href="#f2_1z" transform="matrix(10,0,0,10,718.1,700.9)" />
<use xlink:href="#f2_2j" transform="matrix(10,0,0,10,729.7,700.9)" />
<use xlink:href="#f2_24" transform="matrix(10,0,0,10,740.3,700.9)" />
<use xlink:href="#f2_25" transform="matrix(10,0,0,10,748,700.9)" />
<use xlink:href="#f2_1z" transform="matrix(10,0,0,10,752.1,700.9)" />
<use xlink:href="#f2_24" transform="matrix(10,0,0,10,759,700.9)" />
<use xlink:href="#f2_21" transform="matrix(10,0,0,10,766.4,700.9)" />
<use xlink:href="#f2_2i" transform="matrix(10,0,0,10,773.3,700.9)" />
<use xlink:href="#f2_21" transform="matrix(10,0,0,10,780.7,700.9)" />
<use xlink:href="#f2_2e" transform="matrix(10,0,0,10,787.6,700.9)" />
<use xlink:href="#f2_23" transform="matrix(10,0,0,10,797.5,700.9)" />
<use xlink:href="#f2_2e" transform="matrix(10,0,0,10,804.8,700.9)" />
<use xlink:href="#f2_1x" transform="matrix(10,0,0,10,810.1,700.9)" />
<use xlink:href="#f2_2c" transform="matrix(10,0,0,10,816.9,700.9)" />
<use xlink:href="#f2_24" transform="matrix(10,0,0,10,824.5,700.9)" />
<use xlink:href="#f2_2j" transform="matrix(10,0,0,10,836.9,700.9)" />
<use xlink:href="#f2_21" transform="matrix(10,0,0,10,847.5,700.9)" />
<use xlink:href="#f2_29" transform="matrix(10,0,0,10,489.7,723.8)" />
<use xlink:href="#f2_1x" transform="matrix(10,0,0,10,500.5,723.8)" />
<use xlink:href="#f2_27" transform="matrix(10,0,0,10,506.7,723.8)" />
<use xlink:href="#f2_21" transform="matrix(10,0,0,10,513.9,723.8)" />
<use xlink:href="#f2_i" transform="matrix(10,0,0,10,520.1,723.8)" />
</g>
<image preserveAspectRatio="none" x="479" y="759" width="361" height="159" xlink:href="img/1.png" />
<g fill="#000000" >
<use xlink:href="#f3_1e" transform="matrix(10,0,0,10,475.9,961)" />
<use xlink:href="#f3_2b" transform="matrix(10,0,0,10,486.6,961)" />
<use xlink:href="#f3_2g" transform="matrix(10,0,0,10,494.1,961)" />
<use xlink:href="#f3_21" transform="matrix(10,0,0,10,499.2,961)" />
<use xlink:href="#f3_u" transform="matrix(10,0,0,10,508.4,961)" />
<use xlink:href="#f2_16" transform="matrix(10,0,0,10,516.3,961)" />
<use xlink:href="#f2_2e" transform="matrix(10,0,0,10,524.3,961)" />
<use xlink:href="#f2_2b" transform="matrix(10,0,0,10,529.5,961)" />
<use xlink:href="#f2_29" transform="matrix(10,0,0,10,537,961)" />
<use xlink:href="#f2_2g" transform="matrix(10,0,0,10,551.1,961)" />
<use xlink:href="#f2_24" transform="matrix(10,0,0,10,555,961)" />
<use xlink:href="#f2_21" transform="matrix(10,0,0,10,562.3,961)" />
<use xlink:href="#f2_23" transform="matrix(10,0,0,10,571.5,961)" />
<use xlink:href="#f2_25" transform="matrix(10,0,0,10,578.8,961)" />
<use xlink:href="#f2_2i" transform="matrix(10,0,0,10,583,961)" />
<use xlink:href="#f2_21" transform="matrix(10,0,0,10,590.2,961)" />
<use xlink:href="#f2_2a" transform="matrix(10,0,0,10,596.8,961)" />
<use xlink:href="#f2_1g" transform="matrix(10,0,0,10,607,961)" />
<use xlink:href="#f2_4y" transform="matrix(10,0,0,10,615.3,961)" />
<use xlink:href="#f2_1m" transform="matrix(10,0,0,10,622.8,961)" />
<use xlink:href="#f2_23" transform="matrix(10,0,0,10,636.4,961)" />
<use xlink:href="#f2_2e" transform="matrix(10,0,0,10,643.9,961)" />
<use xlink:href="#f2_1x" transform="matrix(10,0,0,10,648.6,961)" />
<use xlink:href="#f2_2c" transform="matrix(10,0,0,10,655.4,961)" />
<use xlink:href="#f2_24" transform="matrix(10,0,0,10,662.9,961)" />
<use xlink:href="#f2_i" transform="matrix(10,0,0,10,670.3,961)" />
<use xlink:href="#f2_1g" transform="matrix(10,0,0,10,475.9,989.4)" />
<use xlink:href="#f2_2e" transform="matrix(10,0,0,10,484,989.4)" />
<use xlink:href="#f2_2b" transform="matrix(10,0,0,10,489.1,989.4)" />
<use xlink:href="#f2_1z" transform="matrix(10,0,0,10,496.5,989.4)" />
<use xlink:href="#f2_21" transform="matrix(10,0,0,10,502.9,989.4)" />
<use xlink:href="#f2_2f" transform="matrix(10,0,0,10,509.3,989.4)" />
<use xlink:href="#f2_2f" transform="matrix(10,0,0,10,514.8,989.4)" />
<use xlink:href="#f2_l" transform="matrix(10,0,0,10,523.4,989.4)" />
<use xlink:href="#f4_34" transform="matrix(10,0,0,10,530.7,989.4)" />
<use xlink:href="#f2_m" transform="matrix(10,0,0,10,545.4,989.4)" />
<use xlink:href="#f2_25" transform="matrix(10,0,0,10,555.3,989.4)" />
<use xlink:href="#f2_2f" transform="matrix(10,0,0,10,559.4,989.4)" />
<use xlink:href="#f2_25" transform="matrix(10,0,0,10,567.6,989.4)" />
<use xlink:href="#f2_2f" transform="matrix(10,0,0,10,571.3,989.4)" />
<use xlink:href="#f2_2b" transform="matrix(10,0,0,10,576.8,989.4)" />
<use xlink:href="#f2_2g" transform="matrix(10,0,0,10,584.5,989.4)" />
<use xlink:href="#f2_24" transform="matrix(10,0,0,10,588.3,989.4)" />
<use xlink:href="#f2_21" transform="matrix(10,0,0,10,595.5,989.4)" />
<use xlink:href="#f2_2e" transform="matrix(10,0,0,10,601.9,989.4)" />
<use xlink:href="#f2_29" transform="matrix(10,0,0,10,606.8,989.4)" />
<use xlink:href="#f2_1x" transform="matrix(10,0,0,10,618,989.4)" />
<use xlink:href="#f2_28" transform="matrix(10,0,0,10,624.4,989.4)" />
<use xlink:href="#f2_21" transform="matrix(10,0,0,10,631.2,989.4)" />
<use xlink:href="#f2_2k" transform="matrix(10,0,0,10,637.6,989.4)" />
<use xlink:href="#f2_2c" transform="matrix(10,0,0,10,644.8,989.4)" />
<use xlink:href="#f2_1x" transform="matrix(10,0,0,10,652.5,989.4)" />
<use xlink:href="#f2_2a" transform="matrix(10,0,0,10,658.9,989.4)" />
<use xlink:href="#f2_2f" transform="matrix(10,0,0,10,666.1,989.4)" />
<use xlink:href="#f2_25" transform="matrix(10,0,0,10,671.6,989.4)" />
<use xlink:href="#f2_2b" transform="matrix(10,0,0,10,675.4,989.4)" />
<use xlink:href="#f2_2a" transform="matrix(10,0,0,10,683.1,989.4)" />
<use xlink:href="#f2_v" transform="matrix(10,0,0,10,690.3,989.4)" />
<use xlink:href="#f2_m" transform="matrix(10,0,0,10,696.7,989.4)" />
<use xlink:href="#f4_34" transform="matrix(10,0,0,10,704.2,989.4)" />
<use xlink:href="#f2_n" transform="matrix(10,0,0,10,718.9,989.4)" />
<use xlink:href="#f2_1x" transform="matrix(10,0,0,10,728.7,989.4)" />
<use xlink:href="#f2_20" transform="matrix(10,0,0,10,735.2,989.4)" />
<use xlink:href="#f2_25" transform="matrix(10,0,0,10,742.7,989.4)" />
<use xlink:href="#f2_1x" transform="matrix(10,0,0,10,746.5,989.4)" />
<use xlink:href="#f2_1y" transform="matrix(10,0,0,10,753,989.4)" />
<use xlink:href="#f2_1x" transform="matrix(10,0,0,10,760.3,989.4)" />
<use xlink:href="#f2_2g" transform="matrix(10,0,0,10,767.1,989.4)" />
<use xlink:href="#f2_25" transform="matrix(10,0,0,10,770.9,989.4)" />
<use xlink:href="#f2_1z" transform="matrix(10,0,0,10,774.6,989.4)" />
<use xlink:href="#f2_21" transform="matrix(10,0,0,10,783.8,989.4)" />
<use xlink:href="#f2_2k" transform="matrix(10,0,0,10,790.2,989.4)" />
<use xlink:href="#f2_2c" transform="matrix(10,0,0,10,797.7,989.4)" />
<use xlink:href="#f2_1x" transform="matrix(10,0,0,10,805,989.4)" />
<use xlink:href="#f2_2a" transform="matrix(10,0,0,10,811.3,989.4)" />
<use xlink:href="#f2_2f" transform="matrix(10,0,0,10,818.6,989.4)" />
<use xlink:href="#f2_25" transform="matrix(10,0,0,10,824.1,989.4)" />
<use xlink:href="#f2_2b" transform="matrix(10,0,0,10,828.1,989.4)" />
<use xlink:href="#f2_2a" transform="matrix(10,0,0,10,835.5,989.4)" />
<use xlink:href="#f2_v" transform="matrix(10,0,0,10,842.6,989.4)" />
<use xlink:href="#f2_n" transform="matrix(10,0,0,10,475.9,1017.9)" />
<use xlink:href="#f4_34" transform="matrix(10,0,0,10,483.8,1017.9)" />
<use xlink:href="#f2_o" transform="matrix(10,0,0,10,499,1017.9)" />
<use xlink:href="#f2_25" transform="matrix(10,0,0,10,509.7,1017.9)" />
<use xlink:href="#f2_2f" transform="matrix(10,0,0,10,513.9,1017.9)" />
<use xlink:href="#f2_2b" transform="matrix(10,0,0,10,520.1,1017.9)" />
<use xlink:href="#f2_2g" transform="matrix(10,0,0,10,527.6,1017.9)" />
<use xlink:href="#f2_24" transform="matrix(10,0,0,10,532,1017.9)" />
<use xlink:href="#f2_21" transform="matrix(10,0,0,10,539.7,1017.9)" />
<use xlink:href="#f2_2e" transform="matrix(10,0,0,10,546.5,1017.9)" />
<use xlink:href="#f2_29" transform="matrix(10,0,0,10,551.8,1017.9)" />
<use xlink:href="#f2_1x" transform="matrix(10,0,0,10,563.4,1017.9)" />
<use xlink:href="#f2_28" transform="matrix(10,0,0,10,570.2,1017.9)" />
<use xlink:href="#f2_1z" transform="matrix(10,0,0,10,577.7,1017.9)" />
<use xlink:href="#f2_2b" transform="matrix(10,0,0,10,584.3,1017.9)" />
<use xlink:href="#f2_29" transform="matrix(10,0,0,10,592.2,1017.9)" />
<use xlink:href="#f2_2c" transform="matrix(10,0,0,10,603.9,1017.9)" />
<use xlink:href="#f2_2e" transform="matrix(10,0,0,10,611.4,1017.9)" />
<use xlink:href="#f2_21" transform="matrix(10,0,0,10,616.8,1017.9)" />
<use xlink:href="#f2_2f" transform="matrix(10,0,0,10,623.7,1017.9)" />
<use xlink:href="#f2_2f" transform="matrix(10,0,0,10,629.8,1017.9)" />
<use xlink:href="#f2_25" transform="matrix(10,0,0,10,635.4,1017.9)" />
<use xlink:href="#f2_2b" transform="matrix(10,0,0,10,639.7,1017.9)" />
<use xlink:href="#f2_2a" transform="matrix(10,0,0,10,647.7,1017.9)" />
<use xlink:href="#f2_a" transform="matrix(10,0,0,10,658.4,1017.9)" />
<use xlink:href="#f2_o" transform="matrix(10,0,0,10,673,1017.9)" />
<use xlink:href="#f4_34" transform="matrix(10,0,0,10,680.9,1017.9)" />
<use xlink:href="#f2_l" transform="matrix(10,0,0,10,695.9,1017.9)" />
<use xlink:href="#f2_1x" transform="matrix(10,0,0,10,706.6,1017.9)" />
<use xlink:href="#f2_20" transform="matrix(10,0,0,10,713.2,1017.9)" />
<use xlink:href="#f2_25" transform="matrix(10,0,0,10,721.2,1017.9)" />
<use xlink:href="#f2_1x" transform="matrix(10,0,0,10,725.5,1017.9)" />
<use xlink:href="#f2_1y" transform="matrix(10,0,0,10,732.4,1017.9)" />
<use xlink:href="#f2_1x" transform="matrix(10,0,0,10,739.9,1017.9)" />
<use xlink:href="#f2_2g" transform="matrix(10,0,0,10,746.9,1017.9)" />
<use xlink:href="#f2_25" transform="matrix(10,0,0,10,751.3,1017.9)" />
<use xlink:href="#f2_1z" transform="matrix(10,0,0,10,755.3,1017.9)" />
<use xlink:href="#f2_1z" transform="matrix(10,0,0,10,765.3,1017.9)" />
<use xlink:href="#f2_2b" transform="matrix(10,0,0,10,772.2,1017.9)" />
<use xlink:href="#f2_29" transform="matrix(10,0,0,10,780.1,1017.9)" />
<use xlink:href="#f2_2c" transform="matrix(10,0,0,10,791.8,1017.9)" />
<use xlink:href="#f2_2e" transform="matrix(10,0,0,10,799.5,1017.9)" />
<use xlink:href="#f2_21" transform="matrix(10,0,0,10,804.7,1017.9)" />
<use xlink:href="#f2_2f" transform="matrix(10,0,0,10,811.6,1017.9)" />
<use xlink:href="#f2_2f" transform="matrix(10,0,0,10,817.3,1017.9)" />
<use xlink:href="#f2_25" transform="matrix(10,0,0,10,823.4,1017.9)" />
<use xlink:href="#f2_2b" transform="matrix(10,0,0,10,827.8,1017.9)" />
<use xlink:href="#f2_2a" transform="matrix(10,0,0,10,835.7,1017.9)" />
<use xlink:href="#f2_i" transform="matrix(10,0,0,10,843,1017.9)" />
</g>
<path fill-rule="evenodd" d="M465.7,744.7H854.3v294.6H465.7V744.7l2.2,292.2H852.1v-290H467.9v290L465.7,744.7Z" class="g1_80" />
<image preserveAspectRatio="none" x="116" y="117" width="710" height="554" xlink:href="img/2.png" />
<path fill-rule="evenodd" d="M54.8,699.4H443.7V813.8H54.8V699.4l2.4,112H441.3V701.6H57.2V811.4l-2.4,-112Z" class="g1_80" />
<defs>
<path d="M280,0V144h30c0,0,51,0,66,6c0,0,14,6,21,22c0,0,8,17,8,67V851c0,0,0,26,-6,33c0,0,-6,7,-26,7c0,0,-38,0,-86,-29c0,0,-48,-29,-85,-82c0,0,-15,-21,-63,-118L2,711l128,365h99l10,-36H826l13,36h99L1067,711L928,662c0,0,-46,91,-66,119c0,0,-40,55,-92,86c0,0,-38,24,-77,24c0,0,-18,0,-24,-9c0,0,-7,-8,-7,-39V244c0,0,0,-53,4,-66c0,0,3,-13,12,-21c0,0,9,-8,25,-11c0,0,16,-2,84,-2V0Z" 
id="f0_1k"
transform="scale(0.001,-0.001)" />

<path d="M54,0V144H88c0,0,44,0,61,7c0,0,17,8,24,21c0,0,6,14,6,59V797c0,0,0,53,-6,69c0,0,-7,16,-20,23c0,0,-14,8,-53,8H54v143H561V897H515c0,0,-39,0,-53,-8c0,0,-14,-8,-20,-23c0,0,-6,-14,-6,-63V622H815V817c0,0,0,36,-4,48c0,0,-6,18,-20,25c0,0,-14,7,-63,7H688v143h510V897h-43c0,0,-43,0,-57,-7c0,0,-14,-8,-20,-21c0,0,-5,-14,-5,-66V239c0,0,0,-52,7,-67c0,0,7,-16,21,-22c0,0,15,-6,67,-6h30V0H688V144h34c0,0,47,0,64,7c0,0,17,8,23,22c0,0,6,14,6,66V460H436V239c0,0,0,-52,5,-65c0,0,7,-18,22,-24c0,0,16,-6,63,-6h35V0Z" 
id="f0_18"
transform="scale(0.001,-0.001)" />

<path d="M59,0V144H85c0,0,52,0,70,7c0,0,18,8,25,26c0,0,4,11,4,64V808c0,0,0,46,-7,60c0,0,-6,14,-19,22c0,0,-14,7,-53,7H59v143H928L1046,712L911,663c0,0,-34,81,-80,130c0,0,-46,49,-102,65c0,0,-55,16,-129,16H441V615h52c0,0,59,0,80,9c0,0,20,8,29,26c0,0,9,19,9,73v40H744V322H611v45c0,0,0,45,-11,66c0,0,-11,21,-29,29c0,0,-19,7,-83,7H441V230c0,0,0,-38,4,-47c0,0,3,-8,14,-12c0,0,11,-5,47,-5h87c0,0,98,0,165,28c0,0,67,28,120,91c0,0,53,63,81,149l136,-47L959,0Z" 
id="f0_15"
transform="scale(0.001,-0.001)" />

<path d="M593,600c0,0,92,0,137,17c0,0,45,17,68,48c0,0,22,31,22,76c0,0,0,41,-21,71c0,0,-21,29,-60,43c0,0,-40,14,-128,14H439V600ZM55,0V144h46c0,0,37,0,52,8c0,0,16,7,23,23c0,0,4,9,4,56V816c0,0,0,35,-6,49c0,0,-5,15,-18,19c0,0,-18,8,-41,8H55v148H697c0,0,62,0,135,-11c0,0,74,-11,133,-49c0,0,60,-38,92,-96c0,0,33,-59,33,-132c0,0,0,-118,-84,-192c0,0,-85,-73,-201,-96L1019,215l9,-11c0,0,21,-25,38,-38c0,0,17,-12,34,-17c0,0,18,-5,48,-5h45V0H859L526,448H439V241c0,0,0,-54,6,-69c0,0,6,-14,19,-21c0,0,13,-7,52,-7h48V0Z" 
id="f0_1i"
transform="scale(0.001,-0.001)" />

<path d="M59,0V144h42c0,0,39,0,54,7c0,0,15,7,22,22c0,0,7,15,7,57V813c0,0,0,40,-5,52c0,0,-7,17,-21,24c0,0,-13,8,-42,8H59v143H530L711,408l185,632h481V897h-52c0,0,-41,0,-57,-18c0,0,-16,-17,-16,-66V222c0,0,0,-39,4,-48c0,0,7,-15,19,-21c0,0,16,-9,43,-9h59V0H876V144h39c0,0,42,0,57,6c0,0,15,7,22,21c0,0,7,14,7,51V862L748,0H604L359,835V202c0,0,0,-22,8,-34c0,0,8,-12,22,-18c0,0,15,-6,47,-6h50V0Z" 
id="f0_1d"
transform="scale(0.001,-0.001)" />

<path d="M611,148c0,0,117,0,187,88c0,0,83,105,83,281c0,0,0,124,-35,208c0,0,-36,84,-96,126c0,0,-61,42,-132,42c0,0,-118,0,-189,-89c0,0,-88,-112,-88,-289c0,0,0,-176,82,-279c0,0,71,-88,188,-88ZM608,-17c0,0,-231,0,-378,126C230,109,53,262,53,518c0,0,0,237,155,389c0,0,156,151,407,151c0,0,248,0,401,-151c0,0,153,-150,153,-386c0,0,0,-159,-70,-282c0,0,-70,-123,-193,-190c0,0,-124,-66,-298,-66Z" 
id="f0_1f"
transform="scale(0.001,-0.001)" />

<path d="M514,166c0,0,122,0,191,38c0,0,69,38,111,121c0,0,43,83,43,199c0,0,0,113,-40,197c0,0,-40,84,-99,119c0,0,-59,34,-168,34H437V226c0,0,0,-33,4,-40c0,0,6,-12,17,-16c0,0,12,-4,56,-4ZM55,0V144H91c0,0,46,0,60,7c0,0,15,8,24,26c0,0,6,14,6,61V807c0,0,0,48,-6,62c0,0,-7,13,-21,21c0,0,-15,7,-62,7H56v143H601c0,0,186,0,296,-59c0,0,110,-58,175,-174c0,0,65,-116,65,-278c0,0,0,-112,-33,-201c0,0,-33,-89,-99,-160c0,0,-66,-71,-141,-107C864,61,807,34,703,17C703,17,599,0,536,0Z" 
id="f0_14"
transform="scale(0.001,-0.001)" />

<path d="M280,0V144h27c0,0,54,0,69,7c0,0,15,7,23,24c0,0,8,16,8,67V405L129,827c0,0,-33,49,-57,61c0,0,-18,9,-71,9v143H518V897H479c0,0,-41,0,-51,-7c0,0,-11,-6,-11,-20c0,0,0,-20,24,-59L579,586L730,821c0,0,20,31,22,34c0,0,3,9,3,17c0,0,0,13,-8,19c0,0,-9,6,-40,6H653v143h416V897c0,0,-55,-1,-77,-13c0,0,-22,-12,-52,-57L663,422V236c0,0,0,-49,6,-64c0,0,7,-14,22,-21c0,0,15,-7,60,-7h37V0Z" 
id="f0_1p"
transform="scale(0.001,-0.001)" />

<path d="M59,0V144h44c0,0,37,0,51,6c0,0,14,6,22,22c0,0,8,16,8,47V816c0,0,0,34,-8,50c0,0,-7,16,-20,24c0,0,-12,7,-42,7H59v143H480L786,433V805c0,0,0,48,-5,60c0,0,-8,17,-20,25c0,0,-13,7,-49,7H661v143h428V897h-47c0,0,-36,0,-51,-9c0,0,-15,-8,-21,-22c0,0,-6,-14,-6,-61V0H750L364,767V230c0,0,0,-46,5,-59c0,0,6,-12,20,-20c0,0,15,-7,50,-7h50V0Z" 
id="f0_1e"
transform="scale(0.001,-0.001)" />

<path d="M610,480L509,765L404,480ZM2,0V144c0,0,39,0,56,6c0,0,18,7,30,21c0,0,11,13,25,49l322,820H669L981,237c0,0,25,-64,45,-79c0,0,19,-14,68,-14c2,0,3,0,5,0V0H606V144h30c0,0,41,0,58,11c0,0,16,11,16,27c0,0,0,13,-14,55l-32,94H349L310,226c0,0,-12,-33,-12,-44c0,0,0,-11,8,-21c0,0,9,-10,28,-14c0,0,13,-3,71,-3V0Z" 
id="f0_11"
transform="scale(0.001,-0.001)" />

<path d="M52,0V144H93c0,0,44,0,58,6c0,0,13,6,20,20c0,0,6,14,6,55V803c0,0,0,49,-6,64c0,0,-7,15,-22,24c0,0,-10,6,-51,6H52v143H559V897H513c0,0,-40,0,-53,-7c0,0,-13,-8,-20,-23c0,0,-6,-15,-6,-58V233c0,0,0,-47,5,-61c0,0,6,-13,18,-19c0,0,16,-9,47,-9h55V0Z" 
id="f0_19"
transform="scale(0.001,-0.001)" />

<path d="M579,-17c0,0,-147,0,-266,70c0,0,-119,70,-189,197c0,0,-71,127,-71,277c0,0,0,149,69,271c0,0,69,123,187,191c0,0,119,69,265,69c0,0,149,0,260,-62l25,44H965L1067,667L928,627c0,0,-69,133,-130,189c0,0,-85,77,-185,77c0,0,-72,0,-135,-41c0,0,-63,-40,-100,-118c0,0,-37,-78,-37,-183c0,0,0,-161,85,-276c0,0,85,-116,222,-116c0,0,87,0,168,50c0,0,100,62,173,167l116,-86C1105,290,992,136,899,76c0,0,-144,-93,-320,-93Z" 
id="f0_13"
transform="scale(0.001,-0.001)" />

<path d="M567,-17c0,0,-83,0,-152,21c0,0,-70,21,-145,71L237,0H126L52,404l140,33c0,0,49,-123,153,-205c0,0,104,-82,228,-82c0,0,56,0,93,14c0,0,37,14,56,39c0,0,18,25,18,52c0,0,0,45,-43,77c0,0,-44,32,-154,63L369,446c0,0,-40,11,-107,42c0,0,-68,31,-104,64c0,0,-36,34,-60,86c0,0,-24,53,-24,111c0,0,0,83,46,153c0,0,46,69,138,113c0,0,92,43,204,43c0,0,135,0,244,-70l29,52H842L932,692L792,652c0,0,-69,125,-157,183c0,0,-88,58,-187,58c0,0,-64,0,-101,-26c0,0,-37,-27,-37,-59c0,0,0,-36,34,-67c0,0,32,-32,121,-56L665,626c0,0,166,-47,237,-126c0,0,70,-80,70,-186c0,0,0,-135,-107,-229C865,85,745,-17,567,-17Z" 
id="f0_1j"
transform="scale(0.001,-0.001)" />

<path d="M495,160c0,0,61,0,122,27c0,0,-17,28,-29,62L548,388c0,0,-22,73,-35,102c0,0,-13,29,-26,45c0,0,-13,16,-34,32c0,0,-73,-37,-110,-92c0,0,-37,-56,-37,-119c0,0,0,-82,56,-139c0,0,55,-57,133,-57ZM453,713c0,0,19,0,38,12c0,0,20,12,28,33c0,0,12,26,12,59c0,0,0,52,-22,78c0,0,-23,25,-54,25c0,0,-34,0,-56,-27c0,0,-22,-27,-22,-80c0,0,0,-46,23,-73c0,0,22,-27,53,-27ZM434,-17c0,0,-169,0,-274,96C160,79,55,176,55,316c0,0,0,117,67,204c0,0,52,68,177,138c0,0,-52,33,-79,77c0,0,-26,45,-26,99c0,0,0,93,72,159c0,0,73,65,190,65c0,0,120,0,187,-60c0,0,67,-60,67,-151c0,0,0,-76,-38,-130c0,0,-30,-42,-90,-72c0,0,41,-19,65,-40c0,0,33,-29,67,-79c0,0,21,-33,84,-160c0,0,43,98,43,141c0,0,0,12,-7,21c0,0,-8,9,-20,11c0,0,-9,3,-59,3V684h366V542h-45c0,0,-38,0,-53,-8c0,0,-15,-7,-25,-25c0,0,-6,-10,-24,-83c0,0,-13,-47,-40,-105c0,0,-27,-58,-60,-105c0,0,33,-50,55,-65c0,0,22,-16,45,-16c0,0,26,0,44,17c0,0,17,18,17,46c0,0,0,26,-22,64c0,0,-22,35,-22,60c0,0,0,38,30,67c0,0,30,29,72,29c0,0,54,0,91,-44c0,0,37,-44,37,-123c0,0,0,-117,-82,-193c0,0,-83,-75,-218,-75c0,0,-68,0,-113,17c0,0,-45,17,-97,65c0,0,-119,-82,-277,-82Z" 
id="f0_a"
transform="scale(0.001,-0.001)" />

<path d="M193,-4c0,0,-26,0,-43,2c0,0,-18,2,-27,6c0,0,-10,4,-14,10c0,0,-3,6,-3,13V895c0,0,0,35,20,53c0,0,21,17,50,17H282c0,0,28,0,47,-5c0,0,20,-5,35,-16c0,0,15,-11,29,-31c0,0,13,-20,27,-49L608,511c0,0,17,-32,33,-63c0,0,16,-31,31,-62c0,0,14,-31,29,-60c0,0,14,-30,27,-60h1c0,0,-2,52,-3,109c0,0,-1,57,-1,108V936c0,0,0,7,4,13c0,0,5,6,15,11c0,0,10,4,28,6c0,0,17,2,44,2c0,0,25,0,42,-2c0,0,17,-2,27,-6c0,0,9,-5,13,-11c0,0,4,-6,4,-13V68c0,0,0,-17,-6,-30c0,0,-6,-14,-17,-23C879,15,869,6,856,2c0,0,-14,-3,-28,-3H744c0,0,-26,0,-45,4c0,0,-19,5,-35,19c0,0,-16,14,-31,38c0,0,-15,23,-34,60L359,572c0,0,-21,40,-43,86c0,0,-21,47,-38,91h-2c0,0,3,-54,5,-107c0,0,2,-53,2,-110V27c0,0,0,-7,-5,-13c0,0,-4,-6,-14,-10c0,0,-10,-4,-27,-6c0,0,-17,-2,-44,-2Z" 
id="f1_1y"
transform="scale(0.001,-0.001)" />

<path d="M514,145c0,0,72,0,121,27c0,0,48,26,78,73c0,0,30,46,42,107c0,0,13,62,13,131c0,0,0,76,-12,139c0,0,-12,62,-41,106c0,0,-29,45,-76,69c0,0,-48,24,-120,24c0,0,-72,0,-120,-27c0,0,-49,-27,-79,-73c0,0,-29,-45,-42,-106c0,0,-12,-61,-12,-129c0,0,0,-79,12,-142c0,0,12,-63,40,-108c0,0,28,-44,76,-68c0,0,48,-23,120,-23ZM508,-17c0,0,-113,0,-196,29c0,0,-84,29,-140,90c0,0,-56,60,-84,154c0,0,-28,93,-28,221c0,0,0,117,29,210c0,0,30,94,89,160c0,0,59,65,146,101c0,0,87,35,202,35c0,0,110,0,194,-29c0,0,84,-30,140,-90c0,0,56,-60,85,-153c0,0,29,-92,29,-217c0,0,0,-120,-30,-215c0,0,-30,-95,-89,-161C855,118,796,52,709,17c0,0,-87,-34,-201,-34Z" 
id="f1_24"
transform="scale(0.001,-0.001)" />

<path d="M378,-4c0,0,-28,0,-47,2c0,0,-19,2,-31,5c0,0,-11,4,-16,10c0,0,-4,6,-4,13V805H38c0,0,-8,0,-13,4c0,0,-5,5,-9,14c0,0,-3,9,-5,25c0,0,-2,15,-2,37c0,0,0,22,2,38c0,0,2,15,5,25c0,0,4,9,9,13c0,0,5,4,13,4H718c0,0,7,0,12,-4c0,0,6,-4,10,-13c0,0,3,-10,5,-25c0,0,2,-16,2,-38c0,0,0,-22,-2,-37c0,0,-2,-16,-5,-25c0,0,-4,-9,-10,-14c0,0,-5,-4,-12,-4H476V26c0,0,0,-7,-5,-13c0,0,-5,-6,-16,-10c0,0,-11,-3,-30,-5c0,0,-19,-2,-47,-2Z" 
id="f1_2t"
transform="scale(0.001,-0.001)" />

<path d="M164,0c0,0,-25,0,-42,15c0,0,-16,14,-16,47V903c0,0,0,33,16,48c0,0,17,14,42,14H645c0,0,7,0,12,-4c0,0,5,-3,9,-13c0,0,4,-9,6,-24c0,0,2,-14,2,-36c0,0,0,-21,-2,-36c0,0,-2,-14,-6,-23c0,0,-4,-9,-9,-13c0,0,-5,-4,-12,-4H301V576H593c0,0,6,0,12,-4c0,0,6,-4,9,-13c0,0,4,-8,6,-23c0,0,2,-14,2,-35c0,0,0,-22,-2,-36c0,0,-2,-14,-6,-23c0,0,-3,-8,-9,-12c0,0,-6,-4,-12,-4H301V154H649c0,0,6,0,12,-5c0,0,5,-4,9,-13c0,0,4,-9,6,-23c0,0,2,-15,2,-36c0,0,0,-22,-2,-36c0,0,-2,-15,-6,-24c0,0,-4,-9,-9,-13c0,0,-6,-4,-12,-4Z" 
id="f1_t"
transform="scale(0.001,-0.001)" />

<path d="M678,393L506,802L330,393ZM11,0V27c0,0,63,12,82,30c0,0,38,35,84,145l356,832h27L912,193c0,0,43,-101,77,-132c0,0,35,-30,97,-34V0H687V27c0,0,60,3,82,21c0,0,21,17,21,41c0,0,0,33,-30,104L700,338H307L239,179c0,0,-26,-59,-26,-88c0,0,0,-23,22,-41c0,0,22,-17,95,-23V0Z" 
id="f2_11"
transform="scale(0.001,-0.001)" />

<path d="M58,0V26c0,0,47,0,64,10c0,0,18,10,28,32c0,0,9,23,9,86V775c0,0,0,116,-5,142c0,0,-5,27,-17,37c0,0,-11,9,-29,9c0,0,-20,0,-49,-12L46,978l204,83h34V154c0,0,0,-64,9,-85c0,0,9,-21,29,-32c0,0,19,-11,72,-11V0Z" 
id="f2_28"
transform="scale(0.001,-0.001)" />

<path d="M255,-10c0,0,-35,0,-68,18c0,0,-32,19,-48,55c0,0,-16,35,-16,109V632H15v24c0,0,41,16,84,56c0,0,43,39,77,92c0,0,17,29,48,104h23V683H407V632H247V188c0,0,0,-66,19,-90c0,0,19,-23,49,-23c0,0,24,0,47,16c0,0,23,15,36,45h29c0,0,-26,-73,-74,-110c0,0,-47,-36,-98,-36Z" 
id="f2_2g"
transform="scale(0.001,-0.001)" />

<path d="M20,0V26c0,0,45,0,71,15c0,0,15,7,24,28c0,0,9,21,9,85V773c0,0,0,117,-5,144c0,0,-6,27,-17,37c0,0,-12,9,-31,9c0,0,-16,0,-51,-12L10,978l204,83h34V561c0,0,83,91,131,116c0,0,49,26,97,26c0,0,58,0,100,-32c0,0,42,-32,62,-101c0,0,14,-47,14,-174V154c0,0,0,-65,11,-89c0,0,7,-18,25,-28c0,0,18,-11,66,-11V0H418V26h15c0,0,48,0,67,15c0,0,18,15,26,43c0,0,2,12,2,70V396c0,0,0,112,-12,147c0,0,-11,35,-36,53c0,0,-26,17,-61,17c0,0,-37,0,-76,-19c0,0,-40,-20,-95,-79V154c0,0,0,-70,8,-87c0,0,8,-17,29,-29c0,0,22,-12,74,-12V0Z" 
id="f2_24"
transform="scale(0.001,-0.001)" />

<path d="M406,32c0,0,72,0,119,60c0,0,47,59,47,205c0,0,0,181,-78,286c0,0,-53,71,-135,71c0,0,-40,0,-79,-23c0,0,-40,-24,-65,-83c0,0,-24,-58,-24,-151c0,0,0,-149,59,-257c0,0,59,-108,156,-108ZM374,-20c0,0,-154,0,-245,122c0,0,-77,104,-77,233c0,0,0,94,46,187c0,0,47,92,123,137c0,0,76,44,161,44c0,0,155,0,249,-118c0,0,80,-100,80,-231c0,0,0,-91,-44,-185C667,169,623,75,546,27c0,0,-77,-47,-172,-47Z" 
id="f2_2b"
transform="scale(0.001,-0.001)" />

<path d="M292,-20c0,0,-57,0,-100,33c0,0,-42,33,-58,85c0,0,-17,52,-17,148V551c0,0,0,49,-10,68c0,0,-11,18,-31,29c0,0,-19,9,-68,9c-2,0,-4,0,-6,0v26H242V226c0,0,0,-95,33,-125c0,0,33,-30,80,-30c0,0,32,0,73,21c0,0,40,20,96,76V555c0,0,0,59,-21,80c0,0,-22,21,-89,22v26H647V269c0,0,0,-119,6,-145c0,0,6,-27,18,-37c0,0,12,-11,29,-11c0,0,23,0,52,13L763,63L558,-20H524V124C524,124,436,29,390,4c0,0,-47,-24,-98,-24Z" 
id="f2_2h"
transform="scale(0.001,-0.001)" />

<path d="M411,-239c0,0,134,0,198,48c0,0,64,47,64,100c0,0,0,39,-38,55c0,0,-39,16,-154,19c0,0,-167,5,-258,17c0,0,-35,-37,-53,-70c0,0,-17,-32,-17,-60c0,0,0,-36,43,-62c0,0,74,-47,215,-47ZM380,257c0,0,56,0,93,43c0,0,36,42,36,133c0,0,0,118,-51,185c0,0,-38,49,-98,49c0,0,-55,0,-92,-44c0,0,-37,-44,-37,-135c0,0,0,-117,50,-182c0,0,39,-49,99,-49ZM345,-328c0,0,-144,0,-243,64c0,0,-56,38,-56,78c0,0,0,18,8,36c0,0,13,27,52,76c0,0,5,7,76,80c0,0,-39,23,-55,41c0,0,-16,19,-16,42c0,0,0,26,22,61c0,0,21,35,98,100c0,0,-63,30,-97,85c0,0,-33,55,-33,121c0,0,0,101,76,174c0,0,77,73,196,73c0,0,98,0,170,-48H688c0,0,32,0,37,-2c0,0,6,-2,8,-6c0,0,4,-7,4,-24c0,0,0,-20,-4,-27c0,0,-2,-4,-7,-6c0,0,-6,-2,-38,-2H599c0,0,41,-54,41,-137c0,0,0,-96,-73,-163c0,0,-73,-68,-196,-68c0,0,-51,0,-104,15c0,0,-33,-28,-44,-49c0,0,-12,-22,-12,-37c0,0,0,-12,13,-24c0,0,12,-12,48,-17c0,0,21,-4,104,-6c0,0,154,-4,199,-11c0,0,70,-10,111,-51c0,0,42,-41,42,-102c0,0,0,-84,-79,-158c0,0,-117,-108,-304,-108Z" 
id="f2_23"
transform="scale(0.001,-0.001)" />

<path d="M479,469c0,0,-4,66,-16,93c0,0,-18,42,-55,65c0,0,-37,24,-78,24c0,0,-62,0,-111,-48c0,0,-48,-48,-57,-134ZM355,-20c0,0,-123,0,-211,95c0,0,-87,96,-87,258c0,0,0,175,90,273c0,0,89,98,225,98c0,0,115,0,189,-76c0,0,74,-75,74,-202H162c0,0,0,-152,74,-239c0,0,75,-86,175,-86c0,0,67,0,117,36c0,0,50,37,83,127l24,-15c0,0,-16,-102,-91,-186c0,0,-76,-83,-189,-83Z" 
id="f2_21"
transform="scale(0.001,-0.001)" />

<path d="M17,0V26c0,0,52,0,77,17c0,0,19,12,26,38c0,0,4,13,4,73V419c0,0,0,119,-5,142c0,0,-4,23,-17,33c0,0,-13,11,-33,11c0,0,-23,0,-52,-11l-7,26l207,83h31V549c0,0,86,154,176,154c0,0,41,0,68,-25c0,0,27,-25,27,-58c0,0,0,-29,-20,-49c0,0,-19,-20,-46,-20c0,0,-26,0,-58,25c0,0,-33,26,-48,26c0,0,-14,0,-29,-15c0,0,-34,-30,-70,-101V159c0,0,0,-56,15,-85c0,0,9,-20,34,-34c0,0,24,-14,71,-14V0Z" 
id="f2_2e"
transform="scale(0.001,-0.001)" />

<path d="M286,72c0,0,57,0,149,75V407c0,0,-113,-45,-145,-64c0,0,-59,-32,-85,-68c0,0,-25,-36,-25,-78c0,0,0,-54,32,-89c0,0,32,-36,74,-36ZM217,-13c0,0,-71,0,-116,48c0,0,-46,48,-46,127c0,0,0,50,22,87c0,0,31,50,106,95c0,0,76,45,252,109v26c0,0,0,102,-32,140c0,0,-32,38,-94,38c0,0,-47,0,-74,-25c0,0,-28,-25,-28,-58l1,-43c0,0,0,-34,-17,-53c0,0,-18,-18,-47,-18c0,0,-28,0,-45,19c0,0,-18,19,-18,53c0,0,0,64,66,117c0,0,65,54,184,54c0,0,91,0,149,-31c0,0,44,-23,65,-72c0,0,13,-32,13,-131V238c0,0,0,-98,4,-120c0,0,4,-22,12,-29c0,0,9,-8,20,-8c0,0,12,0,21,5c0,0,16,10,61,55V99C676,99,592,-12,516,-12c0,0,-37,0,-58,24c0,0,-22,26,-23,86C435,98,330,17,303,5c0,0,-40,-18,-86,-18Z" 
id="f2_1x"
transform="scale(0.001,-0.001)" />

<path d="M398,24c0,0,74,0,120,58c0,0,61,76,61,214c0,0,0,156,-69,240c0,0,-47,59,-113,59c0,0,-36,0,-71,-18c0,0,-27,-14,-88,-81V242c0,0,0,-83,6,-109c0,0,11,-43,51,-76c0,0,41,-33,103,-33ZM-4,-326v27H15c5,0,42,0,69,16c0,0,14,8,22,26c0,0,7,19,7,94V481c0,0,0,67,-6,85c0,0,-5,18,-18,27c0,0,-13,9,-36,9c0,0,-18,0,-45,-10L0,615l209,85h29V540c0,0,53,91,106,127c0,0,53,36,112,36c0,0,103,0,172,-80c0,0,84,-99,84,-257c0,0,0,-176,-102,-292c0,0,-83,-94,-210,-94c0,0,-55,0,-95,16c0,0,-30,10,-67,44V-167c0,0,0,-71,8,-90c0,0,9,-20,30,-31c0,0,21,-11,77,-11v-27Z" 
id="f2_2c"
transform="scale(0.001,-0.001)" />

<path d="M63,0V26H93c0,0,30,0,54,15c0,0,25,15,34,41c0,0,10,25,10,99V630H58v53H191v45c0,0,0,102,33,173c0,0,32,71,100,114c0,0,68,44,152,44c0,0,79,0,145,-51c0,0,43,-33,43,-75c0,0,0,-22,-19,-42c0,0,-20,-20,-42,-20c0,0,-17,0,-36,12c0,0,-19,13,-47,53c0,0,-28,41,-51,55c0,0,-23,14,-51,14c0,0,-35,0,-58,-18c0,0,-24,-18,-35,-57c0,0,-10,-38,-10,-197V683H491V630H315V181c0,0,0,-96,21,-122c0,0,27,-33,73,-33h62V0Z" 
id="f2_22"
transform="scale(0.001,-0.001)" />

<path d="M55,0V26c0,0,50,0,67,10c0,0,17,10,27,32c0,0,10,23,10,86V418c0,0,0,111,-6,144c0,0,-6,24,-17,33c0,0,-11,10,-30,10c0,0,-21,0,-51,-11L45,620l206,83h33V154c0,0,0,-64,9,-85c0,0,9,-22,27,-32c0,0,19,-11,67,-11V0ZM222,909c0,0,-32,0,-54,23c0,0,-22,22,-22,53c0,0,0,32,22,54c0,0,22,22,54,22c0,0,31,0,53,-22c0,0,22,-22,22,-54c0,0,0,-31,-22,-53c0,0,-22,-23,-53,-23Z" 
id="f2_25"
transform="scale(0.001,-0.001)" />

<path d="M312,-20c0,0,-62,0,-143,22c0,0,-25,8,-40,8c0,0,-18,0,-27,-19H77V234h25c0,0,21,-105,80,-158c0,0,59,-53,132,-53c0,0,51,0,84,31c0,0,32,30,32,72c0,0,0,52,-36,87c0,0,-36,35,-144,88c0,0,-109,54,-142,97c0,0,-34,43,-34,107c0,0,0,85,58,141c0,0,58,57,150,57c0,0,40,0,97,-17c0,0,38,-11,51,-11c0,0,12,0,19,5c0,0,7,5,15,23h25V470H464c0,0,-28,110,-72,149c0,0,-45,40,-113,40c0,0,-53,0,-85,-28c0,0,-32,-27,-32,-61c0,0,0,-41,24,-71c0,0,23,-31,94,-65L389,381c0,0,152,-74,152,-194c0,0,0,-94,-71,-151c0,0,-70,-56,-158,-56Z" 
id="f2_2f"
transform="scale(0.001,-0.001)" />

<path d="M23,0V26c0,0,47,0,66,10c0,0,19,11,28,33c0,0,10,22,10,85V416c0,0,0,112,-7,145c0,0,-5,25,-16,34c0,0,-11,10,-31,10c0,0,-21,0,-50,-11L12,620l207,83h32V557c0,0,75,75,88,86c0,0,34,29,72,44c0,0,39,16,77,16c0,0,64,0,110,-37c0,0,47,-38,62,-109c0,0,77,90,130,118c0,0,53,28,109,28c0,0,54,0,96,-28c0,0,42,-28,67,-91c0,0,16,-43,16,-136V154c0,0,0,-64,10,-88c0,0,8,-16,28,-28c0,0,20,-12,65,-12V0H844V26h14c0,0,44,0,69,18c0,0,17,12,24,38c0,0,3,13,3,72V448c0,0,0,83,-20,117c0,0,-29,48,-93,48c0,0,-39,0,-79,-20c0,0,-40,-19,-97,-73l-1,-8l2,-32V154c0,0,0,-70,8,-87c0,0,7,-17,29,-29c0,0,21,-12,73,-12V0H431V26c0,0,57,0,78,14c0,0,21,13,29,40c0,0,4,13,4,74V448c0,0,0,83,-25,120c0,0,-33,48,-91,48c0,0,-40,0,-80,-22c0,0,-61,-33,-95,-74V154c0,0,0,-67,10,-87c0,0,9,-20,27,-30c0,0,18,-11,74,-11V0Z" 
id="f2_29"
transform="scale(0.001,-0.001)" />

<path d="M21,0V26H35c0,0,53,0,71,27c0,0,18,27,18,101V408c0,0,0,123,-5,150c0,0,-6,27,-17,37c0,0,-12,10,-31,10c0,0,-21,0,-50,-11L10,620l206,83h32V558c0,0,120,145,229,145c0,0,56,0,96,-28c0,0,40,-28,64,-92c0,0,16,-45,16,-137V154c0,0,0,-65,11,-88c0,0,8,-19,26,-29c0,0,18,-11,68,-11V0H419V26h14c0,0,47,0,66,15c0,0,20,15,27,43c0,0,3,11,3,70V434c0,0,0,93,-24,135c0,0,-24,42,-81,42c0,0,-88,0,-176,-97V154c0,0,0,-69,9,-86c0,0,10,-21,28,-31c0,0,19,-11,75,-11V0Z" 
id="f2_2a"
transform="scale(0.001,-0.001)" />

<path d="M399,62c0,0,68,0,131,68V481c0,0,-5,51,-27,93c0,0,-22,42,-59,63c0,0,-37,21,-72,21c0,0,-65,0,-117,-59c0,0,-67,-77,-67,-226c0,0,0,-151,65,-231c0,0,66,-80,146,-80ZM330,-20c0,0,-112,0,-196,93c0,0,-83,94,-83,240c0,0,0,147,92,269c0,0,93,122,238,122c0,0,90,0,149,-58V773c0,0,0,117,-6,144c0,0,-5,27,-17,37c0,0,-12,9,-30,9c0,0,-20,0,-52,-12l-9,27l204,83h33V270c0,0,0,-120,6,-146c0,0,5,-27,18,-37c0,0,12,-11,28,-11c0,0,21,0,54,13l9,-26L564,-20H530V78C530,78,480,25,432,2c0,0,-47,-22,-102,-22Z" 
id="f2_20"
transform="scale(0.001,-0.001)" />

<path d="M397,34c0,0,67,0,126,75c0,0,58,74,58,216c0,0,0,131,-58,201c0,0,-59,70,-133,70c0,0,-39,0,-79,-20c0,0,-29,-14,-75,-59V109c0,0,37,-37,78,-56c0,0,40,-19,83,-19ZM358,-20c0,0,-59,0,-121,21c0,0,-61,22,-126,65V773c0,0,0,117,-5,144c0,0,-6,27,-18,37c0,0,-12,9,-29,9c0,0,-21,0,-53,-12l-9,27l205,83h34V564c0,0,98,139,213,139c0,0,105,0,183,-90c0,0,78,-90,78,-245c0,0,0,-182,-121,-293c0,0,-103,-95,-231,-95Z" 
id="f2_1y"
transform="scale(0.001,-0.001)" />

<path d="M342,-20c0,0,-116,0,-203,97c0,0,-86,98,-86,264c0,0,0,161,96,261c0,0,95,101,230,101c0,0,100,0,165,-53c0,0,65,-54,65,-111c0,0,0,-29,-18,-46c0,0,-18,-18,-51,-18c0,0,-44,0,-66,29c0,0,-13,15,-17,59c0,0,-4,45,-30,68c0,0,-26,22,-73,22c0,0,-74,0,-120,-55c0,0,-60,-73,-60,-193c0,0,0,-122,60,-216c0,0,60,-93,162,-93c0,0,73,0,131,49c0,0,41,35,80,126l22,-10C629,261,601,125,521,52c0,0,-81,-72,-179,-72Z" 
id="f2_1z"
transform="scale(0.001,-0.001)" />

<path d="M435,502c0,0,78,0,134,60c0,0,57,60,57,155c0,0,0,66,-27,122c0,0,-27,56,-76,84c0,0,-50,28,-112,28c0,0,-38,0,-98,-14V517c0,0,39,-8,70,-12c0,0,31,-3,52,-3ZM25,0V27H63c0,0,65,0,92,42c0,0,15,23,15,110V833c0,0,0,96,-20,119c0,0,-29,33,-87,33H25v27H396c0,0,136,0,214,-28c0,0,78,-28,132,-94c0,0,54,-67,54,-158c0,0,0,-124,-82,-202c0,0,-82,-77,-231,-77c0,0,-36,0,-79,5c0,0,-43,5,-91,16V179c0,0,0,-96,21,-119c0,0,28,-33,85,-33h39V0Z" 
id="f2_1g"
transform="scale(0.001,-0.001)" />

<path d="M62,286V399H448V286Z" 
id="f2_h"
transform="scale(0.001,-0.001)" />

<path d="M553,-21L174,849c0,0,-29,67,-41,82c0,0,-19,24,-46,37c0,0,-27,13,-73,17v27H427V985c0,0,-70,-7,-91,-24c0,0,-21,-17,-21,-44c0,0,0,-38,34,-117L607,207L846,793c0,0,35,86,35,120c0,0,0,22,-22,41c0,0,-21,20,-73,28c0,0,-4,1,-13,3v27h311V985c0,0,-53,-10,-81,-35c0,0,-39,-37,-70,-112L581,-21Z" 
id="f2_1m"
transform="scale(0.001,-0.001)" />

<path d="M191,-20c0,0,-34,0,-58,24c0,0,-24,24,-24,58c0,0,0,35,24,59c0,0,24,24,58,24c0,0,35,0,59,-24c0,0,24,-25,24,-59c0,0,0,-34,-24,-58c0,0,-25,-24,-59,-24Z" 
id="f2_i"
transform="scale(0.001,-0.001)" />

<path d="M142,0c0,0,-6,0,-12,4c0,0,-5,3,-9,12c0,0,-4,9,-6,23c0,0,-3,15,-3,36c0,0,0,21,2,36c0,0,2,14,6,23c0,0,4,9,10,13c0,0,5,5,12,5H322V779L166,693c0,0,-17,-8,-28,-10c0,0,-1,0,-3,0c-4,0,-10,1,-14,5c0,0,-6,6,-8,22c0,0,-2,15,-2,44c0,0,0,18,0,29c0,0,1,12,4,20c0,0,3,8,8,14c0,0,5,5,14,11L345,962c0,0,4,3,9,5c0,0,6,2,15,3c0,0,9,1,23,2c0,0,15,0,38,0c0,0,28,0,46,-1c0,0,17,-1,26,-4c0,0,9,-3,12,-7c0,0,3,-4,3,-11V152H675c0,0,7,0,12,-5c0,0,6,-4,10,-13c0,0,4,-9,6,-23c0,0,2,-15,2,-36c0,0,0,-21,-2,-36c0,0,-3,-14,-7,-23c0,0,-4,-9,-9,-12c0,0,-5,-4,-12,-4Z" 
id="f1_ry"
transform="scale(0.001,-0.001)" />

<path d="M398,134c0,0,34,0,60,12c0,0,25,13,43,36c0,0,17,23,26,54c0,0,9,31,9,68c0,0,0,38,-7,66c0,0,-7,29,-22,49c0,0,-15,20,-39,30c0,0,-25,10,-60,10c0,0,-21,0,-41,-4c0,0,-20,-4,-40,-10c0,0,-19,-7,-37,-16c0,0,-18,-10,-33,-20c0,0,0,-80,9,-133c0,0,9,-54,26,-85c0,0,18,-31,44,-44c0,0,27,-13,62,-13ZM387,-16c0,0,-67,0,-117,15c0,0,-50,14,-86,43c0,0,-37,29,-60,70c0,0,-23,41,-37,92c0,0,-14,52,-19,112c0,0,-5,61,-5,129c0,0,0,56,5,118c0,0,6,62,22,122c0,0,16,59,45,114c0,0,29,54,75,94c0,0,46,41,111,65c0,0,65,24,155,24c0,0,28,0,57,-4c0,0,29,-3,53,-8c0,0,25,-5,42,-12c0,0,17,-7,23,-12c0,0,5,-5,8,-11c0,0,3,-5,5,-13c0,0,2,-7,3,-17c0,0,1,-11,1,-25c0,0,0,-24,-1,-39c0,0,-2,-15,-5,-24c0,0,-3,-8,-8,-12c0,0,-5,-4,-12,-4c0,0,-9,0,-24,5c0,0,-14,5,-34,11c0,0,-20,6,-47,10c0,0,-27,5,-63,5c0,0,-61,0,-102,-23c0,0,-42,-22,-68,-60c0,0,-26,-39,-38,-90c0,0,-12,-50,-13,-107c0,0,16,10,38,21c0,0,21,10,46,18c0,0,25,7,54,12c0,0,29,5,62,5c0,0,73,0,125,-20c0,0,52,-20,86,-58c0,0,33,-37,48,-90c0,0,16,-53,16,-118c0,0,0,-73,-22,-135c0,0,-23,-62,-66,-108C640,79,597,34,533,9c0,0,-63,-25,-146,-25Z" 
id="f1_s3"
transform="scale(0.001,-0.001)" />

<path d="M204,-9c0,0,-63,0,-87,23c0,0,-24,23,-24,89c0,0,0,70,24,94c0,0,25,24,88,24c0,0,62,0,86,-24c0,0,24,-23,24,-90c0,0,0,-69,-24,-93c0,0,-25,-23,-87,-23Z" 
id="f1_nt"
transform="scale(0.001,-0.001)" />

<path d="M547,-16c0,0,-115,0,-207,33c0,0,-91,33,-155,96c0,0,-63,63,-97,154c0,0,-33,91,-33,206c0,0,0,118,36,213c0,0,35,94,101,160c0,0,66,66,159,102c0,0,92,35,207,35c0,0,62,0,114,-9c0,0,51,-8,90,-21c0,0,38,-12,64,-26c0,0,25,-14,35,-25c0,0,10,-10,15,-29c0,0,4,-19,4,-57c0,0,0,-21,-2,-37c0,0,-2,-16,-5,-25c0,0,-3,-9,-8,-13c0,0,-5,-4,-12,-4c0,0,-10,0,-31,14c0,0,-22,13,-58,29c0,0,-35,15,-85,29c0,0,-50,13,-115,13c0,0,-71,0,-127,-24c0,0,-57,-24,-97,-69c0,0,-41,-44,-62,-107c0,0,-22,-62,-22,-138c0,0,0,-82,22,-146c0,0,22,-63,62,-105c0,0,39,-43,95,-65c0,0,56,-21,123,-21c0,0,33,0,65,7c0,0,32,8,60,23V401H500c0,0,-14,0,-21,17c0,0,-8,17,-8,57c0,0,0,21,2,35c0,0,2,14,6,23c0,0,3,8,9,12c0,0,5,5,12,5H826c0,0,12,0,21,-5c0,0,9,-4,16,-12c0,0,8,-8,11,-20c0,0,4,-11,4,-26V102c0,0,0,-22,-8,-39c0,0,-8,-17,-32,-27c0,0,-24,-9,-60,-20C778,16,742,6,704,-1c0,0,-39,-7,-78,-11c0,0,-39,-4,-79,-4Z" 
id="f1_14"
transform="scale(0.001,-0.001)" />

<path d="M402,542c0,0,41,0,72,10c0,0,32,10,52,28c0,0,21,18,32,44c0,0,10,25,10,56c0,0,0,48,-21,81c0,0,-22,33,-71,46c0,0,-15,4,-34,6c0,0,-19,2,-52,2H302V542ZM203,-4c0,0,-28,0,-47,2c0,0,-19,2,-30,5c0,0,-11,4,-16,10c0,0,-4,6,-4,13V903c0,0,0,33,16,48c0,0,17,14,42,14H414c0,0,38,0,62,-1c0,0,25,-2,45,-4c0,0,58,-8,105,-28c0,0,46,-21,79,-53c0,0,32,-32,49,-77c0,0,17,-44,17,-101c0,0,0,-49,-12,-89c0,0,-12,-40,-36,-71c0,0,-24,-31,-59,-54c0,0,-35,-23,-80,-38c0,0,22,-10,41,-25c0,0,19,-15,36,-36c0,0,17,-22,31,-49c0,0,15,-27,30,-61L803,87c0,0,11,-28,15,-41c0,0,3,-14,3,-21c0,0,0,-8,-3,-14c0,0,-3,-5,-14,-9c0,0,-11,-3,-33,-4c0,0,-21,-2,-59,-2c0,0,-31,0,-50,2c0,0,-18,1,-29,4c0,0,-11,4,-15,11c0,0,-5,6,-8,15L524,244c0,0,-16,37,-31,65c0,0,-14,28,-33,48c0,0,-18,19,-42,28c0,0,-24,10,-55,10H302V27c0,0,0,-8,-5,-14c0,0,-5,-6,-16,-10c0,0,-11,-3,-30,-5c0,0,-18,-2,-48,-2Z" 
id="f1_2j"
transform="scale(0.001,-0.001)" />

<path d="M589,371L453,782h-1L317,371ZM106,-4c0,0,-35,0,-54,2C52,-2,32,0,25,8c0,0,-7,9,-5,24c0,0,2,16,11,42L329,931c0,0,4,13,10,21c0,0,6,7,19,12c0,0,13,4,36,5c0,0,23,1,61,1c0,0,44,0,71,-1c0,0,26,-1,40,-5c0,0,15,-5,21,-13c0,0,6,-8,11,-22L896,73c0,0,9,-27,11,-43c0,0,3,-15,-6,-23c0,0,-8,-7,-29,-9c0,0,-21,-2,-57,-2c0,0,-38,0,-59,1c0,0,-22,1,-33,4c0,0,-11,3,-16,9c0,0,-4,6,-7,16L635,220H272L211,31c0,0,-2,-11,-7,-18c0,0,-5,-7,-16,-11c0,0,-11,-3,-31,-4c0,0,-19,-2,-51,-2Z" 
id="f1_5"
transform="scale(0.001,-0.001)" />

<path d="M390,486c0,0,47,0,79,13c0,0,31,12,51,35c0,0,20,23,31,55c0,0,10,31,10,69c0,0,0,50,-18,83c0,0,-17,33,-44,49c0,0,-26,15,-54,19c0,0,-29,5,-59,5H302V486ZM203,-4c0,0,-28,0,-47,2c0,0,-19,2,-30,5c0,0,-11,4,-16,10c0,0,-4,6,-4,13V895c0,0,0,35,18,53c0,0,18,17,48,17H400c0,0,34,0,65,-3c0,0,31,-2,74,-11c0,0,43,-8,88,-31c0,0,44,-24,75,-59c0,0,32,-36,48,-83c0,0,17,-47,17,-106c0,0,0,-82,-26,-144c0,0,-25,-63,-74,-106c0,0,-48,-43,-118,-65c0,0,-71,-23,-166,-23H302V26c0,0,0,-7,-5,-13c0,0,-5,-6,-16,-10c0,0,-11,-3,-30,-5c0,0,-18,-2,-48,-2Z" 
id="f1_2g"
transform="scale(0.001,-0.001)" />

<path d="M204,-4c0,0,-28,0,-47,2c0,0,-19,2,-30,5c0,0,-12,4,-17,10c0,0,-4,6,-4,13V939c0,0,0,7,4,13c0,0,5,6,17,10c0,0,11,3,30,6c0,0,19,2,47,2c0,0,29,0,48,-2c0,0,19,-3,30,-6c0,0,11,-4,16,-10c0,0,4,-6,4,-13V584H663V939c0,0,0,7,5,13c0,0,5,6,15,10c0,0,11,3,30,6c0,0,19,2,49,2c0,0,28,0,47,-2c0,0,18,-3,30,-6c0,0,11,-4,16,-10c0,0,4,-6,4,-13V26c0,0,0,-7,-4,-13c0,0,-5,-6,-16,-10c0,0,-12,-3,-30,-5c0,0,-19,-2,-47,-2c0,0,-30,0,-49,2c0,0,-19,2,-30,5c0,0,-10,4,-15,10c0,0,-5,6,-5,13V417H302V26c0,0,0,-7,-4,-13c0,0,-5,-6,-16,-10c0,0,-11,-3,-30,-5c0,0,-19,-2,-48,-2Z" 
id="f1_19"
transform="scale(0.001,-0.001)" />

<path d="M320,-17c0,0,-50,0,-93,9c0,0,-43,8,-76,19c0,0,-32,11,-54,24C97,35,75,48,65,58c0,0,-10,9,-14,28c0,0,-4,18,-4,52c0,0,0,23,1,39c0,0,2,15,5,25c0,0,4,10,9,14c0,0,6,4,13,4c0,0,11,0,30,-12c0,0,19,-13,49,-28c0,0,30,-15,71,-27c0,0,42,-12,96,-12c0,0,36,0,64,8c0,0,29,9,49,25c0,0,19,15,30,38c0,0,10,23,10,52c0,0,0,33,-18,56c0,0,-18,24,-46,42c0,0,-29,18,-66,34c0,0,-36,16,-75,34c0,0,-39,18,-76,41c0,0,-36,23,-65,54c0,0,-29,32,-47,75c0,0,-17,44,-17,104c0,0,0,70,25,122c0,0,26,53,70,88c0,0,43,34,103,51c0,0,59,18,125,18c0,0,35,0,69,-6c0,0,34,-5,64,-14c0,0,30,-9,53,-20c0,0,23,-11,31,-18c0,0,7,-8,10,-13c0,0,3,-5,4,-14c0,0,2,-8,3,-21c0,0,1,-13,1,-33c0,0,0,-21,-1,-36c0,0,-1,-15,-4,-25c0,0,-3,-9,-7,-14c0,0,-5,-4,-14,-4c0,0,-8,0,-26,10c0,0,-18,10,-44,23c0,0,-26,12,-60,22c0,0,-34,10,-75,10c0,0,-32,0,-56,-8c0,0,-24,-8,-40,-21c0,0,-16,-14,-24,-34c0,0,-8,-19,-8,-41c0,0,0,-32,18,-56c0,0,17,-23,46,-42c0,0,30,-18,67,-34c0,0,38,-16,76,-34c0,0,39,-18,76,-41c0,0,38,-22,67,-54c0,0,29,-32,47,-75c0,0,18,-43,18,-101c0,0,0,-76,-29,-133c0,0,-28,-58,-77,-96C572,60,524,21,459,2c0,0,-65,-19,-139,-19Z" 
id="f1_2n"
transform="scale(0.001,-0.001)" />

<path d="M204,-4c0,0,-28,0,-47,2c0,0,-19,2,-31,6c0,0,-11,4,-16,10c0,0,-4,6,-4,14V903c0,0,0,33,16,48c0,0,17,14,42,14H618c0,0,7,0,12,-4c0,0,5,-4,9,-13c0,0,5,-10,6,-25c0,0,2,-16,2,-38c0,0,0,-23,-2,-38c0,0,-1,-15,-6,-24c0,0,-4,-9,-9,-14c0,0,-5,-4,-12,-4H302V545H599c0,0,6,0,12,-4c0,0,5,-4,9,-13c0,0,4,-9,6,-24c0,0,2,-15,2,-37c0,0,0,-22,-2,-37c0,0,-2,-15,-6,-25c0,0,-4,-10,-9,-14c0,0,-6,-4,-12,-4H302V28c0,0,0,-8,-4,-14c0,0,-5,-6,-16,-10c0,0,-12,-4,-30,-6c0,0,-19,-2,-48,-2Z" 
id="f1_13"
transform="scale(0.001,-0.001)" />

<path d="M198,-4c0,0,-27,0,-45,2c0,0,-18,2,-28,5c0,0,-11,4,-15,10c0,0,-4,6,-4,13V887c0,0,0,38,20,58c0,0,20,20,53,20H308c0,0,34,0,59,-6c0,0,24,-5,42,-18c0,0,18,-13,30,-35c0,0,12,-21,21,-52L669,279h3L889,852c0,0,9,32,21,53c0,0,11,22,27,35c0,0,15,14,36,19c0,0,21,6,48,6h132c0,0,21,0,35,-5c0,0,15,-5,24,-15c0,0,9,-11,14,-25c0,0,5,-15,5,-33V26c0,0,0,-7,-4,-13c0,0,-4,-6,-15,-10c0,0,-11,-3,-29,-5c0,0,-18,-2,-45,-2c0,0,-27,0,-45,2c0,0,-18,2,-28,5c0,0,-11,4,-15,10c0,0,-5,6,-5,13V813h-1L764,27c0,0,-3,-10,-10,-16c0,0,-6,-6,-18,-10c0,0,-12,-3,-29,-4c0,0,-18,-1,-44,-1c0,0,-25,0,-43,2c0,0,-18,2,-29,5c0,0,-12,4,-19,10c0,0,-6,6,-9,14L293,813h-2V26c0,0,0,-7,-4,-13c0,0,-4,-6,-15,-10c0,0,-11,-3,-29,-5c0,0,-17,-2,-45,-2Z" 
id="f1_1x"
transform="scale(0.001,-0.001)" />

<path d="M204,-4c0,0,-28,0,-47,2c0,0,-19,2,-31,5c0,0,-11,4,-16,10c0,0,-4,6,-4,13V939c0,0,0,7,4,13c0,0,5,6,17,10c0,0,11,3,30,6c0,0,19,2,47,2c0,0,29,0,48,-2c0,0,18,-3,29,-6c0,0,11,-4,16,-10c0,0,5,-6,5,-13V26c0,0,0,-7,-5,-13c0,0,-5,-6,-16,-10c0,0,-11,-3,-29,-5c0,0,-19,-2,-48,-2Z" 
id="f1_1c"
transform="scale(0.001,-0.001)" />

<path d="M474,-21L174,817c0,0,-34,94,-42,112c0,0,-15,28,-41,42c0,0,-26,14,-70,14v27H395V985H377c0,0,-40,0,-60,-18c0,0,-21,-18,-21,-44c0,0,0,-26,33,-120L528,235L696,718l-30,85l-24,68c0,0,-16,37,-35,66c0,0,-10,14,-24,24c0,0,-19,13,-38,19c0,0,-14,5,-44,5v27H894V985H867c0,0,-41,0,-61,-18c0,0,-19,-18,-19,-49c0,0,0,-38,33,-133L1015,235l193,557c0,0,32,93,32,129c0,0,0,17,-10,32c0,0,-11,15,-28,21c0,0,-28,11,-74,11v27h302V985c0,0,-39,0,-64,-15c0,0,-25,-14,-47,-53c0,0,-15,-26,-47,-124L990,-21H960L729,624L501,-21Z" 
id="f2_1n"
transform="scale(0.001,-0.001)" />

<path d="M145,-328c0,0,-44,0,-73,25c0,0,-28,25,-28,58c0,0,0,31,21,50c0,0,20,19,56,19c0,0,25,0,67,-16c0,0,30,-11,38,-11c0,0,22,0,49,23c0,0,26,23,53,89L376,28L131,542c0,0,-11,24,-36,58c0,0,-19,27,-30,36c0,0,-18,12,-56,21v26H328V657H312c0,0,-33,0,-50,-15c0,0,-17,-14,-17,-36c0,0,0,-30,25,-81L437,179L589,557c0,0,12,31,12,62c0,0,0,13,-5,20c0,0,-6,8,-19,13c0,0,-12,5,-44,5v26H754V657c0,0,-27,-3,-42,-12c0,0,-15,-9,-33,-34c0,0,-7,-10,-25,-58L376,-128c0,0,-40,-99,-105,-150c0,0,-66,-50,-126,-50Z" 
id="f2_2l"
transform="scale(0.001,-0.001)" />

<path d="M336,-20L117,554c0,0,-21,55,-42,74c0,0,-21,19,-66,29v26H296V657c0,0,-40,-3,-52,-14c0,0,-13,-12,-13,-33c0,0,0,-23,13,-56L390,162L537,481L498,581c0,0,-18,46,-47,63c0,0,-17,11,-61,13v26H716V657c0,0,-54,-2,-77,-20c0,0,-15,-12,-15,-39c0,0,0,-15,6,-30L785,177L929,554c0,0,15,40,15,65c0,0,0,14,-15,25c0,0,-14,12,-57,13v26h216V657c0,0,-65,-10,-95,-89L764,-20H733L563,415L363,-20Z" 
id="f2_2j"
transform="scale(0.001,-0.001)" />

<path d="M376,-20L133,556c0,0,-17,41,-31,58c0,0,-15,18,-39,30c0,0,-12,7,-50,13v26H335V657H314c0,0,-29,0,-44,-14c0,0,-16,-14,-15,-38c0,0,-1,-26,15,-62L429,165L588,557c0,0,17,42,17,64c0,0,0,10,-6,17c0,0,-8,11,-21,15c0,0,-13,4,-52,4v26H750V657c0,0,-39,-3,-54,-16c0,0,-26,-23,-47,-76L409,-20Z" 
id="f2_2i"
transform="scale(0.001,-0.001)" />

<path d="M213,-20c0,0,-34,0,-58,24c0,0,-24,24,-24,58c0,0,0,34,24,58c0,0,24,25,58,25c0,0,35,0,59,-25c0,0,24,-24,24,-58c0,0,0,-34,-24,-58c0,0,-25,-24,-59,-24Zm3,559c0,0,-35,0,-59,24c0,0,-24,24,-24,58c0,0,0,35,24,59c0,0,24,24,59,24c0,0,34,0,58,-24c0,0,24,-24,24,-59c0,0,0,-34,-24,-58c0,0,-24,-24,-58,-24Z" 
id="f2_u"
transform="scale(0.001,-0.001)" />

<path d="M197,0V27c0,0,71,2,92,13c0,0,21,10,29,29c0,0,9,18,9,109V725c0,0,0,110,-8,141c0,0,-5,24,-19,35c0,0,-14,11,-33,11c0,0,-28,0,-77,-23l-11,23l246,121h25V178c0,0,0,-85,7,-106c0,0,7,-21,29,-32c0,0,23,-11,91,-13V0Z" 
id="f2_l"
transform="scale(0.001,-0.001)" />

<path d="M38,0V27H74c0,0,63,0,91,37c0,0,18,24,18,115V833c0,0,0,77,-10,102c0,0,-7,18,-30,32c0,0,-33,18,-69,18H38v27H470V985H434c0,0,-62,0,-90,-37c0,0,-18,-24,-18,-115V179c0,0,0,-77,9,-102c0,0,8,-18,31,-32c0,0,32,-18,68,-18h36V0Z" 
id="f2_19"
transform="scale(0.001,-0.001)" />

<path d="M82,-253v33c0,0,77,25,119,78c0,0,42,54,42,114c0,0,0,14,-7,23c0,0,-5,6,-11,6c0,0,-8,0,-35,-14c0,0,-14,-7,-28,-7c0,0,-37,0,-58,21C104,1,82,23,82,61c0,0,0,36,28,62c0,0,28,27,68,27c0,0,49,0,88,-43c0,0,38,-43,38,-113c0,0,0,-77,-53,-143c0,0,-53,-66,-169,-104Z" 
id="f2_g"
transform="scale(0.001,-0.001)" />

<path d="M253,0V27h36c0,0,64,0,91,39c0,0,16,24,16,109V948H274c0,0,-71,0,-100,-10c0,0,-39,-14,-67,-54c0,0,-27,-41,-33,-109H46l12,237H883L894,775H865c0,0,-8,62,-22,89c0,0,-23,43,-61,64c0,0,-39,20,-101,20H539V175c0,0,0,-93,20,-116c0,0,28,-32,87,-32h36V0Z" 
id="f2_1k"
transform="scale(0.001,-0.001)" />

<path d="M33,0V27c0,0,264,241,371,393c0,0,108,152,108,278c0,0,0,96,-59,158c0,0,-59,62,-141,62c0,0,-75,0,-134,-43c0,0,-59,-44,-88,-128H63c0,0,18,138,95,212c0,0,77,74,193,74c0,0,123,0,205,-80c0,0,83,-79,83,-186c0,0,0,-77,-36,-154c0,0,-55,-121,-179,-256C424,357,238,154,191,112H455c0,0,81,0,114,6c0,0,32,6,58,25c0,0,27,18,46,52h27L630,0Z" 
id="f2_m"
transform="scale(0.001,-0.001)" />

<path d="M238,-17c0,0,-103,0,-139,25C99,8,62,33,62,62c0,0,0,22,17,38c0,0,18,16,42,16c0,0,19,0,38,-6c0,0,13,-3,58,-27c0,0,45,-23,62,-28c0,0,27,-8,59,-8c0,0,76,0,132,59c0,0,56,59,56,140c0,0,0,59,-26,115c0,0,-19,41,-42,63c0,0,-32,30,-88,54c0,0,-56,25,-114,25H232v22c0,0,59,8,118,42c0,0,59,35,86,85c0,0,27,49,27,108c0,0,0,76,-48,124c0,0,-48,47,-120,47c0,0,-116,0,-193,-124L77,819c0,0,44,102,110,158c0,0,66,56,164,56c0,0,122,0,187,-80c0,0,49,-58,49,-126c0,0,0,-110,-139,-228c0,0,93,-36,141,-104c0,0,48,-68,48,-160c0,0,0,-131,-84,-227C553,108,444,-17,238,-17Z" 
id="f2_n"
transform="scale(0.001,-0.001)" />

<path d="M384,85c0,0,44,0,78,19c0,0,35,19,68,62V487c0,0,0,55,-15,87c0,0,-14,33,-51,55c0,0,-38,22,-85,22c0,0,-84,0,-143,-71c0,0,-60,-70,-60,-214c0,0,0,-138,61,-209c0,0,61,-72,147,-72Zm35,-411v27h15c0,0,41,0,63,12c0,0,15,8,24,30c0,0,9,21,9,83V119C530,119,462,39,411,9c0,0,-50,-29,-105,-29c0,0,-99,0,-177,90c0,0,-78,90,-78,241c0,0,0,174,103,283c0,0,103,109,248,109c0,0,43,0,78,-12c0,0,36,-12,65,-35c0,0,43,20,83,47h25V-174c0,0,0,-66,9,-85c0,0,9,-19,28,-30c0,0,19,-10,74,-10v-27Z" 
id="f2_2d"
transform="scale(0.001,-0.001)" />

<path d="M13,0V26c0,0,52,0,78,13c0,0,16,8,24,25c0,0,11,25,11,86V773c0,0,0,118,-5,145c0,0,-5,26,-17,36c0,0,-12,10,-32,10c0,0,-15,0,-47,-13L13,978l203,83h34V381L424,540c0,0,55,50,64,64c0,0,6,9,6,18c0,0,0,15,-12,26c0,0,-13,11,-41,12v23H738V660c0,0,-61,-2,-102,-19c0,0,-40,-17,-89,-62L372,418L547,196c0,0,73,-92,98,-117c0,0,36,-35,63,-45c0,0,18,-8,65,-8V0H441V26c0,0,28,1,38,9c0,0,10,8,10,22c0,0,0,17,-29,56L250,381V154c0,0,0,-67,10,-88c0,0,9,-21,26,-30c0,0,17,-9,75,-10V0Z" 
id="f2_27"
transform="scale(0.001,-0.001)" />

<path d="M25,0V26c0,0,27,4,47,19c0,0,29,22,96,111L311,346L182,535c0,0,-55,81,-86,102c0,0,-30,20,-75,20v26H341V657c0,0,-30,0,-42,-10c0,0,-13,-11,-13,-28c0,0,0,-19,27,-56c0,0,8,-12,25,-37l48,-78l56,77c0,0,55,74,55,94c0,0,0,16,0,27c0,0,0,11,0,11v26H674V657c0,0,-37,-2,-64,-20c0,0,-37,-26,-100,-111L416,402L587,156c0,0,63,-91,89,-109c0,0,27,-18,70,-21V0H423V26c0,0,34,0,53,15c0,0,14,11,14,28c0,0,0,17,-48,87L341,302L232,157c0,0,-50,-69,-50,-82c0,0,0,-18,17,-32c0,0,17,-15,50,-17V0Z" 
id="f2_2k"
transform="scale(0.001,-0.001)" />

<path d="M452,373V875L97,373ZM452,0V267H23v95l470,671h82V373H711V267H575V0Z" 
id="f2_o"
transform="scale(0.001,-0.001)" />

<path d="M910,-21L225,820V176c0,0,0,-87,40,-118c0,0,40,-31,91,-31h24V0H21V27c0,0,83,1,116,35c0,0,33,33,33,114V891l-21,26c0,0,-32,41,-57,53c0,0,-24,13,-71,15v27H380L880,385V819c0,0,0,92,-26,124c0,0,-34,42,-116,42c-1,0,-3,0,-4,0v27h334V985c0,0,-64,-9,-86,-22c0,0,-22,-13,-35,-42c0,0,-12,-30,-12,-102V-21Z" 
id="f3_1e"
transform="scale(0.001,-0.001)" />

<path d="M381,31c0,0,33,0,56,19c0,0,29,25,38,71c0,0,15,71,15,286c0,0,0,127,-14,174c0,0,-14,48,-42,69c0,0,-19,16,-50,16c0,0,-38,0,-65,-29c0,0,-27,-29,-36,-113c0,0,-8,-85,-8,-235c0,0,0,-80,10,-150c0,0,8,-53,35,-80c0,0,27,-28,61,-28Zm2,-51c0,0,-157,0,-242,110c0,0,-85,110,-85,256c0,0,0,150,87,261c0,0,86,112,238,112c0,0,90,0,169,-47c0,0,78,-47,119,-134c0,0,40,-86,40,-189c0,0,0,-149,-75,-249c0,0,-91,-120,-251,-120Z" 
id="f3_2b"
transform="scale(0.001,-0.001)" />

<path d="M298,-9c0,0,-67,0,-113,36c0,0,-46,37,-58,83c0,0,-8,25,-8,137V624H28v26c0,0,94,66,161,139c0,0,66,73,115,163h25V697H494V624H329V193c0,0,0,-60,5,-78c0,0,6,-17,20,-28c0,0,14,-11,26,-11c0,0,48,0,92,75l22,-17C494,134,434,-9,298,-9Z" 
id="f3_2g"
transform="scale(0.001,-0.001)" />

<path d="M458,424c0,0,0,120,-13,165c0,0,-13,44,-40,67c0,0,-16,14,-42,14c0,0,-39,0,-63,-38c0,0,-44,-66,-44,-182V424ZM358,-20c0,0,-155,0,-235,119c0,0,-64,96,-64,239c0,0,0,174,94,277c0,0,94,104,221,104c0,0,106,0,184,-87c0,0,78,-87,84,-257H259c0,0,7,-139,74,-220c0,0,51,-62,124,-62c0,0,45,0,81,25c0,0,37,25,79,90l25,-16C642,192,585,76,517,28c0,0,-69,-48,-159,-48Z" 
id="f3_21"
transform="scale(0.001,-0.001)" />

<path d="M254,-18c0,0,-51,0,-88,36c0,0,-36,36,-36,87c0,0,0,52,36,88c0,0,37,37,88,37c0,0,53,0,89,-37c0,0,36,-36,36,-88c0,0,0,-51,-36,-87c0,0,-37,-36,-89,-36Zm2,488c0,0,-52,0,-88,36c0,0,-36,37,-36,88c0,0,0,51,36,88c0,0,36,36,88,36c0,0,51,0,87,-36c0,0,36,-37,36,-88c0,0,0,-51,-36,-88c0,0,-36,-36,-87,-36Z" 
id="f3_u"
transform="scale(0.001,-0.001)" />

<path d="M24,0V27H60c0,0,63,0,91,37c0,0,18,24,18,115V833c0,0,0,77,-10,102c0,0,-7,18,-30,32c0,0,-32,18,-69,18H24v27H776L787,790H761c0,0,-20,71,-45,104c0,0,-26,33,-64,48c0,0,-37,15,-117,15H312V558H497c0,0,63,0,93,28c0,0,29,28,39,111h27V355H629c0,0,-1,59,-16,87c0,0,-14,27,-40,41c0,0,-26,14,-76,14H312V179c0,0,0,-77,10,-102c0,0,7,-18,31,-32c0,0,33,-18,69,-18h37V0Z" 
id="f2_16"
transform="scale(0.001,-0.001)" />

<path d="M-12,338v55H776V338Z" 
id="f2_4y"
transform="scale(0.001,-0.001)" />

<path d="M968,-20c0,0,42,100,87,170c0,0,45,70,144,184H56v73H1199c0,0,-106,122,-148,189c0,0,-43,67,-83,166h60c0,0,87,-108,217,-218c0,0,130,-110,206,-154V349c0,0,-99,-56,-217,-159c0,0,-117,-102,-206,-210Z" 
id="f4_34"
transform="scale(0.001,-0.001)" />

<path d="M106,-253v33c0,0,76,25,118,78c0,0,42,54,42,113c0,0,0,15,-7,24c0,0,-5,6,-10,6c0,0,-8,0,-36,-14c0,0,-13,-7,-28,-7c0,0,-36,0,-58,21c0,0,-21,22,-21,60c0,0,0,36,28,62c0,0,27,27,68,27c0,0,49,0,87,-43c0,0,39,-43,39,-113c0,0,0,-77,-54,-143c0,0,-53,-66,-168,-104ZM210,540c0,0,-35,0,-59,24c0,0,-24,24,-24,59c0,0,0,34,24,58c0,0,24,24,59,24c0,0,34,0,58,-24c0,0,24,-24,24,-58c0,0,0,-35,-24,-59c0,0,-24,-24,-58,-24Z" 
id="f2_v"
transform="scale(0.001,-0.001)" />

<path d="M400,67c0,0,47,0,91,18c0,0,44,19,119,80c0,0,-98,134,-136,196c0,0,-38,62,-84,154c0,0,-89,-51,-135,-113c0,0,-45,-62,-45,-135c0,0,0,-80,52,-140c0,0,51,-60,138,-60Zm95,565c0,0,92,44,138,100c0,0,46,56,46,124c0,0,0,54,-34,89c0,0,-33,35,-82,35c0,0,-65,0,-99,-45c0,0,-33,-45,-33,-89c0,0,0,-36,13,-81c0,0,13,-45,51,-133ZM324,-22c0,0,-124,0,-196,64c0,0,-72,66,-72,157c0,0,0,90,65,180c0,0,65,90,244,186c0,0,-35,78,-48,127c0,0,-13,50,-13,96c0,0,0,127,94,194c0,0,73,52,167,52c0,0,89,0,145,-52c0,0,56,-53,56,-130c0,0,0,-79,-54,-138c0,0,-55,-60,-192,-131c0,0,95,-169,198,-309c0,0,131,157,131,264c0,0,0,34,-23,61c0,0,-16,20,-47,24v28h313V623c0,0,-65,-5,-96,-29c0,0,-30,-23,-96,-142c0,0,-65,-119,-147,-221c0,0,66,-78,118,-109c0,0,52,-31,105,-31c0,0,52,0,88,28c0,0,36,28,50,82l28,-20c0,0,-28,-105,-89,-155c0,0,-61,-48,-142,-48c0,0,-61,0,-124,32c0,0,-63,33,-138,112C649,122,556,40,482,8c0,0,-74,-30,-158,-30Z" 
id="f2_a"
transform="scale(0.001,-0.001)" />


</defs>
</svg>