<?xml version="1.0" encoding="UTF-8" standalone="no"?>
<!DOCTYPE svg PUBLIC "-//W3C//DTD SVG 1.1//EN"
"http://www.w3.org/Graphics/SVG/1.1/DTD/svg11.dtd">
<svg viewBox="0 0 909 1286" version="1.1" xmlns="http://www.w3.org/2000/svg" xmlns:xlink="http://www.w3.org/1999/xlink">
<defs>
<style type="text/css"><![CDATA[
.g0_48{
fill: #FFFFFF;
}
.g1_48{
}
]]></style>
</defs>
<g fill="#000000" >
<use xlink:href="#f0_1k" transform="matrix(10,0,0,10,161.3,128.9)" />
<use xlink:href="#f0_1x" transform="matrix(10,0,0,10,169.6,128.9)" />
<use xlink:href="#f0_1y" transform="matrix(10,0,0,10,177.1,128.9)" />
<use xlink:href="#f0_28" transform="matrix(10,0,0,10,185.3,128.9)" />
<use xlink:href="#f0_21" transform="matrix(10,0,0,10,189.2,128.9)" />
<use xlink:href="#f0_u" transform="matrix(10,0,0,10,198.4,128.9)" />
<use xlink:href="#f0_1j" transform="matrix(10,0,0,10,205.9,128.9)" />
<use xlink:href="#f0_24" transform="matrix(10,0,0,10,214,128.9)" />
<use xlink:href="#f0_1x" transform="matrix(10,0,0,10,222.4,128.9)" />
<use xlink:href="#f0_2c" transform="matrix(10,0,0,10,229.9,128.9)" />
<use xlink:href="#f0_21" transform="matrix(10,0,0,10,238,128.9)" />
<use xlink:href="#f0_2f" transform="matrix(10,0,0,10,244.4,128.9)" />
<use xlink:href="#f0_c" transform="matrix(10,0,0,10,253,128.9)" />
<use xlink:href="#f0_17" transform="matrix(10,0,0,10,257.6,128.9)" />
<use xlink:href="#f0_21" transform="matrix(10,0,0,10,269.3,128.9)" />
<use xlink:href="#f0_2b" transform="matrix(10,0,0,10,275.7,128.9)" />
<use xlink:href="#f0_29" transform="matrix(10,0,0,10,283.1,128.9)" />
<use xlink:href="#f0_21" transform="matrix(10,0,0,10,295.2,128.9)" />
<use xlink:href="#f0_2g" transform="matrix(10,0,0,10,301.8,128.9)" />
<use xlink:href="#f0_2e" transform="matrix(10,0,0,10,306.9,128.9)" />
<use xlink:href="#f0_2l" transform="matrix(10,0,0,10,313.3,128.9)" />
<use xlink:href="#f0_d" transform="matrix(10,0,0,10,320.7,128.9)" />
<use xlink:href="#f0_2b" transform="matrix(10,0,0,10,328.2,128.9)" />
<use xlink:href="#f0_22" transform="matrix(10,0,0,10,335.9,128.9)" />
<use xlink:href="#f0_29" transform="matrix(10,0,0,10,343.4,128.9)" />
<use xlink:href="#f0_2b" transform="matrix(10,0,0,10,355.5,128.9)" />
<use xlink:href="#f0_28" transform="matrix(10,0,0,10,363,128.9)" />
<use xlink:href="#f0_21" transform="matrix(10,0,0,10,366.9,128.9)" />
<use xlink:href="#f0_1z" transform="matrix(10,0,0,10,373.5,128.9)" />
<use xlink:href="#f0_2h" transform="matrix(10,0,0,10,379.9,128.9)" />
<use xlink:href="#f0_28" transform="matrix(10,0,0,10,388.1,128.9)" />
<use xlink:href="#f0_21" transform="matrix(10,0,0,10,392.3,128.9)" />
<use xlink:href="#f0_2f" transform="matrix(10,0,0,10,398.8,128.9)" />
<use xlink:href="#f0_1z" transform="matrix(10,0,0,10,406.8,128.9)" />
<use xlink:href="#f0_2b" transform="matrix(10,0,0,10,413.2,128.9)" />
<use xlink:href="#f0_2a" transform="matrix(10,0,0,10,420.9,128.9)" />
<use xlink:href="#f0_2g" transform="matrix(10,0,0,10,429.2,128.9)" />
<use xlink:href="#f0_1x" transform="matrix(10,0,0,10,434,128.9)" />
<use xlink:href="#f0_25" transform="matrix(10,0,0,10,441.5,128.9)" />
<use xlink:href="#f0_2a" transform="matrix(10,0,0,10,445.3,128.9)" />
<use xlink:href="#f0_25" transform="matrix(10,0,0,10,453.6,128.9)" />
<use xlink:href="#f0_2a" transform="matrix(10,0,0,10,457.6,128.9)" />
<use xlink:href="#f0_23" transform="matrix(10,0,0,10,465.9,128.9)" />
<use xlink:href="#f0_1y" transform="matrix(10,0,0,10,475.8,128.9)" />
<use xlink:href="#f0_2b" transform="matrix(10,0,0,10,484,128.9)" />
<use xlink:href="#f0_2a" transform="matrix(10,0,0,10,491.7,128.9)" />
<use xlink:href="#f0_20" transform="matrix(10,0,0,10,499.9,128.9)" />
<use xlink:href="#f0_2c" transform="matrix(10,0,0,10,510.6,128.9)" />
<use xlink:href="#f0_1x" transform="matrix(10,0,0,10,518.8,128.9)" />
<use xlink:href="#f0_25" transform="matrix(10,0,0,10,526.2,128.9)" />
<use xlink:href="#f0_2e" transform="matrix(10,0,0,10,530.4,128.9)" />
<use xlink:href="#f0_2f" transform="matrix(10,0,0,10,536.8,128.9)" />
<use xlink:href="#f0_2b" transform="matrix(10,0,0,10,545.2,128.9)" />
<use xlink:href="#f0_2a" transform="matrix(10,0,0,10,552.7,128.9)" />
<use xlink:href="#f0_28" transform="matrix(10,0,0,10,560.8,128.9)" />
<use xlink:href="#f0_2l" transform="matrix(10,0,0,10,564.7,128.9)" />
<use xlink:href="#f0_2b" transform="matrix(10,0,0,10,574.9,128.9)" />
<use xlink:href="#f0_2e" transform="matrix(10,0,0,10,582.3,128.9)" />
<use xlink:href="#f0_1y" transform="matrix(10,0,0,10,591.2,128.9)" />
<use xlink:href="#f0_2b" transform="matrix(10,0,0,10,599.5,128.9)" />
<use xlink:href="#f0_2a" transform="matrix(10,0,0,10,607,128.9)" />
<use xlink:href="#f0_20" transform="matrix(10,0,0,10,615.3,128.9)" />
<use xlink:href="#f0_2c" transform="matrix(10,0,0,10,626.1,128.9)" />
<use xlink:href="#f0_1x" transform="matrix(10,0,0,10,634.1,128.9)" />
<use xlink:href="#f0_25" transform="matrix(10,0,0,10,641.7,128.9)" />
<use xlink:href="#f0_2e" transform="matrix(10,0,0,10,645.9,128.9)" />
<use xlink:href="#f0_2f" transform="matrix(10,0,0,10,652.1,128.9)" />
<use xlink:href="#f0_1x" transform="matrix(10,0,0,10,660.7,128.9)" />
<use xlink:href="#f0_2a" transform="matrix(10,0,0,10,668.1,128.9)" />
<use xlink:href="#f0_20" transform="matrix(10,0,0,10,676.3,128.9)" />
<use xlink:href="#f0_28" transform="matrix(10,0,0,10,686.9,128.9)" />
<use xlink:href="#f0_2b" transform="matrix(10,0,0,10,690.8,128.9)" />
<use xlink:href="#f0_2a" transform="matrix(10,0,0,10,698.5,128.9)" />
<use xlink:href="#f0_21" transform="matrix(10,0,0,10,706.7,128.9)" />
<use xlink:href="#f0_2c" transform="matrix(10,0,0,10,715.7,128.9)" />
<use xlink:href="#f0_1x" transform="matrix(10,0,0,10,724,128.9)" />
<use xlink:href="#f0_25" transform="matrix(10,0,0,10,731.7,128.9)" />
<use xlink:href="#f0_2e" transform="matrix(10,0,0,10,735.3,128.9)" />
<use xlink:href="#f0_2f" transform="matrix(10,0,0,10,741.9,128.9)" />
</g>
<image preserveAspectRatio="none" x="116" y="141" width="677" height="496" xlink:href="img/1.png" />
<image preserveAspectRatio="none" x="112" y="643" width="684" height="571" xlink:href="img/2.png" />
<path fill-rule="evenodd" d="M54.1,68H856.2V96.4H54.1V68l1.5,27H854.7V69.7H55.6V95L54.1,68Z" class="g0_48" />
<path fill-rule="evenodd" d="M55.6,93.3H855.1v3H55.6v-3Z" class="g1_48" />
<path fill-rule="evenodd" d="M55.6,68.2H855.1v3.1H55.6V68.2Z" class="g1_48" />
<g fill="#000000" >
<use xlink:href="#f1_13" transform="matrix(10,0,0,10,61.2,86.7)" />
<use xlink:href="#f1_18" transform="matrix(10,0,0,10,72.4,86.7)" />
<use xlink:href="#f1_15" transform="matrix(10,0,0,10,84.9,86.7)" />
<use xlink:href="#f1_1d" transform="matrix(10,0,0,10,96.1,86.7)" />
<use xlink:href="#f1_19" transform="matrix(10,0,0,10,110.4,86.7)" />
<use xlink:href="#f1_13" transform="matrix(10,0,0,10,116.2,86.7)" />
<use xlink:href="#f1_11" transform="matrix(10,0,0,10,127.6,86.7)" />
<use xlink:href="#f1_1c" transform="matrix(10,0,0,10,138.4,86.7)" />
<use xlink:href="#f1_12" transform="matrix(10,0,0,10,152,86.7)" />
<use xlink:href="#f1_1f" transform="matrix(10,0,0,10,163.2,86.7)" />
<use xlink:href="#f1_1e" transform="matrix(10,0,0,10,175.1,86.7)" />
<use xlink:href="#f1_14" transform="matrix(10,0,0,10,186.5,86.7)" />
<use xlink:href="#f1_19" transform="matrix(10,0,0,10,198.2,86.7)" />
<use xlink:href="#f1_1e" transform="matrix(10,0,0,10,204.4,86.7)" />
<use xlink:href="#f1_17" transform="matrix(10,0,0,10,215.4,86.7)" />
</g>
<path fill-rule="evenodd" d="M55,1236H853.4v2.2H55V1236Z" class="g1_48" />
<defs>
<path d="M244,0V27h34c0,0,44,0,71,16c0,0,19,11,30,36c0,0,8,18,8,94V953H314c0,0,-103,0,-149,-43c0,0,-66,-60,-83,-172H55v274H965V738H938c0,0,-24,95,-53,136c0,0,-29,41,-80,66c0,0,-28,13,-99,13H631V173c0,0,0,-78,8,-97c0,0,9,-20,34,-34c0,0,25,-15,68,-15h33V0Z" 
id="f0_1k"
transform="scale(0.001,-0.001)" />

<path d="M350,115c0,0,37,0,86,42V391c0,0,-90,-53,-134,-113c0,0,-29,-41,-29,-82c0,0,0,-34,24,-60c0,0,19,-21,53,-21ZM207,-9c0,0,-59,0,-99,38c0,0,-40,40,-40,99c0,0,0,80,69,143c0,0,69,64,299,170v70c0,0,0,79,-8,100c0,0,-9,20,-33,36c0,0,-23,15,-53,15c0,0,-49,0,-80,-22c0,0,-19,-13,-19,-31c0,0,0,-16,21,-39c0,0,28,-32,28,-62c0,0,0,-36,-27,-62c0,0,-27,-26,-71,-26c0,0,-47,0,-79,29c0,0,-32,28,-32,66c0,0,0,54,43,103c0,0,42,48,118,75c0,0,76,26,158,26c0,0,99,0,157,-42c0,0,58,-43,75,-92c0,0,11,-31,11,-144V170c0,0,0,-47,3,-60c0,0,4,-12,11,-18c0,0,8,-6,18,-6c0,0,19,0,39,28L738,96c0,0,-37,-56,-77,-81c0,0,-40,-24,-90,-24c0,0,-60,0,-94,27c0,0,-33,28,-41,85C436,103,309,-9,207,-9Z" 
id="f0_1x"
transform="scale(0.001,-0.001)" />

<path d="M434,31c0,0,38,0,65,22c0,0,28,22,46,86c0,0,18,64,18,231c0,0,0,161,-40,220c0,0,-29,44,-78,44c0,0,-64,0,-123,-73V251c0,0,0,-95,4,-121c0,0,8,-44,36,-71c0,0,28,-28,72,-28ZM115,-20V867c0,0,0,61,-5,75c0,0,-7,21,-23,31c0,0,-17,10,-55,12v27H322V628c0,0,88,91,192,91c0,0,72,0,135,-42c0,0,64,-43,99,-120c0,0,36,-78,36,-179c0,0,0,-114,-45,-208C739,170,693,77,617,28c0,0,-76,-48,-174,-48c0,0,-56,0,-100,18c0,0,-44,17,-87,57L141,-20Z" 
id="f0_1y"
transform="scale(0.001,-0.001)" />

<path d="M32,0V26c0,0,46,2,69,27c0,0,14,18,14,92V867c0,0,0,74,-17,94c0,0,-17,21,-66,24v27H325V145c0,0,0,-74,17,-95c0,0,17,-21,68,-24V0Z" 
id="f0_28"
transform="scale(0.001,-0.001)" />

<path d="M458,424c0,0,0,120,-13,165c0,0,-13,44,-40,67c0,0,-16,14,-42,14c0,0,-39,0,-63,-38c0,0,-44,-66,-44,-182V424ZM358,-20c0,0,-155,0,-235,119c0,0,-64,96,-64,239c0,0,0,174,94,277c0,0,94,104,221,104c0,0,106,0,184,-87c0,0,78,-87,84,-257H259c0,0,7,-139,74,-220c0,0,51,-62,124,-62c0,0,45,0,81,25c0,0,37,25,79,90l25,-16C642,192,585,76,517,28c0,0,-69,-48,-159,-48Z" 
id="f0_21"
transform="scale(0.001,-0.001)" />

<path d="M254,-18c0,0,-51,0,-88,36c0,0,-36,36,-36,87c0,0,0,52,36,88c0,0,37,37,88,37c0,0,53,0,89,-37c0,0,36,-36,36,-88c0,0,0,-51,-36,-87c0,0,-37,-36,-89,-36Zm2,488c0,0,-52,0,-88,36c0,0,-36,37,-36,88c0,0,0,51,36,88c0,0,36,36,88,36c0,0,51,0,87,-36c0,0,36,-37,36,-88c0,0,0,-51,-36,-88c0,0,-36,-36,-87,-36Z" 
id="f0_u"
transform="scale(0.001,-0.001)" />

<path d="M78,-22V359h28c0,0,32,-161,126,-246c0,0,94,-85,202,-85c0,0,84,0,133,46c0,0,50,45,50,106c0,0,0,36,-19,69c0,0,-19,34,-58,64c0,0,-39,30,-138,79c0,0,-138,68,-198,115c0,0,-60,48,-92,107c0,0,-33,59,-33,130c0,0,0,120,89,205c0,0,89,85,224,85c0,0,49,0,96,-11c0,0,35,-9,85,-34c0,0,51,-24,71,-24c0,0,19,0,30,12c0,0,12,12,21,57h23l8,-337H695c0,0,-21,127,-106,204c0,0,-85,78,-184,78c0,0,-76,0,-121,-41c0,0,-44,-41,-44,-94c0,0,0,-33,15,-59c0,0,22,-35,70,-70c0,0,35,-24,162,-87c0,0,178,-87,240,-165c0,0,61,-77,61,-177c0,0,0,-127,-99,-218c0,0,-99,-90,-251,-90c0,0,-48,0,-90,9c0,0,-43,10,-107,36c0,0,-36,15,-59,15c0,0,-20,0,-41,-15c0,0,-22,-15,-35,-45Z" 
id="f0_1j"
transform="scale(0.001,-0.001)" />

<path d="M52,0V26c0,0,44,5,62,29c0,0,13,16,13,97V860c0,0,0,80,-14,99c0,0,-15,20,-61,26v27H336V608c0,0,58,61,106,86c0,0,47,25,99,25c0,0,65,0,112,-38c0,0,47,-37,62,-87c0,0,15,-51,15,-170V152c0,0,0,-81,15,-100c0,0,15,-20,61,-26V0H452V26c0,0,37,6,56,30c0,0,13,20,13,96V463c0,0,0,86,-7,108c0,0,-6,22,-22,35c0,0,-16,12,-36,12c0,0,-30,0,-59,-21c0,0,-28,-20,-61,-72V152c0,0,0,-75,12,-94c0,0,14,-26,58,-32V0Z" 
id="f0_24"
transform="scale(0.001,-0.001)" />

<path d="M459,56c0,0,40,0,66,42c0,0,39,63,39,239c0,0,0,180,-42,247c0,0,-29,44,-76,44c0,0,-76,0,-124,-109V147c0,0,64,-91,137,-91ZM29,-326v28c0,0,46,1,69,26c0,0,14,17,14,89V551c0,0,0,75,-17,95c0,0,-17,21,-66,24v27H322V605c0,0,36,54,74,78c0,0,55,36,119,36c0,0,77,0,140,-49c0,0,63,-48,95,-134c0,0,33,-85,33,-184c0,0,0,-106,-34,-193c0,0,-34,-88,-98,-134c0,0,-65,-45,-144,-45c0,0,-57,0,-107,25c0,0,-37,19,-78,66V-188c0,0,0,-53,8,-73c0,0,9,-19,27,-28c0,0,18,-9,70,-9v-28Z" 
id="f0_2c"
transform="scale(0.001,-0.001)" />

<path d="M312,-20c0,0,-50,0,-134,30c0,0,-22,9,-30,9c0,0,-25,0,-41,-37H82L70,232H97c0,0,33,-99,91,-148c0,0,59,-49,111,-49c0,0,35,0,58,22c0,0,22,22,22,54c0,0,0,35,-22,61c0,0,-22,27,-100,80c0,0,-114,79,-147,120c0,0,-49,62,-49,136c0,0,0,80,55,145c0,0,56,66,161,66c0,0,56,0,109,-28c0,0,20,-11,33,-11c0,0,13,0,21,5c0,0,9,6,27,32h26L504,479H477c0,0,-45,106,-94,145c0,0,-48,39,-96,39c0,0,-31,0,-52,-21c0,0,-22,-20,-22,-47c0,0,0,-20,15,-39c0,0,24,-30,133,-105c0,0,110,-74,144,-126c0,0,35,-52,35,-116c0,0,0,-58,-29,-114C511,95,482,39,429,9c0,0,-53,-29,-117,-29Z" 
id="f0_2f"
transform="scale(0.001,-0.001)" />

<path d="M491,-305c0,0,-180,60,-305,247C186,-58,61,127,61,368c0,0,0,239,124,423c0,0,125,184,306,243v-34c0,0,-78,-50,-115,-99c0,0,-50,-67,-79,-172c0,0,-36,-131,-36,-365c0,0,0,-221,33,-343c0,0,32,-122,88,-197c0,0,39,-52,109,-92v-37Z" 
id="f0_c"
transform="scale(0.001,-0.001)" />

<path d="M635,-22c0,0,-144,0,-239,38c0,0,-96,39,-168,102c0,0,-73,64,-114,144c0,0,-52,103,-52,230c0,0,0,228,160,385c0,0,161,157,404,157c0,0,75,0,136,-12c0,0,33,-6,106,-34c0,0,74,-28,87,-28c0,0,21,0,39,16c0,0,18,15,33,58h27V678h-27c0,0,-50,146,-150,222c0,0,-100,76,-219,76c0,0,-113,0,-189,-64c0,0,-75,-64,-107,-178c0,0,-31,-114,-31,-234c0,0,0,-145,34,-255c0,0,35,-110,111,-161c0,0,76,-52,181,-52c0,0,37,0,75,8c0,0,39,8,79,23V274c0,0,0,60,-8,77c0,0,-9,18,-34,32c0,0,-26,14,-63,14H680v27h493V397c0,0,-56,-4,-78,-15c0,0,-22,-12,-34,-39c0,0,-6,-14,-6,-69L1054,63c0,0,-97,-43,-201,-64c0,0,-105,-21,-218,-21Z" 
id="f0_17"
transform="scale(0.001,-0.001)" />

<path d="M381,31c0,0,33,0,56,19c0,0,29,25,38,71c0,0,15,71,15,286c0,0,0,127,-14,174c0,0,-14,48,-42,69c0,0,-19,16,-50,16c0,0,-38,0,-65,-29c0,0,-27,-29,-36,-113c0,0,-8,-85,-8,-235c0,0,0,-80,10,-150c0,0,8,-53,35,-80c0,0,27,-28,61,-28Zm2,-51c0,0,-157,0,-242,110c0,0,-85,110,-85,256c0,0,0,150,87,261c0,0,86,112,238,112c0,0,90,0,169,-47c0,0,78,-47,119,-134c0,0,40,-86,40,-189c0,0,0,-149,-75,-249c0,0,-91,-120,-251,-120Z" 
id="f0_2b"
transform="scale(0.001,-0.001)" />

<path d="M56,0V26c0,0,44,5,63,29c0,0,13,16,13,97V546c0,0,0,79,-15,98c0,0,-14,20,-61,26v27H341V606c0,0,57,63,106,88c0,0,49,25,108,25c0,0,67,0,112,-32c0,0,46,-31,71,-95c0,0,59,67,114,97c0,0,55,30,115,30c0,0,72,0,115,-34c0,0,43,-33,60,-84c0,0,16,-51,16,-163V152c0,0,0,-81,15,-100c0,0,14,-20,61,-26V0H873V26c0,0,42,4,63,33c0,0,13,20,13,93V452c0,0,0,93,-7,119c0,0,-8,25,-24,38c0,0,-16,12,-37,12c0,0,-32,0,-65,-24c0,0,-33,-23,-66,-70V152c0,0,0,-76,12,-95c0,0,17,-28,66,-31V0H466V26c0,0,29,2,46,15c0,0,17,13,23,31c0,0,5,18,5,80V452c0,0,0,95,-7,119c0,0,-8,24,-25,37c0,0,-18,14,-38,14c0,0,-30,0,-54,-16c0,0,-35,-23,-75,-79V152c0,0,0,-74,14,-98c0,0,15,-23,61,-28V0Z" 
id="f0_29"
transform="scale(0.001,-0.001)" />

<path d="M298,-9c0,0,-67,0,-113,36c0,0,-46,37,-58,83c0,0,-8,25,-8,137V624H28v26c0,0,94,66,161,139c0,0,66,73,115,163h25V697H494V624H329V193c0,0,0,-60,5,-78c0,0,6,-17,20,-28c0,0,14,-11,26,-11c0,0,48,0,92,75l22,-17C494,134,434,-9,298,-9Z" 
id="f0_2g"
transform="scale(0.001,-0.001)" />

<path d="M57,0V26c0,0,45,4,61,25c0,0,16,22,16,113V550c0,0,0,59,-6,76c0,0,-7,21,-22,30c0,0,-14,10,-49,14v27H342l1,-158c0,0,69,109,121,144c0,0,52,36,100,36c0,0,42,0,66,-26c0,0,25,-26,25,-73c0,0,0,-50,-24,-77c0,0,-25,-28,-59,-28c0,0,-39,0,-68,25c0,0,-28,26,-33,29c0,0,-8,4,-17,4c0,0,-22,0,-41,-16c0,0,-31,-26,-46,-73c0,0,-24,-72,-24,-159V122c0,0,0,-42,5,-54c0,0,9,-21,27,-30c0,0,17,-9,59,-12V0Z" 
id="f0_2e"
transform="scale(0.001,-0.001)" />

<path d="M182,-328c0,0,-62,0,-101,35c0,0,-38,35,-38,85c0,0,0,44,26,72c0,0,27,28,66,28c0,0,37,0,60,-23c0,0,22,-24,23,-74c0,0,1,-29,7,-37c0,0,6,-8,17,-8c0,0,18,0,38,21c0,0,30,32,70,144l22,57L146,488c0,0,-50,118,-74,144c0,0,-25,27,-59,38v27H384V670c0,0,-36,-2,-51,-14c0,0,-15,-13,-15,-31c0,0,0,-28,37,-112L475,239l81,212c0,0,44,113,44,157c0,0,0,27,-18,44c0,0,-18,16,-65,18v27H750V670c0,0,-34,-4,-56,-27c0,0,-22,-22,-72,-155L422,-27c0,0,-75,-194,-111,-239c0,0,-52,-62,-129,-62Z" 
id="f0_2l"
transform="scale(0.001,-0.001)" />

<path d="M19,-305v34c0,0,77,52,114,100c0,0,50,67,79,171c0,0,36,131,36,365c0,0,0,221,-33,343c0,0,-32,122,-88,198c0,0,-39,52,-108,91v37c0,0,179,-60,304,-246c0,0,125,-186,125,-428c0,0,0,-238,-125,-421c0,0,-125,-184,-304,-244Z" 
id="f0_d"
transform="scale(0.001,-0.001)" />

<path d="M49,0V26c0,0,47,1,67,11c0,0,20,10,28,28c0,0,7,18,7,75l-1,484H49v73H150v87c0,0,0,107,79,179c0,0,78,71,212,71c0,0,92,0,136,-34c0,0,45,-34,45,-76c0,0,0,-34,-28,-58c0,0,-28,-25,-73,-25c0,0,-39,0,-62,20c0,0,-22,20,-22,45c0,0,0,6,4,27c0,0,3,13,3,24c0,0,0,16,-9,23c0,0,-12,11,-29,11c0,0,-21,0,-36,-17c0,0,-15,-18,-15,-58l1,-130V697H460V624H356l1,-484c0,0,0,-70,15,-88c0,0,22,-26,81,-26c2,0,5,0,7,0V0Z" 
id="f0_22"
transform="scale(0.001,-0.001)" />

<path d="M365,-20c0,0,-139,0,-223,105c0,0,-83,105,-83,253c0,0,0,142,76,250c0,0,92,131,253,131c0,0,108,0,172,-55c0,0,63,-54,63,-121c0,0,0,-43,-25,-68c0,0,-26,-25,-68,-25c0,0,-44,0,-73,29c0,0,-28,29,-35,104c0,0,-5,47,-22,65c0,0,-17,19,-40,19c0,0,-36,0,-61,-38c0,0,-39,-58,-39,-176c0,0,0,-99,31,-188c0,0,32,-90,86,-134c0,0,41,-32,97,-32c0,0,36,0,69,17c0,0,33,17,78,65l23,-18C644,163,595,70,521,25c0,0,-73,-45,-156,-45Z" 
id="f0_1z"
transform="scale(0.001,-0.001)" />

<path d="M304,-20c0,0,-59,0,-105,36c0,0,-45,36,-61,84c0,0,-16,49,-16,169V546c0,0,0,79,-14,98c0,0,-15,20,-61,26v27H331V221c0,0,0,-74,8,-96c0,0,7,-21,22,-33c0,0,15,-11,35,-11c0,0,27,0,49,14c0,0,30,20,71,78V546c0,0,0,79,-14,98c0,0,-15,20,-61,26v27H726V152c0,0,0,-81,14,-100c0,0,15,-20,61,-26V0H516V93C516,93,466,34,416,7c0,0,-50,-27,-112,-27Z" 
id="f0_2h"
transform="scale(0.001,-0.001)" />

<path d="M52,0V26c0,0,44,5,62,29c0,0,13,16,13,97V546c0,0,0,79,-14,98c0,0,-15,20,-61,26v27H336V607c0,0,54,59,104,85c0,0,49,27,106,27c0,0,68,0,113,-38c0,0,44,-38,59,-94c0,0,12,-42,12,-163V152c0,0,0,-81,15,-101c0,0,14,-19,61,-25V0H452V26c0,0,40,6,57,33c0,0,12,19,12,93V462c0,0,0,86,-7,109c0,0,-6,22,-22,35c0,0,-16,12,-36,12c0,0,-64,0,-120,-92V152c0,0,0,-79,15,-100c0,0,15,-20,55,-26V0Z" 
id="f0_2a"
transform="scale(0.001,-0.001)" />

<path d="M32,0V26c0,0,46,2,69,27c0,0,14,18,14,92V551c0,0,0,75,-17,95c0,0,-17,21,-66,24v27H325V145c0,0,0,-74,17,-95c0,0,17,-21,68,-24V0ZM220,804c0,0,-48,0,-82,33c0,0,-33,34,-33,82c0,0,0,48,33,82c0,0,34,33,82,33c0,0,48,0,82,-33c0,0,33,-34,33,-82c0,0,0,-48,-34,-82c0,0,-34,-33,-81,-33Z" 
id="f0_25"
transform="scale(0.001,-0.001)" />

<path d="M393,-277c0,0,104,0,164,28c0,0,59,27,59,77c0,0,0,19,-11,32c0,0,-20,22,-61,30c0,0,-41,8,-218,8c0,0,-76,0,-101,-12c0,0,-42,-23,-42,-63c0,0,0,-38,44,-69c0,0,44,-31,166,-31ZM366,253c0,0,45,0,75,41c0,0,30,41,30,160c0,0,0,134,-33,183c0,0,-24,36,-68,36c0,0,-43,0,-73,-44c0,0,-30,-44,-30,-181c0,0,0,-112,29,-153c0,0,30,-42,70,-42Zm8,-581c0,0,-94,0,-171,18c0,0,-78,18,-112,51c0,0,-33,32,-33,68c0,0,0,34,25,61c0,0,26,28,96,46c0,0,-97,48,-97,132c0,0,0,51,40,100c0,0,39,48,125,84c0,0,-100,36,-145,96c0,0,-44,60,-44,138c0,0,0,103,83,178c0,0,84,75,215,75c0,0,70,0,144,-30H734V607H601c0,0,37,-36,51,-66c0,0,18,-40,18,-85c0,0,0,-74,-42,-129c0,0,-41,-55,-112,-86c0,0,-72,-31,-127,-31c0,0,-5,0,-90,4c0,0,-33,0,-56,-22c0,0,-23,-22,-23,-52c0,0,0,-27,21,-44c0,0,20,-17,66,-17l130,1c0,0,157,0,216,-34c0,0,84,-47,84,-146c0,0,0,-64,-39,-115c0,0,-38,-52,-102,-77c0,0,-96,-36,-222,-36Z" 
id="f0_23"
transform="scale(0.001,-0.001)" />

<path d="M397,69c0,0,65,0,123,103V539c0,0,-55,105,-134,105c0,0,-28,0,-46,-15c0,0,-27,-23,-45,-81c0,0,-17,-58,-17,-178c0,0,0,-132,19,-195c0,0,19,-63,53,-91c0,0,17,-15,47,-15ZM332,-20c0,0,-133,0,-211,119c0,0,-62,97,-62,238c0,0,0,112,38,202c0,0,39,89,107,134c0,0,67,46,145,46c0,0,50,0,88,-20c0,0,39,-19,83,-67V842c0,0,0,80,-7,96c0,0,-8,22,-26,32c0,0,-18,11,-68,11v31H729V209c0,0,0,-81,5,-96c0,0,6,-25,22,-36c0,0,17,-12,58,-15V37L520,-20V90C520,90,467,26,426,3c0,0,-42,-23,-94,-23Z" 
id="f0_20"
transform="scale(0.001,-0.001)" />

<path d="M579,-17c0,0,-147,0,-266,70c0,0,-119,70,-189,197c0,0,-71,127,-71,277c0,0,0,149,69,271c0,0,69,123,187,191c0,0,119,69,265,69c0,0,149,0,260,-62l25,44H965L1067,667L928,627c0,0,-69,133,-130,189c0,0,-85,77,-185,77c0,0,-72,0,-135,-41c0,0,-63,-40,-100,-118c0,0,-37,-78,-37,-183c0,0,0,-161,85,-276c0,0,85,-116,222,-116c0,0,87,0,168,50c0,0,100,62,173,167l116,-86C1105,290,992,136,899,76c0,0,-144,-93,-320,-93Z" 
id="f1_13"
transform="scale(0.001,-0.001)" />

<path d="M54,0V144H88c0,0,44,0,61,7c0,0,17,8,24,21c0,0,6,14,6,59V797c0,0,0,53,-6,69c0,0,-7,16,-20,23c0,0,-14,8,-53,8H54v143H561V897H515c0,0,-39,0,-53,-8c0,0,-14,-8,-20,-23c0,0,-6,-14,-6,-63V622H815V817c0,0,0,36,-4,48c0,0,-6,18,-20,25c0,0,-14,7,-63,7H688v143h510V897h-43c0,0,-43,0,-57,-7c0,0,-14,-8,-20,-21c0,0,-5,-14,-5,-66V239c0,0,0,-52,7,-67c0,0,7,-16,21,-22c0,0,15,-6,67,-6h30V0H688V144h34c0,0,47,0,64,7c0,0,17,8,23,22c0,0,6,14,6,66V460H436V239c0,0,0,-52,5,-65c0,0,7,-18,22,-24c0,0,16,-6,63,-6h35V0Z" 
id="f1_18"
transform="scale(0.001,-0.001)" />

<path d="M59,0V144H85c0,0,52,0,70,7c0,0,18,8,25,26c0,0,4,11,4,64V808c0,0,0,46,-7,60c0,0,-6,14,-19,22c0,0,-14,7,-53,7H59v143H928L1046,712L911,663c0,0,-34,81,-80,130c0,0,-46,49,-102,65c0,0,-55,16,-129,16H441V615h52c0,0,59,0,80,9c0,0,20,8,29,26c0,0,9,19,9,73v40H744V322H611v45c0,0,0,45,-11,66c0,0,-11,21,-29,29c0,0,-19,7,-83,7H441V230c0,0,0,-38,4,-47c0,0,3,-8,14,-12c0,0,11,-5,47,-5h87c0,0,98,0,165,28c0,0,67,28,120,91c0,0,53,63,81,149l136,-47L959,0Z" 
id="f1_15"
transform="scale(0.001,-0.001)" />

<path d="M59,0V144h42c0,0,39,0,54,7c0,0,15,7,22,22c0,0,7,15,7,57V813c0,0,0,40,-5,52c0,0,-7,17,-21,24c0,0,-13,8,-42,8H59v143H530L711,408l185,632h481V897h-52c0,0,-41,0,-57,-18c0,0,-16,-17,-16,-66V222c0,0,0,-39,4,-48c0,0,7,-15,19,-21c0,0,16,-9,43,-9h59V0H876V144h39c0,0,42,0,57,6c0,0,15,7,22,21c0,0,7,14,7,51V862L748,0H604L359,835V202c0,0,0,-22,8,-34c0,0,8,-12,22,-18c0,0,15,-6,47,-6h50V0Z" 
id="f1_1d"
transform="scale(0.001,-0.001)" />

<path d="M52,0V144H93c0,0,44,0,58,6c0,0,13,6,20,20c0,0,6,14,6,55V803c0,0,0,49,-6,64c0,0,-7,15,-22,24c0,0,-10,6,-51,6H52v143H559V897H513c0,0,-40,0,-53,-7c0,0,-13,-8,-20,-23c0,0,-6,-15,-6,-58V233c0,0,0,-47,5,-61c0,0,6,-13,18,-19c0,0,16,-9,47,-9h55V0Z" 
id="f1_19"
transform="scale(0.001,-0.001)" />

<path d="M610,480L509,765L404,480ZM2,0V144c0,0,39,0,56,6c0,0,18,7,30,21c0,0,11,13,25,49l322,820H669L981,237c0,0,25,-64,45,-79c0,0,19,-14,68,-14c2,0,3,0,5,0V0H606V144h30c0,0,41,0,58,11c0,0,16,11,16,27c0,0,0,13,-14,55l-32,94H349L310,226c0,0,-12,-33,-12,-44c0,0,0,-11,8,-21c0,0,9,-10,28,-14c0,0,13,-3,71,-3V0Z" 
id="f1_11"
transform="scale(0.001,-0.001)" />

<path d="M63,0V144h49c0,0,31,0,46,8c0,0,16,8,23,22c0,0,7,14,7,48V812c0,0,0,37,-7,53c0,0,-7,17,-20,24c0,0,-13,8,-44,8H63v143H570V897H526c0,0,-37,0,-47,-4c0,0,-18,-8,-26,-23c0,0,-8,-15,-8,-49V226c0,0,0,-36,3,-44c0,0,4,-8,14,-13c0,0,10,-5,40,-5c0,0,100,0,161,26c0,0,61,27,110,84c0,0,49,58,84,158L994,385L857,0Z" 
id="f1_1c"
transform="scale(0.001,-0.001)" />

<path d="M578,166c0,0,66,0,109,13c0,0,44,12,74,51c0,0,31,39,31,93c0,0,0,46,-22,78c0,0,-21,33,-64,49c0,0,-44,16,-132,16H439V241c0,0,1,-48,4,-56c0,0,3,-11,12,-15c0,0,9,-4,47,-4ZM553,619c0,0,90,0,132,15c0,0,43,15,65,45c0,0,21,30,21,70c0,0,0,41,-20,70c0,0,-21,30,-59,42c0,0,-39,12,-139,12H439V619ZM58,0V144h42c0,0,41,0,55,7c0,0,15,7,21,20c0,0,6,13,6,59V810c0,0,0,46,-6,59c0,0,-6,13,-21,20c0,0,-14,8,-55,8H59v143H650c0,0,135,0,213,-31c0,0,77,-32,119,-91c0,0,42,-60,42,-130c0,0,0,-52,-22,-98c0,0,-22,-46,-64,-82c0,0,-41,-35,-109,-58c0,0,73,-19,111,-41c0,0,56,-32,89,-88c0,0,33,-56,33,-126c0,0,0,-82,-50,-152c0,0,-50,-70,-141,-106C871,37,780,0,604,0Z" 
id="f1_12"
transform="scale(0.001,-0.001)" />

<path d="M611,148c0,0,117,0,187,88c0,0,83,105,83,281c0,0,0,124,-35,208c0,0,-36,84,-96,126c0,0,-61,42,-132,42c0,0,-118,0,-189,-89c0,0,-88,-112,-88,-289c0,0,0,-176,82,-279c0,0,71,-88,188,-88ZM608,-17c0,0,-231,0,-378,126C230,109,53,262,53,518c0,0,0,237,155,389c0,0,156,151,407,151c0,0,248,0,401,-151c0,0,153,-150,153,-386c0,0,0,-159,-70,-282c0,0,-70,-123,-193,-190c0,0,-124,-66,-298,-66Z" 
id="f1_1f"
transform="scale(0.001,-0.001)" />

<path d="M59,0V144h44c0,0,37,0,51,6c0,0,14,6,22,22c0,0,8,16,8,47V816c0,0,0,34,-8,50c0,0,-7,16,-20,24c0,0,-12,7,-42,7H59v143H480L786,433V805c0,0,0,48,-5,60c0,0,-8,17,-20,25c0,0,-13,7,-49,7H661v143h428V897h-47c0,0,-36,0,-51,-9c0,0,-15,-8,-21,-22c0,0,-6,-14,-6,-61V0H750L364,767V230c0,0,0,-46,5,-59c0,0,6,-12,20,-20c0,0,15,-7,50,-7h50V0Z" 
id="f1_1e"
transform="scale(0.001,-0.001)" />

<path d="M514,166c0,0,122,0,191,38c0,0,69,38,111,121c0,0,43,83,43,199c0,0,0,113,-40,197c0,0,-40,84,-99,119c0,0,-59,34,-168,34H437V226c0,0,0,-33,4,-40c0,0,6,-12,17,-16c0,0,12,-4,56,-4ZM55,0V144H91c0,0,46,0,60,7c0,0,15,8,24,26c0,0,6,14,6,61V807c0,0,0,48,-6,62c0,0,-7,13,-21,21c0,0,-15,7,-62,7H56v143H601c0,0,186,0,296,-59c0,0,110,-58,175,-174c0,0,65,-116,65,-278c0,0,0,-112,-33,-201c0,0,-33,-89,-99,-160c0,0,-66,-71,-141,-107C864,61,807,34,703,17C703,17,599,0,536,0Z" 
id="f1_14"
transform="scale(0.001,-0.001)" />

<path d="M568,-17c0,0,-143,0,-260,69c0,0,-117,69,-185,193c0,0,-68,125,-68,279c0,0,0,153,67,274c0,0,68,121,189,190c0,0,121,70,263,70c0,0,68,0,136,-17c0,0,69,-18,117,-47l28,46H959l94,-344L916,651c0,0,-71,113,-111,154c0,0,-41,41,-94,65c0,0,-52,23,-102,23c0,0,-71,0,-133,-41c0,0,-61,-41,-97,-120c0,0,-36,-79,-36,-191c0,0,0,-123,39,-213c0,0,40,-90,103,-134c0,0,64,-43,140,-43c0,0,53,0,102,21c0,0,48,22,66,49c0,0,18,26,18,72v38c0,0,0,39,-6,49c0,0,-8,15,-22,22c0,0,-13,7,-53,7H671V554h507V409h-38c0,0,-37,0,-51,-7c0,0,-14,-7,-20,-21c0,0,-7,-15,-7,-56V0H909L870,75C870,75,799,28,724,5c0,0,-75,-22,-156,-22Z" 
id="f1_17"
transform="scale(0.001,-0.001)" />


</defs>
</svg>